%TF.GenerationSoftware,KiCad,Pcbnew,7.0.9*%
%TF.CreationDate,2024-01-05T18:10:49+02:00*%
%TF.ProjectId,kikad_project,6b696b61-645f-4707-926f-6a6563742e6b,rev?*%
%TF.SameCoordinates,Original*%
%TF.FileFunction,Copper,L1,Top*%
%TF.FilePolarity,Positive*%
%FSLAX46Y46*%
G04 Gerber Fmt 4.6, Leading zero omitted, Abs format (unit mm)*
G04 Created by KiCad (PCBNEW 7.0.9) date 2024-01-05 18:10:49*
%MOMM*%
%LPD*%
G01*
G04 APERTURE LIST*
%TA.AperFunction,ComponentPad*%
%ADD10C,1.300000*%
%TD*%
%TA.AperFunction,ComponentPad*%
%ADD11C,1.625600*%
%TD*%
%TA.AperFunction,ComponentPad*%
%ADD12R,1.651000X1.651000*%
%TD*%
%TA.AperFunction,ComponentPad*%
%ADD13C,1.651000*%
%TD*%
%TA.AperFunction,ComponentPad*%
%ADD14R,1.905000X2.000000*%
%TD*%
%TA.AperFunction,ComponentPad*%
%ADD15O,1.905000X2.000000*%
%TD*%
%TA.AperFunction,ComponentPad*%
%ADD16C,1.600000*%
%TD*%
%TA.AperFunction,ComponentPad*%
%ADD17O,1.600000X1.600000*%
%TD*%
%TA.AperFunction,ComponentPad*%
%ADD18C,1.701800*%
%TD*%
%TA.AperFunction,ComponentPad*%
%ADD19C,1.650000*%
%TD*%
%TA.AperFunction,ComponentPad*%
%ADD20R,1.650000X1.650000*%
%TD*%
%TA.AperFunction,ComponentPad*%
%ADD21O,1.700000X1.700000*%
%TD*%
%TA.AperFunction,ComponentPad*%
%ADD22R,1.700000X1.700000*%
%TD*%
%TA.AperFunction,ComponentPad*%
%ADD23R,1.600000X1.600000*%
%TD*%
%TA.AperFunction,ComponentPad*%
%ADD24C,6.400000*%
%TD*%
%TA.AperFunction,ComponentPad*%
%ADD25C,2.200000*%
%TD*%
%TA.AperFunction,ComponentPad*%
%ADD26O,2.200000X2.200000*%
%TD*%
%TA.AperFunction,ComponentPad*%
%ADD27C,3.500000*%
%TD*%
%TA.AperFunction,ComponentPad*%
%ADD28R,1.130000X1.130000*%
%TD*%
%TA.AperFunction,ComponentPad*%
%ADD29C,1.130000*%
%TD*%
%TA.AperFunction,ComponentPad*%
%ADD30C,1.700000*%
%TD*%
%TA.AperFunction,Conductor*%
%ADD31C,0.500000*%
%TD*%
%TA.AperFunction,Conductor*%
%ADD32C,2.000000*%
%TD*%
%TA.AperFunction,Conductor*%
%ADD33C,0.250000*%
%TD*%
%TA.AperFunction,Conductor*%
%ADD34C,3.000000*%
%TD*%
G04 APERTURE END LIST*
D10*
%TO.P,IC1,1,VF1+*%
%TO.N,DISK_PWM*%
X75090000Y-35600000D03*
%TO.P,IC1,2,VF1-*%
%TO.N,GND*%
X75090000Y-38140000D03*
%TO.P,IC1,3,VF2-*%
X75090000Y-40680000D03*
%TO.P,IC1,4,VF2+*%
%TO.N,DISK_DIR*%
X75090000Y-43220000D03*
%TO.P,IC1,5,GND*%
%TO.N,GND*%
X82710000Y-43220000D03*
%TO.P,IC1,6,V02*%
%TO.N,Net-(IC1-V02)*%
X82710000Y-40680000D03*
%TO.P,IC1,7,V01*%
%TO.N,Net-(IC1-V01)*%
X82710000Y-38140000D03*
%TO.P,IC1,8,Vcc*%
%TO.N,+5V*%
X82710000Y-35600000D03*
%TD*%
D11*
%TO.P,J9,1,1*%
%TO.N,+24V*%
X28034900Y-100480001D03*
%TO.P,J9,2,2*%
%TO.N,GND*%
X33034900Y-100480001D03*
%TD*%
%TO.P,J7,1,1*%
%TO.N,Net-(IC2-V02)*%
X90420001Y-42135101D03*
%TO.P,J7,2,2*%
%TO.N,Net-(IC2-V01)*%
X90420001Y-37135101D03*
%TD*%
D10*
%TO.P,IC3,1,VF1+*%
%TO.N,WHEEL_RIGHT_PWM*%
X75090000Y-61000000D03*
%TO.P,IC3,2,VF1-*%
%TO.N,GND*%
X75090000Y-63540000D03*
%TO.P,IC3,3,VF2-*%
X75090000Y-66080000D03*
%TO.P,IC3,4,VF2+*%
%TO.N,WHEEL_RIGHT_DIR*%
X75090000Y-68620000D03*
%TO.P,IC3,5,GND*%
%TO.N,GND*%
X82710000Y-68620000D03*
%TO.P,IC3,6,V02*%
%TO.N,Net-(IC3-V02)*%
X82710000Y-66080000D03*
%TO.P,IC3,7,V01*%
%TO.N,Net-(IC3-V01)*%
X82710000Y-63540000D03*
%TO.P,IC3,8,Vcc*%
%TO.N,+5V*%
X82710000Y-61000000D03*
%TD*%
D12*
%TO.P,D1,1*%
%TO.N,+24V*%
X75260000Y-88160600D03*
D13*
%TO.P,D1,2*%
%TO.N,Net-(Q2-G)*%
X75260000Y-77162400D03*
%TD*%
D11*
%TO.P,J16,1,1*%
%TO.N,Net-(IC3-V02)*%
X90420001Y-60575101D03*
%TO.P,J16,2,2*%
%TO.N,Net-(IC3-V01)*%
X90420001Y-55575101D03*
%TD*%
%TO.P,J11,1,1*%
%TO.N,Net-(J11-Pad1)*%
X9600000Y-47060000D03*
%TO.P,J11,2,2*%
%TO.N,GND*%
X9600000Y-52060000D03*
%TO.P,J11,3,3*%
%TO.N,VCC*%
X9600000Y-57060000D03*
%TO.P,J11,4,4*%
%TO.N,Net-(J11-Pad4)*%
X9600000Y-62060001D03*
%TD*%
D14*
%TO.P,U4,1,IN*%
%TO.N,+24V*%
X55340000Y-87630000D03*
D15*
%TO.P,U4,2,GND*%
%TO.N,GND*%
X57880000Y-87630000D03*
%TO.P,U4,3,OUT*%
%TO.N,+5V*%
X60420000Y-87630000D03*
%TD*%
D16*
%TO.P,C6,1*%
%TO.N,+5V*%
X60420000Y-81220000D03*
D17*
%TO.P,C6,2*%
%TO.N,GND*%
X60420000Y-73720000D03*
%TD*%
D18*
%TO.P,J17,1,1*%
%TO.N,GND*%
X89420000Y-66890000D03*
%TO.P,J17,2,2*%
X94420000Y-66890000D03*
%TD*%
D19*
%TO.P,D3,A*%
%TO.N,Net-(Q2-S)*%
X90500000Y-87320000D03*
D20*
%TO.P,D3,C*%
%TO.N,GND*%
X90500000Y-74320000D03*
%TD*%
D16*
%TO.P,C9,1*%
%TO.N,+3.3V*%
X24070000Y-5080000D03*
D17*
%TO.P,C9,2*%
%TO.N,GND*%
X16570000Y-5080000D03*
%TD*%
D21*
%TO.P,U2,1,VBAT*%
%TO.N,unconnected-(U2-VBAT-Pad1)*%
X67430000Y-20810000D03*
%TO.P,U2,2,PC13*%
%TO.N,unconnected-(U2-PC13-Pad2)*%
X64890000Y-20810000D03*
%TO.P,U2,3,PC14*%
%TO.N,unconnected-(U2-PC14-Pad3)*%
X62350000Y-20810000D03*
%TO.P,U2,3v,3V3*%
%TO.N,+3.3V*%
X67430000Y-35385000D03*
X24250000Y-20810000D03*
%TO.P,U2,4,PC15*%
%TO.N,unconnected-(U2-PC15-Pad4)*%
X59810000Y-20810000D03*
%TO.P,U2,5v,5V*%
%TO.N,VCC*%
X62350000Y-35385000D03*
%TO.P,U2,7,NRST*%
%TO.N,unconnected-(U2-NRST-Pad7)*%
X26790000Y-20810000D03*
%TO.P,U2,10,PA0*%
%TO.N,unconnected-(U2-PA0-Pad10)*%
X57270000Y-20810000D03*
%TO.P,U2,11,PA1*%
%TO.N,HAND_PWM*%
X54730000Y-20810000D03*
%TO.P,U2,12,PA2*%
%TO.N,HAND_DIR*%
X52190000Y-20810000D03*
%TO.P,U2,13,PA3*%
%TO.N,unconnected-(U2-PA3-Pad13)*%
X49650000Y-20810000D03*
%TO.P,U2,14,PA4*%
%TO.N,DISK_DIR*%
X47110000Y-20810000D03*
%TO.P,U2,15,PA5*%
%TO.N,WHEEL_LEFT_DIR*%
X44570000Y-20810000D03*
%TO.P,U2,16,PA6*%
%TO.N,WHEEL_RIGHT_DIR*%
X42030000Y-20810000D03*
%TO.P,U2,17,PA7*%
%TO.N,DISK_PWM*%
X39490000Y-20810000D03*
%TO.P,U2,18,PB0*%
%TO.N,WHEEL_LEFT_PWM*%
X36950000Y-20810000D03*
%TO.P,U2,19,PB1*%
%TO.N,WHEEL_RIGHT_PWM*%
X34410000Y-20810000D03*
%TO.P,U2,21,PB10*%
%TO.N,unconnected-(U2-PB10-Pad21)*%
X31870000Y-20810000D03*
%TO.P,U2,22,PB11*%
%TO.N,unconnected-(U2-PB11-Pad22)*%
X29330000Y-20810000D03*
D22*
%TO.P,U2,25,PB12*%
%TO.N,unconnected-(U2-PB12-Pad25)*%
X19170000Y-35385000D03*
D21*
%TO.P,U2,26,PB13*%
%TO.N,unconnected-(U2-PB13-Pad26)*%
X21710000Y-35385000D03*
%TO.P,U2,27,PB14*%
%TO.N,unconnected-(U2-PB14-Pad27)*%
X24250000Y-35385000D03*
%TO.P,U2,28,PB15*%
%TO.N,HAND_END_RIGHT*%
X26790000Y-35385000D03*
%TO.P,U2,29,PA8*%
%TO.N,HAND_END_LEFT*%
X29330000Y-35385000D03*
%TO.P,U2,30,PA9*%
%TO.N,PA9*%
X31870000Y-35385000D03*
%TO.P,U2,31,PA10*%
%TO.N,PA10*%
X34410000Y-35385000D03*
%TO.P,U2,32,PA11*%
%TO.N,unconnected-(U2-PA11-Pad32)*%
X36950000Y-35385000D03*
%TO.P,U2,33,PA12*%
%TO.N,unconnected-(U2-PA12-Pad33)*%
X39490000Y-35385000D03*
%TO.P,U2,38,PA15*%
%TO.N,PA15*%
X42030000Y-35385000D03*
%TO.P,U2,39,PB3*%
%TO.N,PB3*%
X44570000Y-35385000D03*
%TO.P,U2,40,PB4*%
%TO.N,PB4*%
X47110000Y-35385000D03*
%TO.P,U2,41,PB5*%
%TO.N,PB5*%
X49650000Y-35385000D03*
%TO.P,U2,42,PB6*%
%TO.N,unconnected-(U2-PB6-Pad42)*%
X52190000Y-35385000D03*
%TO.P,U2,43,PB7*%
%TO.N,OPT_END_WHEEL_RIGHT*%
X54730000Y-35385000D03*
%TO.P,U2,45,PB8*%
%TO.N,OPT_END_WHEEL_LEFT*%
X57270000Y-35385000D03*
%TO.P,U2,46,PB9*%
%TO.N,OPT_END_DISK*%
X59810000Y-35385000D03*
%TO.P,U2,G,GND*%
%TO.N,GND*%
X64890000Y-35385000D03*
D22*
X19170000Y-20810000D03*
D21*
X21710000Y-20810000D03*
%TD*%
D23*
%TO.P,C12,1*%
%TO.N,OPT_END_WHEEL_LEFT*%
X30480000Y-55880000D03*
D16*
%TO.P,C12,2*%
%TO.N,GND*%
X30480000Y-53880000D03*
%TD*%
%TO.P,C4,1*%
%TO.N,+24V*%
X65500000Y-88840000D03*
D17*
%TO.P,C4,2*%
%TO.N,GND*%
X65500000Y-81340000D03*
%TD*%
D11*
%TO.P,J10,1,1*%
%TO.N,VCC*%
X9600000Y-69870000D03*
%TO.P,J10,2,2*%
%TO.N,Net-(J10-Pad2)*%
X9600000Y-74870000D03*
%TO.P,J10,3,3*%
%TO.N,GND*%
X9600000Y-79870000D03*
%TO.P,J10,4,4*%
%TO.N,VCC*%
X9600000Y-84870001D03*
%TD*%
%TO.P,J6,1,1*%
%TO.N,+24V*%
X15214900Y-100480001D03*
%TO.P,J6,2,2*%
%TO.N,GND*%
X20214900Y-100480001D03*
%TD*%
%TO.P,J2,1,1*%
%TO.N,Net-(U12-E)*%
X95790000Y-9510000D03*
%TO.P,J2,2,2*%
%TO.N,GND*%
X90790000Y-9510000D03*
%TO.P,J2,3,3*%
%TO.N,Net-(U12-F)*%
X85790000Y-9510000D03*
%TO.P,J2,4,4*%
%TO.N,GND*%
X80789999Y-9510000D03*
%TD*%
%TO.P,J14,1,1*%
%TO.N,HAND_END_RIGHT*%
X9600000Y-28640000D03*
%TO.P,J14,2,2*%
%TO.N,GND*%
X9600000Y-33640000D03*
%TD*%
D24*
%TO.P,H2,1,1*%
%TO.N,GND*%
X7620000Y-6350000D03*
%TD*%
D16*
%TO.P,C2,1*%
%TO.N,VCC*%
X45720000Y-76200000D03*
D17*
%TO.P,C2,2*%
%TO.N,GND*%
X45720000Y-68700000D03*
%TD*%
D25*
%TO.P,L1,1,1*%
%TO.N,+24V*%
X43180000Y-87630000D03*
D26*
%TO.P,L1,2,2*%
%TO.N,Net-(U3-IN)*%
X38100000Y-87630000D03*
%TD*%
D14*
%TO.P,U3,1,IN*%
%TO.N,Net-(U3-IN)*%
X38100000Y-81280000D03*
D15*
%TO.P,U3,2,GND*%
%TO.N,GND*%
X40640000Y-81280000D03*
%TO.P,U3,3,OUT*%
%TO.N,VCC*%
X43180000Y-81280000D03*
%TD*%
D16*
%TO.P,R3,1*%
%TO.N,OPT_END_WHEEL_RIGHT*%
X27940000Y-50070000D03*
D17*
%TO.P,R3,2*%
%TO.N,Net-(J11-Pad1)*%
X17780000Y-50070000D03*
%TD*%
D11*
%TO.P,J1,1,1*%
%TO.N,Net-(J1-Pad1)*%
X79324900Y-100480001D03*
%TO.P,J1,2,2*%
%TO.N,GND*%
X84324900Y-100480001D03*
%TD*%
D16*
%TO.P,C3,1*%
%TO.N,Net-(U3-IN)*%
X33020000Y-91440000D03*
D17*
%TO.P,C3,2*%
%TO.N,GND*%
X33020000Y-83940000D03*
%TD*%
D18*
%TO.P,J8,1,1*%
%TO.N,GND*%
X89420000Y-48450000D03*
%TO.P,J8,2,2*%
X94420000Y-48450000D03*
%TD*%
D11*
%TO.P,J3,1,1*%
%TO.N,GND*%
X53684900Y-100480001D03*
%TO.P,J3,2,2*%
%TO.N,+24V*%
X58684900Y-100480001D03*
%TD*%
D23*
%TO.P,C1,1*%
%TO.N,VCC*%
X40100000Y-73660000D03*
D16*
%TO.P,C1,2*%
%TO.N,GND*%
X38100000Y-73660000D03*
%TD*%
D24*
%TO.P,H1,1,1*%
%TO.N,GND*%
X7000000Y-101600000D03*
%TD*%
D11*
%TO.P,J15,1,1*%
%TO.N,/BAT_SW*%
X66494900Y-100480001D03*
%TO.P,J15,2,2*%
%TO.N,Net-(J1-Pad1)*%
X71494900Y-100480001D03*
%TD*%
D23*
%TO.P,C11,1*%
%TO.N,OPT_END_WHEEL_RIGHT*%
X30480000Y-45720000D03*
D16*
%TO.P,C11,2*%
%TO.N,GND*%
X30480000Y-43720000D03*
%TD*%
%TO.P,R1,1*%
%TO.N,Net-(Q2-G)*%
X85420000Y-83360000D03*
D17*
%TO.P,R1,2*%
%TO.N,GND*%
X85420000Y-73200000D03*
%TD*%
D14*
%TO.P,Q2,1,G*%
%TO.N,Net-(Q2-G)*%
X80340000Y-88440000D03*
D15*
%TO.P,Q2,2,D*%
%TO.N,+24V*%
X82880000Y-88440000D03*
%TO.P,Q2,3,S*%
%TO.N,Net-(Q2-S)*%
X85420000Y-88440000D03*
%TD*%
D11*
%TO.P,J4,1,1*%
%TO.N,Net-(IC1-V02)*%
X90420001Y-23705101D03*
%TO.P,J4,2,2*%
%TO.N,Net-(IC1-V01)*%
X90420001Y-18705101D03*
%TD*%
D23*
%TO.P,C5,1*%
%TO.N,+5V*%
X55880000Y-80010000D03*
D16*
%TO.P,C5,2*%
%TO.N,GND*%
X53880000Y-80010000D03*
%TD*%
D23*
%TO.P,C8,1*%
%TO.N,+3.3V*%
X21050000Y-12700000D03*
D16*
%TO.P,C8,2*%
%TO.N,GND*%
X19050000Y-12700000D03*
%TD*%
D24*
%TO.P,H3,1,1*%
%TO.N,GND*%
X92710000Y-101600000D03*
%TD*%
D16*
%TO.P,C7,1*%
%TO.N,Net-(Q2-G)*%
X80340000Y-83360000D03*
D17*
%TO.P,C7,2*%
%TO.N,GND*%
X80340000Y-75860000D03*
%TD*%
D18*
%TO.P,J12,1,1*%
%TO.N,GND*%
X10600001Y-40749999D03*
%TO.P,J12,2,2*%
X5600001Y-40749999D03*
%TD*%
D27*
%TO.P,X1,1A*%
%TO.N,/BAT_SW*%
X96150000Y-93470000D03*
%TO.P,X1,1B*%
X96150000Y-88390000D03*
%TO.P,X1,2A*%
%TO.N,Net-(Q2-S)*%
X96150000Y-84330000D03*
%TO.P,X1,2B*%
X96150000Y-79250000D03*
%TD*%
D28*
%TO.P,U12,1,VCC*%
%TO.N,+3.3V*%
X66100000Y-6860000D03*
D29*
%TO.P,U12,2,EN_A*%
X63560000Y-6860000D03*
%TO.P,U12,3,A*%
%TO.N,HAND_PWM*%
X61020000Y-6860000D03*
%TO.P,U12,4,E*%
%TO.N,Net-(U12-E)*%
X58480000Y-6860000D03*
%TO.P,U12,5,F*%
%TO.N,Net-(U12-F)*%
X55940000Y-6860000D03*
%TO.P,U12,6,B*%
%TO.N,HAND_DIR*%
X53400000Y-6860000D03*
%TO.P,U12,7,EN_B*%
%TO.N,+3.3V*%
X50860000Y-6860000D03*
%TO.P,U12,8,VSS*%
%TO.N,GND*%
X48320000Y-6860000D03*
%TO.P,U12,9,EN_C*%
%TO.N,unconnected-(U12-EN_C-Pad9)*%
X48320000Y-14800000D03*
%TO.P,U12,10,C*%
%TO.N,unconnected-(U12-C-Pad10)*%
X50860000Y-14800000D03*
%TO.P,U12,11,G*%
%TO.N,unconnected-(U12-G-Pad11)*%
X53400000Y-14800000D03*
%TO.P,U12,12*%
%TO.N,N/C*%
X55940000Y-14800000D03*
%TO.P,U12,13,H*%
%TO.N,unconnected-(U12-H-Pad13)*%
X58480000Y-14800000D03*
%TO.P,U12,14,D*%
%TO.N,unconnected-(U12-D-Pad14)*%
X61020000Y-14800000D03*
%TO.P,U12,15,EN_D*%
%TO.N,unconnected-(U12-EN_D-Pad15)*%
X63560000Y-14800000D03*
%TO.P,U12,16,VDD*%
%TO.N,+5V*%
X66100000Y-14800000D03*
%TD*%
D18*
%TO.P,J5,1,1*%
%TO.N,GND*%
X89420000Y-30010000D03*
%TO.P,J5,2,2*%
X94420000Y-30010000D03*
%TD*%
D11*
%TO.P,J13,1,1*%
%TO.N,HAND_END_LEFT*%
X9600000Y-15820000D03*
%TO.P,J13,2,2*%
%TO.N,GND*%
X9600000Y-20820000D03*
%TD*%
D10*
%TO.P,IC2,1,VF1+*%
%TO.N,WHEEL_LEFT_PWM*%
X75090000Y-48300000D03*
%TO.P,IC2,2,VF1-*%
%TO.N,GND*%
X75090000Y-50840000D03*
%TO.P,IC2,3,VF2-*%
X75090000Y-53380000D03*
%TO.P,IC2,4,VF2+*%
%TO.N,WHEEL_LEFT_DIR*%
X75090000Y-55920000D03*
%TO.P,IC2,5,GND*%
%TO.N,GND*%
X82710000Y-55920000D03*
%TO.P,IC2,6,V02*%
%TO.N,Net-(IC2-V02)*%
X82710000Y-53380000D03*
%TO.P,IC2,7,V01*%
%TO.N,Net-(IC2-V01)*%
X82710000Y-50840000D03*
%TO.P,IC2,8,Vcc*%
%TO.N,+5V*%
X82710000Y-48300000D03*
%TD*%
D11*
%TO.P,J18,1,1*%
%TO.N,+24V*%
X40854900Y-100480001D03*
%TO.P,J18,2,2*%
%TO.N,GND*%
X45854900Y-100480001D03*
%TD*%
D16*
%TO.P,R2,1*%
%TO.N,OPT_END_DISK*%
X27940000Y-70390000D03*
D17*
%TO.P,R2,2*%
%TO.N,Net-(J10-Pad2)*%
X17780000Y-70390000D03*
%TD*%
D23*
%TO.P,C10,1*%
%TO.N,OPT_END_DISK*%
X30480000Y-66040000D03*
D16*
%TO.P,C10,2*%
%TO.N,GND*%
X30480000Y-64040000D03*
%TD*%
D22*
%TO.P,U1,1,GND*%
%TO.N,GND*%
X27940000Y-3265000D03*
D30*
%TO.P,U1,2,VCC*%
%TO.N,+3.3V*%
X30480000Y-3265000D03*
%TO.P,U1,3,CE*%
%TO.N,PA10*%
X27940000Y-5805000D03*
%TO.P,U1,4,~{CSN}*%
%TO.N,PA15*%
X30480000Y-5805000D03*
%TO.P,U1,5,SCK*%
%TO.N,PB3*%
X27940000Y-8345000D03*
%TO.P,U1,6,MOSI*%
%TO.N,PB5*%
X30480000Y-8345000D03*
%TO.P,U1,7,MISO*%
%TO.N,PB4*%
X27940000Y-10885000D03*
%TO.P,U1,8,IRQ*%
%TO.N,PA9*%
X30480000Y-10885000D03*
%TD*%
D16*
%TO.P,R4,1*%
%TO.N,OPT_END_WHEEL_LEFT*%
X27940000Y-60230000D03*
D17*
%TO.P,R4,2*%
%TO.N,Net-(J11-Pad4)*%
X17780000Y-60230000D03*
%TD*%
D31*
%TO.N,DISK_DIR*%
X75090000Y-43220000D02*
X72860000Y-40990000D01*
X72860000Y-40990000D02*
X72860000Y-28220000D01*
X72860000Y-28220000D02*
X67940000Y-23300000D01*
X67940000Y-23300000D02*
X49600000Y-23300000D01*
X49600000Y-23300000D02*
X47110000Y-20810000D01*
%TO.N,WHEEL_LEFT_DIR*%
X75090000Y-55920000D02*
X71450000Y-52280000D01*
X71450000Y-28340000D02*
X67700000Y-24590000D01*
X71450000Y-52280000D02*
X71450000Y-28340000D01*
X67700000Y-24590000D02*
X48350000Y-24590000D01*
X48350000Y-24590000D02*
X44570000Y-20810000D01*
%TO.N,WHEEL_RIGHT_DIR*%
X75090000Y-68620000D02*
X70090000Y-63620000D01*
X70090000Y-63620000D02*
X70090000Y-28400000D01*
X70090000Y-28400000D02*
X67660000Y-25970000D01*
X67660000Y-25970000D02*
X47190000Y-25970000D01*
X47190000Y-25970000D02*
X42030000Y-20810000D01*
%TO.N,VCC*%
X67710000Y-51330000D02*
X67710000Y-60990000D01*
X43615000Y-74095000D02*
X54605000Y-74095000D01*
X20149999Y-84870001D02*
X26740000Y-78280000D01*
X43180000Y-73660000D02*
X40100000Y-73660000D01*
X6630000Y-66900000D02*
X9600000Y-69870000D01*
X9600000Y-84870001D02*
X20149999Y-84870001D01*
X9600000Y-69870000D02*
X6180000Y-73290000D01*
X67710000Y-60990000D02*
X67700000Y-61000000D01*
X54605000Y-74095000D02*
X67700000Y-61000000D01*
X6180000Y-81450001D02*
X9600000Y-84870001D01*
X6180000Y-73290000D02*
X6180000Y-81450001D01*
X43180000Y-78740000D02*
X45720000Y-76200000D01*
X67710000Y-51330000D02*
X67710000Y-40745000D01*
X39430000Y-78280000D02*
X43615000Y-74095000D01*
X43615000Y-74095000D02*
X43180000Y-73660000D01*
X26740000Y-78280000D02*
X39430000Y-78280000D01*
X67710000Y-40745000D02*
X62350000Y-35385000D01*
X43180000Y-81280000D02*
X43180000Y-78740000D01*
X45720000Y-76200000D02*
X43615000Y-74095000D01*
X6630000Y-60030000D02*
X6630000Y-66900000D01*
X9600000Y-57060000D02*
X6630000Y-60030000D01*
%TO.N,Net-(U3-IN)*%
X34290000Y-91440000D02*
X33020000Y-91440000D01*
X38100000Y-87630000D02*
X34290000Y-91440000D01*
X38100000Y-87630000D02*
X38100000Y-81280000D01*
D32*
%TO.N,+24V*%
X82880000Y-88440000D02*
X82880000Y-90470000D01*
D31*
%TO.N,+5V*%
X81280000Y-46290000D02*
X81280000Y-37030000D01*
X74330000Y-17550000D02*
X81280000Y-24500000D01*
X81280000Y-49730000D02*
X82710000Y-48300000D01*
X68850000Y-17550000D02*
X74330000Y-17550000D01*
X66100000Y-14800000D02*
X68850000Y-17550000D01*
X81280000Y-59570000D02*
X81280000Y-59290000D01*
X58120000Y-81220000D02*
X60420000Y-81220000D01*
X81280000Y-46870000D02*
X81280000Y-46290000D01*
X81280000Y-37030000D02*
X82710000Y-35600000D01*
X82710000Y-35600000D02*
X81280000Y-34170000D01*
X57950000Y-81050000D02*
X58120000Y-81220000D01*
X66000000Y-73000000D02*
X81280000Y-73000000D01*
X56910000Y-80010000D02*
X57950000Y-81050000D01*
X81280000Y-73000000D02*
X81280000Y-62430000D01*
X81280000Y-62430000D02*
X82710000Y-61000000D01*
X81280000Y-24500000D02*
X81280000Y-33400000D01*
X81280000Y-34170000D02*
X81280000Y-33400000D01*
X82710000Y-61000000D02*
X81280000Y-59570000D01*
X55880000Y-80010000D02*
X56910000Y-80010000D01*
X82710000Y-48300000D02*
X81280000Y-46870000D01*
X81280000Y-59290000D02*
X81280000Y-49730000D01*
X60420000Y-87630000D02*
X60420000Y-81220000D01*
X57950000Y-81050000D02*
X66000000Y-73000000D01*
D32*
%TO.N,Net-(Q2-G)*%
X80340000Y-82242400D02*
X80340000Y-83360000D01*
X85420000Y-83360000D02*
X80340000Y-83360000D01*
X75260000Y-77162400D02*
X80340000Y-82242400D01*
X80340000Y-88440000D02*
X80340000Y-83360000D01*
%TO.N,Net-(Q2-S)*%
X89380000Y-88440000D02*
X85420000Y-88440000D01*
X90500000Y-87320000D02*
X89380000Y-88440000D01*
X93490000Y-84330000D02*
X90500000Y-87320000D01*
X96150000Y-84330000D02*
X93490000Y-84330000D01*
X96150000Y-84330000D02*
X96150000Y-79250000D01*
D31*
%TO.N,PA10*%
X27115000Y-5805000D02*
X24850000Y-8070000D01*
X24850000Y-8070000D02*
X24850000Y-13680000D01*
X30580000Y-31555000D02*
X34410000Y-35385000D01*
X30580000Y-19410000D02*
X30580000Y-31555000D01*
X24850000Y-13680000D02*
X30580000Y-19410000D01*
D33*
X27940000Y-5805000D02*
X27115000Y-5805000D01*
D31*
%TO.N,PA15*%
X25590000Y-8400000D02*
X25590000Y-12790000D01*
X30480000Y-5805000D02*
X29255000Y-7030000D01*
X33130000Y-20330000D02*
X33130000Y-26485000D01*
X26960000Y-7030000D02*
X25590000Y-8400000D01*
X29255000Y-7030000D02*
X26960000Y-7030000D01*
X25590000Y-12790000D02*
X33130000Y-20330000D01*
X33130000Y-26485000D02*
X42030000Y-35385000D01*
%TO.N,PB3*%
X27940000Y-8345000D02*
X26500000Y-9785000D01*
X35670000Y-19310000D02*
X35670000Y-26485000D01*
X26500000Y-12720000D02*
X32300000Y-18520000D01*
X32300000Y-18520000D02*
X34880000Y-18520000D01*
X26500000Y-9785000D02*
X26500000Y-12720000D01*
X35670000Y-26485000D02*
X44570000Y-35385000D01*
X34880000Y-18520000D02*
X35670000Y-19310000D01*
%TO.N,PB5*%
X40760000Y-26495000D02*
X49650000Y-35385000D01*
X40760000Y-18010000D02*
X40760000Y-26495000D01*
D33*
X30480000Y-8345000D02*
X31095000Y-8345000D01*
D31*
X31095000Y-8345000D02*
X40760000Y-18010000D01*
%TO.N,PB4*%
X33020000Y-17780000D02*
X36830000Y-17780000D01*
X38210000Y-26485000D02*
X47110000Y-35385000D01*
X27940000Y-10885000D02*
X27940000Y-12700000D01*
X27940000Y-12700000D02*
X33020000Y-17780000D01*
X36830000Y-17780000D02*
X38210000Y-19160000D01*
X38210000Y-19160000D02*
X38210000Y-26485000D01*
%TO.N,PA9*%
X31720000Y-6500000D02*
X31720000Y-5240000D01*
X31720000Y-5240000D02*
X30990000Y-4510000D01*
X30480000Y-10885000D02*
X29210000Y-9615000D01*
X23960000Y-7700000D02*
X23960000Y-14200000D01*
X23960000Y-14200000D02*
X28030000Y-18270000D01*
X30990000Y-4510000D02*
X27150000Y-4510000D01*
X27150000Y-4510000D02*
X23960000Y-7700000D01*
X28030000Y-18270000D02*
X28030000Y-31545000D01*
X30030000Y-7070000D02*
X31150000Y-7070000D01*
X31150000Y-7070000D02*
X31720000Y-6500000D01*
X28030000Y-31545000D02*
X31870000Y-35385000D01*
X29210000Y-9615000D02*
X29210000Y-7890000D01*
X29210000Y-7890000D02*
X30030000Y-7070000D01*
%TO.N,Net-(J10-Pad2)*%
X17780000Y-70390000D02*
X14080000Y-70390000D01*
X14080000Y-70390000D02*
X9600000Y-74870000D01*
%TO.N,Net-(J11-Pad1)*%
X9600000Y-47060000D02*
X12610000Y-50070000D01*
X12610000Y-50070000D02*
X17780000Y-50070000D01*
%TO.N,Net-(J11-Pad4)*%
X9600000Y-62060001D02*
X11130000Y-60530001D01*
X11130000Y-60530001D02*
X11130000Y-60520000D01*
X11420000Y-60230000D02*
X17780000Y-60230000D01*
X11130000Y-60520000D02*
X11420000Y-60230000D01*
%TO.N,HAND_END_LEFT*%
X9600000Y-15820000D02*
X11820000Y-18040000D01*
X21215000Y-27270000D02*
X29330000Y-35385000D01*
X11820000Y-18040000D02*
X11820000Y-25600000D01*
X11820000Y-25600000D02*
X13490000Y-27270000D01*
X13490000Y-27270000D02*
X21215000Y-27270000D01*
%TO.N,HAND_END_RIGHT*%
X20045000Y-28640000D02*
X26790000Y-35385000D01*
X9600000Y-28640000D02*
X20045000Y-28640000D01*
%TO.N,OPT_END_WHEEL_LEFT*%
X52625000Y-40030000D02*
X57270000Y-35385000D01*
X35580000Y-55880000D02*
X37850000Y-53610000D01*
X27940000Y-60230000D02*
X27940000Y-58420000D01*
X43440000Y-40030000D02*
X52625000Y-40030000D01*
X37850000Y-45620000D02*
X43440000Y-40030000D01*
X27940000Y-58420000D02*
X30480000Y-55880000D01*
X30480000Y-55880000D02*
X35580000Y-55880000D01*
X37850000Y-53610000D02*
X37850000Y-45620000D01*
%TO.N,OPT_END_WHEEL_RIGHT*%
X27940000Y-48260000D02*
X30480000Y-45720000D01*
X51645000Y-38470000D02*
X54730000Y-35385000D01*
X35230000Y-45720000D02*
X42480000Y-38470000D01*
X30480000Y-45720000D02*
X35230000Y-45720000D01*
X27940000Y-50070000D02*
X27940000Y-48260000D01*
X42480000Y-38470000D02*
X51645000Y-38470000D01*
%TO.N,OPT_END_DISK*%
X35370000Y-66040000D02*
X39470000Y-61940000D01*
X27940000Y-70390000D02*
X27940000Y-68580000D01*
X39470000Y-61940000D02*
X39470000Y-46510000D01*
X27940000Y-68580000D02*
X30480000Y-66040000D01*
X30480000Y-66040000D02*
X35370000Y-66040000D01*
X39470000Y-46510000D02*
X44450000Y-41530000D01*
X44450000Y-41530000D02*
X53665000Y-41530000D01*
X53665000Y-41530000D02*
X59810000Y-35385000D01*
%TO.N,Net-(IC1-V01)*%
X86080000Y-23045102D02*
X86080000Y-34770000D01*
X86080000Y-34770000D02*
X82710000Y-38140000D01*
X90420001Y-18705101D02*
X86080000Y-23045102D01*
%TO.N,Net-(IC1-V02)*%
X87460000Y-35930000D02*
X82710000Y-40680000D01*
X90420001Y-23705101D02*
X87460000Y-26665102D01*
X87460000Y-26665102D02*
X87460000Y-35930000D01*
%TO.N,Net-(IC2-V01)*%
X86160000Y-47390000D02*
X82710000Y-50840000D01*
X86160000Y-41395102D02*
X86160000Y-47390000D01*
X90420001Y-37135101D02*
X86160000Y-41395102D01*
%TO.N,Net-(IC2-V02)*%
X83780000Y-53380000D02*
X82710000Y-53380000D01*
X87460000Y-45095102D02*
X87460000Y-49700000D01*
X90420001Y-42135101D02*
X87460000Y-45095102D01*
X87460000Y-49700000D02*
X83780000Y-53380000D01*
D33*
%TO.N,Net-(IC3-V01)*%
X90430001Y-55819999D02*
X90430001Y-54948301D01*
D31*
X82710000Y-63285102D02*
X82710000Y-63540000D01*
X90420001Y-55575101D02*
X82710000Y-63285102D01*
%TO.N,Net-(IC3-V02)*%
X90420001Y-60575101D02*
X84915102Y-66080000D01*
X84915102Y-66080000D02*
X82710000Y-66080000D01*
%TO.N,Net-(U12-E)*%
X95790000Y-9510000D02*
X94400000Y-8120000D01*
X58480000Y-6860000D02*
X59740000Y-8120000D01*
X59740000Y-8120000D02*
X94400000Y-8120000D01*
%TO.N,Net-(U12-F)*%
X55940000Y-6860000D02*
X61190000Y-12110000D01*
X61190000Y-12110000D02*
X83190000Y-12110000D01*
X85790000Y-9510000D02*
X83190000Y-12110000D01*
%TO.N,+3.3V*%
X21050000Y-12700000D02*
X22850000Y-10900000D01*
X63560000Y-6860000D02*
X59965000Y-3265000D01*
X28935000Y-1720000D02*
X30480000Y-3265000D01*
X47265000Y-3265000D02*
X30480000Y-3265000D01*
D33*
X24070000Y-5080000D02*
X24520000Y-4630000D01*
D31*
X24250000Y-20810000D02*
X24250000Y-15900000D01*
X66100000Y-6860000D02*
X62505000Y-3265000D01*
X62505000Y-3265000D02*
X59870000Y-3265000D01*
X24250000Y-15900000D02*
X21050000Y-12700000D01*
X50860000Y-6860000D02*
X47265000Y-3265000D01*
X24070000Y-5080000D02*
X24070000Y-3520000D01*
X24070000Y-3520000D02*
X25870000Y-1720000D01*
X59870000Y-3265000D02*
X47265000Y-3265000D01*
X22850000Y-10900000D02*
X22850000Y-6300000D01*
X59965000Y-3265000D02*
X59870000Y-3265000D01*
X25870000Y-1720000D02*
X28935000Y-1720000D01*
X22850000Y-6300000D02*
X24070000Y-5080000D01*
%TO.N,HAND_PWM*%
X55400000Y-4940000D02*
X54730000Y-5610000D01*
X54730000Y-5610000D02*
X54730000Y-20810000D01*
X59100000Y-4940000D02*
X55400000Y-4940000D01*
X61020000Y-6860000D02*
X59100000Y-4940000D01*
%TO.N,HAND_DIR*%
X49610000Y-10650000D02*
X53400000Y-6860000D01*
X49610000Y-15690000D02*
X49610000Y-10650000D01*
X52190000Y-18270000D02*
X49610000Y-15690000D01*
X52190000Y-20810000D02*
X52190000Y-18270000D01*
D34*
%TO.N,Net-(J1-Pad1)*%
X79324900Y-100480001D02*
X71494900Y-100480001D01*
%TD*%
%TA.AperFunction,Conductor*%
%TO.N,+24V*%
G36*
X56346206Y-85399358D02*
G01*
X56413142Y-85419389D01*
X56458623Y-85472430D01*
X56469562Y-85523794D01*
X56468740Y-85756438D01*
X56448819Y-85823408D01*
X56395854Y-85868976D01*
X56344741Y-85880000D01*
X55840000Y-85880000D01*
X55840000Y-87399473D01*
X55793558Y-87309844D01*
X55690362Y-87199348D01*
X55561181Y-87120791D01*
X55415596Y-87080000D01*
X55302378Y-87080000D01*
X55190217Y-87095416D01*
X55051542Y-87155651D01*
X54934261Y-87251066D01*
X54847072Y-87374585D01*
X54796441Y-87517047D01*
X54786123Y-87667886D01*
X54816884Y-87815915D01*
X54886442Y-87950156D01*
X54989638Y-88060652D01*
X55118819Y-88139209D01*
X55264404Y-88180000D01*
X55377622Y-88180000D01*
X55489783Y-88164584D01*
X55628458Y-88104349D01*
X55745739Y-88008934D01*
X55832928Y-87885415D01*
X55840000Y-87865516D01*
X55840000Y-89379999D01*
X56331498Y-89379999D01*
X56398537Y-89399684D01*
X56444292Y-89452488D01*
X56455496Y-89504435D01*
X56450000Y-91060000D01*
X63540000Y-91000000D01*
X63543833Y-90233424D01*
X64813680Y-90233424D01*
X65019547Y-90318697D01*
X65256780Y-90375651D01*
X65256779Y-90375651D01*
X65500000Y-90394792D01*
X65743219Y-90375651D01*
X65980457Y-90318695D01*
X66186318Y-90233424D01*
X65500001Y-89547107D01*
X65500000Y-89547107D01*
X64813680Y-90233424D01*
X63543833Y-90233424D01*
X63550800Y-88840000D01*
X63945207Y-88840000D01*
X63964348Y-89083219D01*
X64021303Y-89320455D01*
X64106574Y-89526318D01*
X64792893Y-88840000D01*
X65095014Y-88840000D01*
X65114835Y-88965148D01*
X65172359Y-89078045D01*
X65261955Y-89167641D01*
X65374852Y-89225165D01*
X65468519Y-89240000D01*
X65531481Y-89240000D01*
X65625148Y-89225165D01*
X65738045Y-89167641D01*
X65827641Y-89078045D01*
X65885165Y-88965148D01*
X65904986Y-88840001D01*
X66207107Y-88840001D01*
X66893424Y-89526318D01*
X66978695Y-89320457D01*
X67035651Y-89083219D01*
X67054792Y-88840000D01*
X67035651Y-88596780D01*
X66978697Y-88359547D01*
X66893424Y-88153680D01*
X66207107Y-88839999D01*
X66207107Y-88840001D01*
X65904986Y-88840001D01*
X65904986Y-88840000D01*
X65885165Y-88714852D01*
X65827641Y-88601955D01*
X65738045Y-88512359D01*
X65625148Y-88454835D01*
X65531481Y-88440000D01*
X65468519Y-88440000D01*
X65374852Y-88454835D01*
X65261955Y-88512359D01*
X65172359Y-88601955D01*
X65114835Y-88714852D01*
X65095014Y-88840000D01*
X64792893Y-88840000D01*
X64792893Y-88839999D01*
X64106574Y-88153680D01*
X64021303Y-88359544D01*
X63964348Y-88596780D01*
X63945207Y-88840000D01*
X63550800Y-88840000D01*
X63557766Y-87446574D01*
X64813680Y-87446574D01*
X65500000Y-88132893D01*
X65500001Y-88132893D01*
X66186318Y-87446574D01*
X65980455Y-87361303D01*
X65743219Y-87304348D01*
X65743220Y-87304348D01*
X65500000Y-87285207D01*
X65256780Y-87304348D01*
X65019544Y-87361303D01*
X64813680Y-87446574D01*
X63557766Y-87446574D01*
X63559387Y-87122433D01*
X63579406Y-87055496D01*
X63632438Y-87010006D01*
X63682432Y-86999060D01*
X68645049Y-86960959D01*
X68712237Y-86980128D01*
X68758396Y-87032579D01*
X68770000Y-87084955D01*
X68770000Y-91060000D01*
X73190000Y-90990000D01*
X73180213Y-88660600D01*
X73684501Y-88660600D01*
X73684501Y-89036086D01*
X73694994Y-89138797D01*
X73750141Y-89305219D01*
X73750143Y-89305224D01*
X73842184Y-89454445D01*
X73966154Y-89578415D01*
X74115375Y-89670456D01*
X74115380Y-89670458D01*
X74281802Y-89725605D01*
X74281809Y-89725606D01*
X74384519Y-89736099D01*
X74759999Y-89736099D01*
X74760000Y-89736098D01*
X74760000Y-88660600D01*
X73684501Y-88660600D01*
X73180213Y-88660600D01*
X73178112Y-88160600D01*
X74683569Y-88160600D01*
X74703210Y-88309791D01*
X74760796Y-88448815D01*
X74852402Y-88568198D01*
X74971785Y-88659804D01*
X75110809Y-88717390D01*
X75222545Y-88732100D01*
X75297455Y-88732100D01*
X75409191Y-88717390D01*
X75546293Y-88660600D01*
X75760000Y-88660600D01*
X75760000Y-89736099D01*
X76135472Y-89736099D01*
X76135486Y-89736098D01*
X76238197Y-89725605D01*
X76404619Y-89670458D01*
X76404624Y-89670456D01*
X76553845Y-89578415D01*
X76677815Y-89454445D01*
X76769856Y-89305224D01*
X76769858Y-89305219D01*
X76825005Y-89138797D01*
X76825006Y-89138790D01*
X76835499Y-89036086D01*
X76835500Y-89036073D01*
X76835500Y-88660600D01*
X75760000Y-88660600D01*
X75546293Y-88660600D01*
X75548215Y-88659804D01*
X75667598Y-88568198D01*
X75759204Y-88448816D01*
X75816790Y-88309791D01*
X75836431Y-88160600D01*
X75816790Y-88011409D01*
X75759204Y-87872385D01*
X75667598Y-87753002D01*
X75548215Y-87661396D01*
X75409191Y-87603810D01*
X75297455Y-87589100D01*
X75222545Y-87589100D01*
X75110809Y-87603810D01*
X74971785Y-87661396D01*
X74852402Y-87753002D01*
X74760796Y-87872384D01*
X74703210Y-88011409D01*
X74683569Y-88160600D01*
X73178112Y-88160600D01*
X73176011Y-87660600D01*
X73684500Y-87660600D01*
X74760000Y-87660600D01*
X74760000Y-86585100D01*
X75760000Y-86585100D01*
X75760000Y-87660600D01*
X76835499Y-87660600D01*
X76835499Y-87285128D01*
X76835498Y-87285113D01*
X76825005Y-87182402D01*
X76769858Y-87015980D01*
X76769856Y-87015975D01*
X76677815Y-86866754D01*
X76553845Y-86742784D01*
X76404624Y-86650743D01*
X76404619Y-86650741D01*
X76238197Y-86595594D01*
X76238190Y-86595593D01*
X76135486Y-86585100D01*
X75760000Y-86585100D01*
X74760000Y-86585100D01*
X74384528Y-86585100D01*
X74384512Y-86585101D01*
X74281802Y-86595594D01*
X74115380Y-86650741D01*
X74115375Y-86650743D01*
X73966154Y-86742784D01*
X73842184Y-86866754D01*
X73750143Y-87015975D01*
X73750141Y-87015980D01*
X73694994Y-87182402D01*
X73694993Y-87182409D01*
X73684500Y-87285113D01*
X73684500Y-87660600D01*
X73176011Y-87660600D01*
X73170528Y-86355725D01*
X73189931Y-86288604D01*
X73242542Y-86242628D01*
X73295718Y-86231211D01*
X77195930Y-86268804D01*
X77262777Y-86289134D01*
X77308021Y-86342376D01*
X77318728Y-86394068D01*
X77269999Y-91149999D01*
X77270000Y-91149998D01*
X77270000Y-91150000D01*
X81510000Y-91140000D01*
X81522911Y-90505698D01*
X81543955Y-90439077D01*
X81597680Y-90394406D01*
X81612767Y-90389011D01*
X81665549Y-90373909D01*
X81845907Y-90279698D01*
X82003609Y-90151109D01*
X82057431Y-90085100D01*
X82115048Y-90045586D01*
X82184886Y-90043494D01*
X82204255Y-90050314D01*
X82302827Y-90094503D01*
X82302828Y-90094504D01*
X82380000Y-90115710D01*
X82380000Y-88670526D01*
X82426442Y-88760156D01*
X82529638Y-88870652D01*
X82658819Y-88949209D01*
X82804404Y-88990000D01*
X82917622Y-88990000D01*
X83029783Y-88974584D01*
X83168458Y-88914349D01*
X83285739Y-88818934D01*
X83372928Y-88695415D01*
X83380000Y-88675516D01*
X83380000Y-90116896D01*
X83578484Y-90045611D01*
X83808151Y-89920722D01*
X83871431Y-89872485D01*
X83936680Y-89847498D01*
X84005079Y-89861754D01*
X84034282Y-89883416D01*
X84106605Y-89955739D01*
X84149427Y-89987795D01*
X84159209Y-89995118D01*
X84201080Y-90051052D01*
X84208891Y-90095699D01*
X84165977Y-94145853D01*
X84145583Y-94212680D01*
X84092298Y-94257873D01*
X84042504Y-94268538D01*
X63669977Y-94353988D01*
X63657602Y-94354115D01*
X63657583Y-94354116D01*
X63455547Y-94378039D01*
X63403898Y-94389546D01*
X63311586Y-94414777D01*
X63311577Y-94414781D01*
X63125464Y-94496952D01*
X62959693Y-94614909D01*
X62931170Y-94639916D01*
X62907161Y-94660965D01*
X62872471Y-94696877D01*
X62822994Y-94748096D01*
X62762259Y-94782637D01*
X62734249Y-94785944D01*
X61590000Y-94790000D01*
X61619905Y-95328300D01*
X61620000Y-95331718D01*
X61620000Y-109875500D01*
X61600315Y-109942539D01*
X61547511Y-109988294D01*
X61496000Y-109999500D01*
X11344000Y-109999500D01*
X11276961Y-109979815D01*
X11231206Y-109927011D01*
X11220000Y-109875500D01*
X11220000Y-101883221D01*
X14518784Y-101883221D01*
X14730479Y-101970909D01*
X14969671Y-102028333D01*
X14969670Y-102028333D01*
X15214900Y-102047632D01*
X15460129Y-102028333D01*
X15699317Y-101970910D01*
X15911014Y-101883221D01*
X15214901Y-101187108D01*
X15214900Y-101187108D01*
X14518784Y-101883221D01*
X11220000Y-101883221D01*
X11220000Y-100480001D01*
X13647268Y-100480001D01*
X13666567Y-100725230D01*
X13723991Y-100964421D01*
X13811678Y-101176115D01*
X14469301Y-100518493D01*
X14652161Y-100518493D01*
X14683414Y-100668891D01*
X14754085Y-100805280D01*
X14858932Y-100917544D01*
X14990180Y-100997358D01*
X15138095Y-101038801D01*
X15253125Y-101038801D01*
X15367080Y-101023138D01*
X15507973Y-100961940D01*
X15627131Y-100864998D01*
X15715715Y-100739503D01*
X15767156Y-100594761D01*
X15775006Y-100480001D01*
X15922007Y-100480001D01*
X16618120Y-101176114D01*
X16705809Y-100964418D01*
X16763232Y-100725230D01*
X16782531Y-100480005D01*
X18396515Y-100480005D01*
X18416823Y-100751007D01*
X18416824Y-100751012D01*
X18477297Y-101015965D01*
X18477299Y-101015974D01*
X18477301Y-101015979D01*
X18576592Y-101268969D01*
X18712480Y-101504334D01*
X18788771Y-101600000D01*
X18881932Y-101716821D01*
X18998882Y-101825334D01*
X19081155Y-101901672D01*
X19305708Y-102054769D01*
X19550565Y-102172686D01*
X19550566Y-102172686D01*
X19550569Y-102172688D01*
X19810271Y-102252795D01*
X19810272Y-102252795D01*
X19810275Y-102252796D01*
X20079004Y-102293300D01*
X20079009Y-102293300D01*
X20079012Y-102293301D01*
X20079013Y-102293301D01*
X20350787Y-102293301D01*
X20350788Y-102293301D01*
X20350795Y-102293300D01*
X20619524Y-102252796D01*
X20619525Y-102252795D01*
X20619529Y-102252795D01*
X20879231Y-102172688D01*
X21124093Y-102054769D01*
X21348645Y-101901672D01*
X21368530Y-101883221D01*
X27338784Y-101883221D01*
X27550479Y-101970909D01*
X27789671Y-102028333D01*
X27789670Y-102028333D01*
X28034900Y-102047632D01*
X28280129Y-102028333D01*
X28519317Y-101970910D01*
X28731014Y-101883221D01*
X28034901Y-101187108D01*
X28034900Y-101187108D01*
X27338784Y-101883221D01*
X21368530Y-101883221D01*
X21547871Y-101716817D01*
X21717320Y-101504334D01*
X21853208Y-101268969D01*
X21952499Y-101015979D01*
X22012975Y-100751017D01*
X22013838Y-100739503D01*
X22033285Y-100480005D01*
X22033285Y-100480001D01*
X26467268Y-100480001D01*
X26486567Y-100725230D01*
X26543991Y-100964421D01*
X26631678Y-101176115D01*
X27289301Y-100518493D01*
X27472161Y-100518493D01*
X27503414Y-100668891D01*
X27574085Y-100805280D01*
X27678932Y-100917544D01*
X27810180Y-100997358D01*
X27958095Y-101038801D01*
X28073125Y-101038801D01*
X28187080Y-101023138D01*
X28327973Y-100961940D01*
X28447131Y-100864998D01*
X28535715Y-100739503D01*
X28587156Y-100594761D01*
X28595006Y-100480001D01*
X28742007Y-100480001D01*
X29438120Y-101176114D01*
X29525809Y-100964418D01*
X29583232Y-100725230D01*
X29602531Y-100480005D01*
X31216515Y-100480005D01*
X31236823Y-100751007D01*
X31236824Y-100751012D01*
X31297297Y-101015965D01*
X31297299Y-101015974D01*
X31297301Y-101015979D01*
X31396592Y-101268969D01*
X31532480Y-101504334D01*
X31608771Y-101600000D01*
X31701932Y-101716821D01*
X31818882Y-101825334D01*
X31901155Y-101901672D01*
X32125708Y-102054769D01*
X32370565Y-102172686D01*
X32370566Y-102172686D01*
X32370569Y-102172688D01*
X32630271Y-102252795D01*
X32630272Y-102252795D01*
X32630275Y-102252796D01*
X32899004Y-102293300D01*
X32899009Y-102293300D01*
X32899012Y-102293301D01*
X32899013Y-102293301D01*
X33170787Y-102293301D01*
X33170788Y-102293301D01*
X33170795Y-102293300D01*
X33439524Y-102252796D01*
X33439525Y-102252795D01*
X33439529Y-102252795D01*
X33699231Y-102172688D01*
X33944093Y-102054769D01*
X34168645Y-101901672D01*
X34188530Y-101883221D01*
X40158784Y-101883221D01*
X40370479Y-101970909D01*
X40609671Y-102028333D01*
X40609670Y-102028333D01*
X40854900Y-102047632D01*
X41100129Y-102028333D01*
X41339317Y-101970910D01*
X41551014Y-101883221D01*
X40854901Y-101187108D01*
X40854900Y-101187108D01*
X40158784Y-101883221D01*
X34188530Y-101883221D01*
X34367871Y-101716817D01*
X34537320Y-101504334D01*
X34673208Y-101268969D01*
X34772499Y-101015979D01*
X34832975Y-100751017D01*
X34833838Y-100739503D01*
X34853285Y-100480005D01*
X34853285Y-100480001D01*
X39287268Y-100480001D01*
X39306567Y-100725230D01*
X39363991Y-100964421D01*
X39451678Y-101176115D01*
X40109301Y-100518493D01*
X40292161Y-100518493D01*
X40323414Y-100668891D01*
X40394085Y-100805280D01*
X40498932Y-100917544D01*
X40630180Y-100997358D01*
X40778095Y-101038801D01*
X40893125Y-101038801D01*
X41007080Y-101023138D01*
X41147973Y-100961940D01*
X41267131Y-100864998D01*
X41355715Y-100739503D01*
X41407156Y-100594761D01*
X41415006Y-100480001D01*
X41562007Y-100480001D01*
X42258120Y-101176114D01*
X42345809Y-100964418D01*
X42403232Y-100725230D01*
X42422531Y-100480005D01*
X44036515Y-100480005D01*
X44056823Y-100751007D01*
X44056824Y-100751012D01*
X44117297Y-101015965D01*
X44117299Y-101015974D01*
X44117301Y-101015979D01*
X44216592Y-101268969D01*
X44352480Y-101504334D01*
X44428771Y-101600000D01*
X44521932Y-101716821D01*
X44638882Y-101825334D01*
X44721155Y-101901672D01*
X44945708Y-102054769D01*
X45190565Y-102172686D01*
X45190566Y-102172686D01*
X45190569Y-102172688D01*
X45450271Y-102252795D01*
X45450272Y-102252795D01*
X45450275Y-102252796D01*
X45719004Y-102293300D01*
X45719009Y-102293300D01*
X45719012Y-102293301D01*
X45719013Y-102293301D01*
X45990787Y-102293301D01*
X45990788Y-102293301D01*
X45990795Y-102293300D01*
X46259524Y-102252796D01*
X46259525Y-102252795D01*
X46259529Y-102252795D01*
X46519231Y-102172688D01*
X46764093Y-102054769D01*
X46988645Y-101901672D01*
X47187871Y-101716817D01*
X47357320Y-101504334D01*
X47493208Y-101268969D01*
X47592499Y-101015979D01*
X47652975Y-100751017D01*
X47653838Y-100739503D01*
X47673285Y-100480005D01*
X51866515Y-100480005D01*
X51886823Y-100751007D01*
X51886824Y-100751012D01*
X51947297Y-101015965D01*
X51947299Y-101015974D01*
X51947301Y-101015979D01*
X52046592Y-101268969D01*
X52182480Y-101504334D01*
X52258771Y-101600000D01*
X52351932Y-101716821D01*
X52468882Y-101825334D01*
X52551155Y-101901672D01*
X52775708Y-102054769D01*
X53020565Y-102172686D01*
X53020566Y-102172686D01*
X53020569Y-102172688D01*
X53280271Y-102252795D01*
X53280272Y-102252795D01*
X53280275Y-102252796D01*
X53549004Y-102293300D01*
X53549009Y-102293300D01*
X53549012Y-102293301D01*
X53549013Y-102293301D01*
X53820787Y-102293301D01*
X53820788Y-102293301D01*
X53820795Y-102293300D01*
X54089524Y-102252796D01*
X54089525Y-102252795D01*
X54089529Y-102252795D01*
X54349231Y-102172688D01*
X54594093Y-102054769D01*
X54818645Y-101901672D01*
X54838530Y-101883221D01*
X57988784Y-101883221D01*
X58200479Y-101970909D01*
X58439671Y-102028333D01*
X58439670Y-102028333D01*
X58684900Y-102047632D01*
X58930129Y-102028333D01*
X59169317Y-101970910D01*
X59381014Y-101883221D01*
X58684901Y-101187108D01*
X58684900Y-101187108D01*
X57988784Y-101883221D01*
X54838530Y-101883221D01*
X55017871Y-101716817D01*
X55187320Y-101504334D01*
X55323208Y-101268969D01*
X55422499Y-101015979D01*
X55482975Y-100751017D01*
X55483838Y-100739503D01*
X55503285Y-100480005D01*
X55503285Y-100480001D01*
X57117268Y-100480001D01*
X57136567Y-100725230D01*
X57193991Y-100964421D01*
X57281678Y-101176115D01*
X57939301Y-100518493D01*
X58122161Y-100518493D01*
X58153414Y-100668891D01*
X58224085Y-100805280D01*
X58328932Y-100917544D01*
X58460180Y-100997358D01*
X58608095Y-101038801D01*
X58723125Y-101038801D01*
X58837080Y-101023138D01*
X58977973Y-100961940D01*
X59097131Y-100864998D01*
X59185715Y-100739503D01*
X59237156Y-100594761D01*
X59245006Y-100480001D01*
X59392007Y-100480001D01*
X60088120Y-101176114D01*
X60175809Y-100964418D01*
X60233232Y-100725230D01*
X60252531Y-100480001D01*
X60233232Y-100234771D01*
X60175808Y-99995580D01*
X60088120Y-99783885D01*
X59392007Y-100480000D01*
X59392007Y-100480001D01*
X59245006Y-100480001D01*
X59247639Y-100441509D01*
X59216386Y-100291111D01*
X59145715Y-100154722D01*
X59040868Y-100042458D01*
X58909620Y-99962644D01*
X58761705Y-99921201D01*
X58646675Y-99921201D01*
X58532720Y-99936864D01*
X58391827Y-99998062D01*
X58272669Y-100095004D01*
X58184085Y-100220499D01*
X58132644Y-100365241D01*
X58122161Y-100518493D01*
X57939301Y-100518493D01*
X57977793Y-100480001D01*
X57977793Y-100480000D01*
X57281678Y-99783885D01*
X57193991Y-99995580D01*
X57136567Y-100234771D01*
X57117268Y-100480001D01*
X55503285Y-100480001D01*
X55503285Y-100479996D01*
X55482976Y-100208994D01*
X55482975Y-100208989D01*
X55482975Y-100208985D01*
X55422499Y-99944023D01*
X55323208Y-99691033D01*
X55187320Y-99455668D01*
X55017871Y-99243185D01*
X55017870Y-99243184D01*
X55017867Y-99243180D01*
X54838528Y-99076779D01*
X57988784Y-99076779D01*
X58684900Y-99772894D01*
X58684901Y-99772894D01*
X59381014Y-99076779D01*
X59169320Y-98989092D01*
X58930128Y-98931668D01*
X58930129Y-98931668D01*
X58684900Y-98912369D01*
X58439670Y-98931668D01*
X58200479Y-98989092D01*
X57988784Y-99076779D01*
X54838528Y-99076779D01*
X54818645Y-99058330D01*
X54818642Y-99058328D01*
X54594093Y-98905233D01*
X54594089Y-98905231D01*
X54594086Y-98905229D01*
X54594085Y-98905228D01*
X54349233Y-98787315D01*
X54349235Y-98787315D01*
X54089530Y-98707207D01*
X54089524Y-98707205D01*
X53820795Y-98666701D01*
X53820788Y-98666701D01*
X53549012Y-98666701D01*
X53549004Y-98666701D01*
X53280275Y-98707205D01*
X53280269Y-98707207D01*
X53020565Y-98787315D01*
X52775716Y-98905228D01*
X52775707Y-98905233D01*
X52551157Y-99058328D01*
X52351932Y-99243180D01*
X52182480Y-99455668D01*
X52046592Y-99691032D01*
X51947303Y-99944017D01*
X51947297Y-99944036D01*
X51886824Y-100208989D01*
X51886823Y-100208994D01*
X51866515Y-100479996D01*
X51866515Y-100480005D01*
X47673285Y-100480005D01*
X47673285Y-100479996D01*
X47652976Y-100208994D01*
X47652975Y-100208989D01*
X47652975Y-100208985D01*
X47592499Y-99944023D01*
X47493208Y-99691033D01*
X47357320Y-99455668D01*
X47187871Y-99243185D01*
X47187870Y-99243184D01*
X47187867Y-99243180D01*
X46988645Y-99058330D01*
X46988642Y-99058328D01*
X46764093Y-98905233D01*
X46764089Y-98905231D01*
X46764086Y-98905229D01*
X46764085Y-98905228D01*
X46519233Y-98787315D01*
X46519235Y-98787315D01*
X46259530Y-98707207D01*
X46259524Y-98707205D01*
X45990795Y-98666701D01*
X45990788Y-98666701D01*
X45719012Y-98666701D01*
X45719004Y-98666701D01*
X45450275Y-98707205D01*
X45450269Y-98707207D01*
X45190565Y-98787315D01*
X44945716Y-98905228D01*
X44945707Y-98905233D01*
X44721157Y-99058328D01*
X44521932Y-99243180D01*
X44352480Y-99455668D01*
X44216592Y-99691032D01*
X44117303Y-99944017D01*
X44117297Y-99944036D01*
X44056824Y-100208989D01*
X44056823Y-100208994D01*
X44036515Y-100479996D01*
X44036515Y-100480005D01*
X42422531Y-100480005D01*
X42422531Y-100480001D01*
X42403232Y-100234771D01*
X42345808Y-99995580D01*
X42258120Y-99783885D01*
X41562007Y-100480000D01*
X41562007Y-100480001D01*
X41415006Y-100480001D01*
X41417639Y-100441509D01*
X41386386Y-100291111D01*
X41315715Y-100154722D01*
X41210868Y-100042458D01*
X41079620Y-99962644D01*
X40931705Y-99921201D01*
X40816675Y-99921201D01*
X40702720Y-99936864D01*
X40561827Y-99998062D01*
X40442669Y-100095004D01*
X40354085Y-100220499D01*
X40302644Y-100365241D01*
X40292161Y-100518493D01*
X40109301Y-100518493D01*
X40147793Y-100480001D01*
X40147793Y-100480000D01*
X39451678Y-99783885D01*
X39363991Y-99995580D01*
X39306567Y-100234771D01*
X39287268Y-100480001D01*
X34853285Y-100480001D01*
X34853285Y-100479996D01*
X34832976Y-100208994D01*
X34832975Y-100208989D01*
X34832975Y-100208985D01*
X34772499Y-99944023D01*
X34673208Y-99691033D01*
X34537320Y-99455668D01*
X34367871Y-99243185D01*
X34367870Y-99243184D01*
X34367867Y-99243180D01*
X34188528Y-99076779D01*
X40158784Y-99076779D01*
X40854900Y-99772894D01*
X40854901Y-99772894D01*
X41551014Y-99076779D01*
X41339320Y-98989092D01*
X41100128Y-98931668D01*
X41100129Y-98931668D01*
X40854900Y-98912369D01*
X40609670Y-98931668D01*
X40370479Y-98989092D01*
X40158784Y-99076779D01*
X34188528Y-99076779D01*
X34168645Y-99058330D01*
X34168642Y-99058328D01*
X33944093Y-98905233D01*
X33944089Y-98905231D01*
X33944086Y-98905229D01*
X33944085Y-98905228D01*
X33699233Y-98787315D01*
X33699235Y-98787315D01*
X33439530Y-98707207D01*
X33439524Y-98707205D01*
X33170795Y-98666701D01*
X33170788Y-98666701D01*
X32899012Y-98666701D01*
X32899004Y-98666701D01*
X32630275Y-98707205D01*
X32630269Y-98707207D01*
X32370565Y-98787315D01*
X32125716Y-98905228D01*
X32125707Y-98905233D01*
X31901157Y-99058328D01*
X31701932Y-99243180D01*
X31532480Y-99455668D01*
X31396592Y-99691032D01*
X31297303Y-99944017D01*
X31297297Y-99944036D01*
X31236824Y-100208989D01*
X31236823Y-100208994D01*
X31216515Y-100479996D01*
X31216515Y-100480005D01*
X29602531Y-100480005D01*
X29602531Y-100480001D01*
X29583232Y-100234771D01*
X29525808Y-99995580D01*
X29438120Y-99783885D01*
X28742007Y-100480000D01*
X28742007Y-100480001D01*
X28595006Y-100480001D01*
X28597639Y-100441509D01*
X28566386Y-100291111D01*
X28495715Y-100154722D01*
X28390868Y-100042458D01*
X28259620Y-99962644D01*
X28111705Y-99921201D01*
X27996675Y-99921201D01*
X27882720Y-99936864D01*
X27741827Y-99998062D01*
X27622669Y-100095004D01*
X27534085Y-100220499D01*
X27482644Y-100365241D01*
X27472161Y-100518493D01*
X27289301Y-100518493D01*
X27327793Y-100480001D01*
X27327793Y-100480000D01*
X26631678Y-99783885D01*
X26543991Y-99995580D01*
X26486567Y-100234771D01*
X26467268Y-100480001D01*
X22033285Y-100480001D01*
X22033285Y-100479996D01*
X22012976Y-100208994D01*
X22012975Y-100208989D01*
X22012975Y-100208985D01*
X21952499Y-99944023D01*
X21853208Y-99691033D01*
X21717320Y-99455668D01*
X21547871Y-99243185D01*
X21547870Y-99243184D01*
X21547867Y-99243180D01*
X21368528Y-99076779D01*
X27338784Y-99076779D01*
X28034900Y-99772894D01*
X28034901Y-99772894D01*
X28731014Y-99076779D01*
X28519320Y-98989092D01*
X28280128Y-98931668D01*
X28280129Y-98931668D01*
X28034900Y-98912369D01*
X27789670Y-98931668D01*
X27550479Y-98989092D01*
X27338784Y-99076779D01*
X21368528Y-99076779D01*
X21348645Y-99058330D01*
X21348642Y-99058328D01*
X21124093Y-98905233D01*
X21124089Y-98905231D01*
X21124086Y-98905229D01*
X21124085Y-98905228D01*
X20879233Y-98787315D01*
X20879235Y-98787315D01*
X20619530Y-98707207D01*
X20619524Y-98707205D01*
X20350795Y-98666701D01*
X20350788Y-98666701D01*
X20079012Y-98666701D01*
X20079004Y-98666701D01*
X19810275Y-98707205D01*
X19810269Y-98707207D01*
X19550565Y-98787315D01*
X19305716Y-98905228D01*
X19305707Y-98905233D01*
X19081157Y-99058328D01*
X18881932Y-99243180D01*
X18712480Y-99455668D01*
X18576592Y-99691032D01*
X18477303Y-99944017D01*
X18477297Y-99944036D01*
X18416824Y-100208989D01*
X18416823Y-100208994D01*
X18396515Y-100479996D01*
X18396515Y-100480005D01*
X16782531Y-100480005D01*
X16782531Y-100480001D01*
X16763232Y-100234771D01*
X16705808Y-99995580D01*
X16618120Y-99783885D01*
X15922007Y-100480000D01*
X15922007Y-100480001D01*
X15775006Y-100480001D01*
X15777639Y-100441509D01*
X15746386Y-100291111D01*
X15675715Y-100154722D01*
X15570868Y-100042458D01*
X15439620Y-99962644D01*
X15291705Y-99921201D01*
X15176675Y-99921201D01*
X15062720Y-99936864D01*
X14921827Y-99998062D01*
X14802669Y-100095004D01*
X14714085Y-100220499D01*
X14662644Y-100365241D01*
X14652161Y-100518493D01*
X14469301Y-100518493D01*
X14507793Y-100480001D01*
X14507793Y-100480000D01*
X13811678Y-99783885D01*
X13723991Y-99995580D01*
X13666567Y-100234771D01*
X13647268Y-100480001D01*
X11220000Y-100480001D01*
X11220000Y-99076779D01*
X14518784Y-99076779D01*
X15214900Y-99772894D01*
X15214901Y-99772894D01*
X15911014Y-99076779D01*
X15699320Y-98989092D01*
X15460128Y-98931668D01*
X15460129Y-98931668D01*
X15214900Y-98912369D01*
X14969670Y-98931668D01*
X14730479Y-98989092D01*
X14518784Y-99076779D01*
X11220000Y-99076779D01*
X11220000Y-94763916D01*
X11239685Y-94696877D01*
X11292489Y-94651122D01*
X11343913Y-94639916D01*
X40990000Y-94620000D01*
X41013126Y-89243114D01*
X42273991Y-89243114D01*
X42409518Y-89317117D01*
X42657471Y-89409599D01*
X42916039Y-89465847D01*
X43179999Y-89484726D01*
X43180001Y-89484726D01*
X43443960Y-89465847D01*
X43702528Y-89409599D01*
X43950484Y-89317116D01*
X44086007Y-89243114D01*
X43180000Y-88337107D01*
X42273991Y-89243114D01*
X41013126Y-89243114D01*
X41020064Y-87630001D01*
X41325274Y-87630001D01*
X41344152Y-87893960D01*
X41400400Y-88152528D01*
X41492884Y-88400486D01*
X41566884Y-88536006D01*
X41566885Y-88536006D01*
X42435007Y-87667886D01*
X42626123Y-87667886D01*
X42656884Y-87815915D01*
X42726442Y-87950156D01*
X42829638Y-88060652D01*
X42958819Y-88139209D01*
X43104404Y-88180000D01*
X43217622Y-88180000D01*
X43329783Y-88164584D01*
X43468458Y-88104349D01*
X43585739Y-88008934D01*
X43672928Y-87885415D01*
X43723559Y-87742953D01*
X43731285Y-87630000D01*
X43887107Y-87630000D01*
X44793114Y-88536007D01*
X44867116Y-88400484D01*
X44959599Y-88152528D01*
X44964500Y-88130000D01*
X53637501Y-88130000D01*
X53637501Y-88679986D01*
X53647994Y-88782697D01*
X53703141Y-88949119D01*
X53703143Y-88949124D01*
X53795184Y-89098345D01*
X53919154Y-89222315D01*
X54068375Y-89314356D01*
X54068380Y-89314358D01*
X54234802Y-89369505D01*
X54234809Y-89369506D01*
X54337519Y-89379999D01*
X54839999Y-89379999D01*
X54840000Y-89379998D01*
X54840000Y-88130000D01*
X53637501Y-88130000D01*
X44964500Y-88130000D01*
X45015847Y-87893960D01*
X45034726Y-87630001D01*
X45034726Y-87629998D01*
X45015847Y-87366039D01*
X44964500Y-87130000D01*
X53637500Y-87130000D01*
X54840000Y-87130000D01*
X54840000Y-85880000D01*
X54337528Y-85880000D01*
X54337512Y-85880001D01*
X54234802Y-85890494D01*
X54068380Y-85945641D01*
X54068375Y-85945643D01*
X53919154Y-86037684D01*
X53795184Y-86161654D01*
X53703143Y-86310875D01*
X53703141Y-86310880D01*
X53647994Y-86477302D01*
X53647993Y-86477309D01*
X53637500Y-86580013D01*
X53637500Y-87130000D01*
X44964500Y-87130000D01*
X44959599Y-87107471D01*
X44867117Y-86859519D01*
X44867117Y-86859518D01*
X44793114Y-86723991D01*
X43887107Y-87629999D01*
X43887107Y-87630000D01*
X43731285Y-87630000D01*
X43733877Y-87592114D01*
X43703116Y-87444085D01*
X43633558Y-87309844D01*
X43530362Y-87199348D01*
X43401181Y-87120791D01*
X43255596Y-87080000D01*
X43142378Y-87080000D01*
X43030217Y-87095416D01*
X42891542Y-87155651D01*
X42774261Y-87251066D01*
X42687072Y-87374585D01*
X42636441Y-87517047D01*
X42626123Y-87667886D01*
X42435007Y-87667886D01*
X42472893Y-87630000D01*
X41566885Y-86723992D01*
X41566884Y-86723992D01*
X41492884Y-86859513D01*
X41400400Y-87107471D01*
X41344152Y-87366039D01*
X41325274Y-87629998D01*
X41325274Y-87630001D01*
X41020064Y-87630001D01*
X41027002Y-86016885D01*
X42273992Y-86016885D01*
X43180000Y-86922893D01*
X43180001Y-86922893D01*
X44086006Y-86016885D01*
X44086006Y-86016884D01*
X43950486Y-85942884D01*
X43950487Y-85942884D01*
X43702528Y-85850400D01*
X43443960Y-85794152D01*
X43180001Y-85775274D01*
X43179999Y-85775274D01*
X42916039Y-85794152D01*
X42657471Y-85850400D01*
X42409513Y-85942884D01*
X42273992Y-86016884D01*
X42273992Y-86016885D01*
X41027002Y-86016885D01*
X41029466Y-85444107D01*
X41049439Y-85377153D01*
X41102439Y-85331626D01*
X41154106Y-85320643D01*
X56346206Y-85399358D01*
G37*
%TD.AperFunction*%
%TA.AperFunction,Conductor*%
G36*
X83323039Y-87959685D02*
G01*
X83368794Y-88012489D01*
X83380000Y-88064000D01*
X83380000Y-88209473D01*
X83333558Y-88119844D01*
X83230362Y-88009348D01*
X83116324Y-87940000D01*
X83256000Y-87940000D01*
X83323039Y-87959685D01*
G37*
%TD.AperFunction*%
%TA.AperFunction,Conductor*%
G36*
X82591542Y-87965651D02*
G01*
X82474261Y-88061066D01*
X82387072Y-88184585D01*
X82380000Y-88204483D01*
X82380000Y-88064000D01*
X82399685Y-87996961D01*
X82452489Y-87951206D01*
X82504000Y-87940000D01*
X82650597Y-87940000D01*
X82591542Y-87965651D01*
G37*
%TD.AperFunction*%
%TD*%
%TA.AperFunction,Conductor*%
%TO.N,/BAT_SW*%
G36*
X93607963Y-88933007D02*
G01*
X93674956Y-88952840D01*
X93720594Y-89005745D01*
X93725617Y-89018689D01*
X93820963Y-89312132D01*
X93820965Y-89312137D01*
X93954900Y-89596761D01*
X93954905Y-89596771D01*
X94064083Y-89768807D01*
X94897027Y-88935862D01*
X94975746Y-88936036D01*
X95024213Y-89039973D01*
X95154183Y-89225590D01*
X95314410Y-89385817D01*
X95500027Y-89515787D01*
X95657764Y-89589341D01*
X94769747Y-90477357D01*
X94769748Y-90477358D01*
X94807777Y-90504988D01*
X94807796Y-90505000D01*
X95083447Y-90656540D01*
X95083455Y-90656544D01*
X95375926Y-90772341D01*
X95522191Y-90809896D01*
X95582229Y-90845634D01*
X95613414Y-90908158D01*
X95605846Y-90977617D01*
X95561927Y-91031957D01*
X95522191Y-91050104D01*
X95375926Y-91087658D01*
X95083455Y-91203455D01*
X95083447Y-91203459D01*
X94807787Y-91355004D01*
X94807784Y-91355006D01*
X94769748Y-91382640D01*
X94769748Y-91382641D01*
X95657765Y-92270658D01*
X95500027Y-92344213D01*
X95314410Y-92474183D01*
X95154183Y-92634410D01*
X95024213Y-92820026D01*
X94950658Y-92977764D01*
X94064083Y-92091190D01*
X93954903Y-92263232D01*
X93954900Y-92263238D01*
X93820965Y-92547862D01*
X93820963Y-92547867D01*
X93723755Y-92847041D01*
X93664808Y-93156050D01*
X93664807Y-93156057D01*
X93645057Y-93469994D01*
X93645057Y-93470005D01*
X93664807Y-93783942D01*
X93664808Y-93783949D01*
X93723755Y-94092958D01*
X93820963Y-94392132D01*
X93820965Y-94392137D01*
X93954900Y-94676761D01*
X93954905Y-94676771D01*
X94064083Y-94848807D01*
X94064084Y-94848808D01*
X94950657Y-93962234D01*
X95024213Y-94119973D01*
X95154183Y-94305590D01*
X95314410Y-94465817D01*
X95500027Y-94595787D01*
X95657764Y-94669341D01*
X94769747Y-95557357D01*
X94769748Y-95557358D01*
X94807777Y-95584988D01*
X94807796Y-95585000D01*
X95083447Y-95736540D01*
X95083455Y-95736544D01*
X95375926Y-95852340D01*
X95680620Y-95930573D01*
X95680629Y-95930575D01*
X95992701Y-95969999D01*
X95992715Y-95970000D01*
X96307285Y-95970000D01*
X96307298Y-95969999D01*
X96619370Y-95930575D01*
X96619379Y-95930573D01*
X96924073Y-95852340D01*
X97216544Y-95736544D01*
X97216545Y-95736543D01*
X97492216Y-95584991D01*
X97492222Y-95584988D01*
X97530250Y-95557358D01*
X97530250Y-95557357D01*
X96642234Y-94669341D01*
X96799973Y-94595787D01*
X96985590Y-94465817D01*
X97145817Y-94305590D01*
X97275787Y-94119974D01*
X97349341Y-93962235D01*
X98235914Y-94848808D01*
X98235915Y-94848807D01*
X98345092Y-94676773D01*
X98345103Y-94676754D01*
X98479034Y-94392137D01*
X98479036Y-94392132D01*
X98576244Y-94092958D01*
X98635191Y-93783949D01*
X98635192Y-93783942D01*
X98654943Y-93470005D01*
X98654943Y-93469994D01*
X98635192Y-93156057D01*
X98635191Y-93156050D01*
X98576244Y-92847041D01*
X98479036Y-92547867D01*
X98479034Y-92547862D01*
X98345099Y-92263237D01*
X98345091Y-92263222D01*
X98235915Y-92091191D01*
X97349341Y-92977764D01*
X97275787Y-92820027D01*
X97145817Y-92634410D01*
X96985590Y-92474183D01*
X96799973Y-92344213D01*
X96642235Y-92270658D01*
X97530251Y-91382641D01*
X97530250Y-91382639D01*
X97492227Y-91355014D01*
X97492209Y-91355003D01*
X97216552Y-91203459D01*
X97216544Y-91203455D01*
X96924073Y-91087659D01*
X96777808Y-91050104D01*
X96717770Y-91014366D01*
X96686585Y-90951842D01*
X96694153Y-90882383D01*
X96738072Y-90828043D01*
X96777808Y-90809896D01*
X96924073Y-90772340D01*
X97216544Y-90656544D01*
X97216545Y-90656543D01*
X97492216Y-90504991D01*
X97492222Y-90504988D01*
X97530250Y-90477358D01*
X97530250Y-90477357D01*
X96642234Y-89589341D01*
X96799973Y-89515787D01*
X96985590Y-89385817D01*
X97145817Y-89225590D01*
X97275787Y-89039974D01*
X97321830Y-88941232D01*
X97408532Y-88941425D01*
X98235915Y-89768808D01*
X98235915Y-89768807D01*
X98345092Y-89596773D01*
X98345103Y-89596754D01*
X98479034Y-89312137D01*
X98479036Y-89312132D01*
X98570725Y-89029942D01*
X98610162Y-88972267D01*
X98674521Y-88945068D01*
X98688910Y-88944261D01*
X99875781Y-88946889D01*
X99942770Y-88966721D01*
X99988408Y-89019626D01*
X99999500Y-89070888D01*
X99999500Y-109875500D01*
X99979815Y-109942539D01*
X99927011Y-109988294D01*
X99875500Y-109999500D01*
X63758123Y-109999500D01*
X63691084Y-109979815D01*
X63645329Y-109927011D01*
X63634125Y-109876219D01*
X63601624Y-104267988D01*
X63587803Y-101883221D01*
X65798784Y-101883221D01*
X66010479Y-101970909D01*
X66249671Y-102028333D01*
X66249670Y-102028333D01*
X66494900Y-102047632D01*
X66740129Y-102028333D01*
X66979317Y-101970910D01*
X67191014Y-101883221D01*
X66494901Y-101187108D01*
X66494900Y-101187108D01*
X65798784Y-101883221D01*
X63587803Y-101883221D01*
X63579671Y-100480001D01*
X64927268Y-100480001D01*
X64946567Y-100725230D01*
X65003991Y-100964421D01*
X65091678Y-101176115D01*
X65749301Y-100518493D01*
X65932161Y-100518493D01*
X65963414Y-100668891D01*
X66034085Y-100805280D01*
X66138932Y-100917544D01*
X66270180Y-100997358D01*
X66418095Y-101038801D01*
X66533125Y-101038801D01*
X66647080Y-101023138D01*
X66787973Y-100961940D01*
X66907131Y-100864998D01*
X66995715Y-100739503D01*
X67047156Y-100594761D01*
X67055006Y-100480001D01*
X67202007Y-100480001D01*
X67898120Y-101176114D01*
X67985809Y-100964418D01*
X68043232Y-100725230D01*
X68050150Y-100637330D01*
X68994400Y-100637330D01*
X69033832Y-100949464D01*
X69033834Y-100949477D01*
X69112080Y-101254226D01*
X69112081Y-101254229D01*
X69227901Y-101546758D01*
X69227902Y-101546759D01*
X69227904Y-101546764D01*
X69227906Y-101546767D01*
X69379484Y-101822485D01*
X69379486Y-101822489D01*
X69379491Y-101822496D01*
X69564415Y-102077022D01*
X69564423Y-102077032D01*
X69779807Y-102306392D01*
X69779809Y-102306394D01*
X70022234Y-102506946D01*
X70022238Y-102506949D01*
X70232548Y-102640415D01*
X70287893Y-102675538D01*
X70453987Y-102753696D01*
X70572578Y-102809501D01*
X70572582Y-102809502D01*
X70572585Y-102809504D01*
X70871821Y-102906732D01*
X71180885Y-102965689D01*
X71180890Y-102965689D01*
X71180895Y-102965690D01*
X71416311Y-102980501D01*
X71416317Y-102980501D01*
X79403489Y-102980501D01*
X79638904Y-102965690D01*
X79638907Y-102965689D01*
X79638915Y-102965689D01*
X79947979Y-102906732D01*
X80247215Y-102809504D01*
X80531907Y-102675538D01*
X80797563Y-102506948D01*
X81039994Y-102306391D01*
X81255378Y-102077031D01*
X81440316Y-101822485D01*
X81591894Y-101546767D01*
X81608695Y-101504334D01*
X81707718Y-101254229D01*
X81707719Y-101254226D01*
X81785965Y-100949477D01*
X81785966Y-100949474D01*
X81811037Y-100751017D01*
X81825399Y-100637330D01*
X81825400Y-100637317D01*
X81825400Y-100480005D01*
X82506515Y-100480005D01*
X82526823Y-100751007D01*
X82526824Y-100751012D01*
X82526824Y-100751016D01*
X82526825Y-100751017D01*
X82533334Y-100779535D01*
X82587297Y-101015965D01*
X82587299Y-101015974D01*
X82587301Y-101015979D01*
X82686592Y-101268969D01*
X82822480Y-101504334D01*
X82898771Y-101600000D01*
X82991932Y-101716821D01*
X83105811Y-101822484D01*
X83191155Y-101901672D01*
X83415708Y-102054769D01*
X83660565Y-102172686D01*
X83660566Y-102172686D01*
X83660569Y-102172688D01*
X83920271Y-102252795D01*
X83920272Y-102252795D01*
X83920275Y-102252796D01*
X84189004Y-102293300D01*
X84189009Y-102293300D01*
X84189012Y-102293301D01*
X84189013Y-102293301D01*
X84460787Y-102293301D01*
X84460788Y-102293301D01*
X84460795Y-102293300D01*
X84729524Y-102252796D01*
X84729525Y-102252795D01*
X84729529Y-102252795D01*
X84989231Y-102172688D01*
X85234093Y-102054769D01*
X85458645Y-101901672D01*
X85657871Y-101716817D01*
X85751029Y-101600000D01*
X88504434Y-101600000D01*
X88524685Y-102012218D01*
X88524685Y-102012223D01*
X88524686Y-102012227D01*
X88585244Y-102420471D01*
X88606906Y-102506949D01*
X88649135Y-102675539D01*
X88685527Y-102820821D01*
X88824555Y-103209379D01*
X88824562Y-103209395D01*
X88824564Y-103209400D01*
X89001022Y-103582490D01*
X89001024Y-103582493D01*
X89213198Y-103936484D01*
X89459058Y-104267988D01*
X89736215Y-104573784D01*
X90042011Y-104850941D01*
X90042017Y-104850946D01*
X90373513Y-105096800D01*
X90727510Y-105308978D01*
X91100600Y-105485436D01*
X91100609Y-105485439D01*
X91100620Y-105485444D01*
X91461738Y-105614654D01*
X91489189Y-105624476D01*
X91889535Y-105724757D01*
X92297782Y-105785315D01*
X92710000Y-105805566D01*
X93122218Y-105785315D01*
X93530465Y-105724757D01*
X93930811Y-105624476D01*
X94111380Y-105559866D01*
X94319379Y-105485444D01*
X94319385Y-105485441D01*
X94319400Y-105485436D01*
X94692490Y-105308978D01*
X95046487Y-105096800D01*
X95377983Y-104850946D01*
X95683784Y-104573784D01*
X95960946Y-104267983D01*
X96206800Y-103936487D01*
X96418978Y-103582490D01*
X96595436Y-103209400D01*
X96734476Y-102820811D01*
X96834757Y-102420465D01*
X96895315Y-102012218D01*
X96915566Y-101600000D01*
X96895315Y-101187782D01*
X96834757Y-100779535D01*
X96734476Y-100379189D01*
X96714258Y-100322683D01*
X96595444Y-99990620D01*
X96595437Y-99990604D01*
X96595436Y-99990600D01*
X96418978Y-99617510D01*
X96206800Y-99263513D01*
X95960946Y-98932017D01*
X95960630Y-98931668D01*
X95683784Y-98626215D01*
X95377988Y-98349058D01*
X95290894Y-98284465D01*
X95046487Y-98103200D01*
X94692490Y-97891022D01*
X94319400Y-97714564D01*
X94319396Y-97714562D01*
X94319395Y-97714562D01*
X94319379Y-97714555D01*
X93930821Y-97575527D01*
X93930815Y-97575525D01*
X93930811Y-97575524D01*
X93732205Y-97525776D01*
X93530471Y-97475244D01*
X93530466Y-97475243D01*
X93530465Y-97475243D01*
X93429577Y-97460277D01*
X93122227Y-97414686D01*
X93122223Y-97414685D01*
X93122218Y-97414685D01*
X92710000Y-97394434D01*
X92297782Y-97414685D01*
X92297776Y-97414685D01*
X92297772Y-97414686D01*
X91889528Y-97475244D01*
X91587316Y-97550944D01*
X91489189Y-97575524D01*
X91489186Y-97575524D01*
X91489178Y-97575527D01*
X91100620Y-97714555D01*
X91100604Y-97714562D01*
X90727506Y-97891024D01*
X90373515Y-98103198D01*
X90042011Y-98349058D01*
X89736215Y-98626215D01*
X89459058Y-98932011D01*
X89213198Y-99263515D01*
X89001024Y-99617506D01*
X88824562Y-99990604D01*
X88824555Y-99990620D01*
X88685527Y-100379178D01*
X88585244Y-100779528D01*
X88524785Y-101187108D01*
X88524685Y-101187782D01*
X88504434Y-101600000D01*
X85751029Y-101600000D01*
X85827320Y-101504334D01*
X85963208Y-101268969D01*
X86062499Y-101015979D01*
X86122975Y-100751017D01*
X86123838Y-100739503D01*
X86143285Y-100480005D01*
X86143285Y-100479996D01*
X86122976Y-100208994D01*
X86122975Y-100208989D01*
X86122975Y-100208985D01*
X86062499Y-99944023D01*
X85963208Y-99691033D01*
X85827320Y-99455668D01*
X85657871Y-99243185D01*
X85657870Y-99243184D01*
X85657867Y-99243180D01*
X85458645Y-99058330D01*
X85458642Y-99058328D01*
X85234093Y-98905233D01*
X85234089Y-98905231D01*
X85234086Y-98905229D01*
X85234085Y-98905228D01*
X84989233Y-98787315D01*
X84989235Y-98787315D01*
X84729530Y-98707207D01*
X84729524Y-98707205D01*
X84460795Y-98666701D01*
X84460788Y-98666701D01*
X84189012Y-98666701D01*
X84189004Y-98666701D01*
X83920275Y-98707205D01*
X83920269Y-98707207D01*
X83660565Y-98787315D01*
X83415716Y-98905228D01*
X83415707Y-98905233D01*
X83191157Y-99058328D01*
X82991932Y-99243180D01*
X82822480Y-99455668D01*
X82686592Y-99691032D01*
X82587303Y-99944017D01*
X82587297Y-99944036D01*
X82526824Y-100208989D01*
X82526823Y-100208994D01*
X82506515Y-100479996D01*
X82506515Y-100480005D01*
X81825400Y-100480005D01*
X81825400Y-100322684D01*
X81825399Y-100322671D01*
X81785967Y-100010537D01*
X81785965Y-100010524D01*
X81707719Y-99705775D01*
X81707718Y-99705772D01*
X81591898Y-99413243D01*
X81591897Y-99413242D01*
X81591896Y-99413240D01*
X81591894Y-99413235D01*
X81440316Y-99137517D01*
X81440310Y-99137510D01*
X81440308Y-99137505D01*
X81255384Y-98882979D01*
X81255376Y-98882969D01*
X81039992Y-98653609D01*
X81039990Y-98653607D01*
X80797565Y-98453055D01*
X80797561Y-98453052D01*
X80531909Y-98284465D01*
X80531903Y-98284462D01*
X80247221Y-98150500D01*
X80247216Y-98150498D01*
X79947983Y-98053271D01*
X79947980Y-98053270D01*
X79947979Y-98053270D01*
X79793447Y-98023791D01*
X79638911Y-97994312D01*
X79638904Y-97994311D01*
X79403489Y-97979501D01*
X79403483Y-97979501D01*
X71416317Y-97979501D01*
X71416311Y-97979501D01*
X71180895Y-97994311D01*
X71180888Y-97994312D01*
X70871816Y-98053271D01*
X70572583Y-98150498D01*
X70572578Y-98150500D01*
X70287896Y-98284462D01*
X70287890Y-98284465D01*
X70022238Y-98453052D01*
X70022234Y-98453055D01*
X69779809Y-98653607D01*
X69779807Y-98653609D01*
X69564423Y-98882969D01*
X69564415Y-98882979D01*
X69379491Y-99137505D01*
X69379484Y-99137517D01*
X69227902Y-99413242D01*
X69227901Y-99413243D01*
X69112081Y-99705772D01*
X69112080Y-99705775D01*
X69033834Y-100010524D01*
X69033832Y-100010537D01*
X68994400Y-100322671D01*
X68994400Y-100637330D01*
X68050150Y-100637330D01*
X68062531Y-100480001D01*
X68043232Y-100234771D01*
X67985808Y-99995580D01*
X67898120Y-99783885D01*
X67202007Y-100480000D01*
X67202007Y-100480001D01*
X67055006Y-100480001D01*
X67057639Y-100441509D01*
X67026386Y-100291111D01*
X66955715Y-100154722D01*
X66850868Y-100042458D01*
X66719620Y-99962644D01*
X66571705Y-99921201D01*
X66456675Y-99921201D01*
X66342720Y-99936864D01*
X66201827Y-99998062D01*
X66082669Y-100095004D01*
X65994085Y-100220499D01*
X65942644Y-100365241D01*
X65932161Y-100518493D01*
X65749301Y-100518493D01*
X65787793Y-100480001D01*
X65787793Y-100480000D01*
X65091678Y-99783885D01*
X65003991Y-99995580D01*
X64946567Y-100234771D01*
X64927268Y-100480001D01*
X63579671Y-100480001D01*
X63571539Y-99076779D01*
X65798784Y-99076779D01*
X66494900Y-99772894D01*
X66494901Y-99772894D01*
X67191014Y-99076779D01*
X66979320Y-98989092D01*
X66740128Y-98931668D01*
X66740129Y-98931668D01*
X66494900Y-98912369D01*
X66249670Y-98931668D01*
X66010479Y-98989092D01*
X65798784Y-99076779D01*
X63571539Y-99076779D01*
X63550719Y-95484194D01*
X63570015Y-95417044D01*
X63622553Y-95370984D01*
X63674196Y-95359479D01*
X92160000Y-95240000D01*
X92248252Y-89052500D01*
X92268890Y-88985751D01*
X92322341Y-88940753D01*
X92372512Y-88930271D01*
X93607963Y-88933007D01*
G37*
%TD.AperFunction*%
%TD*%
M02*
