%TF.GenerationSoftware,KiCad,Pcbnew,7.0.9*%
%TF.CreationDate,2024-01-02T21:13:22+02:00*%
%TF.ProjectId,kikad_project,6b696b61-645f-4707-926f-6a6563742e6b,rev?*%
%TF.SameCoordinates,Original*%
%TF.FileFunction,Copper,L1,Top*%
%TF.FilePolarity,Positive*%
%FSLAX46Y46*%
G04 Gerber Fmt 4.6, Leading zero omitted, Abs format (unit mm)*
G04 Created by KiCad (PCBNEW 7.0.9) date 2024-01-02 21:13:22*
%MOMM*%
%LPD*%
G01*
G04 APERTURE LIST*
%TA.AperFunction,NonConductor*%
%ADD10C,0.200000*%
%TD*%
%TA.AperFunction,ComponentPad*%
%ADD11C,1.625600*%
%TD*%
%TA.AperFunction,ComponentPad*%
%ADD12C,1.300000*%
%TD*%
%TA.AperFunction,ComponentPad*%
%ADD13R,1.651000X1.651000*%
%TD*%
%TA.AperFunction,ComponentPad*%
%ADD14C,1.651000*%
%TD*%
%TA.AperFunction,ComponentPad*%
%ADD15R,1.905000X2.000000*%
%TD*%
%TA.AperFunction,ComponentPad*%
%ADD16O,1.905000X2.000000*%
%TD*%
%TA.AperFunction,ComponentPad*%
%ADD17C,1.600000*%
%TD*%
%TA.AperFunction,ComponentPad*%
%ADD18O,1.600000X1.600000*%
%TD*%
%TA.AperFunction,ComponentPad*%
%ADD19C,1.701800*%
%TD*%
%TA.AperFunction,ComponentPad*%
%ADD20C,1.650000*%
%TD*%
%TA.AperFunction,ComponentPad*%
%ADD21R,1.650000X1.650000*%
%TD*%
%TA.AperFunction,ComponentPad*%
%ADD22O,1.700000X1.700000*%
%TD*%
%TA.AperFunction,ComponentPad*%
%ADD23R,1.700000X1.700000*%
%TD*%
%TA.AperFunction,ComponentPad*%
%ADD24R,1.600000X1.600000*%
%TD*%
%TA.AperFunction,ComponentPad*%
%ADD25C,6.400000*%
%TD*%
%TA.AperFunction,ComponentPad*%
%ADD26C,2.200000*%
%TD*%
%TA.AperFunction,ComponentPad*%
%ADD27O,2.200000X2.200000*%
%TD*%
%TA.AperFunction,ComponentPad*%
%ADD28C,3.500000*%
%TD*%
%TA.AperFunction,ComponentPad*%
%ADD29R,1.130000X1.130000*%
%TD*%
%TA.AperFunction,ComponentPad*%
%ADD30C,1.130000*%
%TD*%
%TA.AperFunction,ComponentPad*%
%ADD31C,1.700000*%
%TD*%
%TA.AperFunction,Conductor*%
%ADD32C,0.250000*%
%TD*%
%TA.AperFunction,Conductor*%
%ADD33C,2.000000*%
%TD*%
%TA.AperFunction,Conductor*%
%ADD34C,3.000000*%
%TD*%
G04 APERTURE END LIST*
D10*
X48030000Y-45940000D02*
X49663210Y-48456471D01*
X61917428Y-53020916D02*
X58921495Y-53177081D01*
X53429630Y-53489413D02*
G75*
G03*
X53429630Y-53489413I-500000J0D01*
G01*
X50204187Y-58834683D02*
G75*
G03*
X61917427Y-53020916I3619823J7413453D01*
G01*
X48841462Y-61507323D02*
X50204185Y-58834686D01*
X58921491Y-53177081D02*
G75*
G03*
X48030000Y-45940001I-8230151J-571869D01*
G01*
X58929630Y-53489413D02*
G75*
G03*
X58929630Y-53489413I-6000000J0D01*
G01*
X49663212Y-48456474D02*
G75*
G03*
X48841462Y-61507323I4610338J-6841586D01*
G01*
D11*
%TO.P,J9,1,1*%
%TO.N,+24V*%
X28020000Y-100500000D03*
%TO.P,J9,2,2*%
%TO.N,GND*%
X33020000Y-100500000D03*
%TD*%
%TO.P,J7,1,1*%
%TO.N,Net-(IC2-VOUT-)*%
X90430001Y-41758301D03*
%TO.P,J7,2,2*%
%TO.N,Net-(IC2-VOUT+)*%
X90430001Y-36758301D03*
%TD*%
D12*
%TO.P,IC3,1,VDD1*%
%TO.N,VCC*%
X75090000Y-61000000D03*
%TO.P,IC3,2,VIN+*%
%TO.N,WHEEL_RIGHT_PWM*%
X75090000Y-63540000D03*
%TO.P,IC3,3,VIN-*%
%TO.N,WHEEL_RIGHT_DIR*%
X75090000Y-66080000D03*
%TO.P,IC3,4,GND1*%
%TO.N,GND*%
X75090000Y-68620000D03*
%TO.P,IC3,5,GND2*%
X82710000Y-68620000D03*
%TO.P,IC3,6,VOUT-*%
%TO.N,Net-(IC3-VOUT-)*%
X82710000Y-66080000D03*
%TO.P,IC3,7,VOUT+*%
%TO.N,Net-(IC3-VOUT+)*%
X82710000Y-63540000D03*
%TO.P,IC3,8,VDD2*%
%TO.N,+5V*%
X82710000Y-61000000D03*
%TD*%
D13*
%TO.P,D1,1*%
%TO.N,+24V*%
X76200000Y-91160600D03*
D14*
%TO.P,D1,2*%
%TO.N,Net-(Q2-G)*%
X76200000Y-80162400D03*
%TD*%
D11*
%TO.P,J16,1,1*%
%TO.N,Net-(IC3-VOUT-)*%
X90430001Y-59948301D03*
%TO.P,J16,2,2*%
%TO.N,Net-(IC3-VOUT+)*%
X90430001Y-54948301D03*
%TD*%
%TO.P,J11,1,1*%
%TO.N,Net-(J11-Pad1)*%
X9620000Y-46823599D03*
%TO.P,J11,2,2*%
%TO.N,GND*%
X9620000Y-51823599D03*
%TO.P,J11,3,3*%
%TO.N,VCC*%
X9620000Y-56823599D03*
%TO.P,J11,4,4*%
%TO.N,Net-(J11-Pad4)*%
X9620000Y-61823600D03*
%TD*%
D15*
%TO.P,U4,1,IN*%
%TO.N,+24V*%
X55340000Y-87630000D03*
D16*
%TO.P,U4,2,GND*%
%TO.N,GND*%
X57880000Y-87630000D03*
%TO.P,U4,3,OUT*%
%TO.N,+5V*%
X60420000Y-87630000D03*
%TD*%
D17*
%TO.P,C6,1*%
%TO.N,+5V*%
X60420000Y-81220000D03*
D18*
%TO.P,C6,2*%
%TO.N,GND*%
X60420000Y-73720000D03*
%TD*%
D19*
%TO.P,J17,1,1*%
%TO.N,GND*%
X89430000Y-66138301D03*
%TO.P,J17,2,2*%
X94430000Y-66138301D03*
%TD*%
D20*
%TO.P,D3,A*%
%TO.N,Net-(Q2-S)*%
X91440000Y-90320000D03*
D21*
%TO.P,D3,C*%
%TO.N,GND*%
X91440000Y-77320000D03*
%TD*%
D17*
%TO.P,C9,1*%
%TO.N,+3.3V*%
X24070000Y-5080000D03*
D18*
%TO.P,C9,2*%
%TO.N,GND*%
X16570000Y-5080000D03*
%TD*%
D22*
%TO.P,U2,1,VBAT*%
%TO.N,unconnected-(U2-VBAT-Pad1)*%
X67430000Y-20810000D03*
%TO.P,U2,2,PC13*%
%TO.N,unconnected-(U2-PC13-Pad2)*%
X64890000Y-20810000D03*
%TO.P,U2,3,PC14*%
%TO.N,unconnected-(U2-PC14-Pad3)*%
X62350000Y-20810000D03*
%TO.P,U2,3v,3V3*%
%TO.N,+3.3V*%
X67430000Y-35385000D03*
X24250000Y-20810000D03*
%TO.P,U2,4,PC15*%
%TO.N,unconnected-(U2-PC15-Pad4)*%
X59810000Y-20810000D03*
%TO.P,U2,5v,5V*%
%TO.N,VCC*%
X62350000Y-35385000D03*
%TO.P,U2,7,NRST*%
%TO.N,unconnected-(U2-NRST-Pad7)*%
X26790000Y-20810000D03*
%TO.P,U2,10,PA0*%
%TO.N,unconnected-(U2-PA0-Pad10)*%
X57270000Y-20810000D03*
%TO.P,U2,11,PA1*%
%TO.N,HAND_PWM*%
X54730000Y-20810000D03*
%TO.P,U2,12,PA2*%
%TO.N,HAND_DIR*%
X52190000Y-20810000D03*
%TO.P,U2,13,PA3*%
%TO.N,unconnected-(U2-PA3-Pad13)*%
X49650000Y-20810000D03*
%TO.P,U2,14,PA4*%
%TO.N,WHEEL_RIGHT_DIR*%
X47110000Y-20810000D03*
%TO.P,U2,15,PA5*%
%TO.N,WHEEL_LEFT_DIR*%
X44570000Y-20810000D03*
%TO.P,U2,16,PA6*%
%TO.N,DISK_DIR*%
X42030000Y-20810000D03*
%TO.P,U2,17,PA7*%
%TO.N,DISK_PWM*%
X39490000Y-20810000D03*
%TO.P,U2,18,PB0*%
%TO.N,WHEEL_LEFT_PWM*%
X36950000Y-20810000D03*
%TO.P,U2,19,PB1*%
%TO.N,WHEEL_RIGHT_PWM*%
X34410000Y-20810000D03*
%TO.P,U2,21,PB10*%
%TO.N,unconnected-(U2-PB10-Pad21)*%
X31870000Y-20810000D03*
%TO.P,U2,22,PB11*%
%TO.N,unconnected-(U2-PB11-Pad22)*%
X29330000Y-20810000D03*
D23*
%TO.P,U2,25,PB12*%
%TO.N,unconnected-(U2-PB12-Pad25)*%
X19170000Y-35385000D03*
D22*
%TO.P,U2,26,PB13*%
%TO.N,unconnected-(U2-PB13-Pad26)*%
X21710000Y-35385000D03*
%TO.P,U2,27,PB14*%
%TO.N,unconnected-(U2-PB14-Pad27)*%
X24250000Y-35385000D03*
%TO.P,U2,28,PB15*%
%TO.N,HAND_END_RIGHT*%
X26790000Y-35385000D03*
%TO.P,U2,29,PA8*%
%TO.N,HAND_END_LEFT*%
X29330000Y-35385000D03*
%TO.P,U2,30,PA9*%
%TO.N,PA9*%
X31870000Y-35385000D03*
%TO.P,U2,31,PA10*%
%TO.N,PA10*%
X34410000Y-35385000D03*
%TO.P,U2,32,PA11*%
%TO.N,unconnected-(U2-PA11-Pad32)*%
X36950000Y-35385000D03*
%TO.P,U2,33,PA12*%
%TO.N,unconnected-(U2-PA12-Pad33)*%
X39490000Y-35385000D03*
%TO.P,U2,38,PA15*%
%TO.N,PA15*%
X42030000Y-35385000D03*
%TO.P,U2,39,PB3*%
%TO.N,PB3*%
X44570000Y-35385000D03*
%TO.P,U2,40,PB4*%
%TO.N,PB4*%
X47110000Y-35385000D03*
%TO.P,U2,41,PB5*%
%TO.N,PB5*%
X49650000Y-35385000D03*
%TO.P,U2,42,PB6*%
%TO.N,unconnected-(U2-PB6-Pad42)*%
X52190000Y-35385000D03*
%TO.P,U2,43,PB7*%
%TO.N,OPT_END_WHEEL_RIGHT*%
X54730000Y-35385000D03*
%TO.P,U2,45,PB8*%
%TO.N,OPT_END_WHEEL_LEFT*%
X57270000Y-35385000D03*
%TO.P,U2,46,PB9*%
%TO.N,OPT_END_DISK*%
X59810000Y-35385000D03*
%TO.P,U2,G,GND*%
%TO.N,GND*%
X64890000Y-35385000D03*
D23*
X19170000Y-20810000D03*
D22*
X21710000Y-20810000D03*
%TD*%
D24*
%TO.P,C12,1*%
%TO.N,OPT_END_WHEEL_LEFT*%
X30480000Y-55880000D03*
D17*
%TO.P,C12,2*%
%TO.N,GND*%
X30480000Y-53880000D03*
%TD*%
D12*
%TO.P,IC1,1,VDD1*%
%TO.N,VCC*%
X75090000Y-35600000D03*
%TO.P,IC1,2,VIN+*%
%TO.N,DISK_PWM*%
X75090000Y-38140000D03*
%TO.P,IC1,3,VIN-*%
%TO.N,DISK_DIR*%
X75090000Y-40680000D03*
%TO.P,IC1,4,GND1*%
%TO.N,GND*%
X75090000Y-43220000D03*
%TO.P,IC1,5,GND2*%
X82710000Y-43220000D03*
%TO.P,IC1,6,VOUT-*%
%TO.N,Net-(IC1-VOUT-)*%
X82710000Y-40680000D03*
%TO.P,IC1,7,VOUT+*%
%TO.N,Net-(IC1-VOUT+)*%
X82710000Y-38140000D03*
%TO.P,IC1,8,VDD2*%
%TO.N,+5V*%
X82710000Y-35600000D03*
%TD*%
D17*
%TO.P,C4,1*%
%TO.N,+24V*%
X65500000Y-88840000D03*
D18*
%TO.P,C4,2*%
%TO.N,GND*%
X65500000Y-81340000D03*
%TD*%
D11*
%TO.P,J10,1,1*%
%TO.N,VCC*%
X9620000Y-69525500D03*
%TO.P,J10,2,2*%
%TO.N,Net-(J10-Pad2)*%
X9620000Y-74525500D03*
%TO.P,J10,3,3*%
%TO.N,GND*%
X9620000Y-79525500D03*
%TO.P,J10,4,4*%
%TO.N,VCC*%
X9620000Y-84525501D03*
%TD*%
%TO.P,J6,1,1*%
%TO.N,+24V*%
X15320000Y-100500000D03*
%TO.P,J6,2,2*%
%TO.N,GND*%
X20320000Y-100500000D03*
%TD*%
%TO.P,J2,1,1*%
%TO.N,Net-(U12-E)*%
X95790000Y-9510000D03*
%TO.P,J2,2,2*%
%TO.N,GND*%
X90790000Y-9510000D03*
%TO.P,J2,3,3*%
%TO.N,Net-(U12-F)*%
X85790000Y-9510000D03*
%TO.P,J2,4,4*%
%TO.N,GND*%
X80789999Y-9510000D03*
%TD*%
%TO.P,J14,1,1*%
%TO.N,HAND_END_RIGHT*%
X9620000Y-28640000D03*
%TO.P,J14,2,2*%
%TO.N,GND*%
X9620000Y-33640000D03*
%TD*%
D25*
%TO.P,H2,1,1*%
%TO.N,GND*%
X7620000Y-6350000D03*
%TD*%
D17*
%TO.P,C2,1*%
%TO.N,VCC*%
X45720000Y-76200000D03*
D18*
%TO.P,C2,2*%
%TO.N,GND*%
X45720000Y-68700000D03*
%TD*%
D26*
%TO.P,L1,1,1*%
%TO.N,+24V*%
X43180000Y-87630000D03*
D27*
%TO.P,L1,2,2*%
%TO.N,Net-(U3-IN)*%
X38100000Y-87630000D03*
%TD*%
D15*
%TO.P,U3,1,IN*%
%TO.N,Net-(U3-IN)*%
X38100000Y-81280000D03*
D16*
%TO.P,U3,2,GND*%
%TO.N,GND*%
X40640000Y-81280000D03*
%TO.P,U3,3,OUT*%
%TO.N,VCC*%
X43180000Y-81280000D03*
%TD*%
D17*
%TO.P,R3,1*%
%TO.N,OPT_END_WHEEL_RIGHT*%
X27940000Y-50070000D03*
D18*
%TO.P,R3,2*%
%TO.N,Net-(J11-Pad1)*%
X17780000Y-50070000D03*
%TD*%
D11*
%TO.P,J1,1,1*%
%TO.N,Net-(J1-Pad1)*%
X78820000Y-100500000D03*
%TO.P,J1,2,2*%
%TO.N,GND*%
X83820000Y-100500000D03*
%TD*%
D17*
%TO.P,C3,1*%
%TO.N,Net-(U3-IN)*%
X33020000Y-91440000D03*
D18*
%TO.P,C3,2*%
%TO.N,GND*%
X33020000Y-83940000D03*
%TD*%
D19*
%TO.P,J8,1,1*%
%TO.N,GND*%
X89430000Y-47948301D03*
%TO.P,J8,2,2*%
X94430000Y-47948301D03*
%TD*%
D11*
%TO.P,J3,1,1*%
%TO.N,GND*%
X53430000Y-100480000D03*
%TO.P,J3,2,2*%
%TO.N,+24V*%
X58430000Y-100480000D03*
%TD*%
D24*
%TO.P,C1,1*%
%TO.N,VCC*%
X40100000Y-73660000D03*
D17*
%TO.P,C1,2*%
%TO.N,GND*%
X38100000Y-73660000D03*
%TD*%
D25*
%TO.P,H1,1,1*%
%TO.N,GND*%
X7000000Y-101600000D03*
%TD*%
D11*
%TO.P,J15,1,1*%
%TO.N,/BAT_SW*%
X66120000Y-100500000D03*
%TO.P,J15,2,2*%
%TO.N,Net-(J1-Pad1)*%
X71120000Y-100500000D03*
%TD*%
D24*
%TO.P,C11,1*%
%TO.N,OPT_END_WHEEL_RIGHT*%
X30480000Y-45720000D03*
D17*
%TO.P,C11,2*%
%TO.N,GND*%
X30480000Y-43720000D03*
%TD*%
%TO.P,R1,1*%
%TO.N,Net-(Q2-G)*%
X86360000Y-86360000D03*
D18*
%TO.P,R1,2*%
%TO.N,GND*%
X86360000Y-76200000D03*
%TD*%
D15*
%TO.P,Q2,1,G*%
%TO.N,Net-(Q2-G)*%
X81280000Y-91440000D03*
D16*
%TO.P,Q2,2,D*%
%TO.N,+24V*%
X83820000Y-91440000D03*
%TO.P,Q2,3,S*%
%TO.N,Net-(Q2-S)*%
X86360000Y-91440000D03*
%TD*%
D11*
%TO.P,J4,1,1*%
%TO.N,Net-(IC1-VOUT-)*%
X90430001Y-23585101D03*
%TO.P,J4,2,2*%
%TO.N,Net-(IC1-VOUT+)*%
X90430001Y-18585101D03*
%TD*%
D24*
%TO.P,C5,1*%
%TO.N,+5V*%
X55880000Y-80010000D03*
D17*
%TO.P,C5,2*%
%TO.N,GND*%
X53880000Y-80010000D03*
%TD*%
D24*
%TO.P,C8,1*%
%TO.N,+3.3V*%
X21050000Y-12700000D03*
D17*
%TO.P,C8,2*%
%TO.N,GND*%
X19050000Y-12700000D03*
%TD*%
D25*
%TO.P,H3,1,1*%
%TO.N,GND*%
X92710000Y-101600000D03*
%TD*%
D17*
%TO.P,C7,1*%
%TO.N,Net-(Q2-G)*%
X81280000Y-86360000D03*
D18*
%TO.P,C7,2*%
%TO.N,GND*%
X81280000Y-78860000D03*
%TD*%
D19*
%TO.P,J12,1,1*%
%TO.N,GND*%
X10620001Y-40639999D03*
%TO.P,J12,2,2*%
X5620001Y-40639999D03*
%TD*%
D28*
%TO.P,X1,1A*%
%TO.N,/BAT_SW*%
X96150000Y-93470000D03*
%TO.P,X1,1B*%
X96150000Y-88390000D03*
%TO.P,X1,2A*%
%TO.N,Net-(Q2-S)*%
X96150000Y-84330000D03*
%TO.P,X1,2B*%
X96150000Y-79250000D03*
%TD*%
D29*
%TO.P,U12,1,VCC*%
%TO.N,+3.3V*%
X66100000Y-6860000D03*
D30*
%TO.P,U12,2,EN_A*%
X63560000Y-6860000D03*
%TO.P,U12,3,A*%
%TO.N,HAND_PWM*%
X61020000Y-6860000D03*
%TO.P,U12,4,E*%
%TO.N,Net-(U12-E)*%
X58480000Y-6860000D03*
%TO.P,U12,5,F*%
%TO.N,Net-(U12-F)*%
X55940000Y-6860000D03*
%TO.P,U12,6,B*%
%TO.N,HAND_DIR*%
X53400000Y-6860000D03*
%TO.P,U12,7,EN_B*%
%TO.N,+3.3V*%
X50860000Y-6860000D03*
%TO.P,U12,8,VSS*%
%TO.N,GND*%
X48320000Y-6860000D03*
%TO.P,U12,9,EN_C*%
%TO.N,unconnected-(U12-EN_C-Pad9)*%
X48320000Y-14800000D03*
%TO.P,U12,10,C*%
%TO.N,unconnected-(U12-C-Pad10)*%
X50860000Y-14800000D03*
%TO.P,U12,11,G*%
%TO.N,unconnected-(U12-G-Pad11)*%
X53400000Y-14800000D03*
%TO.P,U12,12*%
%TO.N,N/C*%
X55940000Y-14800000D03*
%TO.P,U12,13,H*%
%TO.N,unconnected-(U12-H-Pad13)*%
X58480000Y-14800000D03*
%TO.P,U12,14,D*%
%TO.N,unconnected-(U12-D-Pad14)*%
X61020000Y-14800000D03*
%TO.P,U12,15,EN_D*%
%TO.N,unconnected-(U12-EN_D-Pad15)*%
X63560000Y-14800000D03*
%TO.P,U12,16,VDD*%
%TO.N,+5V*%
X66100000Y-14800000D03*
%TD*%
D19*
%TO.P,J5,1,1*%
%TO.N,GND*%
X89430000Y-29778301D03*
%TO.P,J5,2,2*%
X94430000Y-29778301D03*
%TD*%
D11*
%TO.P,J13,1,1*%
%TO.N,HAND_END_LEFT*%
X9610000Y-15920000D03*
%TO.P,J13,2,2*%
%TO.N,GND*%
X9610000Y-20920000D03*
%TD*%
D12*
%TO.P,IC2,1,VDD1*%
%TO.N,VCC*%
X75090000Y-48300000D03*
%TO.P,IC2,2,VIN+*%
%TO.N,WHEEL_LEFT_PWM*%
X75090000Y-50840000D03*
%TO.P,IC2,3,VIN-*%
%TO.N,WHEEL_LEFT_DIR*%
X75090000Y-53380000D03*
%TO.P,IC2,4,GND1*%
%TO.N,GND*%
X75090000Y-55920000D03*
%TO.P,IC2,5,GND2*%
X82710000Y-55920000D03*
%TO.P,IC2,6,VOUT-*%
%TO.N,Net-(IC2-VOUT-)*%
X82710000Y-53380000D03*
%TO.P,IC2,7,VOUT+*%
%TO.N,Net-(IC2-VOUT+)*%
X82710000Y-50840000D03*
%TO.P,IC2,8,VDD2*%
%TO.N,+5V*%
X82710000Y-48300000D03*
%TD*%
D11*
%TO.P,J18,1,1*%
%TO.N,+24V*%
X40720000Y-100500000D03*
%TO.P,J18,2,2*%
%TO.N,GND*%
X45720000Y-100500000D03*
%TD*%
D17*
%TO.P,R2,1*%
%TO.N,OPT_END_DISK*%
X27940000Y-70390000D03*
D18*
%TO.P,R2,2*%
%TO.N,Net-(J10-Pad2)*%
X17780000Y-70390000D03*
%TD*%
D24*
%TO.P,C10,1*%
%TO.N,OPT_END_DISK*%
X30480000Y-66040000D03*
D17*
%TO.P,C10,2*%
%TO.N,GND*%
X30480000Y-64040000D03*
%TD*%
D23*
%TO.P,U1,1,GND*%
%TO.N,GND*%
X27940000Y-3265000D03*
D31*
%TO.P,U1,2,VCC*%
%TO.N,+3.3V*%
X30480000Y-3265000D03*
%TO.P,U1,3,CE*%
%TO.N,PA10*%
X27940000Y-5805000D03*
%TO.P,U1,4,~{CSN}*%
%TO.N,PA15*%
X30480000Y-5805000D03*
%TO.P,U1,5,SCK*%
%TO.N,PB3*%
X27940000Y-8345000D03*
%TO.P,U1,6,MOSI*%
%TO.N,PB5*%
X30480000Y-8345000D03*
%TO.P,U1,7,MISO*%
%TO.N,PB4*%
X27940000Y-10885000D03*
%TO.P,U1,8,IRQ*%
%TO.N,PA9*%
X30480000Y-10885000D03*
%TD*%
D17*
%TO.P,R4,1*%
%TO.N,OPT_END_WHEEL_LEFT*%
X27940000Y-60230000D03*
D18*
%TO.P,R4,2*%
%TO.N,Net-(J11-Pad4)*%
X17780000Y-60230000D03*
%TD*%
D32*
%TO.N,+5V*%
X81280000Y-24500000D02*
X81280000Y-33400000D01*
X82710000Y-35600000D02*
X81280000Y-34170000D01*
X81280000Y-34170000D02*
X81280000Y-33400000D01*
X82710000Y-48300000D02*
X81280000Y-46870000D01*
X81280000Y-46290000D02*
X81280000Y-37030000D01*
X81280000Y-46870000D02*
X81280000Y-46290000D01*
X81280000Y-59290000D02*
X81280000Y-49730000D01*
X82710000Y-61000000D02*
X81280000Y-59570000D01*
X81280000Y-59570000D02*
X81280000Y-59290000D01*
%TO.N,GND*%
X75090000Y-68620000D02*
X76430000Y-67280000D01*
X76430000Y-57260000D02*
X75090000Y-55920000D01*
X76430000Y-67280000D02*
X76430000Y-57260000D01*
X75090000Y-43220000D02*
X76430000Y-44560000D01*
X76430000Y-44560000D02*
X76430000Y-54580000D01*
X76430000Y-54580000D02*
X75090000Y-55920000D01*
%TO.N,VCC*%
X4990000Y-67410000D02*
X4990000Y-61453599D01*
X7105500Y-69525500D02*
X4990000Y-67410000D01*
X67710000Y-51330000D02*
X67710000Y-60990000D01*
X43615000Y-74095000D02*
X54605000Y-74095000D01*
X43180000Y-73660000D02*
X40100000Y-73660000D01*
X20494499Y-84525501D02*
X26740000Y-78280000D01*
X4550000Y-82010000D02*
X4550000Y-74595500D01*
X67700000Y-61000000D02*
X75090000Y-61000000D01*
X5927701Y-83387701D02*
X4550000Y-82010000D01*
X67710000Y-60990000D02*
X67700000Y-61000000D01*
X54605000Y-74095000D02*
X67700000Y-61000000D01*
X8482200Y-83387701D02*
X5927701Y-83387701D01*
X26740000Y-78280000D02*
X39430000Y-78280000D01*
X43180000Y-78740000D02*
X45720000Y-76200000D01*
X75090000Y-35600000D02*
X72855000Y-35600000D01*
X70740000Y-48300000D02*
X67710000Y-51330000D01*
X75090000Y-48300000D02*
X70740000Y-48300000D01*
X9620000Y-84525501D02*
X20494499Y-84525501D01*
X67710000Y-51330000D02*
X67710000Y-40745000D01*
X72855000Y-35600000D02*
X67710000Y-40745000D01*
X39430000Y-78280000D02*
X43615000Y-74095000D01*
X9620000Y-69525500D02*
X7105500Y-69525500D01*
X9620000Y-84525501D02*
X8482200Y-83387701D01*
X43615000Y-74095000D02*
X43180000Y-73660000D01*
X67710000Y-40745000D02*
X62350000Y-35385000D01*
X43180000Y-81280000D02*
X43180000Y-78740000D01*
X4990000Y-61453599D02*
X9620000Y-56823599D01*
X45720000Y-76200000D02*
X43615000Y-74095000D01*
X4550000Y-74595500D02*
X9620000Y-69525500D01*
%TO.N,Net-(U3-IN)*%
X34290000Y-91440000D02*
X33020000Y-91440000D01*
X38100000Y-87630000D02*
X34290000Y-91440000D01*
X38100000Y-87630000D02*
X38100000Y-81280000D01*
D33*
%TO.N,+24V*%
X83820000Y-91440000D02*
X83820000Y-93470000D01*
D32*
%TO.N,+5V*%
X74330000Y-17550000D02*
X81280000Y-24500000D01*
X81280000Y-49730000D02*
X82710000Y-48300000D01*
X68850000Y-17550000D02*
X74330000Y-17550000D01*
X66100000Y-14800000D02*
X68850000Y-17550000D01*
X58120000Y-81220000D02*
X60420000Y-81220000D01*
X81280000Y-37030000D02*
X82710000Y-35600000D01*
X57950000Y-81050000D02*
X58120000Y-81220000D01*
X66000000Y-73000000D02*
X81280000Y-73000000D01*
X56910000Y-80010000D02*
X57950000Y-81050000D01*
X81280000Y-73000000D02*
X81280000Y-62430000D01*
X81280000Y-62430000D02*
X82710000Y-61000000D01*
X55880000Y-80010000D02*
X56910000Y-80010000D01*
X60420000Y-87630000D02*
X60420000Y-81220000D01*
X57950000Y-81050000D02*
X66000000Y-73000000D01*
D33*
%TO.N,Net-(Q2-G)*%
X81280000Y-85242400D02*
X81280000Y-86360000D01*
X86360000Y-86360000D02*
X81280000Y-86360000D01*
X76200000Y-80162400D02*
X81280000Y-85242400D01*
X81280000Y-91440000D02*
X81280000Y-86360000D01*
%TO.N,Net-(Q2-S)*%
X91440000Y-88262753D02*
X91440000Y-90320000D01*
X90320000Y-91440000D02*
X86360000Y-91440000D01*
X95372753Y-84330000D02*
X91440000Y-88262753D01*
X91440000Y-90320000D02*
X90320000Y-91440000D01*
D32*
X96150000Y-84330000D02*
X95372753Y-84330000D01*
D33*
X96150000Y-84330000D02*
X96150000Y-79250000D01*
D32*
X96150000Y-84330000D02*
X96010000Y-84330000D01*
%TO.N,PA10*%
X27115000Y-5805000D02*
X24850000Y-8070000D01*
X24850000Y-8070000D02*
X24850000Y-13680000D01*
X30580000Y-31555000D02*
X34410000Y-35385000D01*
X30580000Y-19410000D02*
X30580000Y-31555000D01*
X24850000Y-13680000D02*
X30580000Y-19410000D01*
X27940000Y-5805000D02*
X27115000Y-5805000D01*
%TO.N,PA15*%
X25590000Y-8400000D02*
X25590000Y-12790000D01*
X30480000Y-5805000D02*
X29255000Y-7030000D01*
X33130000Y-20330000D02*
X33130000Y-26485000D01*
X26960000Y-7030000D02*
X25590000Y-8400000D01*
X29255000Y-7030000D02*
X26960000Y-7030000D01*
X25590000Y-12790000D02*
X33130000Y-20330000D01*
X33130000Y-26485000D02*
X42030000Y-35385000D01*
%TO.N,PB3*%
X27940000Y-8345000D02*
X26500000Y-9785000D01*
X35670000Y-19310000D02*
X35670000Y-26485000D01*
X26500000Y-12720000D02*
X32300000Y-18520000D01*
X32300000Y-18520000D02*
X34880000Y-18520000D01*
X26500000Y-9785000D02*
X26500000Y-12720000D01*
X35670000Y-26485000D02*
X44570000Y-35385000D01*
X34880000Y-18520000D02*
X35670000Y-19310000D01*
%TO.N,PB5*%
X40760000Y-26495000D02*
X49650000Y-35385000D01*
X40760000Y-18010000D02*
X40760000Y-26495000D01*
X30480000Y-8345000D02*
X31095000Y-8345000D01*
X31095000Y-8345000D02*
X40760000Y-18010000D01*
%TO.N,PB4*%
X33020000Y-17780000D02*
X36830000Y-17780000D01*
X38210000Y-26485000D02*
X47110000Y-35385000D01*
X27940000Y-10885000D02*
X27940000Y-12700000D01*
X27940000Y-12700000D02*
X33020000Y-17780000D01*
X36830000Y-17780000D02*
X38210000Y-19160000D01*
X38210000Y-19160000D02*
X38210000Y-26485000D01*
%TO.N,PA9*%
X31720000Y-6500000D02*
X31720000Y-5240000D01*
X31720000Y-5240000D02*
X30990000Y-4510000D01*
X30480000Y-10885000D02*
X29210000Y-9615000D01*
X23960000Y-7700000D02*
X23960000Y-14200000D01*
X23960000Y-14200000D02*
X28030000Y-18270000D01*
X30990000Y-4510000D02*
X27150000Y-4510000D01*
X27150000Y-4510000D02*
X23960000Y-7700000D01*
X28030000Y-18270000D02*
X28030000Y-31545000D01*
X30030000Y-7070000D02*
X31150000Y-7070000D01*
X31150000Y-7070000D02*
X31720000Y-6500000D01*
X28030000Y-31545000D02*
X31870000Y-35385000D01*
X29210000Y-9615000D02*
X29210000Y-7890000D01*
X29210000Y-7890000D02*
X30030000Y-7070000D01*
%TO.N,Net-(J10-Pad2)*%
X17780000Y-70390000D02*
X13755500Y-70390000D01*
X13755500Y-70390000D02*
X9620000Y-74525500D01*
%TO.N,Net-(J11-Pad1)*%
X12866401Y-50070000D02*
X9620000Y-46823599D01*
X17780000Y-50070000D02*
X12866401Y-50070000D01*
%TO.N,Net-(J11-Pad4)*%
X11213600Y-60230000D02*
X9620000Y-61823600D01*
X17780000Y-60230000D02*
X11213600Y-60230000D01*
%TO.N,HAND_END_LEFT*%
X12040000Y-18350000D02*
X12040000Y-25820000D01*
X21215000Y-27270000D02*
X29330000Y-35385000D01*
X12040000Y-25820000D02*
X13490000Y-27270000D01*
X13490000Y-27270000D02*
X21215000Y-27270000D01*
X9610000Y-15920000D02*
X12040000Y-18350000D01*
%TO.N,HAND_END_RIGHT*%
X9620000Y-28640000D02*
X20045000Y-28640000D01*
X20045000Y-28640000D02*
X26790000Y-35385000D01*
%TO.N,OPT_END_WHEEL_LEFT*%
X52625000Y-40030000D02*
X57270000Y-35385000D01*
X35580000Y-55880000D02*
X37850000Y-53610000D01*
X27940000Y-60230000D02*
X27940000Y-58420000D01*
X43440000Y-40030000D02*
X52625000Y-40030000D01*
X37850000Y-45620000D02*
X43440000Y-40030000D01*
X27940000Y-58420000D02*
X30480000Y-55880000D01*
X30480000Y-55880000D02*
X35580000Y-55880000D01*
X37850000Y-53610000D02*
X37850000Y-45620000D01*
%TO.N,OPT_END_WHEEL_RIGHT*%
X27940000Y-48260000D02*
X30480000Y-45720000D01*
X51645000Y-38470000D02*
X54730000Y-35385000D01*
X35230000Y-45720000D02*
X42480000Y-38470000D01*
X30480000Y-45720000D02*
X35230000Y-45720000D01*
X27940000Y-50070000D02*
X27940000Y-48260000D01*
X42480000Y-38470000D02*
X51645000Y-38470000D01*
%TO.N,OPT_END_DISK*%
X35370000Y-66040000D02*
X39470000Y-61940000D01*
X27940000Y-70390000D02*
X27940000Y-68580000D01*
X39470000Y-61940000D02*
X39470000Y-46510000D01*
X27940000Y-68580000D02*
X30480000Y-66040000D01*
X30480000Y-66040000D02*
X35370000Y-66040000D01*
X39470000Y-46510000D02*
X44450000Y-41530000D01*
X44450000Y-41530000D02*
X53665000Y-41530000D01*
X53665000Y-41530000D02*
X59810000Y-35385000D01*
%TO.N,Net-(IC1-VOUT+)*%
X84670000Y-36180000D02*
X84670000Y-24350000D01*
X89575102Y-19440000D02*
X90430001Y-18585101D01*
X82710000Y-38140000D02*
X84670000Y-36180000D01*
X89575102Y-19444898D02*
X84670000Y-24350000D01*
X89575102Y-19440000D02*
X89575102Y-19444898D01*
%TO.N,Net-(IC1-VOUT-)*%
X86360000Y-27655102D02*
X90430001Y-23585101D01*
X86360000Y-37030000D02*
X86360000Y-27655102D01*
X82710000Y-40680000D02*
X86360000Y-37030000D01*
%TO.N,Net-(IC2-VOUT+)*%
X83685000Y-49865000D02*
X83685000Y-43503302D01*
X83685000Y-43503302D02*
X90430001Y-36758301D01*
X82710000Y-50840000D02*
X83685000Y-49865000D01*
%TO.N,Net-(IC2-VOUT-)*%
X86360000Y-45828302D02*
X90430001Y-41758301D01*
X83780000Y-53380000D02*
X86360000Y-50800000D01*
X82710000Y-53380000D02*
X83780000Y-53380000D01*
X86360000Y-50800000D02*
X86360000Y-45828302D01*
%TO.N,Net-(IC3-VOUT+)*%
X82710000Y-63540000D02*
X90430001Y-55819999D01*
X90430001Y-55819999D02*
X90430001Y-54948301D01*
%TO.N,Net-(IC3-VOUT-)*%
X82710000Y-66080000D02*
X84298302Y-66080000D01*
X84298302Y-66080000D02*
X90430001Y-59948301D01*
%TO.N,Net-(U12-E)*%
X94400000Y-8120000D02*
X95790000Y-9510000D01*
X58480000Y-6860000D02*
X59740000Y-8120000D01*
X59740000Y-8120000D02*
X94400000Y-8120000D01*
%TO.N,Net-(U12-F)*%
X55940000Y-6860000D02*
X61190000Y-12110000D01*
X61190000Y-12110000D02*
X83190000Y-12110000D01*
X83190000Y-12110000D02*
X85790000Y-9510000D01*
%TO.N,+3.3V*%
X21050000Y-12700000D02*
X22850000Y-10900000D01*
X63560000Y-6860000D02*
X59965000Y-3265000D01*
X47265000Y-3265000D02*
X30480000Y-3265000D01*
X24070000Y-5080000D02*
X24520000Y-4630000D01*
X25880000Y-1710000D02*
X28925000Y-1710000D01*
X24250000Y-20810000D02*
X24250000Y-15900000D01*
X24070000Y-3520000D02*
X25880000Y-1710000D01*
X66100000Y-6860000D02*
X62505000Y-3265000D01*
X62505000Y-3265000D02*
X59870000Y-3265000D01*
X24250000Y-15900000D02*
X21050000Y-12700000D01*
X50860000Y-6860000D02*
X47265000Y-3265000D01*
X24070000Y-5080000D02*
X24070000Y-3520000D01*
X59870000Y-3265000D02*
X47265000Y-3265000D01*
X22850000Y-10900000D02*
X22850000Y-6300000D01*
X59965000Y-3265000D02*
X59870000Y-3265000D01*
X28925000Y-1710000D02*
X30480000Y-3265000D01*
X22850000Y-6300000D02*
X24070000Y-5080000D01*
%TO.N,HAND_PWM*%
X55400000Y-4940000D02*
X54730000Y-5610000D01*
X54730000Y-5610000D02*
X54730000Y-20810000D01*
X59100000Y-4940000D02*
X55400000Y-4940000D01*
X61020000Y-6860000D02*
X59100000Y-4940000D01*
%TO.N,HAND_DIR*%
X49610000Y-10650000D02*
X53400000Y-6860000D01*
X49610000Y-15690000D02*
X49610000Y-10650000D01*
X52190000Y-18270000D02*
X49610000Y-15690000D01*
X52190000Y-20810000D02*
X52190000Y-18270000D01*
D34*
%TO.N,Net-(J1-Pad1)*%
X78820000Y-100500000D02*
X71120000Y-100500000D01*
%TD*%
%TA.AperFunction,Conductor*%
%TO.N,+24V*%
G36*
X42906092Y-85579685D02*
G01*
X42951847Y-85632489D01*
X42961791Y-85701647D01*
X42932766Y-85765203D01*
X42873988Y-85802977D01*
X42865411Y-85805166D01*
X42657471Y-85850400D01*
X42409513Y-85942884D01*
X42273992Y-86016884D01*
X42273992Y-86016885D01*
X43180000Y-86922893D01*
X43180001Y-86922893D01*
X44086006Y-86016885D01*
X44086006Y-86016884D01*
X43950486Y-85942884D01*
X43950487Y-85942884D01*
X43702528Y-85850400D01*
X43494589Y-85805166D01*
X43433266Y-85771681D01*
X43399781Y-85710358D01*
X43404765Y-85640666D01*
X43446637Y-85584733D01*
X43512101Y-85560316D01*
X43520947Y-85560000D01*
X56546000Y-85560000D01*
X56613039Y-85579685D01*
X56658794Y-85632489D01*
X56670000Y-85684000D01*
X56670000Y-85793266D01*
X56650315Y-85860305D01*
X56597511Y-85906060D01*
X56528353Y-85916004D01*
X56506997Y-85910972D01*
X56445201Y-85890495D01*
X56445190Y-85890493D01*
X56342486Y-85880000D01*
X55840000Y-85880000D01*
X55840000Y-87399473D01*
X55793558Y-87309844D01*
X55690362Y-87199348D01*
X55561181Y-87120791D01*
X55415596Y-87080000D01*
X55302378Y-87080000D01*
X55190217Y-87095416D01*
X55051542Y-87155651D01*
X54934261Y-87251066D01*
X54847072Y-87374585D01*
X54796441Y-87517047D01*
X54786123Y-87667886D01*
X54816884Y-87815915D01*
X54886442Y-87950156D01*
X54989638Y-88060652D01*
X55118819Y-88139209D01*
X55264404Y-88180000D01*
X55377622Y-88180000D01*
X55489783Y-88164584D01*
X55628458Y-88104349D01*
X55745739Y-88008934D01*
X55832928Y-87885415D01*
X55840000Y-87865516D01*
X55840000Y-89379999D01*
X56342472Y-89379999D01*
X56342486Y-89379998D01*
X56445195Y-89369506D01*
X56506995Y-89349027D01*
X56576823Y-89346625D01*
X56636865Y-89382356D01*
X56668058Y-89444876D01*
X56670000Y-89466733D01*
X56670000Y-91470000D01*
X63679999Y-91470000D01*
X63680000Y-91470000D01*
X63685699Y-90233424D01*
X64813680Y-90233424D01*
X65019547Y-90318697D01*
X65256780Y-90375651D01*
X65256779Y-90375651D01*
X65500000Y-90394792D01*
X65743219Y-90375651D01*
X65980457Y-90318695D01*
X66186318Y-90233424D01*
X65500001Y-89547107D01*
X65500000Y-89547107D01*
X64813680Y-90233424D01*
X63685699Y-90233424D01*
X63692120Y-88840000D01*
X63945207Y-88840000D01*
X63964348Y-89083219D01*
X64021303Y-89320455D01*
X64106574Y-89526318D01*
X64792893Y-88840000D01*
X65095014Y-88840000D01*
X65114835Y-88965148D01*
X65172359Y-89078045D01*
X65261955Y-89167641D01*
X65374852Y-89225165D01*
X65468519Y-89240000D01*
X65531481Y-89240000D01*
X65625148Y-89225165D01*
X65738045Y-89167641D01*
X65827641Y-89078045D01*
X65885165Y-88965148D01*
X65904986Y-88840001D01*
X66207107Y-88840001D01*
X66893424Y-89526318D01*
X66978695Y-89320457D01*
X67035651Y-89083219D01*
X67054792Y-88840000D01*
X67035651Y-88596780D01*
X66978697Y-88359547D01*
X66893424Y-88153680D01*
X66207107Y-88839999D01*
X66207107Y-88840001D01*
X65904986Y-88840001D01*
X65904986Y-88840000D01*
X65885165Y-88714852D01*
X65827641Y-88601955D01*
X65738045Y-88512359D01*
X65625148Y-88454835D01*
X65531481Y-88440000D01*
X65468519Y-88440000D01*
X65374852Y-88454835D01*
X65261955Y-88512359D01*
X65172359Y-88601955D01*
X65114835Y-88714852D01*
X65095014Y-88840000D01*
X64792893Y-88840000D01*
X64792893Y-88839999D01*
X64106574Y-88153680D01*
X64021303Y-88359544D01*
X63964348Y-88596780D01*
X63945207Y-88840000D01*
X63692120Y-88840000D01*
X63699431Y-87253428D01*
X63719425Y-87186481D01*
X63772439Y-87140969D01*
X63823430Y-87130000D01*
X64954569Y-87130000D01*
X65021608Y-87149685D01*
X65067363Y-87202489D01*
X65077307Y-87271647D01*
X65048282Y-87335203D01*
X65002022Y-87368561D01*
X64813680Y-87446574D01*
X65500000Y-88132893D01*
X65500001Y-88132893D01*
X66186318Y-87446574D01*
X65997977Y-87368561D01*
X65943574Y-87324720D01*
X65921509Y-87258426D01*
X65938788Y-87190727D01*
X65989925Y-87143116D01*
X66045430Y-87130000D01*
X68625526Y-87130000D01*
X68692565Y-87149685D01*
X68738320Y-87202489D01*
X68749524Y-87254472D01*
X68748792Y-87446574D01*
X68729999Y-92370000D01*
X68730000Y-92369999D01*
X68730000Y-92370000D01*
X73900000Y-92360000D01*
X73900000Y-91660600D01*
X74624501Y-91660600D01*
X74624501Y-92036086D01*
X74634994Y-92138797D01*
X74690141Y-92305219D01*
X74690143Y-92305224D01*
X74782184Y-92454445D01*
X74906154Y-92578415D01*
X75055375Y-92670456D01*
X75055380Y-92670458D01*
X75221802Y-92725605D01*
X75221809Y-92725606D01*
X75324519Y-92736099D01*
X75699999Y-92736099D01*
X75700000Y-92736098D01*
X75700000Y-91660600D01*
X74624501Y-91660600D01*
X73900000Y-91660600D01*
X73900000Y-89634000D01*
X73919685Y-89566961D01*
X73972489Y-89521206D01*
X74024000Y-89510000D01*
X74846319Y-89510000D01*
X74913358Y-89529685D01*
X74959113Y-89582489D01*
X74969057Y-89651647D01*
X74940032Y-89715203D01*
X74911416Y-89739538D01*
X74906159Y-89742780D01*
X74906155Y-89742783D01*
X74782184Y-89866754D01*
X74690143Y-90015975D01*
X74690141Y-90015980D01*
X74634994Y-90182402D01*
X74634993Y-90182409D01*
X74624500Y-90285113D01*
X74624500Y-90660600D01*
X75913707Y-90660600D01*
X75911785Y-90661396D01*
X75792402Y-90753002D01*
X75700796Y-90872384D01*
X75643210Y-91011409D01*
X75623569Y-91160600D01*
X75643210Y-91309791D01*
X75700796Y-91448815D01*
X75792402Y-91568198D01*
X75911785Y-91659804D01*
X76050809Y-91717390D01*
X76162545Y-91732100D01*
X76237455Y-91732100D01*
X76349191Y-91717390D01*
X76488215Y-91659804D01*
X76607598Y-91568198D01*
X76699204Y-91448816D01*
X76700000Y-91446894D01*
X76700000Y-92736099D01*
X77075472Y-92736099D01*
X77075486Y-92736098D01*
X77178197Y-92725605D01*
X77344619Y-92670458D01*
X77344624Y-92670456D01*
X77493845Y-92578415D01*
X77617815Y-92454445D01*
X77700461Y-92320456D01*
X77752409Y-92273732D01*
X77821372Y-92262509D01*
X77885454Y-92290353D01*
X77924310Y-92348422D01*
X77930000Y-92385553D01*
X77930000Y-93510000D01*
X82660000Y-93490000D01*
X82660215Y-93420095D01*
X82680104Y-93353120D01*
X82726797Y-93310574D01*
X82785907Y-93279698D01*
X82943609Y-93151109D01*
X82997431Y-93085100D01*
X83055048Y-93045586D01*
X83124886Y-93043494D01*
X83144255Y-93050314D01*
X83242827Y-93094503D01*
X83242828Y-93094504D01*
X83320000Y-93115710D01*
X83320000Y-91670526D01*
X83366442Y-91760156D01*
X83469638Y-91870652D01*
X83598819Y-91949209D01*
X83744404Y-91990000D01*
X83857622Y-91990000D01*
X83969783Y-91974584D01*
X84108458Y-91914349D01*
X84225739Y-91818934D01*
X84312928Y-91695415D01*
X84320000Y-91675516D01*
X84320000Y-93116896D01*
X84518484Y-93045611D01*
X84748147Y-92920724D01*
X84785020Y-92892617D01*
X84850269Y-92867630D01*
X84918669Y-92881886D01*
X84968504Y-92930858D01*
X84984194Y-92991494D01*
X84980260Y-94856367D01*
X84960434Y-94923364D01*
X84907533Y-94969008D01*
X84856366Y-94980105D01*
X61620000Y-95000000D01*
X61620000Y-109875500D01*
X61600315Y-109942539D01*
X61547511Y-109988294D01*
X61496000Y-109999500D01*
X11344000Y-109999500D01*
X11276961Y-109979815D01*
X11231206Y-109927011D01*
X11220000Y-109875500D01*
X11220000Y-101903220D01*
X14623884Y-101903220D01*
X14835579Y-101990908D01*
X15074771Y-102048332D01*
X15074770Y-102048332D01*
X15320000Y-102067631D01*
X15565229Y-102048332D01*
X15804417Y-101990909D01*
X16016114Y-101903220D01*
X15320001Y-101207107D01*
X15320000Y-101207107D01*
X14623884Y-101903220D01*
X11220000Y-101903220D01*
X11220000Y-100500000D01*
X13752368Y-100500000D01*
X13771667Y-100745229D01*
X13829091Y-100984420D01*
X13916778Y-101196114D01*
X14574401Y-100538492D01*
X14757261Y-100538492D01*
X14788514Y-100688890D01*
X14859185Y-100825279D01*
X14964032Y-100937543D01*
X15095280Y-101017357D01*
X15243195Y-101058800D01*
X15358225Y-101058800D01*
X15472180Y-101043137D01*
X15613073Y-100981939D01*
X15732231Y-100884997D01*
X15820815Y-100759502D01*
X15872256Y-100614760D01*
X15880106Y-100500001D01*
X16027107Y-100500001D01*
X16723220Y-101196114D01*
X16810909Y-100984417D01*
X16868332Y-100745229D01*
X16887631Y-100500004D01*
X18501615Y-100500004D01*
X18521923Y-100771006D01*
X18521924Y-100771011D01*
X18582397Y-101035964D01*
X18582399Y-101035973D01*
X18582401Y-101035978D01*
X18681692Y-101288968D01*
X18817580Y-101524333D01*
X18954443Y-101695955D01*
X18987032Y-101736820D01*
X19100912Y-101842484D01*
X19186255Y-101921671D01*
X19410808Y-102074768D01*
X19655665Y-102192685D01*
X19655666Y-102192685D01*
X19655669Y-102192687D01*
X19915371Y-102272794D01*
X19915372Y-102272794D01*
X19915375Y-102272795D01*
X20184104Y-102313299D01*
X20184109Y-102313299D01*
X20184112Y-102313300D01*
X20184113Y-102313300D01*
X20455887Y-102313300D01*
X20455888Y-102313300D01*
X20455895Y-102313299D01*
X20724624Y-102272795D01*
X20724625Y-102272794D01*
X20724629Y-102272794D01*
X20984331Y-102192687D01*
X21229193Y-102074768D01*
X21453745Y-101921671D01*
X21473630Y-101903220D01*
X27323884Y-101903220D01*
X27535579Y-101990908D01*
X27774771Y-102048332D01*
X27774770Y-102048332D01*
X28020000Y-102067631D01*
X28265229Y-102048332D01*
X28504417Y-101990909D01*
X28716114Y-101903220D01*
X28020001Y-101207107D01*
X28020000Y-101207107D01*
X27323884Y-101903220D01*
X21473630Y-101903220D01*
X21652971Y-101736816D01*
X21822420Y-101524333D01*
X21958308Y-101288968D01*
X22057599Y-101035978D01*
X22118075Y-100771016D01*
X22119575Y-100751006D01*
X22138385Y-100500004D01*
X22138385Y-100500000D01*
X26452368Y-100500000D01*
X26471667Y-100745229D01*
X26529091Y-100984420D01*
X26616778Y-101196114D01*
X27274401Y-100538492D01*
X27457261Y-100538492D01*
X27488514Y-100688890D01*
X27559185Y-100825279D01*
X27664032Y-100937543D01*
X27795280Y-101017357D01*
X27943195Y-101058800D01*
X28058225Y-101058800D01*
X28172180Y-101043137D01*
X28313073Y-100981939D01*
X28432231Y-100884997D01*
X28520815Y-100759502D01*
X28572256Y-100614760D01*
X28580106Y-100500000D01*
X28727107Y-100500000D01*
X29423220Y-101196113D01*
X29510909Y-100984417D01*
X29568332Y-100745229D01*
X29587631Y-100500004D01*
X31201615Y-100500004D01*
X31221923Y-100771006D01*
X31221924Y-100771011D01*
X31282397Y-101035964D01*
X31282399Y-101035973D01*
X31282401Y-101035978D01*
X31381692Y-101288968D01*
X31517580Y-101524333D01*
X31654443Y-101695955D01*
X31687032Y-101736820D01*
X31800912Y-101842484D01*
X31886255Y-101921671D01*
X32110808Y-102074768D01*
X32355665Y-102192685D01*
X32355666Y-102192685D01*
X32355669Y-102192687D01*
X32615371Y-102272794D01*
X32615372Y-102272794D01*
X32615375Y-102272795D01*
X32884104Y-102313299D01*
X32884109Y-102313299D01*
X32884112Y-102313300D01*
X32884113Y-102313300D01*
X33155887Y-102313300D01*
X33155888Y-102313300D01*
X33155895Y-102313299D01*
X33424624Y-102272795D01*
X33424625Y-102272794D01*
X33424629Y-102272794D01*
X33684331Y-102192687D01*
X33929193Y-102074768D01*
X34153745Y-101921671D01*
X34173630Y-101903220D01*
X40023884Y-101903220D01*
X40235579Y-101990908D01*
X40474771Y-102048332D01*
X40474770Y-102048332D01*
X40720000Y-102067631D01*
X40965229Y-102048332D01*
X41204417Y-101990909D01*
X41416114Y-101903220D01*
X40720001Y-101207107D01*
X40720000Y-101207107D01*
X40023884Y-101903220D01*
X34173630Y-101903220D01*
X34352971Y-101736816D01*
X34522420Y-101524333D01*
X34658308Y-101288968D01*
X34757599Y-101035978D01*
X34818075Y-100771016D01*
X34819575Y-100751006D01*
X34838385Y-100500004D01*
X34838385Y-100500000D01*
X39152368Y-100500000D01*
X39171667Y-100745229D01*
X39229091Y-100984420D01*
X39316778Y-101196114D01*
X39974401Y-100538492D01*
X40157261Y-100538492D01*
X40188514Y-100688890D01*
X40259185Y-100825279D01*
X40364032Y-100937543D01*
X40495280Y-101017357D01*
X40643195Y-101058800D01*
X40758225Y-101058800D01*
X40872180Y-101043137D01*
X41013073Y-100981939D01*
X41132231Y-100884997D01*
X41220815Y-100759502D01*
X41272256Y-100614760D01*
X41280106Y-100500000D01*
X41427107Y-100500000D01*
X42123220Y-101196113D01*
X42210909Y-100984417D01*
X42268332Y-100745229D01*
X42287631Y-100500004D01*
X43901615Y-100500004D01*
X43921923Y-100771006D01*
X43921924Y-100771011D01*
X43982397Y-101035964D01*
X43982399Y-101035973D01*
X43982401Y-101035978D01*
X44081692Y-101288968D01*
X44217580Y-101524333D01*
X44354443Y-101695955D01*
X44387032Y-101736820D01*
X44500912Y-101842484D01*
X44586255Y-101921671D01*
X44810808Y-102074768D01*
X45055665Y-102192685D01*
X45055666Y-102192685D01*
X45055669Y-102192687D01*
X45315371Y-102272794D01*
X45315372Y-102272794D01*
X45315375Y-102272795D01*
X45584104Y-102313299D01*
X45584109Y-102313299D01*
X45584112Y-102313300D01*
X45584113Y-102313300D01*
X45855887Y-102313300D01*
X45855888Y-102313300D01*
X45855895Y-102313299D01*
X46124624Y-102272795D01*
X46124625Y-102272794D01*
X46124629Y-102272794D01*
X46384331Y-102192687D01*
X46629193Y-102074768D01*
X46853745Y-101921671D01*
X47052971Y-101736816D01*
X47222420Y-101524333D01*
X47358308Y-101288968D01*
X47457599Y-101035978D01*
X47518075Y-100771016D01*
X47519575Y-100751006D01*
X47538385Y-100500004D01*
X47538385Y-100499995D01*
X47536887Y-100480004D01*
X51611615Y-100480004D01*
X51631923Y-100751006D01*
X51631924Y-100751011D01*
X51692397Y-101015964D01*
X51692399Y-101015973D01*
X51692401Y-101015978D01*
X51791692Y-101268968D01*
X51927580Y-101504333D01*
X52064443Y-101675955D01*
X52097032Y-101716820D01*
X52213982Y-101825333D01*
X52296255Y-101901671D01*
X52520808Y-102054768D01*
X52765665Y-102172685D01*
X52765666Y-102172685D01*
X52765669Y-102172687D01*
X53025371Y-102252794D01*
X53025372Y-102252794D01*
X53025375Y-102252795D01*
X53294104Y-102293299D01*
X53294109Y-102293299D01*
X53294112Y-102293300D01*
X53294113Y-102293300D01*
X53565887Y-102293300D01*
X53565888Y-102293300D01*
X53565895Y-102293299D01*
X53834624Y-102252795D01*
X53834625Y-102252794D01*
X53834629Y-102252794D01*
X54094331Y-102172687D01*
X54297656Y-102074771D01*
X54339185Y-102054772D01*
X54339185Y-102054771D01*
X54339193Y-102054768D01*
X54563745Y-101901671D01*
X54583630Y-101883220D01*
X57733884Y-101883220D01*
X57945579Y-101970908D01*
X58184771Y-102028332D01*
X58184770Y-102028332D01*
X58430000Y-102047631D01*
X58675229Y-102028332D01*
X58914417Y-101970909D01*
X59126114Y-101883220D01*
X58430001Y-101187107D01*
X58430000Y-101187107D01*
X57733884Y-101883220D01*
X54583630Y-101883220D01*
X54762971Y-101716816D01*
X54932420Y-101504333D01*
X55068308Y-101268968D01*
X55167599Y-101015978D01*
X55228075Y-100751016D01*
X55228938Y-100739502D01*
X55248385Y-100480004D01*
X55248385Y-100480000D01*
X56862368Y-100480000D01*
X56881667Y-100725229D01*
X56939091Y-100964420D01*
X57026778Y-101176114D01*
X57684401Y-100518492D01*
X57867261Y-100518492D01*
X57898514Y-100668890D01*
X57969185Y-100805279D01*
X58074032Y-100917543D01*
X58205280Y-100997357D01*
X58353195Y-101038800D01*
X58468225Y-101038800D01*
X58582180Y-101023137D01*
X58723073Y-100961939D01*
X58842231Y-100864997D01*
X58930815Y-100739502D01*
X58982256Y-100594760D01*
X58990106Y-100480000D01*
X59137107Y-100480000D01*
X59833220Y-101176113D01*
X59920909Y-100964417D01*
X59978332Y-100725229D01*
X59997631Y-100480000D01*
X59978332Y-100234770D01*
X59920908Y-99995579D01*
X59833220Y-99783884D01*
X59137107Y-100479999D01*
X59137107Y-100480000D01*
X58990106Y-100480000D01*
X58992739Y-100441508D01*
X58961486Y-100291110D01*
X58890815Y-100154721D01*
X58785968Y-100042457D01*
X58654720Y-99962643D01*
X58506805Y-99921200D01*
X58391775Y-99921200D01*
X58277820Y-99936863D01*
X58136927Y-99998061D01*
X58017769Y-100095003D01*
X57929185Y-100220498D01*
X57877744Y-100365240D01*
X57867261Y-100518492D01*
X57684401Y-100518492D01*
X57722893Y-100480000D01*
X57722893Y-100479999D01*
X57026778Y-99783884D01*
X56939091Y-99995579D01*
X56881667Y-100234770D01*
X56862368Y-100480000D01*
X55248385Y-100480000D01*
X55248385Y-100479995D01*
X55228076Y-100208993D01*
X55228075Y-100208988D01*
X55228075Y-100208984D01*
X55167599Y-99944022D01*
X55068308Y-99691032D01*
X54932420Y-99455667D01*
X54762971Y-99243184D01*
X54762970Y-99243183D01*
X54762967Y-99243179D01*
X54583628Y-99076778D01*
X57733884Y-99076778D01*
X58430000Y-99772893D01*
X58430001Y-99772893D01*
X59126114Y-99076778D01*
X58914420Y-98989091D01*
X58675228Y-98931667D01*
X58675229Y-98931667D01*
X58430000Y-98912368D01*
X58184770Y-98931667D01*
X57945579Y-98989091D01*
X57733884Y-99076778D01*
X54583628Y-99076778D01*
X54563745Y-99058329D01*
X54491526Y-99009091D01*
X54339193Y-98905232D01*
X54339189Y-98905230D01*
X54339186Y-98905228D01*
X54339185Y-98905227D01*
X54094333Y-98787314D01*
X54094335Y-98787314D01*
X53834630Y-98707206D01*
X53834624Y-98707204D01*
X53565895Y-98666700D01*
X53565888Y-98666700D01*
X53294112Y-98666700D01*
X53294104Y-98666700D01*
X53025375Y-98707204D01*
X53025369Y-98707206D01*
X52765665Y-98787314D01*
X52520816Y-98905227D01*
X52520807Y-98905232D01*
X52296257Y-99058327D01*
X52097032Y-99243179D01*
X51927580Y-99455667D01*
X51791692Y-99691031D01*
X51692403Y-99944016D01*
X51692397Y-99944035D01*
X51631924Y-100208988D01*
X51631923Y-100208993D01*
X51611615Y-100479995D01*
X51611615Y-100480004D01*
X47536887Y-100480004D01*
X47518076Y-100228993D01*
X47518075Y-100228988D01*
X47518075Y-100228984D01*
X47457599Y-99964022D01*
X47358308Y-99711032D01*
X47222420Y-99475667D01*
X47052971Y-99263184D01*
X47052970Y-99263183D01*
X47052967Y-99263179D01*
X46853745Y-99078329D01*
X46824407Y-99058327D01*
X46629193Y-98925232D01*
X46629189Y-98925230D01*
X46629186Y-98925228D01*
X46629185Y-98925227D01*
X46384333Y-98807314D01*
X46384335Y-98807314D01*
X46124630Y-98727206D01*
X46124624Y-98727204D01*
X45855895Y-98686700D01*
X45855888Y-98686700D01*
X45584112Y-98686700D01*
X45584104Y-98686700D01*
X45315375Y-98727204D01*
X45315369Y-98727206D01*
X45055665Y-98807314D01*
X44810816Y-98925227D01*
X44810807Y-98925232D01*
X44586257Y-99078327D01*
X44387032Y-99263179D01*
X44217580Y-99475667D01*
X44081692Y-99711031D01*
X43982403Y-99964016D01*
X43982397Y-99964035D01*
X43921924Y-100228988D01*
X43921923Y-100228993D01*
X43901615Y-100499995D01*
X43901615Y-100500004D01*
X42287631Y-100500004D01*
X42287631Y-100500000D01*
X42268332Y-100254770D01*
X42210908Y-100015579D01*
X42123220Y-99803884D01*
X41427107Y-100499999D01*
X41427107Y-100500000D01*
X41280106Y-100500000D01*
X41282739Y-100461508D01*
X41251486Y-100311110D01*
X41180815Y-100174721D01*
X41075968Y-100062457D01*
X40944720Y-99982643D01*
X40796805Y-99941200D01*
X40681775Y-99941200D01*
X40567820Y-99956863D01*
X40426927Y-100018061D01*
X40307769Y-100115003D01*
X40219185Y-100240498D01*
X40167744Y-100385240D01*
X40157261Y-100538492D01*
X39974401Y-100538492D01*
X40012893Y-100500000D01*
X40012893Y-100499999D01*
X39316778Y-99803884D01*
X39229091Y-100015579D01*
X39171667Y-100254770D01*
X39152368Y-100500000D01*
X34838385Y-100500000D01*
X34838385Y-100499995D01*
X34818076Y-100228993D01*
X34818075Y-100228988D01*
X34818075Y-100228984D01*
X34757599Y-99964022D01*
X34658308Y-99711032D01*
X34522420Y-99475667D01*
X34352971Y-99263184D01*
X34352970Y-99263183D01*
X34352967Y-99263179D01*
X34173628Y-99096778D01*
X40023884Y-99096778D01*
X40720000Y-99792893D01*
X40720001Y-99792893D01*
X41416114Y-99096778D01*
X41204420Y-99009091D01*
X40965228Y-98951667D01*
X40965229Y-98951667D01*
X40720000Y-98932368D01*
X40474770Y-98951667D01*
X40235579Y-99009091D01*
X40023884Y-99096778D01*
X34173628Y-99096778D01*
X34153745Y-99078329D01*
X34124407Y-99058327D01*
X33929193Y-98925232D01*
X33929189Y-98925230D01*
X33929186Y-98925228D01*
X33929185Y-98925227D01*
X33684333Y-98807314D01*
X33684335Y-98807314D01*
X33424630Y-98727206D01*
X33424624Y-98727204D01*
X33155895Y-98686700D01*
X33155888Y-98686700D01*
X32884112Y-98686700D01*
X32884104Y-98686700D01*
X32615375Y-98727204D01*
X32615369Y-98727206D01*
X32355665Y-98807314D01*
X32110816Y-98925227D01*
X32110807Y-98925232D01*
X31886257Y-99078327D01*
X31687032Y-99263179D01*
X31517580Y-99475667D01*
X31381692Y-99711031D01*
X31282403Y-99964016D01*
X31282397Y-99964035D01*
X31221924Y-100228988D01*
X31221923Y-100228993D01*
X31201615Y-100499995D01*
X31201615Y-100500004D01*
X29587631Y-100500004D01*
X29587631Y-100500000D01*
X29568332Y-100254770D01*
X29510908Y-100015579D01*
X29423220Y-99803884D01*
X28727107Y-100499999D01*
X28727107Y-100500000D01*
X28580106Y-100500000D01*
X28582739Y-100461508D01*
X28551486Y-100311110D01*
X28480815Y-100174721D01*
X28375968Y-100062457D01*
X28244720Y-99982643D01*
X28096805Y-99941200D01*
X27981775Y-99941200D01*
X27867820Y-99956863D01*
X27726927Y-100018061D01*
X27607769Y-100115003D01*
X27519185Y-100240498D01*
X27467744Y-100385240D01*
X27457261Y-100538492D01*
X27274401Y-100538492D01*
X27312893Y-100500000D01*
X27312893Y-100499999D01*
X26616778Y-99803884D01*
X26529091Y-100015579D01*
X26471667Y-100254770D01*
X26452368Y-100500000D01*
X22138385Y-100500000D01*
X22138385Y-100499995D01*
X22118076Y-100228993D01*
X22118075Y-100228988D01*
X22118075Y-100228984D01*
X22057599Y-99964022D01*
X21958308Y-99711032D01*
X21822420Y-99475667D01*
X21652971Y-99263184D01*
X21652970Y-99263183D01*
X21652967Y-99263179D01*
X21473628Y-99096778D01*
X27323884Y-99096778D01*
X28020000Y-99792893D01*
X28020001Y-99792893D01*
X28716114Y-99096778D01*
X28504420Y-99009091D01*
X28265228Y-98951667D01*
X28265229Y-98951667D01*
X28020000Y-98932368D01*
X27774770Y-98951667D01*
X27535579Y-99009091D01*
X27323884Y-99096778D01*
X21473628Y-99096778D01*
X21453745Y-99078329D01*
X21424407Y-99058327D01*
X21229193Y-98925232D01*
X21229189Y-98925230D01*
X21229186Y-98925228D01*
X21229185Y-98925227D01*
X20984333Y-98807314D01*
X20984335Y-98807314D01*
X20724630Y-98727206D01*
X20724624Y-98727204D01*
X20455895Y-98686700D01*
X20455888Y-98686700D01*
X20184112Y-98686700D01*
X20184104Y-98686700D01*
X19915375Y-98727204D01*
X19915369Y-98727206D01*
X19655665Y-98807314D01*
X19410816Y-98925227D01*
X19410807Y-98925232D01*
X19186257Y-99078327D01*
X18987032Y-99263179D01*
X18817580Y-99475667D01*
X18681692Y-99711031D01*
X18582403Y-99964016D01*
X18582397Y-99964035D01*
X18521924Y-100228988D01*
X18521923Y-100228993D01*
X18501615Y-100499995D01*
X18501615Y-100500004D01*
X16887631Y-100500004D01*
X16887631Y-100500000D01*
X16868332Y-100254770D01*
X16810908Y-100015579D01*
X16723220Y-99803884D01*
X16027107Y-100499999D01*
X16027107Y-100500001D01*
X15880106Y-100500001D01*
X15882739Y-100461508D01*
X15851486Y-100311110D01*
X15780815Y-100174721D01*
X15675968Y-100062457D01*
X15544720Y-99982643D01*
X15396805Y-99941200D01*
X15281775Y-99941200D01*
X15167820Y-99956863D01*
X15026927Y-100018061D01*
X14907769Y-100115003D01*
X14819185Y-100240498D01*
X14767744Y-100385240D01*
X14757261Y-100538492D01*
X14574401Y-100538492D01*
X14612893Y-100500000D01*
X14612893Y-100499999D01*
X13916778Y-99803884D01*
X13829091Y-100015579D01*
X13771667Y-100254770D01*
X13752368Y-100500000D01*
X11220000Y-100500000D01*
X11220000Y-99096778D01*
X14623884Y-99096778D01*
X15320000Y-99792893D01*
X15320001Y-99792893D01*
X16016114Y-99096778D01*
X15804420Y-99009091D01*
X15565228Y-98951667D01*
X15565229Y-98951667D01*
X15320000Y-98932368D01*
X15074770Y-98951667D01*
X14835579Y-99009091D01*
X14623884Y-99096778D01*
X11220000Y-99096778D01*
X11220000Y-94763834D01*
X11239685Y-94696795D01*
X11292489Y-94651040D01*
X11343830Y-94639835D01*
X41240000Y-94600000D01*
X41240000Y-89243114D01*
X42273991Y-89243114D01*
X42409518Y-89317117D01*
X42657471Y-89409599D01*
X42916039Y-89465847D01*
X43179999Y-89484726D01*
X43180001Y-89484726D01*
X43443960Y-89465847D01*
X43702528Y-89409599D01*
X43950484Y-89317116D01*
X44086007Y-89243114D01*
X43180000Y-88337107D01*
X42273991Y-89243114D01*
X41240000Y-89243114D01*
X41240000Y-88409763D01*
X41259685Y-88342724D01*
X41312489Y-88296969D01*
X41381647Y-88287025D01*
X41445203Y-88316050D01*
X41480182Y-88366430D01*
X41492882Y-88400482D01*
X41492884Y-88400486D01*
X41566884Y-88536006D01*
X41566885Y-88536006D01*
X42435007Y-87667886D01*
X42626123Y-87667886D01*
X42656884Y-87815915D01*
X42726442Y-87950156D01*
X42829638Y-88060652D01*
X42958819Y-88139209D01*
X43104404Y-88180000D01*
X43217622Y-88180000D01*
X43329783Y-88164584D01*
X43468458Y-88104349D01*
X43585739Y-88008934D01*
X43672928Y-87885415D01*
X43723559Y-87742953D01*
X43731285Y-87630000D01*
X43887107Y-87630000D01*
X44793114Y-88536007D01*
X44867116Y-88400484D01*
X44959599Y-88152528D01*
X44964500Y-88130000D01*
X53637501Y-88130000D01*
X53637501Y-88679986D01*
X53647994Y-88782697D01*
X53703141Y-88949119D01*
X53703143Y-88949124D01*
X53795184Y-89098345D01*
X53919154Y-89222315D01*
X54068375Y-89314356D01*
X54068380Y-89314358D01*
X54234802Y-89369505D01*
X54234809Y-89369506D01*
X54337519Y-89379999D01*
X54839999Y-89379999D01*
X54840000Y-89379998D01*
X54840000Y-88130000D01*
X53637501Y-88130000D01*
X44964500Y-88130000D01*
X45015847Y-87893960D01*
X45034726Y-87630001D01*
X45034726Y-87629998D01*
X45015847Y-87366039D01*
X44964500Y-87130000D01*
X53637500Y-87130000D01*
X54840000Y-87130000D01*
X54840000Y-85880000D01*
X54337528Y-85880000D01*
X54337512Y-85880001D01*
X54234802Y-85890494D01*
X54068380Y-85945641D01*
X54068375Y-85945643D01*
X53919154Y-86037684D01*
X53795184Y-86161654D01*
X53703143Y-86310875D01*
X53703141Y-86310880D01*
X53647994Y-86477302D01*
X53647993Y-86477309D01*
X53637500Y-86580013D01*
X53637500Y-87130000D01*
X44964500Y-87130000D01*
X44959599Y-87107471D01*
X44867117Y-86859519D01*
X44867117Y-86859518D01*
X44793114Y-86723991D01*
X43887107Y-87629999D01*
X43887107Y-87630000D01*
X43731285Y-87630000D01*
X43733877Y-87592114D01*
X43703116Y-87444085D01*
X43633558Y-87309844D01*
X43530362Y-87199348D01*
X43401181Y-87120791D01*
X43255596Y-87080000D01*
X43142378Y-87080000D01*
X43030217Y-87095416D01*
X42891542Y-87155651D01*
X42774261Y-87251066D01*
X42687072Y-87374585D01*
X42636441Y-87517047D01*
X42626123Y-87667886D01*
X42435007Y-87667886D01*
X42472893Y-87630000D01*
X41566885Y-86723992D01*
X41566884Y-86723992D01*
X41492884Y-86859513D01*
X41480182Y-86893570D01*
X41438310Y-86949503D01*
X41372846Y-86973920D01*
X41304573Y-86959068D01*
X41255168Y-86909663D01*
X41240000Y-86850236D01*
X41240000Y-85684000D01*
X41259685Y-85616961D01*
X41312489Y-85571206D01*
X41364000Y-85560000D01*
X42839053Y-85560000D01*
X42906092Y-85579685D01*
G37*
%TD.AperFunction*%
%TA.AperFunction,Conductor*%
G36*
X84263039Y-90959685D02*
G01*
X84308794Y-91012489D01*
X84320000Y-91064000D01*
X84320000Y-91209473D01*
X84273558Y-91119844D01*
X84170362Y-91009348D01*
X84056324Y-90940000D01*
X84196000Y-90940000D01*
X84263039Y-90959685D01*
G37*
%TD.AperFunction*%
%TA.AperFunction,Conductor*%
G36*
X83531542Y-90965651D02*
G01*
X83414261Y-91061066D01*
X83327072Y-91184585D01*
X83320000Y-91204483D01*
X83320000Y-91064000D01*
X83339685Y-90996961D01*
X83392489Y-90951206D01*
X83444000Y-90940000D01*
X83590597Y-90940000D01*
X83531542Y-90965651D01*
G37*
%TD.AperFunction*%
%TA.AperFunction,Conductor*%
G36*
X76643039Y-90680285D02*
G01*
X76688794Y-90733089D01*
X76700000Y-90784600D01*
X76700000Y-90874306D01*
X76699204Y-90872385D01*
X76607598Y-90753002D01*
X76488215Y-90661396D01*
X76486293Y-90660600D01*
X76576000Y-90660600D01*
X76643039Y-90680285D01*
G37*
%TD.AperFunction*%
%TD*%
%TA.AperFunction,Conductor*%
%TO.N,/BAT_SW*%
G36*
X95024213Y-89039973D02*
G01*
X95154183Y-89225590D01*
X95314410Y-89385817D01*
X95500027Y-89515787D01*
X95657764Y-89589341D01*
X94769747Y-90477357D01*
X94769748Y-90477358D01*
X94807777Y-90504988D01*
X94807796Y-90505000D01*
X95083447Y-90656540D01*
X95083455Y-90656544D01*
X95375926Y-90772341D01*
X95522191Y-90809896D01*
X95582229Y-90845634D01*
X95613414Y-90908158D01*
X95605846Y-90977617D01*
X95561927Y-91031957D01*
X95522191Y-91050104D01*
X95375926Y-91087658D01*
X95083455Y-91203455D01*
X95083447Y-91203459D01*
X94807787Y-91355004D01*
X94807784Y-91355006D01*
X94769748Y-91382640D01*
X94769748Y-91382641D01*
X95657765Y-92270658D01*
X95500027Y-92344213D01*
X95314410Y-92474183D01*
X95154183Y-92634410D01*
X95024213Y-92820026D01*
X94950658Y-92977764D01*
X94064083Y-92091190D01*
X93954903Y-92263232D01*
X93954900Y-92263238D01*
X93820965Y-92547862D01*
X93820963Y-92547867D01*
X93723755Y-92847041D01*
X93664808Y-93156050D01*
X93664807Y-93156057D01*
X93647755Y-93427109D01*
X93632422Y-93469317D01*
X93642977Y-93485741D01*
X93647755Y-93512890D01*
X93664807Y-93783942D01*
X93664808Y-93783949D01*
X93723755Y-94092958D01*
X93820963Y-94392132D01*
X93820965Y-94392137D01*
X93954900Y-94676761D01*
X93954905Y-94676771D01*
X94064083Y-94848807D01*
X94064084Y-94848808D01*
X94950657Y-93962234D01*
X95024213Y-94119973D01*
X95154183Y-94305590D01*
X95314410Y-94465817D01*
X95500027Y-94595787D01*
X95657764Y-94669341D01*
X94769747Y-95557357D01*
X94769748Y-95557358D01*
X94807777Y-95584988D01*
X94807796Y-95585000D01*
X95083447Y-95736540D01*
X95083455Y-95736544D01*
X95375926Y-95852340D01*
X95680620Y-95930573D01*
X95680629Y-95930575D01*
X95992701Y-95969999D01*
X95992715Y-95970000D01*
X96307285Y-95970000D01*
X96307298Y-95969999D01*
X96619370Y-95930575D01*
X96619379Y-95930573D01*
X96924073Y-95852340D01*
X97216544Y-95736544D01*
X97216545Y-95736543D01*
X97492216Y-95584991D01*
X97492222Y-95584988D01*
X97530250Y-95557358D01*
X97530250Y-95557357D01*
X96642234Y-94669341D01*
X96799973Y-94595787D01*
X96985590Y-94465817D01*
X97145817Y-94305590D01*
X97275787Y-94119974D01*
X97349341Y-93962235D01*
X98235914Y-94848808D01*
X98235915Y-94848807D01*
X98345092Y-94676773D01*
X98345103Y-94676754D01*
X98479034Y-94392137D01*
X98479036Y-94392132D01*
X98576244Y-94092958D01*
X98635191Y-93783949D01*
X98635192Y-93783942D01*
X98654943Y-93470005D01*
X98654943Y-93469994D01*
X98635192Y-93156057D01*
X98635191Y-93156050D01*
X98576244Y-92847041D01*
X98479036Y-92547867D01*
X98479034Y-92547862D01*
X98345099Y-92263237D01*
X98345091Y-92263222D01*
X98235915Y-92091191D01*
X97349341Y-92977764D01*
X97275787Y-92820027D01*
X97145817Y-92634410D01*
X96985590Y-92474183D01*
X96799973Y-92344213D01*
X96642235Y-92270658D01*
X97530251Y-91382641D01*
X97530250Y-91382639D01*
X97492227Y-91355014D01*
X97492209Y-91355003D01*
X97216552Y-91203459D01*
X97216544Y-91203455D01*
X96924073Y-91087659D01*
X96777808Y-91050104D01*
X96717770Y-91014366D01*
X96686585Y-90951842D01*
X96694153Y-90882383D01*
X96738072Y-90828043D01*
X96777808Y-90809896D01*
X96924073Y-90772340D01*
X97216544Y-90656544D01*
X97216545Y-90656543D01*
X97492216Y-90504991D01*
X97492222Y-90504988D01*
X97530250Y-90477358D01*
X97530250Y-90477357D01*
X96642234Y-89589341D01*
X96799973Y-89515787D01*
X96985590Y-89385817D01*
X97145817Y-89225590D01*
X97275787Y-89039974D01*
X97338733Y-88904984D01*
X97372477Y-88905370D01*
X98235915Y-89768808D01*
X98235915Y-89768807D01*
X98345092Y-89596773D01*
X98345103Y-89596754D01*
X98479034Y-89312137D01*
X98479036Y-89312132D01*
X98577450Y-89009248D01*
X98578493Y-89009586D01*
X98611789Y-88953632D01*
X98674308Y-88922437D01*
X98697565Y-88920504D01*
X99876920Y-88933974D01*
X99943726Y-88954422D01*
X99988875Y-89007745D01*
X99999500Y-89057965D01*
X99999500Y-109875500D01*
X99979815Y-109942539D01*
X99927011Y-109988294D01*
X99875500Y-109999500D01*
X63764000Y-109999500D01*
X63696961Y-109979815D01*
X63651206Y-109927011D01*
X63640000Y-109875500D01*
X63640000Y-101903220D01*
X65423884Y-101903220D01*
X65635579Y-101990908D01*
X65874771Y-102048332D01*
X65874770Y-102048332D01*
X66120000Y-102067631D01*
X66365229Y-102048332D01*
X66604417Y-101990909D01*
X66816114Y-101903220D01*
X66120001Y-101207107D01*
X66120000Y-101207107D01*
X65423884Y-101903220D01*
X63640000Y-101903220D01*
X63640000Y-100500000D01*
X64552368Y-100500000D01*
X64571667Y-100745229D01*
X64629091Y-100984420D01*
X64716778Y-101196114D01*
X65374401Y-100538492D01*
X65557261Y-100538492D01*
X65588514Y-100688890D01*
X65659185Y-100825279D01*
X65764032Y-100937543D01*
X65895280Y-101017357D01*
X66043195Y-101058800D01*
X66158225Y-101058800D01*
X66272180Y-101043137D01*
X66413073Y-100981939D01*
X66532231Y-100884997D01*
X66620815Y-100759502D01*
X66672256Y-100614760D01*
X66680106Y-100500000D01*
X66827107Y-100500000D01*
X67523220Y-101196113D01*
X67610909Y-100984417D01*
X67668332Y-100745229D01*
X67675250Y-100657329D01*
X68619500Y-100657329D01*
X68658932Y-100969463D01*
X68658934Y-100969476D01*
X68737180Y-101274225D01*
X68737181Y-101274228D01*
X68853001Y-101566757D01*
X68853002Y-101566758D01*
X68853004Y-101566763D01*
X68853006Y-101566766D01*
X69004584Y-101842484D01*
X69004586Y-101842488D01*
X69004591Y-101842495D01*
X69189515Y-102097021D01*
X69189523Y-102097031D01*
X69404907Y-102326391D01*
X69404909Y-102326393D01*
X69647334Y-102526945D01*
X69647338Y-102526948D01*
X69857648Y-102660414D01*
X69912993Y-102695537D01*
X70079087Y-102773695D01*
X70197678Y-102829500D01*
X70197682Y-102829501D01*
X70197685Y-102829503D01*
X70496921Y-102926731D01*
X70805985Y-102985688D01*
X70805990Y-102985688D01*
X70805995Y-102985689D01*
X71041411Y-103000500D01*
X71041417Y-103000500D01*
X78898589Y-103000500D01*
X79134004Y-102985689D01*
X79134007Y-102985688D01*
X79134015Y-102985688D01*
X79443079Y-102926731D01*
X79742315Y-102829503D01*
X80027007Y-102695537D01*
X80292663Y-102526947D01*
X80535094Y-102326390D01*
X80750478Y-102097030D01*
X80935416Y-101842484D01*
X81086994Y-101566766D01*
X81103795Y-101524333D01*
X81202818Y-101274228D01*
X81202819Y-101274225D01*
X81281065Y-100969476D01*
X81281066Y-100969473D01*
X81305061Y-100779535D01*
X81320499Y-100657329D01*
X81320500Y-100657316D01*
X81320500Y-100500004D01*
X82001615Y-100500004D01*
X82021923Y-100771006D01*
X82021924Y-100771011D01*
X82021924Y-100771015D01*
X82021925Y-100771016D01*
X82030953Y-100810571D01*
X82082397Y-101035964D01*
X82082399Y-101035973D01*
X82082401Y-101035978D01*
X82181692Y-101288968D01*
X82317580Y-101524333D01*
X82454443Y-101695955D01*
X82487032Y-101736820D01*
X82600911Y-101842483D01*
X82686255Y-101921671D01*
X82910808Y-102074768D01*
X83155665Y-102192685D01*
X83155666Y-102192685D01*
X83155669Y-102192687D01*
X83415371Y-102272794D01*
X83415372Y-102272794D01*
X83415375Y-102272795D01*
X83684104Y-102313299D01*
X83684109Y-102313299D01*
X83684112Y-102313300D01*
X83684113Y-102313300D01*
X83955887Y-102313300D01*
X83955888Y-102313300D01*
X83955895Y-102313299D01*
X84224624Y-102272795D01*
X84224625Y-102272794D01*
X84224629Y-102272794D01*
X84484331Y-102192687D01*
X84729193Y-102074768D01*
X84953745Y-101921671D01*
X85152971Y-101736816D01*
X85262078Y-101600000D01*
X88504434Y-101600000D01*
X88524685Y-102012218D01*
X88524685Y-102012223D01*
X88524686Y-102012227D01*
X88585244Y-102420471D01*
X88685527Y-102820821D01*
X88824555Y-103209379D01*
X88824562Y-103209395D01*
X88824564Y-103209400D01*
X89001022Y-103582490D01*
X89001024Y-103582493D01*
X89213198Y-103936484D01*
X89459058Y-104267988D01*
X89736215Y-104573784D01*
X90042011Y-104850941D01*
X90042017Y-104850946D01*
X90373513Y-105096800D01*
X90727510Y-105308978D01*
X91100600Y-105485436D01*
X91100609Y-105485439D01*
X91100620Y-105485444D01*
X91461738Y-105614654D01*
X91489189Y-105624476D01*
X91889535Y-105724757D01*
X92297782Y-105785315D01*
X92710000Y-105805566D01*
X93122218Y-105785315D01*
X93530465Y-105724757D01*
X93930811Y-105624476D01*
X94111380Y-105559866D01*
X94319379Y-105485444D01*
X94319385Y-105485441D01*
X94319400Y-105485436D01*
X94692490Y-105308978D01*
X95046487Y-105096800D01*
X95377983Y-104850946D01*
X95683784Y-104573784D01*
X95960946Y-104267983D01*
X96206800Y-103936487D01*
X96418978Y-103582490D01*
X96595436Y-103209400D01*
X96734476Y-102820811D01*
X96834757Y-102420465D01*
X96895315Y-102012218D01*
X96915566Y-101600000D01*
X96895315Y-101187782D01*
X96834757Y-100779535D01*
X96734476Y-100379189D01*
X96689958Y-100254770D01*
X96595444Y-99990620D01*
X96595437Y-99990604D01*
X96595436Y-99990600D01*
X96418978Y-99617510D01*
X96206800Y-99263513D01*
X95960946Y-98932017D01*
X95960941Y-98932011D01*
X95683784Y-98626215D01*
X95377988Y-98349058D01*
X95137226Y-98170497D01*
X95046487Y-98103200D01*
X94692490Y-97891022D01*
X94319400Y-97714564D01*
X94319396Y-97714562D01*
X94319395Y-97714562D01*
X94319379Y-97714555D01*
X93930821Y-97575527D01*
X93930815Y-97575525D01*
X93930811Y-97575524D01*
X93732205Y-97525776D01*
X93530471Y-97475244D01*
X93530466Y-97475243D01*
X93530465Y-97475243D01*
X93429577Y-97460277D01*
X93122227Y-97414686D01*
X93122223Y-97414685D01*
X93122218Y-97414685D01*
X92710000Y-97394434D01*
X92297782Y-97414685D01*
X92297776Y-97414685D01*
X92297772Y-97414686D01*
X91889528Y-97475244D01*
X91587316Y-97550944D01*
X91489189Y-97575524D01*
X91489186Y-97575524D01*
X91489178Y-97575527D01*
X91100620Y-97714555D01*
X91100604Y-97714562D01*
X90727506Y-97891024D01*
X90373515Y-98103198D01*
X90042011Y-98349058D01*
X89736215Y-98626215D01*
X89459058Y-98932011D01*
X89213198Y-99263515D01*
X89001024Y-99617506D01*
X89001022Y-99617510D01*
X88949817Y-99725774D01*
X88824562Y-99990604D01*
X88824555Y-99990620D01*
X88685527Y-100379178D01*
X88685524Y-100379186D01*
X88685524Y-100379189D01*
X88664904Y-100461508D01*
X88585244Y-100779528D01*
X88543818Y-101058800D01*
X88524685Y-101187782D01*
X88504434Y-101600000D01*
X85262078Y-101600000D01*
X85322420Y-101524333D01*
X85458308Y-101288968D01*
X85557599Y-101035978D01*
X85618075Y-100771016D01*
X85618938Y-100759502D01*
X85638385Y-100500004D01*
X85638385Y-100499995D01*
X85618076Y-100228993D01*
X85618075Y-100228988D01*
X85618075Y-100228984D01*
X85557599Y-99964022D01*
X85458308Y-99711032D01*
X85322420Y-99475667D01*
X85152971Y-99263184D01*
X85152970Y-99263183D01*
X85152967Y-99263179D01*
X84953745Y-99078329D01*
X84953742Y-99078327D01*
X84729193Y-98925232D01*
X84729189Y-98925230D01*
X84729186Y-98925228D01*
X84729185Y-98925227D01*
X84484333Y-98807314D01*
X84484335Y-98807314D01*
X84224630Y-98727206D01*
X84224624Y-98727204D01*
X83955895Y-98686700D01*
X83955888Y-98686700D01*
X83684112Y-98686700D01*
X83684104Y-98686700D01*
X83415375Y-98727204D01*
X83415369Y-98727206D01*
X83155665Y-98807314D01*
X82910816Y-98925227D01*
X82910807Y-98925232D01*
X82686257Y-99078327D01*
X82487032Y-99263179D01*
X82317580Y-99475667D01*
X82181692Y-99711031D01*
X82082403Y-99964016D01*
X82082397Y-99964035D01*
X82021924Y-100228988D01*
X82021923Y-100228993D01*
X82001615Y-100499995D01*
X82001615Y-100500004D01*
X81320500Y-100500004D01*
X81320500Y-100342683D01*
X81320499Y-100342670D01*
X81281067Y-100030536D01*
X81281065Y-100030523D01*
X81202819Y-99725774D01*
X81202818Y-99725771D01*
X81086998Y-99433242D01*
X81086997Y-99433241D01*
X81086996Y-99433239D01*
X81086994Y-99433234D01*
X80935416Y-99157516D01*
X80935410Y-99157509D01*
X80935408Y-99157504D01*
X80750484Y-98902978D01*
X80750476Y-98902968D01*
X80535092Y-98673608D01*
X80535090Y-98673606D01*
X80292665Y-98473054D01*
X80292661Y-98473051D01*
X80027009Y-98304464D01*
X80027003Y-98304461D01*
X79742321Y-98170499D01*
X79742316Y-98170497D01*
X79443083Y-98073270D01*
X79443080Y-98073269D01*
X79443079Y-98073269D01*
X79288547Y-98043790D01*
X79134011Y-98014311D01*
X79134004Y-98014310D01*
X78898589Y-97999500D01*
X78898583Y-97999500D01*
X71041417Y-97999500D01*
X71041411Y-97999500D01*
X70805995Y-98014310D01*
X70805988Y-98014311D01*
X70496916Y-98073270D01*
X70197683Y-98170497D01*
X70197678Y-98170499D01*
X69912996Y-98304461D01*
X69912990Y-98304464D01*
X69647338Y-98473051D01*
X69647334Y-98473054D01*
X69404909Y-98673606D01*
X69404907Y-98673608D01*
X69189523Y-98902968D01*
X69189515Y-98902978D01*
X69004591Y-99157504D01*
X69004584Y-99157516D01*
X68853002Y-99433241D01*
X68853001Y-99433242D01*
X68737181Y-99725771D01*
X68737180Y-99725774D01*
X68658934Y-100030523D01*
X68658932Y-100030536D01*
X68619500Y-100342670D01*
X68619500Y-100657329D01*
X67675250Y-100657329D01*
X67687631Y-100500000D01*
X67668332Y-100254770D01*
X67610908Y-100015579D01*
X67523220Y-99803884D01*
X66827107Y-100499999D01*
X66827107Y-100500000D01*
X66680106Y-100500000D01*
X66682739Y-100461508D01*
X66651486Y-100311110D01*
X66580815Y-100174721D01*
X66475968Y-100062457D01*
X66344720Y-99982643D01*
X66196805Y-99941200D01*
X66081775Y-99941200D01*
X65967820Y-99956863D01*
X65826927Y-100018061D01*
X65707769Y-100115003D01*
X65619185Y-100240498D01*
X65567744Y-100385240D01*
X65557261Y-100538492D01*
X65374401Y-100538492D01*
X65412893Y-100500000D01*
X65412893Y-100499999D01*
X64716778Y-99803884D01*
X64629091Y-100015579D01*
X64571667Y-100254770D01*
X64552368Y-100500000D01*
X63640000Y-100500000D01*
X63640000Y-99096778D01*
X65423884Y-99096778D01*
X66120000Y-99792893D01*
X66120001Y-99792893D01*
X66816114Y-99096778D01*
X66604420Y-99009091D01*
X66365228Y-98951667D01*
X66365229Y-98951667D01*
X66120000Y-98932368D01*
X65874770Y-98951667D01*
X65635579Y-99009091D01*
X65423884Y-99096778D01*
X63640000Y-99096778D01*
X63640000Y-96323625D01*
X63659685Y-96256586D01*
X63712489Y-96210831D01*
X63763624Y-96199626D01*
X93400000Y-96110000D01*
X93400000Y-93520676D01*
X93415279Y-93468640D01*
X93403064Y-93446718D01*
X93400000Y-93419323D01*
X93400000Y-90753627D01*
X93401262Y-90735980D01*
X93409653Y-90677618D01*
X93410433Y-90673288D01*
X93425196Y-90605428D01*
X93430148Y-90536175D01*
X93430617Y-90531808D01*
X93440500Y-90463079D01*
X93440500Y-90176921D01*
X93440500Y-89142748D01*
X93460185Y-89075709D01*
X93476813Y-89055073D01*
X93530444Y-89001442D01*
X93591763Y-88967959D01*
X93661454Y-88972943D01*
X93717388Y-89014814D01*
X93736053Y-89050807D01*
X93820963Y-89312132D01*
X93820965Y-89312137D01*
X93954900Y-89596761D01*
X93954905Y-89596771D01*
X94064083Y-89768807D01*
X94950656Y-88882232D01*
X95024213Y-89039973D01*
G37*
%TD.AperFunction*%
%TD*%
M02*
