%TF.GenerationSoftware,KiCad,Pcbnew,7.0.9*%
%TF.CreationDate,2023-12-24T19:55:43+02:00*%
%TF.ProjectId,kikad_project,6b696b61-645f-4707-926f-6a6563742e6b,rev?*%
%TF.SameCoordinates,Original*%
%TF.FileFunction,Soldermask,Bot*%
%TF.FilePolarity,Negative*%
%FSLAX46Y46*%
G04 Gerber Fmt 4.6, Leading zero omitted, Abs format (unit mm)*
G04 Created by KiCad (PCBNEW 7.0.9) date 2023-12-24 19:55:43*
%MOMM*%
%LPD*%
G01*
G04 APERTURE LIST*
G04 Aperture macros list*
%AMRoundRect*
0 Rectangle with rounded corners*
0 $1 Rounding radius*
0 $2 $3 $4 $5 $6 $7 $8 $9 X,Y pos of 4 corners*
0 Add a 4 corners polygon primitive as box body*
4,1,4,$2,$3,$4,$5,$6,$7,$8,$9,$2,$3,0*
0 Add four circle primitives for the rounded corners*
1,1,$1+$1,$2,$3*
1,1,$1+$1,$4,$5*
1,1,$1+$1,$6,$7*
1,1,$1+$1,$8,$9*
0 Add four rect primitives between the rounded corners*
20,1,$1+$1,$2,$3,$4,$5,0*
20,1,$1+$1,$4,$5,$6,$7,0*
20,1,$1+$1,$6,$7,$8,$9,0*
20,1,$1+$1,$8,$9,$2,$3,0*%
G04 Aperture macros list end*
%ADD10C,1.625600*%
%ADD11C,1.504000*%
%ADD12R,1.651000X1.651000*%
%ADD13C,1.651000*%
%ADD14R,1.905000X2.000000*%
%ADD15O,1.905000X2.000000*%
%ADD16C,1.600000*%
%ADD17O,1.600000X1.600000*%
%ADD18C,1.701800*%
%ADD19C,1.854000*%
%ADD20RoundRect,0.102000X-0.825000X0.825000X-0.825000X-0.825000X0.825000X-0.825000X0.825000X0.825000X0*%
%ADD21O,1.700000X1.700000*%
%ADD22R,1.700000X1.700000*%
%ADD23R,1.600000X1.600000*%
%ADD24C,6.400000*%
%ADD25C,2.200000*%
%ADD26O,2.200000X2.200000*%
%ADD27C,3.704000*%
%ADD28RoundRect,0.102000X-0.565000X0.565000X-0.565000X-0.565000X0.565000X-0.565000X0.565000X0.565000X0*%
%ADD29C,1.334000*%
%ADD30C,1.700000*%
G04 APERTURE END LIST*
D10*
%TO.C,J9*%
X28020000Y-100500000D03*
X33020000Y-100500000D03*
%TD*%
%TO.C,J7*%
X90430001Y-41758301D03*
X90430001Y-36758301D03*
%TD*%
D11*
%TO.C,IC3*%
X75090000Y-61000000D03*
X75090000Y-63540000D03*
X75090000Y-66080000D03*
X75090000Y-68620000D03*
X82710000Y-68620000D03*
X82710000Y-66080000D03*
X82710000Y-63540000D03*
X82710000Y-61000000D03*
%TD*%
D12*
%TO.C,D1*%
X76200000Y-91160600D03*
D13*
X76200000Y-80162400D03*
%TD*%
D10*
%TO.C,J16*%
X90430001Y-59948301D03*
X90430001Y-54948301D03*
%TD*%
%TO.C,J11*%
X9620000Y-46823599D03*
X9620000Y-51823599D03*
X9620000Y-56823599D03*
X9620000Y-61823600D03*
%TD*%
D14*
%TO.C,U4*%
X55340000Y-87630000D03*
D15*
X57880000Y-87630000D03*
X60420000Y-87630000D03*
%TD*%
D16*
%TO.C,C6*%
X60420000Y-81220000D03*
D17*
X60420000Y-73720000D03*
%TD*%
D18*
%TO.C,J17*%
X89430000Y-66138301D03*
X94430000Y-66138301D03*
%TD*%
D19*
%TO.C,D3*%
X91440000Y-90320000D03*
D20*
X91440000Y-77320000D03*
%TD*%
D16*
%TO.C,C9*%
X24070000Y-5080000D03*
D17*
X16570000Y-5080000D03*
%TD*%
D21*
%TO.C,U2*%
X67430000Y-20810000D03*
X64890000Y-20810000D03*
X62350000Y-20810000D03*
X67430000Y-35385000D03*
X24250000Y-20810000D03*
X59810000Y-20810000D03*
X62350000Y-35385000D03*
X26790000Y-20810000D03*
X57270000Y-20810000D03*
X54730000Y-20810000D03*
X52190000Y-20810000D03*
X49650000Y-20810000D03*
X47110000Y-20810000D03*
X44570000Y-20810000D03*
X42030000Y-20810000D03*
X39490000Y-20810000D03*
X36950000Y-20810000D03*
X34410000Y-20810000D03*
X31870000Y-20810000D03*
X29330000Y-20810000D03*
D22*
X19170000Y-35385000D03*
D21*
X21710000Y-35385000D03*
X24250000Y-35385000D03*
X26790000Y-35385000D03*
X29330000Y-35385000D03*
X31870000Y-35385000D03*
X34410000Y-35385000D03*
X36950000Y-35385000D03*
X39490000Y-35385000D03*
X42030000Y-35385000D03*
X44570000Y-35385000D03*
X47110000Y-35385000D03*
X49650000Y-35385000D03*
X52190000Y-35385000D03*
X54730000Y-35385000D03*
X57270000Y-35385000D03*
X59810000Y-35385000D03*
X64890000Y-35385000D03*
D22*
X19170000Y-20810000D03*
D21*
X21710000Y-20810000D03*
%TD*%
D23*
%TO.C,C12*%
X30480000Y-55880000D03*
D16*
X30480000Y-53880000D03*
%TD*%
D11*
%TO.C,IC1*%
X75090000Y-35600000D03*
X75090000Y-38140000D03*
X75090000Y-40680000D03*
X75090000Y-43220000D03*
X82710000Y-43220000D03*
X82710000Y-40680000D03*
X82710000Y-38140000D03*
X82710000Y-35600000D03*
%TD*%
D16*
%TO.C,C4*%
X65500000Y-88840000D03*
D17*
X65500000Y-81340000D03*
%TD*%
D10*
%TO.C,J10*%
X9620000Y-69525500D03*
X9620000Y-74525500D03*
X9620000Y-79525500D03*
X9620000Y-84525501D03*
%TD*%
%TO.C,J6*%
X15320000Y-100500000D03*
X20320000Y-100500000D03*
%TD*%
%TO.C,J2*%
X95790000Y-9510000D03*
X90790000Y-9510000D03*
X85790000Y-9510000D03*
X80789999Y-9510000D03*
%TD*%
%TO.C,J14*%
X9620000Y-28640000D03*
X9620000Y-33640000D03*
%TD*%
D24*
%TO.C,H2*%
X7620000Y-6350000D03*
%TD*%
D16*
%TO.C,C2*%
X45720000Y-76200000D03*
D17*
X45720000Y-68700000D03*
%TD*%
D25*
%TO.C,L1*%
X43180000Y-87630000D03*
D26*
X38100000Y-87630000D03*
%TD*%
D14*
%TO.C,U3*%
X38100000Y-81280000D03*
D15*
X40640000Y-81280000D03*
X43180000Y-81280000D03*
%TD*%
D16*
%TO.C,R3*%
X27940000Y-50070000D03*
D17*
X17780000Y-50070000D03*
%TD*%
D10*
%TO.C,J1*%
X78820000Y-100500000D03*
X83820000Y-100500000D03*
%TD*%
D16*
%TO.C,C3*%
X33020000Y-91440000D03*
D17*
X33020000Y-83940000D03*
%TD*%
D18*
%TO.C,J8*%
X89430000Y-47948301D03*
X94430000Y-47948301D03*
%TD*%
D10*
%TO.C,J3*%
X53430000Y-100480000D03*
X58430000Y-100480000D03*
%TD*%
D23*
%TO.C,C1*%
X40100000Y-73660000D03*
D16*
X38100000Y-73660000D03*
%TD*%
D24*
%TO.C,H1*%
X7000000Y-101600000D03*
%TD*%
D10*
%TO.C,J15*%
X66120000Y-100500000D03*
X71120000Y-100500000D03*
%TD*%
D23*
%TO.C,C11*%
X30480000Y-45720000D03*
D16*
X30480000Y-43720000D03*
%TD*%
%TO.C,R1*%
X86360000Y-86360000D03*
D17*
X86360000Y-76200000D03*
%TD*%
D14*
%TO.C,Q2*%
X81280000Y-91440000D03*
D15*
X83820000Y-91440000D03*
X86360000Y-91440000D03*
%TD*%
D10*
%TO.C,J4*%
X90430001Y-23585101D03*
X90430001Y-18585101D03*
%TD*%
D23*
%TO.C,C5*%
X55880000Y-80010000D03*
D16*
X53880000Y-80010000D03*
%TD*%
D23*
%TO.C,C8*%
X21050000Y-12700000D03*
D16*
X19050000Y-12700000D03*
%TD*%
D24*
%TO.C,H3*%
X92710000Y-101600000D03*
%TD*%
D16*
%TO.C,C7*%
X81280000Y-86360000D03*
D17*
X81280000Y-78860000D03*
%TD*%
D18*
%TO.C,J12*%
X10620001Y-40639999D03*
X5620001Y-40639999D03*
%TD*%
D27*
%TO.C,X1*%
X96150000Y-93470000D03*
X96150000Y-88390000D03*
X96150000Y-84330000D03*
X96150000Y-79250000D03*
%TD*%
D28*
%TO.C,U12*%
X66100000Y-6860000D03*
D29*
X63560000Y-6860000D03*
X61020000Y-6860000D03*
X58480000Y-6860000D03*
X55940000Y-6860000D03*
X53400000Y-6860000D03*
X50860000Y-6860000D03*
X48320000Y-6860000D03*
X48320000Y-14800000D03*
X50860000Y-14800000D03*
X53400000Y-14800000D03*
X55940000Y-14800000D03*
X58480000Y-14800000D03*
X61020000Y-14800000D03*
X63560000Y-14800000D03*
X66100000Y-14800000D03*
%TD*%
D18*
%TO.C,J5*%
X89430000Y-29778301D03*
X94430000Y-29778301D03*
%TD*%
D10*
%TO.C,J13*%
X9610000Y-15920000D03*
X9610000Y-20920000D03*
%TD*%
D11*
%TO.C,IC2*%
X75090000Y-48300000D03*
X75090000Y-50840000D03*
X75090000Y-53380000D03*
X75090000Y-55920000D03*
X82710000Y-55920000D03*
X82710000Y-53380000D03*
X82710000Y-50840000D03*
X82710000Y-48300000D03*
%TD*%
D10*
%TO.C,J18*%
X40720000Y-100500000D03*
X45720000Y-100500000D03*
%TD*%
D16*
%TO.C,R2*%
X27940000Y-70390000D03*
D17*
X17780000Y-70390000D03*
%TD*%
D23*
%TO.C,C10*%
X30480000Y-66040000D03*
D16*
X30480000Y-64040000D03*
%TD*%
D22*
%TO.C,U1*%
X27940000Y-3265000D03*
D30*
X30480000Y-3265000D03*
X27940000Y-5805000D03*
X30480000Y-5805000D03*
X27940000Y-8345000D03*
X30480000Y-8345000D03*
X27940000Y-10885000D03*
X30480000Y-10885000D03*
%TD*%
D16*
%TO.C,R4*%
X27940000Y-60230000D03*
D17*
X17780000Y-60230000D03*
%TD*%
M02*
