%TF.GenerationSoftware,KiCad,Pcbnew,7.0.9*%
%TF.CreationDate,2024-01-09T15:59:06+02:00*%
%TF.ProjectId,PCB,5043422e-6b69-4636-9164-5f7063625858,rev?*%
%TF.SameCoordinates,Original*%
%TF.FileFunction,Drillmap*%
%TF.FilePolarity,Positive*%
%FSLAX45Y45*%
G04 Gerber Fmt 4.5, Leading zero omitted, Abs format (unit mm)*
G04 Created by KiCad (PCBNEW 7.0.9) date 2024-01-09 15:59:06*
%MOMM*%
%LPD*%
G01*
G04 APERTURE LIST*
%ADD10C,0.100000*%
%ADD11C,0.200000*%
%ADD12C,0.111760*%
G04 APERTURE END LIST*
D10*
X15358000Y-7848000D02*
X23358000Y-7848000D01*
X23358000Y-15348000D01*
X15358000Y-15348000D01*
X15358000Y-7848000D01*
D11*
D10*
X15609000Y-8572000D02*
X15689000Y-8652000D01*
X15689000Y-8572000D02*
X15609000Y-8652000D01*
X16064000Y-9262000D02*
X16144000Y-9342000D01*
X16144000Y-9262000D02*
X16064000Y-9342000D01*
X16264000Y-9262000D02*
X16344000Y-9342000D01*
X16344000Y-9262000D02*
X16264000Y-9342000D01*
X16359000Y-8572000D02*
X16439000Y-8652000D01*
X16439000Y-8572000D02*
X16359000Y-8652000D01*
X17029000Y-11103500D02*
G75*
G03*
X17029000Y-11103500I-50000J0D01*
G01*
X17029000Y-12561000D02*
G75*
G03*
X17029000Y-12561000I-50000J0D01*
G01*
X17050000Y-8452000D02*
G75*
G03*
X17050000Y-8452000I-50000J0D01*
G01*
X17050000Y-8706000D02*
G75*
G03*
X17050000Y-8706000I-50000J0D01*
G01*
X17050000Y-8960000D02*
G75*
G03*
X17050000Y-8960000I-50000J0D01*
G01*
X17050000Y-9214000D02*
G75*
G03*
X17050000Y-9214000I-50000J0D01*
G01*
X17283000Y-11103500D02*
G75*
G03*
X17283000Y-11103500I-50000J0D01*
G01*
X17283000Y-12561000D02*
G75*
G03*
X17283000Y-12561000I-50000J0D01*
G01*
X17304000Y-8452000D02*
G75*
G03*
X17304000Y-8452000I-50000J0D01*
G01*
X17304000Y-8706000D02*
G75*
G03*
X17304000Y-8706000I-50000J0D01*
G01*
X17304000Y-8960000D02*
G75*
G03*
X17304000Y-8960000I-50000J0D01*
G01*
X17304000Y-9214000D02*
G75*
G03*
X17304000Y-9214000I-50000J0D01*
G01*
X17537000Y-11103500D02*
G75*
G03*
X17537000Y-11103500I-50000J0D01*
G01*
X17537000Y-12561000D02*
G75*
G03*
X17537000Y-12561000I-50000J0D01*
G01*
X17791000Y-11103500D02*
G75*
G03*
X17791000Y-11103500I-50000J0D01*
G01*
X17791000Y-12561000D02*
G75*
G03*
X17791000Y-12561000I-50000J0D01*
G01*
X18045000Y-11103500D02*
G75*
G03*
X18045000Y-11103500I-50000J0D01*
G01*
X18045000Y-12561000D02*
G75*
G03*
X18045000Y-12561000I-50000J0D01*
G01*
X18299000Y-11103500D02*
G75*
G03*
X18299000Y-11103500I-50000J0D01*
G01*
X18299000Y-12561000D02*
G75*
G03*
X18299000Y-12561000I-50000J0D01*
G01*
X18553000Y-11103500D02*
G75*
G03*
X18553000Y-11103500I-50000J0D01*
G01*
X18553000Y-12561000D02*
G75*
G03*
X18553000Y-12561000I-50000J0D01*
G01*
X18807000Y-11103500D02*
G75*
G03*
X18807000Y-11103500I-50000J0D01*
G01*
X18807000Y-12561000D02*
G75*
G03*
X18807000Y-12561000I-50000J0D01*
G01*
X19061000Y-11103500D02*
G75*
G03*
X19061000Y-11103500I-50000J0D01*
G01*
X19061000Y-12561000D02*
G75*
G03*
X19061000Y-12561000I-50000J0D01*
G01*
X19315000Y-11103500D02*
G75*
G03*
X19315000Y-11103500I-50000J0D01*
G01*
X19315000Y-12561000D02*
G75*
G03*
X19315000Y-12561000I-50000J0D01*
G01*
X19569000Y-11103500D02*
G75*
G03*
X19569000Y-11103500I-50000J0D01*
G01*
X19569000Y-12561000D02*
G75*
G03*
X19569000Y-12561000I-50000J0D01*
G01*
X19823000Y-11103500D02*
G75*
G03*
X19823000Y-11103500I-50000J0D01*
G01*
X19823000Y-12561000D02*
G75*
G03*
X19823000Y-12561000I-50000J0D01*
G01*
X20077000Y-11103500D02*
G75*
G03*
X20077000Y-11103500I-50000J0D01*
G01*
X20077000Y-12561000D02*
G75*
G03*
X20077000Y-12561000I-50000J0D01*
G01*
X20331000Y-11103500D02*
G75*
G03*
X20331000Y-11103500I-50000J0D01*
G01*
X20331000Y-12561000D02*
G75*
G03*
X20331000Y-12561000I-50000J0D01*
G01*
X20585000Y-11103500D02*
G75*
G03*
X20585000Y-11103500I-50000J0D01*
G01*
X20585000Y-12561000D02*
G75*
G03*
X20585000Y-12561000I-50000J0D01*
G01*
X20839000Y-11103500D02*
G75*
G03*
X20839000Y-11103500I-50000J0D01*
G01*
X20839000Y-12561000D02*
G75*
G03*
X20839000Y-12561000I-50000J0D01*
G01*
X21093000Y-11103500D02*
G75*
G03*
X21093000Y-11103500I-50000J0D01*
G01*
X21093000Y-12561000D02*
G75*
G03*
X21093000Y-12561000I-50000J0D01*
G01*
X21347000Y-11103500D02*
G75*
G03*
X21347000Y-11103500I-50000J0D01*
G01*
X21347000Y-12561000D02*
G75*
G03*
X21347000Y-12561000I-50000J0D01*
G01*
X21601000Y-11103500D02*
G75*
G03*
X21601000Y-11103500I-50000J0D01*
G01*
X21601000Y-12561000D02*
G75*
G03*
X21601000Y-12561000I-50000J0D01*
G01*
X21855000Y-11103500D02*
G75*
G03*
X21855000Y-11103500I-50000J0D01*
G01*
X21855000Y-12561000D02*
G75*
G03*
X21855000Y-12561000I-50000J0D01*
G01*
D12*
X15873000Y-14325120D02*
X15873000Y-14436880D01*
X15817120Y-14381000D02*
X15928880Y-14381000D01*
X16373000Y-14325120D02*
X16373000Y-14436880D01*
X16317120Y-14381000D02*
X16428880Y-14381000D01*
X17154510Y-14325120D02*
X17154510Y-14436880D01*
X17098630Y-14381000D02*
X17210390Y-14381000D01*
X17654510Y-14325120D02*
X17654510Y-14436880D01*
X17598630Y-14381000D02*
X17710390Y-14381000D01*
X18436000Y-14325120D02*
X18436000Y-14436880D01*
X18380120Y-14381000D02*
X18491880Y-14381000D01*
X18936000Y-14325120D02*
X18936000Y-14436880D01*
X18880120Y-14381000D02*
X18991880Y-14381000D01*
X19717000Y-14325120D02*
X19717000Y-14436880D01*
X19661120Y-14381000D02*
X19772880Y-14381000D01*
X20217000Y-14325120D02*
X20217000Y-14436880D01*
X20161120Y-14381000D02*
X20272880Y-14381000D01*
X20998000Y-14325120D02*
X20998000Y-14436880D01*
X20942120Y-14381000D02*
X21053880Y-14381000D01*
X21498000Y-14325120D02*
X21498000Y-14436880D01*
X21442120Y-14381000D02*
X21553880Y-14381000D01*
X22279000Y-14325120D02*
X22279000Y-14436880D01*
X22223120Y-14381000D02*
X22334880Y-14381000D01*
X22779000Y-14325120D02*
X22779000Y-14436880D01*
X22723120Y-14381000D02*
X22834880Y-14381000D01*
D11*
X15613777Y-15664484D02*
X15613777Y-15464484D01*
X15613777Y-15464484D02*
X15661396Y-15464484D01*
X15661396Y-15464484D02*
X15689967Y-15474008D01*
X15689967Y-15474008D02*
X15709015Y-15493055D01*
X15709015Y-15493055D02*
X15718539Y-15512103D01*
X15718539Y-15512103D02*
X15728062Y-15550198D01*
X15728062Y-15550198D02*
X15728062Y-15578769D01*
X15728062Y-15578769D02*
X15718539Y-15616865D01*
X15718539Y-15616865D02*
X15709015Y-15635912D01*
X15709015Y-15635912D02*
X15689967Y-15654960D01*
X15689967Y-15654960D02*
X15661396Y-15664484D01*
X15661396Y-15664484D02*
X15613777Y-15664484D01*
X15813777Y-15664484D02*
X15813777Y-15531150D01*
X15813777Y-15569246D02*
X15823301Y-15550198D01*
X15823301Y-15550198D02*
X15832824Y-15540674D01*
X15832824Y-15540674D02*
X15851872Y-15531150D01*
X15851872Y-15531150D02*
X15870920Y-15531150D01*
X15937586Y-15664484D02*
X15937586Y-15531150D01*
X15937586Y-15464484D02*
X15928062Y-15474008D01*
X15928062Y-15474008D02*
X15937586Y-15483531D01*
X15937586Y-15483531D02*
X15947110Y-15474008D01*
X15947110Y-15474008D02*
X15937586Y-15464484D01*
X15937586Y-15464484D02*
X15937586Y-15483531D01*
X16061396Y-15664484D02*
X16042348Y-15654960D01*
X16042348Y-15654960D02*
X16032824Y-15635912D01*
X16032824Y-15635912D02*
X16032824Y-15464484D01*
X16166158Y-15664484D02*
X16147110Y-15654960D01*
X16147110Y-15654960D02*
X16137586Y-15635912D01*
X16137586Y-15635912D02*
X16137586Y-15464484D01*
X16394729Y-15664484D02*
X16394729Y-15464484D01*
X16394729Y-15464484D02*
X16461396Y-15607341D01*
X16461396Y-15607341D02*
X16528062Y-15464484D01*
X16528062Y-15464484D02*
X16528062Y-15664484D01*
X16709015Y-15664484D02*
X16709015Y-15559722D01*
X16709015Y-15559722D02*
X16699491Y-15540674D01*
X16699491Y-15540674D02*
X16680443Y-15531150D01*
X16680443Y-15531150D02*
X16642348Y-15531150D01*
X16642348Y-15531150D02*
X16623301Y-15540674D01*
X16709015Y-15654960D02*
X16689967Y-15664484D01*
X16689967Y-15664484D02*
X16642348Y-15664484D01*
X16642348Y-15664484D02*
X16623301Y-15654960D01*
X16623301Y-15654960D02*
X16613777Y-15635912D01*
X16613777Y-15635912D02*
X16613777Y-15616865D01*
X16613777Y-15616865D02*
X16623301Y-15597817D01*
X16623301Y-15597817D02*
X16642348Y-15588293D01*
X16642348Y-15588293D02*
X16689967Y-15588293D01*
X16689967Y-15588293D02*
X16709015Y-15578769D01*
X16804253Y-15531150D02*
X16804253Y-15731150D01*
X16804253Y-15540674D02*
X16823301Y-15531150D01*
X16823301Y-15531150D02*
X16861396Y-15531150D01*
X16861396Y-15531150D02*
X16880444Y-15540674D01*
X16880444Y-15540674D02*
X16889967Y-15550198D01*
X16889967Y-15550198D02*
X16899491Y-15569246D01*
X16899491Y-15569246D02*
X16899491Y-15626388D01*
X16899491Y-15626388D02*
X16889967Y-15645436D01*
X16889967Y-15645436D02*
X16880444Y-15654960D01*
X16880444Y-15654960D02*
X16861396Y-15664484D01*
X16861396Y-15664484D02*
X16823301Y-15664484D01*
X16823301Y-15664484D02*
X16804253Y-15654960D01*
X16985205Y-15645436D02*
X16994729Y-15654960D01*
X16994729Y-15654960D02*
X16985205Y-15664484D01*
X16985205Y-15664484D02*
X16975682Y-15654960D01*
X16975682Y-15654960D02*
X16985205Y-15645436D01*
X16985205Y-15645436D02*
X16985205Y-15664484D01*
X16985205Y-15540674D02*
X16994729Y-15550198D01*
X16994729Y-15550198D02*
X16985205Y-15559722D01*
X16985205Y-15559722D02*
X16975682Y-15550198D01*
X16975682Y-15550198D02*
X16985205Y-15540674D01*
X16985205Y-15540674D02*
X16985205Y-15559722D01*
D10*
X15273000Y-15953000D02*
X15353000Y-16033000D01*
X15353000Y-15953000D02*
X15273000Y-16033000D01*
D11*
X15651872Y-15884484D02*
X15670920Y-15884484D01*
X15670920Y-15884484D02*
X15689967Y-15894008D01*
X15689967Y-15894008D02*
X15699491Y-15903531D01*
X15699491Y-15903531D02*
X15709015Y-15922579D01*
X15709015Y-15922579D02*
X15718539Y-15960674D01*
X15718539Y-15960674D02*
X15718539Y-16008293D01*
X15718539Y-16008293D02*
X15709015Y-16046388D01*
X15709015Y-16046388D02*
X15699491Y-16065436D01*
X15699491Y-16065436D02*
X15689967Y-16074960D01*
X15689967Y-16074960D02*
X15670920Y-16084484D01*
X15670920Y-16084484D02*
X15651872Y-16084484D01*
X15651872Y-16084484D02*
X15632824Y-16074960D01*
X15632824Y-16074960D02*
X15623301Y-16065436D01*
X15623301Y-16065436D02*
X15613777Y-16046388D01*
X15613777Y-16046388D02*
X15604253Y-16008293D01*
X15604253Y-16008293D02*
X15604253Y-15960674D01*
X15604253Y-15960674D02*
X15613777Y-15922579D01*
X15613777Y-15922579D02*
X15623301Y-15903531D01*
X15623301Y-15903531D02*
X15632824Y-15894008D01*
X15632824Y-15894008D02*
X15651872Y-15884484D01*
X15804253Y-16065436D02*
X15813777Y-16074960D01*
X15813777Y-16074960D02*
X15804253Y-16084484D01*
X15804253Y-16084484D02*
X15794729Y-16074960D01*
X15794729Y-16074960D02*
X15804253Y-16065436D01*
X15804253Y-16065436D02*
X15804253Y-16084484D01*
X15928062Y-15970198D02*
X15909015Y-15960674D01*
X15909015Y-15960674D02*
X15899491Y-15951150D01*
X15899491Y-15951150D02*
X15889967Y-15932103D01*
X15889967Y-15932103D02*
X15889967Y-15922579D01*
X15889967Y-15922579D02*
X15899491Y-15903531D01*
X15899491Y-15903531D02*
X15909015Y-15894008D01*
X15909015Y-15894008D02*
X15928062Y-15884484D01*
X15928062Y-15884484D02*
X15966158Y-15884484D01*
X15966158Y-15884484D02*
X15985205Y-15894008D01*
X15985205Y-15894008D02*
X15994729Y-15903531D01*
X15994729Y-15903531D02*
X16004253Y-15922579D01*
X16004253Y-15922579D02*
X16004253Y-15932103D01*
X16004253Y-15932103D02*
X15994729Y-15951150D01*
X15994729Y-15951150D02*
X15985205Y-15960674D01*
X15985205Y-15960674D02*
X15966158Y-15970198D01*
X15966158Y-15970198D02*
X15928062Y-15970198D01*
X15928062Y-15970198D02*
X15909015Y-15979722D01*
X15909015Y-15979722D02*
X15899491Y-15989246D01*
X15899491Y-15989246D02*
X15889967Y-16008293D01*
X15889967Y-16008293D02*
X15889967Y-16046388D01*
X15889967Y-16046388D02*
X15899491Y-16065436D01*
X15899491Y-16065436D02*
X15909015Y-16074960D01*
X15909015Y-16074960D02*
X15928062Y-16084484D01*
X15928062Y-16084484D02*
X15966158Y-16084484D01*
X15966158Y-16084484D02*
X15985205Y-16074960D01*
X15985205Y-16074960D02*
X15994729Y-16065436D01*
X15994729Y-16065436D02*
X16004253Y-16046388D01*
X16004253Y-16046388D02*
X16004253Y-16008293D01*
X16004253Y-16008293D02*
X15994729Y-15989246D01*
X15994729Y-15989246D02*
X15985205Y-15979722D01*
X15985205Y-15979722D02*
X15966158Y-15970198D01*
X16128062Y-15884484D02*
X16147110Y-15884484D01*
X16147110Y-15884484D02*
X16166158Y-15894008D01*
X16166158Y-15894008D02*
X16175682Y-15903531D01*
X16175682Y-15903531D02*
X16185205Y-15922579D01*
X16185205Y-15922579D02*
X16194729Y-15960674D01*
X16194729Y-15960674D02*
X16194729Y-16008293D01*
X16194729Y-16008293D02*
X16185205Y-16046388D01*
X16185205Y-16046388D02*
X16175682Y-16065436D01*
X16175682Y-16065436D02*
X16166158Y-16074960D01*
X16166158Y-16074960D02*
X16147110Y-16084484D01*
X16147110Y-16084484D02*
X16128062Y-16084484D01*
X16128062Y-16084484D02*
X16109015Y-16074960D01*
X16109015Y-16074960D02*
X16099491Y-16065436D01*
X16099491Y-16065436D02*
X16089967Y-16046388D01*
X16089967Y-16046388D02*
X16080443Y-16008293D01*
X16080443Y-16008293D02*
X16080443Y-15960674D01*
X16080443Y-15960674D02*
X16089967Y-15922579D01*
X16089967Y-15922579D02*
X16099491Y-15903531D01*
X16099491Y-15903531D02*
X16109015Y-15894008D01*
X16109015Y-15894008D02*
X16128062Y-15884484D01*
X16318539Y-15884484D02*
X16337586Y-15884484D01*
X16337586Y-15884484D02*
X16356634Y-15894008D01*
X16356634Y-15894008D02*
X16366158Y-15903531D01*
X16366158Y-15903531D02*
X16375682Y-15922579D01*
X16375682Y-15922579D02*
X16385205Y-15960674D01*
X16385205Y-15960674D02*
X16385205Y-16008293D01*
X16385205Y-16008293D02*
X16375682Y-16046388D01*
X16375682Y-16046388D02*
X16366158Y-16065436D01*
X16366158Y-16065436D02*
X16356634Y-16074960D01*
X16356634Y-16074960D02*
X16337586Y-16084484D01*
X16337586Y-16084484D02*
X16318539Y-16084484D01*
X16318539Y-16084484D02*
X16299491Y-16074960D01*
X16299491Y-16074960D02*
X16289967Y-16065436D01*
X16289967Y-16065436D02*
X16280443Y-16046388D01*
X16280443Y-16046388D02*
X16270920Y-16008293D01*
X16270920Y-16008293D02*
X16270920Y-15960674D01*
X16270920Y-15960674D02*
X16280443Y-15922579D01*
X16280443Y-15922579D02*
X16289967Y-15903531D01*
X16289967Y-15903531D02*
X16299491Y-15894008D01*
X16299491Y-15894008D02*
X16318539Y-15884484D01*
X16470920Y-16084484D02*
X16470920Y-15951150D01*
X16470920Y-15970198D02*
X16480443Y-15960674D01*
X16480443Y-15960674D02*
X16499491Y-15951150D01*
X16499491Y-15951150D02*
X16528063Y-15951150D01*
X16528063Y-15951150D02*
X16547110Y-15960674D01*
X16547110Y-15960674D02*
X16556634Y-15979722D01*
X16556634Y-15979722D02*
X16556634Y-16084484D01*
X16556634Y-15979722D02*
X16566158Y-15960674D01*
X16566158Y-15960674D02*
X16585205Y-15951150D01*
X16585205Y-15951150D02*
X16613777Y-15951150D01*
X16613777Y-15951150D02*
X16632824Y-15960674D01*
X16632824Y-15960674D02*
X16642348Y-15979722D01*
X16642348Y-15979722D02*
X16642348Y-16084484D01*
X16737586Y-16084484D02*
X16737586Y-15951150D01*
X16737586Y-15970198D02*
X16747110Y-15960674D01*
X16747110Y-15960674D02*
X16766158Y-15951150D01*
X16766158Y-15951150D02*
X16794729Y-15951150D01*
X16794729Y-15951150D02*
X16813777Y-15960674D01*
X16813777Y-15960674D02*
X16823301Y-15979722D01*
X16823301Y-15979722D02*
X16823301Y-16084484D01*
X16823301Y-15979722D02*
X16832825Y-15960674D01*
X16832825Y-15960674D02*
X16851872Y-15951150D01*
X16851872Y-15951150D02*
X16880444Y-15951150D01*
X16880444Y-15951150D02*
X16899491Y-15960674D01*
X16899491Y-15960674D02*
X16909015Y-15979722D01*
X16909015Y-15979722D02*
X16909015Y-16084484D01*
X17299491Y-15874960D02*
X17128063Y-16132103D01*
X17556634Y-15884484D02*
X17575682Y-15884484D01*
X17575682Y-15884484D02*
X17594729Y-15894008D01*
X17594729Y-15894008D02*
X17604253Y-15903531D01*
X17604253Y-15903531D02*
X17613777Y-15922579D01*
X17613777Y-15922579D02*
X17623301Y-15960674D01*
X17623301Y-15960674D02*
X17623301Y-16008293D01*
X17623301Y-16008293D02*
X17613777Y-16046388D01*
X17613777Y-16046388D02*
X17604253Y-16065436D01*
X17604253Y-16065436D02*
X17594729Y-16074960D01*
X17594729Y-16074960D02*
X17575682Y-16084484D01*
X17575682Y-16084484D02*
X17556634Y-16084484D01*
X17556634Y-16084484D02*
X17537587Y-16074960D01*
X17537587Y-16074960D02*
X17528063Y-16065436D01*
X17528063Y-16065436D02*
X17518539Y-16046388D01*
X17518539Y-16046388D02*
X17509015Y-16008293D01*
X17509015Y-16008293D02*
X17509015Y-15960674D01*
X17509015Y-15960674D02*
X17518539Y-15922579D01*
X17518539Y-15922579D02*
X17528063Y-15903531D01*
X17528063Y-15903531D02*
X17537587Y-15894008D01*
X17537587Y-15894008D02*
X17556634Y-15884484D01*
X17709015Y-16065436D02*
X17718539Y-16074960D01*
X17718539Y-16074960D02*
X17709015Y-16084484D01*
X17709015Y-16084484D02*
X17699491Y-16074960D01*
X17699491Y-16074960D02*
X17709015Y-16065436D01*
X17709015Y-16065436D02*
X17709015Y-16084484D01*
X17842348Y-15884484D02*
X17861396Y-15884484D01*
X17861396Y-15884484D02*
X17880444Y-15894008D01*
X17880444Y-15894008D02*
X17889968Y-15903531D01*
X17889968Y-15903531D02*
X17899491Y-15922579D01*
X17899491Y-15922579D02*
X17909015Y-15960674D01*
X17909015Y-15960674D02*
X17909015Y-16008293D01*
X17909015Y-16008293D02*
X17899491Y-16046388D01*
X17899491Y-16046388D02*
X17889968Y-16065436D01*
X17889968Y-16065436D02*
X17880444Y-16074960D01*
X17880444Y-16074960D02*
X17861396Y-16084484D01*
X17861396Y-16084484D02*
X17842348Y-16084484D01*
X17842348Y-16084484D02*
X17823301Y-16074960D01*
X17823301Y-16074960D02*
X17813777Y-16065436D01*
X17813777Y-16065436D02*
X17804253Y-16046388D01*
X17804253Y-16046388D02*
X17794729Y-16008293D01*
X17794729Y-16008293D02*
X17794729Y-15960674D01*
X17794729Y-15960674D02*
X17804253Y-15922579D01*
X17804253Y-15922579D02*
X17813777Y-15903531D01*
X17813777Y-15903531D02*
X17823301Y-15894008D01*
X17823301Y-15894008D02*
X17842348Y-15884484D01*
X17975682Y-15884484D02*
X18099491Y-15884484D01*
X18099491Y-15884484D02*
X18032825Y-15960674D01*
X18032825Y-15960674D02*
X18061396Y-15960674D01*
X18061396Y-15960674D02*
X18080444Y-15970198D01*
X18080444Y-15970198D02*
X18089968Y-15979722D01*
X18089968Y-15979722D02*
X18099491Y-15998769D01*
X18099491Y-15998769D02*
X18099491Y-16046388D01*
X18099491Y-16046388D02*
X18089968Y-16065436D01*
X18089968Y-16065436D02*
X18080444Y-16074960D01*
X18080444Y-16074960D02*
X18061396Y-16084484D01*
X18061396Y-16084484D02*
X18004253Y-16084484D01*
X18004253Y-16084484D02*
X17985206Y-16074960D01*
X17985206Y-16074960D02*
X17975682Y-16065436D01*
X18289968Y-16084484D02*
X18175682Y-16084484D01*
X18232825Y-16084484D02*
X18232825Y-15884484D01*
X18232825Y-15884484D02*
X18213777Y-15913055D01*
X18213777Y-15913055D02*
X18194729Y-15932103D01*
X18194729Y-15932103D02*
X18175682Y-15941627D01*
X18470920Y-15884484D02*
X18375682Y-15884484D01*
X18375682Y-15884484D02*
X18366158Y-15979722D01*
X18366158Y-15979722D02*
X18375682Y-15970198D01*
X18375682Y-15970198D02*
X18394729Y-15960674D01*
X18394729Y-15960674D02*
X18442349Y-15960674D01*
X18442349Y-15960674D02*
X18461396Y-15970198D01*
X18461396Y-15970198D02*
X18470920Y-15979722D01*
X18470920Y-15979722D02*
X18480444Y-15998769D01*
X18480444Y-15998769D02*
X18480444Y-16046388D01*
X18480444Y-16046388D02*
X18470920Y-16065436D01*
X18470920Y-16065436D02*
X18461396Y-16074960D01*
X18461396Y-16074960D02*
X18442349Y-16084484D01*
X18442349Y-16084484D02*
X18394729Y-16084484D01*
X18394729Y-16084484D02*
X18375682Y-16074960D01*
X18375682Y-16074960D02*
X18366158Y-16065436D01*
X18556634Y-15884484D02*
X18556634Y-15922579D01*
X18632825Y-15884484D02*
X18632825Y-15922579D01*
X18928063Y-16160674D02*
X18918539Y-16151150D01*
X18918539Y-16151150D02*
X18899491Y-16122579D01*
X18899491Y-16122579D02*
X18889968Y-16103531D01*
X18889968Y-16103531D02*
X18880444Y-16074960D01*
X18880444Y-16074960D02*
X18870920Y-16027341D01*
X18870920Y-16027341D02*
X18870920Y-15989246D01*
X18870920Y-15989246D02*
X18880444Y-15941627D01*
X18880444Y-15941627D02*
X18889968Y-15913055D01*
X18889968Y-15913055D02*
X18899491Y-15894008D01*
X18899491Y-15894008D02*
X18918539Y-15865436D01*
X18918539Y-15865436D02*
X18928063Y-15855912D01*
X19089968Y-15951150D02*
X19089968Y-16084484D01*
X19042349Y-15874960D02*
X18994730Y-16017817D01*
X18994730Y-16017817D02*
X19118539Y-16017817D01*
X19347111Y-16084484D02*
X19347111Y-15884484D01*
X19432825Y-16084484D02*
X19432825Y-15979722D01*
X19432825Y-15979722D02*
X19423301Y-15960674D01*
X19423301Y-15960674D02*
X19404253Y-15951150D01*
X19404253Y-15951150D02*
X19375682Y-15951150D01*
X19375682Y-15951150D02*
X19356634Y-15960674D01*
X19356634Y-15960674D02*
X19347111Y-15970198D01*
X19556634Y-16084484D02*
X19537587Y-16074960D01*
X19537587Y-16074960D02*
X19528063Y-16065436D01*
X19528063Y-16065436D02*
X19518539Y-16046388D01*
X19518539Y-16046388D02*
X19518539Y-15989246D01*
X19518539Y-15989246D02*
X19528063Y-15970198D01*
X19528063Y-15970198D02*
X19537587Y-15960674D01*
X19537587Y-15960674D02*
X19556634Y-15951150D01*
X19556634Y-15951150D02*
X19585206Y-15951150D01*
X19585206Y-15951150D02*
X19604253Y-15960674D01*
X19604253Y-15960674D02*
X19613777Y-15970198D01*
X19613777Y-15970198D02*
X19623301Y-15989246D01*
X19623301Y-15989246D02*
X19623301Y-16046388D01*
X19623301Y-16046388D02*
X19613777Y-16065436D01*
X19613777Y-16065436D02*
X19604253Y-16074960D01*
X19604253Y-16074960D02*
X19585206Y-16084484D01*
X19585206Y-16084484D02*
X19556634Y-16084484D01*
X19737587Y-16084484D02*
X19718539Y-16074960D01*
X19718539Y-16074960D02*
X19709015Y-16055912D01*
X19709015Y-16055912D02*
X19709015Y-15884484D01*
X19889968Y-16074960D02*
X19870920Y-16084484D01*
X19870920Y-16084484D02*
X19832825Y-16084484D01*
X19832825Y-16084484D02*
X19813777Y-16074960D01*
X19813777Y-16074960D02*
X19804253Y-16055912D01*
X19804253Y-16055912D02*
X19804253Y-15979722D01*
X19804253Y-15979722D02*
X19813777Y-15960674D01*
X19813777Y-15960674D02*
X19832825Y-15951150D01*
X19832825Y-15951150D02*
X19870920Y-15951150D01*
X19870920Y-15951150D02*
X19889968Y-15960674D01*
X19889968Y-15960674D02*
X19899492Y-15979722D01*
X19899492Y-15979722D02*
X19899492Y-15998769D01*
X19899492Y-15998769D02*
X19804253Y-16017817D01*
X19975682Y-16074960D02*
X19994730Y-16084484D01*
X19994730Y-16084484D02*
X20032825Y-16084484D01*
X20032825Y-16084484D02*
X20051873Y-16074960D01*
X20051873Y-16074960D02*
X20061396Y-16055912D01*
X20061396Y-16055912D02*
X20061396Y-16046388D01*
X20061396Y-16046388D02*
X20051873Y-16027341D01*
X20051873Y-16027341D02*
X20032825Y-16017817D01*
X20032825Y-16017817D02*
X20004253Y-16017817D01*
X20004253Y-16017817D02*
X19985206Y-16008293D01*
X19985206Y-16008293D02*
X19975682Y-15989246D01*
X19975682Y-15989246D02*
X19975682Y-15979722D01*
X19975682Y-15979722D02*
X19985206Y-15960674D01*
X19985206Y-15960674D02*
X20004253Y-15951150D01*
X20004253Y-15951150D02*
X20032825Y-15951150D01*
X20032825Y-15951150D02*
X20051873Y-15960674D01*
X20128063Y-16160674D02*
X20137587Y-16151150D01*
X20137587Y-16151150D02*
X20156634Y-16122579D01*
X20156634Y-16122579D02*
X20166158Y-16103531D01*
X20166158Y-16103531D02*
X20175682Y-16074960D01*
X20175682Y-16074960D02*
X20185206Y-16027341D01*
X20185206Y-16027341D02*
X20185206Y-15989246D01*
X20185206Y-15989246D02*
X20175682Y-15941627D01*
X20175682Y-15941627D02*
X20166158Y-15913055D01*
X20166158Y-15913055D02*
X20156634Y-15894008D01*
X20156634Y-15894008D02*
X20137587Y-15865436D01*
X20137587Y-15865436D02*
X20128063Y-15855912D01*
D10*
X15353000Y-16257000D02*
G75*
G03*
X15353000Y-16257000I-50000J0D01*
G01*
D11*
X15718539Y-16348484D02*
X15604253Y-16348484D01*
X15661396Y-16348484D02*
X15661396Y-16148484D01*
X15661396Y-16148484D02*
X15642348Y-16177055D01*
X15642348Y-16177055D02*
X15623301Y-16196103D01*
X15623301Y-16196103D02*
X15604253Y-16205627D01*
X15804253Y-16329436D02*
X15813777Y-16338960D01*
X15813777Y-16338960D02*
X15804253Y-16348484D01*
X15804253Y-16348484D02*
X15794729Y-16338960D01*
X15794729Y-16338960D02*
X15804253Y-16329436D01*
X15804253Y-16329436D02*
X15804253Y-16348484D01*
X15937586Y-16148484D02*
X15956634Y-16148484D01*
X15956634Y-16148484D02*
X15975682Y-16158008D01*
X15975682Y-16158008D02*
X15985205Y-16167531D01*
X15985205Y-16167531D02*
X15994729Y-16186579D01*
X15994729Y-16186579D02*
X16004253Y-16224674D01*
X16004253Y-16224674D02*
X16004253Y-16272293D01*
X16004253Y-16272293D02*
X15994729Y-16310388D01*
X15994729Y-16310388D02*
X15985205Y-16329436D01*
X15985205Y-16329436D02*
X15975682Y-16338960D01*
X15975682Y-16338960D02*
X15956634Y-16348484D01*
X15956634Y-16348484D02*
X15937586Y-16348484D01*
X15937586Y-16348484D02*
X15918539Y-16338960D01*
X15918539Y-16338960D02*
X15909015Y-16329436D01*
X15909015Y-16329436D02*
X15899491Y-16310388D01*
X15899491Y-16310388D02*
X15889967Y-16272293D01*
X15889967Y-16272293D02*
X15889967Y-16224674D01*
X15889967Y-16224674D02*
X15899491Y-16186579D01*
X15899491Y-16186579D02*
X15909015Y-16167531D01*
X15909015Y-16167531D02*
X15918539Y-16158008D01*
X15918539Y-16158008D02*
X15937586Y-16148484D01*
X16128062Y-16148484D02*
X16147110Y-16148484D01*
X16147110Y-16148484D02*
X16166158Y-16158008D01*
X16166158Y-16158008D02*
X16175682Y-16167531D01*
X16175682Y-16167531D02*
X16185205Y-16186579D01*
X16185205Y-16186579D02*
X16194729Y-16224674D01*
X16194729Y-16224674D02*
X16194729Y-16272293D01*
X16194729Y-16272293D02*
X16185205Y-16310388D01*
X16185205Y-16310388D02*
X16175682Y-16329436D01*
X16175682Y-16329436D02*
X16166158Y-16338960D01*
X16166158Y-16338960D02*
X16147110Y-16348484D01*
X16147110Y-16348484D02*
X16128062Y-16348484D01*
X16128062Y-16348484D02*
X16109015Y-16338960D01*
X16109015Y-16338960D02*
X16099491Y-16329436D01*
X16099491Y-16329436D02*
X16089967Y-16310388D01*
X16089967Y-16310388D02*
X16080443Y-16272293D01*
X16080443Y-16272293D02*
X16080443Y-16224674D01*
X16080443Y-16224674D02*
X16089967Y-16186579D01*
X16089967Y-16186579D02*
X16099491Y-16167531D01*
X16099491Y-16167531D02*
X16109015Y-16158008D01*
X16109015Y-16158008D02*
X16128062Y-16148484D01*
X16318539Y-16148484D02*
X16337586Y-16148484D01*
X16337586Y-16148484D02*
X16356634Y-16158008D01*
X16356634Y-16158008D02*
X16366158Y-16167531D01*
X16366158Y-16167531D02*
X16375682Y-16186579D01*
X16375682Y-16186579D02*
X16385205Y-16224674D01*
X16385205Y-16224674D02*
X16385205Y-16272293D01*
X16385205Y-16272293D02*
X16375682Y-16310388D01*
X16375682Y-16310388D02*
X16366158Y-16329436D01*
X16366158Y-16329436D02*
X16356634Y-16338960D01*
X16356634Y-16338960D02*
X16337586Y-16348484D01*
X16337586Y-16348484D02*
X16318539Y-16348484D01*
X16318539Y-16348484D02*
X16299491Y-16338960D01*
X16299491Y-16338960D02*
X16289967Y-16329436D01*
X16289967Y-16329436D02*
X16280443Y-16310388D01*
X16280443Y-16310388D02*
X16270920Y-16272293D01*
X16270920Y-16272293D02*
X16270920Y-16224674D01*
X16270920Y-16224674D02*
X16280443Y-16186579D01*
X16280443Y-16186579D02*
X16289967Y-16167531D01*
X16289967Y-16167531D02*
X16299491Y-16158008D01*
X16299491Y-16158008D02*
X16318539Y-16148484D01*
X16470920Y-16348484D02*
X16470920Y-16215150D01*
X16470920Y-16234198D02*
X16480443Y-16224674D01*
X16480443Y-16224674D02*
X16499491Y-16215150D01*
X16499491Y-16215150D02*
X16528063Y-16215150D01*
X16528063Y-16215150D02*
X16547110Y-16224674D01*
X16547110Y-16224674D02*
X16556634Y-16243722D01*
X16556634Y-16243722D02*
X16556634Y-16348484D01*
X16556634Y-16243722D02*
X16566158Y-16224674D01*
X16566158Y-16224674D02*
X16585205Y-16215150D01*
X16585205Y-16215150D02*
X16613777Y-16215150D01*
X16613777Y-16215150D02*
X16632824Y-16224674D01*
X16632824Y-16224674D02*
X16642348Y-16243722D01*
X16642348Y-16243722D02*
X16642348Y-16348484D01*
X16737586Y-16348484D02*
X16737586Y-16215150D01*
X16737586Y-16234198D02*
X16747110Y-16224674D01*
X16747110Y-16224674D02*
X16766158Y-16215150D01*
X16766158Y-16215150D02*
X16794729Y-16215150D01*
X16794729Y-16215150D02*
X16813777Y-16224674D01*
X16813777Y-16224674D02*
X16823301Y-16243722D01*
X16823301Y-16243722D02*
X16823301Y-16348484D01*
X16823301Y-16243722D02*
X16832825Y-16224674D01*
X16832825Y-16224674D02*
X16851872Y-16215150D01*
X16851872Y-16215150D02*
X16880444Y-16215150D01*
X16880444Y-16215150D02*
X16899491Y-16224674D01*
X16899491Y-16224674D02*
X16909015Y-16243722D01*
X16909015Y-16243722D02*
X16909015Y-16348484D01*
X17299491Y-16138960D02*
X17128063Y-16396103D01*
X17556634Y-16148484D02*
X17575682Y-16148484D01*
X17575682Y-16148484D02*
X17594729Y-16158008D01*
X17594729Y-16158008D02*
X17604253Y-16167531D01*
X17604253Y-16167531D02*
X17613777Y-16186579D01*
X17613777Y-16186579D02*
X17623301Y-16224674D01*
X17623301Y-16224674D02*
X17623301Y-16272293D01*
X17623301Y-16272293D02*
X17613777Y-16310388D01*
X17613777Y-16310388D02*
X17604253Y-16329436D01*
X17604253Y-16329436D02*
X17594729Y-16338960D01*
X17594729Y-16338960D02*
X17575682Y-16348484D01*
X17575682Y-16348484D02*
X17556634Y-16348484D01*
X17556634Y-16348484D02*
X17537587Y-16338960D01*
X17537587Y-16338960D02*
X17528063Y-16329436D01*
X17528063Y-16329436D02*
X17518539Y-16310388D01*
X17518539Y-16310388D02*
X17509015Y-16272293D01*
X17509015Y-16272293D02*
X17509015Y-16224674D01*
X17509015Y-16224674D02*
X17518539Y-16186579D01*
X17518539Y-16186579D02*
X17528063Y-16167531D01*
X17528063Y-16167531D02*
X17537587Y-16158008D01*
X17537587Y-16158008D02*
X17556634Y-16148484D01*
X17709015Y-16329436D02*
X17718539Y-16338960D01*
X17718539Y-16338960D02*
X17709015Y-16348484D01*
X17709015Y-16348484D02*
X17699491Y-16338960D01*
X17699491Y-16338960D02*
X17709015Y-16329436D01*
X17709015Y-16329436D02*
X17709015Y-16348484D01*
X17842348Y-16148484D02*
X17861396Y-16148484D01*
X17861396Y-16148484D02*
X17880444Y-16158008D01*
X17880444Y-16158008D02*
X17889968Y-16167531D01*
X17889968Y-16167531D02*
X17899491Y-16186579D01*
X17899491Y-16186579D02*
X17909015Y-16224674D01*
X17909015Y-16224674D02*
X17909015Y-16272293D01*
X17909015Y-16272293D02*
X17899491Y-16310388D01*
X17899491Y-16310388D02*
X17889968Y-16329436D01*
X17889968Y-16329436D02*
X17880444Y-16338960D01*
X17880444Y-16338960D02*
X17861396Y-16348484D01*
X17861396Y-16348484D02*
X17842348Y-16348484D01*
X17842348Y-16348484D02*
X17823301Y-16338960D01*
X17823301Y-16338960D02*
X17813777Y-16329436D01*
X17813777Y-16329436D02*
X17804253Y-16310388D01*
X17804253Y-16310388D02*
X17794729Y-16272293D01*
X17794729Y-16272293D02*
X17794729Y-16224674D01*
X17794729Y-16224674D02*
X17804253Y-16186579D01*
X17804253Y-16186579D02*
X17813777Y-16167531D01*
X17813777Y-16167531D02*
X17823301Y-16158008D01*
X17823301Y-16158008D02*
X17842348Y-16148484D01*
X17975682Y-16148484D02*
X18099491Y-16148484D01*
X18099491Y-16148484D02*
X18032825Y-16224674D01*
X18032825Y-16224674D02*
X18061396Y-16224674D01*
X18061396Y-16224674D02*
X18080444Y-16234198D01*
X18080444Y-16234198D02*
X18089968Y-16243722D01*
X18089968Y-16243722D02*
X18099491Y-16262769D01*
X18099491Y-16262769D02*
X18099491Y-16310388D01*
X18099491Y-16310388D02*
X18089968Y-16329436D01*
X18089968Y-16329436D02*
X18080444Y-16338960D01*
X18080444Y-16338960D02*
X18061396Y-16348484D01*
X18061396Y-16348484D02*
X18004253Y-16348484D01*
X18004253Y-16348484D02*
X17985206Y-16338960D01*
X17985206Y-16338960D02*
X17975682Y-16329436D01*
X18194729Y-16348484D02*
X18232825Y-16348484D01*
X18232825Y-16348484D02*
X18251872Y-16338960D01*
X18251872Y-16338960D02*
X18261396Y-16329436D01*
X18261396Y-16329436D02*
X18280444Y-16300865D01*
X18280444Y-16300865D02*
X18289968Y-16262769D01*
X18289968Y-16262769D02*
X18289968Y-16186579D01*
X18289968Y-16186579D02*
X18280444Y-16167531D01*
X18280444Y-16167531D02*
X18270920Y-16158008D01*
X18270920Y-16158008D02*
X18251872Y-16148484D01*
X18251872Y-16148484D02*
X18213777Y-16148484D01*
X18213777Y-16148484D02*
X18194729Y-16158008D01*
X18194729Y-16158008D02*
X18185206Y-16167531D01*
X18185206Y-16167531D02*
X18175682Y-16186579D01*
X18175682Y-16186579D02*
X18175682Y-16234198D01*
X18175682Y-16234198D02*
X18185206Y-16253246D01*
X18185206Y-16253246D02*
X18194729Y-16262769D01*
X18194729Y-16262769D02*
X18213777Y-16272293D01*
X18213777Y-16272293D02*
X18251872Y-16272293D01*
X18251872Y-16272293D02*
X18270920Y-16262769D01*
X18270920Y-16262769D02*
X18280444Y-16253246D01*
X18280444Y-16253246D02*
X18289968Y-16234198D01*
X18461396Y-16215150D02*
X18461396Y-16348484D01*
X18413777Y-16138960D02*
X18366158Y-16281817D01*
X18366158Y-16281817D02*
X18489968Y-16281817D01*
X18556634Y-16148484D02*
X18556634Y-16186579D01*
X18632825Y-16148484D02*
X18632825Y-16186579D01*
X18928063Y-16424674D02*
X18918539Y-16415150D01*
X18918539Y-16415150D02*
X18899491Y-16386579D01*
X18899491Y-16386579D02*
X18889968Y-16367531D01*
X18889968Y-16367531D02*
X18880444Y-16338960D01*
X18880444Y-16338960D02*
X18870920Y-16291341D01*
X18870920Y-16291341D02*
X18870920Y-16253246D01*
X18870920Y-16253246D02*
X18880444Y-16205627D01*
X18880444Y-16205627D02*
X18889968Y-16177055D01*
X18889968Y-16177055D02*
X18899491Y-16158008D01*
X18899491Y-16158008D02*
X18918539Y-16129436D01*
X18918539Y-16129436D02*
X18928063Y-16119912D01*
X19089968Y-16215150D02*
X19089968Y-16348484D01*
X19042349Y-16138960D02*
X18994730Y-16281817D01*
X18994730Y-16281817D02*
X19118539Y-16281817D01*
X19223301Y-16234198D02*
X19204253Y-16224674D01*
X19204253Y-16224674D02*
X19194730Y-16215150D01*
X19194730Y-16215150D02*
X19185206Y-16196103D01*
X19185206Y-16196103D02*
X19185206Y-16186579D01*
X19185206Y-16186579D02*
X19194730Y-16167531D01*
X19194730Y-16167531D02*
X19204253Y-16158008D01*
X19204253Y-16158008D02*
X19223301Y-16148484D01*
X19223301Y-16148484D02*
X19261396Y-16148484D01*
X19261396Y-16148484D02*
X19280444Y-16158008D01*
X19280444Y-16158008D02*
X19289968Y-16167531D01*
X19289968Y-16167531D02*
X19299491Y-16186579D01*
X19299491Y-16186579D02*
X19299491Y-16196103D01*
X19299491Y-16196103D02*
X19289968Y-16215150D01*
X19289968Y-16215150D02*
X19280444Y-16224674D01*
X19280444Y-16224674D02*
X19261396Y-16234198D01*
X19261396Y-16234198D02*
X19223301Y-16234198D01*
X19223301Y-16234198D02*
X19204253Y-16243722D01*
X19204253Y-16243722D02*
X19194730Y-16253246D01*
X19194730Y-16253246D02*
X19185206Y-16272293D01*
X19185206Y-16272293D02*
X19185206Y-16310388D01*
X19185206Y-16310388D02*
X19194730Y-16329436D01*
X19194730Y-16329436D02*
X19204253Y-16338960D01*
X19204253Y-16338960D02*
X19223301Y-16348484D01*
X19223301Y-16348484D02*
X19261396Y-16348484D01*
X19261396Y-16348484D02*
X19280444Y-16338960D01*
X19280444Y-16338960D02*
X19289968Y-16329436D01*
X19289968Y-16329436D02*
X19299491Y-16310388D01*
X19299491Y-16310388D02*
X19299491Y-16272293D01*
X19299491Y-16272293D02*
X19289968Y-16253246D01*
X19289968Y-16253246D02*
X19280444Y-16243722D01*
X19280444Y-16243722D02*
X19261396Y-16234198D01*
X19537587Y-16348484D02*
X19537587Y-16148484D01*
X19623301Y-16348484D02*
X19623301Y-16243722D01*
X19623301Y-16243722D02*
X19613777Y-16224674D01*
X19613777Y-16224674D02*
X19594730Y-16215150D01*
X19594730Y-16215150D02*
X19566158Y-16215150D01*
X19566158Y-16215150D02*
X19547111Y-16224674D01*
X19547111Y-16224674D02*
X19537587Y-16234198D01*
X19747111Y-16348484D02*
X19728063Y-16338960D01*
X19728063Y-16338960D02*
X19718539Y-16329436D01*
X19718539Y-16329436D02*
X19709015Y-16310388D01*
X19709015Y-16310388D02*
X19709015Y-16253246D01*
X19709015Y-16253246D02*
X19718539Y-16234198D01*
X19718539Y-16234198D02*
X19728063Y-16224674D01*
X19728063Y-16224674D02*
X19747111Y-16215150D01*
X19747111Y-16215150D02*
X19775682Y-16215150D01*
X19775682Y-16215150D02*
X19794730Y-16224674D01*
X19794730Y-16224674D02*
X19804253Y-16234198D01*
X19804253Y-16234198D02*
X19813777Y-16253246D01*
X19813777Y-16253246D02*
X19813777Y-16310388D01*
X19813777Y-16310388D02*
X19804253Y-16329436D01*
X19804253Y-16329436D02*
X19794730Y-16338960D01*
X19794730Y-16338960D02*
X19775682Y-16348484D01*
X19775682Y-16348484D02*
X19747111Y-16348484D01*
X19928063Y-16348484D02*
X19909015Y-16338960D01*
X19909015Y-16338960D02*
X19899492Y-16319912D01*
X19899492Y-16319912D02*
X19899492Y-16148484D01*
X20080444Y-16338960D02*
X20061396Y-16348484D01*
X20061396Y-16348484D02*
X20023301Y-16348484D01*
X20023301Y-16348484D02*
X20004253Y-16338960D01*
X20004253Y-16338960D02*
X19994730Y-16319912D01*
X19994730Y-16319912D02*
X19994730Y-16243722D01*
X19994730Y-16243722D02*
X20004253Y-16224674D01*
X20004253Y-16224674D02*
X20023301Y-16215150D01*
X20023301Y-16215150D02*
X20061396Y-16215150D01*
X20061396Y-16215150D02*
X20080444Y-16224674D01*
X20080444Y-16224674D02*
X20089968Y-16243722D01*
X20089968Y-16243722D02*
X20089968Y-16262769D01*
X20089968Y-16262769D02*
X19994730Y-16281817D01*
X20166158Y-16338960D02*
X20185206Y-16348484D01*
X20185206Y-16348484D02*
X20223301Y-16348484D01*
X20223301Y-16348484D02*
X20242349Y-16338960D01*
X20242349Y-16338960D02*
X20251873Y-16319912D01*
X20251873Y-16319912D02*
X20251873Y-16310388D01*
X20251873Y-16310388D02*
X20242349Y-16291341D01*
X20242349Y-16291341D02*
X20223301Y-16281817D01*
X20223301Y-16281817D02*
X20194730Y-16281817D01*
X20194730Y-16281817D02*
X20175682Y-16272293D01*
X20175682Y-16272293D02*
X20166158Y-16253246D01*
X20166158Y-16253246D02*
X20166158Y-16243722D01*
X20166158Y-16243722D02*
X20175682Y-16224674D01*
X20175682Y-16224674D02*
X20194730Y-16215150D01*
X20194730Y-16215150D02*
X20223301Y-16215150D01*
X20223301Y-16215150D02*
X20242349Y-16224674D01*
X20318539Y-16424674D02*
X20328063Y-16415150D01*
X20328063Y-16415150D02*
X20347111Y-16386579D01*
X20347111Y-16386579D02*
X20356634Y-16367531D01*
X20356634Y-16367531D02*
X20366158Y-16338960D01*
X20366158Y-16338960D02*
X20375682Y-16291341D01*
X20375682Y-16291341D02*
X20375682Y-16253246D01*
X20375682Y-16253246D02*
X20366158Y-16205627D01*
X20366158Y-16205627D02*
X20356634Y-16177055D01*
X20356634Y-16177055D02*
X20347111Y-16158008D01*
X20347111Y-16158008D02*
X20328063Y-16129436D01*
X20328063Y-16129436D02*
X20318539Y-16119912D01*
D12*
X15297120Y-16465120D02*
X15297120Y-16576880D01*
X15241240Y-16521000D02*
X15353000Y-16521000D01*
D11*
X15718539Y-16612484D02*
X15604253Y-16612484D01*
X15661396Y-16612484D02*
X15661396Y-16412484D01*
X15661396Y-16412484D02*
X15642348Y-16441055D01*
X15642348Y-16441055D02*
X15623301Y-16460103D01*
X15623301Y-16460103D02*
X15604253Y-16469627D01*
X15804253Y-16593436D02*
X15813777Y-16602960D01*
X15813777Y-16602960D02*
X15804253Y-16612484D01*
X15804253Y-16612484D02*
X15794729Y-16602960D01*
X15794729Y-16602960D02*
X15804253Y-16593436D01*
X15804253Y-16593436D02*
X15804253Y-16612484D01*
X16004253Y-16612484D02*
X15889967Y-16612484D01*
X15947110Y-16612484D02*
X15947110Y-16412484D01*
X15947110Y-16412484D02*
X15928062Y-16441055D01*
X15928062Y-16441055D02*
X15909015Y-16460103D01*
X15909015Y-16460103D02*
X15889967Y-16469627D01*
X16194729Y-16612484D02*
X16080443Y-16612484D01*
X16137586Y-16612484D02*
X16137586Y-16412484D01*
X16137586Y-16412484D02*
X16118539Y-16441055D01*
X16118539Y-16441055D02*
X16099491Y-16460103D01*
X16099491Y-16460103D02*
X16080443Y-16469627D01*
X16309015Y-16498198D02*
X16289967Y-16488674D01*
X16289967Y-16488674D02*
X16280443Y-16479150D01*
X16280443Y-16479150D02*
X16270920Y-16460103D01*
X16270920Y-16460103D02*
X16270920Y-16450579D01*
X16270920Y-16450579D02*
X16280443Y-16431531D01*
X16280443Y-16431531D02*
X16289967Y-16422008D01*
X16289967Y-16422008D02*
X16309015Y-16412484D01*
X16309015Y-16412484D02*
X16347110Y-16412484D01*
X16347110Y-16412484D02*
X16366158Y-16422008D01*
X16366158Y-16422008D02*
X16375682Y-16431531D01*
X16375682Y-16431531D02*
X16385205Y-16450579D01*
X16385205Y-16450579D02*
X16385205Y-16460103D01*
X16385205Y-16460103D02*
X16375682Y-16479150D01*
X16375682Y-16479150D02*
X16366158Y-16488674D01*
X16366158Y-16488674D02*
X16347110Y-16498198D01*
X16347110Y-16498198D02*
X16309015Y-16498198D01*
X16309015Y-16498198D02*
X16289967Y-16507722D01*
X16289967Y-16507722D02*
X16280443Y-16517246D01*
X16280443Y-16517246D02*
X16270920Y-16536293D01*
X16270920Y-16536293D02*
X16270920Y-16574388D01*
X16270920Y-16574388D02*
X16280443Y-16593436D01*
X16280443Y-16593436D02*
X16289967Y-16602960D01*
X16289967Y-16602960D02*
X16309015Y-16612484D01*
X16309015Y-16612484D02*
X16347110Y-16612484D01*
X16347110Y-16612484D02*
X16366158Y-16602960D01*
X16366158Y-16602960D02*
X16375682Y-16593436D01*
X16375682Y-16593436D02*
X16385205Y-16574388D01*
X16385205Y-16574388D02*
X16385205Y-16536293D01*
X16385205Y-16536293D02*
X16375682Y-16517246D01*
X16375682Y-16517246D02*
X16366158Y-16507722D01*
X16366158Y-16507722D02*
X16347110Y-16498198D01*
X16470920Y-16612484D02*
X16470920Y-16479150D01*
X16470920Y-16498198D02*
X16480443Y-16488674D01*
X16480443Y-16488674D02*
X16499491Y-16479150D01*
X16499491Y-16479150D02*
X16528063Y-16479150D01*
X16528063Y-16479150D02*
X16547110Y-16488674D01*
X16547110Y-16488674D02*
X16556634Y-16507722D01*
X16556634Y-16507722D02*
X16556634Y-16612484D01*
X16556634Y-16507722D02*
X16566158Y-16488674D01*
X16566158Y-16488674D02*
X16585205Y-16479150D01*
X16585205Y-16479150D02*
X16613777Y-16479150D01*
X16613777Y-16479150D02*
X16632824Y-16488674D01*
X16632824Y-16488674D02*
X16642348Y-16507722D01*
X16642348Y-16507722D02*
X16642348Y-16612484D01*
X16737586Y-16612484D02*
X16737586Y-16479150D01*
X16737586Y-16498198D02*
X16747110Y-16488674D01*
X16747110Y-16488674D02*
X16766158Y-16479150D01*
X16766158Y-16479150D02*
X16794729Y-16479150D01*
X16794729Y-16479150D02*
X16813777Y-16488674D01*
X16813777Y-16488674D02*
X16823301Y-16507722D01*
X16823301Y-16507722D02*
X16823301Y-16612484D01*
X16823301Y-16507722D02*
X16832825Y-16488674D01*
X16832825Y-16488674D02*
X16851872Y-16479150D01*
X16851872Y-16479150D02*
X16880444Y-16479150D01*
X16880444Y-16479150D02*
X16899491Y-16488674D01*
X16899491Y-16488674D02*
X16909015Y-16507722D01*
X16909015Y-16507722D02*
X16909015Y-16612484D01*
X17299491Y-16402960D02*
X17128063Y-16660103D01*
X17556634Y-16412484D02*
X17575682Y-16412484D01*
X17575682Y-16412484D02*
X17594729Y-16422008D01*
X17594729Y-16422008D02*
X17604253Y-16431531D01*
X17604253Y-16431531D02*
X17613777Y-16450579D01*
X17613777Y-16450579D02*
X17623301Y-16488674D01*
X17623301Y-16488674D02*
X17623301Y-16536293D01*
X17623301Y-16536293D02*
X17613777Y-16574388D01*
X17613777Y-16574388D02*
X17604253Y-16593436D01*
X17604253Y-16593436D02*
X17594729Y-16602960D01*
X17594729Y-16602960D02*
X17575682Y-16612484D01*
X17575682Y-16612484D02*
X17556634Y-16612484D01*
X17556634Y-16612484D02*
X17537587Y-16602960D01*
X17537587Y-16602960D02*
X17528063Y-16593436D01*
X17528063Y-16593436D02*
X17518539Y-16574388D01*
X17518539Y-16574388D02*
X17509015Y-16536293D01*
X17509015Y-16536293D02*
X17509015Y-16488674D01*
X17509015Y-16488674D02*
X17518539Y-16450579D01*
X17518539Y-16450579D02*
X17528063Y-16431531D01*
X17528063Y-16431531D02*
X17537587Y-16422008D01*
X17537587Y-16422008D02*
X17556634Y-16412484D01*
X17709015Y-16593436D02*
X17718539Y-16602960D01*
X17718539Y-16602960D02*
X17709015Y-16612484D01*
X17709015Y-16612484D02*
X17699491Y-16602960D01*
X17699491Y-16602960D02*
X17709015Y-16593436D01*
X17709015Y-16593436D02*
X17709015Y-16612484D01*
X17842348Y-16412484D02*
X17861396Y-16412484D01*
X17861396Y-16412484D02*
X17880444Y-16422008D01*
X17880444Y-16422008D02*
X17889968Y-16431531D01*
X17889968Y-16431531D02*
X17899491Y-16450579D01*
X17899491Y-16450579D02*
X17909015Y-16488674D01*
X17909015Y-16488674D02*
X17909015Y-16536293D01*
X17909015Y-16536293D02*
X17899491Y-16574388D01*
X17899491Y-16574388D02*
X17889968Y-16593436D01*
X17889968Y-16593436D02*
X17880444Y-16602960D01*
X17880444Y-16602960D02*
X17861396Y-16612484D01*
X17861396Y-16612484D02*
X17842348Y-16612484D01*
X17842348Y-16612484D02*
X17823301Y-16602960D01*
X17823301Y-16602960D02*
X17813777Y-16593436D01*
X17813777Y-16593436D02*
X17804253Y-16574388D01*
X17804253Y-16574388D02*
X17794729Y-16536293D01*
X17794729Y-16536293D02*
X17794729Y-16488674D01*
X17794729Y-16488674D02*
X17804253Y-16450579D01*
X17804253Y-16450579D02*
X17813777Y-16431531D01*
X17813777Y-16431531D02*
X17823301Y-16422008D01*
X17823301Y-16422008D02*
X17842348Y-16412484D01*
X18080444Y-16479150D02*
X18080444Y-16612484D01*
X18032825Y-16402960D02*
X17985206Y-16545817D01*
X17985206Y-16545817D02*
X18109015Y-16545817D01*
X18270920Y-16479150D02*
X18270920Y-16612484D01*
X18223301Y-16402960D02*
X18175682Y-16545817D01*
X18175682Y-16545817D02*
X18299491Y-16545817D01*
X18413777Y-16412484D02*
X18432825Y-16412484D01*
X18432825Y-16412484D02*
X18451872Y-16422008D01*
X18451872Y-16422008D02*
X18461396Y-16431531D01*
X18461396Y-16431531D02*
X18470920Y-16450579D01*
X18470920Y-16450579D02*
X18480444Y-16488674D01*
X18480444Y-16488674D02*
X18480444Y-16536293D01*
X18480444Y-16536293D02*
X18470920Y-16574388D01*
X18470920Y-16574388D02*
X18461396Y-16593436D01*
X18461396Y-16593436D02*
X18451872Y-16602960D01*
X18451872Y-16602960D02*
X18432825Y-16612484D01*
X18432825Y-16612484D02*
X18413777Y-16612484D01*
X18413777Y-16612484D02*
X18394729Y-16602960D01*
X18394729Y-16602960D02*
X18385206Y-16593436D01*
X18385206Y-16593436D02*
X18375682Y-16574388D01*
X18375682Y-16574388D02*
X18366158Y-16536293D01*
X18366158Y-16536293D02*
X18366158Y-16488674D01*
X18366158Y-16488674D02*
X18375682Y-16450579D01*
X18375682Y-16450579D02*
X18385206Y-16431531D01*
X18385206Y-16431531D02*
X18394729Y-16422008D01*
X18394729Y-16422008D02*
X18413777Y-16412484D01*
X18556634Y-16412484D02*
X18556634Y-16450579D01*
X18632825Y-16412484D02*
X18632825Y-16450579D01*
X18928063Y-16688674D02*
X18918539Y-16679150D01*
X18918539Y-16679150D02*
X18899491Y-16650579D01*
X18899491Y-16650579D02*
X18889968Y-16631531D01*
X18889968Y-16631531D02*
X18880444Y-16602960D01*
X18880444Y-16602960D02*
X18870920Y-16555341D01*
X18870920Y-16555341D02*
X18870920Y-16517246D01*
X18870920Y-16517246D02*
X18880444Y-16469627D01*
X18880444Y-16469627D02*
X18889968Y-16441055D01*
X18889968Y-16441055D02*
X18899491Y-16422008D01*
X18899491Y-16422008D02*
X18918539Y-16393436D01*
X18918539Y-16393436D02*
X18928063Y-16383912D01*
X19109015Y-16612484D02*
X18994730Y-16612484D01*
X19051872Y-16612484D02*
X19051872Y-16412484D01*
X19051872Y-16412484D02*
X19032825Y-16441055D01*
X19032825Y-16441055D02*
X19013777Y-16460103D01*
X19013777Y-16460103D02*
X18994730Y-16469627D01*
X19185206Y-16431531D02*
X19194730Y-16422008D01*
X19194730Y-16422008D02*
X19213777Y-16412484D01*
X19213777Y-16412484D02*
X19261396Y-16412484D01*
X19261396Y-16412484D02*
X19280444Y-16422008D01*
X19280444Y-16422008D02*
X19289968Y-16431531D01*
X19289968Y-16431531D02*
X19299491Y-16450579D01*
X19299491Y-16450579D02*
X19299491Y-16469627D01*
X19299491Y-16469627D02*
X19289968Y-16498198D01*
X19289968Y-16498198D02*
X19175682Y-16612484D01*
X19175682Y-16612484D02*
X19299491Y-16612484D01*
X19537587Y-16612484D02*
X19537587Y-16412484D01*
X19623301Y-16612484D02*
X19623301Y-16507722D01*
X19623301Y-16507722D02*
X19613777Y-16488674D01*
X19613777Y-16488674D02*
X19594730Y-16479150D01*
X19594730Y-16479150D02*
X19566158Y-16479150D01*
X19566158Y-16479150D02*
X19547111Y-16488674D01*
X19547111Y-16488674D02*
X19537587Y-16498198D01*
X19747111Y-16612484D02*
X19728063Y-16602960D01*
X19728063Y-16602960D02*
X19718539Y-16593436D01*
X19718539Y-16593436D02*
X19709015Y-16574388D01*
X19709015Y-16574388D02*
X19709015Y-16517246D01*
X19709015Y-16517246D02*
X19718539Y-16498198D01*
X19718539Y-16498198D02*
X19728063Y-16488674D01*
X19728063Y-16488674D02*
X19747111Y-16479150D01*
X19747111Y-16479150D02*
X19775682Y-16479150D01*
X19775682Y-16479150D02*
X19794730Y-16488674D01*
X19794730Y-16488674D02*
X19804253Y-16498198D01*
X19804253Y-16498198D02*
X19813777Y-16517246D01*
X19813777Y-16517246D02*
X19813777Y-16574388D01*
X19813777Y-16574388D02*
X19804253Y-16593436D01*
X19804253Y-16593436D02*
X19794730Y-16602960D01*
X19794730Y-16602960D02*
X19775682Y-16612484D01*
X19775682Y-16612484D02*
X19747111Y-16612484D01*
X19928063Y-16612484D02*
X19909015Y-16602960D01*
X19909015Y-16602960D02*
X19899492Y-16583912D01*
X19899492Y-16583912D02*
X19899492Y-16412484D01*
X20080444Y-16602960D02*
X20061396Y-16612484D01*
X20061396Y-16612484D02*
X20023301Y-16612484D01*
X20023301Y-16612484D02*
X20004253Y-16602960D01*
X20004253Y-16602960D02*
X19994730Y-16583912D01*
X19994730Y-16583912D02*
X19994730Y-16507722D01*
X19994730Y-16507722D02*
X20004253Y-16488674D01*
X20004253Y-16488674D02*
X20023301Y-16479150D01*
X20023301Y-16479150D02*
X20061396Y-16479150D01*
X20061396Y-16479150D02*
X20080444Y-16488674D01*
X20080444Y-16488674D02*
X20089968Y-16507722D01*
X20089968Y-16507722D02*
X20089968Y-16526769D01*
X20089968Y-16526769D02*
X19994730Y-16545817D01*
X20166158Y-16602960D02*
X20185206Y-16612484D01*
X20185206Y-16612484D02*
X20223301Y-16612484D01*
X20223301Y-16612484D02*
X20242349Y-16602960D01*
X20242349Y-16602960D02*
X20251873Y-16583912D01*
X20251873Y-16583912D02*
X20251873Y-16574388D01*
X20251873Y-16574388D02*
X20242349Y-16555341D01*
X20242349Y-16555341D02*
X20223301Y-16545817D01*
X20223301Y-16545817D02*
X20194730Y-16545817D01*
X20194730Y-16545817D02*
X20175682Y-16536293D01*
X20175682Y-16536293D02*
X20166158Y-16517246D01*
X20166158Y-16517246D02*
X20166158Y-16507722D01*
X20166158Y-16507722D02*
X20175682Y-16488674D01*
X20175682Y-16488674D02*
X20194730Y-16479150D01*
X20194730Y-16479150D02*
X20223301Y-16479150D01*
X20223301Y-16479150D02*
X20242349Y-16488674D01*
X20318539Y-16688674D02*
X20328063Y-16679150D01*
X20328063Y-16679150D02*
X20347111Y-16650579D01*
X20347111Y-16650579D02*
X20356634Y-16631531D01*
X20356634Y-16631531D02*
X20366158Y-16602960D01*
X20366158Y-16602960D02*
X20375682Y-16555341D01*
X20375682Y-16555341D02*
X20375682Y-16517246D01*
X20375682Y-16517246D02*
X20366158Y-16469627D01*
X20366158Y-16469627D02*
X20356634Y-16441055D01*
X20356634Y-16441055D02*
X20347111Y-16422008D01*
X20347111Y-16422008D02*
X20328063Y-16393436D01*
X20328063Y-16393436D02*
X20318539Y-16383912D01*
M02*
