%TF.GenerationSoftware,KiCad,Pcbnew,7.0.9*%
%TF.CreationDate,2024-01-09T15:59:06+02:00*%
%TF.ProjectId,PCB,5043422e-6b69-4636-9164-5f7063625858,rev?*%
%TF.SameCoordinates,Original*%
%TF.FileFunction,Drillmap*%
%TF.FilePolarity,Positive*%
%FSLAX45Y45*%
G04 Gerber Fmt 4.5, Leading zero omitted, Abs format (unit mm)*
G04 Created by KiCad (PCBNEW 7.0.9) date 2024-01-09 15:59:06*
%MOMM*%
%LPD*%
G01*
G04 APERTURE LIST*
%ADD10C,0.100000*%
%ADD11C,0.200000*%
G04 APERTURE END LIST*
D10*
X15358000Y-7848000D02*
X23358000Y-7848000D01*
X23358000Y-15348000D01*
X15358000Y-15348000D01*
X15358000Y-7848000D01*
D11*
X15613777Y-15664484D02*
X15613777Y-15464484D01*
X15613777Y-15464484D02*
X15661396Y-15464484D01*
X15661396Y-15464484D02*
X15689967Y-15474008D01*
X15689967Y-15474008D02*
X15709015Y-15493055D01*
X15709015Y-15493055D02*
X15718539Y-15512103D01*
X15718539Y-15512103D02*
X15728062Y-15550198D01*
X15728062Y-15550198D02*
X15728062Y-15578769D01*
X15728062Y-15578769D02*
X15718539Y-15616865D01*
X15718539Y-15616865D02*
X15709015Y-15635912D01*
X15709015Y-15635912D02*
X15689967Y-15654960D01*
X15689967Y-15654960D02*
X15661396Y-15664484D01*
X15661396Y-15664484D02*
X15613777Y-15664484D01*
X15813777Y-15664484D02*
X15813777Y-15531150D01*
X15813777Y-15569246D02*
X15823301Y-15550198D01*
X15823301Y-15550198D02*
X15832824Y-15540674D01*
X15832824Y-15540674D02*
X15851872Y-15531150D01*
X15851872Y-15531150D02*
X15870920Y-15531150D01*
X15937586Y-15664484D02*
X15937586Y-15531150D01*
X15937586Y-15464484D02*
X15928062Y-15474008D01*
X15928062Y-15474008D02*
X15937586Y-15483531D01*
X15937586Y-15483531D02*
X15947110Y-15474008D01*
X15947110Y-15474008D02*
X15937586Y-15464484D01*
X15937586Y-15464484D02*
X15937586Y-15483531D01*
X16061396Y-15664484D02*
X16042348Y-15654960D01*
X16042348Y-15654960D02*
X16032824Y-15635912D01*
X16032824Y-15635912D02*
X16032824Y-15464484D01*
X16166158Y-15664484D02*
X16147110Y-15654960D01*
X16147110Y-15654960D02*
X16137586Y-15635912D01*
X16137586Y-15635912D02*
X16137586Y-15464484D01*
X16394729Y-15664484D02*
X16394729Y-15464484D01*
X16394729Y-15464484D02*
X16461396Y-15607341D01*
X16461396Y-15607341D02*
X16528062Y-15464484D01*
X16528062Y-15464484D02*
X16528062Y-15664484D01*
X16709015Y-15664484D02*
X16709015Y-15559722D01*
X16709015Y-15559722D02*
X16699491Y-15540674D01*
X16699491Y-15540674D02*
X16680443Y-15531150D01*
X16680443Y-15531150D02*
X16642348Y-15531150D01*
X16642348Y-15531150D02*
X16623301Y-15540674D01*
X16709015Y-15654960D02*
X16689967Y-15664484D01*
X16689967Y-15664484D02*
X16642348Y-15664484D01*
X16642348Y-15664484D02*
X16623301Y-15654960D01*
X16623301Y-15654960D02*
X16613777Y-15635912D01*
X16613777Y-15635912D02*
X16613777Y-15616865D01*
X16613777Y-15616865D02*
X16623301Y-15597817D01*
X16623301Y-15597817D02*
X16642348Y-15588293D01*
X16642348Y-15588293D02*
X16689967Y-15588293D01*
X16689967Y-15588293D02*
X16709015Y-15578769D01*
X16804253Y-15531150D02*
X16804253Y-15731150D01*
X16804253Y-15540674D02*
X16823301Y-15531150D01*
X16823301Y-15531150D02*
X16861396Y-15531150D01*
X16861396Y-15531150D02*
X16880444Y-15540674D01*
X16880444Y-15540674D02*
X16889967Y-15550198D01*
X16889967Y-15550198D02*
X16899491Y-15569246D01*
X16899491Y-15569246D02*
X16899491Y-15626388D01*
X16899491Y-15626388D02*
X16889967Y-15645436D01*
X16889967Y-15645436D02*
X16880444Y-15654960D01*
X16880444Y-15654960D02*
X16861396Y-15664484D01*
X16861396Y-15664484D02*
X16823301Y-15664484D01*
X16823301Y-15664484D02*
X16804253Y-15654960D01*
X16985205Y-15645436D02*
X16994729Y-15654960D01*
X16994729Y-15654960D02*
X16985205Y-15664484D01*
X16985205Y-15664484D02*
X16975682Y-15654960D01*
X16975682Y-15654960D02*
X16985205Y-15645436D01*
X16985205Y-15645436D02*
X16985205Y-15664484D01*
X16985205Y-15540674D02*
X16994729Y-15550198D01*
X16994729Y-15550198D02*
X16985205Y-15559722D01*
X16985205Y-15559722D02*
X16975682Y-15550198D01*
X16975682Y-15550198D02*
X16985205Y-15540674D01*
X16985205Y-15540674D02*
X16985205Y-15559722D01*
M02*
