%TF.GenerationSoftware,KiCad,Pcbnew,7.0.9*%
%TF.CreationDate,2024-01-09T15:56:44+02:00*%
%TF.ProjectId,PCB,5043422e-6b69-4636-9164-5f7063625858,rev?*%
%TF.SameCoordinates,Original*%
%TF.FileFunction,Copper,L2,Bot*%
%TF.FilePolarity,Positive*%
%FSLAX46Y46*%
G04 Gerber Fmt 4.6, Leading zero omitted, Abs format (unit mm)*
G04 Created by KiCad (PCBNEW 7.0.9) date 2024-01-09 15:56:44*
%MOMM*%
%LPD*%
G01*
G04 APERTURE LIST*
%TA.AperFunction,ComponentPad*%
%ADD10C,1.625600*%
%TD*%
%TA.AperFunction,ComponentPad*%
%ADD11C,1.600000*%
%TD*%
%TA.AperFunction,ComponentPad*%
%ADD12O,1.600000X1.600000*%
%TD*%
%TA.AperFunction,ComponentPad*%
%ADD13O,1.700000X1.700000*%
%TD*%
%TA.AperFunction,ComponentPad*%
%ADD14R,1.700000X1.700000*%
%TD*%
%TA.AperFunction,ComponentPad*%
%ADD15C,1.700000*%
%TD*%
%TA.AperFunction,ComponentPad*%
%ADD16R,1.600000X1.600000*%
%TD*%
%TA.AperFunction,Conductor*%
%ADD17C,0.250000*%
%TD*%
G04 APERTURE END LIST*
D10*
%TO.P,J1,1,1*%
%TO.N,WEAPON*%
X222790000Y-143810000D03*
%TO.P,J1,2,2*%
%TO.N,GND*%
X227790000Y-143810000D03*
%TD*%
%TO.P,J4,1,1*%
%TO.N,+3.3V*%
X158730000Y-143810000D03*
%TO.P,J4,2,2*%
%TO.N,LEFT*%
X163730000Y-143810000D03*
%TD*%
D11*
%TO.P,C1,1*%
%TO.N,+3.3V*%
X163990000Y-86120000D03*
D12*
%TO.P,C1,2*%
%TO.N,GND*%
X156490000Y-86120000D03*
%TD*%
D10*
%TO.P,J5,1,1*%
%TO.N,GND*%
X171545100Y-143810000D03*
%TO.P,J5,2,2*%
%TO.N,+3.3V*%
X176545100Y-143810000D03*
%TD*%
%TO.P,J2,1,1*%
%TO.N,HAND_UP*%
X209980000Y-143810000D03*
%TO.P,J2,2,2*%
%TO.N,GND*%
X214980000Y-143810000D03*
%TD*%
D13*
%TO.P,U1,1,VBAT*%
%TO.N,unconnected-(U1-VBAT-Pad1)*%
X169790000Y-125610000D03*
%TO.P,U1,2,PC13*%
%TO.N,unconnected-(U1-PC13-Pad2)*%
X172330000Y-125610000D03*
%TO.P,U1,3,PC14*%
%TO.N,unconnected-(U1-PC14-Pad3)*%
X174870000Y-125610000D03*
%TO.P,U1,3v,3V3*%
%TO.N,+3.3V*%
X169790000Y-111035000D03*
X212970000Y-125610000D03*
%TO.P,U1,4,PC15*%
%TO.N,unconnected-(U1-PC15-Pad4)*%
X177410000Y-125610000D03*
%TO.P,U1,5v,5V*%
%TO.N,+5V*%
X174870000Y-111035000D03*
%TO.P,U1,7,NRST*%
%TO.N,unconnected-(U1-NRST-Pad7)*%
X210430000Y-125610000D03*
%TO.P,U1,10,PA0*%
%TO.N,LEFT*%
X179950000Y-125610000D03*
%TO.P,U1,11,PA1*%
%TO.N,RIGHT*%
X182490000Y-125610000D03*
%TO.P,U1,12,PA2*%
%TO.N,HAND_DOWN*%
X185030000Y-125610000D03*
%TO.P,U1,13,PA3*%
%TO.N,HAND_UP*%
X187570000Y-125610000D03*
%TO.P,U1,14,PA4*%
%TO.N,WEAPON*%
X190110000Y-125610000D03*
%TO.P,U1,15,PA5*%
%TO.N,unconnected-(U1-PA5-Pad15)*%
X192650000Y-125610000D03*
%TO.P,U1,16,PA6*%
%TO.N,unconnected-(U1-PA6-Pad16)*%
X195190000Y-125610000D03*
%TO.P,U1,17,PA7*%
%TO.N,unconnected-(U1-PA7-Pad17)*%
X197730000Y-125610000D03*
%TO.P,U1,18,PB0*%
%TO.N,unconnected-(U1-PB0-Pad18)*%
X200270000Y-125610000D03*
%TO.P,U1,19,PB1*%
%TO.N,unconnected-(U1-PB1-Pad19)*%
X202810000Y-125610000D03*
%TO.P,U1,21,PB10*%
%TO.N,unconnected-(U1-PB10-Pad21)*%
X205350000Y-125610000D03*
%TO.P,U1,22,PB11*%
%TO.N,unconnected-(U1-PB11-Pad22)*%
X207890000Y-125610000D03*
D14*
%TO.P,U1,25,PB12*%
%TO.N,unconnected-(U1-PB12-Pad25)*%
X218050000Y-111035000D03*
D13*
%TO.P,U1,26,PB13*%
%TO.N,unconnected-(U1-PB13-Pad26)*%
X215510000Y-111035000D03*
%TO.P,U1,27,PB14*%
%TO.N,unconnected-(U1-PB14-Pad27)*%
X212970000Y-111035000D03*
%TO.P,U1,28,PB15*%
%TO.N,unconnected-(U1-PB15-Pad28)*%
X210430000Y-111035000D03*
%TO.P,U1,29,PA8*%
%TO.N,unconnected-(U1-PA8-Pad29)*%
X207890000Y-111035000D03*
%TO.P,U1,30,PA9*%
%TO.N,PA9*%
X205350000Y-111035000D03*
%TO.P,U1,31,PA10*%
%TO.N,PA10*%
X202810000Y-111035000D03*
%TO.P,U1,32,PA11*%
%TO.N,unconnected-(U1-PA11-Pad32)*%
X200270000Y-111035000D03*
%TO.P,U1,33,PA12*%
%TO.N,unconnected-(U1-PA12-Pad33)*%
X197730000Y-111035000D03*
%TO.P,U1,38,PA15*%
%TO.N,PA15*%
X195190000Y-111035000D03*
%TO.P,U1,39,PB3*%
%TO.N,PB3*%
X192650000Y-111035000D03*
%TO.P,U1,40,PB4*%
%TO.N,PB4*%
X190110000Y-111035000D03*
%TO.P,U1,41,PB5*%
%TO.N,PB5*%
X187570000Y-111035000D03*
%TO.P,U1,42,PB6*%
%TO.N,unconnected-(U1-PB6-Pad42)*%
X185030000Y-111035000D03*
%TO.P,U1,43,PB7*%
%TO.N,unconnected-(U1-PB7-Pad43)*%
X182490000Y-111035000D03*
%TO.P,U1,45,PB8*%
%TO.N,unconnected-(U1-PB8-Pad45)*%
X179950000Y-111035000D03*
%TO.P,U1,46,PB9*%
%TO.N,unconnected-(U1-PB9-Pad46)*%
X177410000Y-111035000D03*
%TO.P,U1,G,GND*%
%TO.N,GND*%
X172330000Y-111035000D03*
D14*
X218050000Y-125610000D03*
D13*
X215510000Y-125610000D03*
%TD*%
D14*
%TO.P,U2,1,GND*%
%TO.N,GND*%
X170000000Y-84520000D03*
D15*
%TO.P,U2,2,VCC*%
%TO.N,+3.3V*%
X172540000Y-84520000D03*
%TO.P,U2,3,CE*%
%TO.N,PA10*%
X170000000Y-87060000D03*
%TO.P,U2,4,~{CSN}*%
%TO.N,PA15*%
X172540000Y-87060000D03*
%TO.P,U2,5,SCK*%
%TO.N,PB3*%
X170000000Y-89600000D03*
%TO.P,U2,6,MOSI*%
%TO.N,PB5*%
X172540000Y-89600000D03*
%TO.P,U2,7,MISO*%
%TO.N,PB4*%
X170000000Y-92140000D03*
%TO.P,U2,8,IRQ*%
%TO.N,PA9*%
X172540000Y-92140000D03*
%TD*%
D16*
%TO.P,C2,1*%
%TO.N,+3.3V*%
X163040000Y-93020000D03*
D11*
%TO.P,C2,2*%
%TO.N,GND*%
X161040000Y-93020000D03*
%TD*%
D10*
%TO.P,J6,1,1*%
%TO.N,RIGHT*%
X184360000Y-143810000D03*
%TO.P,J6,2,2*%
%TO.N,GND*%
X189360000Y-143810000D03*
%TD*%
%TO.P,J3,1,1*%
%TO.N,HAND_DOWN*%
X197170000Y-143810000D03*
%TO.P,J3,2,2*%
%TO.N,GND*%
X202170000Y-143810000D03*
%TD*%
D17*
%TO.N,PA9*%
X205350000Y-111035000D02*
X205350000Y-106940000D01*
X192410000Y-94000000D02*
X177380000Y-94000000D01*
X175520000Y-92140000D02*
X172540000Y-92140000D01*
X177380000Y-94000000D02*
X175520000Y-92140000D01*
X205350000Y-106940000D02*
X192410000Y-94000000D01*
%TD*%
%TA.AperFunction,Conductor*%
%TO.N,GND*%
G36*
X217590507Y-125400156D02*
G01*
X217550000Y-125538111D01*
X217550000Y-125681889D01*
X217590507Y-125819844D01*
X217616314Y-125860000D01*
X215943686Y-125860000D01*
X215969493Y-125819844D01*
X216010000Y-125681889D01*
X216010000Y-125538111D01*
X215969493Y-125400156D01*
X215943686Y-125360000D01*
X217616314Y-125360000D01*
X217590507Y-125400156D01*
G37*
%TD.AperFunction*%
%TA.AperFunction,Conductor*%
G36*
X233522539Y-78500185D02*
G01*
X233568294Y-78552989D01*
X233579500Y-78604500D01*
X233579500Y-153355500D01*
X233559815Y-153422539D01*
X233507011Y-153468294D01*
X233455500Y-153479500D01*
X153704500Y-153479500D01*
X153637461Y-153459815D01*
X153591706Y-153407011D01*
X153580500Y-153355500D01*
X153580500Y-143810001D01*
X157411683Y-143810001D01*
X157431710Y-144038917D01*
X157431712Y-144038928D01*
X157491184Y-144260883D01*
X157491186Y-144260887D01*
X157491187Y-144260891D01*
X157588304Y-144469159D01*
X157720111Y-144657398D01*
X157882602Y-144819889D01*
X158070841Y-144951696D01*
X158279109Y-145048813D01*
X158501077Y-145108289D01*
X158664593Y-145122594D01*
X158729998Y-145128317D01*
X158730000Y-145128317D01*
X158730002Y-145128317D01*
X158787230Y-145123310D01*
X158958923Y-145108289D01*
X159180891Y-145048813D01*
X159389159Y-144951696D01*
X159577398Y-144819889D01*
X159739889Y-144657398D01*
X159871696Y-144469159D01*
X159968813Y-144260891D01*
X160028289Y-144038923D01*
X160048317Y-143810001D01*
X162411683Y-143810001D01*
X162431710Y-144038917D01*
X162431712Y-144038928D01*
X162491184Y-144260883D01*
X162491186Y-144260887D01*
X162491187Y-144260891D01*
X162588304Y-144469159D01*
X162720111Y-144657398D01*
X162882602Y-144819889D01*
X163070841Y-144951696D01*
X163279109Y-145048813D01*
X163501077Y-145108289D01*
X163664593Y-145122594D01*
X163729998Y-145128317D01*
X163730000Y-145128317D01*
X163730002Y-145128317D01*
X163787230Y-145123310D01*
X163958923Y-145108289D01*
X164180891Y-145048813D01*
X164389159Y-144951696D01*
X164577398Y-144819889D01*
X164739889Y-144657398D01*
X164871696Y-144469159D01*
X164968813Y-144260891D01*
X165028289Y-144038923D01*
X165048317Y-143810000D01*
X170227285Y-143810000D01*
X170247305Y-144038831D01*
X170247307Y-144038841D01*
X170306756Y-144260711D01*
X170306760Y-144260720D01*
X170403838Y-144468907D01*
X170456883Y-144544662D01*
X171011728Y-143989817D01*
X171013614Y-143998890D01*
X171084285Y-144135279D01*
X171189132Y-144247543D01*
X171320380Y-144327357D01*
X171367963Y-144340689D01*
X170810436Y-144898216D01*
X170886188Y-144951259D01*
X170886196Y-144951263D01*
X171094374Y-145048338D01*
X171094388Y-145048343D01*
X171316258Y-145107792D01*
X171316268Y-145107794D01*
X171545099Y-145127815D01*
X171545101Y-145127815D01*
X171773931Y-145107794D01*
X171773941Y-145107792D01*
X171995811Y-145048343D01*
X171995825Y-145048338D01*
X172204005Y-144951262D01*
X172204009Y-144951260D01*
X172279762Y-144898215D01*
X171723357Y-144341809D01*
X171838173Y-144291939D01*
X171957331Y-144194997D01*
X172045915Y-144069502D01*
X172075345Y-143986692D01*
X172633315Y-144544662D01*
X172686360Y-144468909D01*
X172686362Y-144468905D01*
X172783438Y-144260725D01*
X172783443Y-144260711D01*
X172842892Y-144038841D01*
X172842894Y-144038831D01*
X172862915Y-143810001D01*
X175226783Y-143810001D01*
X175246810Y-144038917D01*
X175246812Y-144038928D01*
X175306284Y-144260883D01*
X175306286Y-144260887D01*
X175306287Y-144260891D01*
X175403404Y-144469159D01*
X175535211Y-144657398D01*
X175697702Y-144819889D01*
X175885941Y-144951696D01*
X176094209Y-145048813D01*
X176316177Y-145108289D01*
X176479693Y-145122594D01*
X176545098Y-145128317D01*
X176545100Y-145128317D01*
X176545102Y-145128317D01*
X176602330Y-145123310D01*
X176774023Y-145108289D01*
X176995991Y-145048813D01*
X177204259Y-144951696D01*
X177392498Y-144819889D01*
X177554989Y-144657398D01*
X177686796Y-144469159D01*
X177783913Y-144260891D01*
X177843389Y-144038923D01*
X177863417Y-143810001D01*
X183041683Y-143810001D01*
X183061710Y-144038917D01*
X183061712Y-144038928D01*
X183121184Y-144260883D01*
X183121186Y-144260887D01*
X183121187Y-144260891D01*
X183218304Y-144469159D01*
X183350111Y-144657398D01*
X183512602Y-144819889D01*
X183700841Y-144951696D01*
X183909109Y-145048813D01*
X184131077Y-145108289D01*
X184294593Y-145122594D01*
X184359998Y-145128317D01*
X184360000Y-145128317D01*
X184360002Y-145128317D01*
X184417230Y-145123310D01*
X184588923Y-145108289D01*
X184810891Y-145048813D01*
X185019159Y-144951696D01*
X185207398Y-144819889D01*
X185369889Y-144657398D01*
X185501696Y-144469159D01*
X185598813Y-144260891D01*
X185658289Y-144038923D01*
X185678317Y-143810000D01*
X188042185Y-143810000D01*
X188062205Y-144038831D01*
X188062207Y-144038841D01*
X188121656Y-144260711D01*
X188121660Y-144260720D01*
X188218738Y-144468907D01*
X188271783Y-144544662D01*
X188826628Y-143989817D01*
X188828514Y-143998890D01*
X188899185Y-144135279D01*
X189004032Y-144247543D01*
X189135280Y-144327357D01*
X189182863Y-144340689D01*
X188625336Y-144898216D01*
X188701088Y-144951259D01*
X188701096Y-144951263D01*
X188909274Y-145048338D01*
X188909288Y-145048343D01*
X189131158Y-145107792D01*
X189131168Y-145107794D01*
X189359999Y-145127815D01*
X189360001Y-145127815D01*
X189588831Y-145107794D01*
X189588841Y-145107792D01*
X189810711Y-145048343D01*
X189810725Y-145048338D01*
X190018905Y-144951262D01*
X190018909Y-144951260D01*
X190094662Y-144898215D01*
X189538257Y-144341809D01*
X189653073Y-144291939D01*
X189772231Y-144194997D01*
X189860815Y-144069502D01*
X189890245Y-143986692D01*
X190448215Y-144544662D01*
X190501260Y-144468909D01*
X190501262Y-144468905D01*
X190598338Y-144260725D01*
X190598343Y-144260711D01*
X190657792Y-144038841D01*
X190657794Y-144038831D01*
X190677815Y-143810001D01*
X195851683Y-143810001D01*
X195871710Y-144038917D01*
X195871712Y-144038928D01*
X195931184Y-144260883D01*
X195931186Y-144260887D01*
X195931187Y-144260891D01*
X196028304Y-144469159D01*
X196160111Y-144657398D01*
X196322602Y-144819889D01*
X196510841Y-144951696D01*
X196719109Y-145048813D01*
X196941077Y-145108289D01*
X197104593Y-145122594D01*
X197169998Y-145128317D01*
X197170000Y-145128317D01*
X197170002Y-145128317D01*
X197227230Y-145123310D01*
X197398923Y-145108289D01*
X197620891Y-145048813D01*
X197829159Y-144951696D01*
X198017398Y-144819889D01*
X198179889Y-144657398D01*
X198311696Y-144469159D01*
X198408813Y-144260891D01*
X198468289Y-144038923D01*
X198488317Y-143810000D01*
X200852185Y-143810000D01*
X200872205Y-144038831D01*
X200872207Y-144038841D01*
X200931656Y-144260711D01*
X200931660Y-144260720D01*
X201028738Y-144468907D01*
X201081783Y-144544662D01*
X201636628Y-143989817D01*
X201638514Y-143998890D01*
X201709185Y-144135279D01*
X201814032Y-144247543D01*
X201945280Y-144327357D01*
X201992863Y-144340689D01*
X201435336Y-144898216D01*
X201511088Y-144951259D01*
X201511096Y-144951263D01*
X201719274Y-145048338D01*
X201719288Y-145048343D01*
X201941158Y-145107792D01*
X201941168Y-145107794D01*
X202169999Y-145127815D01*
X202170001Y-145127815D01*
X202398831Y-145107794D01*
X202398841Y-145107792D01*
X202620711Y-145048343D01*
X202620725Y-145048338D01*
X202828905Y-144951262D01*
X202828909Y-144951260D01*
X202904662Y-144898215D01*
X202348257Y-144341809D01*
X202463073Y-144291939D01*
X202582231Y-144194997D01*
X202670815Y-144069502D01*
X202700245Y-143986692D01*
X203258215Y-144544662D01*
X203311260Y-144468909D01*
X203311262Y-144468905D01*
X203408338Y-144260725D01*
X203408343Y-144260711D01*
X203467792Y-144038841D01*
X203467794Y-144038831D01*
X203487815Y-143810001D01*
X208661683Y-143810001D01*
X208681710Y-144038917D01*
X208681712Y-144038928D01*
X208741184Y-144260883D01*
X208741186Y-144260887D01*
X208741187Y-144260891D01*
X208838304Y-144469159D01*
X208970111Y-144657398D01*
X209132602Y-144819889D01*
X209320841Y-144951696D01*
X209529109Y-145048813D01*
X209751077Y-145108289D01*
X209914593Y-145122594D01*
X209979998Y-145128317D01*
X209980000Y-145128317D01*
X209980002Y-145128317D01*
X210037230Y-145123310D01*
X210208923Y-145108289D01*
X210430891Y-145048813D01*
X210639159Y-144951696D01*
X210827398Y-144819889D01*
X210989889Y-144657398D01*
X211121696Y-144469159D01*
X211218813Y-144260891D01*
X211278289Y-144038923D01*
X211298317Y-143810000D01*
X213662185Y-143810000D01*
X213682205Y-144038831D01*
X213682207Y-144038841D01*
X213741656Y-144260711D01*
X213741660Y-144260720D01*
X213838738Y-144468907D01*
X213891783Y-144544662D01*
X214446628Y-143989817D01*
X214448514Y-143998890D01*
X214519185Y-144135279D01*
X214624032Y-144247543D01*
X214755280Y-144327357D01*
X214802863Y-144340689D01*
X214245336Y-144898216D01*
X214321088Y-144951259D01*
X214321096Y-144951263D01*
X214529274Y-145048338D01*
X214529288Y-145048343D01*
X214751158Y-145107792D01*
X214751168Y-145107794D01*
X214979999Y-145127815D01*
X214980001Y-145127815D01*
X215208831Y-145107794D01*
X215208841Y-145107792D01*
X215430711Y-145048343D01*
X215430725Y-145048338D01*
X215638905Y-144951262D01*
X215638909Y-144951260D01*
X215714662Y-144898215D01*
X215158257Y-144341809D01*
X215273073Y-144291939D01*
X215392231Y-144194997D01*
X215480815Y-144069502D01*
X215510245Y-143986692D01*
X216068215Y-144544662D01*
X216121260Y-144468909D01*
X216121262Y-144468905D01*
X216218338Y-144260725D01*
X216218343Y-144260711D01*
X216277792Y-144038841D01*
X216277794Y-144038831D01*
X216297815Y-143810001D01*
X221471683Y-143810001D01*
X221491710Y-144038917D01*
X221491712Y-144038928D01*
X221551184Y-144260883D01*
X221551186Y-144260887D01*
X221551187Y-144260891D01*
X221648304Y-144469159D01*
X221780111Y-144657398D01*
X221942602Y-144819889D01*
X222130841Y-144951696D01*
X222339109Y-145048813D01*
X222561077Y-145108289D01*
X222724593Y-145122594D01*
X222789998Y-145128317D01*
X222790000Y-145128317D01*
X222790002Y-145128317D01*
X222847230Y-145123310D01*
X223018923Y-145108289D01*
X223240891Y-145048813D01*
X223449159Y-144951696D01*
X223637398Y-144819889D01*
X223799889Y-144657398D01*
X223931696Y-144469159D01*
X224028813Y-144260891D01*
X224088289Y-144038923D01*
X224108317Y-143810000D01*
X226472185Y-143810000D01*
X226492205Y-144038831D01*
X226492207Y-144038841D01*
X226551656Y-144260711D01*
X226551660Y-144260720D01*
X226648738Y-144468907D01*
X226701783Y-144544662D01*
X227256628Y-143989817D01*
X227258514Y-143998890D01*
X227329185Y-144135279D01*
X227434032Y-144247543D01*
X227565280Y-144327357D01*
X227612863Y-144340689D01*
X227055336Y-144898216D01*
X227131088Y-144951259D01*
X227131096Y-144951263D01*
X227339274Y-145048338D01*
X227339288Y-145048343D01*
X227561158Y-145107792D01*
X227561168Y-145107794D01*
X227789999Y-145127815D01*
X227790001Y-145127815D01*
X228018831Y-145107794D01*
X228018841Y-145107792D01*
X228240711Y-145048343D01*
X228240725Y-145048338D01*
X228448905Y-144951262D01*
X228448909Y-144951260D01*
X228524662Y-144898215D01*
X227968257Y-144341809D01*
X228083073Y-144291939D01*
X228202231Y-144194997D01*
X228290815Y-144069502D01*
X228320245Y-143986692D01*
X228878215Y-144544662D01*
X228931260Y-144468909D01*
X228931262Y-144468905D01*
X229028338Y-144260725D01*
X229028343Y-144260711D01*
X229087792Y-144038841D01*
X229087794Y-144038831D01*
X229107815Y-143810000D01*
X229107815Y-143809999D01*
X229087794Y-143581168D01*
X229087792Y-143581158D01*
X229028343Y-143359288D01*
X229028339Y-143359279D01*
X228931262Y-143151095D01*
X228878215Y-143075336D01*
X228323370Y-143630180D01*
X228321486Y-143621110D01*
X228250815Y-143484721D01*
X228145968Y-143372457D01*
X228014720Y-143292643D01*
X227967135Y-143279310D01*
X228524662Y-142721783D01*
X228448907Y-142668738D01*
X228240720Y-142571660D01*
X228240711Y-142571656D01*
X228018841Y-142512207D01*
X228018831Y-142512205D01*
X227790001Y-142492185D01*
X227789999Y-142492185D01*
X227561168Y-142512205D01*
X227561158Y-142512207D01*
X227339288Y-142571656D01*
X227339279Y-142571660D01*
X227131089Y-142668741D01*
X227055337Y-142721782D01*
X227055336Y-142721783D01*
X227611743Y-143278189D01*
X227496927Y-143328061D01*
X227377769Y-143425003D01*
X227289185Y-143550498D01*
X227259754Y-143633307D01*
X226701783Y-143075336D01*
X226701782Y-143075337D01*
X226648741Y-143151089D01*
X226551660Y-143359279D01*
X226551656Y-143359288D01*
X226492207Y-143581158D01*
X226492205Y-143581168D01*
X226472185Y-143809999D01*
X226472185Y-143810000D01*
X224108317Y-143810000D01*
X224088289Y-143581077D01*
X224028813Y-143359109D01*
X223931696Y-143150842D01*
X223799889Y-142962602D01*
X223637398Y-142800111D01*
X223449159Y-142668304D01*
X223240891Y-142571187D01*
X223240887Y-142571186D01*
X223240883Y-142571184D01*
X223018928Y-142511712D01*
X223018924Y-142511711D01*
X223018923Y-142511711D01*
X223018922Y-142511710D01*
X223018917Y-142511710D01*
X222790002Y-142491683D01*
X222789998Y-142491683D01*
X222561082Y-142511710D01*
X222561071Y-142511712D01*
X222339116Y-142571184D01*
X222339107Y-142571188D01*
X222130842Y-142668303D01*
X222130840Y-142668304D01*
X221942606Y-142800107D01*
X221942600Y-142800112D01*
X221780112Y-142962600D01*
X221780107Y-142962606D01*
X221648304Y-143150840D01*
X221648303Y-143150842D01*
X221551188Y-143359107D01*
X221551184Y-143359116D01*
X221491712Y-143581071D01*
X221491710Y-143581082D01*
X221471683Y-143809998D01*
X221471683Y-143810001D01*
X216297815Y-143810001D01*
X216297815Y-143810000D01*
X216297815Y-143809999D01*
X216277794Y-143581168D01*
X216277792Y-143581158D01*
X216218343Y-143359288D01*
X216218339Y-143359279D01*
X216121262Y-143151095D01*
X216068215Y-143075336D01*
X215513370Y-143630180D01*
X215511486Y-143621110D01*
X215440815Y-143484721D01*
X215335968Y-143372457D01*
X215204720Y-143292643D01*
X215157135Y-143279310D01*
X215714662Y-142721783D01*
X215638907Y-142668738D01*
X215430720Y-142571660D01*
X215430711Y-142571656D01*
X215208841Y-142512207D01*
X215208831Y-142512205D01*
X214980001Y-142492185D01*
X214979999Y-142492185D01*
X214751168Y-142512205D01*
X214751158Y-142512207D01*
X214529288Y-142571656D01*
X214529279Y-142571660D01*
X214321089Y-142668741D01*
X214245337Y-142721782D01*
X214245336Y-142721783D01*
X214801743Y-143278189D01*
X214686927Y-143328061D01*
X214567769Y-143425003D01*
X214479185Y-143550498D01*
X214449754Y-143633307D01*
X213891783Y-143075336D01*
X213891782Y-143075337D01*
X213838741Y-143151089D01*
X213741660Y-143359279D01*
X213741656Y-143359288D01*
X213682207Y-143581158D01*
X213682205Y-143581168D01*
X213662185Y-143809999D01*
X213662185Y-143810000D01*
X211298317Y-143810000D01*
X211278289Y-143581077D01*
X211218813Y-143359109D01*
X211121696Y-143150842D01*
X210989889Y-142962602D01*
X210827398Y-142800111D01*
X210639159Y-142668304D01*
X210430891Y-142571187D01*
X210430887Y-142571186D01*
X210430883Y-142571184D01*
X210208928Y-142511712D01*
X210208924Y-142511711D01*
X210208923Y-142511711D01*
X210208922Y-142511710D01*
X210208917Y-142511710D01*
X209980002Y-142491683D01*
X209979998Y-142491683D01*
X209751082Y-142511710D01*
X209751071Y-142511712D01*
X209529116Y-142571184D01*
X209529107Y-142571188D01*
X209320842Y-142668303D01*
X209320840Y-142668304D01*
X209132606Y-142800107D01*
X209132600Y-142800112D01*
X208970112Y-142962600D01*
X208970107Y-142962606D01*
X208838304Y-143150840D01*
X208838303Y-143150842D01*
X208741188Y-143359107D01*
X208741184Y-143359116D01*
X208681712Y-143581071D01*
X208681710Y-143581082D01*
X208661683Y-143809998D01*
X208661683Y-143810001D01*
X203487815Y-143810001D01*
X203487815Y-143810000D01*
X203487815Y-143809999D01*
X203467794Y-143581168D01*
X203467792Y-143581158D01*
X203408343Y-143359288D01*
X203408339Y-143359279D01*
X203311262Y-143151095D01*
X203258215Y-143075336D01*
X202703370Y-143630180D01*
X202701486Y-143621110D01*
X202630815Y-143484721D01*
X202525968Y-143372457D01*
X202394720Y-143292643D01*
X202347135Y-143279310D01*
X202904662Y-142721783D01*
X202828907Y-142668738D01*
X202620720Y-142571660D01*
X202620711Y-142571656D01*
X202398841Y-142512207D01*
X202398831Y-142512205D01*
X202170001Y-142492185D01*
X202169999Y-142492185D01*
X201941168Y-142512205D01*
X201941158Y-142512207D01*
X201719288Y-142571656D01*
X201719279Y-142571660D01*
X201511089Y-142668741D01*
X201435337Y-142721782D01*
X201435336Y-142721783D01*
X201991743Y-143278189D01*
X201876927Y-143328061D01*
X201757769Y-143425003D01*
X201669185Y-143550498D01*
X201639754Y-143633307D01*
X201081783Y-143075336D01*
X201081782Y-143075337D01*
X201028741Y-143151089D01*
X200931660Y-143359279D01*
X200931656Y-143359288D01*
X200872207Y-143581158D01*
X200872205Y-143581168D01*
X200852185Y-143809999D01*
X200852185Y-143810000D01*
X198488317Y-143810000D01*
X198468289Y-143581077D01*
X198408813Y-143359109D01*
X198311696Y-143150842D01*
X198179889Y-142962602D01*
X198017398Y-142800111D01*
X197829159Y-142668304D01*
X197620891Y-142571187D01*
X197620887Y-142571186D01*
X197620883Y-142571184D01*
X197398928Y-142511712D01*
X197398924Y-142511711D01*
X197398923Y-142511711D01*
X197398922Y-142511710D01*
X197398917Y-142511710D01*
X197170002Y-142491683D01*
X197169998Y-142491683D01*
X196941082Y-142511710D01*
X196941071Y-142511712D01*
X196719116Y-142571184D01*
X196719107Y-142571188D01*
X196510842Y-142668303D01*
X196510840Y-142668304D01*
X196322606Y-142800107D01*
X196322600Y-142800112D01*
X196160112Y-142962600D01*
X196160107Y-142962606D01*
X196028304Y-143150840D01*
X196028303Y-143150842D01*
X195931188Y-143359107D01*
X195931184Y-143359116D01*
X195871712Y-143581071D01*
X195871710Y-143581082D01*
X195851683Y-143809998D01*
X195851683Y-143810001D01*
X190677815Y-143810001D01*
X190677815Y-143810000D01*
X190677815Y-143809999D01*
X190657794Y-143581168D01*
X190657792Y-143581158D01*
X190598343Y-143359288D01*
X190598339Y-143359279D01*
X190501262Y-143151095D01*
X190448215Y-143075336D01*
X189893370Y-143630180D01*
X189891486Y-143621110D01*
X189820815Y-143484721D01*
X189715968Y-143372457D01*
X189584720Y-143292643D01*
X189537135Y-143279310D01*
X190094662Y-142721783D01*
X190018907Y-142668738D01*
X189810720Y-142571660D01*
X189810711Y-142571656D01*
X189588841Y-142512207D01*
X189588831Y-142512205D01*
X189360001Y-142492185D01*
X189359999Y-142492185D01*
X189131168Y-142512205D01*
X189131158Y-142512207D01*
X188909288Y-142571656D01*
X188909279Y-142571660D01*
X188701089Y-142668741D01*
X188625337Y-142721782D01*
X188625336Y-142721783D01*
X189181743Y-143278189D01*
X189066927Y-143328061D01*
X188947769Y-143425003D01*
X188859185Y-143550498D01*
X188829754Y-143633307D01*
X188271783Y-143075336D01*
X188271782Y-143075337D01*
X188218741Y-143151089D01*
X188121660Y-143359279D01*
X188121656Y-143359288D01*
X188062207Y-143581158D01*
X188062205Y-143581168D01*
X188042185Y-143809999D01*
X188042185Y-143810000D01*
X185678317Y-143810000D01*
X185658289Y-143581077D01*
X185598813Y-143359109D01*
X185501696Y-143150842D01*
X185369889Y-142962602D01*
X185207398Y-142800111D01*
X185019159Y-142668304D01*
X184810891Y-142571187D01*
X184810887Y-142571186D01*
X184810883Y-142571184D01*
X184588928Y-142511712D01*
X184588924Y-142511711D01*
X184588923Y-142511711D01*
X184588922Y-142511710D01*
X184588917Y-142511710D01*
X184360002Y-142491683D01*
X184359998Y-142491683D01*
X184131082Y-142511710D01*
X184131071Y-142511712D01*
X183909116Y-142571184D01*
X183909107Y-142571188D01*
X183700842Y-142668303D01*
X183700840Y-142668304D01*
X183512606Y-142800107D01*
X183512600Y-142800112D01*
X183350112Y-142962600D01*
X183350107Y-142962606D01*
X183218304Y-143150840D01*
X183218303Y-143150842D01*
X183121188Y-143359107D01*
X183121184Y-143359116D01*
X183061712Y-143581071D01*
X183061710Y-143581082D01*
X183041683Y-143809998D01*
X183041683Y-143810001D01*
X177863417Y-143810001D01*
X177863417Y-143810000D01*
X177843389Y-143581077D01*
X177783913Y-143359109D01*
X177686796Y-143150842D01*
X177554989Y-142962602D01*
X177392498Y-142800111D01*
X177204259Y-142668304D01*
X176995991Y-142571187D01*
X176995987Y-142571186D01*
X176995983Y-142571184D01*
X176774028Y-142511712D01*
X176774024Y-142511711D01*
X176774023Y-142511711D01*
X176774022Y-142511710D01*
X176774017Y-142511710D01*
X176545102Y-142491683D01*
X176545098Y-142491683D01*
X176316182Y-142511710D01*
X176316171Y-142511712D01*
X176094216Y-142571184D01*
X176094207Y-142571188D01*
X175885942Y-142668303D01*
X175885940Y-142668304D01*
X175697706Y-142800107D01*
X175697700Y-142800112D01*
X175535212Y-142962600D01*
X175535207Y-142962606D01*
X175403404Y-143150840D01*
X175403403Y-143150842D01*
X175306288Y-143359107D01*
X175306284Y-143359116D01*
X175246812Y-143581071D01*
X175246810Y-143581082D01*
X175226783Y-143809998D01*
X175226783Y-143810001D01*
X172862915Y-143810001D01*
X172862915Y-143810000D01*
X172862915Y-143809999D01*
X172842894Y-143581168D01*
X172842892Y-143581158D01*
X172783443Y-143359288D01*
X172783439Y-143359279D01*
X172686362Y-143151095D01*
X172633315Y-143075336D01*
X172078470Y-143630180D01*
X172076586Y-143621110D01*
X172005915Y-143484721D01*
X171901068Y-143372457D01*
X171769820Y-143292643D01*
X171722235Y-143279310D01*
X172279762Y-142721783D01*
X172204007Y-142668738D01*
X171995820Y-142571660D01*
X171995811Y-142571656D01*
X171773941Y-142512207D01*
X171773931Y-142512205D01*
X171545101Y-142492185D01*
X171545099Y-142492185D01*
X171316268Y-142512205D01*
X171316258Y-142512207D01*
X171094388Y-142571656D01*
X171094379Y-142571660D01*
X170886189Y-142668741D01*
X170810437Y-142721782D01*
X170810436Y-142721783D01*
X171366843Y-143278189D01*
X171252027Y-143328061D01*
X171132869Y-143425003D01*
X171044285Y-143550498D01*
X171014854Y-143633307D01*
X170456883Y-143075336D01*
X170456882Y-143075337D01*
X170403841Y-143151089D01*
X170306760Y-143359279D01*
X170306756Y-143359288D01*
X170247307Y-143581158D01*
X170247305Y-143581168D01*
X170227285Y-143809999D01*
X170227285Y-143810000D01*
X165048317Y-143810000D01*
X165028289Y-143581077D01*
X164968813Y-143359109D01*
X164871696Y-143150842D01*
X164739889Y-142962602D01*
X164577398Y-142800111D01*
X164389159Y-142668304D01*
X164180891Y-142571187D01*
X164180887Y-142571186D01*
X164180883Y-142571184D01*
X163958928Y-142511712D01*
X163958924Y-142511711D01*
X163958923Y-142511711D01*
X163958922Y-142511710D01*
X163958917Y-142511710D01*
X163730002Y-142491683D01*
X163729998Y-142491683D01*
X163501082Y-142511710D01*
X163501071Y-142511712D01*
X163279116Y-142571184D01*
X163279107Y-142571188D01*
X163070842Y-142668303D01*
X163070840Y-142668304D01*
X162882606Y-142800107D01*
X162882600Y-142800112D01*
X162720112Y-142962600D01*
X162720107Y-142962606D01*
X162588304Y-143150840D01*
X162588303Y-143150842D01*
X162491188Y-143359107D01*
X162491184Y-143359116D01*
X162431712Y-143581071D01*
X162431710Y-143581082D01*
X162411683Y-143809998D01*
X162411683Y-143810001D01*
X160048317Y-143810001D01*
X160048317Y-143810000D01*
X160028289Y-143581077D01*
X159968813Y-143359109D01*
X159871696Y-143150842D01*
X159739889Y-142962602D01*
X159577398Y-142800111D01*
X159389159Y-142668304D01*
X159180891Y-142571187D01*
X159180887Y-142571186D01*
X159180883Y-142571184D01*
X158958928Y-142511712D01*
X158958924Y-142511711D01*
X158958923Y-142511711D01*
X158958922Y-142511710D01*
X158958917Y-142511710D01*
X158730002Y-142491683D01*
X158729998Y-142491683D01*
X158501082Y-142511710D01*
X158501071Y-142511712D01*
X158279116Y-142571184D01*
X158279107Y-142571188D01*
X158070842Y-142668303D01*
X158070840Y-142668304D01*
X157882606Y-142800107D01*
X157882600Y-142800112D01*
X157720112Y-142962600D01*
X157720107Y-142962606D01*
X157588304Y-143150840D01*
X157588303Y-143150842D01*
X157491188Y-143359107D01*
X157491184Y-143359116D01*
X157431712Y-143581071D01*
X157431710Y-143581082D01*
X157411683Y-143809998D01*
X157411683Y-143810001D01*
X153580500Y-143810001D01*
X153580500Y-125610000D01*
X168434341Y-125610000D01*
X168454936Y-125845403D01*
X168454938Y-125845413D01*
X168516094Y-126073655D01*
X168516096Y-126073659D01*
X168516097Y-126073663D01*
X168596004Y-126245023D01*
X168615965Y-126287830D01*
X168615967Y-126287834D01*
X168724281Y-126442521D01*
X168751505Y-126481401D01*
X168918599Y-126648495D01*
X168995135Y-126702086D01*
X169112165Y-126784032D01*
X169112167Y-126784033D01*
X169112170Y-126784035D01*
X169326337Y-126883903D01*
X169554592Y-126945063D01*
X169725319Y-126960000D01*
X169789999Y-126965659D01*
X169790000Y-126965659D01*
X169790001Y-126965659D01*
X169854681Y-126960000D01*
X170025408Y-126945063D01*
X170253663Y-126883903D01*
X170467830Y-126784035D01*
X170661401Y-126648495D01*
X170828495Y-126481401D01*
X170958425Y-126295842D01*
X171013002Y-126252217D01*
X171082500Y-126245023D01*
X171144855Y-126276546D01*
X171161575Y-126295842D01*
X171291500Y-126481395D01*
X171291505Y-126481401D01*
X171458599Y-126648495D01*
X171535135Y-126702086D01*
X171652165Y-126784032D01*
X171652167Y-126784033D01*
X171652170Y-126784035D01*
X171866337Y-126883903D01*
X172094592Y-126945063D01*
X172265319Y-126960000D01*
X172329999Y-126965659D01*
X172330000Y-126965659D01*
X172330001Y-126965659D01*
X172394681Y-126960000D01*
X172565408Y-126945063D01*
X172793663Y-126883903D01*
X173007830Y-126784035D01*
X173201401Y-126648495D01*
X173368495Y-126481401D01*
X173498425Y-126295842D01*
X173553002Y-126252217D01*
X173622500Y-126245023D01*
X173684855Y-126276546D01*
X173701575Y-126295842D01*
X173831500Y-126481395D01*
X173831505Y-126481401D01*
X173998599Y-126648495D01*
X174075135Y-126702086D01*
X174192165Y-126784032D01*
X174192167Y-126784033D01*
X174192170Y-126784035D01*
X174406337Y-126883903D01*
X174634592Y-126945063D01*
X174805319Y-126960000D01*
X174869999Y-126965659D01*
X174870000Y-126965659D01*
X174870001Y-126965659D01*
X174934681Y-126960000D01*
X175105408Y-126945063D01*
X175333663Y-126883903D01*
X175547830Y-126784035D01*
X175741401Y-126648495D01*
X175908495Y-126481401D01*
X176038425Y-126295842D01*
X176093002Y-126252217D01*
X176162500Y-126245023D01*
X176224855Y-126276546D01*
X176241575Y-126295842D01*
X176371500Y-126481395D01*
X176371505Y-126481401D01*
X176538599Y-126648495D01*
X176615135Y-126702086D01*
X176732165Y-126784032D01*
X176732167Y-126784033D01*
X176732170Y-126784035D01*
X176946337Y-126883903D01*
X177174592Y-126945063D01*
X177345319Y-126960000D01*
X177409999Y-126965659D01*
X177410000Y-126965659D01*
X177410001Y-126965659D01*
X177474681Y-126960000D01*
X177645408Y-126945063D01*
X177873663Y-126883903D01*
X178087830Y-126784035D01*
X178281401Y-126648495D01*
X178448495Y-126481401D01*
X178578425Y-126295842D01*
X178633002Y-126252217D01*
X178702500Y-126245023D01*
X178764855Y-126276546D01*
X178781575Y-126295842D01*
X178911500Y-126481395D01*
X178911505Y-126481401D01*
X179078599Y-126648495D01*
X179155135Y-126702086D01*
X179272165Y-126784032D01*
X179272167Y-126784033D01*
X179272170Y-126784035D01*
X179486337Y-126883903D01*
X179714592Y-126945063D01*
X179885319Y-126960000D01*
X179949999Y-126965659D01*
X179950000Y-126965659D01*
X179950001Y-126965659D01*
X180014681Y-126960000D01*
X180185408Y-126945063D01*
X180413663Y-126883903D01*
X180627830Y-126784035D01*
X180821401Y-126648495D01*
X180988495Y-126481401D01*
X181118425Y-126295842D01*
X181173002Y-126252217D01*
X181242500Y-126245023D01*
X181304855Y-126276546D01*
X181321575Y-126295842D01*
X181451500Y-126481395D01*
X181451505Y-126481401D01*
X181618599Y-126648495D01*
X181695135Y-126702086D01*
X181812165Y-126784032D01*
X181812167Y-126784033D01*
X181812170Y-126784035D01*
X182026337Y-126883903D01*
X182254592Y-126945063D01*
X182425319Y-126960000D01*
X182489999Y-126965659D01*
X182490000Y-126965659D01*
X182490001Y-126965659D01*
X182554681Y-126960000D01*
X182725408Y-126945063D01*
X182953663Y-126883903D01*
X183167830Y-126784035D01*
X183361401Y-126648495D01*
X183528495Y-126481401D01*
X183658425Y-126295842D01*
X183713002Y-126252217D01*
X183782500Y-126245023D01*
X183844855Y-126276546D01*
X183861575Y-126295842D01*
X183991500Y-126481395D01*
X183991505Y-126481401D01*
X184158599Y-126648495D01*
X184235135Y-126702086D01*
X184352165Y-126784032D01*
X184352167Y-126784033D01*
X184352170Y-126784035D01*
X184566337Y-126883903D01*
X184794592Y-126945063D01*
X184965319Y-126960000D01*
X185029999Y-126965659D01*
X185030000Y-126965659D01*
X185030001Y-126965659D01*
X185094681Y-126960000D01*
X185265408Y-126945063D01*
X185493663Y-126883903D01*
X185707830Y-126784035D01*
X185901401Y-126648495D01*
X186068495Y-126481401D01*
X186198425Y-126295842D01*
X186253002Y-126252217D01*
X186322500Y-126245023D01*
X186384855Y-126276546D01*
X186401575Y-126295842D01*
X186531500Y-126481395D01*
X186531505Y-126481401D01*
X186698599Y-126648495D01*
X186775135Y-126702086D01*
X186892165Y-126784032D01*
X186892167Y-126784033D01*
X186892170Y-126784035D01*
X187106337Y-126883903D01*
X187334592Y-126945063D01*
X187505319Y-126960000D01*
X187569999Y-126965659D01*
X187570000Y-126965659D01*
X187570001Y-126965659D01*
X187634681Y-126960000D01*
X187805408Y-126945063D01*
X188033663Y-126883903D01*
X188247830Y-126784035D01*
X188441401Y-126648495D01*
X188608495Y-126481401D01*
X188738425Y-126295842D01*
X188793002Y-126252217D01*
X188862500Y-126245023D01*
X188924855Y-126276546D01*
X188941575Y-126295842D01*
X189071500Y-126481395D01*
X189071505Y-126481401D01*
X189238599Y-126648495D01*
X189315135Y-126702086D01*
X189432165Y-126784032D01*
X189432167Y-126784033D01*
X189432170Y-126784035D01*
X189646337Y-126883903D01*
X189874592Y-126945063D01*
X190045319Y-126960000D01*
X190109999Y-126965659D01*
X190110000Y-126965659D01*
X190110001Y-126965659D01*
X190174681Y-126960000D01*
X190345408Y-126945063D01*
X190573663Y-126883903D01*
X190787830Y-126784035D01*
X190981401Y-126648495D01*
X191148495Y-126481401D01*
X191278425Y-126295842D01*
X191333002Y-126252217D01*
X191402500Y-126245023D01*
X191464855Y-126276546D01*
X191481575Y-126295842D01*
X191611500Y-126481395D01*
X191611505Y-126481401D01*
X191778599Y-126648495D01*
X191855135Y-126702086D01*
X191972165Y-126784032D01*
X191972167Y-126784033D01*
X191972170Y-126784035D01*
X192186337Y-126883903D01*
X192414592Y-126945063D01*
X192585319Y-126960000D01*
X192649999Y-126965659D01*
X192650000Y-126965659D01*
X192650001Y-126965659D01*
X192714681Y-126960000D01*
X192885408Y-126945063D01*
X193113663Y-126883903D01*
X193327830Y-126784035D01*
X193521401Y-126648495D01*
X193688495Y-126481401D01*
X193818425Y-126295842D01*
X193873002Y-126252217D01*
X193942500Y-126245023D01*
X194004855Y-126276546D01*
X194021575Y-126295842D01*
X194151500Y-126481395D01*
X194151505Y-126481401D01*
X194318599Y-126648495D01*
X194395135Y-126702086D01*
X194512165Y-126784032D01*
X194512167Y-126784033D01*
X194512170Y-126784035D01*
X194726337Y-126883903D01*
X194954592Y-126945063D01*
X195125319Y-126960000D01*
X195189999Y-126965659D01*
X195190000Y-126965659D01*
X195190001Y-126965659D01*
X195254681Y-126960000D01*
X195425408Y-126945063D01*
X195653663Y-126883903D01*
X195867830Y-126784035D01*
X196061401Y-126648495D01*
X196228495Y-126481401D01*
X196358425Y-126295842D01*
X196413002Y-126252217D01*
X196482500Y-126245023D01*
X196544855Y-126276546D01*
X196561575Y-126295842D01*
X196691500Y-126481395D01*
X196691505Y-126481401D01*
X196858599Y-126648495D01*
X196935135Y-126702086D01*
X197052165Y-126784032D01*
X197052167Y-126784033D01*
X197052170Y-126784035D01*
X197266337Y-126883903D01*
X197494592Y-126945063D01*
X197665319Y-126960000D01*
X197729999Y-126965659D01*
X197730000Y-126965659D01*
X197730001Y-126965659D01*
X197794681Y-126960000D01*
X197965408Y-126945063D01*
X198193663Y-126883903D01*
X198407830Y-126784035D01*
X198601401Y-126648495D01*
X198768495Y-126481401D01*
X198898425Y-126295842D01*
X198953002Y-126252217D01*
X199022500Y-126245023D01*
X199084855Y-126276546D01*
X199101575Y-126295842D01*
X199231500Y-126481395D01*
X199231505Y-126481401D01*
X199398599Y-126648495D01*
X199475135Y-126702086D01*
X199592165Y-126784032D01*
X199592167Y-126784033D01*
X199592170Y-126784035D01*
X199806337Y-126883903D01*
X200034592Y-126945063D01*
X200205319Y-126960000D01*
X200269999Y-126965659D01*
X200270000Y-126965659D01*
X200270001Y-126965659D01*
X200334681Y-126960000D01*
X200505408Y-126945063D01*
X200733663Y-126883903D01*
X200947830Y-126784035D01*
X201141401Y-126648495D01*
X201308495Y-126481401D01*
X201438425Y-126295842D01*
X201493002Y-126252217D01*
X201562500Y-126245023D01*
X201624855Y-126276546D01*
X201641575Y-126295842D01*
X201771500Y-126481395D01*
X201771505Y-126481401D01*
X201938599Y-126648495D01*
X202015135Y-126702086D01*
X202132165Y-126784032D01*
X202132167Y-126784033D01*
X202132170Y-126784035D01*
X202346337Y-126883903D01*
X202574592Y-126945063D01*
X202745319Y-126960000D01*
X202809999Y-126965659D01*
X202810000Y-126965659D01*
X202810001Y-126965659D01*
X202874681Y-126960000D01*
X203045408Y-126945063D01*
X203273663Y-126883903D01*
X203487830Y-126784035D01*
X203681401Y-126648495D01*
X203848495Y-126481401D01*
X203978425Y-126295842D01*
X204033002Y-126252217D01*
X204102500Y-126245023D01*
X204164855Y-126276546D01*
X204181575Y-126295842D01*
X204311500Y-126481395D01*
X204311505Y-126481401D01*
X204478599Y-126648495D01*
X204555135Y-126702086D01*
X204672165Y-126784032D01*
X204672167Y-126784033D01*
X204672170Y-126784035D01*
X204886337Y-126883903D01*
X205114592Y-126945063D01*
X205285319Y-126960000D01*
X205349999Y-126965659D01*
X205350000Y-126965659D01*
X205350001Y-126965659D01*
X205414681Y-126960000D01*
X205585408Y-126945063D01*
X205813663Y-126883903D01*
X206027830Y-126784035D01*
X206221401Y-126648495D01*
X206388495Y-126481401D01*
X206518425Y-126295842D01*
X206573002Y-126252217D01*
X206642500Y-126245023D01*
X206704855Y-126276546D01*
X206721575Y-126295842D01*
X206851500Y-126481395D01*
X206851505Y-126481401D01*
X207018599Y-126648495D01*
X207095135Y-126702086D01*
X207212165Y-126784032D01*
X207212167Y-126784033D01*
X207212170Y-126784035D01*
X207426337Y-126883903D01*
X207654592Y-126945063D01*
X207825319Y-126960000D01*
X207889999Y-126965659D01*
X207890000Y-126965659D01*
X207890001Y-126965659D01*
X207954681Y-126960000D01*
X208125408Y-126945063D01*
X208353663Y-126883903D01*
X208567830Y-126784035D01*
X208761401Y-126648495D01*
X208928495Y-126481401D01*
X209058425Y-126295842D01*
X209113002Y-126252217D01*
X209182500Y-126245023D01*
X209244855Y-126276546D01*
X209261575Y-126295842D01*
X209391500Y-126481395D01*
X209391505Y-126481401D01*
X209558599Y-126648495D01*
X209635135Y-126702086D01*
X209752165Y-126784032D01*
X209752167Y-126784033D01*
X209752170Y-126784035D01*
X209966337Y-126883903D01*
X210194592Y-126945063D01*
X210365319Y-126960000D01*
X210429999Y-126965659D01*
X210430000Y-126965659D01*
X210430001Y-126965659D01*
X210494681Y-126960000D01*
X210665408Y-126945063D01*
X210893663Y-126883903D01*
X211107830Y-126784035D01*
X211301401Y-126648495D01*
X211468495Y-126481401D01*
X211598425Y-126295842D01*
X211653002Y-126252217D01*
X211722500Y-126245023D01*
X211784855Y-126276546D01*
X211801575Y-126295842D01*
X211931500Y-126481395D01*
X211931505Y-126481401D01*
X212098599Y-126648495D01*
X212175135Y-126702086D01*
X212292165Y-126784032D01*
X212292167Y-126784033D01*
X212292170Y-126784035D01*
X212506337Y-126883903D01*
X212734592Y-126945063D01*
X212905319Y-126960000D01*
X212969999Y-126965659D01*
X212970000Y-126965659D01*
X212970001Y-126965659D01*
X213034681Y-126960000D01*
X213205408Y-126945063D01*
X213433663Y-126883903D01*
X213647830Y-126784035D01*
X213841401Y-126648495D01*
X214008495Y-126481401D01*
X214138730Y-126295405D01*
X214193307Y-126251781D01*
X214262805Y-126244587D01*
X214325160Y-126276110D01*
X214341879Y-126295405D01*
X214471890Y-126481078D01*
X214638917Y-126648105D01*
X214832421Y-126783600D01*
X215046507Y-126883429D01*
X215046516Y-126883433D01*
X215260000Y-126940634D01*
X215260000Y-126045501D01*
X215367685Y-126094680D01*
X215474237Y-126110000D01*
X215545763Y-126110000D01*
X215652315Y-126094680D01*
X215760000Y-126045501D01*
X215760000Y-126940633D01*
X215973483Y-126883433D01*
X215973492Y-126883429D01*
X216187578Y-126783600D01*
X216381078Y-126648108D01*
X216503521Y-126525665D01*
X216564844Y-126492180D01*
X216634536Y-126497164D01*
X216690470Y-126539035D01*
X216707385Y-126570013D01*
X216756645Y-126702086D01*
X216756649Y-126702093D01*
X216842809Y-126817187D01*
X216842812Y-126817190D01*
X216957906Y-126903350D01*
X216957913Y-126903354D01*
X217092620Y-126953596D01*
X217092627Y-126953598D01*
X217152155Y-126959999D01*
X217152172Y-126960000D01*
X217800000Y-126960000D01*
X217800000Y-126045501D01*
X217907685Y-126094680D01*
X218014237Y-126110000D01*
X218085763Y-126110000D01*
X218192315Y-126094680D01*
X218300000Y-126045501D01*
X218300000Y-126960000D01*
X218947828Y-126960000D01*
X218947844Y-126959999D01*
X219007372Y-126953598D01*
X219007379Y-126953596D01*
X219142086Y-126903354D01*
X219142093Y-126903350D01*
X219257187Y-126817190D01*
X219257190Y-126817187D01*
X219343350Y-126702093D01*
X219343354Y-126702086D01*
X219393596Y-126567379D01*
X219393598Y-126567372D01*
X219399999Y-126507844D01*
X219400000Y-126507827D01*
X219400000Y-125860000D01*
X218483686Y-125860000D01*
X218509493Y-125819844D01*
X218550000Y-125681889D01*
X218550000Y-125538111D01*
X218509493Y-125400156D01*
X218483686Y-125360000D01*
X219400000Y-125360000D01*
X219400000Y-124712172D01*
X219399999Y-124712155D01*
X219393598Y-124652627D01*
X219393596Y-124652620D01*
X219343354Y-124517913D01*
X219343350Y-124517906D01*
X219257190Y-124402812D01*
X219257187Y-124402809D01*
X219142093Y-124316649D01*
X219142086Y-124316645D01*
X219007379Y-124266403D01*
X219007372Y-124266401D01*
X218947844Y-124260000D01*
X218300000Y-124260000D01*
X218300000Y-125174498D01*
X218192315Y-125125320D01*
X218085763Y-125110000D01*
X218014237Y-125110000D01*
X217907685Y-125125320D01*
X217800000Y-125174498D01*
X217800000Y-124260000D01*
X217152155Y-124260000D01*
X217092627Y-124266401D01*
X217092620Y-124266403D01*
X216957913Y-124316645D01*
X216957906Y-124316649D01*
X216842812Y-124402809D01*
X216842809Y-124402812D01*
X216756649Y-124517906D01*
X216756646Y-124517911D01*
X216707385Y-124649987D01*
X216665513Y-124705920D01*
X216600049Y-124730337D01*
X216531776Y-124715485D01*
X216503522Y-124694334D01*
X216381082Y-124571894D01*
X216187578Y-124436399D01*
X215973492Y-124336570D01*
X215973486Y-124336567D01*
X215760000Y-124279364D01*
X215760000Y-125174498D01*
X215652315Y-125125320D01*
X215545763Y-125110000D01*
X215474237Y-125110000D01*
X215367685Y-125125320D01*
X215260000Y-125174498D01*
X215260000Y-124279364D01*
X215259999Y-124279364D01*
X215046513Y-124336567D01*
X215046507Y-124336570D01*
X214832422Y-124436399D01*
X214832420Y-124436400D01*
X214638926Y-124571886D01*
X214638920Y-124571891D01*
X214471891Y-124738920D01*
X214471890Y-124738922D01*
X214341880Y-124924595D01*
X214287303Y-124968219D01*
X214217804Y-124975412D01*
X214155450Y-124943890D01*
X214138730Y-124924594D01*
X214008494Y-124738597D01*
X213841402Y-124571506D01*
X213841395Y-124571501D01*
X213647834Y-124435967D01*
X213647830Y-124435965D01*
X213576727Y-124402809D01*
X213433663Y-124336097D01*
X213433659Y-124336096D01*
X213433655Y-124336094D01*
X213205413Y-124274938D01*
X213205403Y-124274936D01*
X212970001Y-124254341D01*
X212969999Y-124254341D01*
X212734596Y-124274936D01*
X212734586Y-124274938D01*
X212506344Y-124336094D01*
X212506335Y-124336098D01*
X212292171Y-124435964D01*
X212292169Y-124435965D01*
X212098597Y-124571505D01*
X211931505Y-124738597D01*
X211801575Y-124924158D01*
X211746998Y-124967783D01*
X211677500Y-124974977D01*
X211615145Y-124943454D01*
X211598425Y-124924158D01*
X211468494Y-124738597D01*
X211301402Y-124571506D01*
X211301395Y-124571501D01*
X211107834Y-124435967D01*
X211107830Y-124435965D01*
X211036727Y-124402809D01*
X210893663Y-124336097D01*
X210893659Y-124336096D01*
X210893655Y-124336094D01*
X210665413Y-124274938D01*
X210665403Y-124274936D01*
X210430001Y-124254341D01*
X210429999Y-124254341D01*
X210194596Y-124274936D01*
X210194586Y-124274938D01*
X209966344Y-124336094D01*
X209966335Y-124336098D01*
X209752171Y-124435964D01*
X209752169Y-124435965D01*
X209558597Y-124571505D01*
X209391505Y-124738597D01*
X209261575Y-124924158D01*
X209206998Y-124967783D01*
X209137500Y-124974977D01*
X209075145Y-124943454D01*
X209058425Y-124924158D01*
X208928494Y-124738597D01*
X208761402Y-124571506D01*
X208761395Y-124571501D01*
X208567834Y-124435967D01*
X208567830Y-124435965D01*
X208496727Y-124402809D01*
X208353663Y-124336097D01*
X208353659Y-124336096D01*
X208353655Y-124336094D01*
X208125413Y-124274938D01*
X208125403Y-124274936D01*
X207890001Y-124254341D01*
X207889999Y-124254341D01*
X207654596Y-124274936D01*
X207654586Y-124274938D01*
X207426344Y-124336094D01*
X207426335Y-124336098D01*
X207212171Y-124435964D01*
X207212169Y-124435965D01*
X207018597Y-124571505D01*
X206851505Y-124738597D01*
X206721575Y-124924158D01*
X206666998Y-124967783D01*
X206597500Y-124974977D01*
X206535145Y-124943454D01*
X206518425Y-124924158D01*
X206388494Y-124738597D01*
X206221402Y-124571506D01*
X206221395Y-124571501D01*
X206027834Y-124435967D01*
X206027830Y-124435965D01*
X205956727Y-124402809D01*
X205813663Y-124336097D01*
X205813659Y-124336096D01*
X205813655Y-124336094D01*
X205585413Y-124274938D01*
X205585403Y-124274936D01*
X205350001Y-124254341D01*
X205349999Y-124254341D01*
X205114596Y-124274936D01*
X205114586Y-124274938D01*
X204886344Y-124336094D01*
X204886335Y-124336098D01*
X204672171Y-124435964D01*
X204672169Y-124435965D01*
X204478597Y-124571505D01*
X204311505Y-124738597D01*
X204181575Y-124924158D01*
X204126998Y-124967783D01*
X204057500Y-124974977D01*
X203995145Y-124943454D01*
X203978425Y-124924158D01*
X203848494Y-124738597D01*
X203681402Y-124571506D01*
X203681395Y-124571501D01*
X203487834Y-124435967D01*
X203487830Y-124435965D01*
X203416727Y-124402809D01*
X203273663Y-124336097D01*
X203273659Y-124336096D01*
X203273655Y-124336094D01*
X203045413Y-124274938D01*
X203045403Y-124274936D01*
X202810001Y-124254341D01*
X202809999Y-124254341D01*
X202574596Y-124274936D01*
X202574586Y-124274938D01*
X202346344Y-124336094D01*
X202346335Y-124336098D01*
X202132171Y-124435964D01*
X202132169Y-124435965D01*
X201938597Y-124571505D01*
X201771505Y-124738597D01*
X201641575Y-124924158D01*
X201586998Y-124967783D01*
X201517500Y-124974977D01*
X201455145Y-124943454D01*
X201438425Y-124924158D01*
X201308494Y-124738597D01*
X201141402Y-124571506D01*
X201141395Y-124571501D01*
X200947834Y-124435967D01*
X200947830Y-124435965D01*
X200876727Y-124402809D01*
X200733663Y-124336097D01*
X200733659Y-124336096D01*
X200733655Y-124336094D01*
X200505413Y-124274938D01*
X200505403Y-124274936D01*
X200270001Y-124254341D01*
X200269999Y-124254341D01*
X200034596Y-124274936D01*
X200034586Y-124274938D01*
X199806344Y-124336094D01*
X199806335Y-124336098D01*
X199592171Y-124435964D01*
X199592169Y-124435965D01*
X199398597Y-124571505D01*
X199231505Y-124738597D01*
X199101575Y-124924158D01*
X199046998Y-124967783D01*
X198977500Y-124974977D01*
X198915145Y-124943454D01*
X198898425Y-124924158D01*
X198768494Y-124738597D01*
X198601402Y-124571506D01*
X198601395Y-124571501D01*
X198407834Y-124435967D01*
X198407830Y-124435965D01*
X198336727Y-124402809D01*
X198193663Y-124336097D01*
X198193659Y-124336096D01*
X198193655Y-124336094D01*
X197965413Y-124274938D01*
X197965403Y-124274936D01*
X197730001Y-124254341D01*
X197729999Y-124254341D01*
X197494596Y-124274936D01*
X197494586Y-124274938D01*
X197266344Y-124336094D01*
X197266335Y-124336098D01*
X197052171Y-124435964D01*
X197052169Y-124435965D01*
X196858597Y-124571505D01*
X196691505Y-124738597D01*
X196561575Y-124924158D01*
X196506998Y-124967783D01*
X196437500Y-124974977D01*
X196375145Y-124943454D01*
X196358425Y-124924158D01*
X196228494Y-124738597D01*
X196061402Y-124571506D01*
X196061395Y-124571501D01*
X195867834Y-124435967D01*
X195867830Y-124435965D01*
X195796727Y-124402809D01*
X195653663Y-124336097D01*
X195653659Y-124336096D01*
X195653655Y-124336094D01*
X195425413Y-124274938D01*
X195425403Y-124274936D01*
X195190001Y-124254341D01*
X195189999Y-124254341D01*
X194954596Y-124274936D01*
X194954586Y-124274938D01*
X194726344Y-124336094D01*
X194726335Y-124336098D01*
X194512171Y-124435964D01*
X194512169Y-124435965D01*
X194318597Y-124571505D01*
X194151505Y-124738597D01*
X194021575Y-124924158D01*
X193966998Y-124967783D01*
X193897500Y-124974977D01*
X193835145Y-124943454D01*
X193818425Y-124924158D01*
X193688494Y-124738597D01*
X193521402Y-124571506D01*
X193521395Y-124571501D01*
X193327834Y-124435967D01*
X193327830Y-124435965D01*
X193256727Y-124402809D01*
X193113663Y-124336097D01*
X193113659Y-124336096D01*
X193113655Y-124336094D01*
X192885413Y-124274938D01*
X192885403Y-124274936D01*
X192650001Y-124254341D01*
X192649999Y-124254341D01*
X192414596Y-124274936D01*
X192414586Y-124274938D01*
X192186344Y-124336094D01*
X192186335Y-124336098D01*
X191972171Y-124435964D01*
X191972169Y-124435965D01*
X191778597Y-124571505D01*
X191611505Y-124738597D01*
X191481575Y-124924158D01*
X191426998Y-124967783D01*
X191357500Y-124974977D01*
X191295145Y-124943454D01*
X191278425Y-124924158D01*
X191148494Y-124738597D01*
X190981402Y-124571506D01*
X190981395Y-124571501D01*
X190787834Y-124435967D01*
X190787830Y-124435965D01*
X190716727Y-124402809D01*
X190573663Y-124336097D01*
X190573659Y-124336096D01*
X190573655Y-124336094D01*
X190345413Y-124274938D01*
X190345403Y-124274936D01*
X190110001Y-124254341D01*
X190109999Y-124254341D01*
X189874596Y-124274936D01*
X189874586Y-124274938D01*
X189646344Y-124336094D01*
X189646335Y-124336098D01*
X189432171Y-124435964D01*
X189432169Y-124435965D01*
X189238597Y-124571505D01*
X189071505Y-124738597D01*
X188941575Y-124924158D01*
X188886998Y-124967783D01*
X188817500Y-124974977D01*
X188755145Y-124943454D01*
X188738425Y-124924158D01*
X188608494Y-124738597D01*
X188441402Y-124571506D01*
X188441395Y-124571501D01*
X188247834Y-124435967D01*
X188247830Y-124435965D01*
X188176727Y-124402809D01*
X188033663Y-124336097D01*
X188033659Y-124336096D01*
X188033655Y-124336094D01*
X187805413Y-124274938D01*
X187805403Y-124274936D01*
X187570001Y-124254341D01*
X187569999Y-124254341D01*
X187334596Y-124274936D01*
X187334586Y-124274938D01*
X187106344Y-124336094D01*
X187106335Y-124336098D01*
X186892171Y-124435964D01*
X186892169Y-124435965D01*
X186698597Y-124571505D01*
X186531505Y-124738597D01*
X186401575Y-124924158D01*
X186346998Y-124967783D01*
X186277500Y-124974977D01*
X186215145Y-124943454D01*
X186198425Y-124924158D01*
X186068494Y-124738597D01*
X185901402Y-124571506D01*
X185901395Y-124571501D01*
X185707834Y-124435967D01*
X185707830Y-124435965D01*
X185636727Y-124402809D01*
X185493663Y-124336097D01*
X185493659Y-124336096D01*
X185493655Y-124336094D01*
X185265413Y-124274938D01*
X185265403Y-124274936D01*
X185030001Y-124254341D01*
X185029999Y-124254341D01*
X184794596Y-124274936D01*
X184794586Y-124274938D01*
X184566344Y-124336094D01*
X184566335Y-124336098D01*
X184352171Y-124435964D01*
X184352169Y-124435965D01*
X184158597Y-124571505D01*
X183991505Y-124738597D01*
X183861575Y-124924158D01*
X183806998Y-124967783D01*
X183737500Y-124974977D01*
X183675145Y-124943454D01*
X183658425Y-124924158D01*
X183528494Y-124738597D01*
X183361402Y-124571506D01*
X183361395Y-124571501D01*
X183167834Y-124435967D01*
X183167830Y-124435965D01*
X183096727Y-124402809D01*
X182953663Y-124336097D01*
X182953659Y-124336096D01*
X182953655Y-124336094D01*
X182725413Y-124274938D01*
X182725403Y-124274936D01*
X182490001Y-124254341D01*
X182489999Y-124254341D01*
X182254596Y-124274936D01*
X182254586Y-124274938D01*
X182026344Y-124336094D01*
X182026335Y-124336098D01*
X181812171Y-124435964D01*
X181812169Y-124435965D01*
X181618597Y-124571505D01*
X181451505Y-124738597D01*
X181321575Y-124924158D01*
X181266998Y-124967783D01*
X181197500Y-124974977D01*
X181135145Y-124943454D01*
X181118425Y-124924158D01*
X180988494Y-124738597D01*
X180821402Y-124571506D01*
X180821395Y-124571501D01*
X180627834Y-124435967D01*
X180627830Y-124435965D01*
X180556727Y-124402809D01*
X180413663Y-124336097D01*
X180413659Y-124336096D01*
X180413655Y-124336094D01*
X180185413Y-124274938D01*
X180185403Y-124274936D01*
X179950001Y-124254341D01*
X179949999Y-124254341D01*
X179714596Y-124274936D01*
X179714586Y-124274938D01*
X179486344Y-124336094D01*
X179486335Y-124336098D01*
X179272171Y-124435964D01*
X179272169Y-124435965D01*
X179078597Y-124571505D01*
X178911505Y-124738597D01*
X178781575Y-124924158D01*
X178726998Y-124967783D01*
X178657500Y-124974977D01*
X178595145Y-124943454D01*
X178578425Y-124924158D01*
X178448494Y-124738597D01*
X178281402Y-124571506D01*
X178281395Y-124571501D01*
X178087834Y-124435967D01*
X178087830Y-124435965D01*
X178016727Y-124402809D01*
X177873663Y-124336097D01*
X177873659Y-124336096D01*
X177873655Y-124336094D01*
X177645413Y-124274938D01*
X177645403Y-124274936D01*
X177410001Y-124254341D01*
X177409999Y-124254341D01*
X177174596Y-124274936D01*
X177174586Y-124274938D01*
X176946344Y-124336094D01*
X176946335Y-124336098D01*
X176732171Y-124435964D01*
X176732169Y-124435965D01*
X176538597Y-124571505D01*
X176371505Y-124738597D01*
X176241575Y-124924158D01*
X176186998Y-124967783D01*
X176117500Y-124974977D01*
X176055145Y-124943454D01*
X176038425Y-124924158D01*
X175908494Y-124738597D01*
X175741402Y-124571506D01*
X175741395Y-124571501D01*
X175547834Y-124435967D01*
X175547830Y-124435965D01*
X175476727Y-124402809D01*
X175333663Y-124336097D01*
X175333659Y-124336096D01*
X175333655Y-124336094D01*
X175105413Y-124274938D01*
X175105403Y-124274936D01*
X174870001Y-124254341D01*
X174869999Y-124254341D01*
X174634596Y-124274936D01*
X174634586Y-124274938D01*
X174406344Y-124336094D01*
X174406335Y-124336098D01*
X174192171Y-124435964D01*
X174192169Y-124435965D01*
X173998597Y-124571505D01*
X173831505Y-124738597D01*
X173701575Y-124924158D01*
X173646998Y-124967783D01*
X173577500Y-124974977D01*
X173515145Y-124943454D01*
X173498425Y-124924158D01*
X173368494Y-124738597D01*
X173201402Y-124571506D01*
X173201395Y-124571501D01*
X173007834Y-124435967D01*
X173007830Y-124435965D01*
X172936727Y-124402809D01*
X172793663Y-124336097D01*
X172793659Y-124336096D01*
X172793655Y-124336094D01*
X172565413Y-124274938D01*
X172565403Y-124274936D01*
X172330001Y-124254341D01*
X172329999Y-124254341D01*
X172094596Y-124274936D01*
X172094586Y-124274938D01*
X171866344Y-124336094D01*
X171866335Y-124336098D01*
X171652171Y-124435964D01*
X171652169Y-124435965D01*
X171458597Y-124571505D01*
X171291505Y-124738597D01*
X171161575Y-124924158D01*
X171106998Y-124967783D01*
X171037500Y-124974977D01*
X170975145Y-124943454D01*
X170958425Y-124924158D01*
X170828494Y-124738597D01*
X170661402Y-124571506D01*
X170661395Y-124571501D01*
X170467834Y-124435967D01*
X170467830Y-124435965D01*
X170396727Y-124402809D01*
X170253663Y-124336097D01*
X170253659Y-124336096D01*
X170253655Y-124336094D01*
X170025413Y-124274938D01*
X170025403Y-124274936D01*
X169790001Y-124254341D01*
X169789999Y-124254341D01*
X169554596Y-124274936D01*
X169554586Y-124274938D01*
X169326344Y-124336094D01*
X169326335Y-124336098D01*
X169112171Y-124435964D01*
X169112169Y-124435965D01*
X168918597Y-124571505D01*
X168751505Y-124738597D01*
X168615965Y-124932169D01*
X168615964Y-124932171D01*
X168516098Y-125146335D01*
X168516094Y-125146344D01*
X168454938Y-125374586D01*
X168454936Y-125374596D01*
X168434341Y-125609999D01*
X168434341Y-125610000D01*
X153580500Y-125610000D01*
X153580500Y-111035000D01*
X168434341Y-111035000D01*
X168454936Y-111270403D01*
X168454938Y-111270413D01*
X168516094Y-111498655D01*
X168516096Y-111498659D01*
X168516097Y-111498663D01*
X168595801Y-111669588D01*
X168615965Y-111712830D01*
X168615967Y-111712834D01*
X168724281Y-111867521D01*
X168751505Y-111906401D01*
X168918599Y-112073495D01*
X169015384Y-112141265D01*
X169112165Y-112209032D01*
X169112167Y-112209033D01*
X169112170Y-112209035D01*
X169326337Y-112308903D01*
X169554592Y-112370063D01*
X169731034Y-112385500D01*
X169789999Y-112390659D01*
X169790000Y-112390659D01*
X169790001Y-112390659D01*
X169848966Y-112385500D01*
X170025408Y-112370063D01*
X170253663Y-112308903D01*
X170467830Y-112209035D01*
X170661401Y-112073495D01*
X170828495Y-111906401D01*
X170958730Y-111720405D01*
X171013307Y-111676781D01*
X171082805Y-111669587D01*
X171145160Y-111701110D01*
X171161879Y-111720405D01*
X171291890Y-111906078D01*
X171458917Y-112073105D01*
X171652421Y-112208600D01*
X171866507Y-112308429D01*
X171866516Y-112308433D01*
X172080000Y-112365634D01*
X172080000Y-111470501D01*
X172187685Y-111519680D01*
X172294237Y-111535000D01*
X172365763Y-111535000D01*
X172472315Y-111519680D01*
X172580000Y-111470501D01*
X172580000Y-112365633D01*
X172793483Y-112308433D01*
X172793492Y-112308429D01*
X173007578Y-112208600D01*
X173201082Y-112073105D01*
X173368105Y-111906082D01*
X173498119Y-111720405D01*
X173552696Y-111676781D01*
X173622195Y-111669588D01*
X173684549Y-111701110D01*
X173701269Y-111720405D01*
X173831505Y-111906401D01*
X173998599Y-112073495D01*
X174095384Y-112141265D01*
X174192165Y-112209032D01*
X174192167Y-112209033D01*
X174192170Y-112209035D01*
X174406337Y-112308903D01*
X174634592Y-112370063D01*
X174811034Y-112385500D01*
X174869999Y-112390659D01*
X174870000Y-112390659D01*
X174870001Y-112390659D01*
X174928966Y-112385500D01*
X175105408Y-112370063D01*
X175333663Y-112308903D01*
X175547830Y-112209035D01*
X175741401Y-112073495D01*
X175908495Y-111906401D01*
X176038425Y-111720842D01*
X176093002Y-111677217D01*
X176162500Y-111670023D01*
X176224855Y-111701546D01*
X176241575Y-111720842D01*
X176371500Y-111906395D01*
X176371505Y-111906401D01*
X176538599Y-112073495D01*
X176635384Y-112141265D01*
X176732165Y-112209032D01*
X176732167Y-112209033D01*
X176732170Y-112209035D01*
X176946337Y-112308903D01*
X177174592Y-112370063D01*
X177351034Y-112385500D01*
X177409999Y-112390659D01*
X177410000Y-112390659D01*
X177410001Y-112390659D01*
X177468966Y-112385500D01*
X177645408Y-112370063D01*
X177873663Y-112308903D01*
X178087830Y-112209035D01*
X178281401Y-112073495D01*
X178448495Y-111906401D01*
X178578425Y-111720842D01*
X178633002Y-111677217D01*
X178702500Y-111670023D01*
X178764855Y-111701546D01*
X178781575Y-111720842D01*
X178911500Y-111906395D01*
X178911505Y-111906401D01*
X179078599Y-112073495D01*
X179175384Y-112141265D01*
X179272165Y-112209032D01*
X179272167Y-112209033D01*
X179272170Y-112209035D01*
X179486337Y-112308903D01*
X179714592Y-112370063D01*
X179891034Y-112385500D01*
X179949999Y-112390659D01*
X179950000Y-112390659D01*
X179950001Y-112390659D01*
X180008966Y-112385500D01*
X180185408Y-112370063D01*
X180413663Y-112308903D01*
X180627830Y-112209035D01*
X180821401Y-112073495D01*
X180988495Y-111906401D01*
X181118425Y-111720842D01*
X181173002Y-111677217D01*
X181242500Y-111670023D01*
X181304855Y-111701546D01*
X181321575Y-111720842D01*
X181451500Y-111906395D01*
X181451505Y-111906401D01*
X181618599Y-112073495D01*
X181715384Y-112141265D01*
X181812165Y-112209032D01*
X181812167Y-112209033D01*
X181812170Y-112209035D01*
X182026337Y-112308903D01*
X182254592Y-112370063D01*
X182431034Y-112385500D01*
X182489999Y-112390659D01*
X182490000Y-112390659D01*
X182490001Y-112390659D01*
X182548966Y-112385500D01*
X182725408Y-112370063D01*
X182953663Y-112308903D01*
X183167830Y-112209035D01*
X183361401Y-112073495D01*
X183528495Y-111906401D01*
X183658425Y-111720842D01*
X183713002Y-111677217D01*
X183782500Y-111670023D01*
X183844855Y-111701546D01*
X183861575Y-111720842D01*
X183991500Y-111906395D01*
X183991505Y-111906401D01*
X184158599Y-112073495D01*
X184255384Y-112141265D01*
X184352165Y-112209032D01*
X184352167Y-112209033D01*
X184352170Y-112209035D01*
X184566337Y-112308903D01*
X184794592Y-112370063D01*
X184971034Y-112385500D01*
X185029999Y-112390659D01*
X185030000Y-112390659D01*
X185030001Y-112390659D01*
X185088966Y-112385500D01*
X185265408Y-112370063D01*
X185493663Y-112308903D01*
X185707830Y-112209035D01*
X185901401Y-112073495D01*
X186068495Y-111906401D01*
X186198425Y-111720842D01*
X186253002Y-111677217D01*
X186322500Y-111670023D01*
X186384855Y-111701546D01*
X186401575Y-111720842D01*
X186531500Y-111906395D01*
X186531505Y-111906401D01*
X186698599Y-112073495D01*
X186795384Y-112141265D01*
X186892165Y-112209032D01*
X186892167Y-112209033D01*
X186892170Y-112209035D01*
X187106337Y-112308903D01*
X187334592Y-112370063D01*
X187511034Y-112385500D01*
X187569999Y-112390659D01*
X187570000Y-112390659D01*
X187570001Y-112390659D01*
X187628966Y-112385500D01*
X187805408Y-112370063D01*
X188033663Y-112308903D01*
X188247830Y-112209035D01*
X188441401Y-112073495D01*
X188608495Y-111906401D01*
X188738425Y-111720842D01*
X188793002Y-111677217D01*
X188862500Y-111670023D01*
X188924855Y-111701546D01*
X188941575Y-111720842D01*
X189071500Y-111906395D01*
X189071505Y-111906401D01*
X189238599Y-112073495D01*
X189335384Y-112141265D01*
X189432165Y-112209032D01*
X189432167Y-112209033D01*
X189432170Y-112209035D01*
X189646337Y-112308903D01*
X189874592Y-112370063D01*
X190051034Y-112385500D01*
X190109999Y-112390659D01*
X190110000Y-112390659D01*
X190110001Y-112390659D01*
X190168966Y-112385500D01*
X190345408Y-112370063D01*
X190573663Y-112308903D01*
X190787830Y-112209035D01*
X190981401Y-112073495D01*
X191148495Y-111906401D01*
X191278425Y-111720842D01*
X191333002Y-111677217D01*
X191402500Y-111670023D01*
X191464855Y-111701546D01*
X191481575Y-111720842D01*
X191611500Y-111906395D01*
X191611505Y-111906401D01*
X191778599Y-112073495D01*
X191875384Y-112141265D01*
X191972165Y-112209032D01*
X191972167Y-112209033D01*
X191972170Y-112209035D01*
X192186337Y-112308903D01*
X192414592Y-112370063D01*
X192591034Y-112385500D01*
X192649999Y-112390659D01*
X192650000Y-112390659D01*
X192650001Y-112390659D01*
X192708966Y-112385500D01*
X192885408Y-112370063D01*
X193113663Y-112308903D01*
X193327830Y-112209035D01*
X193521401Y-112073495D01*
X193688495Y-111906401D01*
X193818425Y-111720842D01*
X193873002Y-111677217D01*
X193942500Y-111670023D01*
X194004855Y-111701546D01*
X194021575Y-111720842D01*
X194151500Y-111906395D01*
X194151505Y-111906401D01*
X194318599Y-112073495D01*
X194415384Y-112141265D01*
X194512165Y-112209032D01*
X194512167Y-112209033D01*
X194512170Y-112209035D01*
X194726337Y-112308903D01*
X194954592Y-112370063D01*
X195131034Y-112385500D01*
X195189999Y-112390659D01*
X195190000Y-112390659D01*
X195190001Y-112390659D01*
X195248966Y-112385500D01*
X195425408Y-112370063D01*
X195653663Y-112308903D01*
X195867830Y-112209035D01*
X196061401Y-112073495D01*
X196228495Y-111906401D01*
X196358425Y-111720842D01*
X196413002Y-111677217D01*
X196482500Y-111670023D01*
X196544855Y-111701546D01*
X196561575Y-111720842D01*
X196691500Y-111906395D01*
X196691505Y-111906401D01*
X196858599Y-112073495D01*
X196955384Y-112141265D01*
X197052165Y-112209032D01*
X197052167Y-112209033D01*
X197052170Y-112209035D01*
X197266337Y-112308903D01*
X197494592Y-112370063D01*
X197671034Y-112385500D01*
X197729999Y-112390659D01*
X197730000Y-112390659D01*
X197730001Y-112390659D01*
X197788966Y-112385500D01*
X197965408Y-112370063D01*
X198193663Y-112308903D01*
X198407830Y-112209035D01*
X198601401Y-112073495D01*
X198768495Y-111906401D01*
X198898425Y-111720842D01*
X198953002Y-111677217D01*
X199022500Y-111670023D01*
X199084855Y-111701546D01*
X199101575Y-111720842D01*
X199231500Y-111906395D01*
X199231505Y-111906401D01*
X199398599Y-112073495D01*
X199495384Y-112141265D01*
X199592165Y-112209032D01*
X199592167Y-112209033D01*
X199592170Y-112209035D01*
X199806337Y-112308903D01*
X200034592Y-112370063D01*
X200211034Y-112385500D01*
X200269999Y-112390659D01*
X200270000Y-112390659D01*
X200270001Y-112390659D01*
X200328966Y-112385500D01*
X200505408Y-112370063D01*
X200733663Y-112308903D01*
X200947830Y-112209035D01*
X201141401Y-112073495D01*
X201308495Y-111906401D01*
X201438425Y-111720842D01*
X201493002Y-111677217D01*
X201562500Y-111670023D01*
X201624855Y-111701546D01*
X201641575Y-111720842D01*
X201771500Y-111906395D01*
X201771505Y-111906401D01*
X201938599Y-112073495D01*
X202035384Y-112141265D01*
X202132165Y-112209032D01*
X202132167Y-112209033D01*
X202132170Y-112209035D01*
X202346337Y-112308903D01*
X202574592Y-112370063D01*
X202751034Y-112385500D01*
X202809999Y-112390659D01*
X202810000Y-112390659D01*
X202810001Y-112390659D01*
X202868966Y-112385500D01*
X203045408Y-112370063D01*
X203273663Y-112308903D01*
X203487830Y-112209035D01*
X203681401Y-112073495D01*
X203848495Y-111906401D01*
X203978425Y-111720842D01*
X204033002Y-111677217D01*
X204102500Y-111670023D01*
X204164855Y-111701546D01*
X204181575Y-111720842D01*
X204311500Y-111906395D01*
X204311505Y-111906401D01*
X204478599Y-112073495D01*
X204575384Y-112141265D01*
X204672165Y-112209032D01*
X204672167Y-112209033D01*
X204672170Y-112209035D01*
X204886337Y-112308903D01*
X205114592Y-112370063D01*
X205291034Y-112385500D01*
X205349999Y-112390659D01*
X205350000Y-112390659D01*
X205350001Y-112390659D01*
X205408966Y-112385500D01*
X205585408Y-112370063D01*
X205813663Y-112308903D01*
X206027830Y-112209035D01*
X206221401Y-112073495D01*
X206388495Y-111906401D01*
X206518425Y-111720842D01*
X206573002Y-111677217D01*
X206642500Y-111670023D01*
X206704855Y-111701546D01*
X206721575Y-111720842D01*
X206851500Y-111906395D01*
X206851505Y-111906401D01*
X207018599Y-112073495D01*
X207115384Y-112141265D01*
X207212165Y-112209032D01*
X207212167Y-112209033D01*
X207212170Y-112209035D01*
X207426337Y-112308903D01*
X207654592Y-112370063D01*
X207831034Y-112385500D01*
X207889999Y-112390659D01*
X207890000Y-112390659D01*
X207890001Y-112390659D01*
X207948966Y-112385500D01*
X208125408Y-112370063D01*
X208353663Y-112308903D01*
X208567830Y-112209035D01*
X208761401Y-112073495D01*
X208928495Y-111906401D01*
X209058425Y-111720842D01*
X209113002Y-111677217D01*
X209182500Y-111670023D01*
X209244855Y-111701546D01*
X209261575Y-111720842D01*
X209391500Y-111906395D01*
X209391505Y-111906401D01*
X209558599Y-112073495D01*
X209655384Y-112141265D01*
X209752165Y-112209032D01*
X209752167Y-112209033D01*
X209752170Y-112209035D01*
X209966337Y-112308903D01*
X210194592Y-112370063D01*
X210371034Y-112385500D01*
X210429999Y-112390659D01*
X210430000Y-112390659D01*
X210430001Y-112390659D01*
X210488966Y-112385500D01*
X210665408Y-112370063D01*
X210893663Y-112308903D01*
X211107830Y-112209035D01*
X211301401Y-112073495D01*
X211468495Y-111906401D01*
X211598425Y-111720842D01*
X211653002Y-111677217D01*
X211722500Y-111670023D01*
X211784855Y-111701546D01*
X211801575Y-111720842D01*
X211931500Y-111906395D01*
X211931505Y-111906401D01*
X212098599Y-112073495D01*
X212195384Y-112141265D01*
X212292165Y-112209032D01*
X212292167Y-112209033D01*
X212292170Y-112209035D01*
X212506337Y-112308903D01*
X212734592Y-112370063D01*
X212911034Y-112385500D01*
X212969999Y-112390659D01*
X212970000Y-112390659D01*
X212970001Y-112390659D01*
X213028966Y-112385500D01*
X213205408Y-112370063D01*
X213433663Y-112308903D01*
X213647830Y-112209035D01*
X213841401Y-112073495D01*
X214008495Y-111906401D01*
X214138425Y-111720842D01*
X214193002Y-111677217D01*
X214262500Y-111670023D01*
X214324855Y-111701546D01*
X214341575Y-111720842D01*
X214471500Y-111906395D01*
X214471505Y-111906401D01*
X214638599Y-112073495D01*
X214735384Y-112141265D01*
X214832165Y-112209032D01*
X214832167Y-112209033D01*
X214832170Y-112209035D01*
X215046337Y-112308903D01*
X215274592Y-112370063D01*
X215451034Y-112385500D01*
X215509999Y-112390659D01*
X215510000Y-112390659D01*
X215510001Y-112390659D01*
X215568966Y-112385500D01*
X215745408Y-112370063D01*
X215973663Y-112308903D01*
X216187830Y-112209035D01*
X216381401Y-112073495D01*
X216503329Y-111951566D01*
X216564648Y-111918084D01*
X216634340Y-111923068D01*
X216690274Y-111964939D01*
X216707189Y-111995917D01*
X216756202Y-112127328D01*
X216756206Y-112127335D01*
X216842452Y-112242544D01*
X216842455Y-112242547D01*
X216957664Y-112328793D01*
X216957671Y-112328797D01*
X217092517Y-112379091D01*
X217092516Y-112379091D01*
X217099444Y-112379835D01*
X217152127Y-112385500D01*
X218947872Y-112385499D01*
X219007483Y-112379091D01*
X219142331Y-112328796D01*
X219257546Y-112242546D01*
X219343796Y-112127331D01*
X219394091Y-111992483D01*
X219400500Y-111932873D01*
X219400499Y-110137128D01*
X219394091Y-110077517D01*
X219392810Y-110074083D01*
X219343797Y-109942671D01*
X219343793Y-109942664D01*
X219257547Y-109827455D01*
X219257544Y-109827452D01*
X219142335Y-109741206D01*
X219142328Y-109741202D01*
X219007482Y-109690908D01*
X219007483Y-109690908D01*
X218947883Y-109684501D01*
X218947881Y-109684500D01*
X218947873Y-109684500D01*
X218947864Y-109684500D01*
X217152129Y-109684500D01*
X217152123Y-109684501D01*
X217092516Y-109690908D01*
X216957671Y-109741202D01*
X216957664Y-109741206D01*
X216842455Y-109827452D01*
X216842452Y-109827455D01*
X216756206Y-109942664D01*
X216756203Y-109942669D01*
X216707189Y-110074083D01*
X216665317Y-110130016D01*
X216599853Y-110154433D01*
X216531580Y-110139581D01*
X216503326Y-110118430D01*
X216381402Y-109996506D01*
X216381395Y-109996501D01*
X216187834Y-109860967D01*
X216187830Y-109860965D01*
X216135500Y-109836563D01*
X215973663Y-109761097D01*
X215973659Y-109761096D01*
X215973655Y-109761094D01*
X215745413Y-109699938D01*
X215745403Y-109699936D01*
X215510001Y-109679341D01*
X215509999Y-109679341D01*
X215274596Y-109699936D01*
X215274586Y-109699938D01*
X215046344Y-109761094D01*
X215046335Y-109761098D01*
X214832171Y-109860964D01*
X214832169Y-109860965D01*
X214638597Y-109996505D01*
X214471505Y-110163597D01*
X214341575Y-110349158D01*
X214286998Y-110392783D01*
X214217500Y-110399977D01*
X214155145Y-110368454D01*
X214138425Y-110349158D01*
X214008494Y-110163597D01*
X213841402Y-109996506D01*
X213841395Y-109996501D01*
X213647834Y-109860967D01*
X213647830Y-109860965D01*
X213595500Y-109836563D01*
X213433663Y-109761097D01*
X213433659Y-109761096D01*
X213433655Y-109761094D01*
X213205413Y-109699938D01*
X213205403Y-109699936D01*
X212970001Y-109679341D01*
X212969999Y-109679341D01*
X212734596Y-109699936D01*
X212734586Y-109699938D01*
X212506344Y-109761094D01*
X212506335Y-109761098D01*
X212292171Y-109860964D01*
X212292169Y-109860965D01*
X212098597Y-109996505D01*
X211931505Y-110163597D01*
X211801575Y-110349158D01*
X211746998Y-110392783D01*
X211677500Y-110399977D01*
X211615145Y-110368454D01*
X211598425Y-110349158D01*
X211468494Y-110163597D01*
X211301402Y-109996506D01*
X211301395Y-109996501D01*
X211107834Y-109860967D01*
X211107830Y-109860965D01*
X211055500Y-109836563D01*
X210893663Y-109761097D01*
X210893659Y-109761096D01*
X210893655Y-109761094D01*
X210665413Y-109699938D01*
X210665403Y-109699936D01*
X210430001Y-109679341D01*
X210429999Y-109679341D01*
X210194596Y-109699936D01*
X210194586Y-109699938D01*
X209966344Y-109761094D01*
X209966335Y-109761098D01*
X209752171Y-109860964D01*
X209752169Y-109860965D01*
X209558597Y-109996505D01*
X209391505Y-110163597D01*
X209261575Y-110349158D01*
X209206998Y-110392783D01*
X209137500Y-110399977D01*
X209075145Y-110368454D01*
X209058425Y-110349158D01*
X208928494Y-110163597D01*
X208761402Y-109996506D01*
X208761395Y-109996501D01*
X208567834Y-109860967D01*
X208567830Y-109860965D01*
X208515500Y-109836563D01*
X208353663Y-109761097D01*
X208353659Y-109761096D01*
X208353655Y-109761094D01*
X208125413Y-109699938D01*
X208125403Y-109699936D01*
X207890001Y-109679341D01*
X207889999Y-109679341D01*
X207654596Y-109699936D01*
X207654586Y-109699938D01*
X207426344Y-109761094D01*
X207426335Y-109761098D01*
X207212171Y-109860964D01*
X207212169Y-109860965D01*
X207018597Y-109996505D01*
X206851505Y-110163597D01*
X206721575Y-110349158D01*
X206666998Y-110392783D01*
X206597500Y-110399977D01*
X206535145Y-110368454D01*
X206518425Y-110349158D01*
X206388494Y-110163597D01*
X206221402Y-109996506D01*
X206221401Y-109996505D01*
X206088093Y-109903161D01*
X206028376Y-109861347D01*
X205984751Y-109806770D01*
X205975500Y-109759772D01*
X205975500Y-107022737D01*
X205977224Y-107007123D01*
X205976938Y-107007096D01*
X205977672Y-106999333D01*
X205975500Y-106930202D01*
X205975500Y-106900651D01*
X205975500Y-106900650D01*
X205974629Y-106893759D01*
X205974172Y-106887945D01*
X205972709Y-106841374D01*
X205972709Y-106841372D01*
X205967120Y-106822137D01*
X205963174Y-106803084D01*
X205960664Y-106783208D01*
X205943501Y-106739859D01*
X205941614Y-106734346D01*
X205928617Y-106689610D01*
X205928616Y-106689608D01*
X205918421Y-106672369D01*
X205909860Y-106654893D01*
X205902486Y-106636269D01*
X205902486Y-106636267D01*
X205892474Y-106622488D01*
X205875083Y-106598550D01*
X205871900Y-106593705D01*
X205848170Y-106553579D01*
X205848165Y-106553573D01*
X205834005Y-106539413D01*
X205821370Y-106524620D01*
X205809593Y-106508412D01*
X205773693Y-106478713D01*
X205769381Y-106474790D01*
X192910803Y-93616212D01*
X192900980Y-93603950D01*
X192900759Y-93604134D01*
X192895786Y-93598123D01*
X192845364Y-93550773D01*
X192834919Y-93540328D01*
X192824475Y-93529883D01*
X192818986Y-93525625D01*
X192814561Y-93521847D01*
X192780582Y-93489938D01*
X192780580Y-93489936D01*
X192780577Y-93489935D01*
X192763029Y-93480288D01*
X192746763Y-93469604D01*
X192742537Y-93466326D01*
X192730936Y-93457327D01*
X192730935Y-93457326D01*
X192730933Y-93457325D01*
X192688168Y-93438818D01*
X192682922Y-93436248D01*
X192642093Y-93413803D01*
X192642092Y-93413802D01*
X192622693Y-93408822D01*
X192604281Y-93402518D01*
X192585898Y-93394562D01*
X192585892Y-93394560D01*
X192539874Y-93387272D01*
X192534152Y-93386087D01*
X192489021Y-93374500D01*
X192489019Y-93374500D01*
X192468984Y-93374500D01*
X192449586Y-93372973D01*
X192442162Y-93371797D01*
X192429805Y-93369840D01*
X192429804Y-93369840D01*
X192383416Y-93374225D01*
X192377578Y-93374500D01*
X177690453Y-93374500D01*
X177623414Y-93354815D01*
X177602772Y-93338181D01*
X176020803Y-91756212D01*
X176010980Y-91743950D01*
X176010759Y-91744134D01*
X176005786Y-91738123D01*
X176002309Y-91734858D01*
X175955364Y-91690773D01*
X175940926Y-91676335D01*
X175934475Y-91669883D01*
X175928986Y-91665625D01*
X175924561Y-91661847D01*
X175890582Y-91629938D01*
X175890580Y-91629936D01*
X175890577Y-91629935D01*
X175873029Y-91620288D01*
X175856763Y-91609604D01*
X175840933Y-91597325D01*
X175798168Y-91578818D01*
X175792922Y-91576248D01*
X175752093Y-91553803D01*
X175752092Y-91553802D01*
X175732693Y-91548822D01*
X175714281Y-91542518D01*
X175695898Y-91534562D01*
X175695892Y-91534560D01*
X175649874Y-91527272D01*
X175644152Y-91526087D01*
X175599021Y-91514500D01*
X175599019Y-91514500D01*
X175578984Y-91514500D01*
X175559586Y-91512973D01*
X175552162Y-91511797D01*
X175539805Y-91509840D01*
X175539804Y-91509840D01*
X175493416Y-91514225D01*
X175487578Y-91514500D01*
X173815227Y-91514500D01*
X173748188Y-91494815D01*
X173713652Y-91461623D01*
X173578494Y-91268597D01*
X173411402Y-91101506D01*
X173411396Y-91101501D01*
X173225842Y-90971575D01*
X173182217Y-90916998D01*
X173175023Y-90847500D01*
X173206546Y-90785145D01*
X173225842Y-90768425D01*
X173248026Y-90752891D01*
X173411401Y-90638495D01*
X173578495Y-90471401D01*
X173714035Y-90277830D01*
X173813903Y-90063663D01*
X173875063Y-89835408D01*
X173895659Y-89600000D01*
X173875063Y-89364592D01*
X173813903Y-89136337D01*
X173714035Y-88922171D01*
X173708425Y-88914158D01*
X173578494Y-88728597D01*
X173411402Y-88561506D01*
X173411396Y-88561501D01*
X173225842Y-88431575D01*
X173182217Y-88376998D01*
X173175023Y-88307500D01*
X173206546Y-88245145D01*
X173225842Y-88228425D01*
X173248026Y-88212891D01*
X173411401Y-88098495D01*
X173578495Y-87931401D01*
X173714035Y-87737830D01*
X173813903Y-87523663D01*
X173875063Y-87295408D01*
X173895659Y-87060000D01*
X173875063Y-86824592D01*
X173813903Y-86596337D01*
X173714035Y-86382171D01*
X173708425Y-86374158D01*
X173578494Y-86188597D01*
X173411402Y-86021506D01*
X173411396Y-86021501D01*
X173225842Y-85891575D01*
X173182217Y-85836998D01*
X173175023Y-85767500D01*
X173206546Y-85705145D01*
X173225842Y-85688425D01*
X173334865Y-85612086D01*
X173411401Y-85558495D01*
X173578495Y-85391401D01*
X173714035Y-85197830D01*
X173813903Y-84983663D01*
X173875063Y-84755408D01*
X173895659Y-84520000D01*
X173875063Y-84284592D01*
X173813903Y-84056337D01*
X173714035Y-83842171D01*
X173578495Y-83648599D01*
X173578494Y-83648597D01*
X173411402Y-83481506D01*
X173411395Y-83481501D01*
X173217834Y-83345967D01*
X173217830Y-83345965D01*
X173146727Y-83312809D01*
X173003663Y-83246097D01*
X173003659Y-83246096D01*
X173003655Y-83246094D01*
X172775413Y-83184938D01*
X172775403Y-83184936D01*
X172540001Y-83164341D01*
X172539999Y-83164341D01*
X172304596Y-83184936D01*
X172304586Y-83184938D01*
X172076344Y-83246094D01*
X172076335Y-83246098D01*
X171862171Y-83345964D01*
X171862169Y-83345965D01*
X171668600Y-83481503D01*
X171546284Y-83603819D01*
X171484961Y-83637303D01*
X171415269Y-83632319D01*
X171359336Y-83590447D01*
X171342421Y-83559470D01*
X171293354Y-83427913D01*
X171293350Y-83427906D01*
X171207190Y-83312812D01*
X171207187Y-83312809D01*
X171092093Y-83226649D01*
X171092086Y-83226645D01*
X170957379Y-83176403D01*
X170957372Y-83176401D01*
X170897844Y-83170000D01*
X170250000Y-83170000D01*
X170250000Y-84084498D01*
X170142315Y-84035320D01*
X170035763Y-84020000D01*
X169964237Y-84020000D01*
X169857685Y-84035320D01*
X169750000Y-84084498D01*
X169750000Y-83170000D01*
X169102155Y-83170000D01*
X169042627Y-83176401D01*
X169042620Y-83176403D01*
X168907913Y-83226645D01*
X168907906Y-83226649D01*
X168792812Y-83312809D01*
X168792809Y-83312812D01*
X168706649Y-83427906D01*
X168706645Y-83427913D01*
X168656403Y-83562620D01*
X168656401Y-83562627D01*
X168650000Y-83622155D01*
X168650000Y-84270000D01*
X169566314Y-84270000D01*
X169540507Y-84310156D01*
X169500000Y-84448111D01*
X169500000Y-84591889D01*
X169540507Y-84729844D01*
X169566314Y-84770000D01*
X168650000Y-84770000D01*
X168650000Y-85417844D01*
X168656401Y-85477372D01*
X168656403Y-85477379D01*
X168706645Y-85612086D01*
X168706649Y-85612093D01*
X168792809Y-85727187D01*
X168792812Y-85727190D01*
X168907906Y-85813350D01*
X168907913Y-85813354D01*
X169039470Y-85862421D01*
X169095403Y-85904292D01*
X169119821Y-85969756D01*
X169104970Y-86038029D01*
X169083819Y-86066284D01*
X168961503Y-86188600D01*
X168825965Y-86382169D01*
X168825964Y-86382171D01*
X168726098Y-86596335D01*
X168726094Y-86596344D01*
X168664938Y-86824586D01*
X168664936Y-86824596D01*
X168644341Y-87059999D01*
X168644341Y-87060000D01*
X168664936Y-87295403D01*
X168664938Y-87295413D01*
X168726094Y-87523655D01*
X168726096Y-87523659D01*
X168726097Y-87523663D01*
X168730000Y-87532032D01*
X168825965Y-87737830D01*
X168825967Y-87737834D01*
X168934281Y-87892521D01*
X168961501Y-87931396D01*
X168961506Y-87931402D01*
X169128597Y-88098493D01*
X169128603Y-88098498D01*
X169314158Y-88228425D01*
X169357783Y-88283002D01*
X169364977Y-88352500D01*
X169333454Y-88414855D01*
X169314158Y-88431575D01*
X169128597Y-88561505D01*
X168961505Y-88728597D01*
X168825965Y-88922169D01*
X168825964Y-88922171D01*
X168726098Y-89136335D01*
X168726094Y-89136344D01*
X168664938Y-89364586D01*
X168664936Y-89364596D01*
X168644341Y-89599999D01*
X168644341Y-89600000D01*
X168664936Y-89835403D01*
X168664938Y-89835413D01*
X168726094Y-90063655D01*
X168726096Y-90063659D01*
X168726097Y-90063663D01*
X168730000Y-90072032D01*
X168825965Y-90277830D01*
X168825967Y-90277834D01*
X168934281Y-90432521D01*
X168961501Y-90471396D01*
X168961506Y-90471402D01*
X169128597Y-90638493D01*
X169128603Y-90638498D01*
X169314158Y-90768425D01*
X169357783Y-90823002D01*
X169364977Y-90892500D01*
X169333454Y-90954855D01*
X169314158Y-90971575D01*
X169128597Y-91101505D01*
X168961505Y-91268597D01*
X168825965Y-91462169D01*
X168825964Y-91462171D01*
X168726098Y-91676335D01*
X168726094Y-91676344D01*
X168664938Y-91904586D01*
X168664936Y-91904596D01*
X168644341Y-92139999D01*
X168644341Y-92140000D01*
X168664936Y-92375403D01*
X168664938Y-92375413D01*
X168726094Y-92603655D01*
X168726096Y-92603659D01*
X168726097Y-92603663D01*
X168740633Y-92634835D01*
X168825965Y-92817830D01*
X168825967Y-92817834D01*
X168879896Y-92894852D01*
X168961505Y-93011401D01*
X169128599Y-93178495D01*
X169225384Y-93246265D01*
X169322165Y-93314032D01*
X169322167Y-93314033D01*
X169322170Y-93314035D01*
X169536337Y-93413903D01*
X169536343Y-93413904D01*
X169536344Y-93413905D01*
X169591285Y-93428626D01*
X169764592Y-93475063D01*
X169952918Y-93491539D01*
X169999999Y-93495659D01*
X170000000Y-93495659D01*
X170000001Y-93495659D01*
X170039234Y-93492226D01*
X170235408Y-93475063D01*
X170463663Y-93413903D01*
X170677830Y-93314035D01*
X170871401Y-93178495D01*
X171038495Y-93011401D01*
X171168425Y-92825842D01*
X171223002Y-92782217D01*
X171292500Y-92775023D01*
X171354855Y-92806546D01*
X171371575Y-92825842D01*
X171501500Y-93011395D01*
X171501505Y-93011401D01*
X171668599Y-93178495D01*
X171765384Y-93246265D01*
X171862165Y-93314032D01*
X171862167Y-93314033D01*
X171862170Y-93314035D01*
X172076337Y-93413903D01*
X172076343Y-93413904D01*
X172076344Y-93413905D01*
X172131285Y-93428626D01*
X172304592Y-93475063D01*
X172492918Y-93491539D01*
X172539999Y-93495659D01*
X172540000Y-93495659D01*
X172540001Y-93495659D01*
X172579234Y-93492226D01*
X172775408Y-93475063D01*
X173003663Y-93413903D01*
X173217830Y-93314035D01*
X173411401Y-93178495D01*
X173578495Y-93011401D01*
X173713652Y-92818377D01*
X173768229Y-92774752D01*
X173815227Y-92765500D01*
X175209548Y-92765500D01*
X175276587Y-92785185D01*
X175297229Y-92801819D01*
X176879197Y-94383788D01*
X176889022Y-94396051D01*
X176889243Y-94395869D01*
X176894214Y-94401878D01*
X176920217Y-94426295D01*
X176944635Y-94449226D01*
X176965529Y-94470120D01*
X176971011Y-94474373D01*
X176975443Y-94478157D01*
X177009418Y-94510062D01*
X177026976Y-94519714D01*
X177043235Y-94530395D01*
X177059064Y-94542673D01*
X177101838Y-94561182D01*
X177107056Y-94563738D01*
X177147908Y-94586197D01*
X177167316Y-94591180D01*
X177185717Y-94597480D01*
X177204104Y-94605437D01*
X177247488Y-94612308D01*
X177250119Y-94612725D01*
X177255839Y-94613909D01*
X177300981Y-94625500D01*
X177321016Y-94625500D01*
X177340414Y-94627026D01*
X177360194Y-94630159D01*
X177360195Y-94630160D01*
X177360195Y-94630159D01*
X177360196Y-94630160D01*
X177406584Y-94625775D01*
X177412422Y-94625500D01*
X192099548Y-94625500D01*
X192166587Y-94645185D01*
X192187229Y-94661819D01*
X204688181Y-107162771D01*
X204721666Y-107224094D01*
X204724500Y-107250452D01*
X204724500Y-109759773D01*
X204704815Y-109826812D01*
X204671623Y-109861348D01*
X204478597Y-109996505D01*
X204311505Y-110163597D01*
X204181575Y-110349158D01*
X204126998Y-110392783D01*
X204057500Y-110399977D01*
X203995145Y-110368454D01*
X203978425Y-110349158D01*
X203848494Y-110163597D01*
X203681402Y-109996506D01*
X203681395Y-109996501D01*
X203487834Y-109860967D01*
X203487830Y-109860965D01*
X203435500Y-109836563D01*
X203273663Y-109761097D01*
X203273659Y-109761096D01*
X203273655Y-109761094D01*
X203045413Y-109699938D01*
X203045403Y-109699936D01*
X202810001Y-109679341D01*
X202809999Y-109679341D01*
X202574596Y-109699936D01*
X202574586Y-109699938D01*
X202346344Y-109761094D01*
X202346335Y-109761098D01*
X202132171Y-109860964D01*
X202132169Y-109860965D01*
X201938597Y-109996505D01*
X201771505Y-110163597D01*
X201641575Y-110349158D01*
X201586998Y-110392783D01*
X201517500Y-110399977D01*
X201455145Y-110368454D01*
X201438425Y-110349158D01*
X201308494Y-110163597D01*
X201141402Y-109996506D01*
X201141395Y-109996501D01*
X200947834Y-109860967D01*
X200947830Y-109860965D01*
X200895500Y-109836563D01*
X200733663Y-109761097D01*
X200733659Y-109761096D01*
X200733655Y-109761094D01*
X200505413Y-109699938D01*
X200505403Y-109699936D01*
X200270001Y-109679341D01*
X200269999Y-109679341D01*
X200034596Y-109699936D01*
X200034586Y-109699938D01*
X199806344Y-109761094D01*
X199806335Y-109761098D01*
X199592171Y-109860964D01*
X199592169Y-109860965D01*
X199398597Y-109996505D01*
X199231505Y-110163597D01*
X199101575Y-110349158D01*
X199046998Y-110392783D01*
X198977500Y-110399977D01*
X198915145Y-110368454D01*
X198898425Y-110349158D01*
X198768494Y-110163597D01*
X198601402Y-109996506D01*
X198601395Y-109996501D01*
X198407834Y-109860967D01*
X198407830Y-109860965D01*
X198355500Y-109836563D01*
X198193663Y-109761097D01*
X198193659Y-109761096D01*
X198193655Y-109761094D01*
X197965413Y-109699938D01*
X197965403Y-109699936D01*
X197730001Y-109679341D01*
X197729999Y-109679341D01*
X197494596Y-109699936D01*
X197494586Y-109699938D01*
X197266344Y-109761094D01*
X197266335Y-109761098D01*
X197052171Y-109860964D01*
X197052169Y-109860965D01*
X196858597Y-109996505D01*
X196691505Y-110163597D01*
X196561575Y-110349158D01*
X196506998Y-110392783D01*
X196437500Y-110399977D01*
X196375145Y-110368454D01*
X196358425Y-110349158D01*
X196228494Y-110163597D01*
X196061402Y-109996506D01*
X196061395Y-109996501D01*
X195867834Y-109860967D01*
X195867830Y-109860965D01*
X195815500Y-109836563D01*
X195653663Y-109761097D01*
X195653659Y-109761096D01*
X195653655Y-109761094D01*
X195425413Y-109699938D01*
X195425403Y-109699936D01*
X195190001Y-109679341D01*
X195189999Y-109679341D01*
X194954596Y-109699936D01*
X194954586Y-109699938D01*
X194726344Y-109761094D01*
X194726335Y-109761098D01*
X194512171Y-109860964D01*
X194512169Y-109860965D01*
X194318597Y-109996505D01*
X194151505Y-110163597D01*
X194021575Y-110349158D01*
X193966998Y-110392783D01*
X193897500Y-110399977D01*
X193835145Y-110368454D01*
X193818425Y-110349158D01*
X193688494Y-110163597D01*
X193521402Y-109996506D01*
X193521395Y-109996501D01*
X193327834Y-109860967D01*
X193327830Y-109860965D01*
X193275500Y-109836563D01*
X193113663Y-109761097D01*
X193113659Y-109761096D01*
X193113655Y-109761094D01*
X192885413Y-109699938D01*
X192885403Y-109699936D01*
X192650001Y-109679341D01*
X192649999Y-109679341D01*
X192414596Y-109699936D01*
X192414586Y-109699938D01*
X192186344Y-109761094D01*
X192186335Y-109761098D01*
X191972171Y-109860964D01*
X191972169Y-109860965D01*
X191778597Y-109996505D01*
X191611505Y-110163597D01*
X191481575Y-110349158D01*
X191426998Y-110392783D01*
X191357500Y-110399977D01*
X191295145Y-110368454D01*
X191278425Y-110349158D01*
X191148494Y-110163597D01*
X190981402Y-109996506D01*
X190981395Y-109996501D01*
X190787834Y-109860967D01*
X190787830Y-109860965D01*
X190735500Y-109836563D01*
X190573663Y-109761097D01*
X190573659Y-109761096D01*
X190573655Y-109761094D01*
X190345413Y-109699938D01*
X190345403Y-109699936D01*
X190110001Y-109679341D01*
X190109999Y-109679341D01*
X189874596Y-109699936D01*
X189874586Y-109699938D01*
X189646344Y-109761094D01*
X189646335Y-109761098D01*
X189432171Y-109860964D01*
X189432169Y-109860965D01*
X189238597Y-109996505D01*
X189071505Y-110163597D01*
X188941575Y-110349158D01*
X188886998Y-110392783D01*
X188817500Y-110399977D01*
X188755145Y-110368454D01*
X188738425Y-110349158D01*
X188608494Y-110163597D01*
X188441402Y-109996506D01*
X188441395Y-109996501D01*
X188247834Y-109860967D01*
X188247830Y-109860965D01*
X188195500Y-109836563D01*
X188033663Y-109761097D01*
X188033659Y-109761096D01*
X188033655Y-109761094D01*
X187805413Y-109699938D01*
X187805403Y-109699936D01*
X187570001Y-109679341D01*
X187569999Y-109679341D01*
X187334596Y-109699936D01*
X187334586Y-109699938D01*
X187106344Y-109761094D01*
X187106335Y-109761098D01*
X186892171Y-109860964D01*
X186892169Y-109860965D01*
X186698597Y-109996505D01*
X186531505Y-110163597D01*
X186401575Y-110349158D01*
X186346998Y-110392783D01*
X186277500Y-110399977D01*
X186215145Y-110368454D01*
X186198425Y-110349158D01*
X186068494Y-110163597D01*
X185901402Y-109996506D01*
X185901395Y-109996501D01*
X185707834Y-109860967D01*
X185707830Y-109860965D01*
X185655500Y-109836563D01*
X185493663Y-109761097D01*
X185493659Y-109761096D01*
X185493655Y-109761094D01*
X185265413Y-109699938D01*
X185265403Y-109699936D01*
X185030001Y-109679341D01*
X185029999Y-109679341D01*
X184794596Y-109699936D01*
X184794586Y-109699938D01*
X184566344Y-109761094D01*
X184566335Y-109761098D01*
X184352171Y-109860964D01*
X184352169Y-109860965D01*
X184158597Y-109996505D01*
X183991505Y-110163597D01*
X183861575Y-110349158D01*
X183806998Y-110392783D01*
X183737500Y-110399977D01*
X183675145Y-110368454D01*
X183658425Y-110349158D01*
X183528494Y-110163597D01*
X183361402Y-109996506D01*
X183361395Y-109996501D01*
X183167834Y-109860967D01*
X183167830Y-109860965D01*
X183115500Y-109836563D01*
X182953663Y-109761097D01*
X182953659Y-109761096D01*
X182953655Y-109761094D01*
X182725413Y-109699938D01*
X182725403Y-109699936D01*
X182490001Y-109679341D01*
X182489999Y-109679341D01*
X182254596Y-109699936D01*
X182254586Y-109699938D01*
X182026344Y-109761094D01*
X182026335Y-109761098D01*
X181812171Y-109860964D01*
X181812169Y-109860965D01*
X181618597Y-109996505D01*
X181451505Y-110163597D01*
X181321575Y-110349158D01*
X181266998Y-110392783D01*
X181197500Y-110399977D01*
X181135145Y-110368454D01*
X181118425Y-110349158D01*
X180988494Y-110163597D01*
X180821402Y-109996506D01*
X180821395Y-109996501D01*
X180627834Y-109860967D01*
X180627830Y-109860965D01*
X180575500Y-109836563D01*
X180413663Y-109761097D01*
X180413659Y-109761096D01*
X180413655Y-109761094D01*
X180185413Y-109699938D01*
X180185403Y-109699936D01*
X179950001Y-109679341D01*
X179949999Y-109679341D01*
X179714596Y-109699936D01*
X179714586Y-109699938D01*
X179486344Y-109761094D01*
X179486335Y-109761098D01*
X179272171Y-109860964D01*
X179272169Y-109860965D01*
X179078597Y-109996505D01*
X178911505Y-110163597D01*
X178781575Y-110349158D01*
X178726998Y-110392783D01*
X178657500Y-110399977D01*
X178595145Y-110368454D01*
X178578425Y-110349158D01*
X178448494Y-110163597D01*
X178281402Y-109996506D01*
X178281395Y-109996501D01*
X178087834Y-109860967D01*
X178087830Y-109860965D01*
X178035500Y-109836563D01*
X177873663Y-109761097D01*
X177873659Y-109761096D01*
X177873655Y-109761094D01*
X177645413Y-109699938D01*
X177645403Y-109699936D01*
X177410001Y-109679341D01*
X177409999Y-109679341D01*
X177174596Y-109699936D01*
X177174586Y-109699938D01*
X176946344Y-109761094D01*
X176946335Y-109761098D01*
X176732171Y-109860964D01*
X176732169Y-109860965D01*
X176538597Y-109996505D01*
X176371505Y-110163597D01*
X176241575Y-110349158D01*
X176186998Y-110392783D01*
X176117500Y-110399977D01*
X176055145Y-110368454D01*
X176038425Y-110349158D01*
X175908494Y-110163597D01*
X175741402Y-109996506D01*
X175741395Y-109996501D01*
X175547834Y-109860967D01*
X175547830Y-109860965D01*
X175495500Y-109836563D01*
X175333663Y-109761097D01*
X175333659Y-109761096D01*
X175333655Y-109761094D01*
X175105413Y-109699938D01*
X175105403Y-109699936D01*
X174870001Y-109679341D01*
X174869999Y-109679341D01*
X174634596Y-109699936D01*
X174634586Y-109699938D01*
X174406344Y-109761094D01*
X174406335Y-109761098D01*
X174192171Y-109860964D01*
X174192169Y-109860965D01*
X173998597Y-109996505D01*
X173831508Y-110163594D01*
X173701269Y-110349595D01*
X173646692Y-110393219D01*
X173577193Y-110400412D01*
X173514839Y-110368890D01*
X173498119Y-110349594D01*
X173368113Y-110163926D01*
X173368108Y-110163920D01*
X173201082Y-109996894D01*
X173007578Y-109861399D01*
X172793492Y-109761570D01*
X172793486Y-109761567D01*
X172580000Y-109704364D01*
X172580000Y-110599498D01*
X172472315Y-110550320D01*
X172365763Y-110535000D01*
X172294237Y-110535000D01*
X172187685Y-110550320D01*
X172080000Y-110599498D01*
X172080000Y-109704364D01*
X172079999Y-109704364D01*
X171866513Y-109761567D01*
X171866507Y-109761570D01*
X171652422Y-109861399D01*
X171652420Y-109861400D01*
X171458926Y-109996886D01*
X171458920Y-109996891D01*
X171291891Y-110163920D01*
X171291890Y-110163922D01*
X171161880Y-110349595D01*
X171107303Y-110393219D01*
X171037804Y-110400412D01*
X170975450Y-110368890D01*
X170958730Y-110349594D01*
X170828494Y-110163597D01*
X170661402Y-109996506D01*
X170661395Y-109996501D01*
X170467834Y-109860967D01*
X170467830Y-109860965D01*
X170415500Y-109836563D01*
X170253663Y-109761097D01*
X170253659Y-109761096D01*
X170253655Y-109761094D01*
X170025413Y-109699938D01*
X170025403Y-109699936D01*
X169790001Y-109679341D01*
X169789999Y-109679341D01*
X169554596Y-109699936D01*
X169554586Y-109699938D01*
X169326344Y-109761094D01*
X169326335Y-109761098D01*
X169112171Y-109860964D01*
X169112169Y-109860965D01*
X168918597Y-109996505D01*
X168751505Y-110163597D01*
X168615965Y-110357169D01*
X168615964Y-110357171D01*
X168516098Y-110571335D01*
X168516094Y-110571344D01*
X168454938Y-110799586D01*
X168454936Y-110799596D01*
X168434341Y-111034999D01*
X168434341Y-111035000D01*
X153580500Y-111035000D01*
X153580500Y-93020002D01*
X159735034Y-93020002D01*
X159754858Y-93246599D01*
X159754860Y-93246610D01*
X159813730Y-93466317D01*
X159813734Y-93466326D01*
X159909865Y-93672481D01*
X159909866Y-93672483D01*
X159960973Y-93745471D01*
X159960974Y-93745472D01*
X160642046Y-93064399D01*
X160654835Y-93145148D01*
X160712359Y-93258045D01*
X160801955Y-93347641D01*
X160914852Y-93405165D01*
X160995597Y-93417953D01*
X160314526Y-94099025D01*
X160314526Y-94099026D01*
X160387512Y-94150131D01*
X160387516Y-94150133D01*
X160593673Y-94246265D01*
X160593682Y-94246269D01*
X160813389Y-94305139D01*
X160813400Y-94305141D01*
X161039998Y-94324966D01*
X161040002Y-94324966D01*
X161266599Y-94305141D01*
X161266610Y-94305139D01*
X161486317Y-94246269D01*
X161486326Y-94246265D01*
X161692481Y-94150134D01*
X161705253Y-94141191D01*
X161771459Y-94118862D01*
X161839227Y-94135870D01*
X161875644Y-94168449D01*
X161882454Y-94177546D01*
X161928643Y-94212123D01*
X161997664Y-94263793D01*
X161997671Y-94263797D01*
X162132517Y-94314091D01*
X162132516Y-94314091D01*
X162139444Y-94314835D01*
X162192127Y-94320500D01*
X163887872Y-94320499D01*
X163947483Y-94314091D01*
X164082331Y-94263796D01*
X164197546Y-94177546D01*
X164283796Y-94062331D01*
X164334091Y-93927483D01*
X164340500Y-93867873D01*
X164340499Y-92172128D01*
X164334091Y-92112517D01*
X164283796Y-91977669D01*
X164283795Y-91977668D01*
X164283793Y-91977664D01*
X164197547Y-91862455D01*
X164197544Y-91862452D01*
X164082335Y-91776206D01*
X164082328Y-91776202D01*
X163947482Y-91725908D01*
X163947483Y-91725908D01*
X163887883Y-91719501D01*
X163887881Y-91719500D01*
X163887873Y-91719500D01*
X163887864Y-91719500D01*
X162192129Y-91719500D01*
X162192123Y-91719501D01*
X162132516Y-91725908D01*
X161997671Y-91776202D01*
X161997664Y-91776206D01*
X161882457Y-91862451D01*
X161882452Y-91862456D01*
X161875645Y-91871549D01*
X161819710Y-91913418D01*
X161750018Y-91918400D01*
X161705260Y-91898812D01*
X161692485Y-91889868D01*
X161692481Y-91889865D01*
X161486326Y-91793734D01*
X161486317Y-91793730D01*
X161266610Y-91734860D01*
X161266599Y-91734858D01*
X161040002Y-91715034D01*
X161039998Y-91715034D01*
X160813400Y-91734858D01*
X160813389Y-91734860D01*
X160593682Y-91793730D01*
X160593673Y-91793734D01*
X160387513Y-91889868D01*
X160314526Y-91940973D01*
X160995599Y-92622046D01*
X160914852Y-92634835D01*
X160801955Y-92692359D01*
X160712359Y-92781955D01*
X160654835Y-92894852D01*
X160642046Y-92975599D01*
X159960973Y-92294526D01*
X159960972Y-92294527D01*
X159909868Y-92367513D01*
X159813734Y-92573673D01*
X159813730Y-92573682D01*
X159754860Y-92793389D01*
X159754858Y-92793400D01*
X159735034Y-93019997D01*
X159735034Y-93020002D01*
X153580500Y-93020002D01*
X153580500Y-85869999D01*
X155211127Y-85869999D01*
X155211128Y-85870000D01*
X156174314Y-85870000D01*
X156162359Y-85881955D01*
X156104835Y-85994852D01*
X156085014Y-86120000D01*
X156104835Y-86245148D01*
X156162359Y-86358045D01*
X156174314Y-86370000D01*
X155211128Y-86370000D01*
X155263730Y-86566317D01*
X155263734Y-86566326D01*
X155359865Y-86772482D01*
X155490342Y-86958820D01*
X155651179Y-87119657D01*
X155837517Y-87250134D01*
X156043673Y-87346265D01*
X156043682Y-87346269D01*
X156239999Y-87398872D01*
X156240000Y-87398871D01*
X156240000Y-86435686D01*
X156251955Y-86447641D01*
X156364852Y-86505165D01*
X156458519Y-86520000D01*
X156521481Y-86520000D01*
X156615148Y-86505165D01*
X156728045Y-86447641D01*
X156740000Y-86435686D01*
X156740000Y-87398872D01*
X156936317Y-87346269D01*
X156936326Y-87346265D01*
X157142482Y-87250134D01*
X157328820Y-87119657D01*
X157489657Y-86958820D01*
X157620134Y-86772482D01*
X157716265Y-86566326D01*
X157716269Y-86566317D01*
X157768872Y-86370000D01*
X156805686Y-86370000D01*
X156817641Y-86358045D01*
X156875165Y-86245148D01*
X156894986Y-86120001D01*
X162684532Y-86120001D01*
X162704364Y-86346686D01*
X162704366Y-86346697D01*
X162763258Y-86566488D01*
X162763261Y-86566497D01*
X162859431Y-86772732D01*
X162859432Y-86772734D01*
X162989954Y-86959141D01*
X163150858Y-87120045D01*
X163150861Y-87120047D01*
X163337266Y-87250568D01*
X163543504Y-87346739D01*
X163763308Y-87405635D01*
X163925230Y-87419801D01*
X163989998Y-87425468D01*
X163990000Y-87425468D01*
X163990002Y-87425468D01*
X164046673Y-87420509D01*
X164216692Y-87405635D01*
X164436496Y-87346739D01*
X164642734Y-87250568D01*
X164829139Y-87120047D01*
X164990047Y-86959139D01*
X165120568Y-86772734D01*
X165216739Y-86566496D01*
X165275635Y-86346692D01*
X165295468Y-86120000D01*
X165275635Y-85893308D01*
X165216739Y-85673504D01*
X165120568Y-85467266D01*
X164990047Y-85280861D01*
X164990045Y-85280858D01*
X164829141Y-85119954D01*
X164642734Y-84989432D01*
X164642732Y-84989431D01*
X164436497Y-84893261D01*
X164436488Y-84893258D01*
X164216697Y-84834366D01*
X164216693Y-84834365D01*
X164216692Y-84834365D01*
X164216691Y-84834364D01*
X164216686Y-84834364D01*
X163990002Y-84814532D01*
X163989998Y-84814532D01*
X163763313Y-84834364D01*
X163763302Y-84834366D01*
X163543511Y-84893258D01*
X163543502Y-84893261D01*
X163337267Y-84989431D01*
X163337265Y-84989432D01*
X163150858Y-85119954D01*
X162989954Y-85280858D01*
X162859432Y-85467265D01*
X162859431Y-85467267D01*
X162763261Y-85673502D01*
X162763258Y-85673511D01*
X162704366Y-85893302D01*
X162704364Y-85893313D01*
X162684532Y-86119998D01*
X162684532Y-86120001D01*
X156894986Y-86120001D01*
X156894986Y-86120000D01*
X156875165Y-85994852D01*
X156817641Y-85881955D01*
X156805686Y-85870000D01*
X157768872Y-85870000D01*
X157768872Y-85869999D01*
X157716269Y-85673682D01*
X157716265Y-85673673D01*
X157620134Y-85467517D01*
X157489657Y-85281179D01*
X157328820Y-85120342D01*
X157142482Y-84989865D01*
X156936328Y-84893734D01*
X156740000Y-84841127D01*
X156740000Y-85804314D01*
X156728045Y-85792359D01*
X156615148Y-85734835D01*
X156521481Y-85720000D01*
X156458519Y-85720000D01*
X156364852Y-85734835D01*
X156251955Y-85792359D01*
X156240000Y-85804314D01*
X156240000Y-84841127D01*
X156043671Y-84893734D01*
X155837517Y-84989865D01*
X155651179Y-85120342D01*
X155490342Y-85281179D01*
X155359865Y-85467517D01*
X155263734Y-85673673D01*
X155263730Y-85673682D01*
X155211127Y-85869999D01*
X153580500Y-85869999D01*
X153580500Y-78604500D01*
X153600185Y-78537461D01*
X153652989Y-78491706D01*
X153704500Y-78480500D01*
X233455500Y-78480500D01*
X233522539Y-78500185D01*
G37*
%TD.AperFunction*%
%TD*%
M02*
