M48
; DRILL file {KiCad 7.0.9} date 
; FORMAT={-:-/ absolute / metric / decimal}
; #@! TF.CreationDate,2024-02-26T13:17:15+02:00
; #@! TF.GenerationSoftware,Kicad,Pcbnew,7.0.9
; #@! TF.FileFunction,Plated,1,2,PTH
FMAT,2
METRIC
; #@! TA.AperFunction,Plated,PTH,ComponentDrill
T1C0.780
; #@! TA.AperFunction,Plated,PTH,ComponentDrill
T2C0.800
; #@! TA.AperFunction,Plated,PTH,ComponentDrill
T3C0.813
; #@! TA.AperFunction,Plated,PTH,ComponentDrill
T4C1.000
; #@! TA.AperFunction,Plated,PTH,ComponentDrill
T5C1.100
; #@! TA.AperFunction,Plated,PTH,ComponentDrill
T6C1.118
; #@! TA.AperFunction,Plated,PTH,ComponentDrill
T7C1.143
; #@! TA.AperFunction,Plated,PTH,ComponentDrill
T8C1.194
; #@! TA.AperFunction,Plated,PTH,ComponentDrill
T9C2.590
; #@! TA.AperFunction,Plated,PTH,ComponentDrill
T10C3.200
%
G90
G05
T1
X48.514Y-6.86
X48.514Y-14.8
X51.054Y-6.86
X51.054Y-14.8
X53.594Y-6.86
X53.594Y-14.8
X56.134Y-6.86
X56.134Y-14.8
X58.674Y-6.86
X58.674Y-14.8
X61.214Y-6.86
X61.214Y-14.8
X63.754Y-6.86
X63.754Y-14.8
X66.294Y-6.86
X66.294Y-14.8
T2
X16.57Y-5.08
X17.78Y-50.07
X17.78Y-60.23
X17.78Y-70.39
X19.05Y-12.7
X21.05Y-12.7
X24.07Y-5.08
X27.94Y-50.07
X27.94Y-60.23
X27.94Y-70.39
X30.48Y-43.72
X30.48Y-45.72
X30.48Y-53.88
X30.48Y-55.88
X30.48Y-64.04
X30.48Y-66.04
X33.02Y-83.94
X33.02Y-91.44
X38.1Y-73.66
X40.1Y-73.66
X45.72Y-68.7
X45.72Y-76.2
X53.88Y-80.01
X55.88Y-80.01
X60.42Y-73.72
X60.42Y-81.22
X65.5Y-81.34
X65.5Y-88.84
X80.34Y-75.86
X80.34Y-83.36
X85.42Y-73.2
X85.42Y-83.36
T3
X75.09Y-35.6
X75.09Y-38.14
X75.09Y-40.68
X75.09Y-43.22
X75.09Y-48.3
X75.09Y-50.84
X75.09Y-53.38
X75.09Y-55.92
X75.09Y-61.0
X75.09Y-63.54
X75.09Y-66.08
X75.09Y-68.62
X82.71Y-35.6
X82.71Y-38.14
X82.71Y-40.68
X82.71Y-43.22
X82.71Y-48.3
X82.71Y-50.84
X82.71Y-53.38
X82.71Y-55.92
X82.71Y-61.0
X82.71Y-63.54
X82.71Y-66.08
X82.71Y-68.62
T4
X19.304Y-20.828
X19.304Y-35.403
X21.844Y-20.828
X21.844Y-35.403
X24.384Y-20.828
X24.384Y-35.403
X26.924Y-20.828
X26.924Y-35.403
X27.94Y-3.265
X27.94Y-5.805
X27.94Y-8.345
X27.94Y-10.885
X29.464Y-20.828
X29.464Y-35.403
X30.48Y-3.265
X30.48Y-5.805
X30.48Y-8.345
X30.48Y-10.885
X32.004Y-20.828
X32.004Y-35.403
X34.544Y-20.828
X34.544Y-35.403
X37.084Y-20.828
X37.084Y-35.403
X39.624Y-20.828
X39.624Y-35.403
X42.164Y-20.828
X42.164Y-35.403
X44.704Y-20.828
X44.704Y-35.403
X47.244Y-20.828
X47.244Y-35.403
X49.784Y-20.828
X49.784Y-35.403
X52.324Y-20.828
X52.324Y-35.403
X54.864Y-20.828
X54.864Y-35.403
X57.404Y-20.828
X57.404Y-35.403
X59.944Y-20.828
X59.944Y-35.403
X62.484Y-20.828
X62.484Y-35.403
X65.024Y-20.828
X65.024Y-35.403
X67.564Y-20.828
X67.564Y-35.403
T5
X38.1Y-81.28
X38.1Y-87.63
X40.64Y-81.28
X43.18Y-81.28
X43.18Y-87.63
X55.34Y-87.63
X57.88Y-87.63
X60.42Y-87.63
X80.34Y-88.44
X82.88Y-88.44
X85.42Y-88.44
X90.5Y-74.32
X90.5Y-87.32
T6
X9.6Y-15.82
X9.6Y-20.82
X9.6Y-28.64
X9.6Y-33.64
X9.6Y-47.06
X9.6Y-52.06
X9.6Y-57.06
X9.6Y-62.06
X9.6Y-69.87
X9.6Y-74.87
X9.6Y-79.87
X9.6Y-84.87
X15.215Y-100.48
X20.215Y-100.48
X28.035Y-100.48
X33.035Y-100.48
X40.855Y-100.48
X45.855Y-100.48
X53.685Y-100.48
X58.685Y-100.48
X66.495Y-100.48
X71.495Y-100.48
X79.325Y-100.48
X80.79Y-9.51
X84.325Y-100.48
X85.79Y-9.51
X90.42Y-18.705
X90.42Y-23.705
X90.42Y-37.135
X90.42Y-42.135
X90.42Y-55.575
X90.42Y-60.575
X90.79Y-9.51
X95.79Y-9.51
T7
X75.26Y-77.162
X75.26Y-88.161
T8
X5.6Y-40.75
X10.6Y-40.75
X89.42Y-30.01
X89.42Y-48.45
X89.42Y-66.89
X94.42Y-30.01
X94.42Y-48.45
X94.42Y-66.89
T9
X96.15Y-79.25
X96.15Y-84.33
X96.15Y-88.39
X96.15Y-93.47
T10
X7.0Y-101.6
X7.62Y-6.35
X92.71Y-101.6
T0
M30
