%TF.GenerationSoftware,KiCad,Pcbnew,7.0.9*%
%TF.CreationDate,2024-02-26T13:17:10+02:00*%
%TF.ProjectId,kikad_project,6b696b61-645f-4707-926f-6a6563742e6b,rev?*%
%TF.SameCoordinates,Original*%
%TF.FileFunction,Soldermask,Bot*%
%TF.FilePolarity,Negative*%
%FSLAX46Y46*%
G04 Gerber Fmt 4.6, Leading zero omitted, Abs format (unit mm)*
G04 Created by KiCad (PCBNEW 7.0.9) date 2024-02-26 13:17:10*
%MOMM*%
%LPD*%
G01*
G04 APERTURE LIST*
G04 Aperture macros list*
%AMRoundRect*
0 Rectangle with rounded corners*
0 $1 Rounding radius*
0 $2 $3 $4 $5 $6 $7 $8 $9 X,Y pos of 4 corners*
0 Add a 4 corners polygon primitive as box body*
4,1,4,$2,$3,$4,$5,$6,$7,$8,$9,$2,$3,0*
0 Add four circle primitives for the rounded corners*
1,1,$1+$1,$2,$3*
1,1,$1+$1,$4,$5*
1,1,$1+$1,$6,$7*
1,1,$1+$1,$8,$9*
0 Add four rect primitives between the rounded corners*
20,1,$1+$1,$2,$3,$4,$5,0*
20,1,$1+$1,$4,$5,$6,$7,0*
20,1,$1+$1,$6,$7,$8,$9,0*
20,1,$1+$1,$8,$9,$2,$3,0*%
G04 Aperture macros list end*
%ADD10C,1.625600*%
%ADD11C,1.504000*%
%ADD12R,1.651000X1.651000*%
%ADD13C,1.651000*%
%ADD14R,1.905000X2.000000*%
%ADD15O,1.905000X2.000000*%
%ADD16C,1.600000*%
%ADD17O,1.600000X1.600000*%
%ADD18C,1.701800*%
%ADD19C,1.854000*%
%ADD20RoundRect,0.102000X-0.825000X0.825000X-0.825000X-0.825000X0.825000X-0.825000X0.825000X0.825000X0*%
%ADD21R,1.600000X1.600000*%
%ADD22C,6.400000*%
%ADD23C,2.200000*%
%ADD24O,2.200000X2.200000*%
%ADD25C,3.704000*%
%ADD26RoundRect,0.102000X-0.565000X0.565000X-0.565000X-0.565000X0.565000X-0.565000X0.565000X0.565000X0*%
%ADD27C,1.334000*%
%ADD28O,1.700000X1.700000*%
%ADD29R,1.700000X1.700000*%
%ADD30C,1.700000*%
G04 APERTURE END LIST*
D10*
%TO.C,J9*%
X28034900Y-100480001D03*
X33034900Y-100480001D03*
%TD*%
%TO.C,J7*%
X90420001Y-42135101D03*
X90420001Y-37135101D03*
%TD*%
D11*
%TO.C,IC3*%
X75090000Y-61000000D03*
X75090000Y-63540000D03*
X75090000Y-66080000D03*
X75090000Y-68620000D03*
X82710000Y-68620000D03*
X82710000Y-66080000D03*
X82710000Y-63540000D03*
X82710000Y-61000000D03*
%TD*%
D12*
%TO.C,D1*%
X75260000Y-88160600D03*
D13*
X75260000Y-77162400D03*
%TD*%
D10*
%TO.C,J16*%
X90420001Y-60575101D03*
X90420001Y-55575101D03*
%TD*%
%TO.C,J11*%
X9600000Y-47060000D03*
X9600000Y-52060000D03*
X9600000Y-57060000D03*
X9600000Y-62060001D03*
%TD*%
D14*
%TO.C,U4*%
X55340000Y-87630000D03*
D15*
X57880000Y-87630000D03*
X60420000Y-87630000D03*
%TD*%
D16*
%TO.C,C6*%
X60420000Y-81220000D03*
D17*
X60420000Y-73720000D03*
%TD*%
D18*
%TO.C,J17*%
X89420000Y-66890000D03*
X94420000Y-66890000D03*
%TD*%
D19*
%TO.C,D3*%
X90500000Y-87320000D03*
D20*
X90500000Y-74320000D03*
%TD*%
D16*
%TO.C,C9*%
X24070000Y-5080000D03*
D17*
X16570000Y-5080000D03*
%TD*%
D21*
%TO.C,C12*%
X30480000Y-55880000D03*
D16*
X30480000Y-53880000D03*
%TD*%
D11*
%TO.C,IC1*%
X75090000Y-35600000D03*
X75090000Y-38140000D03*
X75090000Y-40680000D03*
X75090000Y-43220000D03*
X82710000Y-43220000D03*
X82710000Y-40680000D03*
X82710000Y-38140000D03*
X82710000Y-35600000D03*
%TD*%
D16*
%TO.C,C4*%
X65500000Y-88840000D03*
D17*
X65500000Y-81340000D03*
%TD*%
D10*
%TO.C,J10*%
X9600000Y-69870000D03*
X9600000Y-74870000D03*
X9600000Y-79870000D03*
X9600000Y-84870001D03*
%TD*%
%TO.C,J6*%
X15214900Y-100480001D03*
X20214900Y-100480001D03*
%TD*%
%TO.C,J2*%
X95790000Y-9510000D03*
X90790000Y-9510000D03*
X85790000Y-9510000D03*
X80789999Y-9510000D03*
%TD*%
%TO.C,J14*%
X9600000Y-28640000D03*
X9600000Y-33640000D03*
%TD*%
D22*
%TO.C,H2*%
X7620000Y-6350000D03*
%TD*%
D16*
%TO.C,C2*%
X45720000Y-76200000D03*
D17*
X45720000Y-68700000D03*
%TD*%
D23*
%TO.C,L1*%
X43180000Y-87630000D03*
D24*
X38100000Y-87630000D03*
%TD*%
D14*
%TO.C,U3*%
X38100000Y-81280000D03*
D15*
X40640000Y-81280000D03*
X43180000Y-81280000D03*
%TD*%
D16*
%TO.C,R3*%
X27940000Y-50070000D03*
D17*
X17780000Y-50070000D03*
%TD*%
D10*
%TO.C,J1*%
X79324900Y-100480001D03*
X84324900Y-100480001D03*
%TD*%
D16*
%TO.C,C3*%
X33020000Y-91440000D03*
D17*
X33020000Y-83940000D03*
%TD*%
D18*
%TO.C,J8*%
X89420000Y-48450000D03*
X94420000Y-48450000D03*
%TD*%
D10*
%TO.C,J3*%
X53684900Y-100480001D03*
X58684900Y-100480001D03*
%TD*%
D21*
%TO.C,C1*%
X40100000Y-73660000D03*
D16*
X38100000Y-73660000D03*
%TD*%
D22*
%TO.C,H1*%
X7000000Y-101600000D03*
%TD*%
D10*
%TO.C,J15*%
X66494900Y-100480001D03*
X71494900Y-100480001D03*
%TD*%
D21*
%TO.C,C11*%
X30480000Y-45720000D03*
D16*
X30480000Y-43720000D03*
%TD*%
%TO.C,R1*%
X85420000Y-83360000D03*
D17*
X85420000Y-73200000D03*
%TD*%
D14*
%TO.C,Q1*%
X80340000Y-88440000D03*
D15*
X82880000Y-88440000D03*
X85420000Y-88440000D03*
%TD*%
D10*
%TO.C,J4*%
X90420001Y-23705101D03*
X90420001Y-18705101D03*
%TD*%
D21*
%TO.C,C5*%
X55880000Y-80010000D03*
D16*
X53880000Y-80010000D03*
%TD*%
D21*
%TO.C,C8*%
X21050000Y-12700000D03*
D16*
X19050000Y-12700000D03*
%TD*%
D22*
%TO.C,H3*%
X92710000Y-101600000D03*
%TD*%
D16*
%TO.C,C7*%
X80340000Y-83360000D03*
D17*
X80340000Y-75860000D03*
%TD*%
D18*
%TO.C,J12*%
X10600001Y-40749999D03*
X5600001Y-40749999D03*
%TD*%
D25*
%TO.C,X1*%
X96150000Y-93470000D03*
X96150000Y-88390000D03*
X96150000Y-84330000D03*
X96150000Y-79250000D03*
%TD*%
D26*
%TO.C,U12*%
X66294000Y-6860000D03*
D27*
X63754000Y-6860000D03*
X61214000Y-6860000D03*
X58674000Y-6860000D03*
X56134000Y-6860000D03*
X53594000Y-6860000D03*
X51054000Y-6860000D03*
X48514000Y-6860000D03*
X48514000Y-14800000D03*
X51054000Y-14800000D03*
X53594000Y-14800000D03*
X56134000Y-14800000D03*
X58674000Y-14800000D03*
X61214000Y-14800000D03*
X63754000Y-14800000D03*
X66294000Y-14800000D03*
%TD*%
D18*
%TO.C,J5*%
X89420000Y-30010000D03*
X94420000Y-30010000D03*
%TD*%
D10*
%TO.C,J13*%
X9600000Y-15820000D03*
X9600000Y-20820000D03*
%TD*%
D28*
%TO.C,U2*%
X67564000Y-20828000D03*
X65024000Y-20828000D03*
X62484000Y-20828000D03*
X59944000Y-20828000D03*
X67564000Y-35403000D03*
X24384000Y-20828000D03*
X26924000Y-20828000D03*
X62484000Y-35403000D03*
X65024000Y-35403000D03*
X57404000Y-20828000D03*
X54864000Y-20828000D03*
X52324000Y-20828000D03*
X49784000Y-20828000D03*
X47244000Y-20828000D03*
X44704000Y-20828000D03*
X42164000Y-20828000D03*
X39624000Y-20828000D03*
X37084000Y-20828000D03*
X34544000Y-20828000D03*
X21844000Y-20828000D03*
X32004000Y-20828000D03*
X29464000Y-20828000D03*
D29*
X19304000Y-20828000D03*
X19304000Y-35403000D03*
D28*
X21844000Y-35403000D03*
X24384000Y-35403000D03*
X26924000Y-35403000D03*
X29464000Y-35403000D03*
X32004000Y-35403000D03*
X34544000Y-35403000D03*
X37084000Y-35403000D03*
X39624000Y-35403000D03*
X42164000Y-35403000D03*
X44704000Y-35403000D03*
X47244000Y-35403000D03*
X49784000Y-35403000D03*
X52324000Y-35403000D03*
X54864000Y-35403000D03*
X57404000Y-35403000D03*
X59944000Y-35403000D03*
%TD*%
D11*
%TO.C,IC2*%
X75090000Y-48300000D03*
X75090000Y-50840000D03*
X75090000Y-53380000D03*
X75090000Y-55920000D03*
X82710000Y-55920000D03*
X82710000Y-53380000D03*
X82710000Y-50840000D03*
X82710000Y-48300000D03*
%TD*%
D10*
%TO.C,J18*%
X40854900Y-100480001D03*
X45854900Y-100480001D03*
%TD*%
D16*
%TO.C,R2*%
X27940000Y-70390000D03*
D17*
X17780000Y-70390000D03*
%TD*%
D21*
%TO.C,C10*%
X30480000Y-66040000D03*
D16*
X30480000Y-64040000D03*
%TD*%
D29*
%TO.C,U1*%
X27940000Y-3265000D03*
D30*
X30480000Y-3265000D03*
X27940000Y-5805000D03*
X30480000Y-5805000D03*
X27940000Y-8345000D03*
X30480000Y-8345000D03*
X27940000Y-10885000D03*
X30480000Y-10885000D03*
%TD*%
D16*
%TO.C,R4*%
X27940000Y-60230000D03*
D17*
X17780000Y-60230000D03*
%TD*%
M02*
