%TF.GenerationSoftware,KiCad,Pcbnew,7.0.9*%
%TF.CreationDate,2024-04-29T14:45:23+03:00*%
%TF.ProjectId,kikad_project,6b696b61-645f-4707-926f-6a6563742e6b,rev?*%
%TF.SameCoordinates,Original*%
%TF.FileFunction,Copper,L1,Top*%
%TF.FilePolarity,Positive*%
%FSLAX46Y46*%
G04 Gerber Fmt 4.6, Leading zero omitted, Abs format (unit mm)*
G04 Created by KiCad (PCBNEW 7.0.9) date 2024-04-29 14:45:23*
%MOMM*%
%LPD*%
G01*
G04 APERTURE LIST*
%TA.AperFunction,ComponentPad*%
%ADD10C,1.400000*%
%TD*%
%TA.AperFunction,ComponentPad*%
%ADD11C,1.625600*%
%TD*%
%TA.AperFunction,ComponentPad*%
%ADD12R,1.651000X1.651000*%
%TD*%
%TA.AperFunction,ComponentPad*%
%ADD13C,1.651000*%
%TD*%
%TA.AperFunction,ComponentPad*%
%ADD14R,1.905000X2.000000*%
%TD*%
%TA.AperFunction,ComponentPad*%
%ADD15O,1.905000X2.000000*%
%TD*%
%TA.AperFunction,ComponentPad*%
%ADD16C,1.650000*%
%TD*%
%TA.AperFunction,ComponentPad*%
%ADD17R,1.650000X1.650000*%
%TD*%
%TA.AperFunction,ComponentPad*%
%ADD18C,1.701800*%
%TD*%
%TA.AperFunction,ComponentPad*%
%ADD19C,1.300000*%
%TD*%
%TA.AperFunction,ComponentPad*%
%ADD20R,1.600000X1.600000*%
%TD*%
%TA.AperFunction,ComponentPad*%
%ADD21O,1.600000X1.600000*%
%TD*%
%TA.AperFunction,ComponentPad*%
%ADD22C,6.400000*%
%TD*%
%TA.AperFunction,ComponentPad*%
%ADD23C,2.200000*%
%TD*%
%TA.AperFunction,ComponentPad*%
%ADD24O,2.200000X2.200000*%
%TD*%
%TA.AperFunction,ComponentPad*%
%ADD25C,1.600000*%
%TD*%
%TA.AperFunction,ComponentPad*%
%ADD26C,3.500000*%
%TD*%
%TA.AperFunction,ComponentPad*%
%ADD27R,1.130000X1.130000*%
%TD*%
%TA.AperFunction,ComponentPad*%
%ADD28C,1.130000*%
%TD*%
%TA.AperFunction,ComponentPad*%
%ADD29O,1.700000X1.700000*%
%TD*%
%TA.AperFunction,ComponentPad*%
%ADD30R,1.700000X1.700000*%
%TD*%
%TA.AperFunction,ComponentPad*%
%ADD31C,1.700000*%
%TD*%
%TA.AperFunction,Conductor*%
%ADD32C,0.500000*%
%TD*%
%TA.AperFunction,Conductor*%
%ADD33C,2.000000*%
%TD*%
%TA.AperFunction,Conductor*%
%ADD34C,0.250000*%
%TD*%
%TA.AperFunction,Conductor*%
%ADD35C,3.000000*%
%TD*%
G04 APERTURE END LIST*
%TA.AperFunction,EtchedComponent*%
%TO.C,REF\u002A\u002A*%
G36*
X75793851Y-18523068D02*
G01*
X75866279Y-18522906D01*
X75920157Y-18523149D01*
X75961006Y-18523692D01*
X75991080Y-18524886D01*
X76002783Y-18525837D01*
X76012637Y-18527084D01*
X76020927Y-18528669D01*
X76027933Y-18530637D01*
X76033938Y-18533032D01*
X76039224Y-18535897D01*
X76044073Y-18539278D01*
X76048766Y-18543218D01*
X76058816Y-18552950D01*
X76060927Y-18582196D01*
X76062472Y-18611481D01*
X76063546Y-18640790D01*
X76064248Y-18670107D01*
X76065847Y-18745546D01*
X76067187Y-18827559D01*
X76068853Y-18911087D01*
X76073698Y-19176375D01*
X76077161Y-19355744D01*
X76085274Y-19796492D01*
X76128062Y-19764556D01*
X76187800Y-19722078D01*
X76245471Y-19680220D01*
X76288545Y-19658066D01*
X76331559Y-19638513D01*
X76374566Y-19621403D01*
X76417622Y-19606576D01*
X76460782Y-19593877D01*
X76504099Y-19583145D01*
X76547630Y-19574225D01*
X76591429Y-19566957D01*
X76635551Y-19561184D01*
X76680050Y-19556747D01*
X76724982Y-19553490D01*
X76770401Y-19551253D01*
X76862922Y-19549210D01*
X76958050Y-19549356D01*
X77067649Y-19549321D01*
X77215219Y-19549603D01*
X77362788Y-19550319D01*
X77672117Y-19550956D01*
X78256809Y-19552650D01*
X78922911Y-19554372D01*
X80292149Y-19558367D01*
X80318607Y-20828367D01*
X80556732Y-20669617D01*
X80603279Y-20650338D01*
X80649500Y-20633466D01*
X80695475Y-20618844D01*
X80741285Y-20606312D01*
X80787010Y-20595712D01*
X80832730Y-20586884D01*
X80878527Y-20579671D01*
X80924480Y-20573913D01*
X80970669Y-20569452D01*
X81017176Y-20566129D01*
X81111463Y-20562262D01*
X81207985Y-20561042D01*
X81307384Y-20561200D01*
X81409807Y-20561313D01*
X81677699Y-20561967D01*
X81951737Y-20562492D01*
X82488190Y-20563784D01*
X82493673Y-21542229D01*
X82496174Y-21996623D01*
X82497533Y-22216123D01*
X82498232Y-22435628D01*
X82498664Y-22519122D01*
X82499380Y-22602614D01*
X82499026Y-22754798D01*
X82496906Y-22828524D01*
X82493022Y-22900769D01*
X82487026Y-22971604D01*
X82478567Y-23041101D01*
X82467296Y-23109333D01*
X82452863Y-23176371D01*
X82434916Y-23242287D01*
X82413107Y-23307153D01*
X82387086Y-23371040D01*
X82356502Y-23434022D01*
X82321006Y-23496169D01*
X82280247Y-23557553D01*
X82233876Y-23618247D01*
X82181542Y-23678322D01*
X82148843Y-23707510D01*
X82114993Y-23735624D01*
X82080050Y-23762551D01*
X82044070Y-23788179D01*
X82007108Y-23812396D01*
X81969221Y-23835090D01*
X81930464Y-23856149D01*
X81890895Y-23875462D01*
X81850568Y-23892915D01*
X81809540Y-23908398D01*
X81767868Y-23921798D01*
X81725607Y-23933002D01*
X81682813Y-23941900D01*
X81639542Y-23948379D01*
X81595851Y-23952327D01*
X81551795Y-23953632D01*
X81481868Y-23953742D01*
X81405802Y-23953454D01*
X81325208Y-23953465D01*
X81061507Y-23953034D01*
X80878662Y-23952921D01*
X80397412Y-23952267D01*
X79906333Y-23951742D01*
X78942774Y-23950450D01*
X78916315Y-22812742D01*
X78625274Y-22759825D01*
X78589791Y-22745333D01*
X78555244Y-22729913D01*
X78521597Y-22713565D01*
X78488813Y-22696286D01*
X78456853Y-22678076D01*
X78425680Y-22658933D01*
X78395257Y-22638856D01*
X78365547Y-22617843D01*
X78336511Y-22595892D01*
X78308114Y-22573002D01*
X78280316Y-22549172D01*
X78253082Y-22524401D01*
X78226373Y-22498686D01*
X78200151Y-22472026D01*
X78174381Y-22444420D01*
X78149024Y-22415867D01*
X78107683Y-22470437D01*
X78065606Y-22519625D01*
X78023184Y-22566078D01*
X77980255Y-22609825D01*
X77936658Y-22650892D01*
X77892229Y-22689310D01*
X77846807Y-22725105D01*
X77800231Y-22758306D01*
X77752338Y-22788941D01*
X77702966Y-22817038D01*
X77651954Y-22842626D01*
X77599139Y-22865733D01*
X77544360Y-22886387D01*
X77487454Y-22904615D01*
X77428259Y-22920447D01*
X77366614Y-22933910D01*
X77302357Y-22945033D01*
X77268826Y-22947185D01*
X77235334Y-22948813D01*
X77201866Y-22949979D01*
X77168404Y-22950745D01*
X77101436Y-22951324D01*
X77034299Y-22951041D01*
X76957545Y-22951064D01*
X76709318Y-22950201D01*
X76536051Y-22949974D01*
X76082212Y-22948667D01*
X75536501Y-22947479D01*
X74709440Y-22945033D01*
X74682982Y-21675033D01*
X74418399Y-21833783D01*
X74379592Y-21849898D01*
X74341049Y-21863955D01*
X74302705Y-21876092D01*
X74264493Y-21886444D01*
X74226349Y-21895147D01*
X74188206Y-21902337D01*
X74149999Y-21908150D01*
X74111661Y-21912721D01*
X74073128Y-21916187D01*
X74034333Y-21918683D01*
X73955695Y-21921311D01*
X73875223Y-21921691D01*
X73792391Y-21920910D01*
X73681296Y-21920570D01*
X73536258Y-21919807D01*
X73391223Y-21918609D01*
X73094294Y-21917034D01*
X72513399Y-21913158D01*
X72507916Y-20934713D01*
X72505415Y-20480320D01*
X72504056Y-20260818D01*
X72503358Y-20041314D01*
X72502926Y-19957820D01*
X72502209Y-19874328D01*
X72500621Y-19689124D01*
X72500700Y-19651912D01*
X72827884Y-19651912D01*
X72828315Y-19867082D01*
X72828429Y-20016229D01*
X72829082Y-20408875D01*
X72829607Y-20809505D01*
X72830899Y-21595659D01*
X73111881Y-21599961D01*
X73392880Y-21602926D01*
X73488342Y-21604099D01*
X73583799Y-21605639D01*
X73721525Y-21607496D01*
X73859260Y-21608578D01*
X73944564Y-21610647D01*
X73984933Y-21610062D01*
X74024344Y-21608230D01*
X74062845Y-21605080D01*
X74100481Y-21600540D01*
X74137300Y-21594541D01*
X74173348Y-21587010D01*
X74208671Y-21577878D01*
X74243316Y-21567072D01*
X74277328Y-21554522D01*
X74310756Y-21540158D01*
X74343644Y-21523907D01*
X74376040Y-21505700D01*
X74407991Y-21485465D01*
X74439541Y-21463131D01*
X74470739Y-21438627D01*
X74501630Y-21411883D01*
X74529431Y-21381832D01*
X74554973Y-21351925D01*
X74578315Y-21322042D01*
X74599519Y-21292063D01*
X74618646Y-21261869D01*
X74635757Y-21231339D01*
X74650914Y-21200355D01*
X74664176Y-21168796D01*
X74675607Y-21136543D01*
X74685265Y-21103476D01*
X74693214Y-21069476D01*
X74699513Y-21034422D01*
X74704224Y-20998196D01*
X74707409Y-20960677D01*
X74709127Y-20921746D01*
X74709440Y-20881283D01*
X74610700Y-20880114D01*
X74429783Y-20877478D01*
X74248874Y-20874340D01*
X74170496Y-20873123D01*
X74092114Y-20872117D01*
X73979611Y-20870466D01*
X73867115Y-20868364D01*
X73796038Y-20867852D01*
X73730237Y-20866265D01*
X73672195Y-20865375D01*
X73663813Y-20863498D01*
X73656398Y-20861738D01*
X73649803Y-20859961D01*
X73646767Y-20859025D01*
X73643881Y-20858036D01*
X73641126Y-20856977D01*
X73638484Y-20855831D01*
X73635937Y-20854583D01*
X73633466Y-20853215D01*
X73631053Y-20851712D01*
X73628680Y-20850056D01*
X73626327Y-20848232D01*
X73623978Y-20846222D01*
X73621612Y-20844011D01*
X73619212Y-20841582D01*
X73616760Y-20838918D01*
X73614237Y-20836003D01*
X73608905Y-20829354D01*
X73603068Y-20821504D01*
X73596579Y-20812320D01*
X73589292Y-20801671D01*
X73571732Y-20775450D01*
X73576528Y-20735721D01*
X73580604Y-20705394D01*
X73582565Y-20693175D01*
X73584579Y-20682609D01*
X73586722Y-20673463D01*
X73589073Y-20665505D01*
X73591709Y-20658503D01*
X73594707Y-20652223D01*
X73598146Y-20646433D01*
X73602101Y-20640902D01*
X73606652Y-20635395D01*
X73611875Y-20629681D01*
X73624649Y-20616700D01*
X73684654Y-20613814D01*
X73744565Y-20611487D01*
X73804489Y-20609674D01*
X73864531Y-20608329D01*
X73937381Y-20606662D01*
X74168698Y-20601817D01*
X74325123Y-20598355D01*
X74709440Y-20590242D01*
X74709440Y-19875867D01*
X74486508Y-19871009D01*
X74272936Y-19866016D01*
X74124418Y-19862709D01*
X73911040Y-19857780D01*
X73843884Y-19856440D01*
X73811528Y-19855504D01*
X73780209Y-19854194D01*
X73749643Y-19852234D01*
X73719546Y-19849345D01*
X73704585Y-19847466D01*
X73689636Y-19845250D01*
X73674662Y-19842663D01*
X73659629Y-19839671D01*
X73644500Y-19836238D01*
X73629241Y-19832330D01*
X73613817Y-19827913D01*
X73598191Y-19822950D01*
X73592170Y-19798223D01*
X73587545Y-19778612D01*
X73584005Y-19762256D01*
X73581241Y-19747296D01*
X73578941Y-19731871D01*
X73576797Y-19714120D01*
X73571732Y-19664200D01*
X73604784Y-19633666D01*
X73639406Y-19606441D01*
X73675522Y-19582371D01*
X73713054Y-19561299D01*
X73751926Y-19543071D01*
X73792061Y-19527531D01*
X73833382Y-19514524D01*
X73875812Y-19503895D01*
X73919274Y-19495489D01*
X73963691Y-19489149D01*
X74055085Y-19482051D01*
X74149377Y-19481358D01*
X74245952Y-19485827D01*
X74344195Y-19494217D01*
X74443492Y-19505285D01*
X74642784Y-19530487D01*
X74741550Y-19542136D01*
X74838907Y-19551494D01*
X74934243Y-19557318D01*
X75026941Y-19558367D01*
X75026941Y-22627533D01*
X76159688Y-22634148D01*
X76515822Y-22637068D01*
X76728659Y-22637635D01*
X76799120Y-22638028D01*
X76869578Y-22638707D01*
X77024473Y-22640575D01*
X77088684Y-22640485D01*
X77145765Y-22639296D01*
X77196987Y-22636696D01*
X77243621Y-22632374D01*
X77286939Y-22626017D01*
X77328211Y-22617313D01*
X77368708Y-22605952D01*
X77409702Y-22591620D01*
X77452463Y-22574006D01*
X77498263Y-22552798D01*
X77548372Y-22527684D01*
X77604061Y-22498353D01*
X77737266Y-22425789D01*
X77761937Y-22399920D01*
X77785046Y-22372735D01*
X77806604Y-22344333D01*
X77826617Y-22314810D01*
X77845095Y-22284263D01*
X77862046Y-22252791D01*
X77877477Y-22220489D01*
X77891397Y-22187457D01*
X77903815Y-22153790D01*
X77914739Y-22119587D01*
X77924178Y-22084944D01*
X77932138Y-22049959D01*
X77938630Y-22014730D01*
X77943660Y-21979353D01*
X77947238Y-21943926D01*
X77949372Y-21908547D01*
X77949252Y-21872645D01*
X77948931Y-21836744D01*
X77948411Y-21800845D01*
X77947692Y-21764951D01*
X77947369Y-21696408D01*
X77945980Y-21571616D01*
X77943972Y-21446830D01*
X77937357Y-20881283D01*
X76799649Y-20854825D01*
X76799649Y-20616700D01*
X78254857Y-20590242D01*
X78242939Y-21471984D01*
X78241938Y-21639273D01*
X78239887Y-21725192D01*
X78240404Y-21765077D01*
X78242061Y-21804169D01*
X78244944Y-21842492D01*
X78249142Y-21880069D01*
X78254743Y-21916922D01*
X78261835Y-21953074D01*
X78270506Y-21988550D01*
X78280843Y-22023372D01*
X78292934Y-22057564D01*
X78306868Y-22091148D01*
X78322732Y-22124148D01*
X78340615Y-22156587D01*
X78360603Y-22188487D01*
X78382786Y-22219874D01*
X78407251Y-22250768D01*
X78434085Y-22281194D01*
X78457572Y-22302094D01*
X78480965Y-22321595D01*
X78504291Y-22339745D01*
X78527572Y-22356591D01*
X78550833Y-22372183D01*
X78574098Y-22386568D01*
X78597392Y-22399795D01*
X78620740Y-22411912D01*
X78644165Y-22422967D01*
X78667691Y-22433009D01*
X78715147Y-22450246D01*
X78763302Y-22464008D01*
X78812350Y-22474683D01*
X78862487Y-22482655D01*
X78913907Y-22488311D01*
X78966805Y-22492038D01*
X79021375Y-22494221D01*
X79136312Y-22495501D01*
X79260274Y-22495242D01*
X79260274Y-23632950D01*
X80095106Y-23638118D01*
X80606180Y-23640934D01*
X80812300Y-23642293D01*
X81018423Y-23642991D01*
X81096887Y-23643424D01*
X81175349Y-23644140D01*
X81285623Y-23644861D01*
X81395899Y-23644965D01*
X81460779Y-23646118D01*
X81494431Y-23645242D01*
X81527376Y-23643105D01*
X81559659Y-23639714D01*
X81591326Y-23635075D01*
X81622421Y-23629196D01*
X81652990Y-23622084D01*
X81683079Y-23613745D01*
X81712731Y-23604186D01*
X81741994Y-23593415D01*
X81770911Y-23581438D01*
X81799528Y-23568261D01*
X81827890Y-23553893D01*
X81856043Y-23538340D01*
X81884032Y-23521609D01*
X81911901Y-23503706D01*
X81939697Y-23484639D01*
X81980521Y-23442781D01*
X82022379Y-23401956D01*
X82045908Y-23367222D01*
X82067192Y-23332734D01*
X82086324Y-23298392D01*
X82103396Y-23264098D01*
X82118499Y-23229752D01*
X82131726Y-23195254D01*
X82143168Y-23160505D01*
X82152918Y-23125406D01*
X82161067Y-23089858D01*
X82167708Y-23053760D01*
X82172933Y-23017014D01*
X82176832Y-22979520D01*
X82179499Y-22941179D01*
X82181026Y-22901892D01*
X82181504Y-22861559D01*
X82181025Y-22820080D01*
X82180572Y-22741018D01*
X82179225Y-22617300D01*
X82177305Y-22493588D01*
X82175858Y-22324761D01*
X82173658Y-22118955D01*
X82170690Y-21913158D01*
X82074798Y-21911989D01*
X81898836Y-21909352D01*
X81722882Y-21906215D01*
X81646699Y-21904998D01*
X81570513Y-21903993D01*
X81461063Y-21902339D01*
X81351618Y-21900239D01*
X81282710Y-21899727D01*
X81218520Y-21898140D01*
X81162080Y-21897250D01*
X81150316Y-21894543D01*
X81139426Y-21891592D01*
X81129327Y-21888366D01*
X81119938Y-21884832D01*
X81111178Y-21880962D01*
X81102965Y-21876724D01*
X81095217Y-21872087D01*
X81087853Y-21867020D01*
X81080792Y-21861493D01*
X81073951Y-21855474D01*
X81067250Y-21848934D01*
X81060607Y-21841841D01*
X81053940Y-21834164D01*
X81047168Y-21825873D01*
X81040209Y-21816937D01*
X81032982Y-21807325D01*
X81034662Y-21779885D01*
X81036186Y-21758336D01*
X81037865Y-21740818D01*
X81038860Y-21732989D01*
X81040010Y-21725470D01*
X81041353Y-21718028D01*
X81042930Y-21710432D01*
X81046934Y-21693844D01*
X81052335Y-21673845D01*
X81059440Y-21648575D01*
X81076350Y-21640835D01*
X81093524Y-21634317D01*
X81110939Y-21628917D01*
X81128572Y-21624534D01*
X81146402Y-21621064D01*
X81164405Y-21618404D01*
X81182559Y-21616451D01*
X81200842Y-21615104D01*
X81219232Y-21614258D01*
X81237704Y-21613811D01*
X81274810Y-21613702D01*
X81311981Y-21613954D01*
X81349035Y-21613745D01*
X81419992Y-21612079D01*
X81644831Y-21607234D01*
X81797070Y-21603772D01*
X82170690Y-21595659D01*
X82170690Y-20881283D01*
X81907384Y-20877937D01*
X81644075Y-20875470D01*
X81554660Y-20874532D01*
X81465249Y-20873299D01*
X81336090Y-20871812D01*
X81206925Y-20870948D01*
X81127296Y-20869293D01*
X81086766Y-20869810D01*
X81046334Y-20871430D01*
X81006051Y-20874219D01*
X80965971Y-20878242D01*
X80926149Y-20883564D01*
X80886637Y-20890252D01*
X80847489Y-20898371D01*
X80808759Y-20907987D01*
X80770499Y-20919164D01*
X80732763Y-20931969D01*
X80695605Y-20946467D01*
X80659078Y-20962724D01*
X80623236Y-20980804D01*
X80588132Y-21000775D01*
X80553819Y-21022701D01*
X80520352Y-21046648D01*
X80495707Y-21073007D01*
X80471992Y-21099581D01*
X80449300Y-21126436D01*
X80427721Y-21153638D01*
X80407349Y-21181254D01*
X80388274Y-21209349D01*
X80370590Y-21237989D01*
X80354387Y-21267241D01*
X80339758Y-21297170D01*
X80326794Y-21327842D01*
X80315589Y-21359324D01*
X80306233Y-21391682D01*
X80298818Y-21424980D01*
X80293438Y-21459287D01*
X80290183Y-21494666D01*
X80289381Y-21512780D01*
X80289145Y-21531186D01*
X80289151Y-21605007D01*
X80289565Y-21684439D01*
X80289678Y-21765960D01*
X80290495Y-22023953D01*
X80290856Y-22198774D01*
X80292149Y-22627533D01*
X80388040Y-22628703D01*
X80564003Y-22631340D01*
X80739957Y-22634477D01*
X80816140Y-22635694D01*
X80892325Y-22636700D01*
X81001776Y-22638353D01*
X81111220Y-22640453D01*
X81180129Y-22640965D01*
X81244319Y-22642552D01*
X81300759Y-22643442D01*
X81312462Y-22646143D01*
X81323305Y-22649105D01*
X81333368Y-22652355D01*
X81342731Y-22655920D01*
X81351476Y-22659828D01*
X81359682Y-22664108D01*
X81367431Y-22668785D01*
X81374802Y-22673889D01*
X81381877Y-22679447D01*
X81388735Y-22685485D01*
X81395458Y-22692033D01*
X81402126Y-22699116D01*
X81408819Y-22706764D01*
X81415618Y-22715003D01*
X81422604Y-22723862D01*
X81429857Y-22733367D01*
X81426098Y-22772059D01*
X81422764Y-22801645D01*
X81421062Y-22813605D01*
X81419233Y-22823985D01*
X81417201Y-22833020D01*
X81414887Y-22840941D01*
X81412214Y-22847980D01*
X81409105Y-22854371D01*
X81405481Y-22860346D01*
X81401266Y-22866137D01*
X81396382Y-22871977D01*
X81390752Y-22878099D01*
X81376940Y-22892117D01*
X79974649Y-22918575D01*
X79974649Y-19875867D01*
X79260274Y-19875867D01*
X79258685Y-20054758D01*
X79252666Y-20638967D01*
X79249111Y-20993279D01*
X79245508Y-21335012D01*
X79244310Y-21465591D01*
X79243432Y-21556820D01*
X79242252Y-21648045D01*
X79241183Y-21753090D01*
X79238648Y-21779828D01*
X79237418Y-21790850D01*
X79236097Y-21800568D01*
X79234595Y-21809177D01*
X79232823Y-21816873D01*
X79230695Y-21823853D01*
X79228122Y-21830311D01*
X79225014Y-21836444D01*
X79221285Y-21842447D01*
X79216845Y-21848516D01*
X79211606Y-21854847D01*
X79205481Y-21861635D01*
X79198380Y-21869076D01*
X79180899Y-21886700D01*
X79124054Y-21880706D01*
X79103694Y-21878328D01*
X79085814Y-21875951D01*
X79068244Y-21873264D01*
X79048814Y-21869957D01*
X78995690Y-21860242D01*
X78990279Y-21843156D01*
X78985542Y-21826443D01*
X78981433Y-21810040D01*
X78977905Y-21793887D01*
X78974911Y-21777921D01*
X78972403Y-21762080D01*
X78970336Y-21746303D01*
X78968662Y-21730528D01*
X78966306Y-21698736D01*
X78964961Y-21666211D01*
X78963800Y-21596983D01*
X78963006Y-21540643D01*
X78960861Y-21356397D01*
X78959194Y-21228605D01*
X78955150Y-20892331D01*
X78950887Y-20549159D01*
X78942774Y-19875867D01*
X78034032Y-19870383D01*
X77612022Y-19867883D01*
X77408218Y-19866524D01*
X77204411Y-19865826D01*
X77126833Y-19865393D01*
X77049257Y-19864677D01*
X76940219Y-19863956D01*
X76831178Y-19863852D01*
X76767048Y-19862699D01*
X76728353Y-19863846D01*
X76690008Y-19866723D01*
X76652064Y-19871329D01*
X76614569Y-19877661D01*
X76577573Y-19885717D01*
X76541124Y-19895496D01*
X76505272Y-19906994D01*
X76470065Y-19920211D01*
X76435554Y-19935143D01*
X76401787Y-19951789D01*
X76368813Y-19970146D01*
X76336682Y-19990213D01*
X76305442Y-20011988D01*
X76275144Y-20035467D01*
X76245835Y-20060650D01*
X76217565Y-20087534D01*
X76188769Y-20127110D01*
X76162872Y-20166755D01*
X76139736Y-20206540D01*
X76119222Y-20246537D01*
X76101192Y-20286816D01*
X76085507Y-20327448D01*
X76072029Y-20368505D01*
X76060620Y-20410057D01*
X76051140Y-20452175D01*
X76043452Y-20494932D01*
X76037417Y-20538396D01*
X76032897Y-20582641D01*
X76029752Y-20627736D01*
X76027845Y-20673753D01*
X76027037Y-20720762D01*
X76027190Y-20768836D01*
X76027416Y-20840892D01*
X76029050Y-21066492D01*
X76029773Y-21220384D01*
X76032357Y-21595659D01*
X76128249Y-21597248D01*
X76480166Y-21604056D01*
X76632534Y-21606821D01*
X76741984Y-21608844D01*
X76851428Y-21611161D01*
X76920338Y-21612088D01*
X76984528Y-21613681D01*
X77040967Y-21614749D01*
X77057534Y-21617284D01*
X77064543Y-21618514D01*
X77070953Y-21619835D01*
X77076955Y-21621338D01*
X77082737Y-21623109D01*
X77088488Y-21625237D01*
X77094397Y-21627810D01*
X77100654Y-21630918D01*
X77107447Y-21634647D01*
X77114966Y-21639087D01*
X77123400Y-21644326D01*
X77132938Y-21650452D01*
X77143768Y-21657552D01*
X77170066Y-21675033D01*
X77177714Y-21691518D01*
X77180821Y-21698404D01*
X77183501Y-21704592D01*
X77185795Y-21710238D01*
X77187739Y-21715496D01*
X77189373Y-21720522D01*
X77190736Y-21725470D01*
X77191867Y-21730495D01*
X77192803Y-21735753D01*
X77193585Y-21741399D01*
X77194250Y-21747587D01*
X77194838Y-21754473D01*
X77195387Y-21762212D01*
X77196524Y-21780867D01*
X77117149Y-21886700D01*
X75741315Y-21913158D01*
X75741315Y-18843992D01*
X74590378Y-18839031D01*
X74227868Y-18836841D01*
X74012141Y-18836416D01*
X73940453Y-18836120D01*
X73868765Y-18835612D01*
X73759756Y-18835066D01*
X73650746Y-18834981D01*
X73586954Y-18834115D01*
X73543621Y-18835335D01*
X73501177Y-18838504D01*
X73459603Y-18843614D01*
X73418881Y-18850654D01*
X73378991Y-18859614D01*
X73339913Y-18870485D01*
X73301630Y-18883257D01*
X73264121Y-18897919D01*
X73227368Y-18914463D01*
X73191352Y-18932878D01*
X73156052Y-18953155D01*
X73121452Y-18975283D01*
X73087530Y-18999253D01*
X73054268Y-19025056D01*
X73021648Y-19052680D01*
X72989649Y-19082117D01*
X72967065Y-19112639D01*
X72946496Y-19142574D01*
X72927866Y-19172077D01*
X72911102Y-19201302D01*
X72896126Y-19230401D01*
X72882864Y-19259529D01*
X72871240Y-19288839D01*
X72861179Y-19318484D01*
X72852605Y-19348620D01*
X72845443Y-19379399D01*
X72839617Y-19410975D01*
X72835052Y-19443501D01*
X72831673Y-19477132D01*
X72829404Y-19512021D01*
X72828170Y-19548322D01*
X72827895Y-19586188D01*
X72827884Y-19651912D01*
X72500700Y-19651912D01*
X72500923Y-19547109D01*
X72502211Y-19489397D01*
X72504486Y-19439001D01*
X72507920Y-19394760D01*
X72512684Y-19355514D01*
X72518948Y-19320103D01*
X72526885Y-19287367D01*
X72536667Y-19256143D01*
X72548463Y-19225274D01*
X72562447Y-19193596D01*
X72578788Y-19159952D01*
X72619232Y-19082117D01*
X72660780Y-19002329D01*
X72693505Y-18957256D01*
X72727491Y-18914314D01*
X72762765Y-18873503D01*
X72799353Y-18834828D01*
X72837281Y-18798290D01*
X72876574Y-18763891D01*
X72917258Y-18731633D01*
X72959359Y-18701520D01*
X73002904Y-18673553D01*
X73047917Y-18647734D01*
X73094425Y-18624067D01*
X73142453Y-18602552D01*
X73192028Y-18583194D01*
X73243175Y-18565993D01*
X73295921Y-18550953D01*
X73350290Y-18538075D01*
X73393467Y-18533115D01*
X73436496Y-18529368D01*
X73479440Y-18526669D01*
X73522361Y-18524851D01*
X73565322Y-18523748D01*
X73608384Y-18523194D01*
X73695065Y-18523068D01*
X73771643Y-18522928D01*
X74021214Y-18522978D01*
X74194745Y-18522901D01*
X74557777Y-18523043D01*
X75024186Y-18522948D01*
X75382142Y-18522951D01*
X75554214Y-18522886D01*
X75793851Y-18523068D01*
G37*
%TD.AperFunction*%
%TD*%
D10*
%TO.P,C12,1*%
%TO.N,OPT_END_WHEEL_LEFT*%
X27100000Y-52060000D03*
%TO.P,C12,2*%
%TO.N,GND*%
X24600000Y-52060000D03*
%TD*%
%TO.P,C11,1*%
%TO.N,OPT_END_WHEEL_RIGHT*%
X27100000Y-42100000D03*
%TO.P,C11,2*%
%TO.N,GND*%
X24600000Y-42100000D03*
%TD*%
%TO.P,C10,1*%
%TO.N,OPT_END_DISK*%
X27100000Y-62020000D03*
%TO.P,C10,2*%
%TO.N,GND*%
X24600000Y-62020000D03*
%TD*%
%TO.P,C9,1*%
%TO.N,+3.3V*%
X24070000Y-5080000D03*
%TO.P,C9,2*%
%TO.N,GND*%
X21570000Y-5080000D03*
%TD*%
%TO.P,C7,2*%
%TO.N,GND*%
X80350000Y-77650000D03*
%TO.P,C7,1*%
%TO.N,Net-(Q1-G)*%
X80350000Y-80150000D03*
%TD*%
%TO.P,C6,1*%
%TO.N,+5V*%
X51500000Y-82050000D03*
%TO.P,C6,2*%
%TO.N,GND*%
X51500000Y-79550000D03*
%TD*%
%TO.P,C4,1*%
%TO.N,+24V*%
X56575113Y-88630000D03*
%TO.P,C4,2*%
%TO.N,GND*%
X56575113Y-86130000D03*
%TD*%
%TO.P,C3,1*%
%TO.N,Net-(U3-IN)*%
X25220000Y-91960000D03*
%TO.P,C3,2*%
%TO.N,GND*%
X25220000Y-89460000D03*
%TD*%
%TO.P,C2,1*%
%TO.N,VCC*%
X37920000Y-76720000D03*
%TO.P,C2,2*%
%TO.N,GND*%
X37920000Y-74220000D03*
%TD*%
D11*
%TO.P,J18,1,1*%
%TO.N,+24V*%
X40854900Y-100480001D03*
%TO.P,J18,2,2*%
%TO.N,GND*%
X45854900Y-100480001D03*
%TD*%
%TO.P,J7,1,1*%
%TO.N,/IC2_VO2*%
X90420001Y-42195101D03*
%TO.P,J7,2,2*%
%TO.N,/IC2_VO1*%
X90420001Y-37195101D03*
%TD*%
D12*
%TO.P,D1,1*%
%TO.N,+24V*%
X75260000Y-88160600D03*
D13*
%TO.P,D1,2*%
%TO.N,Net-(Q1-G)*%
X75260000Y-77162400D03*
%TD*%
D11*
%TO.P,J11,1,1*%
%TO.N,Net-(J11-Pad1)*%
X9600000Y-47060000D03*
%TO.P,J11,2,2*%
%TO.N,GND*%
X9600000Y-52060000D03*
%TO.P,J11,3,3*%
%TO.N,VCC*%
X9600000Y-57060000D03*
%TO.P,J11,4,4*%
%TO.N,Net-(J11-Pad4)*%
X9600000Y-62060001D03*
%TD*%
D14*
%TO.P,U4,1,IN*%
%TO.N,+24V*%
X46420000Y-88460000D03*
D15*
%TO.P,U4,2,GND*%
%TO.N,GND*%
X48960000Y-88460000D03*
%TO.P,U4,3,OUT*%
%TO.N,+5V*%
X51500000Y-88460000D03*
%TD*%
D11*
%TO.P,J16,1,1*%
%TO.N,/IC3_VO2*%
X90420001Y-60595101D03*
%TO.P,J16,2,2*%
%TO.N,/IC3_VO1*%
X90420001Y-55595101D03*
%TD*%
D16*
%TO.P,D3,A*%
%TO.N,Net-(Q1-S)*%
X90500000Y-87320000D03*
D17*
%TO.P,D3,C*%
%TO.N,GND*%
X90500000Y-74320000D03*
%TD*%
D18*
%TO.P,J8,1,1*%
%TO.N,GND*%
X89420000Y-48495101D03*
%TO.P,J8,2,2*%
X94420000Y-48495101D03*
%TD*%
D19*
%TO.P,IC1,1,VF1+*%
%TO.N,/IC1_VF1+*%
X62290000Y-47890000D03*
%TO.P,IC1,2,VF1-*%
%TO.N,GND*%
X62290000Y-50430000D03*
%TO.P,IC1,3,VF2-*%
X62290000Y-52970000D03*
%TO.P,IC1,4,VF2+*%
%TO.N,/IC1_VF2+*%
X62290000Y-55510000D03*
%TO.P,IC1,5,GND*%
%TO.N,GND*%
X69910000Y-55510000D03*
%TO.P,IC1,6,V02*%
%TO.N,/IC1_VO2*%
X69910000Y-52970000D03*
%TO.P,IC1,7,V01*%
%TO.N,/IC1_VO1*%
X69910000Y-50430000D03*
%TO.P,IC1,8,Vcc*%
%TO.N,+5V*%
X69910000Y-47890000D03*
%TD*%
D11*
%TO.P,J10,1,1*%
%TO.N,VCC*%
X9600000Y-69870000D03*
%TO.P,J10,2,2*%
%TO.N,Net-(J10-Pad2)*%
X9600000Y-74870000D03*
%TO.P,J10,3,3*%
%TO.N,GND*%
X9600000Y-79870000D03*
%TO.P,J10,4,4*%
%TO.N,VCC*%
X9600000Y-84870001D03*
%TD*%
D20*
%TO.P,RN2,1,R1.1*%
%TO.N,DISK_PWM*%
X59100000Y-47860000D03*
D21*
%TO.P,RN2,2,R1.2*%
%TO.N,/IC1_VF1+*%
X59100000Y-50400000D03*
%TO.P,RN2,3,R2.1*%
%TO.N,DISK_DIR*%
X59100000Y-52940000D03*
%TO.P,RN2,4,R2.2*%
%TO.N,/IC1_VF2+*%
X59100000Y-55480000D03*
%TO.P,RN2,5,R3.1*%
%TO.N,WHEEL_LEFT_PWM*%
X59100000Y-58020000D03*
%TO.P,RN2,6,R3.2*%
%TO.N,/IC2_VF1+*%
X59100000Y-60560000D03*
%TO.P,RN2,7,R4.1*%
%TO.N,WHEEL_LEFT_DIR*%
X59100000Y-63100000D03*
%TO.P,RN2,8,R4.2*%
%TO.N,/IC2_VF2+*%
X59100000Y-65640000D03*
%TO.P,RN2,9,R5.1*%
%TO.N,WHEEL_RIGHT_PWM*%
X59100000Y-68180000D03*
%TO.P,RN2,10,R5.2*%
%TO.N,/IC3_VF1+*%
X59100000Y-70720000D03*
%TO.P,RN2,11,R6.1*%
%TO.N,WHEEL_RIGHT_DIR*%
X59100000Y-73260000D03*
%TO.P,RN2,12,R6.2*%
%TO.N,/IC3_VF2+*%
X59100000Y-75800000D03*
%TD*%
D11*
%TO.P,J6,1,1*%
%TO.N,+24V*%
X15214900Y-100480001D03*
%TO.P,J6,2,2*%
%TO.N,GND*%
X20214900Y-100480001D03*
%TD*%
%TO.P,J2,1,1*%
%TO.N,Net-(U12-E)*%
X95790000Y-9510000D03*
%TO.P,J2,2,2*%
%TO.N,GND*%
X90790000Y-9510000D03*
%TO.P,J2,3,3*%
%TO.N,Net-(U12-F)*%
X85790000Y-9510000D03*
%TO.P,J2,4,4*%
%TO.N,GND*%
X80789999Y-9510000D03*
%TD*%
%TO.P,J14,1,1*%
%TO.N,HAND_END_RIGHT*%
X9600000Y-28640000D03*
%TO.P,J14,2,2*%
%TO.N,GND*%
X9600000Y-33640000D03*
%TD*%
D22*
%TO.P,H2,1,1*%
%TO.N,unconnected-(H2-Pad1)*%
X7620000Y-6350000D03*
%TD*%
D23*
%TO.P,L1,1,1*%
%TO.N,+24V*%
X35380000Y-88150000D03*
D24*
%TO.P,L1,2,2*%
%TO.N,Net-(U3-IN)*%
X30300000Y-88150000D03*
%TD*%
D14*
%TO.P,U3,1,IN*%
%TO.N,Net-(U3-IN)*%
X30300000Y-81800000D03*
D15*
%TO.P,U3,2,GND*%
%TO.N,GND*%
X32840000Y-81800000D03*
%TO.P,U3,3,OUT*%
%TO.N,VCC*%
X35380000Y-81800000D03*
%TD*%
D25*
%TO.P,R3,1*%
%TO.N,OPT_END_WHEEL_RIGHT*%
X27100000Y-47080000D03*
D21*
%TO.P,R3,2*%
%TO.N,Net-(J11-Pad1)*%
X16940000Y-47080000D03*
%TD*%
D18*
%TO.P,J17,1,1*%
%TO.N,GND*%
X89420000Y-66900001D03*
%TO.P,J17,2,2*%
X94420000Y-66900001D03*
%TD*%
D19*
%TO.P,IC2,1,VF1+*%
%TO.N,/IC2_VF1+*%
X62300000Y-60400000D03*
%TO.P,IC2,2,VF1-*%
%TO.N,GND*%
X62300000Y-62940000D03*
%TO.P,IC2,3,VF2-*%
X62300000Y-65480000D03*
%TO.P,IC2,4,VF2+*%
%TO.N,/IC2_VF2+*%
X62300000Y-68020000D03*
%TO.P,IC2,5,GND*%
%TO.N,GND*%
X69920000Y-68020000D03*
%TO.P,IC2,6,V02*%
%TO.N,/IC2_VO2*%
X69920000Y-65480000D03*
%TO.P,IC2,7,V01*%
%TO.N,/IC2_VO1*%
X69920000Y-62940000D03*
%TO.P,IC2,8,Vcc*%
%TO.N,+5V*%
X69920000Y-60400000D03*
%TD*%
D11*
%TO.P,J1,1,1*%
%TO.N,Net-(J1-Pad1)*%
X79324900Y-100480001D03*
%TO.P,J1,2,2*%
%TO.N,GND*%
X84324900Y-100480001D03*
%TD*%
%TO.P,J3,1,1*%
%TO.N,GND*%
X53684900Y-100480001D03*
%TO.P,J3,2,2*%
%TO.N,+24V*%
X58684900Y-100480001D03*
%TD*%
D20*
%TO.P,C1,1*%
%TO.N,VCC*%
X32300000Y-74180000D03*
D25*
%TO.P,C1,2*%
%TO.N,GND*%
X30300000Y-74180000D03*
%TD*%
D22*
%TO.P,H1,1,1*%
%TO.N,unconnected-(H1-Pad1)*%
X7000000Y-101600000D03*
%TD*%
D11*
%TO.P,J15,1,1*%
%TO.N,/BAT_SW*%
X66494900Y-100480001D03*
%TO.P,J15,2,2*%
%TO.N,Net-(J1-Pad1)*%
X71494900Y-100480001D03*
%TD*%
D25*
%TO.P,R1,1*%
%TO.N,Net-(Q1-G)*%
X85420000Y-83360000D03*
D21*
%TO.P,R1,2*%
%TO.N,GND*%
X85420000Y-73200000D03*
%TD*%
D14*
%TO.P,Q1,1,G*%
%TO.N,Net-(Q1-G)*%
X80340000Y-88440000D03*
D15*
%TO.P,Q1,2,S*%
%TO.N,Net-(Q1-S)*%
X82880000Y-88440000D03*
%TO.P,Q1,3,D*%
%TO.N,+24V*%
X85420000Y-88440000D03*
%TD*%
D11*
%TO.P,J4,1,1*%
%TO.N,/IC1_VO2*%
X90420001Y-23705101D03*
%TO.P,J4,2,2*%
%TO.N,/IC1_VO1*%
X90420001Y-18705101D03*
%TD*%
D20*
%TO.P,C5,1*%
%TO.N,+5V*%
X46960000Y-80840000D03*
D25*
%TO.P,C5,2*%
%TO.N,GND*%
X44960000Y-80840000D03*
%TD*%
D20*
%TO.P,C8,1*%
%TO.N,+3.3V*%
X21050000Y-12700000D03*
D25*
%TO.P,C8,2*%
%TO.N,GND*%
X19050000Y-12700000D03*
%TD*%
D22*
%TO.P,H3,1,1*%
%TO.N,unconnected-(H3-Pad1)*%
X92710000Y-101600000D03*
%TD*%
D18*
%TO.P,J12,1,1*%
%TO.N,GND*%
X10600001Y-40749999D03*
%TO.P,J12,2,2*%
X5600001Y-40749999D03*
%TD*%
D11*
%TO.P,J9,1,1*%
%TO.N,+24V*%
X28044900Y-100480001D03*
%TO.P,J9,2,2*%
%TO.N,GND*%
X33044900Y-100480001D03*
%TD*%
D26*
%TO.P,X1,1A*%
%TO.N,/BAT_SW*%
X96150000Y-93470000D03*
%TO.P,X1,1B*%
X96150000Y-88390000D03*
%TO.P,X1,2A*%
%TO.N,Net-(Q1-S)*%
X96150000Y-84330000D03*
%TO.P,X1,2B*%
X96150000Y-79250000D03*
%TD*%
D27*
%TO.P,U12,1,VCC*%
%TO.N,+3.3V*%
X66294000Y-6860000D03*
D28*
%TO.P,U12,2,EN_A*%
X63754000Y-6860000D03*
%TO.P,U12,3,A*%
%TO.N,HAND_PWM*%
X61214000Y-6860000D03*
%TO.P,U12,4,E*%
%TO.N,Net-(U12-E)*%
X58674000Y-6860000D03*
%TO.P,U12,5,F*%
%TO.N,Net-(U12-F)*%
X56134000Y-6860000D03*
%TO.P,U12,6,B*%
%TO.N,HAND_DIR*%
X53594000Y-6860000D03*
%TO.P,U12,7,EN_B*%
%TO.N,+3.3V*%
X51054000Y-6860000D03*
%TO.P,U12,8,VSS*%
%TO.N,GND*%
X48514000Y-6860000D03*
%TO.P,U12,9,EN_C*%
%TO.N,unconnected-(U12-EN_C-Pad9)*%
X48514000Y-14800000D03*
%TO.P,U12,10,C*%
%TO.N,unconnected-(U12-C-Pad10)*%
X51054000Y-14800000D03*
%TO.P,U12,11,G*%
%TO.N,unconnected-(U12-G-Pad11)*%
X53594000Y-14800000D03*
%TO.P,U12,12*%
%TO.N,N/C*%
X56134000Y-14800000D03*
%TO.P,U12,13,H*%
%TO.N,unconnected-(U12-H-Pad13)*%
X58674000Y-14800000D03*
%TO.P,U12,14,D*%
%TO.N,unconnected-(U12-D-Pad14)*%
X61214000Y-14800000D03*
%TO.P,U12,15,EN_D*%
%TO.N,unconnected-(U12-EN_D-Pad15)*%
X63754000Y-14800000D03*
%TO.P,U12,16,VDD*%
%TO.N,+5V*%
X66294000Y-14800000D03*
%TD*%
D18*
%TO.P,J5,1,1*%
%TO.N,GND*%
X89420000Y-30010000D03*
%TO.P,J5,2,2*%
X94420000Y-30010000D03*
%TD*%
D11*
%TO.P,J13,1,1*%
%TO.N,HAND_END_LEFT*%
X9600000Y-15820000D03*
%TO.P,J13,2,2*%
%TO.N,GND*%
X9600000Y-20820000D03*
%TD*%
D29*
%TO.P,U2,1,VBAT*%
%TO.N,unconnected-(U2-VBAT-Pad1)*%
X67564000Y-20828000D03*
%TO.P,U2,2,PC13*%
%TO.N,unconnected-(U2-PC13-Pad2)*%
X65024000Y-20828000D03*
%TO.P,U2,3,PC14*%
%TO.N,unconnected-(U2-PC14-Pad3)*%
X62484000Y-20828000D03*
%TO.P,U2,4,PC15*%
%TO.N,unconnected-(U2-PC15-Pad4)*%
X59944000Y-20828000D03*
%TO.P,U2,5,3V3*%
%TO.N,+3.3V*%
X67564000Y-35403000D03*
%TO.P,U2,6,3V3*%
X24384000Y-20828000D03*
%TO.P,U2,7,NRST*%
%TO.N,unconnected-(U2-NRST-Pad7)*%
X26924000Y-20828000D03*
%TO.P,U2,8,5V*%
%TO.N,VCC*%
X62484000Y-35403000D03*
%TO.P,U2,9,GND*%
%TO.N,GND*%
X65024000Y-35403000D03*
%TO.P,U2,10,PA0*%
%TO.N,unconnected-(U2-PA0-Pad10)*%
X57404000Y-20828000D03*
%TO.P,U2,11,PA1*%
%TO.N,HAND_PWM*%
X54864000Y-20828000D03*
%TO.P,U2,12,PA2*%
%TO.N,HAND_DIR*%
X52324000Y-20828000D03*
%TO.P,U2,13,PA3*%
%TO.N,unconnected-(U2-PA3-Pad13)*%
X49784000Y-20828000D03*
%TO.P,U2,14,PA4*%
%TO.N,DISK_DIR*%
X47244000Y-20828000D03*
%TO.P,U2,15,PA5*%
%TO.N,WHEEL_LEFT_DIR*%
X44704000Y-20828000D03*
%TO.P,U2,16,PA6*%
%TO.N,WHEEL_RIGHT_DIR*%
X42164000Y-20828000D03*
%TO.P,U2,17,PA7*%
%TO.N,DISK_PWM*%
X39624000Y-20828000D03*
%TO.P,U2,18,PB0*%
%TO.N,WHEEL_LEFT_PWM*%
X37084000Y-20828000D03*
%TO.P,U2,19,PB1*%
%TO.N,WHEEL_RIGHT_PWM*%
X34544000Y-20828000D03*
%TO.P,U2,20,GND*%
%TO.N,GND*%
X21844000Y-20828000D03*
%TO.P,U2,21,PB10*%
%TO.N,unconnected-(U2-PB10-Pad21)*%
X32004000Y-20828000D03*
%TO.P,U2,22,PB11*%
%TO.N,unconnected-(U2-PB11-Pad22)*%
X29464000Y-20828000D03*
D30*
%TO.P,U2,23,GND*%
%TO.N,GND*%
X19304000Y-20828000D03*
%TO.P,U2,25,PB12*%
%TO.N,unconnected-(U2-PB12-Pad25)*%
X19304000Y-35403000D03*
D29*
%TO.P,U2,26,PB13*%
%TO.N,unconnected-(U2-PB13-Pad26)*%
X21844000Y-35403000D03*
%TO.P,U2,27,PB14*%
%TO.N,HAND_END_RIGHT*%
X24384000Y-35403000D03*
%TO.P,U2,28,PB15*%
%TO.N,HAND_END_LEFT*%
X26924000Y-35403000D03*
%TO.P,U2,29,PA8*%
%TO.N,unconnected-(U2-PA8-Pad29)*%
X29464000Y-35403000D03*
%TO.P,U2,30,PA9*%
%TO.N,unconnected-(U2-PA9-Pad30)*%
X32004000Y-35403000D03*
%TO.P,U2,31,PA10*%
%TO.N,NRF24L01_IRQ*%
X34544000Y-35403000D03*
%TO.P,U2,32,PA11*%
%TO.N,NRF24L01_CE*%
X37084000Y-35403000D03*
%TO.P,U2,33,PA12*%
%TO.N,unconnected-(U2-PA12-Pad33)*%
X39624000Y-35403000D03*
%TO.P,U2,38,PA15*%
%TO.N,NRF24L01_CSN*%
X42164000Y-35403000D03*
%TO.P,U2,39,PB3*%
%TO.N,PB3*%
X44704000Y-35403000D03*
%TO.P,U2,40,PB4*%
%TO.N,PB4*%
X47244000Y-35403000D03*
%TO.P,U2,41,PB5*%
%TO.N,PB5*%
X49784000Y-35403000D03*
%TO.P,U2,42,PB6*%
%TO.N,unconnected-(U2-PB6-Pad42)*%
X52324000Y-35403000D03*
%TO.P,U2,43,PB7*%
%TO.N,OPT_END_WHEEL_RIGHT*%
X54864000Y-35403000D03*
%TO.P,U2,45,PB8*%
%TO.N,OPT_END_WHEEL_LEFT*%
X57404000Y-35403000D03*
%TO.P,U2,46,PB9*%
%TO.N,OPT_END_DISK*%
X59944000Y-35403000D03*
%TD*%
D25*
%TO.P,R2,1*%
%TO.N,OPT_END_DISK*%
X27100000Y-67000000D03*
D21*
%TO.P,R2,2*%
%TO.N,Net-(J10-Pad2)*%
X16940000Y-67000000D03*
%TD*%
D20*
%TO.P,RN1,1,common*%
%TO.N,+5V*%
X77050000Y-47900000D03*
D21*
%TO.P,RN1,2,R1*%
%TO.N,/IC1_VO1*%
X77050000Y-50440000D03*
%TO.P,RN1,3,R2*%
%TO.N,/IC1_VO2*%
X77050000Y-52980000D03*
%TO.P,RN1,4,R3*%
%TO.N,/IC2_VO1*%
X77050000Y-55520000D03*
%TO.P,RN1,5,R4*%
%TO.N,/IC2_VO2*%
X77050000Y-58060000D03*
%TO.P,RN1,6,R5*%
%TO.N,/IC3_VO1*%
X77050000Y-60600000D03*
%TO.P,RN1,7,R6*%
%TO.N,/IC3_VO2*%
X77050000Y-63140000D03*
%TD*%
D19*
%TO.P,IC3,1,VF1+*%
%TO.N,/IC3_VF1+*%
X62290000Y-72910000D03*
%TO.P,IC3,2,VF1-*%
%TO.N,GND*%
X62290000Y-75450000D03*
%TO.P,IC3,3,VF2-*%
X62290000Y-77990000D03*
%TO.P,IC3,4,VF2+*%
%TO.N,/IC3_VF2+*%
X62290000Y-80530000D03*
%TO.P,IC3,5,GND*%
%TO.N,GND*%
X69910000Y-80530000D03*
%TO.P,IC3,6,V02*%
%TO.N,/IC3_VO2*%
X69910000Y-77990000D03*
%TO.P,IC3,7,V01*%
%TO.N,/IC3_VO1*%
X69910000Y-75450000D03*
%TO.P,IC3,8,Vcc*%
%TO.N,+5V*%
X69910000Y-72910000D03*
%TD*%
D30*
%TO.P,U1,1,GND*%
%TO.N,GND*%
X27940000Y-3265000D03*
D31*
%TO.P,U1,2,VCC*%
%TO.N,+3.3V*%
X30480000Y-3265000D03*
%TO.P,U1,3,CE*%
%TO.N,NRF24L01_CE*%
X27940000Y-5805000D03*
%TO.P,U1,4,~{CSN}*%
%TO.N,NRF24L01_CSN*%
X30480000Y-5805000D03*
%TO.P,U1,5,SCK*%
%TO.N,PB3*%
X27940000Y-8345000D03*
%TO.P,U1,6,MOSI*%
%TO.N,PB5*%
X30480000Y-8345000D03*
%TO.P,U1,7,MISO*%
%TO.N,PB4*%
X27940000Y-10885000D03*
%TO.P,U1,8,IRQ*%
%TO.N,NRF24L01_IRQ*%
X30480000Y-10885000D03*
%TD*%
D25*
%TO.P,R4,1*%
%TO.N,OPT_END_WHEEL_LEFT*%
X27100000Y-57040000D03*
D21*
%TO.P,R4,2*%
%TO.N,Net-(J11-Pad4)*%
X16940000Y-57040000D03*
%TD*%
D32*
%TO.N,+5V*%
X51500000Y-82050000D02*
X53450000Y-82050000D01*
X53450000Y-82050000D02*
X54750000Y-83350000D01*
X63150000Y-83350000D02*
X68150000Y-78350000D01*
X54750000Y-83350000D02*
X63150000Y-83350000D01*
X68150000Y-78350000D02*
X68150000Y-74670000D01*
D33*
%TO.N,Net-(Q1-G)*%
X80350000Y-80150000D02*
X78247600Y-80150000D01*
X78247600Y-80150000D02*
X75260000Y-77162400D01*
X80340000Y-88440000D02*
X80340000Y-80160000D01*
D32*
X80340000Y-80160000D02*
X80350000Y-80150000D01*
D33*
X85420000Y-83360000D02*
X83560000Y-83360000D01*
X83560000Y-83360000D02*
X80350000Y-80150000D01*
D32*
%TO.N,VCC*%
X62484000Y-35403000D02*
X62484000Y-36866000D01*
X62484000Y-36866000D02*
X61150000Y-38200000D01*
X61150000Y-38200000D02*
X58400000Y-38200000D01*
X58400000Y-38200000D02*
X53400000Y-43200000D01*
X53400000Y-43200000D02*
X38700000Y-43200000D01*
X38700000Y-43200000D02*
X35815000Y-46085000D01*
X35815000Y-46085000D02*
X35815000Y-74615000D01*
X31630000Y-78800000D02*
X22830000Y-78800000D01*
X35380000Y-74180000D02*
X32300000Y-74180000D01*
X6630000Y-66900000D02*
X9600000Y-69870000D01*
X22830000Y-78800000D02*
X16759999Y-84870001D01*
X9600000Y-69870000D02*
X6180000Y-73290000D01*
X6180000Y-81450001D02*
X9600000Y-84870001D01*
X6180000Y-73290000D02*
X6180000Y-81450001D01*
X35380000Y-79260000D02*
X37920000Y-76720000D01*
X31630000Y-78800000D02*
X35815000Y-74615000D01*
X16759999Y-84870001D02*
X9600000Y-84870001D01*
X35815000Y-74615000D02*
X35380000Y-74180000D01*
X35380000Y-81800000D02*
X35380000Y-79260000D01*
X37920000Y-76720000D02*
X35815000Y-74615000D01*
X6630000Y-60030000D02*
X6630000Y-66900000D01*
X9600000Y-57060000D02*
X6630000Y-60030000D01*
%TO.N,Net-(U3-IN)*%
X26490000Y-91960000D02*
X25220000Y-91960000D01*
X30300000Y-88150000D02*
X26490000Y-91960000D01*
X30300000Y-88150000D02*
X30300000Y-81800000D01*
D33*
%TO.N,+24V*%
X85420000Y-88440000D02*
X85420000Y-90600000D01*
D32*
%TO.N,+5V*%
X70400000Y-24650000D02*
X74100000Y-28350000D01*
X69910000Y-47890000D02*
X77040000Y-47890000D01*
X68150000Y-49650000D02*
X69910000Y-47890000D01*
X49200000Y-82050000D02*
X51500000Y-82050000D01*
X77040000Y-47890000D02*
X77050000Y-47900000D01*
X68000000Y-14800000D02*
X70400000Y-17200000D01*
X68150000Y-74670000D02*
X68150000Y-62170000D01*
X74100000Y-28350000D02*
X74100000Y-43700000D01*
X49030000Y-81880000D02*
X49200000Y-82050000D01*
X66294000Y-14800000D02*
X68000000Y-14800000D01*
X70400000Y-17200000D02*
X70400000Y-24650000D01*
X68810000Y-74010000D02*
X69910000Y-72910000D01*
X47990000Y-80840000D02*
X49030000Y-81880000D01*
X68150000Y-74670000D02*
X68810000Y-74010000D01*
X68150000Y-62170000D02*
X69920000Y-60400000D01*
X68150000Y-62170000D02*
X68150000Y-49650000D01*
X46960000Y-80840000D02*
X47990000Y-80840000D01*
X51500000Y-88460000D02*
X51500000Y-82050000D01*
X74100000Y-43700000D02*
X69910000Y-47890000D01*
D33*
%TO.N,Net-(Q1-S)*%
X87900000Y-86100000D02*
X83900000Y-86100000D01*
X82880000Y-87120000D02*
X82880000Y-88440000D01*
X89120000Y-87320000D02*
X87900000Y-86100000D01*
X93490000Y-84330000D02*
X90500000Y-87320000D01*
X96150000Y-84330000D02*
X93490000Y-84330000D01*
X83900000Y-86100000D02*
X82880000Y-87120000D01*
X96150000Y-84330000D02*
X96150000Y-79250000D01*
X90500000Y-87320000D02*
X89120000Y-87320000D01*
D32*
%TO.N,NRF24L01_CE*%
X27115000Y-5805000D02*
X24850000Y-8070000D01*
X24850000Y-8070000D02*
X24850000Y-13680000D01*
X24850000Y-13680000D02*
X30829000Y-19659000D01*
X30829000Y-19659000D02*
X30829000Y-29148000D01*
X30829000Y-29148000D02*
X37084000Y-35403000D01*
D34*
X27940000Y-5805000D02*
X27115000Y-5805000D01*
D32*
%TO.N,NRF24L01_CSN*%
X25590000Y-8400000D02*
X25590000Y-12790000D01*
X30480000Y-5805000D02*
X29255000Y-7030000D01*
X25590000Y-12790000D02*
X26760000Y-13960000D01*
X33179000Y-19499000D02*
X33179000Y-26418000D01*
X26960000Y-7030000D02*
X25590000Y-8400000D01*
X29255000Y-7030000D02*
X26960000Y-7030000D01*
X33179000Y-26418000D02*
X42164000Y-35403000D01*
X26760000Y-13960000D02*
X27640000Y-13960000D01*
X27640000Y-13960000D02*
X33179000Y-19499000D01*
%TO.N,PB3*%
X26500000Y-12720000D02*
X28410000Y-12720000D01*
X28410000Y-12720000D02*
X35760000Y-20070000D01*
X27940000Y-8345000D02*
X26500000Y-9785000D01*
X26500000Y-9785000D02*
X26500000Y-12720000D01*
X35760000Y-26459000D02*
X44704000Y-35403000D01*
X35760000Y-20070000D02*
X35760000Y-26459000D01*
%TO.N,PB5*%
X40799000Y-26418000D02*
X49784000Y-35403000D01*
X30480000Y-8345000D02*
X40799000Y-18664000D01*
D34*
X30480000Y-8345000D02*
X31095000Y-8345000D01*
D32*
X40799000Y-18664000D02*
X40799000Y-26418000D01*
%TO.N,PB4*%
X29795000Y-12740000D02*
X33090000Y-12740000D01*
X38449000Y-18099000D02*
X38449000Y-26608000D01*
X27940000Y-10885000D02*
X29795000Y-12740000D01*
X38449000Y-26608000D02*
X47244000Y-35403000D01*
X33090000Y-12740000D02*
X38449000Y-18099000D01*
%TO.N,NRF24L01_IRQ*%
X31720000Y-6500000D02*
X31720000Y-5240000D01*
X28099000Y-28958000D02*
X34544000Y-35403000D01*
X31720000Y-5240000D02*
X30990000Y-4510000D01*
X30480000Y-10885000D02*
X29210000Y-9615000D01*
X23960000Y-7700000D02*
X23960000Y-14200000D01*
X30990000Y-4510000D02*
X27150000Y-4510000D01*
X27150000Y-4510000D02*
X23960000Y-7700000D01*
X30030000Y-7070000D02*
X31150000Y-7070000D01*
X28099000Y-18339000D02*
X28099000Y-28958000D01*
X31150000Y-7070000D02*
X31720000Y-6500000D01*
X29210000Y-9615000D02*
X29210000Y-7890000D01*
X23960000Y-14200000D02*
X28099000Y-18339000D01*
X29210000Y-7890000D02*
X30030000Y-7070000D01*
%TO.N,Net-(J10-Pad2)*%
X9600000Y-74870000D02*
X16940000Y-67530000D01*
X16940000Y-67530000D02*
X16940000Y-67000000D01*
%TO.N,Net-(J11-Pad1)*%
X16940000Y-47080000D02*
X9620000Y-47080000D01*
X9620000Y-47080000D02*
X9600000Y-47060000D01*
%TO.N,Net-(J11-Pad4)*%
X14620001Y-57040000D02*
X9600000Y-62060001D01*
X16940000Y-57040000D02*
X14620001Y-57040000D01*
%TO.N,HAND_END_LEFT*%
X9600000Y-15820000D02*
X11820000Y-18040000D01*
X26924000Y-35403000D02*
X26924000Y-32979000D01*
X11820000Y-18040000D02*
X11820000Y-25600000D01*
X11820000Y-25600000D02*
X13490000Y-27270000D01*
X13490000Y-27270000D02*
X21215000Y-27270000D01*
X26924000Y-32979000D02*
X21215000Y-27270000D01*
%TO.N,HAND_END_RIGHT*%
X20004000Y-28640000D02*
X9600000Y-28640000D01*
X24384000Y-33020000D02*
X20004000Y-28640000D01*
X24384000Y-35403000D02*
X24384000Y-33020000D01*
%TO.N,OPT_END_WHEEL_LEFT*%
X29700000Y-49460000D02*
X29700000Y-43100000D01*
X32770000Y-40000000D02*
X33370000Y-39400000D01*
X29700000Y-43100000D02*
X32770000Y-40030000D01*
X27100000Y-52060000D02*
X29700000Y-49460000D01*
X53407000Y-39400000D02*
X57404000Y-35403000D01*
X27100000Y-57040000D02*
X27100000Y-52060000D01*
X33370000Y-39400000D02*
X53407000Y-39400000D01*
%TO.N,OPT_END_WHEEL_RIGHT*%
X27100000Y-42100000D02*
X28600000Y-42100000D01*
X28600000Y-42100000D02*
X32230000Y-38470000D01*
X32230000Y-38470000D02*
X51797000Y-38470000D01*
X27100000Y-47080000D02*
X27100000Y-42100000D01*
X51797000Y-38470000D02*
X54864000Y-35403000D01*
%TO.N,OPT_END_DISK*%
X32000000Y-43200000D02*
X32000000Y-57120000D01*
X56450000Y-37750000D02*
X53950000Y-40250000D01*
X57597000Y-37750000D02*
X56450000Y-37750000D01*
X32000000Y-57120000D02*
X27100000Y-62020000D01*
X59944000Y-35403000D02*
X57597000Y-37750000D01*
X27100000Y-67000000D02*
X27100000Y-62020000D01*
X53950000Y-40250000D02*
X34950000Y-40250000D01*
X34950000Y-40250000D02*
X32000000Y-43200000D01*
%TO.N,DISK_DIR*%
X68600000Y-26000000D02*
X52416000Y-26000000D01*
X72500000Y-40400000D02*
X72500000Y-29900000D01*
X57200000Y-45400000D02*
X58700000Y-43900000D01*
X69000000Y-43900000D02*
X72500000Y-40400000D01*
X72500000Y-29900000D02*
X68600000Y-26000000D01*
X52416000Y-26000000D02*
X47244000Y-20828000D01*
X58700000Y-43900000D02*
X69000000Y-43900000D01*
X57200000Y-51040000D02*
X57200000Y-45400000D01*
X59100000Y-52940000D02*
X57200000Y-51040000D01*
%TO.N,WHEEL_LEFT_DIR*%
X67300000Y-41450000D02*
X58750000Y-41450000D01*
X56200000Y-44000000D02*
X56200000Y-60200000D01*
X71100000Y-37650000D02*
X67300000Y-41450000D01*
X56200000Y-60200000D02*
X59100000Y-63100000D01*
X58750000Y-41450000D02*
X56200000Y-44000000D01*
X44704000Y-20828000D02*
X51876000Y-28000000D01*
X67900000Y-28000000D02*
X71100000Y-31200000D01*
X51876000Y-28000000D02*
X67900000Y-28000000D01*
X71100000Y-31200000D02*
X71100000Y-37650000D01*
%TO.N,WHEEL_RIGHT_DIR*%
X69700000Y-32320000D02*
X69700000Y-37100000D01*
X51236000Y-29900000D02*
X42164000Y-20828000D01*
X67300000Y-29920000D02*
X69700000Y-32320000D01*
X54850000Y-43400000D02*
X54850000Y-69010000D01*
X67800000Y-39000000D02*
X59250000Y-39000000D01*
X54850000Y-69010000D02*
X59100000Y-73260000D01*
X69700000Y-37100000D02*
X67800000Y-39000000D01*
X59250000Y-39000000D02*
X54850000Y-43400000D01*
X51236000Y-29920000D02*
X67300000Y-29920000D01*
%TO.N,Net-(U12-E)*%
X95790000Y-9510000D02*
X94400000Y-8120000D01*
X94400000Y-8120000D02*
X59934000Y-8120000D01*
X59934000Y-8120000D02*
X58674000Y-6860000D01*
%TO.N,Net-(U12-F)*%
X85790000Y-9510000D02*
X83190000Y-12110000D01*
X61384000Y-12110000D02*
X56134000Y-6860000D01*
X83190000Y-12110000D02*
X61384000Y-12110000D01*
%TO.N,+3.3V*%
X21050000Y-12700000D02*
X22850000Y-10900000D01*
X63560000Y-6860000D02*
X59965000Y-3265000D01*
X28935000Y-1720000D02*
X30480000Y-3265000D01*
X47265000Y-3265000D02*
X30480000Y-3265000D01*
D34*
X24070000Y-5080000D02*
X24520000Y-4630000D01*
D32*
X24384000Y-20828000D02*
X24384000Y-16034000D01*
X66100000Y-6860000D02*
X62505000Y-3265000D01*
X62505000Y-3265000D02*
X59870000Y-3265000D01*
X50860000Y-6860000D02*
X47265000Y-3265000D01*
X24070000Y-5080000D02*
X24070000Y-3520000D01*
X24070000Y-3520000D02*
X25870000Y-1720000D01*
X59870000Y-3265000D02*
X47265000Y-3265000D01*
X22850000Y-10900000D02*
X22850000Y-6300000D01*
X59965000Y-3265000D02*
X59870000Y-3265000D01*
X25870000Y-1720000D02*
X28935000Y-1720000D01*
X24384000Y-16034000D02*
X21050000Y-12700000D01*
X22850000Y-6300000D02*
X24070000Y-5080000D01*
%TO.N,HAND_PWM*%
X54864000Y-20828000D02*
X54864000Y-5476000D01*
X54864000Y-5476000D02*
X55400000Y-4940000D01*
X59100000Y-4940000D02*
X55400000Y-4940000D01*
X61020000Y-6860000D02*
X59100000Y-4940000D01*
%TO.N,HAND_DIR*%
X49610000Y-10650000D02*
X53400000Y-6860000D01*
X49610000Y-15690000D02*
X49610000Y-10650000D01*
X52324000Y-18404000D02*
X52190000Y-18270000D01*
X52190000Y-18270000D02*
X49610000Y-15690000D01*
X52324000Y-20828000D02*
X52324000Y-18404000D01*
D35*
%TO.N,Net-(J1-Pad1)*%
X79324900Y-100480001D02*
X71494900Y-100480001D01*
D32*
%TO.N,/IC1_VO1*%
X77040000Y-50430000D02*
X77050000Y-50440000D01*
X77050000Y-50440000D02*
X79110000Y-50440000D01*
X80150000Y-28975102D02*
X90420001Y-18705101D01*
X80150000Y-49400000D02*
X80150000Y-28975102D01*
X79110000Y-50440000D02*
X80150000Y-49400000D01*
X69910000Y-50430000D02*
X77040000Y-50430000D01*
%TO.N,/IC1_VO2*%
X79475000Y-52980000D02*
X81400000Y-51055000D01*
X81400000Y-32725102D02*
X90420001Y-23705101D01*
X69910000Y-52970000D02*
X77040000Y-52970000D01*
X77050000Y-52980000D02*
X79475000Y-52980000D01*
X77040000Y-52970000D02*
X77050000Y-52980000D01*
X81400000Y-51055000D02*
X81400000Y-32725102D01*
%TO.N,/IC1_VF2+*%
X59130000Y-55510000D02*
X59100000Y-55480000D01*
X62290000Y-55510000D02*
X59130000Y-55510000D01*
%TO.N,/IC2_VO1*%
X79475000Y-55520000D02*
X82600000Y-52395000D01*
X73780000Y-55520000D02*
X77050000Y-55520000D01*
X82600000Y-45015102D02*
X90420001Y-37195101D01*
X71300000Y-61560000D02*
X71300000Y-58000000D01*
X69920000Y-62940000D02*
X71300000Y-61560000D01*
X71300000Y-58000000D02*
X73780000Y-55520000D01*
X77050000Y-55520000D02*
X79475000Y-55520000D01*
X82600000Y-52395000D02*
X82600000Y-45015102D01*
%TO.N,/IC2_VF2+*%
X61480000Y-68020000D02*
X59100000Y-65640000D01*
X62300000Y-68020000D02*
X61480000Y-68020000D01*
%TO.N,/IC2_VO2*%
X77050000Y-58060000D02*
X79475000Y-58060000D01*
X79475000Y-58060000D02*
X83900000Y-53635000D01*
X83900000Y-48715102D02*
X90420001Y-42195101D01*
X73740000Y-58060000D02*
X72100000Y-59700000D01*
X77050000Y-58060000D02*
X73740000Y-58060000D01*
X72100000Y-59700000D02*
X72100000Y-63300000D01*
X83900000Y-53635000D02*
X83900000Y-48715102D01*
X72100000Y-63300000D02*
X69920000Y-65480000D01*
%TO.N,/IC3_VO1*%
X77050000Y-60600000D02*
X80850000Y-60600000D01*
X73050000Y-61550000D02*
X73050000Y-65300000D01*
X77050000Y-60600000D02*
X74000000Y-60600000D01*
X74000000Y-60600000D02*
X73050000Y-61550000D01*
X85854899Y-55595101D02*
X90420001Y-55595101D01*
X80850000Y-60600000D02*
X85854899Y-55595101D01*
X72100000Y-66250000D02*
X72100000Y-73260000D01*
X73050000Y-65300000D02*
X72100000Y-66250000D01*
X72100000Y-73260000D02*
X69910000Y-75450000D01*
%TO.N,/IC3_VF2+*%
X62290000Y-80530000D02*
X59100000Y-77340000D01*
X59100000Y-77340000D02*
X59100000Y-75800000D01*
%TO.N,/IC3_VO2*%
X73850000Y-68765000D02*
X73850000Y-64375000D01*
X73850000Y-64375000D02*
X75085000Y-63140000D01*
X73050000Y-69565000D02*
X73850000Y-68765000D01*
X69910000Y-77990000D02*
X71010000Y-77990000D01*
X83410000Y-63140000D02*
X85954899Y-60595101D01*
X85954899Y-60595101D02*
X90420001Y-60595101D01*
X75085000Y-63140000D02*
X77050000Y-63140000D01*
X73050000Y-75950000D02*
X73050000Y-69565000D01*
X77050000Y-63140000D02*
X83410000Y-63140000D01*
X71010000Y-77990000D02*
X73050000Y-75950000D01*
%TD*%
%TA.AperFunction,Conductor*%
%TO.N,+24V*%
G36*
X47512412Y-85919764D02*
G01*
X47558240Y-85972504D01*
X47569516Y-86024653D01*
X47567333Y-86587965D01*
X47547389Y-86654927D01*
X47494408Y-86700477D01*
X47430741Y-86710843D01*
X47422491Y-86710000D01*
X46920000Y-86710000D01*
X46920000Y-88229473D01*
X46873558Y-88139844D01*
X46770362Y-88029348D01*
X46641181Y-87950791D01*
X46495596Y-87910000D01*
X46382378Y-87910000D01*
X46270217Y-87925416D01*
X46131542Y-87985651D01*
X46014261Y-88081066D01*
X45927072Y-88204585D01*
X45876441Y-88347047D01*
X45866123Y-88497886D01*
X45896884Y-88645915D01*
X45966442Y-88780156D01*
X46069638Y-88890652D01*
X46198819Y-88969209D01*
X46344404Y-89010000D01*
X46457622Y-89010000D01*
X46569783Y-88994584D01*
X46708458Y-88934349D01*
X46825739Y-88838934D01*
X46912928Y-88715415D01*
X46920000Y-88695516D01*
X46920000Y-90209999D01*
X47422482Y-90209999D01*
X47422502Y-90209998D01*
X47422506Y-90209999D01*
X47425634Y-90209999D01*
X47425634Y-90210746D01*
X47490457Y-90226245D01*
X47538840Y-90276652D01*
X47552812Y-90334318D01*
X47549999Y-91059999D01*
X47550000Y-91059999D01*
X47550000Y-91060000D01*
X54440000Y-91100000D01*
X54461793Y-89948072D01*
X55964145Y-89948072D01*
X55990662Y-89962423D01*
X56217936Y-90040446D01*
X56454964Y-90080000D01*
X56695262Y-90080000D01*
X56932289Y-90040446D01*
X57159564Y-89962423D01*
X57159571Y-89962420D01*
X57186079Y-89948073D01*
X57186080Y-89948072D01*
X56571644Y-89333636D01*
X56558463Y-89342443D01*
X56555428Y-89352782D01*
X56538794Y-89373424D01*
X55964145Y-89948072D01*
X54461793Y-89948072D01*
X54486730Y-88630000D01*
X55120144Y-88630000D01*
X55139987Y-88869476D01*
X55198977Y-89102426D01*
X55258920Y-89239084D01*
X55838703Y-88659302D01*
X56221485Y-88659302D01*
X56250160Y-88772538D01*
X56314049Y-88870327D01*
X56406228Y-88942072D01*
X56516708Y-88980000D01*
X56604118Y-88980000D01*
X56690329Y-88965614D01*
X56793060Y-88910019D01*
X56872173Y-88824079D01*
X56919095Y-88717108D01*
X56926600Y-88626531D01*
X57278749Y-88626531D01*
X57891303Y-89239085D01*
X57951248Y-89102425D01*
X58010238Y-88869476D01*
X58030082Y-88630000D01*
X58030082Y-88629994D01*
X58010238Y-88390523D01*
X57951247Y-88157571D01*
X57891304Y-88020914D01*
X57891303Y-88020913D01*
X57318537Y-88593681D01*
X57290452Y-88609016D01*
X57278749Y-88626531D01*
X56926600Y-88626531D01*
X56928741Y-88600698D01*
X56900066Y-88487462D01*
X56836177Y-88389673D01*
X56743998Y-88317928D01*
X56633518Y-88280000D01*
X56546108Y-88280000D01*
X56459897Y-88294386D01*
X56357166Y-88349981D01*
X56278053Y-88435921D01*
X56231131Y-88542892D01*
X56221485Y-88659302D01*
X55838703Y-88659302D01*
X55868006Y-88629999D01*
X55258921Y-88020914D01*
X55198977Y-88157573D01*
X55139987Y-88390523D01*
X55120144Y-88629994D01*
X55120144Y-88630000D01*
X54486730Y-88630000D01*
X54507666Y-87523358D01*
X54528615Y-87456704D01*
X54582275Y-87411956D01*
X54633367Y-87401717D01*
X55410306Y-87412533D01*
X55477061Y-87433148D01*
X55492910Y-87445616D01*
X55511896Y-87463232D01*
X55722479Y-87606805D01*
X55722484Y-87606807D01*
X55722485Y-87606808D01*
X55722486Y-87606809D01*
X55834185Y-87660600D01*
X55952105Y-87717387D01*
X55952106Y-87717387D01*
X55952109Y-87717389D01*
X56195655Y-87792513D01*
X56415333Y-87825624D01*
X56448592Y-87830638D01*
X56511949Y-87860095D01*
X56517791Y-87865572D01*
X56575111Y-87922892D01*
X56575112Y-87922892D01*
X56632435Y-87865571D01*
X56693759Y-87832087D01*
X56701634Y-87830638D01*
X56732298Y-87826015D01*
X56954571Y-87792513D01*
X57198117Y-87717389D01*
X57427747Y-87606805D01*
X57634239Y-87466020D01*
X57700716Y-87444522D01*
X57705751Y-87444488D01*
X58696106Y-87458275D01*
X58762865Y-87478891D01*
X58807881Y-87532327D01*
X58818369Y-87583894D01*
X58770000Y-91260000D01*
X73190000Y-90990000D01*
X73180213Y-88660600D01*
X73684501Y-88660600D01*
X73684501Y-89036086D01*
X73694994Y-89138797D01*
X73750141Y-89305219D01*
X73750143Y-89305224D01*
X73842184Y-89454445D01*
X73966154Y-89578415D01*
X74115375Y-89670456D01*
X74115380Y-89670458D01*
X74281802Y-89725605D01*
X74281809Y-89725606D01*
X74384519Y-89736099D01*
X74759999Y-89736099D01*
X74760000Y-89736098D01*
X74760000Y-88660600D01*
X73684501Y-88660600D01*
X73180213Y-88660600D01*
X73178112Y-88160600D01*
X74683569Y-88160600D01*
X74703210Y-88309791D01*
X74760796Y-88448815D01*
X74852402Y-88568198D01*
X74971785Y-88659804D01*
X75110809Y-88717390D01*
X75222545Y-88732100D01*
X75297455Y-88732100D01*
X75409191Y-88717390D01*
X75546293Y-88660600D01*
X75760000Y-88660600D01*
X75760000Y-89736099D01*
X76135472Y-89736099D01*
X76135486Y-89736098D01*
X76238197Y-89725605D01*
X76404619Y-89670458D01*
X76404624Y-89670456D01*
X76553845Y-89578415D01*
X76677815Y-89454445D01*
X76769856Y-89305224D01*
X76769858Y-89305219D01*
X76825005Y-89138797D01*
X76825006Y-89138790D01*
X76835499Y-89036086D01*
X76835500Y-89036073D01*
X76835500Y-88660600D01*
X75760000Y-88660600D01*
X75546293Y-88660600D01*
X75548215Y-88659804D01*
X75667598Y-88568198D01*
X75759204Y-88448816D01*
X75816790Y-88309791D01*
X75836431Y-88160600D01*
X75816790Y-88011409D01*
X75759204Y-87872385D01*
X75667598Y-87753002D01*
X75548215Y-87661396D01*
X75409191Y-87603810D01*
X75297455Y-87589100D01*
X75222545Y-87589100D01*
X75110809Y-87603810D01*
X74971785Y-87661396D01*
X74852402Y-87753002D01*
X74760796Y-87872384D01*
X74703210Y-88011409D01*
X74683569Y-88160600D01*
X73178112Y-88160600D01*
X73176011Y-87660600D01*
X73684500Y-87660600D01*
X74760000Y-87660600D01*
X74760000Y-86585100D01*
X75760000Y-86585100D01*
X75760000Y-87660600D01*
X76835499Y-87660600D01*
X76835499Y-87285128D01*
X76835498Y-87285113D01*
X76825005Y-87182402D01*
X76769858Y-87015980D01*
X76769856Y-87015975D01*
X76677815Y-86866754D01*
X76553845Y-86742784D01*
X76404624Y-86650743D01*
X76404619Y-86650741D01*
X76238197Y-86595594D01*
X76238190Y-86595593D01*
X76135486Y-86585100D01*
X75760000Y-86585100D01*
X74760000Y-86585100D01*
X74384528Y-86585100D01*
X74384512Y-86585101D01*
X74281802Y-86595594D01*
X74115380Y-86650741D01*
X74115375Y-86650743D01*
X73966154Y-86742784D01*
X73842184Y-86866754D01*
X73750143Y-87015975D01*
X73750141Y-87015980D01*
X73694994Y-87182402D01*
X73694993Y-87182409D01*
X73684500Y-87285113D01*
X73684500Y-87660600D01*
X73176011Y-87660600D01*
X73170528Y-86355725D01*
X73189931Y-86288604D01*
X73242542Y-86242628D01*
X73295718Y-86231211D01*
X77195930Y-86268804D01*
X77262777Y-86289134D01*
X77308021Y-86342376D01*
X77318728Y-86394068D01*
X77269999Y-91149999D01*
X77270000Y-91150000D01*
X84109999Y-91150000D01*
X84110000Y-91150000D01*
X84132165Y-90061135D01*
X84153207Y-89994517D01*
X84181829Y-89964397D01*
X84193395Y-89955739D01*
X84264670Y-89884463D01*
X84325991Y-89850980D01*
X84395683Y-89855964D01*
X84419752Y-89868064D01*
X84604291Y-89987569D01*
X84842826Y-90094503D01*
X84842828Y-90094504D01*
X84920000Y-90115710D01*
X84920000Y-88670526D01*
X84966442Y-88760156D01*
X85069638Y-88870652D01*
X85198819Y-88949209D01*
X85344404Y-88990000D01*
X85457622Y-88990000D01*
X85569783Y-88974584D01*
X85708458Y-88914349D01*
X85825739Y-88818934D01*
X85912928Y-88695415D01*
X85920000Y-88675516D01*
X85920000Y-90116896D01*
X86118484Y-90045611D01*
X86348150Y-89920722D01*
X86556048Y-89762248D01*
X86556050Y-89762246D01*
X86576655Y-89740837D01*
X86637325Y-89706183D01*
X86707099Y-89709831D01*
X86763825Y-89750623D01*
X86789492Y-89815608D01*
X86790000Y-89826822D01*
X86790000Y-94133532D01*
X86770315Y-94200571D01*
X86717511Y-94246326D01*
X86666520Y-94257531D01*
X63669977Y-94353988D01*
X63657602Y-94354115D01*
X63657583Y-94354116D01*
X63455547Y-94378039D01*
X63403898Y-94389546D01*
X63310972Y-94414945D01*
X63278328Y-94419333D01*
X61599999Y-94420000D01*
X61620000Y-95330000D01*
X61620000Y-109875500D01*
X61600315Y-109942539D01*
X61547511Y-109988294D01*
X61496000Y-109999500D01*
X11344000Y-109999500D01*
X11276961Y-109979815D01*
X11231206Y-109927011D01*
X11220000Y-109875500D01*
X11220000Y-101883221D01*
X14518784Y-101883221D01*
X14730479Y-101970909D01*
X14969671Y-102028333D01*
X14969670Y-102028333D01*
X15214900Y-102047632D01*
X15460129Y-102028333D01*
X15699317Y-101970910D01*
X15911014Y-101883221D01*
X15214901Y-101187108D01*
X15214900Y-101187108D01*
X14518784Y-101883221D01*
X11220000Y-101883221D01*
X11220000Y-100480001D01*
X13647268Y-100480001D01*
X13666567Y-100725230D01*
X13723991Y-100964421D01*
X13811678Y-101176115D01*
X14469301Y-100518493D01*
X14652161Y-100518493D01*
X14683414Y-100668891D01*
X14754085Y-100805280D01*
X14858932Y-100917544D01*
X14990180Y-100997358D01*
X15138095Y-101038801D01*
X15253125Y-101038801D01*
X15367080Y-101023138D01*
X15507973Y-100961940D01*
X15627131Y-100864998D01*
X15715715Y-100739503D01*
X15767156Y-100594761D01*
X15775006Y-100480001D01*
X15922007Y-100480001D01*
X16618120Y-101176114D01*
X16705809Y-100964418D01*
X16763232Y-100725230D01*
X16782531Y-100480005D01*
X18396515Y-100480005D01*
X18416823Y-100751007D01*
X18416824Y-100751012D01*
X18477297Y-101015965D01*
X18477299Y-101015974D01*
X18477301Y-101015979D01*
X18576592Y-101268969D01*
X18712480Y-101504334D01*
X18788771Y-101600000D01*
X18881932Y-101716821D01*
X18998882Y-101825334D01*
X19081155Y-101901672D01*
X19305708Y-102054769D01*
X19550565Y-102172686D01*
X19550566Y-102172686D01*
X19550569Y-102172688D01*
X19810271Y-102252795D01*
X19810272Y-102252795D01*
X19810275Y-102252796D01*
X20079004Y-102293300D01*
X20079009Y-102293300D01*
X20079012Y-102293301D01*
X20079013Y-102293301D01*
X20350787Y-102293301D01*
X20350788Y-102293301D01*
X20350795Y-102293300D01*
X20619524Y-102252796D01*
X20619525Y-102252795D01*
X20619529Y-102252795D01*
X20879231Y-102172688D01*
X21124093Y-102054769D01*
X21348645Y-101901672D01*
X21368530Y-101883221D01*
X27348784Y-101883221D01*
X27560479Y-101970909D01*
X27799671Y-102028333D01*
X27799670Y-102028333D01*
X28044900Y-102047632D01*
X28290129Y-102028333D01*
X28529317Y-101970910D01*
X28741014Y-101883221D01*
X28044901Y-101187108D01*
X28044900Y-101187108D01*
X27348784Y-101883221D01*
X21368530Y-101883221D01*
X21547871Y-101716817D01*
X21717320Y-101504334D01*
X21853208Y-101268969D01*
X21952499Y-101015979D01*
X22012975Y-100751017D01*
X22013838Y-100739503D01*
X22033285Y-100480005D01*
X22033285Y-100480001D01*
X26477268Y-100480001D01*
X26496567Y-100725230D01*
X26553991Y-100964421D01*
X26641678Y-101176115D01*
X27299301Y-100518493D01*
X27482161Y-100518493D01*
X27513414Y-100668891D01*
X27584085Y-100805280D01*
X27688932Y-100917544D01*
X27820180Y-100997358D01*
X27968095Y-101038801D01*
X28083125Y-101038801D01*
X28197080Y-101023138D01*
X28337973Y-100961940D01*
X28457131Y-100864998D01*
X28545715Y-100739503D01*
X28597156Y-100594761D01*
X28605006Y-100480001D01*
X28752007Y-100480001D01*
X29448120Y-101176114D01*
X29535809Y-100964418D01*
X29593232Y-100725230D01*
X29612531Y-100480005D01*
X31226515Y-100480005D01*
X31246823Y-100751007D01*
X31246824Y-100751012D01*
X31307297Y-101015965D01*
X31307299Y-101015974D01*
X31307301Y-101015979D01*
X31406592Y-101268969D01*
X31542480Y-101504334D01*
X31618771Y-101600000D01*
X31711932Y-101716821D01*
X31828882Y-101825334D01*
X31911155Y-101901672D01*
X32135708Y-102054769D01*
X32380565Y-102172686D01*
X32380566Y-102172686D01*
X32380569Y-102172688D01*
X32640271Y-102252795D01*
X32640272Y-102252795D01*
X32640275Y-102252796D01*
X32909004Y-102293300D01*
X32909009Y-102293300D01*
X32909012Y-102293301D01*
X32909013Y-102293301D01*
X33180787Y-102293301D01*
X33180788Y-102293301D01*
X33180795Y-102293300D01*
X33449524Y-102252796D01*
X33449525Y-102252795D01*
X33449529Y-102252795D01*
X33709231Y-102172688D01*
X33954093Y-102054769D01*
X34178645Y-101901672D01*
X34198530Y-101883221D01*
X40158784Y-101883221D01*
X40370479Y-101970909D01*
X40609671Y-102028333D01*
X40609670Y-102028333D01*
X40854900Y-102047632D01*
X41100129Y-102028333D01*
X41339317Y-101970910D01*
X41551014Y-101883221D01*
X40854901Y-101187108D01*
X40854900Y-101187108D01*
X40158784Y-101883221D01*
X34198530Y-101883221D01*
X34377871Y-101716817D01*
X34547320Y-101504334D01*
X34683208Y-101268969D01*
X34782499Y-101015979D01*
X34842975Y-100751017D01*
X34843838Y-100739503D01*
X34863285Y-100480005D01*
X34863285Y-100480001D01*
X39287268Y-100480001D01*
X39306567Y-100725230D01*
X39363991Y-100964421D01*
X39451678Y-101176115D01*
X40109301Y-100518493D01*
X40292161Y-100518493D01*
X40323414Y-100668891D01*
X40394085Y-100805280D01*
X40498932Y-100917544D01*
X40630180Y-100997358D01*
X40778095Y-101038801D01*
X40893125Y-101038801D01*
X41007080Y-101023138D01*
X41147973Y-100961940D01*
X41267131Y-100864998D01*
X41355715Y-100739503D01*
X41407156Y-100594761D01*
X41415006Y-100480001D01*
X41562007Y-100480001D01*
X42258120Y-101176114D01*
X42345809Y-100964418D01*
X42403232Y-100725230D01*
X42422531Y-100480005D01*
X44036515Y-100480005D01*
X44056823Y-100751007D01*
X44056824Y-100751012D01*
X44117297Y-101015965D01*
X44117299Y-101015974D01*
X44117301Y-101015979D01*
X44216592Y-101268969D01*
X44352480Y-101504334D01*
X44428771Y-101600000D01*
X44521932Y-101716821D01*
X44638882Y-101825334D01*
X44721155Y-101901672D01*
X44945708Y-102054769D01*
X45190565Y-102172686D01*
X45190566Y-102172686D01*
X45190569Y-102172688D01*
X45450271Y-102252795D01*
X45450272Y-102252795D01*
X45450275Y-102252796D01*
X45719004Y-102293300D01*
X45719009Y-102293300D01*
X45719012Y-102293301D01*
X45719013Y-102293301D01*
X45990787Y-102293301D01*
X45990788Y-102293301D01*
X45990795Y-102293300D01*
X46259524Y-102252796D01*
X46259525Y-102252795D01*
X46259529Y-102252795D01*
X46519231Y-102172688D01*
X46764093Y-102054769D01*
X46988645Y-101901672D01*
X47187871Y-101716817D01*
X47357320Y-101504334D01*
X47493208Y-101268969D01*
X47592499Y-101015979D01*
X47652975Y-100751017D01*
X47653838Y-100739503D01*
X47673285Y-100480005D01*
X51866515Y-100480005D01*
X51886823Y-100751007D01*
X51886824Y-100751012D01*
X51947297Y-101015965D01*
X51947299Y-101015974D01*
X51947301Y-101015979D01*
X52046592Y-101268969D01*
X52182480Y-101504334D01*
X52258771Y-101600000D01*
X52351932Y-101716821D01*
X52468882Y-101825334D01*
X52551155Y-101901672D01*
X52775708Y-102054769D01*
X53020565Y-102172686D01*
X53020566Y-102172686D01*
X53020569Y-102172688D01*
X53280271Y-102252795D01*
X53280272Y-102252795D01*
X53280275Y-102252796D01*
X53549004Y-102293300D01*
X53549009Y-102293300D01*
X53549012Y-102293301D01*
X53549013Y-102293301D01*
X53820787Y-102293301D01*
X53820788Y-102293301D01*
X53820795Y-102293300D01*
X54089524Y-102252796D01*
X54089525Y-102252795D01*
X54089529Y-102252795D01*
X54349231Y-102172688D01*
X54594093Y-102054769D01*
X54818645Y-101901672D01*
X54838530Y-101883221D01*
X57988784Y-101883221D01*
X58200479Y-101970909D01*
X58439671Y-102028333D01*
X58439670Y-102028333D01*
X58684900Y-102047632D01*
X58930129Y-102028333D01*
X59169317Y-101970910D01*
X59381014Y-101883221D01*
X58684901Y-101187108D01*
X58684900Y-101187108D01*
X57988784Y-101883221D01*
X54838530Y-101883221D01*
X55017871Y-101716817D01*
X55187320Y-101504334D01*
X55323208Y-101268969D01*
X55422499Y-101015979D01*
X55482975Y-100751017D01*
X55483838Y-100739503D01*
X55503285Y-100480005D01*
X55503285Y-100480001D01*
X57117268Y-100480001D01*
X57136567Y-100725230D01*
X57193991Y-100964421D01*
X57281678Y-101176115D01*
X57939301Y-100518493D01*
X58122161Y-100518493D01*
X58153414Y-100668891D01*
X58224085Y-100805280D01*
X58328932Y-100917544D01*
X58460180Y-100997358D01*
X58608095Y-101038801D01*
X58723125Y-101038801D01*
X58837080Y-101023138D01*
X58977973Y-100961940D01*
X59097131Y-100864998D01*
X59185715Y-100739503D01*
X59237156Y-100594761D01*
X59245006Y-100480001D01*
X59392007Y-100480001D01*
X60088120Y-101176114D01*
X60175809Y-100964418D01*
X60233232Y-100725230D01*
X60252531Y-100480001D01*
X60233232Y-100234771D01*
X60175808Y-99995580D01*
X60088120Y-99783885D01*
X59392007Y-100480000D01*
X59392007Y-100480001D01*
X59245006Y-100480001D01*
X59247639Y-100441509D01*
X59216386Y-100291111D01*
X59145715Y-100154722D01*
X59040868Y-100042458D01*
X58909620Y-99962644D01*
X58761705Y-99921201D01*
X58646675Y-99921201D01*
X58532720Y-99936864D01*
X58391827Y-99998062D01*
X58272669Y-100095004D01*
X58184085Y-100220499D01*
X58132644Y-100365241D01*
X58122161Y-100518493D01*
X57939301Y-100518493D01*
X57977793Y-100480001D01*
X57977793Y-100480000D01*
X57281678Y-99783885D01*
X57193991Y-99995580D01*
X57136567Y-100234771D01*
X57117268Y-100480001D01*
X55503285Y-100480001D01*
X55503285Y-100479996D01*
X55482976Y-100208994D01*
X55482975Y-100208989D01*
X55482975Y-100208985D01*
X55422499Y-99944023D01*
X55323208Y-99691033D01*
X55187320Y-99455668D01*
X55017871Y-99243185D01*
X55017870Y-99243184D01*
X55017867Y-99243180D01*
X54838528Y-99076779D01*
X57988784Y-99076779D01*
X58684900Y-99772894D01*
X58684901Y-99772894D01*
X59381014Y-99076779D01*
X59169320Y-98989092D01*
X58930128Y-98931668D01*
X58930129Y-98931668D01*
X58684900Y-98912369D01*
X58439670Y-98931668D01*
X58200479Y-98989092D01*
X57988784Y-99076779D01*
X54838528Y-99076779D01*
X54818645Y-99058330D01*
X54818642Y-99058328D01*
X54594093Y-98905233D01*
X54594089Y-98905231D01*
X54594086Y-98905229D01*
X54594085Y-98905228D01*
X54349233Y-98787315D01*
X54349235Y-98787315D01*
X54089530Y-98707207D01*
X54089524Y-98707205D01*
X53820795Y-98666701D01*
X53820788Y-98666701D01*
X53549012Y-98666701D01*
X53549004Y-98666701D01*
X53280275Y-98707205D01*
X53280269Y-98707207D01*
X53020565Y-98787315D01*
X52775716Y-98905228D01*
X52775707Y-98905233D01*
X52551157Y-99058328D01*
X52351932Y-99243180D01*
X52182480Y-99455668D01*
X52046592Y-99691032D01*
X51947303Y-99944017D01*
X51947297Y-99944036D01*
X51886824Y-100208989D01*
X51886823Y-100208994D01*
X51866515Y-100479996D01*
X51866515Y-100480005D01*
X47673285Y-100480005D01*
X47673285Y-100479996D01*
X47652976Y-100208994D01*
X47652975Y-100208989D01*
X47652975Y-100208985D01*
X47592499Y-99944023D01*
X47493208Y-99691033D01*
X47357320Y-99455668D01*
X47187871Y-99243185D01*
X47187870Y-99243184D01*
X47187867Y-99243180D01*
X46988645Y-99058330D01*
X46988642Y-99058328D01*
X46764093Y-98905233D01*
X46764089Y-98905231D01*
X46764086Y-98905229D01*
X46764085Y-98905228D01*
X46519233Y-98787315D01*
X46519235Y-98787315D01*
X46259530Y-98707207D01*
X46259524Y-98707205D01*
X45990795Y-98666701D01*
X45990788Y-98666701D01*
X45719012Y-98666701D01*
X45719004Y-98666701D01*
X45450275Y-98707205D01*
X45450269Y-98707207D01*
X45190565Y-98787315D01*
X44945716Y-98905228D01*
X44945707Y-98905233D01*
X44721157Y-99058328D01*
X44521932Y-99243180D01*
X44352480Y-99455668D01*
X44216592Y-99691032D01*
X44117303Y-99944017D01*
X44117297Y-99944036D01*
X44056824Y-100208989D01*
X44056823Y-100208994D01*
X44036515Y-100479996D01*
X44036515Y-100480005D01*
X42422531Y-100480005D01*
X42422531Y-100480001D01*
X42403232Y-100234771D01*
X42345808Y-99995580D01*
X42258120Y-99783885D01*
X41562007Y-100480000D01*
X41562007Y-100480001D01*
X41415006Y-100480001D01*
X41417639Y-100441509D01*
X41386386Y-100291111D01*
X41315715Y-100154722D01*
X41210868Y-100042458D01*
X41079620Y-99962644D01*
X40931705Y-99921201D01*
X40816675Y-99921201D01*
X40702720Y-99936864D01*
X40561827Y-99998062D01*
X40442669Y-100095004D01*
X40354085Y-100220499D01*
X40302644Y-100365241D01*
X40292161Y-100518493D01*
X40109301Y-100518493D01*
X40147793Y-100480001D01*
X40147793Y-100480000D01*
X39451678Y-99783885D01*
X39363991Y-99995580D01*
X39306567Y-100234771D01*
X39287268Y-100480001D01*
X34863285Y-100480001D01*
X34863285Y-100479996D01*
X34842976Y-100208994D01*
X34842975Y-100208989D01*
X34842975Y-100208985D01*
X34782499Y-99944023D01*
X34683208Y-99691033D01*
X34547320Y-99455668D01*
X34377871Y-99243185D01*
X34377870Y-99243184D01*
X34377867Y-99243180D01*
X34198528Y-99076779D01*
X40158784Y-99076779D01*
X40854900Y-99772894D01*
X40854901Y-99772894D01*
X41551014Y-99076779D01*
X41339320Y-98989092D01*
X41100128Y-98931668D01*
X41100129Y-98931668D01*
X40854900Y-98912369D01*
X40609670Y-98931668D01*
X40370479Y-98989092D01*
X40158784Y-99076779D01*
X34198528Y-99076779D01*
X34178645Y-99058330D01*
X34178642Y-99058328D01*
X33954093Y-98905233D01*
X33954089Y-98905231D01*
X33954086Y-98905229D01*
X33954085Y-98905228D01*
X33709233Y-98787315D01*
X33709235Y-98787315D01*
X33449530Y-98707207D01*
X33449524Y-98707205D01*
X33180795Y-98666701D01*
X33180788Y-98666701D01*
X32909012Y-98666701D01*
X32909004Y-98666701D01*
X32640275Y-98707205D01*
X32640269Y-98707207D01*
X32380565Y-98787315D01*
X32135716Y-98905228D01*
X32135707Y-98905233D01*
X31911157Y-99058328D01*
X31711932Y-99243180D01*
X31542480Y-99455668D01*
X31406592Y-99691032D01*
X31307303Y-99944017D01*
X31307297Y-99944036D01*
X31246824Y-100208989D01*
X31246823Y-100208994D01*
X31226515Y-100479996D01*
X31226515Y-100480005D01*
X29612531Y-100480005D01*
X29612531Y-100480001D01*
X29593232Y-100234771D01*
X29535808Y-99995580D01*
X29448120Y-99783885D01*
X28752007Y-100480000D01*
X28752007Y-100480001D01*
X28605006Y-100480001D01*
X28607639Y-100441509D01*
X28576386Y-100291111D01*
X28505715Y-100154722D01*
X28400868Y-100042458D01*
X28269620Y-99962644D01*
X28121705Y-99921201D01*
X28006675Y-99921201D01*
X27892720Y-99936864D01*
X27751827Y-99998062D01*
X27632669Y-100095004D01*
X27544085Y-100220499D01*
X27492644Y-100365241D01*
X27482161Y-100518493D01*
X27299301Y-100518493D01*
X27337793Y-100480001D01*
X27337793Y-100480000D01*
X26641678Y-99783885D01*
X26553991Y-99995580D01*
X26496567Y-100234771D01*
X26477268Y-100480001D01*
X22033285Y-100480001D01*
X22033285Y-100479996D01*
X22012976Y-100208994D01*
X22012975Y-100208989D01*
X22012975Y-100208985D01*
X21952499Y-99944023D01*
X21853208Y-99691033D01*
X21717320Y-99455668D01*
X21547871Y-99243185D01*
X21547870Y-99243184D01*
X21547867Y-99243180D01*
X21368528Y-99076779D01*
X27348784Y-99076779D01*
X28044900Y-99772894D01*
X28044901Y-99772894D01*
X28741014Y-99076779D01*
X28529320Y-98989092D01*
X28290128Y-98931668D01*
X28290129Y-98931668D01*
X28044900Y-98912369D01*
X27799670Y-98931668D01*
X27560479Y-98989092D01*
X27348784Y-99076779D01*
X21368528Y-99076779D01*
X21348645Y-99058330D01*
X21348642Y-99058328D01*
X21124093Y-98905233D01*
X21124089Y-98905231D01*
X21124086Y-98905229D01*
X21124085Y-98905228D01*
X20879233Y-98787315D01*
X20879235Y-98787315D01*
X20619530Y-98707207D01*
X20619524Y-98707205D01*
X20350795Y-98666701D01*
X20350788Y-98666701D01*
X20079012Y-98666701D01*
X20079004Y-98666701D01*
X19810275Y-98707205D01*
X19810269Y-98707207D01*
X19550565Y-98787315D01*
X19305716Y-98905228D01*
X19305707Y-98905233D01*
X19081157Y-99058328D01*
X18881932Y-99243180D01*
X18712480Y-99455668D01*
X18576592Y-99691032D01*
X18477303Y-99944017D01*
X18477297Y-99944036D01*
X18416824Y-100208989D01*
X18416823Y-100208994D01*
X18396515Y-100479996D01*
X18396515Y-100480005D01*
X16782531Y-100480005D01*
X16782531Y-100480001D01*
X16763232Y-100234771D01*
X16705808Y-99995580D01*
X16618120Y-99783885D01*
X15922007Y-100480000D01*
X15922007Y-100480001D01*
X15775006Y-100480001D01*
X15777639Y-100441509D01*
X15746386Y-100291111D01*
X15675715Y-100154722D01*
X15570868Y-100042458D01*
X15439620Y-99962644D01*
X15291705Y-99921201D01*
X15176675Y-99921201D01*
X15062720Y-99936864D01*
X14921827Y-99998062D01*
X14802669Y-100095004D01*
X14714085Y-100220499D01*
X14662644Y-100365241D01*
X14652161Y-100518493D01*
X14469301Y-100518493D01*
X14507793Y-100480001D01*
X14507793Y-100480000D01*
X13811678Y-99783885D01*
X13723991Y-99995580D01*
X13666567Y-100234771D01*
X13647268Y-100480001D01*
X11220000Y-100480001D01*
X11220000Y-99076779D01*
X14518784Y-99076779D01*
X15214900Y-99772894D01*
X15214901Y-99772894D01*
X15911014Y-99076779D01*
X15699320Y-98989092D01*
X15460128Y-98931668D01*
X15460129Y-98931668D01*
X15214900Y-98912369D01*
X14969670Y-98931668D01*
X14730479Y-98989092D01*
X14518784Y-99076779D01*
X11220000Y-99076779D01*
X11220000Y-94764454D01*
X11239685Y-94697415D01*
X11292489Y-94651660D01*
X11344452Y-94640455D01*
X32776549Y-94718853D01*
X33089999Y-94720000D01*
X33089999Y-94719999D01*
X33090000Y-94720000D01*
X33112531Y-89763114D01*
X34473991Y-89763114D01*
X34609518Y-89837117D01*
X34857471Y-89929599D01*
X35116039Y-89985847D01*
X35379999Y-90004726D01*
X35380001Y-90004726D01*
X35643960Y-89985847D01*
X35902528Y-89929599D01*
X36150484Y-89837116D01*
X36286007Y-89763114D01*
X35380000Y-88857107D01*
X34473991Y-89763114D01*
X33112531Y-89763114D01*
X33119863Y-88150001D01*
X33525274Y-88150001D01*
X33544152Y-88413960D01*
X33600400Y-88672528D01*
X33692884Y-88920486D01*
X33766884Y-89056006D01*
X33766885Y-89056006D01*
X34635007Y-88187886D01*
X34826123Y-88187886D01*
X34856884Y-88335915D01*
X34926442Y-88470156D01*
X35029638Y-88580652D01*
X35158819Y-88659209D01*
X35304404Y-88700000D01*
X35417622Y-88700000D01*
X35529783Y-88684584D01*
X35668458Y-88624349D01*
X35785739Y-88528934D01*
X35872928Y-88405415D01*
X35923559Y-88262953D01*
X35931285Y-88150000D01*
X36087107Y-88150000D01*
X36993114Y-89056007D01*
X37045538Y-88960000D01*
X44717501Y-88960000D01*
X44717501Y-89509986D01*
X44727994Y-89612697D01*
X44783141Y-89779119D01*
X44783143Y-89779124D01*
X44875184Y-89928345D01*
X44999154Y-90052315D01*
X45148375Y-90144356D01*
X45148380Y-90144358D01*
X45314802Y-90199505D01*
X45314809Y-90199506D01*
X45417519Y-90209999D01*
X45919999Y-90209999D01*
X45920000Y-90209998D01*
X45920000Y-88960000D01*
X44717501Y-88960000D01*
X37045538Y-88960000D01*
X37067116Y-88920484D01*
X37159599Y-88672528D01*
X37215847Y-88413960D01*
X37234726Y-88150001D01*
X37234726Y-88149998D01*
X37221137Y-87960000D01*
X44717500Y-87960000D01*
X45920000Y-87960000D01*
X45920000Y-86710000D01*
X45417528Y-86710000D01*
X45417512Y-86710001D01*
X45314802Y-86720494D01*
X45148380Y-86775641D01*
X45148375Y-86775643D01*
X44999154Y-86867684D01*
X44875184Y-86991654D01*
X44783143Y-87140875D01*
X44783141Y-87140880D01*
X44727994Y-87307302D01*
X44727993Y-87307309D01*
X44717500Y-87410013D01*
X44717500Y-87960000D01*
X37221137Y-87960000D01*
X37215847Y-87886039D01*
X37159599Y-87627471D01*
X37067117Y-87379519D01*
X37067117Y-87379518D01*
X36993114Y-87243991D01*
X36087107Y-88149999D01*
X36087107Y-88150000D01*
X35931285Y-88150000D01*
X35933877Y-88112114D01*
X35903116Y-87964085D01*
X35833558Y-87829844D01*
X35730362Y-87719348D01*
X35601181Y-87640791D01*
X35455596Y-87600000D01*
X35342378Y-87600000D01*
X35230217Y-87615416D01*
X35091542Y-87675651D01*
X34974261Y-87771066D01*
X34887072Y-87894585D01*
X34836441Y-88037047D01*
X34826123Y-88187886D01*
X34635007Y-88187886D01*
X34672893Y-88150000D01*
X33766885Y-87243992D01*
X33766884Y-87243992D01*
X33692884Y-87379513D01*
X33600400Y-87627471D01*
X33544152Y-87886039D01*
X33525274Y-88149998D01*
X33525274Y-88150001D01*
X33119863Y-88150001D01*
X33127195Y-86536885D01*
X34473992Y-86536885D01*
X35380000Y-87442893D01*
X35380001Y-87442893D01*
X36286006Y-86536885D01*
X36286006Y-86536884D01*
X36150486Y-86462884D01*
X36150487Y-86462884D01*
X35902528Y-86370400D01*
X35643960Y-86314152D01*
X35380001Y-86295274D01*
X35379999Y-86295274D01*
X35116039Y-86314152D01*
X34857471Y-86370400D01*
X34609513Y-86462884D01*
X34473992Y-86536884D01*
X34473992Y-86536885D01*
X33127195Y-86536885D01*
X33129439Y-86043262D01*
X33149428Y-85976316D01*
X33202440Y-85930802D01*
X33253264Y-85919829D01*
X47445347Y-85900172D01*
X47512412Y-85919764D01*
G37*
%TD.AperFunction*%
%TA.AperFunction,Conductor*%
G36*
X85908794Y-88172989D02*
G01*
X85914365Y-88198598D01*
X85889644Y-88150888D01*
X85908794Y-88172989D01*
G37*
%TD.AperFunction*%
%TA.AperFunction,Conductor*%
G36*
X84935031Y-88173308D02*
G01*
X84939685Y-88157461D01*
X84956507Y-88142884D01*
X84935031Y-88173308D01*
G37*
%TD.AperFunction*%
%TD*%
%TA.AperFunction,Conductor*%
%TO.N,/BAT_SW*%
G36*
X93607963Y-88933007D02*
G01*
X93674956Y-88952840D01*
X93720594Y-89005745D01*
X93725617Y-89018689D01*
X93820963Y-89312132D01*
X93820965Y-89312137D01*
X93954900Y-89596761D01*
X93954905Y-89596771D01*
X94064083Y-89768807D01*
X94897027Y-88935862D01*
X94975746Y-88936036D01*
X95024213Y-89039973D01*
X95154183Y-89225590D01*
X95314410Y-89385817D01*
X95500027Y-89515787D01*
X95657764Y-89589341D01*
X94769747Y-90477357D01*
X94769748Y-90477358D01*
X94807777Y-90504988D01*
X94807796Y-90505000D01*
X95083447Y-90656540D01*
X95083455Y-90656544D01*
X95375926Y-90772341D01*
X95522191Y-90809896D01*
X95582229Y-90845634D01*
X95613414Y-90908158D01*
X95605846Y-90977617D01*
X95561927Y-91031957D01*
X95522191Y-91050104D01*
X95375926Y-91087658D01*
X95083455Y-91203455D01*
X95083447Y-91203459D01*
X94807787Y-91355004D01*
X94807784Y-91355006D01*
X94769748Y-91382640D01*
X94769748Y-91382641D01*
X95657765Y-92270658D01*
X95500027Y-92344213D01*
X95314410Y-92474183D01*
X95154183Y-92634410D01*
X95024213Y-92820026D01*
X94950658Y-92977764D01*
X94064083Y-92091190D01*
X93954903Y-92263232D01*
X93954900Y-92263238D01*
X93820965Y-92547862D01*
X93820963Y-92547867D01*
X93723755Y-92847041D01*
X93664808Y-93156050D01*
X93664807Y-93156057D01*
X93645057Y-93469994D01*
X93645057Y-93470005D01*
X93664807Y-93783942D01*
X93664808Y-93783949D01*
X93723755Y-94092958D01*
X93820963Y-94392132D01*
X93820965Y-94392137D01*
X93954900Y-94676761D01*
X93954905Y-94676771D01*
X94064083Y-94848807D01*
X94064084Y-94848808D01*
X94950657Y-93962234D01*
X95024213Y-94119973D01*
X95154183Y-94305590D01*
X95314410Y-94465817D01*
X95500027Y-94595787D01*
X95657764Y-94669341D01*
X94769747Y-95557357D01*
X94769748Y-95557358D01*
X94807777Y-95584988D01*
X94807796Y-95585000D01*
X95083447Y-95736540D01*
X95083455Y-95736544D01*
X95375926Y-95852340D01*
X95680620Y-95930573D01*
X95680629Y-95930575D01*
X95992701Y-95969999D01*
X95992715Y-95970000D01*
X96307285Y-95970000D01*
X96307298Y-95969999D01*
X96619370Y-95930575D01*
X96619379Y-95930573D01*
X96924073Y-95852340D01*
X97216544Y-95736544D01*
X97216545Y-95736543D01*
X97492216Y-95584991D01*
X97492222Y-95584988D01*
X97530250Y-95557358D01*
X97530250Y-95557357D01*
X96642234Y-94669341D01*
X96799973Y-94595787D01*
X96985590Y-94465817D01*
X97145817Y-94305590D01*
X97275787Y-94119974D01*
X97349341Y-93962235D01*
X98235914Y-94848808D01*
X98235915Y-94848807D01*
X98345092Y-94676773D01*
X98345103Y-94676754D01*
X98479034Y-94392137D01*
X98479036Y-94392132D01*
X98576244Y-94092958D01*
X98635191Y-93783949D01*
X98635192Y-93783942D01*
X98654943Y-93470005D01*
X98654943Y-93469994D01*
X98635192Y-93156057D01*
X98635191Y-93156050D01*
X98576244Y-92847041D01*
X98479036Y-92547867D01*
X98479034Y-92547862D01*
X98345099Y-92263237D01*
X98345091Y-92263222D01*
X98235915Y-92091191D01*
X97349341Y-92977764D01*
X97275787Y-92820027D01*
X97145817Y-92634410D01*
X96985590Y-92474183D01*
X96799973Y-92344213D01*
X96642235Y-92270658D01*
X97530251Y-91382641D01*
X97530250Y-91382639D01*
X97492227Y-91355014D01*
X97492209Y-91355003D01*
X97216552Y-91203459D01*
X97216544Y-91203455D01*
X96924073Y-91087659D01*
X96777808Y-91050104D01*
X96717770Y-91014366D01*
X96686585Y-90951842D01*
X96694153Y-90882383D01*
X96738072Y-90828043D01*
X96777808Y-90809896D01*
X96924073Y-90772340D01*
X97216544Y-90656544D01*
X97216545Y-90656543D01*
X97492216Y-90504991D01*
X97492222Y-90504988D01*
X97530250Y-90477358D01*
X97530250Y-90477357D01*
X96642234Y-89589341D01*
X96799973Y-89515787D01*
X96985590Y-89385817D01*
X97145817Y-89225590D01*
X97275787Y-89039974D01*
X97321830Y-88941232D01*
X97408532Y-88941425D01*
X98235915Y-89768808D01*
X98235915Y-89768807D01*
X98345092Y-89596773D01*
X98345103Y-89596754D01*
X98479034Y-89312137D01*
X98479036Y-89312132D01*
X98570725Y-89029942D01*
X98610162Y-88972267D01*
X98674521Y-88945068D01*
X98688910Y-88944261D01*
X99875781Y-88946889D01*
X99942770Y-88966721D01*
X99988408Y-89019626D01*
X99999500Y-89070888D01*
X99999500Y-109875500D01*
X99979815Y-109942539D01*
X99927011Y-109988294D01*
X99875500Y-109999500D01*
X63758123Y-109999500D01*
X63691084Y-109979815D01*
X63645329Y-109927011D01*
X63634125Y-109876219D01*
X63601624Y-104267988D01*
X63587803Y-101883221D01*
X65798784Y-101883221D01*
X66010479Y-101970909D01*
X66249671Y-102028333D01*
X66249670Y-102028333D01*
X66494900Y-102047632D01*
X66740129Y-102028333D01*
X66979317Y-101970910D01*
X67191014Y-101883221D01*
X66494901Y-101187108D01*
X66494900Y-101187108D01*
X65798784Y-101883221D01*
X63587803Y-101883221D01*
X63579671Y-100480001D01*
X64927268Y-100480001D01*
X64946567Y-100725230D01*
X65003991Y-100964421D01*
X65091678Y-101176115D01*
X65749301Y-100518493D01*
X65932161Y-100518493D01*
X65963414Y-100668891D01*
X66034085Y-100805280D01*
X66138932Y-100917544D01*
X66270180Y-100997358D01*
X66418095Y-101038801D01*
X66533125Y-101038801D01*
X66647080Y-101023138D01*
X66787973Y-100961940D01*
X66907131Y-100864998D01*
X66995715Y-100739503D01*
X67047156Y-100594761D01*
X67055006Y-100480001D01*
X67202007Y-100480001D01*
X67898120Y-101176114D01*
X67985809Y-100964418D01*
X68043232Y-100725230D01*
X68050150Y-100637330D01*
X68994400Y-100637330D01*
X69033832Y-100949464D01*
X69033834Y-100949477D01*
X69112080Y-101254226D01*
X69112081Y-101254229D01*
X69227901Y-101546758D01*
X69227902Y-101546759D01*
X69227904Y-101546764D01*
X69227906Y-101546767D01*
X69379484Y-101822485D01*
X69379486Y-101822489D01*
X69379491Y-101822496D01*
X69564415Y-102077022D01*
X69564423Y-102077032D01*
X69779807Y-102306392D01*
X69779809Y-102306394D01*
X70022234Y-102506946D01*
X70022238Y-102506949D01*
X70232548Y-102640415D01*
X70287893Y-102675538D01*
X70453987Y-102753696D01*
X70572578Y-102809501D01*
X70572582Y-102809502D01*
X70572585Y-102809504D01*
X70871821Y-102906732D01*
X71180885Y-102965689D01*
X71180890Y-102965689D01*
X71180895Y-102965690D01*
X71416311Y-102980501D01*
X71416317Y-102980501D01*
X79403489Y-102980501D01*
X79638904Y-102965690D01*
X79638907Y-102965689D01*
X79638915Y-102965689D01*
X79947979Y-102906732D01*
X80247215Y-102809504D01*
X80531907Y-102675538D01*
X80797563Y-102506948D01*
X81039994Y-102306391D01*
X81255378Y-102077031D01*
X81440316Y-101822485D01*
X81591894Y-101546767D01*
X81608695Y-101504334D01*
X81707718Y-101254229D01*
X81707719Y-101254226D01*
X81785965Y-100949477D01*
X81785966Y-100949474D01*
X81811037Y-100751017D01*
X81825399Y-100637330D01*
X81825400Y-100637317D01*
X81825400Y-100480005D01*
X82506515Y-100480005D01*
X82526823Y-100751007D01*
X82526824Y-100751012D01*
X82526824Y-100751016D01*
X82526825Y-100751017D01*
X82533334Y-100779535D01*
X82587297Y-101015965D01*
X82587299Y-101015974D01*
X82587301Y-101015979D01*
X82686592Y-101268969D01*
X82822480Y-101504334D01*
X82898771Y-101600000D01*
X82991932Y-101716821D01*
X83105811Y-101822484D01*
X83191155Y-101901672D01*
X83415708Y-102054769D01*
X83660565Y-102172686D01*
X83660566Y-102172686D01*
X83660569Y-102172688D01*
X83920271Y-102252795D01*
X83920272Y-102252795D01*
X83920275Y-102252796D01*
X84189004Y-102293300D01*
X84189009Y-102293300D01*
X84189012Y-102293301D01*
X84189013Y-102293301D01*
X84460787Y-102293301D01*
X84460788Y-102293301D01*
X84460795Y-102293300D01*
X84729524Y-102252796D01*
X84729525Y-102252795D01*
X84729529Y-102252795D01*
X84989231Y-102172688D01*
X85234093Y-102054769D01*
X85458645Y-101901672D01*
X85657871Y-101716817D01*
X85751029Y-101600000D01*
X88504434Y-101600000D01*
X88524685Y-102012218D01*
X88524685Y-102012223D01*
X88524686Y-102012227D01*
X88585244Y-102420471D01*
X88606906Y-102506949D01*
X88649135Y-102675539D01*
X88685527Y-102820821D01*
X88824555Y-103209379D01*
X88824562Y-103209395D01*
X88824564Y-103209400D01*
X89001022Y-103582490D01*
X89001024Y-103582493D01*
X89213198Y-103936484D01*
X89459058Y-104267988D01*
X89736215Y-104573784D01*
X90042011Y-104850941D01*
X90042017Y-104850946D01*
X90373513Y-105096800D01*
X90727510Y-105308978D01*
X91100600Y-105485436D01*
X91100609Y-105485439D01*
X91100620Y-105485444D01*
X91461738Y-105614654D01*
X91489189Y-105624476D01*
X91889535Y-105724757D01*
X92297782Y-105785315D01*
X92710000Y-105805566D01*
X93122218Y-105785315D01*
X93530465Y-105724757D01*
X93930811Y-105624476D01*
X94111380Y-105559866D01*
X94319379Y-105485444D01*
X94319385Y-105485441D01*
X94319400Y-105485436D01*
X94692490Y-105308978D01*
X95046487Y-105096800D01*
X95377983Y-104850946D01*
X95683784Y-104573784D01*
X95960946Y-104267983D01*
X96206800Y-103936487D01*
X96418978Y-103582490D01*
X96595436Y-103209400D01*
X96734476Y-102820811D01*
X96834757Y-102420465D01*
X96895315Y-102012218D01*
X96915566Y-101600000D01*
X96895315Y-101187782D01*
X96834757Y-100779535D01*
X96734476Y-100379189D01*
X96714258Y-100322683D01*
X96595444Y-99990620D01*
X96595437Y-99990604D01*
X96595436Y-99990600D01*
X96418978Y-99617510D01*
X96206800Y-99263513D01*
X95960946Y-98932017D01*
X95960630Y-98931668D01*
X95683784Y-98626215D01*
X95377988Y-98349058D01*
X95290894Y-98284465D01*
X95046487Y-98103200D01*
X94692490Y-97891022D01*
X94319400Y-97714564D01*
X94319396Y-97714562D01*
X94319395Y-97714562D01*
X94319379Y-97714555D01*
X93930821Y-97575527D01*
X93930815Y-97575525D01*
X93930811Y-97575524D01*
X93732205Y-97525776D01*
X93530471Y-97475244D01*
X93530466Y-97475243D01*
X93530465Y-97475243D01*
X93429577Y-97460277D01*
X93122227Y-97414686D01*
X93122223Y-97414685D01*
X93122218Y-97414685D01*
X92710000Y-97394434D01*
X92297782Y-97414685D01*
X92297776Y-97414685D01*
X92297772Y-97414686D01*
X91889528Y-97475244D01*
X91587316Y-97550944D01*
X91489189Y-97575524D01*
X91489186Y-97575524D01*
X91489178Y-97575527D01*
X91100620Y-97714555D01*
X91100604Y-97714562D01*
X90727506Y-97891024D01*
X90373515Y-98103198D01*
X90042011Y-98349058D01*
X89736215Y-98626215D01*
X89459058Y-98932011D01*
X89213198Y-99263515D01*
X89001024Y-99617506D01*
X88824562Y-99990604D01*
X88824555Y-99990620D01*
X88685527Y-100379178D01*
X88585244Y-100779528D01*
X88524785Y-101187108D01*
X88524685Y-101187782D01*
X88504434Y-101600000D01*
X85751029Y-101600000D01*
X85827320Y-101504334D01*
X85963208Y-101268969D01*
X86062499Y-101015979D01*
X86122975Y-100751017D01*
X86123838Y-100739503D01*
X86143285Y-100480005D01*
X86143285Y-100479996D01*
X86122976Y-100208994D01*
X86122975Y-100208989D01*
X86122975Y-100208985D01*
X86062499Y-99944023D01*
X85963208Y-99691033D01*
X85827320Y-99455668D01*
X85657871Y-99243185D01*
X85657870Y-99243184D01*
X85657867Y-99243180D01*
X85458645Y-99058330D01*
X85458642Y-99058328D01*
X85234093Y-98905233D01*
X85234089Y-98905231D01*
X85234086Y-98905229D01*
X85234085Y-98905228D01*
X84989233Y-98787315D01*
X84989235Y-98787315D01*
X84729530Y-98707207D01*
X84729524Y-98707205D01*
X84460795Y-98666701D01*
X84460788Y-98666701D01*
X84189012Y-98666701D01*
X84189004Y-98666701D01*
X83920275Y-98707205D01*
X83920269Y-98707207D01*
X83660565Y-98787315D01*
X83415716Y-98905228D01*
X83415707Y-98905233D01*
X83191157Y-99058328D01*
X82991932Y-99243180D01*
X82822480Y-99455668D01*
X82686592Y-99691032D01*
X82587303Y-99944017D01*
X82587297Y-99944036D01*
X82526824Y-100208989D01*
X82526823Y-100208994D01*
X82506515Y-100479996D01*
X82506515Y-100480005D01*
X81825400Y-100480005D01*
X81825400Y-100322684D01*
X81825399Y-100322671D01*
X81785967Y-100010537D01*
X81785965Y-100010524D01*
X81707719Y-99705775D01*
X81707718Y-99705772D01*
X81591898Y-99413243D01*
X81591897Y-99413242D01*
X81591896Y-99413240D01*
X81591894Y-99413235D01*
X81440316Y-99137517D01*
X81440310Y-99137510D01*
X81440308Y-99137505D01*
X81255384Y-98882979D01*
X81255376Y-98882969D01*
X81039992Y-98653609D01*
X81039990Y-98653607D01*
X80797565Y-98453055D01*
X80797561Y-98453052D01*
X80531909Y-98284465D01*
X80531903Y-98284462D01*
X80247221Y-98150500D01*
X80247216Y-98150498D01*
X79947983Y-98053271D01*
X79947980Y-98053270D01*
X79947979Y-98053270D01*
X79793447Y-98023791D01*
X79638911Y-97994312D01*
X79638904Y-97994311D01*
X79403489Y-97979501D01*
X79403483Y-97979501D01*
X71416317Y-97979501D01*
X71416311Y-97979501D01*
X71180895Y-97994311D01*
X71180888Y-97994312D01*
X70871816Y-98053271D01*
X70572583Y-98150498D01*
X70572578Y-98150500D01*
X70287896Y-98284462D01*
X70287890Y-98284465D01*
X70022238Y-98453052D01*
X70022234Y-98453055D01*
X69779809Y-98653607D01*
X69779807Y-98653609D01*
X69564423Y-98882969D01*
X69564415Y-98882979D01*
X69379491Y-99137505D01*
X69379484Y-99137517D01*
X69227902Y-99413242D01*
X69227901Y-99413243D01*
X69112081Y-99705772D01*
X69112080Y-99705775D01*
X69033834Y-100010524D01*
X69033832Y-100010537D01*
X68994400Y-100322671D01*
X68994400Y-100637330D01*
X68050150Y-100637330D01*
X68062531Y-100480001D01*
X68043232Y-100234771D01*
X67985808Y-99995580D01*
X67898120Y-99783885D01*
X67202007Y-100480000D01*
X67202007Y-100480001D01*
X67055006Y-100480001D01*
X67057639Y-100441509D01*
X67026386Y-100291111D01*
X66955715Y-100154722D01*
X66850868Y-100042458D01*
X66719620Y-99962644D01*
X66571705Y-99921201D01*
X66456675Y-99921201D01*
X66342720Y-99936864D01*
X66201827Y-99998062D01*
X66082669Y-100095004D01*
X65994085Y-100220499D01*
X65942644Y-100365241D01*
X65932161Y-100518493D01*
X65749301Y-100518493D01*
X65787793Y-100480001D01*
X65787793Y-100480000D01*
X65091678Y-99783885D01*
X65003991Y-99995580D01*
X64946567Y-100234771D01*
X64927268Y-100480001D01*
X63579671Y-100480001D01*
X63571539Y-99076779D01*
X65798784Y-99076779D01*
X66494900Y-99772894D01*
X66494901Y-99772894D01*
X67191014Y-99076779D01*
X66979320Y-98989092D01*
X66740128Y-98931668D01*
X66740129Y-98931668D01*
X66494900Y-98912369D01*
X66249670Y-98931668D01*
X66010479Y-98989092D01*
X65798784Y-99076779D01*
X63571539Y-99076779D01*
X63550719Y-95484194D01*
X63570015Y-95417044D01*
X63622553Y-95370984D01*
X63674196Y-95359479D01*
X92160000Y-95240000D01*
X92248252Y-89052500D01*
X92268890Y-88985751D01*
X92322341Y-88940753D01*
X92372512Y-88930271D01*
X93607963Y-88933007D01*
G37*
%TD.AperFunction*%
%TD*%
M02*
