%TF.GenerationSoftware,KiCad,Pcbnew,7.0.9*%
%TF.CreationDate,2024-02-26T13:17:10+02:00*%
%TF.ProjectId,kikad_project,6b696b61-645f-4707-926f-6a6563742e6b,rev?*%
%TF.SameCoordinates,Original*%
%TF.FileFunction,Soldermask,Top*%
%TF.FilePolarity,Negative*%
%FSLAX46Y46*%
G04 Gerber Fmt 4.6, Leading zero omitted, Abs format (unit mm)*
G04 Created by KiCad (PCBNEW 7.0.9) date 2024-02-26 13:17:10*
%MOMM*%
%LPD*%
G01*
G04 APERTURE LIST*
G04 Aperture macros list*
%AMRoundRect*
0 Rectangle with rounded corners*
0 $1 Rounding radius*
0 $2 $3 $4 $5 $6 $7 $8 $9 X,Y pos of 4 corners*
0 Add a 4 corners polygon primitive as box body*
4,1,4,$2,$3,$4,$5,$6,$7,$8,$9,$2,$3,0*
0 Add four circle primitives for the rounded corners*
1,1,$1+$1,$2,$3*
1,1,$1+$1,$4,$5*
1,1,$1+$1,$6,$7*
1,1,$1+$1,$8,$9*
0 Add four rect primitives between the rounded corners*
20,1,$1+$1,$2,$3,$4,$5,0*
20,1,$1+$1,$4,$5,$6,$7,0*
20,1,$1+$1,$6,$7,$8,$9,0*
20,1,$1+$1,$8,$9,$2,$3,0*%
G04 Aperture macros list end*
%ADD10C,0.480000*%
%ADD11C,1.625600*%
%ADD12C,1.504000*%
%ADD13R,1.651000X1.651000*%
%ADD14C,1.651000*%
%ADD15R,1.905000X2.000000*%
%ADD16O,1.905000X2.000000*%
%ADD17C,1.600000*%
%ADD18O,1.600000X1.600000*%
%ADD19C,1.701800*%
%ADD20C,1.854000*%
%ADD21RoundRect,0.102000X-0.825000X0.825000X-0.825000X-0.825000X0.825000X-0.825000X0.825000X0.825000X0*%
%ADD22R,1.600000X1.600000*%
%ADD23C,6.400000*%
%ADD24C,2.200000*%
%ADD25O,2.200000X2.200000*%
%ADD26C,3.704000*%
%ADD27RoundRect,0.102000X-0.565000X0.565000X-0.565000X-0.565000X0.565000X-0.565000X0.565000X0.565000X0*%
%ADD28C,1.334000*%
%ADD29O,1.700000X1.700000*%
%ADD30R,1.700000X1.700000*%
%ADD31C,1.700000*%
G04 APERTURE END LIST*
%TO.C,REF\u002A\u002A*%
G36*
X21603851Y-87581818D02*
G01*
X21676279Y-87581656D01*
X21730157Y-87581899D01*
X21771006Y-87582442D01*
X21801080Y-87583636D01*
X21812783Y-87584587D01*
X21822637Y-87585834D01*
X21830927Y-87587419D01*
X21837933Y-87589387D01*
X21843938Y-87591782D01*
X21849224Y-87594647D01*
X21854073Y-87598028D01*
X21858766Y-87601968D01*
X21868816Y-87611700D01*
X21870927Y-87640946D01*
X21872472Y-87670231D01*
X21873546Y-87699540D01*
X21874248Y-87728857D01*
X21875847Y-87804296D01*
X21877187Y-87886309D01*
X21878853Y-87969837D01*
X21883698Y-88235125D01*
X21887161Y-88414494D01*
X21895274Y-88855242D01*
X21938062Y-88823306D01*
X21997800Y-88780828D01*
X22055471Y-88738970D01*
X22098545Y-88716816D01*
X22141559Y-88697263D01*
X22184566Y-88680153D01*
X22227622Y-88665326D01*
X22270782Y-88652627D01*
X22314099Y-88641895D01*
X22357630Y-88632975D01*
X22401429Y-88625707D01*
X22445551Y-88619934D01*
X22490050Y-88615497D01*
X22534982Y-88612240D01*
X22580401Y-88610003D01*
X22672922Y-88607960D01*
X22768050Y-88608106D01*
X22877649Y-88608071D01*
X23025219Y-88608353D01*
X23172788Y-88609069D01*
X23482117Y-88609706D01*
X24066809Y-88611400D01*
X24732911Y-88613122D01*
X26102149Y-88617117D01*
X26128607Y-89887117D01*
X26366732Y-89728367D01*
X26413279Y-89709088D01*
X26459500Y-89692216D01*
X26505475Y-89677594D01*
X26551285Y-89665062D01*
X26597010Y-89654462D01*
X26642730Y-89645634D01*
X26688527Y-89638421D01*
X26734480Y-89632663D01*
X26780669Y-89628202D01*
X26827176Y-89624879D01*
X26921463Y-89621012D01*
X27017985Y-89619792D01*
X27117384Y-89619950D01*
X27219807Y-89620063D01*
X27487699Y-89620717D01*
X27761737Y-89621242D01*
X28298190Y-89622534D01*
X28303673Y-90600979D01*
X28306174Y-91055373D01*
X28307533Y-91274873D01*
X28308232Y-91494378D01*
X28308664Y-91577872D01*
X28309380Y-91661364D01*
X28309026Y-91813548D01*
X28306906Y-91887274D01*
X28303022Y-91959519D01*
X28297026Y-92030354D01*
X28288567Y-92099851D01*
X28277296Y-92168083D01*
X28262863Y-92235121D01*
X28244916Y-92301037D01*
X28223107Y-92365903D01*
X28197086Y-92429790D01*
X28166502Y-92492772D01*
X28131006Y-92554919D01*
X28090247Y-92616303D01*
X28043876Y-92676997D01*
X27991542Y-92737072D01*
X27958843Y-92766260D01*
X27924993Y-92794374D01*
X27890050Y-92821301D01*
X27854070Y-92846929D01*
X27817108Y-92871146D01*
X27779221Y-92893840D01*
X27740464Y-92914899D01*
X27700895Y-92934212D01*
X27660568Y-92951665D01*
X27619540Y-92967148D01*
X27577868Y-92980548D01*
X27535607Y-92991752D01*
X27492813Y-93000650D01*
X27449542Y-93007129D01*
X27405851Y-93011077D01*
X27361795Y-93012382D01*
X27291868Y-93012492D01*
X27215802Y-93012204D01*
X27135208Y-93012215D01*
X26871507Y-93011784D01*
X26688662Y-93011671D01*
X26207412Y-93011017D01*
X25716333Y-93010492D01*
X24752774Y-93009200D01*
X24726315Y-91871492D01*
X24435274Y-91818575D01*
X24399791Y-91804083D01*
X24365244Y-91788663D01*
X24331597Y-91772315D01*
X24298813Y-91755036D01*
X24266853Y-91736826D01*
X24235680Y-91717683D01*
X24205257Y-91697606D01*
X24175547Y-91676593D01*
X24146511Y-91654642D01*
X24118114Y-91631752D01*
X24090316Y-91607922D01*
X24063082Y-91583151D01*
X24036373Y-91557436D01*
X24010151Y-91530776D01*
X23984381Y-91503170D01*
X23959024Y-91474617D01*
X23917683Y-91529187D01*
X23875606Y-91578375D01*
X23833184Y-91624828D01*
X23790255Y-91668575D01*
X23746658Y-91709642D01*
X23702229Y-91748060D01*
X23656807Y-91783855D01*
X23610231Y-91817056D01*
X23562338Y-91847691D01*
X23512966Y-91875788D01*
X23461954Y-91901376D01*
X23409139Y-91924483D01*
X23354360Y-91945137D01*
X23297454Y-91963365D01*
X23238259Y-91979197D01*
X23176614Y-91992660D01*
X23112357Y-92003783D01*
X23078826Y-92005935D01*
X23045334Y-92007563D01*
X23011866Y-92008729D01*
X22978404Y-92009495D01*
X22911436Y-92010074D01*
X22844299Y-92009791D01*
X22767545Y-92009814D01*
X22519318Y-92008951D01*
X22346051Y-92008724D01*
X21892212Y-92007417D01*
X21346501Y-92006229D01*
X20519440Y-92003783D01*
X20492982Y-90733783D01*
X20228399Y-90892533D01*
X20189592Y-90908648D01*
X20151049Y-90922705D01*
X20112705Y-90934842D01*
X20074493Y-90945194D01*
X20036349Y-90953897D01*
X19998206Y-90961087D01*
X19959999Y-90966900D01*
X19921661Y-90971471D01*
X19883128Y-90974937D01*
X19844333Y-90977433D01*
X19765695Y-90980061D01*
X19685223Y-90980441D01*
X19602391Y-90979660D01*
X19491296Y-90979320D01*
X19346258Y-90978557D01*
X19201223Y-90977359D01*
X18904294Y-90975784D01*
X18323399Y-90971908D01*
X18317916Y-89993463D01*
X18315415Y-89539070D01*
X18314056Y-89319568D01*
X18313358Y-89100064D01*
X18312926Y-89016570D01*
X18312209Y-88933078D01*
X18310621Y-88747874D01*
X18310700Y-88710662D01*
X18637884Y-88710662D01*
X18638315Y-88925832D01*
X18638429Y-89074979D01*
X18639082Y-89467625D01*
X18639607Y-89868255D01*
X18640899Y-90654409D01*
X18921881Y-90658711D01*
X19202880Y-90661676D01*
X19298342Y-90662849D01*
X19393799Y-90664389D01*
X19531525Y-90666246D01*
X19669260Y-90667328D01*
X19754564Y-90669397D01*
X19794933Y-90668812D01*
X19834344Y-90666980D01*
X19872845Y-90663830D01*
X19910481Y-90659290D01*
X19947300Y-90653291D01*
X19983348Y-90645760D01*
X20018671Y-90636628D01*
X20053316Y-90625822D01*
X20087328Y-90613272D01*
X20120756Y-90598908D01*
X20153644Y-90582657D01*
X20186040Y-90564450D01*
X20217991Y-90544215D01*
X20249541Y-90521881D01*
X20280739Y-90497377D01*
X20311630Y-90470633D01*
X20339431Y-90440582D01*
X20364973Y-90410675D01*
X20388315Y-90380792D01*
X20409519Y-90350813D01*
X20428646Y-90320619D01*
X20445757Y-90290089D01*
X20460914Y-90259105D01*
X20474176Y-90227546D01*
X20485607Y-90195293D01*
X20495265Y-90162226D01*
X20503214Y-90128226D01*
X20509513Y-90093172D01*
X20514224Y-90056946D01*
X20517409Y-90019427D01*
X20519127Y-89980496D01*
X20519440Y-89940033D01*
X20420700Y-89938864D01*
X20239783Y-89936228D01*
X20058874Y-89933090D01*
X19980496Y-89931873D01*
X19902114Y-89930867D01*
X19789611Y-89929216D01*
X19677115Y-89927114D01*
X19606038Y-89926602D01*
X19540237Y-89925015D01*
X19482195Y-89924125D01*
X19473813Y-89922248D01*
X19466398Y-89920488D01*
X19459803Y-89918711D01*
X19456767Y-89917775D01*
X19453881Y-89916786D01*
X19451126Y-89915727D01*
X19448484Y-89914581D01*
X19445937Y-89913333D01*
X19443466Y-89911965D01*
X19441053Y-89910462D01*
X19438680Y-89908806D01*
X19436327Y-89906982D01*
X19433978Y-89904972D01*
X19431612Y-89902761D01*
X19429212Y-89900332D01*
X19426760Y-89897668D01*
X19424237Y-89894753D01*
X19418905Y-89888104D01*
X19413068Y-89880254D01*
X19406579Y-89871070D01*
X19399292Y-89860421D01*
X19381732Y-89834200D01*
X19386528Y-89794471D01*
X19390604Y-89764144D01*
X19392565Y-89751925D01*
X19394579Y-89741359D01*
X19396722Y-89732213D01*
X19399073Y-89724255D01*
X19401709Y-89717253D01*
X19404707Y-89710973D01*
X19408146Y-89705183D01*
X19412101Y-89699652D01*
X19416652Y-89694145D01*
X19421875Y-89688431D01*
X19434649Y-89675450D01*
X19494654Y-89672564D01*
X19554565Y-89670237D01*
X19614489Y-89668424D01*
X19674531Y-89667079D01*
X19747381Y-89665412D01*
X19978698Y-89660567D01*
X20135123Y-89657105D01*
X20519440Y-89648992D01*
X20519440Y-88934617D01*
X20296508Y-88929759D01*
X20082936Y-88924766D01*
X19934418Y-88921459D01*
X19721040Y-88916530D01*
X19653884Y-88915190D01*
X19621528Y-88914254D01*
X19590209Y-88912944D01*
X19559643Y-88910984D01*
X19529546Y-88908095D01*
X19514585Y-88906216D01*
X19499636Y-88904000D01*
X19484662Y-88901413D01*
X19469629Y-88898421D01*
X19454500Y-88894988D01*
X19439241Y-88891080D01*
X19423817Y-88886663D01*
X19408191Y-88881700D01*
X19402170Y-88856973D01*
X19397545Y-88837362D01*
X19394005Y-88821006D01*
X19391241Y-88806046D01*
X19388941Y-88790621D01*
X19386797Y-88772870D01*
X19381732Y-88722950D01*
X19414784Y-88692416D01*
X19449406Y-88665191D01*
X19485522Y-88641121D01*
X19523054Y-88620049D01*
X19561926Y-88601821D01*
X19602061Y-88586281D01*
X19643382Y-88573274D01*
X19685812Y-88562645D01*
X19729274Y-88554239D01*
X19773691Y-88547899D01*
X19865085Y-88540801D01*
X19959377Y-88540108D01*
X20055952Y-88544577D01*
X20154195Y-88552967D01*
X20253492Y-88564035D01*
X20452784Y-88589237D01*
X20551550Y-88600886D01*
X20648907Y-88610244D01*
X20744243Y-88616068D01*
X20836941Y-88617117D01*
X20836941Y-91686283D01*
X21969688Y-91692898D01*
X22325822Y-91695818D01*
X22538659Y-91696385D01*
X22609120Y-91696778D01*
X22679578Y-91697457D01*
X22834473Y-91699325D01*
X22898684Y-91699235D01*
X22955765Y-91698046D01*
X23006987Y-91695446D01*
X23053621Y-91691124D01*
X23096939Y-91684767D01*
X23138211Y-91676063D01*
X23178708Y-91664702D01*
X23219702Y-91650370D01*
X23262463Y-91632756D01*
X23308263Y-91611548D01*
X23358372Y-91586434D01*
X23414061Y-91557103D01*
X23547266Y-91484539D01*
X23571937Y-91458670D01*
X23595046Y-91431485D01*
X23616604Y-91403083D01*
X23636617Y-91373560D01*
X23655095Y-91343013D01*
X23672046Y-91311541D01*
X23687477Y-91279239D01*
X23701397Y-91246207D01*
X23713815Y-91212540D01*
X23724739Y-91178337D01*
X23734178Y-91143694D01*
X23742138Y-91108709D01*
X23748630Y-91073480D01*
X23753660Y-91038103D01*
X23757238Y-91002676D01*
X23759372Y-90967297D01*
X23759252Y-90931395D01*
X23758931Y-90895494D01*
X23758411Y-90859595D01*
X23757692Y-90823701D01*
X23757369Y-90755158D01*
X23755980Y-90630366D01*
X23753972Y-90505580D01*
X23747357Y-89940033D01*
X22609649Y-89913575D01*
X22609649Y-89675450D01*
X24064857Y-89648992D01*
X24052939Y-90530734D01*
X24051938Y-90698023D01*
X24049887Y-90783942D01*
X24050404Y-90823827D01*
X24052061Y-90862919D01*
X24054944Y-90901242D01*
X24059142Y-90938819D01*
X24064743Y-90975672D01*
X24071835Y-91011824D01*
X24080506Y-91047300D01*
X24090843Y-91082122D01*
X24102934Y-91116314D01*
X24116868Y-91149898D01*
X24132732Y-91182898D01*
X24150615Y-91215337D01*
X24170603Y-91247237D01*
X24192786Y-91278624D01*
X24217251Y-91309518D01*
X24244085Y-91339944D01*
X24267572Y-91360844D01*
X24290965Y-91380345D01*
X24314291Y-91398495D01*
X24337572Y-91415341D01*
X24360833Y-91430933D01*
X24384098Y-91445318D01*
X24407392Y-91458545D01*
X24430740Y-91470662D01*
X24454165Y-91481717D01*
X24477691Y-91491759D01*
X24525147Y-91508996D01*
X24573302Y-91522758D01*
X24622350Y-91533433D01*
X24672487Y-91541405D01*
X24723907Y-91547061D01*
X24776805Y-91550788D01*
X24831375Y-91552971D01*
X24946312Y-91554251D01*
X25070274Y-91553992D01*
X25070274Y-92691700D01*
X25905106Y-92696868D01*
X26416180Y-92699684D01*
X26622300Y-92701043D01*
X26828423Y-92701741D01*
X26906887Y-92702174D01*
X26985349Y-92702890D01*
X27095623Y-92703611D01*
X27205899Y-92703715D01*
X27270779Y-92704868D01*
X27304431Y-92703992D01*
X27337376Y-92701855D01*
X27369659Y-92698464D01*
X27401326Y-92693825D01*
X27432421Y-92687946D01*
X27462990Y-92680834D01*
X27493079Y-92672495D01*
X27522731Y-92662936D01*
X27551994Y-92652165D01*
X27580911Y-92640188D01*
X27609528Y-92627011D01*
X27637890Y-92612643D01*
X27666043Y-92597090D01*
X27694032Y-92580359D01*
X27721901Y-92562456D01*
X27749697Y-92543389D01*
X27790521Y-92501531D01*
X27832379Y-92460706D01*
X27855908Y-92425972D01*
X27877192Y-92391484D01*
X27896324Y-92357142D01*
X27913396Y-92322848D01*
X27928499Y-92288502D01*
X27941726Y-92254004D01*
X27953168Y-92219255D01*
X27962918Y-92184156D01*
X27971067Y-92148608D01*
X27977708Y-92112510D01*
X27982933Y-92075764D01*
X27986832Y-92038270D01*
X27989499Y-91999929D01*
X27991026Y-91960642D01*
X27991504Y-91920309D01*
X27991025Y-91878830D01*
X27990572Y-91799768D01*
X27989225Y-91676050D01*
X27987305Y-91552338D01*
X27985858Y-91383511D01*
X27983658Y-91177705D01*
X27980690Y-90971908D01*
X27884798Y-90970739D01*
X27708836Y-90968102D01*
X27532882Y-90964965D01*
X27456699Y-90963748D01*
X27380513Y-90962743D01*
X27271063Y-90961089D01*
X27161618Y-90958989D01*
X27092710Y-90958477D01*
X27028520Y-90956890D01*
X26972080Y-90956000D01*
X26960316Y-90953293D01*
X26949426Y-90950342D01*
X26939327Y-90947116D01*
X26929938Y-90943582D01*
X26921178Y-90939712D01*
X26912965Y-90935474D01*
X26905217Y-90930837D01*
X26897853Y-90925770D01*
X26890792Y-90920243D01*
X26883951Y-90914224D01*
X26877250Y-90907684D01*
X26870607Y-90900591D01*
X26863940Y-90892914D01*
X26857168Y-90884623D01*
X26850209Y-90875687D01*
X26842982Y-90866075D01*
X26844662Y-90838635D01*
X26846186Y-90817086D01*
X26847865Y-90799568D01*
X26848860Y-90791739D01*
X26850010Y-90784220D01*
X26851353Y-90776778D01*
X26852930Y-90769182D01*
X26856934Y-90752594D01*
X26862335Y-90732595D01*
X26869440Y-90707325D01*
X26886350Y-90699585D01*
X26903524Y-90693067D01*
X26920939Y-90687667D01*
X26938572Y-90683284D01*
X26956402Y-90679814D01*
X26974405Y-90677154D01*
X26992559Y-90675201D01*
X27010842Y-90673854D01*
X27029232Y-90673008D01*
X27047704Y-90672561D01*
X27084810Y-90672452D01*
X27121981Y-90672704D01*
X27159035Y-90672495D01*
X27229992Y-90670829D01*
X27454831Y-90665984D01*
X27607070Y-90662522D01*
X27980690Y-90654409D01*
X27980690Y-89940033D01*
X27717384Y-89936687D01*
X27454075Y-89934220D01*
X27364660Y-89933282D01*
X27275249Y-89932049D01*
X27146090Y-89930562D01*
X27016925Y-89929698D01*
X26937296Y-89928043D01*
X26896766Y-89928560D01*
X26856334Y-89930180D01*
X26816051Y-89932969D01*
X26775971Y-89936992D01*
X26736149Y-89942314D01*
X26696637Y-89949002D01*
X26657489Y-89957121D01*
X26618759Y-89966737D01*
X26580499Y-89977914D01*
X26542763Y-89990719D01*
X26505605Y-90005217D01*
X26469078Y-90021474D01*
X26433236Y-90039554D01*
X26398132Y-90059525D01*
X26363819Y-90081451D01*
X26330352Y-90105398D01*
X26305707Y-90131757D01*
X26281992Y-90158331D01*
X26259300Y-90185186D01*
X26237721Y-90212388D01*
X26217349Y-90240004D01*
X26198274Y-90268099D01*
X26180590Y-90296739D01*
X26164387Y-90325991D01*
X26149758Y-90355920D01*
X26136794Y-90386592D01*
X26125589Y-90418074D01*
X26116233Y-90450432D01*
X26108818Y-90483730D01*
X26103438Y-90518037D01*
X26100183Y-90553416D01*
X26099381Y-90571530D01*
X26099145Y-90589936D01*
X26099151Y-90663757D01*
X26099565Y-90743189D01*
X26099678Y-90824710D01*
X26100495Y-91082703D01*
X26100856Y-91257524D01*
X26102149Y-91686283D01*
X26198040Y-91687453D01*
X26374003Y-91690090D01*
X26549957Y-91693227D01*
X26626140Y-91694444D01*
X26702325Y-91695450D01*
X26811776Y-91697103D01*
X26921220Y-91699203D01*
X26990129Y-91699715D01*
X27054319Y-91701302D01*
X27110759Y-91702192D01*
X27122462Y-91704893D01*
X27133305Y-91707855D01*
X27143368Y-91711105D01*
X27152731Y-91714670D01*
X27161476Y-91718578D01*
X27169682Y-91722858D01*
X27177431Y-91727535D01*
X27184802Y-91732639D01*
X27191877Y-91738197D01*
X27198735Y-91744235D01*
X27205458Y-91750783D01*
X27212126Y-91757866D01*
X27218819Y-91765514D01*
X27225618Y-91773753D01*
X27232604Y-91782612D01*
X27239857Y-91792117D01*
X27236098Y-91830809D01*
X27232764Y-91860395D01*
X27231062Y-91872355D01*
X27229233Y-91882735D01*
X27227201Y-91891770D01*
X27224887Y-91899691D01*
X27222214Y-91906730D01*
X27219105Y-91913121D01*
X27215481Y-91919096D01*
X27211266Y-91924887D01*
X27206382Y-91930727D01*
X27200752Y-91936849D01*
X27186940Y-91950867D01*
X25784649Y-91977325D01*
X25784649Y-88934617D01*
X25070274Y-88934617D01*
X25068685Y-89113508D01*
X25062666Y-89697717D01*
X25059111Y-90052029D01*
X25055508Y-90393762D01*
X25054310Y-90524341D01*
X25053432Y-90615570D01*
X25052252Y-90706795D01*
X25051183Y-90811840D01*
X25048648Y-90838578D01*
X25047418Y-90849600D01*
X25046097Y-90859318D01*
X25044595Y-90867927D01*
X25042823Y-90875623D01*
X25040695Y-90882603D01*
X25038122Y-90889061D01*
X25035014Y-90895194D01*
X25031285Y-90901197D01*
X25026845Y-90907266D01*
X25021606Y-90913597D01*
X25015481Y-90920385D01*
X25008380Y-90927826D01*
X24990899Y-90945450D01*
X24934054Y-90939456D01*
X24913694Y-90937078D01*
X24895814Y-90934701D01*
X24878244Y-90932014D01*
X24858814Y-90928707D01*
X24805690Y-90918992D01*
X24800279Y-90901906D01*
X24795542Y-90885193D01*
X24791433Y-90868790D01*
X24787905Y-90852637D01*
X24784911Y-90836671D01*
X24782403Y-90820830D01*
X24780336Y-90805053D01*
X24778662Y-90789278D01*
X24776306Y-90757486D01*
X24774961Y-90724961D01*
X24773800Y-90655733D01*
X24773006Y-90599393D01*
X24770861Y-90415147D01*
X24769194Y-90287355D01*
X24765150Y-89951081D01*
X24760887Y-89607909D01*
X24752774Y-88934617D01*
X23844032Y-88929133D01*
X23422022Y-88926633D01*
X23218218Y-88925274D01*
X23014411Y-88924576D01*
X22936833Y-88924143D01*
X22859257Y-88923427D01*
X22750219Y-88922706D01*
X22641178Y-88922602D01*
X22577048Y-88921449D01*
X22538353Y-88922596D01*
X22500008Y-88925473D01*
X22462064Y-88930079D01*
X22424569Y-88936411D01*
X22387573Y-88944467D01*
X22351124Y-88954246D01*
X22315272Y-88965744D01*
X22280065Y-88978961D01*
X22245554Y-88993893D01*
X22211787Y-89010539D01*
X22178813Y-89028896D01*
X22146682Y-89048963D01*
X22115442Y-89070738D01*
X22085144Y-89094217D01*
X22055835Y-89119400D01*
X22027565Y-89146284D01*
X21998769Y-89185860D01*
X21972872Y-89225505D01*
X21949736Y-89265290D01*
X21929222Y-89305287D01*
X21911192Y-89345566D01*
X21895507Y-89386198D01*
X21882029Y-89427255D01*
X21870620Y-89468807D01*
X21861140Y-89510925D01*
X21853452Y-89553682D01*
X21847417Y-89597146D01*
X21842897Y-89641391D01*
X21839752Y-89686486D01*
X21837845Y-89732503D01*
X21837037Y-89779512D01*
X21837190Y-89827586D01*
X21837416Y-89899642D01*
X21839050Y-90125242D01*
X21839773Y-90279134D01*
X21842357Y-90654409D01*
X21938249Y-90655998D01*
X22290166Y-90662806D01*
X22442534Y-90665571D01*
X22551984Y-90667594D01*
X22661428Y-90669911D01*
X22730338Y-90670838D01*
X22794528Y-90672431D01*
X22850967Y-90673499D01*
X22867534Y-90676034D01*
X22874543Y-90677264D01*
X22880953Y-90678585D01*
X22886955Y-90680088D01*
X22892737Y-90681859D01*
X22898488Y-90683987D01*
X22904397Y-90686560D01*
X22910654Y-90689668D01*
X22917447Y-90693397D01*
X22924966Y-90697837D01*
X22933400Y-90703076D01*
X22942938Y-90709202D01*
X22953768Y-90716302D01*
X22980066Y-90733783D01*
X22987714Y-90750268D01*
X22990821Y-90757154D01*
X22993501Y-90763342D01*
X22995795Y-90768988D01*
X22997739Y-90774246D01*
X22999373Y-90779272D01*
X23000736Y-90784220D01*
X23001867Y-90789245D01*
X23002803Y-90794503D01*
X23003585Y-90800149D01*
X23004250Y-90806337D01*
X23004838Y-90813223D01*
X23005387Y-90820962D01*
X23006524Y-90839617D01*
X22927149Y-90945450D01*
X21551315Y-90971908D01*
X21551315Y-87902742D01*
X20400378Y-87897781D01*
X20037868Y-87895591D01*
X19822141Y-87895166D01*
X19750453Y-87894870D01*
X19678765Y-87894362D01*
X19569756Y-87893816D01*
X19460746Y-87893731D01*
X19396954Y-87892865D01*
X19353621Y-87894085D01*
X19311177Y-87897254D01*
X19269603Y-87902364D01*
X19228881Y-87909404D01*
X19188991Y-87918364D01*
X19149913Y-87929235D01*
X19111630Y-87942007D01*
X19074121Y-87956669D01*
X19037368Y-87973213D01*
X19001352Y-87991628D01*
X18966052Y-88011905D01*
X18931452Y-88034033D01*
X18897530Y-88058003D01*
X18864268Y-88083806D01*
X18831648Y-88111430D01*
X18799649Y-88140867D01*
X18777065Y-88171389D01*
X18756496Y-88201324D01*
X18737866Y-88230827D01*
X18721102Y-88260052D01*
X18706126Y-88289151D01*
X18692864Y-88318279D01*
X18681240Y-88347589D01*
X18671179Y-88377234D01*
X18662605Y-88407370D01*
X18655443Y-88438149D01*
X18649617Y-88469725D01*
X18645052Y-88502251D01*
X18641673Y-88535882D01*
X18639404Y-88570771D01*
X18638170Y-88607072D01*
X18637895Y-88644938D01*
X18637884Y-88710662D01*
X18310700Y-88710662D01*
X18310923Y-88605859D01*
X18312211Y-88548147D01*
X18314486Y-88497751D01*
X18317920Y-88453510D01*
X18322684Y-88414264D01*
X18328948Y-88378853D01*
X18336885Y-88346117D01*
X18346667Y-88314893D01*
X18358463Y-88284024D01*
X18372447Y-88252346D01*
X18388788Y-88218702D01*
X18429232Y-88140867D01*
X18470780Y-88061079D01*
X18503505Y-88016006D01*
X18537491Y-87973064D01*
X18572765Y-87932253D01*
X18609353Y-87893578D01*
X18647281Y-87857040D01*
X18686574Y-87822641D01*
X18727258Y-87790383D01*
X18769359Y-87760270D01*
X18812904Y-87732303D01*
X18857917Y-87706484D01*
X18904425Y-87682817D01*
X18952453Y-87661302D01*
X19002028Y-87641944D01*
X19053175Y-87624743D01*
X19105921Y-87609703D01*
X19160290Y-87596825D01*
X19203467Y-87591865D01*
X19246496Y-87588118D01*
X19289440Y-87585419D01*
X19332361Y-87583601D01*
X19375322Y-87582498D01*
X19418384Y-87581944D01*
X19505065Y-87581818D01*
X19581643Y-87581678D01*
X19831214Y-87581728D01*
X20004745Y-87581651D01*
X20367777Y-87581793D01*
X20834186Y-87581698D01*
X21192142Y-87581701D01*
X21364214Y-87581636D01*
X21603851Y-87581818D01*
G37*
D10*
X47430206Y-46450000D02*
X49390058Y-49469765D01*
X48403960Y-65130787D02*
X50039227Y-61923623D01*
X64095119Y-54947098D02*
X60500000Y-55134497D01*
X60500000Y-55134497D02*
G75*
G03*
X47430206Y-46450000I-9876187J-686249D01*
G01*
X49390058Y-49469765D02*
G75*
G03*
X48403960Y-65130786I5532403J-8209904D01*
G01*
X50039228Y-61923622D02*
G75*
G03*
X64095118Y-54947098I4343784J8896152D01*
G01*
X53909762Y-55509295D02*
G75*
G03*
X53909762Y-55509295I-600000J0D01*
G01*
X60509762Y-55509295D02*
G75*
G03*
X60509762Y-55509295I-7200000J0D01*
G01*
%TD*%
D11*
%TO.C,J9*%
X28034900Y-100480001D03*
X33034900Y-100480001D03*
%TD*%
%TO.C,J7*%
X90420001Y-42135101D03*
X90420001Y-37135101D03*
%TD*%
D12*
%TO.C,IC3*%
X75090000Y-61000000D03*
X75090000Y-63540000D03*
X75090000Y-66080000D03*
X75090000Y-68620000D03*
X82710000Y-68620000D03*
X82710000Y-66080000D03*
X82710000Y-63540000D03*
X82710000Y-61000000D03*
%TD*%
D13*
%TO.C,D1*%
X75260000Y-88160600D03*
D14*
X75260000Y-77162400D03*
%TD*%
D11*
%TO.C,J16*%
X90420001Y-60575101D03*
X90420001Y-55575101D03*
%TD*%
%TO.C,J11*%
X9600000Y-47060000D03*
X9600000Y-52060000D03*
X9600000Y-57060000D03*
X9600000Y-62060001D03*
%TD*%
D15*
%TO.C,U4*%
X55340000Y-87630000D03*
D16*
X57880000Y-87630000D03*
X60420000Y-87630000D03*
%TD*%
D17*
%TO.C,C6*%
X60420000Y-81220000D03*
D18*
X60420000Y-73720000D03*
%TD*%
D19*
%TO.C,J17*%
X89420000Y-66890000D03*
X94420000Y-66890000D03*
%TD*%
D20*
%TO.C,D3*%
X90500000Y-87320000D03*
D21*
X90500000Y-74320000D03*
%TD*%
D17*
%TO.C,C9*%
X24070000Y-5080000D03*
D18*
X16570000Y-5080000D03*
%TD*%
D22*
%TO.C,C12*%
X30480000Y-55880000D03*
D17*
X30480000Y-53880000D03*
%TD*%
D12*
%TO.C,IC1*%
X75090000Y-35600000D03*
X75090000Y-38140000D03*
X75090000Y-40680000D03*
X75090000Y-43220000D03*
X82710000Y-43220000D03*
X82710000Y-40680000D03*
X82710000Y-38140000D03*
X82710000Y-35600000D03*
%TD*%
D17*
%TO.C,C4*%
X65500000Y-88840000D03*
D18*
X65500000Y-81340000D03*
%TD*%
D11*
%TO.C,J10*%
X9600000Y-69870000D03*
X9600000Y-74870000D03*
X9600000Y-79870000D03*
X9600000Y-84870001D03*
%TD*%
%TO.C,J6*%
X15214900Y-100480001D03*
X20214900Y-100480001D03*
%TD*%
%TO.C,J2*%
X95790000Y-9510000D03*
X90790000Y-9510000D03*
X85790000Y-9510000D03*
X80789999Y-9510000D03*
%TD*%
%TO.C,J14*%
X9600000Y-28640000D03*
X9600000Y-33640000D03*
%TD*%
D23*
%TO.C,H2*%
X7620000Y-6350000D03*
%TD*%
D17*
%TO.C,C2*%
X45720000Y-76200000D03*
D18*
X45720000Y-68700000D03*
%TD*%
D24*
%TO.C,L1*%
X43180000Y-87630000D03*
D25*
X38100000Y-87630000D03*
%TD*%
D15*
%TO.C,U3*%
X38100000Y-81280000D03*
D16*
X40640000Y-81280000D03*
X43180000Y-81280000D03*
%TD*%
D17*
%TO.C,R3*%
X27940000Y-50070000D03*
D18*
X17780000Y-50070000D03*
%TD*%
D11*
%TO.C,J1*%
X79324900Y-100480001D03*
X84324900Y-100480001D03*
%TD*%
D17*
%TO.C,C3*%
X33020000Y-91440000D03*
D18*
X33020000Y-83940000D03*
%TD*%
D19*
%TO.C,J8*%
X89420000Y-48450000D03*
X94420000Y-48450000D03*
%TD*%
D11*
%TO.C,J3*%
X53684900Y-100480001D03*
X58684900Y-100480001D03*
%TD*%
D22*
%TO.C,C1*%
X40100000Y-73660000D03*
D17*
X38100000Y-73660000D03*
%TD*%
D23*
%TO.C,H1*%
X7000000Y-101600000D03*
%TD*%
D11*
%TO.C,J15*%
X66494900Y-100480001D03*
X71494900Y-100480001D03*
%TD*%
D22*
%TO.C,C11*%
X30480000Y-45720000D03*
D17*
X30480000Y-43720000D03*
%TD*%
%TO.C,R1*%
X85420000Y-83360000D03*
D18*
X85420000Y-73200000D03*
%TD*%
D15*
%TO.C,Q1*%
X80340000Y-88440000D03*
D16*
X82880000Y-88440000D03*
X85420000Y-88440000D03*
%TD*%
D11*
%TO.C,J4*%
X90420001Y-23705101D03*
X90420001Y-18705101D03*
%TD*%
D22*
%TO.C,C5*%
X55880000Y-80010000D03*
D17*
X53880000Y-80010000D03*
%TD*%
D22*
%TO.C,C8*%
X21050000Y-12700000D03*
D17*
X19050000Y-12700000D03*
%TD*%
D23*
%TO.C,H3*%
X92710000Y-101600000D03*
%TD*%
D17*
%TO.C,C7*%
X80340000Y-83360000D03*
D18*
X80340000Y-75860000D03*
%TD*%
D19*
%TO.C,J12*%
X10600001Y-40749999D03*
X5600001Y-40749999D03*
%TD*%
D26*
%TO.C,X1*%
X96150000Y-93470000D03*
X96150000Y-88390000D03*
X96150000Y-84330000D03*
X96150000Y-79250000D03*
%TD*%
D27*
%TO.C,U12*%
X66294000Y-6860000D03*
D28*
X63754000Y-6860000D03*
X61214000Y-6860000D03*
X58674000Y-6860000D03*
X56134000Y-6860000D03*
X53594000Y-6860000D03*
X51054000Y-6860000D03*
X48514000Y-6860000D03*
X48514000Y-14800000D03*
X51054000Y-14800000D03*
X53594000Y-14800000D03*
X56134000Y-14800000D03*
X58674000Y-14800000D03*
X61214000Y-14800000D03*
X63754000Y-14800000D03*
X66294000Y-14800000D03*
%TD*%
D19*
%TO.C,J5*%
X89420000Y-30010000D03*
X94420000Y-30010000D03*
%TD*%
D11*
%TO.C,J13*%
X9600000Y-15820000D03*
X9600000Y-20820000D03*
%TD*%
D29*
%TO.C,U2*%
X67564000Y-20828000D03*
X65024000Y-20828000D03*
X62484000Y-20828000D03*
X59944000Y-20828000D03*
X67564000Y-35403000D03*
X24384000Y-20828000D03*
X26924000Y-20828000D03*
X62484000Y-35403000D03*
X65024000Y-35403000D03*
X57404000Y-20828000D03*
X54864000Y-20828000D03*
X52324000Y-20828000D03*
X49784000Y-20828000D03*
X47244000Y-20828000D03*
X44704000Y-20828000D03*
X42164000Y-20828000D03*
X39624000Y-20828000D03*
X37084000Y-20828000D03*
X34544000Y-20828000D03*
X21844000Y-20828000D03*
X32004000Y-20828000D03*
X29464000Y-20828000D03*
D30*
X19304000Y-20828000D03*
X19304000Y-35403000D03*
D29*
X21844000Y-35403000D03*
X24384000Y-35403000D03*
X26924000Y-35403000D03*
X29464000Y-35403000D03*
X32004000Y-35403000D03*
X34544000Y-35403000D03*
X37084000Y-35403000D03*
X39624000Y-35403000D03*
X42164000Y-35403000D03*
X44704000Y-35403000D03*
X47244000Y-35403000D03*
X49784000Y-35403000D03*
X52324000Y-35403000D03*
X54864000Y-35403000D03*
X57404000Y-35403000D03*
X59944000Y-35403000D03*
%TD*%
D12*
%TO.C,IC2*%
X75090000Y-48300000D03*
X75090000Y-50840000D03*
X75090000Y-53380000D03*
X75090000Y-55920000D03*
X82710000Y-55920000D03*
X82710000Y-53380000D03*
X82710000Y-50840000D03*
X82710000Y-48300000D03*
%TD*%
D11*
%TO.C,J18*%
X40854900Y-100480001D03*
X45854900Y-100480001D03*
%TD*%
D17*
%TO.C,R2*%
X27940000Y-70390000D03*
D18*
X17780000Y-70390000D03*
%TD*%
D22*
%TO.C,C10*%
X30480000Y-66040000D03*
D17*
X30480000Y-64040000D03*
%TD*%
D30*
%TO.C,U1*%
X27940000Y-3265000D03*
D31*
X30480000Y-3265000D03*
X27940000Y-5805000D03*
X30480000Y-5805000D03*
X27940000Y-8345000D03*
X30480000Y-8345000D03*
X27940000Y-10885000D03*
X30480000Y-10885000D03*
%TD*%
D17*
%TO.C,R4*%
X27940000Y-60230000D03*
D18*
X17780000Y-60230000D03*
%TD*%
M02*
