%TF.GenerationSoftware,KiCad,Pcbnew,7.0.9*%
%TF.CreationDate,2024-02-26T13:17:16+02:00*%
%TF.ProjectId,kikad_project,6b696b61-645f-4707-926f-6a6563742e6b,rev?*%
%TF.SameCoordinates,Original*%
%TF.FileFunction,Drillmap*%
%TF.FilePolarity,Positive*%
%FSLAX45Y45*%
G04 Gerber Fmt 4.5, Leading zero omitted, Abs format (unit mm)*
G04 Created by KiCad (PCBNEW 7.0.9) date 2024-02-26 13:17:16*
%MOMM*%
%LPD*%
G01*
G04 APERTURE LIST*
%ADD10C,0.100000*%
%ADD11C,0.200000*%
%ADD12C,0.110000*%
%ADD13C,0.111760*%
%ADD14C,0.114300*%
%ADD15C,0.119380*%
%ADD16C,0.259000*%
%ADD17C,0.320000*%
G04 APERTURE END LIST*
D10*
X0Y0D02*
X10000000Y0D01*
X10000000Y-11000000D01*
X0Y-11000000D01*
X0Y0D01*
D11*
D10*
X4812400Y-647000D02*
X4890400Y-725000D01*
X4890400Y-647000D02*
X4812400Y-725000D01*
X4812400Y-1441000D02*
X4890400Y-1519000D01*
X4890400Y-1441000D02*
X4812400Y-1519000D01*
X5066400Y-647000D02*
X5144400Y-725000D01*
X5144400Y-647000D02*
X5066400Y-725000D01*
X5066400Y-1441000D02*
X5144400Y-1519000D01*
X5144400Y-1441000D02*
X5066400Y-1519000D01*
X5320400Y-647000D02*
X5398400Y-725000D01*
X5398400Y-647000D02*
X5320400Y-725000D01*
X5320400Y-1441000D02*
X5398400Y-1519000D01*
X5398400Y-1441000D02*
X5320400Y-1519000D01*
X5574400Y-647000D02*
X5652400Y-725000D01*
X5652400Y-647000D02*
X5574400Y-725000D01*
X5574400Y-1441000D02*
X5652400Y-1519000D01*
X5652400Y-1441000D02*
X5574400Y-1519000D01*
X5828400Y-647000D02*
X5906400Y-725000D01*
X5906400Y-647000D02*
X5828400Y-725000D01*
X5828400Y-1441000D02*
X5906400Y-1519000D01*
X5906400Y-1441000D02*
X5828400Y-1519000D01*
X6082400Y-647000D02*
X6160400Y-725000D01*
X6160400Y-647000D02*
X6082400Y-725000D01*
X6082400Y-1441000D02*
X6160400Y-1519000D01*
X6160400Y-1441000D02*
X6082400Y-1519000D01*
X6336400Y-647000D02*
X6414400Y-725000D01*
X6414400Y-647000D02*
X6336400Y-725000D01*
X6336400Y-1441000D02*
X6414400Y-1519000D01*
X6414400Y-1441000D02*
X6336400Y-1519000D01*
X6590400Y-647000D02*
X6668400Y-725000D01*
X6668400Y-647000D02*
X6590400Y-725000D01*
X6590400Y-1441000D02*
X6668400Y-1519000D01*
X6668400Y-1441000D02*
X6590400Y-1519000D01*
X1697000Y-508000D02*
G75*
G03*
X1697000Y-508000I-40000J0D01*
G01*
X1818000Y-5007000D02*
G75*
G03*
X1818000Y-5007000I-40000J0D01*
G01*
X1818000Y-6023000D02*
G75*
G03*
X1818000Y-6023000I-40000J0D01*
G01*
X1818000Y-7039000D02*
G75*
G03*
X1818000Y-7039000I-40000J0D01*
G01*
X1945000Y-1270000D02*
G75*
G03*
X1945000Y-1270000I-40000J0D01*
G01*
X2145000Y-1270000D02*
G75*
G03*
X2145000Y-1270000I-40000J0D01*
G01*
X2447000Y-508000D02*
G75*
G03*
X2447000Y-508000I-40000J0D01*
G01*
X2834000Y-5007000D02*
G75*
G03*
X2834000Y-5007000I-40000J0D01*
G01*
X2834000Y-6023000D02*
G75*
G03*
X2834000Y-6023000I-40000J0D01*
G01*
X2834000Y-7039000D02*
G75*
G03*
X2834000Y-7039000I-40000J0D01*
G01*
X3088000Y-4372000D02*
G75*
G03*
X3088000Y-4372000I-40000J0D01*
G01*
X3088000Y-4572000D02*
G75*
G03*
X3088000Y-4572000I-40000J0D01*
G01*
X3088000Y-5388000D02*
G75*
G03*
X3088000Y-5388000I-40000J0D01*
G01*
X3088000Y-5588000D02*
G75*
G03*
X3088000Y-5588000I-40000J0D01*
G01*
X3088000Y-6404000D02*
G75*
G03*
X3088000Y-6404000I-40000J0D01*
G01*
X3088000Y-6604000D02*
G75*
G03*
X3088000Y-6604000I-40000J0D01*
G01*
X3342000Y-8394000D02*
G75*
G03*
X3342000Y-8394000I-40000J0D01*
G01*
X3342000Y-9144000D02*
G75*
G03*
X3342000Y-9144000I-40000J0D01*
G01*
X3850000Y-7366000D02*
G75*
G03*
X3850000Y-7366000I-40000J0D01*
G01*
X4050000Y-7366000D02*
G75*
G03*
X4050000Y-7366000I-40000J0D01*
G01*
X4612000Y-6870000D02*
G75*
G03*
X4612000Y-6870000I-40000J0D01*
G01*
X4612000Y-7620000D02*
G75*
G03*
X4612000Y-7620000I-40000J0D01*
G01*
X5428000Y-8001000D02*
G75*
G03*
X5428000Y-8001000I-40000J0D01*
G01*
X5628000Y-8001000D02*
G75*
G03*
X5628000Y-8001000I-40000J0D01*
G01*
X6082000Y-7372000D02*
G75*
G03*
X6082000Y-7372000I-40000J0D01*
G01*
X6082000Y-8122000D02*
G75*
G03*
X6082000Y-8122000I-40000J0D01*
G01*
X6590000Y-8134000D02*
G75*
G03*
X6590000Y-8134000I-40000J0D01*
G01*
X6590000Y-8884000D02*
G75*
G03*
X6590000Y-8884000I-40000J0D01*
G01*
X8074000Y-7586000D02*
G75*
G03*
X8074000Y-7586000I-40000J0D01*
G01*
X8074000Y-8336000D02*
G75*
G03*
X8074000Y-8336000I-40000J0D01*
G01*
X8582000Y-7320000D02*
G75*
G03*
X8582000Y-7320000I-40000J0D01*
G01*
X8582000Y-8336000D02*
G75*
G03*
X8582000Y-8336000I-40000J0D01*
G01*
X7509000Y-3519360D02*
X7509000Y-3600640D01*
X7468360Y-3560000D02*
X7549640Y-3560000D01*
X7509000Y-3773360D02*
X7509000Y-3854640D01*
X7468360Y-3814000D02*
X7549640Y-3814000D01*
X7509000Y-4027360D02*
X7509000Y-4108640D01*
X7468360Y-4068000D02*
X7549640Y-4068000D01*
X7509000Y-4281360D02*
X7509000Y-4362640D01*
X7468360Y-4322000D02*
X7549640Y-4322000D01*
X7509000Y-4789360D02*
X7509000Y-4870640D01*
X7468360Y-4830000D02*
X7549640Y-4830000D01*
X7509000Y-5043360D02*
X7509000Y-5124640D01*
X7468360Y-5084000D02*
X7549640Y-5084000D01*
X7509000Y-5297360D02*
X7509000Y-5378640D01*
X7468360Y-5338000D02*
X7549640Y-5338000D01*
X7509000Y-5551360D02*
X7509000Y-5632640D01*
X7468360Y-5592000D02*
X7549640Y-5592000D01*
X7509000Y-6059360D02*
X7509000Y-6140640D01*
X7468360Y-6100000D02*
X7549640Y-6100000D01*
X7509000Y-6313360D02*
X7509000Y-6394640D01*
X7468360Y-6354000D02*
X7549640Y-6354000D01*
X7509000Y-6567360D02*
X7509000Y-6648640D01*
X7468360Y-6608000D02*
X7549640Y-6608000D01*
X7509000Y-6821360D02*
X7509000Y-6902640D01*
X7468360Y-6862000D02*
X7549640Y-6862000D01*
X8271000Y-3519360D02*
X8271000Y-3600640D01*
X8230360Y-3560000D02*
X8311640Y-3560000D01*
X8271000Y-3773360D02*
X8271000Y-3854640D01*
X8230360Y-3814000D02*
X8311640Y-3814000D01*
X8271000Y-4027360D02*
X8271000Y-4108640D01*
X8230360Y-4068000D02*
X8311640Y-4068000D01*
X8271000Y-4281360D02*
X8271000Y-4362640D01*
X8230360Y-4322000D02*
X8311640Y-4322000D01*
X8271000Y-4789360D02*
X8271000Y-4870640D01*
X8230360Y-4830000D02*
X8311640Y-4830000D01*
X8271000Y-5043360D02*
X8271000Y-5124640D01*
X8230360Y-5084000D02*
X8311640Y-5084000D01*
X8271000Y-5297360D02*
X8271000Y-5378640D01*
X8230360Y-5338000D02*
X8311640Y-5338000D01*
X8271000Y-5551360D02*
X8271000Y-5632640D01*
X8230360Y-5592000D02*
X8311640Y-5592000D01*
X8271000Y-6059360D02*
X8271000Y-6140640D01*
X8230360Y-6100000D02*
X8311640Y-6100000D01*
X8271000Y-6313360D02*
X8271000Y-6394640D01*
X8230360Y-6354000D02*
X8311640Y-6354000D01*
X8271000Y-6567360D02*
X8271000Y-6648640D01*
X8230360Y-6608000D02*
X8311640Y-6608000D01*
X8271000Y-6821360D02*
X8271000Y-6902640D01*
X8230360Y-6862000D02*
X8311640Y-6862000D01*
X1965756Y-2118156D02*
X1965756Y-2047444D01*
X1895044Y-2047444D01*
X1895044Y-2118156D01*
X1965756Y-2118156D01*
X1965756Y-3575656D02*
X1965756Y-3504944D01*
X1895044Y-3504944D01*
X1895044Y-3575656D01*
X1965756Y-3575656D01*
X2219756Y-2118156D02*
X2219756Y-2047444D01*
X2149044Y-2047444D01*
X2149044Y-2118156D01*
X2219756Y-2118156D01*
X2219756Y-3575656D02*
X2219756Y-3504944D01*
X2149044Y-3504944D01*
X2149044Y-3575656D01*
X2219756Y-3575656D01*
X2473756Y-2118156D02*
X2473756Y-2047444D01*
X2403044Y-2047444D01*
X2403044Y-2118156D01*
X2473756Y-2118156D01*
X2473756Y-3575656D02*
X2473756Y-3504944D01*
X2403044Y-3504944D01*
X2403044Y-3575656D01*
X2473756Y-3575656D01*
X2727756Y-2118156D02*
X2727756Y-2047444D01*
X2657044Y-2047444D01*
X2657044Y-2118156D01*
X2727756Y-2118156D01*
X2727756Y-3575656D02*
X2727756Y-3504944D01*
X2657044Y-3504944D01*
X2657044Y-3575656D01*
X2727756Y-3575656D01*
X2829356Y-361856D02*
X2829356Y-291144D01*
X2758644Y-291144D01*
X2758644Y-361856D01*
X2829356Y-361856D01*
X2829356Y-615856D02*
X2829356Y-545144D01*
X2758644Y-545144D01*
X2758644Y-615856D01*
X2829356Y-615856D01*
X2829356Y-869856D02*
X2829356Y-799144D01*
X2758644Y-799144D01*
X2758644Y-869856D01*
X2829356Y-869856D01*
X2829356Y-1123856D02*
X2829356Y-1053144D01*
X2758644Y-1053144D01*
X2758644Y-1123856D01*
X2829356Y-1123856D01*
X2981756Y-2118156D02*
X2981756Y-2047444D01*
X2911044Y-2047444D01*
X2911044Y-2118156D01*
X2981756Y-2118156D01*
X2981756Y-3575656D02*
X2981756Y-3504944D01*
X2911044Y-3504944D01*
X2911044Y-3575656D01*
X2981756Y-3575656D01*
X3083356Y-361856D02*
X3083356Y-291144D01*
X3012644Y-291144D01*
X3012644Y-361856D01*
X3083356Y-361856D01*
X3083356Y-615856D02*
X3083356Y-545144D01*
X3012644Y-545144D01*
X3012644Y-615856D01*
X3083356Y-615856D01*
X3083356Y-869856D02*
X3083356Y-799144D01*
X3012644Y-799144D01*
X3012644Y-869856D01*
X3083356Y-869856D01*
X3083356Y-1123856D02*
X3083356Y-1053144D01*
X3012644Y-1053144D01*
X3012644Y-1123856D01*
X3083356Y-1123856D01*
X3235756Y-2118156D02*
X3235756Y-2047444D01*
X3165044Y-2047444D01*
X3165044Y-2118156D01*
X3235756Y-2118156D01*
X3235756Y-3575656D02*
X3235756Y-3504944D01*
X3165044Y-3504944D01*
X3165044Y-3575656D01*
X3235756Y-3575656D01*
X3489756Y-2118156D02*
X3489756Y-2047444D01*
X3419044Y-2047444D01*
X3419044Y-2118156D01*
X3489756Y-2118156D01*
X3489756Y-3575656D02*
X3489756Y-3504944D01*
X3419044Y-3504944D01*
X3419044Y-3575656D01*
X3489756Y-3575656D01*
X3743756Y-2118156D02*
X3743756Y-2047444D01*
X3673044Y-2047444D01*
X3673044Y-2118156D01*
X3743756Y-2118156D01*
X3743756Y-3575656D02*
X3743756Y-3504944D01*
X3673044Y-3504944D01*
X3673044Y-3575656D01*
X3743756Y-3575656D01*
X3997756Y-2118156D02*
X3997756Y-2047444D01*
X3927044Y-2047444D01*
X3927044Y-2118156D01*
X3997756Y-2118156D01*
X3997756Y-3575656D02*
X3997756Y-3504944D01*
X3927044Y-3504944D01*
X3927044Y-3575656D01*
X3997756Y-3575656D01*
X4251756Y-2118156D02*
X4251756Y-2047444D01*
X4181044Y-2047444D01*
X4181044Y-2118156D01*
X4251756Y-2118156D01*
X4251756Y-3575656D02*
X4251756Y-3504944D01*
X4181044Y-3504944D01*
X4181044Y-3575656D01*
X4251756Y-3575656D01*
X4505756Y-2118156D02*
X4505756Y-2047444D01*
X4435044Y-2047444D01*
X4435044Y-2118156D01*
X4505756Y-2118156D01*
X4505756Y-3575656D02*
X4505756Y-3504944D01*
X4435044Y-3504944D01*
X4435044Y-3575656D01*
X4505756Y-3575656D01*
X4759756Y-2118156D02*
X4759756Y-2047444D01*
X4689044Y-2047444D01*
X4689044Y-2118156D01*
X4759756Y-2118156D01*
X4759756Y-3575656D02*
X4759756Y-3504944D01*
X4689044Y-3504944D01*
X4689044Y-3575656D01*
X4759756Y-3575656D01*
X5013756Y-2118156D02*
X5013756Y-2047444D01*
X4943044Y-2047444D01*
X4943044Y-2118156D01*
X5013756Y-2118156D01*
X5013756Y-3575656D02*
X5013756Y-3504944D01*
X4943044Y-3504944D01*
X4943044Y-3575656D01*
X5013756Y-3575656D01*
X5267756Y-2118156D02*
X5267756Y-2047444D01*
X5197044Y-2047444D01*
X5197044Y-2118156D01*
X5267756Y-2118156D01*
X5267756Y-3575656D02*
X5267756Y-3504944D01*
X5197044Y-3504944D01*
X5197044Y-3575656D01*
X5267756Y-3575656D01*
X5521756Y-2118156D02*
X5521756Y-2047444D01*
X5451044Y-2047444D01*
X5451044Y-2118156D01*
X5521756Y-2118156D01*
X5521756Y-3575656D02*
X5521756Y-3504944D01*
X5451044Y-3504944D01*
X5451044Y-3575656D01*
X5521756Y-3575656D01*
X5775756Y-2118156D02*
X5775756Y-2047444D01*
X5705044Y-2047444D01*
X5705044Y-2118156D01*
X5775756Y-2118156D01*
X5775756Y-3575656D02*
X5775756Y-3504944D01*
X5705044Y-3504944D01*
X5705044Y-3575656D01*
X5775756Y-3575656D01*
X6029756Y-2118156D02*
X6029756Y-2047444D01*
X5959044Y-2047444D01*
X5959044Y-2118156D01*
X6029756Y-2118156D01*
X6029756Y-3575656D02*
X6029756Y-3504944D01*
X5959044Y-3504944D01*
X5959044Y-3575656D01*
X6029756Y-3575656D01*
X6283756Y-2118156D02*
X6283756Y-2047444D01*
X6213044Y-2047444D01*
X6213044Y-2118156D01*
X6283756Y-2118156D01*
X6283756Y-3575656D02*
X6283756Y-3504944D01*
X6213044Y-3504944D01*
X6213044Y-3575656D01*
X6283756Y-3575656D01*
X6537756Y-2118156D02*
X6537756Y-2047444D01*
X6467044Y-2047444D01*
X6467044Y-2118156D01*
X6537756Y-2118156D01*
X6537756Y-3575656D02*
X6537756Y-3504944D01*
X6467044Y-3504944D01*
X6467044Y-3575656D01*
X6537756Y-3575656D01*
X6791756Y-2118156D02*
X6791756Y-2047444D01*
X6721044Y-2047444D01*
X6721044Y-2118156D01*
X6791756Y-2118156D01*
X6791756Y-3575656D02*
X6791756Y-3504944D01*
X6721044Y-3504944D01*
X6721044Y-3575656D01*
X6791756Y-3575656D01*
D12*
X3810000Y-8183000D02*
X3865000Y-8128000D01*
X3810000Y-8073000D01*
X3755000Y-8128000D01*
X3810000Y-8183000D01*
X3810000Y-8818000D02*
X3865000Y-8763000D01*
X3810000Y-8708000D01*
X3755000Y-8763000D01*
X3810000Y-8818000D01*
X4064000Y-8183000D02*
X4119000Y-8128000D01*
X4064000Y-8073000D01*
X4009000Y-8128000D01*
X4064000Y-8183000D01*
X4318000Y-8183000D02*
X4373000Y-8128000D01*
X4318000Y-8073000D01*
X4263000Y-8128000D01*
X4318000Y-8183000D01*
X4318000Y-8818000D02*
X4373000Y-8763000D01*
X4318000Y-8708000D01*
X4263000Y-8763000D01*
X4318000Y-8818000D01*
X5534000Y-8818000D02*
X5589000Y-8763000D01*
X5534000Y-8708000D01*
X5479000Y-8763000D01*
X5534000Y-8818000D01*
X5788000Y-8818000D02*
X5843000Y-8763000D01*
X5788000Y-8708000D01*
X5733000Y-8763000D01*
X5788000Y-8818000D01*
X6042000Y-8818000D02*
X6097000Y-8763000D01*
X6042000Y-8708000D01*
X5987000Y-8763000D01*
X6042000Y-8818000D01*
X8034000Y-8899000D02*
X8089000Y-8844000D01*
X8034000Y-8789000D01*
X7979000Y-8844000D01*
X8034000Y-8899000D01*
X8288000Y-8899000D02*
X8343000Y-8844000D01*
X8288000Y-8789000D01*
X8233000Y-8844000D01*
X8288000Y-8899000D01*
X8542000Y-8899000D02*
X8597000Y-8844000D01*
X8542000Y-8789000D01*
X8487000Y-8844000D01*
X8542000Y-8899000D01*
X9050000Y-7487000D02*
X9105000Y-7432000D01*
X9050000Y-7377000D01*
X8995000Y-7432000D01*
X9050000Y-7487000D01*
X9050000Y-8787000D02*
X9105000Y-8732000D01*
X9050000Y-8677000D01*
X8995000Y-8732000D01*
X9050000Y-8787000D01*
D13*
X904120Y-1526120D02*
X1015880Y-1637880D01*
X1015880Y-1526120D02*
X904120Y-1637880D01*
X1015880Y-1582000D02*
G75*
G03*
X1015880Y-1582000I-55880J0D01*
G01*
X904120Y-2026120D02*
X1015880Y-2137880D01*
X1015880Y-2026120D02*
X904120Y-2137880D01*
X1015880Y-2082000D02*
G75*
G03*
X1015880Y-2082000I-55880J0D01*
G01*
X904120Y-2808120D02*
X1015880Y-2919880D01*
X1015880Y-2808120D02*
X904120Y-2919880D01*
X1015880Y-2864000D02*
G75*
G03*
X1015880Y-2864000I-55880J0D01*
G01*
X904120Y-3308120D02*
X1015880Y-3419880D01*
X1015880Y-3308120D02*
X904120Y-3419880D01*
X1015880Y-3364000D02*
G75*
G03*
X1015880Y-3364000I-55880J0D01*
G01*
X904120Y-4650120D02*
X1015880Y-4761880D01*
X1015880Y-4650120D02*
X904120Y-4761880D01*
X1015880Y-4706000D02*
G75*
G03*
X1015880Y-4706000I-55880J0D01*
G01*
X904120Y-5150120D02*
X1015880Y-5261880D01*
X1015880Y-5150120D02*
X904120Y-5261880D01*
X1015880Y-5206000D02*
G75*
G03*
X1015880Y-5206000I-55880J0D01*
G01*
X904120Y-5650120D02*
X1015880Y-5761880D01*
X1015880Y-5650120D02*
X904120Y-5761880D01*
X1015880Y-5706000D02*
G75*
G03*
X1015880Y-5706000I-55880J0D01*
G01*
X904120Y-6150120D02*
X1015880Y-6261880D01*
X1015880Y-6150120D02*
X904120Y-6261880D01*
X1015880Y-6206000D02*
G75*
G03*
X1015880Y-6206000I-55880J0D01*
G01*
X904120Y-6931120D02*
X1015880Y-7042880D01*
X1015880Y-6931120D02*
X904120Y-7042880D01*
X1015880Y-6987000D02*
G75*
G03*
X1015880Y-6987000I-55880J0D01*
G01*
X904120Y-7431120D02*
X1015880Y-7542880D01*
X1015880Y-7431120D02*
X904120Y-7542880D01*
X1015880Y-7487000D02*
G75*
G03*
X1015880Y-7487000I-55880J0D01*
G01*
X904120Y-7931120D02*
X1015880Y-8042880D01*
X1015880Y-7931120D02*
X904120Y-8042880D01*
X1015880Y-7987000D02*
G75*
G03*
X1015880Y-7987000I-55880J0D01*
G01*
X904120Y-8431120D02*
X1015880Y-8542880D01*
X1015880Y-8431120D02*
X904120Y-8542880D01*
X1015880Y-8487000D02*
G75*
G03*
X1015880Y-8487000I-55880J0D01*
G01*
X1465610Y-9992120D02*
X1577370Y-10103880D01*
X1577370Y-9992120D02*
X1465610Y-10103880D01*
X1577370Y-10048000D02*
G75*
G03*
X1577370Y-10048000I-55880J0D01*
G01*
X1965610Y-9992120D02*
X2077370Y-10103880D01*
X2077370Y-9992120D02*
X1965610Y-10103880D01*
X2077370Y-10048000D02*
G75*
G03*
X2077370Y-10048000I-55880J0D01*
G01*
X2747610Y-9992120D02*
X2859370Y-10103880D01*
X2859370Y-9992120D02*
X2747610Y-10103880D01*
X2859370Y-10048000D02*
G75*
G03*
X2859370Y-10048000I-55880J0D01*
G01*
X3247610Y-9992120D02*
X3359370Y-10103880D01*
X3359370Y-9992120D02*
X3247610Y-10103880D01*
X3359370Y-10048000D02*
G75*
G03*
X3359370Y-10048000I-55880J0D01*
G01*
X4029610Y-9992120D02*
X4141370Y-10103880D01*
X4141370Y-9992120D02*
X4029610Y-10103880D01*
X4141370Y-10048000D02*
G75*
G03*
X4141370Y-10048000I-55880J0D01*
G01*
X4529610Y-9992120D02*
X4641370Y-10103880D01*
X4641370Y-9992120D02*
X4529610Y-10103880D01*
X4641370Y-10048000D02*
G75*
G03*
X4641370Y-10048000I-55880J0D01*
G01*
X5312610Y-9992120D02*
X5424370Y-10103880D01*
X5424370Y-9992120D02*
X5312610Y-10103880D01*
X5424370Y-10048000D02*
G75*
G03*
X5424370Y-10048000I-55880J0D01*
G01*
X5812610Y-9992120D02*
X5924370Y-10103880D01*
X5924370Y-9992120D02*
X5812610Y-10103880D01*
X5924370Y-10048000D02*
G75*
G03*
X5924370Y-10048000I-55880J0D01*
G01*
X6593610Y-9992120D02*
X6705370Y-10103880D01*
X6705370Y-9992120D02*
X6593610Y-10103880D01*
X6705370Y-10048000D02*
G75*
G03*
X6705370Y-10048000I-55880J0D01*
G01*
X7093610Y-9992120D02*
X7205370Y-10103880D01*
X7205370Y-9992120D02*
X7093610Y-10103880D01*
X7205370Y-10048000D02*
G75*
G03*
X7205370Y-10048000I-55880J0D01*
G01*
X7876610Y-9992120D02*
X7988370Y-10103880D01*
X7988370Y-9992120D02*
X7876610Y-10103880D01*
X7988370Y-10048000D02*
G75*
G03*
X7988370Y-10048000I-55880J0D01*
G01*
X8023120Y-895120D02*
X8134880Y-1006880D01*
X8134880Y-895120D02*
X8023120Y-1006880D01*
X8134880Y-951000D02*
G75*
G03*
X8134880Y-951000I-55880J0D01*
G01*
X8376610Y-9992120D02*
X8488370Y-10103880D01*
X8488370Y-9992120D02*
X8376610Y-10103880D01*
X8488370Y-10048000D02*
G75*
G03*
X8488370Y-10048000I-55880J0D01*
G01*
X8523120Y-895120D02*
X8634880Y-1006880D01*
X8634880Y-895120D02*
X8523120Y-1006880D01*
X8634880Y-951000D02*
G75*
G03*
X8634880Y-951000I-55880J0D01*
G01*
X8986120Y-1814630D02*
X9097880Y-1926390D01*
X9097880Y-1814630D02*
X8986120Y-1926390D01*
X9097880Y-1870510D02*
G75*
G03*
X9097880Y-1870510I-55880J0D01*
G01*
X8986120Y-2314630D02*
X9097880Y-2426390D01*
X9097880Y-2314630D02*
X8986120Y-2426390D01*
X9097880Y-2370510D02*
G75*
G03*
X9097880Y-2370510I-55880J0D01*
G01*
X8986120Y-3657630D02*
X9097880Y-3769390D01*
X9097880Y-3657630D02*
X8986120Y-3769390D01*
X9097880Y-3713510D02*
G75*
G03*
X9097880Y-3713510I-55880J0D01*
G01*
X8986120Y-4157630D02*
X9097880Y-4269390D01*
X9097880Y-4157630D02*
X8986120Y-4269390D01*
X9097880Y-4213510D02*
G75*
G03*
X9097880Y-4213510I-55880J0D01*
G01*
X8986120Y-5501630D02*
X9097880Y-5613390D01*
X9097880Y-5501630D02*
X8986120Y-5613390D01*
X9097880Y-5557510D02*
G75*
G03*
X9097880Y-5557510I-55880J0D01*
G01*
X8986120Y-6001630D02*
X9097880Y-6113390D01*
X9097880Y-6001630D02*
X8986120Y-6113390D01*
X9097880Y-6057510D02*
G75*
G03*
X9097880Y-6057510I-55880J0D01*
G01*
X9023120Y-895120D02*
X9134880Y-1006880D01*
X9134880Y-895120D02*
X9023120Y-1006880D01*
X9134880Y-951000D02*
G75*
G03*
X9134880Y-951000I-55880J0D01*
G01*
X9523120Y-895120D02*
X9634880Y-1006880D01*
X9634880Y-895120D02*
X9523120Y-1006880D01*
X9634880Y-951000D02*
G75*
G03*
X9634880Y-951000I-55880J0D01*
G01*
D14*
X7468850Y-7659090D02*
X7583150Y-7773390D01*
X7583150Y-7659090D02*
X7468850Y-7773390D01*
X7526000Y-7659090D02*
X7526000Y-7773390D01*
X7468850Y-7716240D02*
X7583150Y-7716240D01*
X7468850Y-8758910D02*
X7583150Y-8873210D01*
X7583150Y-8758910D02*
X7468850Y-8873210D01*
X7526000Y-8758910D02*
X7526000Y-8873210D01*
X7468850Y-8816060D02*
X7583150Y-8816060D01*
D15*
X500310Y-4015310D02*
X619690Y-4134690D01*
X619690Y-4015310D02*
X500310Y-4134690D01*
X602208Y-4117207D02*
X602208Y-4032792D01*
X517792Y-4032792D01*
X517792Y-4117207D01*
X602208Y-4117207D01*
X1000310Y-4015310D02*
X1119690Y-4134690D01*
X1119690Y-4015310D02*
X1000310Y-4134690D01*
X1102208Y-4117207D02*
X1102208Y-4032792D01*
X1017792Y-4032792D01*
X1017792Y-4117207D01*
X1102208Y-4117207D01*
X8882310Y-2941310D02*
X9001690Y-3060690D01*
X9001690Y-2941310D02*
X8882310Y-3060690D01*
X8984208Y-3043208D02*
X8984208Y-2958792D01*
X8899792Y-2958792D01*
X8899792Y-3043208D01*
X8984208Y-3043208D01*
X8882310Y-4785310D02*
X9001690Y-4904690D01*
X9001690Y-4785310D02*
X8882310Y-4904690D01*
X8984208Y-4887208D02*
X8984208Y-4802792D01*
X8899792Y-4802792D01*
X8899792Y-4887208D01*
X8984208Y-4887208D01*
X8882310Y-6629310D02*
X9001690Y-6748690D01*
X9001690Y-6629310D02*
X8882310Y-6748690D01*
X8984208Y-6731208D02*
X8984208Y-6646792D01*
X8899792Y-6646792D01*
X8899792Y-6731208D01*
X8984208Y-6731208D01*
X9382310Y-2941310D02*
X9501690Y-3060690D01*
X9501690Y-2941310D02*
X9382310Y-3060690D01*
X9484208Y-3043208D02*
X9484208Y-2958792D01*
X9399792Y-2958792D01*
X9399792Y-3043208D01*
X9484208Y-3043208D01*
X9382310Y-4785310D02*
X9501690Y-4904690D01*
X9501690Y-4785310D02*
X9382310Y-4904690D01*
X9484208Y-4887208D02*
X9484208Y-4802792D01*
X9399792Y-4802792D01*
X9399792Y-4887208D01*
X9484208Y-4887208D01*
X9382310Y-6629310D02*
X9501690Y-6748690D01*
X9501690Y-6629310D02*
X9382310Y-6748690D01*
X9484208Y-6731208D02*
X9484208Y-6646792D01*
X9399792Y-6646792D01*
X9399792Y-6731208D01*
X9484208Y-6731208D01*
D16*
X9485500Y-7795500D02*
X9744500Y-8054500D01*
X9744500Y-7795500D02*
X9485500Y-8054500D01*
X9615000Y-8054500D02*
X9744500Y-7925000D01*
X9615000Y-7795500D01*
X9485500Y-7925000D01*
X9615000Y-8054500D01*
X9485500Y-8303500D02*
X9744500Y-8562500D01*
X9744500Y-8303500D02*
X9485500Y-8562500D01*
X9615000Y-8562500D02*
X9744500Y-8433000D01*
X9615000Y-8303500D01*
X9485500Y-8433000D01*
X9615000Y-8562500D01*
X9485500Y-8709500D02*
X9744500Y-8968500D01*
X9744500Y-8709500D02*
X9485500Y-8968500D01*
X9615000Y-8968500D02*
X9744500Y-8839000D01*
X9615000Y-8709500D01*
X9485500Y-8839000D01*
X9615000Y-8968500D01*
X9485500Y-9217500D02*
X9744500Y-9476500D01*
X9744500Y-9217500D02*
X9485500Y-9476500D01*
X9615000Y-9476500D02*
X9744500Y-9347000D01*
X9615000Y-9217500D01*
X9485500Y-9347000D01*
X9615000Y-9476500D01*
D17*
X700000Y-10000000D02*
X700000Y-10320000D01*
X540000Y-10160000D02*
X860000Y-10160000D01*
X860000Y-10160000D02*
G75*
G03*
X860000Y-10160000I-160000J0D01*
G01*
X762000Y-475000D02*
X762000Y-795000D01*
X602000Y-635000D02*
X922000Y-635000D01*
X922000Y-635000D02*
G75*
G03*
X922000Y-635000I-160000J0D01*
G01*
X9271000Y-10000000D02*
X9271000Y-10320000D01*
X9111000Y-10160000D02*
X9431000Y-10160000D01*
X9431000Y-10160000D02*
G75*
G03*
X9431000Y-10160000I-160000J0D01*
G01*
D11*
X255777Y-11316484D02*
X255777Y-11116484D01*
X255777Y-11116484D02*
X303396Y-11116484D01*
X303396Y-11116484D02*
X331967Y-11126008D01*
X331967Y-11126008D02*
X351015Y-11145055D01*
X351015Y-11145055D02*
X360539Y-11164103D01*
X360539Y-11164103D02*
X370062Y-11202198D01*
X370062Y-11202198D02*
X370062Y-11230769D01*
X370062Y-11230769D02*
X360539Y-11268865D01*
X360539Y-11268865D02*
X351015Y-11287912D01*
X351015Y-11287912D02*
X331967Y-11306960D01*
X331967Y-11306960D02*
X303396Y-11316484D01*
X303396Y-11316484D02*
X255777Y-11316484D01*
X455777Y-11316484D02*
X455777Y-11183150D01*
X455777Y-11221246D02*
X465301Y-11202198D01*
X465301Y-11202198D02*
X474824Y-11192674D01*
X474824Y-11192674D02*
X493872Y-11183150D01*
X493872Y-11183150D02*
X512920Y-11183150D01*
X579586Y-11316484D02*
X579586Y-11183150D01*
X579586Y-11116484D02*
X570063Y-11126008D01*
X570063Y-11126008D02*
X579586Y-11135531D01*
X579586Y-11135531D02*
X589110Y-11126008D01*
X589110Y-11126008D02*
X579586Y-11116484D01*
X579586Y-11116484D02*
X579586Y-11135531D01*
X703396Y-11316484D02*
X684348Y-11306960D01*
X684348Y-11306960D02*
X674824Y-11287912D01*
X674824Y-11287912D02*
X674824Y-11116484D01*
X808158Y-11316484D02*
X789110Y-11306960D01*
X789110Y-11306960D02*
X779586Y-11287912D01*
X779586Y-11287912D02*
X779586Y-11116484D01*
X1036729Y-11316484D02*
X1036729Y-11116484D01*
X1036729Y-11116484D02*
X1103396Y-11259341D01*
X1103396Y-11259341D02*
X1170063Y-11116484D01*
X1170063Y-11116484D02*
X1170063Y-11316484D01*
X1351015Y-11316484D02*
X1351015Y-11211722D01*
X1351015Y-11211722D02*
X1341491Y-11192674D01*
X1341491Y-11192674D02*
X1322444Y-11183150D01*
X1322444Y-11183150D02*
X1284348Y-11183150D01*
X1284348Y-11183150D02*
X1265301Y-11192674D01*
X1351015Y-11306960D02*
X1331967Y-11316484D01*
X1331967Y-11316484D02*
X1284348Y-11316484D01*
X1284348Y-11316484D02*
X1265301Y-11306960D01*
X1265301Y-11306960D02*
X1255777Y-11287912D01*
X1255777Y-11287912D02*
X1255777Y-11268865D01*
X1255777Y-11268865D02*
X1265301Y-11249817D01*
X1265301Y-11249817D02*
X1284348Y-11240293D01*
X1284348Y-11240293D02*
X1331967Y-11240293D01*
X1331967Y-11240293D02*
X1351015Y-11230769D01*
X1446253Y-11183150D02*
X1446253Y-11383150D01*
X1446253Y-11192674D02*
X1465301Y-11183150D01*
X1465301Y-11183150D02*
X1503396Y-11183150D01*
X1503396Y-11183150D02*
X1522443Y-11192674D01*
X1522443Y-11192674D02*
X1531967Y-11202198D01*
X1531967Y-11202198D02*
X1541491Y-11221246D01*
X1541491Y-11221246D02*
X1541491Y-11278388D01*
X1541491Y-11278388D02*
X1531967Y-11297436D01*
X1531967Y-11297436D02*
X1522443Y-11306960D01*
X1522443Y-11306960D02*
X1503396Y-11316484D01*
X1503396Y-11316484D02*
X1465301Y-11316484D01*
X1465301Y-11316484D02*
X1446253Y-11306960D01*
X1627205Y-11297436D02*
X1636729Y-11306960D01*
X1636729Y-11306960D02*
X1627205Y-11316484D01*
X1627205Y-11316484D02*
X1617682Y-11306960D01*
X1617682Y-11306960D02*
X1627205Y-11297436D01*
X1627205Y-11297436D02*
X1627205Y-11316484D01*
X1627205Y-11192674D02*
X1636729Y-11202198D01*
X1636729Y-11202198D02*
X1627205Y-11211722D01*
X1627205Y-11211722D02*
X1617682Y-11202198D01*
X1617682Y-11202198D02*
X1627205Y-11192674D01*
X1627205Y-11192674D02*
X1627205Y-11211722D01*
D10*
X-83000Y-11606000D02*
X-5000Y-11684000D01*
X-5000Y-11606000D02*
X-83000Y-11684000D01*
D11*
X293872Y-11536484D02*
X312920Y-11536484D01*
X312920Y-11536484D02*
X331967Y-11546008D01*
X331967Y-11546008D02*
X341491Y-11555531D01*
X341491Y-11555531D02*
X351015Y-11574579D01*
X351015Y-11574579D02*
X360539Y-11612674D01*
X360539Y-11612674D02*
X360539Y-11660293D01*
X360539Y-11660293D02*
X351015Y-11698388D01*
X351015Y-11698388D02*
X341491Y-11717436D01*
X341491Y-11717436D02*
X331967Y-11726960D01*
X331967Y-11726960D02*
X312920Y-11736484D01*
X312920Y-11736484D02*
X293872Y-11736484D01*
X293872Y-11736484D02*
X274824Y-11726960D01*
X274824Y-11726960D02*
X265301Y-11717436D01*
X265301Y-11717436D02*
X255777Y-11698388D01*
X255777Y-11698388D02*
X246253Y-11660293D01*
X246253Y-11660293D02*
X246253Y-11612674D01*
X246253Y-11612674D02*
X255777Y-11574579D01*
X255777Y-11574579D02*
X265301Y-11555531D01*
X265301Y-11555531D02*
X274824Y-11546008D01*
X274824Y-11546008D02*
X293872Y-11536484D01*
X446253Y-11717436D02*
X455777Y-11726960D01*
X455777Y-11726960D02*
X446253Y-11736484D01*
X446253Y-11736484D02*
X436729Y-11726960D01*
X436729Y-11726960D02*
X446253Y-11717436D01*
X446253Y-11717436D02*
X446253Y-11736484D01*
X522443Y-11536484D02*
X655777Y-11536484D01*
X655777Y-11536484D02*
X570063Y-11736484D01*
X760539Y-11622198D02*
X741491Y-11612674D01*
X741491Y-11612674D02*
X731967Y-11603150D01*
X731967Y-11603150D02*
X722443Y-11584103D01*
X722443Y-11584103D02*
X722443Y-11574579D01*
X722443Y-11574579D02*
X731967Y-11555531D01*
X731967Y-11555531D02*
X741491Y-11546008D01*
X741491Y-11546008D02*
X760539Y-11536484D01*
X760539Y-11536484D02*
X798634Y-11536484D01*
X798634Y-11536484D02*
X817682Y-11546008D01*
X817682Y-11546008D02*
X827205Y-11555531D01*
X827205Y-11555531D02*
X836729Y-11574579D01*
X836729Y-11574579D02*
X836729Y-11584103D01*
X836729Y-11584103D02*
X827205Y-11603150D01*
X827205Y-11603150D02*
X817682Y-11612674D01*
X817682Y-11612674D02*
X798634Y-11622198D01*
X798634Y-11622198D02*
X760539Y-11622198D01*
X760539Y-11622198D02*
X741491Y-11631722D01*
X741491Y-11631722D02*
X731967Y-11641246D01*
X731967Y-11641246D02*
X722443Y-11660293D01*
X722443Y-11660293D02*
X722443Y-11698388D01*
X722443Y-11698388D02*
X731967Y-11717436D01*
X731967Y-11717436D02*
X741491Y-11726960D01*
X741491Y-11726960D02*
X760539Y-11736484D01*
X760539Y-11736484D02*
X798634Y-11736484D01*
X798634Y-11736484D02*
X817682Y-11726960D01*
X817682Y-11726960D02*
X827205Y-11717436D01*
X827205Y-11717436D02*
X836729Y-11698388D01*
X836729Y-11698388D02*
X836729Y-11660293D01*
X836729Y-11660293D02*
X827205Y-11641246D01*
X827205Y-11641246D02*
X817682Y-11631722D01*
X817682Y-11631722D02*
X798634Y-11622198D01*
X960539Y-11536484D02*
X979586Y-11536484D01*
X979586Y-11536484D02*
X998634Y-11546008D01*
X998634Y-11546008D02*
X1008158Y-11555531D01*
X1008158Y-11555531D02*
X1017682Y-11574579D01*
X1017682Y-11574579D02*
X1027205Y-11612674D01*
X1027205Y-11612674D02*
X1027205Y-11660293D01*
X1027205Y-11660293D02*
X1017682Y-11698388D01*
X1017682Y-11698388D02*
X1008158Y-11717436D01*
X1008158Y-11717436D02*
X998634Y-11726960D01*
X998634Y-11726960D02*
X979586Y-11736484D01*
X979586Y-11736484D02*
X960539Y-11736484D01*
X960539Y-11736484D02*
X941491Y-11726960D01*
X941491Y-11726960D02*
X931967Y-11717436D01*
X931967Y-11717436D02*
X922443Y-11698388D01*
X922443Y-11698388D02*
X912920Y-11660293D01*
X912920Y-11660293D02*
X912920Y-11612674D01*
X912920Y-11612674D02*
X922443Y-11574579D01*
X922443Y-11574579D02*
X931967Y-11555531D01*
X931967Y-11555531D02*
X941491Y-11546008D01*
X941491Y-11546008D02*
X960539Y-11536484D01*
X1112920Y-11736484D02*
X1112920Y-11603150D01*
X1112920Y-11622198D02*
X1122444Y-11612674D01*
X1122444Y-11612674D02*
X1141491Y-11603150D01*
X1141491Y-11603150D02*
X1170063Y-11603150D01*
X1170063Y-11603150D02*
X1189110Y-11612674D01*
X1189110Y-11612674D02*
X1198634Y-11631722D01*
X1198634Y-11631722D02*
X1198634Y-11736484D01*
X1198634Y-11631722D02*
X1208158Y-11612674D01*
X1208158Y-11612674D02*
X1227205Y-11603150D01*
X1227205Y-11603150D02*
X1255777Y-11603150D01*
X1255777Y-11603150D02*
X1274825Y-11612674D01*
X1274825Y-11612674D02*
X1284348Y-11631722D01*
X1284348Y-11631722D02*
X1284348Y-11736484D01*
X1379586Y-11736484D02*
X1379586Y-11603150D01*
X1379586Y-11622198D02*
X1389110Y-11612674D01*
X1389110Y-11612674D02*
X1408158Y-11603150D01*
X1408158Y-11603150D02*
X1436729Y-11603150D01*
X1436729Y-11603150D02*
X1455777Y-11612674D01*
X1455777Y-11612674D02*
X1465301Y-11631722D01*
X1465301Y-11631722D02*
X1465301Y-11736484D01*
X1465301Y-11631722D02*
X1474824Y-11612674D01*
X1474824Y-11612674D02*
X1493872Y-11603150D01*
X1493872Y-11603150D02*
X1522443Y-11603150D01*
X1522443Y-11603150D02*
X1541491Y-11612674D01*
X1541491Y-11612674D02*
X1551015Y-11631722D01*
X1551015Y-11631722D02*
X1551015Y-11736484D01*
X1941491Y-11526960D02*
X1770063Y-11784103D01*
X2198634Y-11536484D02*
X2217682Y-11536484D01*
X2217682Y-11536484D02*
X2236729Y-11546008D01*
X2236729Y-11546008D02*
X2246253Y-11555531D01*
X2246253Y-11555531D02*
X2255777Y-11574579D01*
X2255777Y-11574579D02*
X2265301Y-11612674D01*
X2265301Y-11612674D02*
X2265301Y-11660293D01*
X2265301Y-11660293D02*
X2255777Y-11698388D01*
X2255777Y-11698388D02*
X2246253Y-11717436D01*
X2246253Y-11717436D02*
X2236729Y-11726960D01*
X2236729Y-11726960D02*
X2217682Y-11736484D01*
X2217682Y-11736484D02*
X2198634Y-11736484D01*
X2198634Y-11736484D02*
X2179587Y-11726960D01*
X2179587Y-11726960D02*
X2170063Y-11717436D01*
X2170063Y-11717436D02*
X2160539Y-11698388D01*
X2160539Y-11698388D02*
X2151015Y-11660293D01*
X2151015Y-11660293D02*
X2151015Y-11612674D01*
X2151015Y-11612674D02*
X2160539Y-11574579D01*
X2160539Y-11574579D02*
X2170063Y-11555531D01*
X2170063Y-11555531D02*
X2179587Y-11546008D01*
X2179587Y-11546008D02*
X2198634Y-11536484D01*
X2351015Y-11717436D02*
X2360539Y-11726960D01*
X2360539Y-11726960D02*
X2351015Y-11736484D01*
X2351015Y-11736484D02*
X2341491Y-11726960D01*
X2341491Y-11726960D02*
X2351015Y-11717436D01*
X2351015Y-11717436D02*
X2351015Y-11736484D01*
X2484348Y-11536484D02*
X2503396Y-11536484D01*
X2503396Y-11536484D02*
X2522444Y-11546008D01*
X2522444Y-11546008D02*
X2531968Y-11555531D01*
X2531968Y-11555531D02*
X2541491Y-11574579D01*
X2541491Y-11574579D02*
X2551015Y-11612674D01*
X2551015Y-11612674D02*
X2551015Y-11660293D01*
X2551015Y-11660293D02*
X2541491Y-11698388D01*
X2541491Y-11698388D02*
X2531968Y-11717436D01*
X2531968Y-11717436D02*
X2522444Y-11726960D01*
X2522444Y-11726960D02*
X2503396Y-11736484D01*
X2503396Y-11736484D02*
X2484348Y-11736484D01*
X2484348Y-11736484D02*
X2465301Y-11726960D01*
X2465301Y-11726960D02*
X2455777Y-11717436D01*
X2455777Y-11717436D02*
X2446253Y-11698388D01*
X2446253Y-11698388D02*
X2436729Y-11660293D01*
X2436729Y-11660293D02*
X2436729Y-11612674D01*
X2436729Y-11612674D02*
X2446253Y-11574579D01*
X2446253Y-11574579D02*
X2455777Y-11555531D01*
X2455777Y-11555531D02*
X2465301Y-11546008D01*
X2465301Y-11546008D02*
X2484348Y-11536484D01*
X2617682Y-11536484D02*
X2741491Y-11536484D01*
X2741491Y-11536484D02*
X2674825Y-11612674D01*
X2674825Y-11612674D02*
X2703396Y-11612674D01*
X2703396Y-11612674D02*
X2722444Y-11622198D01*
X2722444Y-11622198D02*
X2731968Y-11631722D01*
X2731968Y-11631722D02*
X2741491Y-11650769D01*
X2741491Y-11650769D02*
X2741491Y-11698388D01*
X2741491Y-11698388D02*
X2731968Y-11717436D01*
X2731968Y-11717436D02*
X2722444Y-11726960D01*
X2722444Y-11726960D02*
X2703396Y-11736484D01*
X2703396Y-11736484D02*
X2646253Y-11736484D01*
X2646253Y-11736484D02*
X2627206Y-11726960D01*
X2627206Y-11726960D02*
X2617682Y-11717436D01*
X2865301Y-11536484D02*
X2884348Y-11536484D01*
X2884348Y-11536484D02*
X2903396Y-11546008D01*
X2903396Y-11546008D02*
X2912920Y-11555531D01*
X2912920Y-11555531D02*
X2922444Y-11574579D01*
X2922444Y-11574579D02*
X2931967Y-11612674D01*
X2931967Y-11612674D02*
X2931967Y-11660293D01*
X2931967Y-11660293D02*
X2922444Y-11698388D01*
X2922444Y-11698388D02*
X2912920Y-11717436D01*
X2912920Y-11717436D02*
X2903396Y-11726960D01*
X2903396Y-11726960D02*
X2884348Y-11736484D01*
X2884348Y-11736484D02*
X2865301Y-11736484D01*
X2865301Y-11736484D02*
X2846253Y-11726960D01*
X2846253Y-11726960D02*
X2836729Y-11717436D01*
X2836729Y-11717436D02*
X2827206Y-11698388D01*
X2827206Y-11698388D02*
X2817682Y-11660293D01*
X2817682Y-11660293D02*
X2817682Y-11612674D01*
X2817682Y-11612674D02*
X2827206Y-11574579D01*
X2827206Y-11574579D02*
X2836729Y-11555531D01*
X2836729Y-11555531D02*
X2846253Y-11546008D01*
X2846253Y-11546008D02*
X2865301Y-11536484D01*
X2998634Y-11536484D02*
X3131967Y-11536484D01*
X3131967Y-11536484D02*
X3046253Y-11736484D01*
X3198634Y-11536484D02*
X3198634Y-11574579D01*
X3274825Y-11536484D02*
X3274825Y-11574579D01*
X3570063Y-11812674D02*
X3560539Y-11803150D01*
X3560539Y-11803150D02*
X3541491Y-11774579D01*
X3541491Y-11774579D02*
X3531968Y-11755531D01*
X3531968Y-11755531D02*
X3522444Y-11726960D01*
X3522444Y-11726960D02*
X3512920Y-11679341D01*
X3512920Y-11679341D02*
X3512920Y-11641246D01*
X3512920Y-11641246D02*
X3522444Y-11593627D01*
X3522444Y-11593627D02*
X3531968Y-11565055D01*
X3531968Y-11565055D02*
X3541491Y-11546008D01*
X3541491Y-11546008D02*
X3560539Y-11517436D01*
X3560539Y-11517436D02*
X3570063Y-11507912D01*
X3751015Y-11736484D02*
X3636729Y-11736484D01*
X3693872Y-11736484D02*
X3693872Y-11536484D01*
X3693872Y-11536484D02*
X3674825Y-11565055D01*
X3674825Y-11565055D02*
X3655777Y-11584103D01*
X3655777Y-11584103D02*
X3636729Y-11593627D01*
X3922444Y-11536484D02*
X3884348Y-11536484D01*
X3884348Y-11536484D02*
X3865301Y-11546008D01*
X3865301Y-11546008D02*
X3855777Y-11555531D01*
X3855777Y-11555531D02*
X3836729Y-11584103D01*
X3836729Y-11584103D02*
X3827206Y-11622198D01*
X3827206Y-11622198D02*
X3827206Y-11698388D01*
X3827206Y-11698388D02*
X3836729Y-11717436D01*
X3836729Y-11717436D02*
X3846253Y-11726960D01*
X3846253Y-11726960D02*
X3865301Y-11736484D01*
X3865301Y-11736484D02*
X3903396Y-11736484D01*
X3903396Y-11736484D02*
X3922444Y-11726960D01*
X3922444Y-11726960D02*
X3931968Y-11717436D01*
X3931968Y-11717436D02*
X3941491Y-11698388D01*
X3941491Y-11698388D02*
X3941491Y-11650769D01*
X3941491Y-11650769D02*
X3931968Y-11631722D01*
X3931968Y-11631722D02*
X3922444Y-11622198D01*
X3922444Y-11622198D02*
X3903396Y-11612674D01*
X3903396Y-11612674D02*
X3865301Y-11612674D01*
X3865301Y-11612674D02*
X3846253Y-11622198D01*
X3846253Y-11622198D02*
X3836729Y-11631722D01*
X3836729Y-11631722D02*
X3827206Y-11650769D01*
X4179587Y-11736484D02*
X4179587Y-11536484D01*
X4265301Y-11736484D02*
X4265301Y-11631722D01*
X4265301Y-11631722D02*
X4255777Y-11612674D01*
X4255777Y-11612674D02*
X4236730Y-11603150D01*
X4236730Y-11603150D02*
X4208158Y-11603150D01*
X4208158Y-11603150D02*
X4189110Y-11612674D01*
X4189110Y-11612674D02*
X4179587Y-11622198D01*
X4389111Y-11736484D02*
X4370063Y-11726960D01*
X4370063Y-11726960D02*
X4360539Y-11717436D01*
X4360539Y-11717436D02*
X4351015Y-11698388D01*
X4351015Y-11698388D02*
X4351015Y-11641246D01*
X4351015Y-11641246D02*
X4360539Y-11622198D01*
X4360539Y-11622198D02*
X4370063Y-11612674D01*
X4370063Y-11612674D02*
X4389111Y-11603150D01*
X4389111Y-11603150D02*
X4417682Y-11603150D01*
X4417682Y-11603150D02*
X4436730Y-11612674D01*
X4436730Y-11612674D02*
X4446253Y-11622198D01*
X4446253Y-11622198D02*
X4455777Y-11641246D01*
X4455777Y-11641246D02*
X4455777Y-11698388D01*
X4455777Y-11698388D02*
X4446253Y-11717436D01*
X4446253Y-11717436D02*
X4436730Y-11726960D01*
X4436730Y-11726960D02*
X4417682Y-11736484D01*
X4417682Y-11736484D02*
X4389111Y-11736484D01*
X4570063Y-11736484D02*
X4551015Y-11726960D01*
X4551015Y-11726960D02*
X4541492Y-11707912D01*
X4541492Y-11707912D02*
X4541492Y-11536484D01*
X4722444Y-11726960D02*
X4703396Y-11736484D01*
X4703396Y-11736484D02*
X4665301Y-11736484D01*
X4665301Y-11736484D02*
X4646253Y-11726960D01*
X4646253Y-11726960D02*
X4636730Y-11707912D01*
X4636730Y-11707912D02*
X4636730Y-11631722D01*
X4636730Y-11631722D02*
X4646253Y-11612674D01*
X4646253Y-11612674D02*
X4665301Y-11603150D01*
X4665301Y-11603150D02*
X4703396Y-11603150D01*
X4703396Y-11603150D02*
X4722444Y-11612674D01*
X4722444Y-11612674D02*
X4731968Y-11631722D01*
X4731968Y-11631722D02*
X4731968Y-11650769D01*
X4731968Y-11650769D02*
X4636730Y-11669817D01*
X4808158Y-11726960D02*
X4827206Y-11736484D01*
X4827206Y-11736484D02*
X4865301Y-11736484D01*
X4865301Y-11736484D02*
X4884349Y-11726960D01*
X4884349Y-11726960D02*
X4893873Y-11707912D01*
X4893873Y-11707912D02*
X4893873Y-11698388D01*
X4893873Y-11698388D02*
X4884349Y-11679341D01*
X4884349Y-11679341D02*
X4865301Y-11669817D01*
X4865301Y-11669817D02*
X4836730Y-11669817D01*
X4836730Y-11669817D02*
X4817682Y-11660293D01*
X4817682Y-11660293D02*
X4808158Y-11641246D01*
X4808158Y-11641246D02*
X4808158Y-11631722D01*
X4808158Y-11631722D02*
X4817682Y-11612674D01*
X4817682Y-11612674D02*
X4836730Y-11603150D01*
X4836730Y-11603150D02*
X4865301Y-11603150D01*
X4865301Y-11603150D02*
X4884349Y-11612674D01*
X4960539Y-11812674D02*
X4970063Y-11803150D01*
X4970063Y-11803150D02*
X4989111Y-11774579D01*
X4989111Y-11774579D02*
X4998634Y-11755531D01*
X4998634Y-11755531D02*
X5008158Y-11726960D01*
X5008158Y-11726960D02*
X5017682Y-11679341D01*
X5017682Y-11679341D02*
X5017682Y-11641246D01*
X5017682Y-11641246D02*
X5008158Y-11593627D01*
X5008158Y-11593627D02*
X4998634Y-11565055D01*
X4998634Y-11565055D02*
X4989111Y-11546008D01*
X4989111Y-11546008D02*
X4970063Y-11517436D01*
X4970063Y-11517436D02*
X4960539Y-11507912D01*
D10*
X-5000Y-11909000D02*
G75*
G03*
X-5000Y-11909000I-40000J0D01*
G01*
D11*
X293872Y-11800484D02*
X312920Y-11800484D01*
X312920Y-11800484D02*
X331967Y-11810008D01*
X331967Y-11810008D02*
X341491Y-11819531D01*
X341491Y-11819531D02*
X351015Y-11838579D01*
X351015Y-11838579D02*
X360539Y-11876674D01*
X360539Y-11876674D02*
X360539Y-11924293D01*
X360539Y-11924293D02*
X351015Y-11962388D01*
X351015Y-11962388D02*
X341491Y-11981436D01*
X341491Y-11981436D02*
X331967Y-11990960D01*
X331967Y-11990960D02*
X312920Y-12000484D01*
X312920Y-12000484D02*
X293872Y-12000484D01*
X293872Y-12000484D02*
X274824Y-11990960D01*
X274824Y-11990960D02*
X265301Y-11981436D01*
X265301Y-11981436D02*
X255777Y-11962388D01*
X255777Y-11962388D02*
X246253Y-11924293D01*
X246253Y-11924293D02*
X246253Y-11876674D01*
X246253Y-11876674D02*
X255777Y-11838579D01*
X255777Y-11838579D02*
X265301Y-11819531D01*
X265301Y-11819531D02*
X274824Y-11810008D01*
X274824Y-11810008D02*
X293872Y-11800484D01*
X446253Y-11981436D02*
X455777Y-11990960D01*
X455777Y-11990960D02*
X446253Y-12000484D01*
X446253Y-12000484D02*
X436729Y-11990960D01*
X436729Y-11990960D02*
X446253Y-11981436D01*
X446253Y-11981436D02*
X446253Y-12000484D01*
X570063Y-11886198D02*
X551015Y-11876674D01*
X551015Y-11876674D02*
X541491Y-11867150D01*
X541491Y-11867150D02*
X531967Y-11848103D01*
X531967Y-11848103D02*
X531967Y-11838579D01*
X531967Y-11838579D02*
X541491Y-11819531D01*
X541491Y-11819531D02*
X551015Y-11810008D01*
X551015Y-11810008D02*
X570063Y-11800484D01*
X570063Y-11800484D02*
X608158Y-11800484D01*
X608158Y-11800484D02*
X627205Y-11810008D01*
X627205Y-11810008D02*
X636729Y-11819531D01*
X636729Y-11819531D02*
X646253Y-11838579D01*
X646253Y-11838579D02*
X646253Y-11848103D01*
X646253Y-11848103D02*
X636729Y-11867150D01*
X636729Y-11867150D02*
X627205Y-11876674D01*
X627205Y-11876674D02*
X608158Y-11886198D01*
X608158Y-11886198D02*
X570063Y-11886198D01*
X570063Y-11886198D02*
X551015Y-11895722D01*
X551015Y-11895722D02*
X541491Y-11905246D01*
X541491Y-11905246D02*
X531967Y-11924293D01*
X531967Y-11924293D02*
X531967Y-11962388D01*
X531967Y-11962388D02*
X541491Y-11981436D01*
X541491Y-11981436D02*
X551015Y-11990960D01*
X551015Y-11990960D02*
X570063Y-12000484D01*
X570063Y-12000484D02*
X608158Y-12000484D01*
X608158Y-12000484D02*
X627205Y-11990960D01*
X627205Y-11990960D02*
X636729Y-11981436D01*
X636729Y-11981436D02*
X646253Y-11962388D01*
X646253Y-11962388D02*
X646253Y-11924293D01*
X646253Y-11924293D02*
X636729Y-11905246D01*
X636729Y-11905246D02*
X627205Y-11895722D01*
X627205Y-11895722D02*
X608158Y-11886198D01*
X770062Y-11800484D02*
X789110Y-11800484D01*
X789110Y-11800484D02*
X808158Y-11810008D01*
X808158Y-11810008D02*
X817682Y-11819531D01*
X817682Y-11819531D02*
X827205Y-11838579D01*
X827205Y-11838579D02*
X836729Y-11876674D01*
X836729Y-11876674D02*
X836729Y-11924293D01*
X836729Y-11924293D02*
X827205Y-11962388D01*
X827205Y-11962388D02*
X817682Y-11981436D01*
X817682Y-11981436D02*
X808158Y-11990960D01*
X808158Y-11990960D02*
X789110Y-12000484D01*
X789110Y-12000484D02*
X770062Y-12000484D01*
X770062Y-12000484D02*
X751015Y-11990960D01*
X751015Y-11990960D02*
X741491Y-11981436D01*
X741491Y-11981436D02*
X731967Y-11962388D01*
X731967Y-11962388D02*
X722443Y-11924293D01*
X722443Y-11924293D02*
X722443Y-11876674D01*
X722443Y-11876674D02*
X731967Y-11838579D01*
X731967Y-11838579D02*
X741491Y-11819531D01*
X741491Y-11819531D02*
X751015Y-11810008D01*
X751015Y-11810008D02*
X770062Y-11800484D01*
X960539Y-11800484D02*
X979586Y-11800484D01*
X979586Y-11800484D02*
X998634Y-11810008D01*
X998634Y-11810008D02*
X1008158Y-11819531D01*
X1008158Y-11819531D02*
X1017682Y-11838579D01*
X1017682Y-11838579D02*
X1027205Y-11876674D01*
X1027205Y-11876674D02*
X1027205Y-11924293D01*
X1027205Y-11924293D02*
X1017682Y-11962388D01*
X1017682Y-11962388D02*
X1008158Y-11981436D01*
X1008158Y-11981436D02*
X998634Y-11990960D01*
X998634Y-11990960D02*
X979586Y-12000484D01*
X979586Y-12000484D02*
X960539Y-12000484D01*
X960539Y-12000484D02*
X941491Y-11990960D01*
X941491Y-11990960D02*
X931967Y-11981436D01*
X931967Y-11981436D02*
X922443Y-11962388D01*
X922443Y-11962388D02*
X912920Y-11924293D01*
X912920Y-11924293D02*
X912920Y-11876674D01*
X912920Y-11876674D02*
X922443Y-11838579D01*
X922443Y-11838579D02*
X931967Y-11819531D01*
X931967Y-11819531D02*
X941491Y-11810008D01*
X941491Y-11810008D02*
X960539Y-11800484D01*
X1112920Y-12000484D02*
X1112920Y-11867150D01*
X1112920Y-11886198D02*
X1122444Y-11876674D01*
X1122444Y-11876674D02*
X1141491Y-11867150D01*
X1141491Y-11867150D02*
X1170063Y-11867150D01*
X1170063Y-11867150D02*
X1189110Y-11876674D01*
X1189110Y-11876674D02*
X1198634Y-11895722D01*
X1198634Y-11895722D02*
X1198634Y-12000484D01*
X1198634Y-11895722D02*
X1208158Y-11876674D01*
X1208158Y-11876674D02*
X1227205Y-11867150D01*
X1227205Y-11867150D02*
X1255777Y-11867150D01*
X1255777Y-11867150D02*
X1274825Y-11876674D01*
X1274825Y-11876674D02*
X1284348Y-11895722D01*
X1284348Y-11895722D02*
X1284348Y-12000484D01*
X1379586Y-12000484D02*
X1379586Y-11867150D01*
X1379586Y-11886198D02*
X1389110Y-11876674D01*
X1389110Y-11876674D02*
X1408158Y-11867150D01*
X1408158Y-11867150D02*
X1436729Y-11867150D01*
X1436729Y-11867150D02*
X1455777Y-11876674D01*
X1455777Y-11876674D02*
X1465301Y-11895722D01*
X1465301Y-11895722D02*
X1465301Y-12000484D01*
X1465301Y-11895722D02*
X1474824Y-11876674D01*
X1474824Y-11876674D02*
X1493872Y-11867150D01*
X1493872Y-11867150D02*
X1522443Y-11867150D01*
X1522443Y-11867150D02*
X1541491Y-11876674D01*
X1541491Y-11876674D02*
X1551015Y-11895722D01*
X1551015Y-11895722D02*
X1551015Y-12000484D01*
X1941491Y-11790960D02*
X1770063Y-12048103D01*
X2198634Y-11800484D02*
X2217682Y-11800484D01*
X2217682Y-11800484D02*
X2236729Y-11810008D01*
X2236729Y-11810008D02*
X2246253Y-11819531D01*
X2246253Y-11819531D02*
X2255777Y-11838579D01*
X2255777Y-11838579D02*
X2265301Y-11876674D01*
X2265301Y-11876674D02*
X2265301Y-11924293D01*
X2265301Y-11924293D02*
X2255777Y-11962388D01*
X2255777Y-11962388D02*
X2246253Y-11981436D01*
X2246253Y-11981436D02*
X2236729Y-11990960D01*
X2236729Y-11990960D02*
X2217682Y-12000484D01*
X2217682Y-12000484D02*
X2198634Y-12000484D01*
X2198634Y-12000484D02*
X2179587Y-11990960D01*
X2179587Y-11990960D02*
X2170063Y-11981436D01*
X2170063Y-11981436D02*
X2160539Y-11962388D01*
X2160539Y-11962388D02*
X2151015Y-11924293D01*
X2151015Y-11924293D02*
X2151015Y-11876674D01*
X2151015Y-11876674D02*
X2160539Y-11838579D01*
X2160539Y-11838579D02*
X2170063Y-11819531D01*
X2170063Y-11819531D02*
X2179587Y-11810008D01*
X2179587Y-11810008D02*
X2198634Y-11800484D01*
X2351015Y-11981436D02*
X2360539Y-11990960D01*
X2360539Y-11990960D02*
X2351015Y-12000484D01*
X2351015Y-12000484D02*
X2341491Y-11990960D01*
X2341491Y-11990960D02*
X2351015Y-11981436D01*
X2351015Y-11981436D02*
X2351015Y-12000484D01*
X2484348Y-11800484D02*
X2503396Y-11800484D01*
X2503396Y-11800484D02*
X2522444Y-11810008D01*
X2522444Y-11810008D02*
X2531968Y-11819531D01*
X2531968Y-11819531D02*
X2541491Y-11838579D01*
X2541491Y-11838579D02*
X2551015Y-11876674D01*
X2551015Y-11876674D02*
X2551015Y-11924293D01*
X2551015Y-11924293D02*
X2541491Y-11962388D01*
X2541491Y-11962388D02*
X2531968Y-11981436D01*
X2531968Y-11981436D02*
X2522444Y-11990960D01*
X2522444Y-11990960D02*
X2503396Y-12000484D01*
X2503396Y-12000484D02*
X2484348Y-12000484D01*
X2484348Y-12000484D02*
X2465301Y-11990960D01*
X2465301Y-11990960D02*
X2455777Y-11981436D01*
X2455777Y-11981436D02*
X2446253Y-11962388D01*
X2446253Y-11962388D02*
X2436729Y-11924293D01*
X2436729Y-11924293D02*
X2436729Y-11876674D01*
X2436729Y-11876674D02*
X2446253Y-11838579D01*
X2446253Y-11838579D02*
X2455777Y-11819531D01*
X2455777Y-11819531D02*
X2465301Y-11810008D01*
X2465301Y-11810008D02*
X2484348Y-11800484D01*
X2617682Y-11800484D02*
X2741491Y-11800484D01*
X2741491Y-11800484D02*
X2674825Y-11876674D01*
X2674825Y-11876674D02*
X2703396Y-11876674D01*
X2703396Y-11876674D02*
X2722444Y-11886198D01*
X2722444Y-11886198D02*
X2731968Y-11895722D01*
X2731968Y-11895722D02*
X2741491Y-11914769D01*
X2741491Y-11914769D02*
X2741491Y-11962388D01*
X2741491Y-11962388D02*
X2731968Y-11981436D01*
X2731968Y-11981436D02*
X2722444Y-11990960D01*
X2722444Y-11990960D02*
X2703396Y-12000484D01*
X2703396Y-12000484D02*
X2646253Y-12000484D01*
X2646253Y-12000484D02*
X2627206Y-11990960D01*
X2627206Y-11990960D02*
X2617682Y-11981436D01*
X2931967Y-12000484D02*
X2817682Y-12000484D01*
X2874825Y-12000484D02*
X2874825Y-11800484D01*
X2874825Y-11800484D02*
X2855777Y-11829055D01*
X2855777Y-11829055D02*
X2836729Y-11848103D01*
X2836729Y-11848103D02*
X2817682Y-11857627D01*
X3112920Y-11800484D02*
X3017682Y-11800484D01*
X3017682Y-11800484D02*
X3008158Y-11895722D01*
X3008158Y-11895722D02*
X3017682Y-11886198D01*
X3017682Y-11886198D02*
X3036729Y-11876674D01*
X3036729Y-11876674D02*
X3084348Y-11876674D01*
X3084348Y-11876674D02*
X3103396Y-11886198D01*
X3103396Y-11886198D02*
X3112920Y-11895722D01*
X3112920Y-11895722D02*
X3122444Y-11914769D01*
X3122444Y-11914769D02*
X3122444Y-11962388D01*
X3122444Y-11962388D02*
X3112920Y-11981436D01*
X3112920Y-11981436D02*
X3103396Y-11990960D01*
X3103396Y-11990960D02*
X3084348Y-12000484D01*
X3084348Y-12000484D02*
X3036729Y-12000484D01*
X3036729Y-12000484D02*
X3017682Y-11990960D01*
X3017682Y-11990960D02*
X3008158Y-11981436D01*
X3198634Y-11800484D02*
X3198634Y-11838579D01*
X3274825Y-11800484D02*
X3274825Y-11838579D01*
X3570063Y-12076674D02*
X3560539Y-12067150D01*
X3560539Y-12067150D02*
X3541491Y-12038579D01*
X3541491Y-12038579D02*
X3531968Y-12019531D01*
X3531968Y-12019531D02*
X3522444Y-11990960D01*
X3522444Y-11990960D02*
X3512920Y-11943341D01*
X3512920Y-11943341D02*
X3512920Y-11905246D01*
X3512920Y-11905246D02*
X3522444Y-11857627D01*
X3522444Y-11857627D02*
X3531968Y-11829055D01*
X3531968Y-11829055D02*
X3541491Y-11810008D01*
X3541491Y-11810008D02*
X3560539Y-11781436D01*
X3560539Y-11781436D02*
X3570063Y-11771912D01*
X3627206Y-11800484D02*
X3751015Y-11800484D01*
X3751015Y-11800484D02*
X3684348Y-11876674D01*
X3684348Y-11876674D02*
X3712920Y-11876674D01*
X3712920Y-11876674D02*
X3731968Y-11886198D01*
X3731968Y-11886198D02*
X3741491Y-11895722D01*
X3741491Y-11895722D02*
X3751015Y-11914769D01*
X3751015Y-11914769D02*
X3751015Y-11962388D01*
X3751015Y-11962388D02*
X3741491Y-11981436D01*
X3741491Y-11981436D02*
X3731968Y-11990960D01*
X3731968Y-11990960D02*
X3712920Y-12000484D01*
X3712920Y-12000484D02*
X3655777Y-12000484D01*
X3655777Y-12000484D02*
X3636729Y-11990960D01*
X3636729Y-11990960D02*
X3627206Y-11981436D01*
X3827206Y-11819531D02*
X3836729Y-11810008D01*
X3836729Y-11810008D02*
X3855777Y-11800484D01*
X3855777Y-11800484D02*
X3903396Y-11800484D01*
X3903396Y-11800484D02*
X3922444Y-11810008D01*
X3922444Y-11810008D02*
X3931968Y-11819531D01*
X3931968Y-11819531D02*
X3941491Y-11838579D01*
X3941491Y-11838579D02*
X3941491Y-11857627D01*
X3941491Y-11857627D02*
X3931968Y-11886198D01*
X3931968Y-11886198D02*
X3817682Y-12000484D01*
X3817682Y-12000484D02*
X3941491Y-12000484D01*
X4179587Y-12000484D02*
X4179587Y-11800484D01*
X4265301Y-12000484D02*
X4265301Y-11895722D01*
X4265301Y-11895722D02*
X4255777Y-11876674D01*
X4255777Y-11876674D02*
X4236730Y-11867150D01*
X4236730Y-11867150D02*
X4208158Y-11867150D01*
X4208158Y-11867150D02*
X4189110Y-11876674D01*
X4189110Y-11876674D02*
X4179587Y-11886198D01*
X4389111Y-12000484D02*
X4370063Y-11990960D01*
X4370063Y-11990960D02*
X4360539Y-11981436D01*
X4360539Y-11981436D02*
X4351015Y-11962388D01*
X4351015Y-11962388D02*
X4351015Y-11905246D01*
X4351015Y-11905246D02*
X4360539Y-11886198D01*
X4360539Y-11886198D02*
X4370063Y-11876674D01*
X4370063Y-11876674D02*
X4389111Y-11867150D01*
X4389111Y-11867150D02*
X4417682Y-11867150D01*
X4417682Y-11867150D02*
X4436730Y-11876674D01*
X4436730Y-11876674D02*
X4446253Y-11886198D01*
X4446253Y-11886198D02*
X4455777Y-11905246D01*
X4455777Y-11905246D02*
X4455777Y-11962388D01*
X4455777Y-11962388D02*
X4446253Y-11981436D01*
X4446253Y-11981436D02*
X4436730Y-11990960D01*
X4436730Y-11990960D02*
X4417682Y-12000484D01*
X4417682Y-12000484D02*
X4389111Y-12000484D01*
X4570063Y-12000484D02*
X4551015Y-11990960D01*
X4551015Y-11990960D02*
X4541492Y-11971912D01*
X4541492Y-11971912D02*
X4541492Y-11800484D01*
X4722444Y-11990960D02*
X4703396Y-12000484D01*
X4703396Y-12000484D02*
X4665301Y-12000484D01*
X4665301Y-12000484D02*
X4646253Y-11990960D01*
X4646253Y-11990960D02*
X4636730Y-11971912D01*
X4636730Y-11971912D02*
X4636730Y-11895722D01*
X4636730Y-11895722D02*
X4646253Y-11876674D01*
X4646253Y-11876674D02*
X4665301Y-11867150D01*
X4665301Y-11867150D02*
X4703396Y-11867150D01*
X4703396Y-11867150D02*
X4722444Y-11876674D01*
X4722444Y-11876674D02*
X4731968Y-11895722D01*
X4731968Y-11895722D02*
X4731968Y-11914769D01*
X4731968Y-11914769D02*
X4636730Y-11933817D01*
X4808158Y-11990960D02*
X4827206Y-12000484D01*
X4827206Y-12000484D02*
X4865301Y-12000484D01*
X4865301Y-12000484D02*
X4884349Y-11990960D01*
X4884349Y-11990960D02*
X4893873Y-11971912D01*
X4893873Y-11971912D02*
X4893873Y-11962388D01*
X4893873Y-11962388D02*
X4884349Y-11943341D01*
X4884349Y-11943341D02*
X4865301Y-11933817D01*
X4865301Y-11933817D02*
X4836730Y-11933817D01*
X4836730Y-11933817D02*
X4817682Y-11924293D01*
X4817682Y-11924293D02*
X4808158Y-11905246D01*
X4808158Y-11905246D02*
X4808158Y-11895722D01*
X4808158Y-11895722D02*
X4817682Y-11876674D01*
X4817682Y-11876674D02*
X4836730Y-11867150D01*
X4836730Y-11867150D02*
X4865301Y-11867150D01*
X4865301Y-11867150D02*
X4884349Y-11876674D01*
X4960539Y-12076674D02*
X4970063Y-12067150D01*
X4970063Y-12067150D02*
X4989111Y-12038579D01*
X4989111Y-12038579D02*
X4998634Y-12019531D01*
X4998634Y-12019531D02*
X5008158Y-11990960D01*
X5008158Y-11990960D02*
X5017682Y-11943341D01*
X5017682Y-11943341D02*
X5017682Y-11905246D01*
X5017682Y-11905246D02*
X5008158Y-11857627D01*
X5008158Y-11857627D02*
X4998634Y-11829055D01*
X4998634Y-11829055D02*
X4989111Y-11810008D01*
X4989111Y-11810008D02*
X4970063Y-11781436D01*
X4970063Y-11781436D02*
X4960539Y-11771912D01*
D10*
X-45640Y-12132360D02*
X-45640Y-12213640D01*
X-86280Y-12173000D02*
X-5000Y-12173000D01*
D11*
X293872Y-12064484D02*
X312920Y-12064484D01*
X312920Y-12064484D02*
X331967Y-12074008D01*
X331967Y-12074008D02*
X341491Y-12083531D01*
X341491Y-12083531D02*
X351015Y-12102579D01*
X351015Y-12102579D02*
X360539Y-12140674D01*
X360539Y-12140674D02*
X360539Y-12188293D01*
X360539Y-12188293D02*
X351015Y-12226388D01*
X351015Y-12226388D02*
X341491Y-12245436D01*
X341491Y-12245436D02*
X331967Y-12254960D01*
X331967Y-12254960D02*
X312920Y-12264484D01*
X312920Y-12264484D02*
X293872Y-12264484D01*
X293872Y-12264484D02*
X274824Y-12254960D01*
X274824Y-12254960D02*
X265301Y-12245436D01*
X265301Y-12245436D02*
X255777Y-12226388D01*
X255777Y-12226388D02*
X246253Y-12188293D01*
X246253Y-12188293D02*
X246253Y-12140674D01*
X246253Y-12140674D02*
X255777Y-12102579D01*
X255777Y-12102579D02*
X265301Y-12083531D01*
X265301Y-12083531D02*
X274824Y-12074008D01*
X274824Y-12074008D02*
X293872Y-12064484D01*
X446253Y-12245436D02*
X455777Y-12254960D01*
X455777Y-12254960D02*
X446253Y-12264484D01*
X446253Y-12264484D02*
X436729Y-12254960D01*
X436729Y-12254960D02*
X446253Y-12245436D01*
X446253Y-12245436D02*
X446253Y-12264484D01*
X570063Y-12150198D02*
X551015Y-12140674D01*
X551015Y-12140674D02*
X541491Y-12131150D01*
X541491Y-12131150D02*
X531967Y-12112103D01*
X531967Y-12112103D02*
X531967Y-12102579D01*
X531967Y-12102579D02*
X541491Y-12083531D01*
X541491Y-12083531D02*
X551015Y-12074008D01*
X551015Y-12074008D02*
X570063Y-12064484D01*
X570063Y-12064484D02*
X608158Y-12064484D01*
X608158Y-12064484D02*
X627205Y-12074008D01*
X627205Y-12074008D02*
X636729Y-12083531D01*
X636729Y-12083531D02*
X646253Y-12102579D01*
X646253Y-12102579D02*
X646253Y-12112103D01*
X646253Y-12112103D02*
X636729Y-12131150D01*
X636729Y-12131150D02*
X627205Y-12140674D01*
X627205Y-12140674D02*
X608158Y-12150198D01*
X608158Y-12150198D02*
X570063Y-12150198D01*
X570063Y-12150198D02*
X551015Y-12159722D01*
X551015Y-12159722D02*
X541491Y-12169246D01*
X541491Y-12169246D02*
X531967Y-12188293D01*
X531967Y-12188293D02*
X531967Y-12226388D01*
X531967Y-12226388D02*
X541491Y-12245436D01*
X541491Y-12245436D02*
X551015Y-12254960D01*
X551015Y-12254960D02*
X570063Y-12264484D01*
X570063Y-12264484D02*
X608158Y-12264484D01*
X608158Y-12264484D02*
X627205Y-12254960D01*
X627205Y-12254960D02*
X636729Y-12245436D01*
X636729Y-12245436D02*
X646253Y-12226388D01*
X646253Y-12226388D02*
X646253Y-12188293D01*
X646253Y-12188293D02*
X636729Y-12169246D01*
X636729Y-12169246D02*
X627205Y-12159722D01*
X627205Y-12159722D02*
X608158Y-12150198D01*
X836729Y-12264484D02*
X722443Y-12264484D01*
X779586Y-12264484D02*
X779586Y-12064484D01*
X779586Y-12064484D02*
X760539Y-12093055D01*
X760539Y-12093055D02*
X741491Y-12112103D01*
X741491Y-12112103D02*
X722443Y-12121627D01*
X903396Y-12064484D02*
X1027205Y-12064484D01*
X1027205Y-12064484D02*
X960539Y-12140674D01*
X960539Y-12140674D02*
X989110Y-12140674D01*
X989110Y-12140674D02*
X1008158Y-12150198D01*
X1008158Y-12150198D02*
X1017682Y-12159722D01*
X1017682Y-12159722D02*
X1027205Y-12178769D01*
X1027205Y-12178769D02*
X1027205Y-12226388D01*
X1027205Y-12226388D02*
X1017682Y-12245436D01*
X1017682Y-12245436D02*
X1008158Y-12254960D01*
X1008158Y-12254960D02*
X989110Y-12264484D01*
X989110Y-12264484D02*
X931967Y-12264484D01*
X931967Y-12264484D02*
X912920Y-12254960D01*
X912920Y-12254960D02*
X903396Y-12245436D01*
X1112920Y-12264484D02*
X1112920Y-12131150D01*
X1112920Y-12150198D02*
X1122444Y-12140674D01*
X1122444Y-12140674D02*
X1141491Y-12131150D01*
X1141491Y-12131150D02*
X1170063Y-12131150D01*
X1170063Y-12131150D02*
X1189110Y-12140674D01*
X1189110Y-12140674D02*
X1198634Y-12159722D01*
X1198634Y-12159722D02*
X1198634Y-12264484D01*
X1198634Y-12159722D02*
X1208158Y-12140674D01*
X1208158Y-12140674D02*
X1227205Y-12131150D01*
X1227205Y-12131150D02*
X1255777Y-12131150D01*
X1255777Y-12131150D02*
X1274825Y-12140674D01*
X1274825Y-12140674D02*
X1284348Y-12159722D01*
X1284348Y-12159722D02*
X1284348Y-12264484D01*
X1379586Y-12264484D02*
X1379586Y-12131150D01*
X1379586Y-12150198D02*
X1389110Y-12140674D01*
X1389110Y-12140674D02*
X1408158Y-12131150D01*
X1408158Y-12131150D02*
X1436729Y-12131150D01*
X1436729Y-12131150D02*
X1455777Y-12140674D01*
X1455777Y-12140674D02*
X1465301Y-12159722D01*
X1465301Y-12159722D02*
X1465301Y-12264484D01*
X1465301Y-12159722D02*
X1474824Y-12140674D01*
X1474824Y-12140674D02*
X1493872Y-12131150D01*
X1493872Y-12131150D02*
X1522443Y-12131150D01*
X1522443Y-12131150D02*
X1541491Y-12140674D01*
X1541491Y-12140674D02*
X1551015Y-12159722D01*
X1551015Y-12159722D02*
X1551015Y-12264484D01*
X1941491Y-12054960D02*
X1770063Y-12312103D01*
X2198634Y-12064484D02*
X2217682Y-12064484D01*
X2217682Y-12064484D02*
X2236729Y-12074008D01*
X2236729Y-12074008D02*
X2246253Y-12083531D01*
X2246253Y-12083531D02*
X2255777Y-12102579D01*
X2255777Y-12102579D02*
X2265301Y-12140674D01*
X2265301Y-12140674D02*
X2265301Y-12188293D01*
X2265301Y-12188293D02*
X2255777Y-12226388D01*
X2255777Y-12226388D02*
X2246253Y-12245436D01*
X2246253Y-12245436D02*
X2236729Y-12254960D01*
X2236729Y-12254960D02*
X2217682Y-12264484D01*
X2217682Y-12264484D02*
X2198634Y-12264484D01*
X2198634Y-12264484D02*
X2179587Y-12254960D01*
X2179587Y-12254960D02*
X2170063Y-12245436D01*
X2170063Y-12245436D02*
X2160539Y-12226388D01*
X2160539Y-12226388D02*
X2151015Y-12188293D01*
X2151015Y-12188293D02*
X2151015Y-12140674D01*
X2151015Y-12140674D02*
X2160539Y-12102579D01*
X2160539Y-12102579D02*
X2170063Y-12083531D01*
X2170063Y-12083531D02*
X2179587Y-12074008D01*
X2179587Y-12074008D02*
X2198634Y-12064484D01*
X2351015Y-12245436D02*
X2360539Y-12254960D01*
X2360539Y-12254960D02*
X2351015Y-12264484D01*
X2351015Y-12264484D02*
X2341491Y-12254960D01*
X2341491Y-12254960D02*
X2351015Y-12245436D01*
X2351015Y-12245436D02*
X2351015Y-12264484D01*
X2484348Y-12064484D02*
X2503396Y-12064484D01*
X2503396Y-12064484D02*
X2522444Y-12074008D01*
X2522444Y-12074008D02*
X2531968Y-12083531D01*
X2531968Y-12083531D02*
X2541491Y-12102579D01*
X2541491Y-12102579D02*
X2551015Y-12140674D01*
X2551015Y-12140674D02*
X2551015Y-12188293D01*
X2551015Y-12188293D02*
X2541491Y-12226388D01*
X2541491Y-12226388D02*
X2531968Y-12245436D01*
X2531968Y-12245436D02*
X2522444Y-12254960D01*
X2522444Y-12254960D02*
X2503396Y-12264484D01*
X2503396Y-12264484D02*
X2484348Y-12264484D01*
X2484348Y-12264484D02*
X2465301Y-12254960D01*
X2465301Y-12254960D02*
X2455777Y-12245436D01*
X2455777Y-12245436D02*
X2446253Y-12226388D01*
X2446253Y-12226388D02*
X2436729Y-12188293D01*
X2436729Y-12188293D02*
X2436729Y-12140674D01*
X2436729Y-12140674D02*
X2446253Y-12102579D01*
X2446253Y-12102579D02*
X2455777Y-12083531D01*
X2455777Y-12083531D02*
X2465301Y-12074008D01*
X2465301Y-12074008D02*
X2484348Y-12064484D01*
X2617682Y-12064484D02*
X2741491Y-12064484D01*
X2741491Y-12064484D02*
X2674825Y-12140674D01*
X2674825Y-12140674D02*
X2703396Y-12140674D01*
X2703396Y-12140674D02*
X2722444Y-12150198D01*
X2722444Y-12150198D02*
X2731968Y-12159722D01*
X2731968Y-12159722D02*
X2741491Y-12178769D01*
X2741491Y-12178769D02*
X2741491Y-12226388D01*
X2741491Y-12226388D02*
X2731968Y-12245436D01*
X2731968Y-12245436D02*
X2722444Y-12254960D01*
X2722444Y-12254960D02*
X2703396Y-12264484D01*
X2703396Y-12264484D02*
X2646253Y-12264484D01*
X2646253Y-12264484D02*
X2627206Y-12254960D01*
X2627206Y-12254960D02*
X2617682Y-12245436D01*
X2817682Y-12083531D02*
X2827206Y-12074008D01*
X2827206Y-12074008D02*
X2846253Y-12064484D01*
X2846253Y-12064484D02*
X2893872Y-12064484D01*
X2893872Y-12064484D02*
X2912920Y-12074008D01*
X2912920Y-12074008D02*
X2922444Y-12083531D01*
X2922444Y-12083531D02*
X2931967Y-12102579D01*
X2931967Y-12102579D02*
X2931967Y-12121627D01*
X2931967Y-12121627D02*
X2922444Y-12150198D01*
X2922444Y-12150198D02*
X2808158Y-12264484D01*
X2808158Y-12264484D02*
X2931967Y-12264484D01*
X3055777Y-12064484D02*
X3074825Y-12064484D01*
X3074825Y-12064484D02*
X3093872Y-12074008D01*
X3093872Y-12074008D02*
X3103396Y-12083531D01*
X3103396Y-12083531D02*
X3112920Y-12102579D01*
X3112920Y-12102579D02*
X3122444Y-12140674D01*
X3122444Y-12140674D02*
X3122444Y-12188293D01*
X3122444Y-12188293D02*
X3112920Y-12226388D01*
X3112920Y-12226388D02*
X3103396Y-12245436D01*
X3103396Y-12245436D02*
X3093872Y-12254960D01*
X3093872Y-12254960D02*
X3074825Y-12264484D01*
X3074825Y-12264484D02*
X3055777Y-12264484D01*
X3055777Y-12264484D02*
X3036729Y-12254960D01*
X3036729Y-12254960D02*
X3027206Y-12245436D01*
X3027206Y-12245436D02*
X3017682Y-12226388D01*
X3017682Y-12226388D02*
X3008158Y-12188293D01*
X3008158Y-12188293D02*
X3008158Y-12140674D01*
X3008158Y-12140674D02*
X3017682Y-12102579D01*
X3017682Y-12102579D02*
X3027206Y-12083531D01*
X3027206Y-12083531D02*
X3036729Y-12074008D01*
X3036729Y-12074008D02*
X3055777Y-12064484D01*
X3198634Y-12064484D02*
X3198634Y-12102579D01*
X3274825Y-12064484D02*
X3274825Y-12102579D01*
X3570063Y-12340674D02*
X3560539Y-12331150D01*
X3560539Y-12331150D02*
X3541491Y-12302579D01*
X3541491Y-12302579D02*
X3531968Y-12283531D01*
X3531968Y-12283531D02*
X3522444Y-12254960D01*
X3522444Y-12254960D02*
X3512920Y-12207341D01*
X3512920Y-12207341D02*
X3512920Y-12169246D01*
X3512920Y-12169246D02*
X3522444Y-12121627D01*
X3522444Y-12121627D02*
X3531968Y-12093055D01*
X3531968Y-12093055D02*
X3541491Y-12074008D01*
X3541491Y-12074008D02*
X3560539Y-12045436D01*
X3560539Y-12045436D02*
X3570063Y-12035912D01*
X3636729Y-12083531D02*
X3646253Y-12074008D01*
X3646253Y-12074008D02*
X3665301Y-12064484D01*
X3665301Y-12064484D02*
X3712920Y-12064484D01*
X3712920Y-12064484D02*
X3731968Y-12074008D01*
X3731968Y-12074008D02*
X3741491Y-12083531D01*
X3741491Y-12083531D02*
X3751015Y-12102579D01*
X3751015Y-12102579D02*
X3751015Y-12121627D01*
X3751015Y-12121627D02*
X3741491Y-12150198D01*
X3741491Y-12150198D02*
X3627206Y-12264484D01*
X3627206Y-12264484D02*
X3751015Y-12264484D01*
X3922444Y-12131150D02*
X3922444Y-12264484D01*
X3874825Y-12054960D02*
X3827206Y-12197817D01*
X3827206Y-12197817D02*
X3951015Y-12197817D01*
X4179587Y-12264484D02*
X4179587Y-12064484D01*
X4265301Y-12264484D02*
X4265301Y-12159722D01*
X4265301Y-12159722D02*
X4255777Y-12140674D01*
X4255777Y-12140674D02*
X4236730Y-12131150D01*
X4236730Y-12131150D02*
X4208158Y-12131150D01*
X4208158Y-12131150D02*
X4189110Y-12140674D01*
X4189110Y-12140674D02*
X4179587Y-12150198D01*
X4389111Y-12264484D02*
X4370063Y-12254960D01*
X4370063Y-12254960D02*
X4360539Y-12245436D01*
X4360539Y-12245436D02*
X4351015Y-12226388D01*
X4351015Y-12226388D02*
X4351015Y-12169246D01*
X4351015Y-12169246D02*
X4360539Y-12150198D01*
X4360539Y-12150198D02*
X4370063Y-12140674D01*
X4370063Y-12140674D02*
X4389111Y-12131150D01*
X4389111Y-12131150D02*
X4417682Y-12131150D01*
X4417682Y-12131150D02*
X4436730Y-12140674D01*
X4436730Y-12140674D02*
X4446253Y-12150198D01*
X4446253Y-12150198D02*
X4455777Y-12169246D01*
X4455777Y-12169246D02*
X4455777Y-12226388D01*
X4455777Y-12226388D02*
X4446253Y-12245436D01*
X4446253Y-12245436D02*
X4436730Y-12254960D01*
X4436730Y-12254960D02*
X4417682Y-12264484D01*
X4417682Y-12264484D02*
X4389111Y-12264484D01*
X4570063Y-12264484D02*
X4551015Y-12254960D01*
X4551015Y-12254960D02*
X4541492Y-12235912D01*
X4541492Y-12235912D02*
X4541492Y-12064484D01*
X4722444Y-12254960D02*
X4703396Y-12264484D01*
X4703396Y-12264484D02*
X4665301Y-12264484D01*
X4665301Y-12264484D02*
X4646253Y-12254960D01*
X4646253Y-12254960D02*
X4636730Y-12235912D01*
X4636730Y-12235912D02*
X4636730Y-12159722D01*
X4636730Y-12159722D02*
X4646253Y-12140674D01*
X4646253Y-12140674D02*
X4665301Y-12131150D01*
X4665301Y-12131150D02*
X4703396Y-12131150D01*
X4703396Y-12131150D02*
X4722444Y-12140674D01*
X4722444Y-12140674D02*
X4731968Y-12159722D01*
X4731968Y-12159722D02*
X4731968Y-12178769D01*
X4731968Y-12178769D02*
X4636730Y-12197817D01*
X4808158Y-12254960D02*
X4827206Y-12264484D01*
X4827206Y-12264484D02*
X4865301Y-12264484D01*
X4865301Y-12264484D02*
X4884349Y-12254960D01*
X4884349Y-12254960D02*
X4893873Y-12235912D01*
X4893873Y-12235912D02*
X4893873Y-12226388D01*
X4893873Y-12226388D02*
X4884349Y-12207341D01*
X4884349Y-12207341D02*
X4865301Y-12197817D01*
X4865301Y-12197817D02*
X4836730Y-12197817D01*
X4836730Y-12197817D02*
X4817682Y-12188293D01*
X4817682Y-12188293D02*
X4808158Y-12169246D01*
X4808158Y-12169246D02*
X4808158Y-12159722D01*
X4808158Y-12159722D02*
X4817682Y-12140674D01*
X4817682Y-12140674D02*
X4836730Y-12131150D01*
X4836730Y-12131150D02*
X4865301Y-12131150D01*
X4865301Y-12131150D02*
X4884349Y-12140674D01*
X4960539Y-12340674D02*
X4970063Y-12331150D01*
X4970063Y-12331150D02*
X4989111Y-12302579D01*
X4989111Y-12302579D02*
X4998634Y-12283531D01*
X4998634Y-12283531D02*
X5008158Y-12254960D01*
X5008158Y-12254960D02*
X5017682Y-12207341D01*
X5017682Y-12207341D02*
X5017682Y-12169246D01*
X5017682Y-12169246D02*
X5008158Y-12121627D01*
X5008158Y-12121627D02*
X4998634Y-12093055D01*
X4998634Y-12093055D02*
X4989111Y-12074008D01*
X4989111Y-12074008D02*
X4970063Y-12045436D01*
X4970063Y-12045436D02*
X4960539Y-12035912D01*
D10*
X-19644Y-12472356D02*
X-19644Y-12401644D01*
X-90356Y-12401644D01*
X-90356Y-12472356D01*
X-19644Y-12472356D01*
D11*
X360539Y-12528484D02*
X246253Y-12528484D01*
X303396Y-12528484D02*
X303396Y-12328484D01*
X303396Y-12328484D02*
X284348Y-12357055D01*
X284348Y-12357055D02*
X265301Y-12376103D01*
X265301Y-12376103D02*
X246253Y-12385627D01*
X446253Y-12509436D02*
X455777Y-12518960D01*
X455777Y-12518960D02*
X446253Y-12528484D01*
X446253Y-12528484D02*
X436729Y-12518960D01*
X436729Y-12518960D02*
X446253Y-12509436D01*
X446253Y-12509436D02*
X446253Y-12528484D01*
X579586Y-12328484D02*
X598634Y-12328484D01*
X598634Y-12328484D02*
X617682Y-12338008D01*
X617682Y-12338008D02*
X627205Y-12347531D01*
X627205Y-12347531D02*
X636729Y-12366579D01*
X636729Y-12366579D02*
X646253Y-12404674D01*
X646253Y-12404674D02*
X646253Y-12452293D01*
X646253Y-12452293D02*
X636729Y-12490388D01*
X636729Y-12490388D02*
X627205Y-12509436D01*
X627205Y-12509436D02*
X617682Y-12518960D01*
X617682Y-12518960D02*
X598634Y-12528484D01*
X598634Y-12528484D02*
X579586Y-12528484D01*
X579586Y-12528484D02*
X560539Y-12518960D01*
X560539Y-12518960D02*
X551015Y-12509436D01*
X551015Y-12509436D02*
X541491Y-12490388D01*
X541491Y-12490388D02*
X531967Y-12452293D01*
X531967Y-12452293D02*
X531967Y-12404674D01*
X531967Y-12404674D02*
X541491Y-12366579D01*
X541491Y-12366579D02*
X551015Y-12347531D01*
X551015Y-12347531D02*
X560539Y-12338008D01*
X560539Y-12338008D02*
X579586Y-12328484D01*
X770062Y-12328484D02*
X789110Y-12328484D01*
X789110Y-12328484D02*
X808158Y-12338008D01*
X808158Y-12338008D02*
X817682Y-12347531D01*
X817682Y-12347531D02*
X827205Y-12366579D01*
X827205Y-12366579D02*
X836729Y-12404674D01*
X836729Y-12404674D02*
X836729Y-12452293D01*
X836729Y-12452293D02*
X827205Y-12490388D01*
X827205Y-12490388D02*
X817682Y-12509436D01*
X817682Y-12509436D02*
X808158Y-12518960D01*
X808158Y-12518960D02*
X789110Y-12528484D01*
X789110Y-12528484D02*
X770062Y-12528484D01*
X770062Y-12528484D02*
X751015Y-12518960D01*
X751015Y-12518960D02*
X741491Y-12509436D01*
X741491Y-12509436D02*
X731967Y-12490388D01*
X731967Y-12490388D02*
X722443Y-12452293D01*
X722443Y-12452293D02*
X722443Y-12404674D01*
X722443Y-12404674D02*
X731967Y-12366579D01*
X731967Y-12366579D02*
X741491Y-12347531D01*
X741491Y-12347531D02*
X751015Y-12338008D01*
X751015Y-12338008D02*
X770062Y-12328484D01*
X960539Y-12328484D02*
X979586Y-12328484D01*
X979586Y-12328484D02*
X998634Y-12338008D01*
X998634Y-12338008D02*
X1008158Y-12347531D01*
X1008158Y-12347531D02*
X1017682Y-12366579D01*
X1017682Y-12366579D02*
X1027205Y-12404674D01*
X1027205Y-12404674D02*
X1027205Y-12452293D01*
X1027205Y-12452293D02*
X1017682Y-12490388D01*
X1017682Y-12490388D02*
X1008158Y-12509436D01*
X1008158Y-12509436D02*
X998634Y-12518960D01*
X998634Y-12518960D02*
X979586Y-12528484D01*
X979586Y-12528484D02*
X960539Y-12528484D01*
X960539Y-12528484D02*
X941491Y-12518960D01*
X941491Y-12518960D02*
X931967Y-12509436D01*
X931967Y-12509436D02*
X922443Y-12490388D01*
X922443Y-12490388D02*
X912920Y-12452293D01*
X912920Y-12452293D02*
X912920Y-12404674D01*
X912920Y-12404674D02*
X922443Y-12366579D01*
X922443Y-12366579D02*
X931967Y-12347531D01*
X931967Y-12347531D02*
X941491Y-12338008D01*
X941491Y-12338008D02*
X960539Y-12328484D01*
X1112920Y-12528484D02*
X1112920Y-12395150D01*
X1112920Y-12414198D02*
X1122444Y-12404674D01*
X1122444Y-12404674D02*
X1141491Y-12395150D01*
X1141491Y-12395150D02*
X1170063Y-12395150D01*
X1170063Y-12395150D02*
X1189110Y-12404674D01*
X1189110Y-12404674D02*
X1198634Y-12423722D01*
X1198634Y-12423722D02*
X1198634Y-12528484D01*
X1198634Y-12423722D02*
X1208158Y-12404674D01*
X1208158Y-12404674D02*
X1227205Y-12395150D01*
X1227205Y-12395150D02*
X1255777Y-12395150D01*
X1255777Y-12395150D02*
X1274825Y-12404674D01*
X1274825Y-12404674D02*
X1284348Y-12423722D01*
X1284348Y-12423722D02*
X1284348Y-12528484D01*
X1379586Y-12528484D02*
X1379586Y-12395150D01*
X1379586Y-12414198D02*
X1389110Y-12404674D01*
X1389110Y-12404674D02*
X1408158Y-12395150D01*
X1408158Y-12395150D02*
X1436729Y-12395150D01*
X1436729Y-12395150D02*
X1455777Y-12404674D01*
X1455777Y-12404674D02*
X1465301Y-12423722D01*
X1465301Y-12423722D02*
X1465301Y-12528484D01*
X1465301Y-12423722D02*
X1474824Y-12404674D01*
X1474824Y-12404674D02*
X1493872Y-12395150D01*
X1493872Y-12395150D02*
X1522443Y-12395150D01*
X1522443Y-12395150D02*
X1541491Y-12404674D01*
X1541491Y-12404674D02*
X1551015Y-12423722D01*
X1551015Y-12423722D02*
X1551015Y-12528484D01*
X1941491Y-12318960D02*
X1770063Y-12576103D01*
X2198634Y-12328484D02*
X2217682Y-12328484D01*
X2217682Y-12328484D02*
X2236729Y-12338008D01*
X2236729Y-12338008D02*
X2246253Y-12347531D01*
X2246253Y-12347531D02*
X2255777Y-12366579D01*
X2255777Y-12366579D02*
X2265301Y-12404674D01*
X2265301Y-12404674D02*
X2265301Y-12452293D01*
X2265301Y-12452293D02*
X2255777Y-12490388D01*
X2255777Y-12490388D02*
X2246253Y-12509436D01*
X2246253Y-12509436D02*
X2236729Y-12518960D01*
X2236729Y-12518960D02*
X2217682Y-12528484D01*
X2217682Y-12528484D02*
X2198634Y-12528484D01*
X2198634Y-12528484D02*
X2179587Y-12518960D01*
X2179587Y-12518960D02*
X2170063Y-12509436D01*
X2170063Y-12509436D02*
X2160539Y-12490388D01*
X2160539Y-12490388D02*
X2151015Y-12452293D01*
X2151015Y-12452293D02*
X2151015Y-12404674D01*
X2151015Y-12404674D02*
X2160539Y-12366579D01*
X2160539Y-12366579D02*
X2170063Y-12347531D01*
X2170063Y-12347531D02*
X2179587Y-12338008D01*
X2179587Y-12338008D02*
X2198634Y-12328484D01*
X2351015Y-12509436D02*
X2360539Y-12518960D01*
X2360539Y-12518960D02*
X2351015Y-12528484D01*
X2351015Y-12528484D02*
X2341491Y-12518960D01*
X2341491Y-12518960D02*
X2351015Y-12509436D01*
X2351015Y-12509436D02*
X2351015Y-12528484D01*
X2484348Y-12328484D02*
X2503396Y-12328484D01*
X2503396Y-12328484D02*
X2522444Y-12338008D01*
X2522444Y-12338008D02*
X2531968Y-12347531D01*
X2531968Y-12347531D02*
X2541491Y-12366579D01*
X2541491Y-12366579D02*
X2551015Y-12404674D01*
X2551015Y-12404674D02*
X2551015Y-12452293D01*
X2551015Y-12452293D02*
X2541491Y-12490388D01*
X2541491Y-12490388D02*
X2531968Y-12509436D01*
X2531968Y-12509436D02*
X2522444Y-12518960D01*
X2522444Y-12518960D02*
X2503396Y-12528484D01*
X2503396Y-12528484D02*
X2484348Y-12528484D01*
X2484348Y-12528484D02*
X2465301Y-12518960D01*
X2465301Y-12518960D02*
X2455777Y-12509436D01*
X2455777Y-12509436D02*
X2446253Y-12490388D01*
X2446253Y-12490388D02*
X2436729Y-12452293D01*
X2436729Y-12452293D02*
X2436729Y-12404674D01*
X2436729Y-12404674D02*
X2446253Y-12366579D01*
X2446253Y-12366579D02*
X2455777Y-12347531D01*
X2455777Y-12347531D02*
X2465301Y-12338008D01*
X2465301Y-12338008D02*
X2484348Y-12328484D01*
X2617682Y-12328484D02*
X2741491Y-12328484D01*
X2741491Y-12328484D02*
X2674825Y-12404674D01*
X2674825Y-12404674D02*
X2703396Y-12404674D01*
X2703396Y-12404674D02*
X2722444Y-12414198D01*
X2722444Y-12414198D02*
X2731968Y-12423722D01*
X2731968Y-12423722D02*
X2741491Y-12442769D01*
X2741491Y-12442769D02*
X2741491Y-12490388D01*
X2741491Y-12490388D02*
X2731968Y-12509436D01*
X2731968Y-12509436D02*
X2722444Y-12518960D01*
X2722444Y-12518960D02*
X2703396Y-12528484D01*
X2703396Y-12528484D02*
X2646253Y-12528484D01*
X2646253Y-12528484D02*
X2627206Y-12518960D01*
X2627206Y-12518960D02*
X2617682Y-12509436D01*
X2836729Y-12528484D02*
X2874825Y-12528484D01*
X2874825Y-12528484D02*
X2893872Y-12518960D01*
X2893872Y-12518960D02*
X2903396Y-12509436D01*
X2903396Y-12509436D02*
X2922444Y-12480865D01*
X2922444Y-12480865D02*
X2931967Y-12442769D01*
X2931967Y-12442769D02*
X2931967Y-12366579D01*
X2931967Y-12366579D02*
X2922444Y-12347531D01*
X2922444Y-12347531D02*
X2912920Y-12338008D01*
X2912920Y-12338008D02*
X2893872Y-12328484D01*
X2893872Y-12328484D02*
X2855777Y-12328484D01*
X2855777Y-12328484D02*
X2836729Y-12338008D01*
X2836729Y-12338008D02*
X2827206Y-12347531D01*
X2827206Y-12347531D02*
X2817682Y-12366579D01*
X2817682Y-12366579D02*
X2817682Y-12414198D01*
X2817682Y-12414198D02*
X2827206Y-12433246D01*
X2827206Y-12433246D02*
X2836729Y-12442769D01*
X2836729Y-12442769D02*
X2855777Y-12452293D01*
X2855777Y-12452293D02*
X2893872Y-12452293D01*
X2893872Y-12452293D02*
X2912920Y-12442769D01*
X2912920Y-12442769D02*
X2922444Y-12433246D01*
X2922444Y-12433246D02*
X2931967Y-12414198D01*
X3103396Y-12395150D02*
X3103396Y-12528484D01*
X3055777Y-12318960D02*
X3008158Y-12461817D01*
X3008158Y-12461817D02*
X3131967Y-12461817D01*
X3198634Y-12328484D02*
X3198634Y-12366579D01*
X3274825Y-12328484D02*
X3274825Y-12366579D01*
X3570063Y-12604674D02*
X3560539Y-12595150D01*
X3560539Y-12595150D02*
X3541491Y-12566579D01*
X3541491Y-12566579D02*
X3531968Y-12547531D01*
X3531968Y-12547531D02*
X3522444Y-12518960D01*
X3522444Y-12518960D02*
X3512920Y-12471341D01*
X3512920Y-12471341D02*
X3512920Y-12433246D01*
X3512920Y-12433246D02*
X3522444Y-12385627D01*
X3522444Y-12385627D02*
X3531968Y-12357055D01*
X3531968Y-12357055D02*
X3541491Y-12338008D01*
X3541491Y-12338008D02*
X3560539Y-12309436D01*
X3560539Y-12309436D02*
X3570063Y-12299912D01*
X3731968Y-12395150D02*
X3731968Y-12528484D01*
X3684348Y-12318960D02*
X3636729Y-12461817D01*
X3636729Y-12461817D02*
X3760539Y-12461817D01*
X3865301Y-12414198D02*
X3846253Y-12404674D01*
X3846253Y-12404674D02*
X3836729Y-12395150D01*
X3836729Y-12395150D02*
X3827206Y-12376103D01*
X3827206Y-12376103D02*
X3827206Y-12366579D01*
X3827206Y-12366579D02*
X3836729Y-12347531D01*
X3836729Y-12347531D02*
X3846253Y-12338008D01*
X3846253Y-12338008D02*
X3865301Y-12328484D01*
X3865301Y-12328484D02*
X3903396Y-12328484D01*
X3903396Y-12328484D02*
X3922444Y-12338008D01*
X3922444Y-12338008D02*
X3931968Y-12347531D01*
X3931968Y-12347531D02*
X3941491Y-12366579D01*
X3941491Y-12366579D02*
X3941491Y-12376103D01*
X3941491Y-12376103D02*
X3931968Y-12395150D01*
X3931968Y-12395150D02*
X3922444Y-12404674D01*
X3922444Y-12404674D02*
X3903396Y-12414198D01*
X3903396Y-12414198D02*
X3865301Y-12414198D01*
X3865301Y-12414198D02*
X3846253Y-12423722D01*
X3846253Y-12423722D02*
X3836729Y-12433246D01*
X3836729Y-12433246D02*
X3827206Y-12452293D01*
X3827206Y-12452293D02*
X3827206Y-12490388D01*
X3827206Y-12490388D02*
X3836729Y-12509436D01*
X3836729Y-12509436D02*
X3846253Y-12518960D01*
X3846253Y-12518960D02*
X3865301Y-12528484D01*
X3865301Y-12528484D02*
X3903396Y-12528484D01*
X3903396Y-12528484D02*
X3922444Y-12518960D01*
X3922444Y-12518960D02*
X3931968Y-12509436D01*
X3931968Y-12509436D02*
X3941491Y-12490388D01*
X3941491Y-12490388D02*
X3941491Y-12452293D01*
X3941491Y-12452293D02*
X3931968Y-12433246D01*
X3931968Y-12433246D02*
X3922444Y-12423722D01*
X3922444Y-12423722D02*
X3903396Y-12414198D01*
X4179587Y-12528484D02*
X4179587Y-12328484D01*
X4265301Y-12528484D02*
X4265301Y-12423722D01*
X4265301Y-12423722D02*
X4255777Y-12404674D01*
X4255777Y-12404674D02*
X4236730Y-12395150D01*
X4236730Y-12395150D02*
X4208158Y-12395150D01*
X4208158Y-12395150D02*
X4189110Y-12404674D01*
X4189110Y-12404674D02*
X4179587Y-12414198D01*
X4389111Y-12528484D02*
X4370063Y-12518960D01*
X4370063Y-12518960D02*
X4360539Y-12509436D01*
X4360539Y-12509436D02*
X4351015Y-12490388D01*
X4351015Y-12490388D02*
X4351015Y-12433246D01*
X4351015Y-12433246D02*
X4360539Y-12414198D01*
X4360539Y-12414198D02*
X4370063Y-12404674D01*
X4370063Y-12404674D02*
X4389111Y-12395150D01*
X4389111Y-12395150D02*
X4417682Y-12395150D01*
X4417682Y-12395150D02*
X4436730Y-12404674D01*
X4436730Y-12404674D02*
X4446253Y-12414198D01*
X4446253Y-12414198D02*
X4455777Y-12433246D01*
X4455777Y-12433246D02*
X4455777Y-12490388D01*
X4455777Y-12490388D02*
X4446253Y-12509436D01*
X4446253Y-12509436D02*
X4436730Y-12518960D01*
X4436730Y-12518960D02*
X4417682Y-12528484D01*
X4417682Y-12528484D02*
X4389111Y-12528484D01*
X4570063Y-12528484D02*
X4551015Y-12518960D01*
X4551015Y-12518960D02*
X4541492Y-12499912D01*
X4541492Y-12499912D02*
X4541492Y-12328484D01*
X4722444Y-12518960D02*
X4703396Y-12528484D01*
X4703396Y-12528484D02*
X4665301Y-12528484D01*
X4665301Y-12528484D02*
X4646253Y-12518960D01*
X4646253Y-12518960D02*
X4636730Y-12499912D01*
X4636730Y-12499912D02*
X4636730Y-12423722D01*
X4636730Y-12423722D02*
X4646253Y-12404674D01*
X4646253Y-12404674D02*
X4665301Y-12395150D01*
X4665301Y-12395150D02*
X4703396Y-12395150D01*
X4703396Y-12395150D02*
X4722444Y-12404674D01*
X4722444Y-12404674D02*
X4731968Y-12423722D01*
X4731968Y-12423722D02*
X4731968Y-12442769D01*
X4731968Y-12442769D02*
X4636730Y-12461817D01*
X4808158Y-12518960D02*
X4827206Y-12528484D01*
X4827206Y-12528484D02*
X4865301Y-12528484D01*
X4865301Y-12528484D02*
X4884349Y-12518960D01*
X4884349Y-12518960D02*
X4893873Y-12499912D01*
X4893873Y-12499912D02*
X4893873Y-12490388D01*
X4893873Y-12490388D02*
X4884349Y-12471341D01*
X4884349Y-12471341D02*
X4865301Y-12461817D01*
X4865301Y-12461817D02*
X4836730Y-12461817D01*
X4836730Y-12461817D02*
X4817682Y-12452293D01*
X4817682Y-12452293D02*
X4808158Y-12433246D01*
X4808158Y-12433246D02*
X4808158Y-12423722D01*
X4808158Y-12423722D02*
X4817682Y-12404674D01*
X4817682Y-12404674D02*
X4836730Y-12395150D01*
X4836730Y-12395150D02*
X4865301Y-12395150D01*
X4865301Y-12395150D02*
X4884349Y-12404674D01*
X4960539Y-12604674D02*
X4970063Y-12595150D01*
X4970063Y-12595150D02*
X4989111Y-12566579D01*
X4989111Y-12566579D02*
X4998634Y-12547531D01*
X4998634Y-12547531D02*
X5008158Y-12518960D01*
X5008158Y-12518960D02*
X5017682Y-12471341D01*
X5017682Y-12471341D02*
X5017682Y-12433246D01*
X5017682Y-12433246D02*
X5008158Y-12385627D01*
X5008158Y-12385627D02*
X4998634Y-12357055D01*
X4998634Y-12357055D02*
X4989111Y-12338008D01*
X4989111Y-12338008D02*
X4970063Y-12309436D01*
X4970063Y-12309436D02*
X4960539Y-12299912D01*
D12*
X-60000Y-12756000D02*
X-5000Y-12701000D01*
X-60000Y-12646000D01*
X-115000Y-12701000D01*
X-60000Y-12756000D01*
D11*
X360539Y-12792484D02*
X246253Y-12792484D01*
X303396Y-12792484D02*
X303396Y-12592484D01*
X303396Y-12592484D02*
X284348Y-12621055D01*
X284348Y-12621055D02*
X265301Y-12640103D01*
X265301Y-12640103D02*
X246253Y-12649627D01*
X446253Y-12773436D02*
X455777Y-12782960D01*
X455777Y-12782960D02*
X446253Y-12792484D01*
X446253Y-12792484D02*
X436729Y-12782960D01*
X436729Y-12782960D02*
X446253Y-12773436D01*
X446253Y-12773436D02*
X446253Y-12792484D01*
X646253Y-12792484D02*
X531967Y-12792484D01*
X589110Y-12792484D02*
X589110Y-12592484D01*
X589110Y-12592484D02*
X570063Y-12621055D01*
X570063Y-12621055D02*
X551015Y-12640103D01*
X551015Y-12640103D02*
X531967Y-12649627D01*
X770062Y-12592484D02*
X789110Y-12592484D01*
X789110Y-12592484D02*
X808158Y-12602008D01*
X808158Y-12602008D02*
X817682Y-12611531D01*
X817682Y-12611531D02*
X827205Y-12630579D01*
X827205Y-12630579D02*
X836729Y-12668674D01*
X836729Y-12668674D02*
X836729Y-12716293D01*
X836729Y-12716293D02*
X827205Y-12754388D01*
X827205Y-12754388D02*
X817682Y-12773436D01*
X817682Y-12773436D02*
X808158Y-12782960D01*
X808158Y-12782960D02*
X789110Y-12792484D01*
X789110Y-12792484D02*
X770062Y-12792484D01*
X770062Y-12792484D02*
X751015Y-12782960D01*
X751015Y-12782960D02*
X741491Y-12773436D01*
X741491Y-12773436D02*
X731967Y-12754388D01*
X731967Y-12754388D02*
X722443Y-12716293D01*
X722443Y-12716293D02*
X722443Y-12668674D01*
X722443Y-12668674D02*
X731967Y-12630579D01*
X731967Y-12630579D02*
X741491Y-12611531D01*
X741491Y-12611531D02*
X751015Y-12602008D01*
X751015Y-12602008D02*
X770062Y-12592484D01*
X960539Y-12592484D02*
X979586Y-12592484D01*
X979586Y-12592484D02*
X998634Y-12602008D01*
X998634Y-12602008D02*
X1008158Y-12611531D01*
X1008158Y-12611531D02*
X1017682Y-12630579D01*
X1017682Y-12630579D02*
X1027205Y-12668674D01*
X1027205Y-12668674D02*
X1027205Y-12716293D01*
X1027205Y-12716293D02*
X1017682Y-12754388D01*
X1017682Y-12754388D02*
X1008158Y-12773436D01*
X1008158Y-12773436D02*
X998634Y-12782960D01*
X998634Y-12782960D02*
X979586Y-12792484D01*
X979586Y-12792484D02*
X960539Y-12792484D01*
X960539Y-12792484D02*
X941491Y-12782960D01*
X941491Y-12782960D02*
X931967Y-12773436D01*
X931967Y-12773436D02*
X922443Y-12754388D01*
X922443Y-12754388D02*
X912920Y-12716293D01*
X912920Y-12716293D02*
X912920Y-12668674D01*
X912920Y-12668674D02*
X922443Y-12630579D01*
X922443Y-12630579D02*
X931967Y-12611531D01*
X931967Y-12611531D02*
X941491Y-12602008D01*
X941491Y-12602008D02*
X960539Y-12592484D01*
X1112920Y-12792484D02*
X1112920Y-12659150D01*
X1112920Y-12678198D02*
X1122444Y-12668674D01*
X1122444Y-12668674D02*
X1141491Y-12659150D01*
X1141491Y-12659150D02*
X1170063Y-12659150D01*
X1170063Y-12659150D02*
X1189110Y-12668674D01*
X1189110Y-12668674D02*
X1198634Y-12687722D01*
X1198634Y-12687722D02*
X1198634Y-12792484D01*
X1198634Y-12687722D02*
X1208158Y-12668674D01*
X1208158Y-12668674D02*
X1227205Y-12659150D01*
X1227205Y-12659150D02*
X1255777Y-12659150D01*
X1255777Y-12659150D02*
X1274825Y-12668674D01*
X1274825Y-12668674D02*
X1284348Y-12687722D01*
X1284348Y-12687722D02*
X1284348Y-12792484D01*
X1379586Y-12792484D02*
X1379586Y-12659150D01*
X1379586Y-12678198D02*
X1389110Y-12668674D01*
X1389110Y-12668674D02*
X1408158Y-12659150D01*
X1408158Y-12659150D02*
X1436729Y-12659150D01*
X1436729Y-12659150D02*
X1455777Y-12668674D01*
X1455777Y-12668674D02*
X1465301Y-12687722D01*
X1465301Y-12687722D02*
X1465301Y-12792484D01*
X1465301Y-12687722D02*
X1474824Y-12668674D01*
X1474824Y-12668674D02*
X1493872Y-12659150D01*
X1493872Y-12659150D02*
X1522443Y-12659150D01*
X1522443Y-12659150D02*
X1541491Y-12668674D01*
X1541491Y-12668674D02*
X1551015Y-12687722D01*
X1551015Y-12687722D02*
X1551015Y-12792484D01*
X1941491Y-12582960D02*
X1770063Y-12840103D01*
X2198634Y-12592484D02*
X2217682Y-12592484D01*
X2217682Y-12592484D02*
X2236729Y-12602008D01*
X2236729Y-12602008D02*
X2246253Y-12611531D01*
X2246253Y-12611531D02*
X2255777Y-12630579D01*
X2255777Y-12630579D02*
X2265301Y-12668674D01*
X2265301Y-12668674D02*
X2265301Y-12716293D01*
X2265301Y-12716293D02*
X2255777Y-12754388D01*
X2255777Y-12754388D02*
X2246253Y-12773436D01*
X2246253Y-12773436D02*
X2236729Y-12782960D01*
X2236729Y-12782960D02*
X2217682Y-12792484D01*
X2217682Y-12792484D02*
X2198634Y-12792484D01*
X2198634Y-12792484D02*
X2179587Y-12782960D01*
X2179587Y-12782960D02*
X2170063Y-12773436D01*
X2170063Y-12773436D02*
X2160539Y-12754388D01*
X2160539Y-12754388D02*
X2151015Y-12716293D01*
X2151015Y-12716293D02*
X2151015Y-12668674D01*
X2151015Y-12668674D02*
X2160539Y-12630579D01*
X2160539Y-12630579D02*
X2170063Y-12611531D01*
X2170063Y-12611531D02*
X2179587Y-12602008D01*
X2179587Y-12602008D02*
X2198634Y-12592484D01*
X2351015Y-12773436D02*
X2360539Y-12782960D01*
X2360539Y-12782960D02*
X2351015Y-12792484D01*
X2351015Y-12792484D02*
X2341491Y-12782960D01*
X2341491Y-12782960D02*
X2351015Y-12773436D01*
X2351015Y-12773436D02*
X2351015Y-12792484D01*
X2484348Y-12592484D02*
X2503396Y-12592484D01*
X2503396Y-12592484D02*
X2522444Y-12602008D01*
X2522444Y-12602008D02*
X2531968Y-12611531D01*
X2531968Y-12611531D02*
X2541491Y-12630579D01*
X2541491Y-12630579D02*
X2551015Y-12668674D01*
X2551015Y-12668674D02*
X2551015Y-12716293D01*
X2551015Y-12716293D02*
X2541491Y-12754388D01*
X2541491Y-12754388D02*
X2531968Y-12773436D01*
X2531968Y-12773436D02*
X2522444Y-12782960D01*
X2522444Y-12782960D02*
X2503396Y-12792484D01*
X2503396Y-12792484D02*
X2484348Y-12792484D01*
X2484348Y-12792484D02*
X2465301Y-12782960D01*
X2465301Y-12782960D02*
X2455777Y-12773436D01*
X2455777Y-12773436D02*
X2446253Y-12754388D01*
X2446253Y-12754388D02*
X2436729Y-12716293D01*
X2436729Y-12716293D02*
X2436729Y-12668674D01*
X2436729Y-12668674D02*
X2446253Y-12630579D01*
X2446253Y-12630579D02*
X2455777Y-12611531D01*
X2455777Y-12611531D02*
X2465301Y-12602008D01*
X2465301Y-12602008D02*
X2484348Y-12592484D01*
X2722444Y-12659150D02*
X2722444Y-12792484D01*
X2674825Y-12582960D02*
X2627206Y-12725817D01*
X2627206Y-12725817D02*
X2751015Y-12725817D01*
X2808158Y-12592484D02*
X2931967Y-12592484D01*
X2931967Y-12592484D02*
X2865301Y-12668674D01*
X2865301Y-12668674D02*
X2893872Y-12668674D01*
X2893872Y-12668674D02*
X2912920Y-12678198D01*
X2912920Y-12678198D02*
X2922444Y-12687722D01*
X2922444Y-12687722D02*
X2931967Y-12706769D01*
X2931967Y-12706769D02*
X2931967Y-12754388D01*
X2931967Y-12754388D02*
X2922444Y-12773436D01*
X2922444Y-12773436D02*
X2912920Y-12782960D01*
X2912920Y-12782960D02*
X2893872Y-12792484D01*
X2893872Y-12792484D02*
X2836729Y-12792484D01*
X2836729Y-12792484D02*
X2817682Y-12782960D01*
X2817682Y-12782960D02*
X2808158Y-12773436D01*
X2998634Y-12592484D02*
X3122444Y-12592484D01*
X3122444Y-12592484D02*
X3055777Y-12668674D01*
X3055777Y-12668674D02*
X3084348Y-12668674D01*
X3084348Y-12668674D02*
X3103396Y-12678198D01*
X3103396Y-12678198D02*
X3112920Y-12687722D01*
X3112920Y-12687722D02*
X3122444Y-12706769D01*
X3122444Y-12706769D02*
X3122444Y-12754388D01*
X3122444Y-12754388D02*
X3112920Y-12773436D01*
X3112920Y-12773436D02*
X3103396Y-12782960D01*
X3103396Y-12782960D02*
X3084348Y-12792484D01*
X3084348Y-12792484D02*
X3027206Y-12792484D01*
X3027206Y-12792484D02*
X3008158Y-12782960D01*
X3008158Y-12782960D02*
X2998634Y-12773436D01*
X3198634Y-12592484D02*
X3198634Y-12630579D01*
X3274825Y-12592484D02*
X3274825Y-12630579D01*
X3570063Y-12868674D02*
X3560539Y-12859150D01*
X3560539Y-12859150D02*
X3541491Y-12830579D01*
X3541491Y-12830579D02*
X3531968Y-12811531D01*
X3531968Y-12811531D02*
X3522444Y-12782960D01*
X3522444Y-12782960D02*
X3512920Y-12735341D01*
X3512920Y-12735341D02*
X3512920Y-12697246D01*
X3512920Y-12697246D02*
X3522444Y-12649627D01*
X3522444Y-12649627D02*
X3531968Y-12621055D01*
X3531968Y-12621055D02*
X3541491Y-12602008D01*
X3541491Y-12602008D02*
X3560539Y-12573436D01*
X3560539Y-12573436D02*
X3570063Y-12563912D01*
X3751015Y-12792484D02*
X3636729Y-12792484D01*
X3693872Y-12792484D02*
X3693872Y-12592484D01*
X3693872Y-12592484D02*
X3674825Y-12621055D01*
X3674825Y-12621055D02*
X3655777Y-12640103D01*
X3655777Y-12640103D02*
X3636729Y-12649627D01*
X3817682Y-12592484D02*
X3941491Y-12592484D01*
X3941491Y-12592484D02*
X3874825Y-12668674D01*
X3874825Y-12668674D02*
X3903396Y-12668674D01*
X3903396Y-12668674D02*
X3922444Y-12678198D01*
X3922444Y-12678198D02*
X3931968Y-12687722D01*
X3931968Y-12687722D02*
X3941491Y-12706769D01*
X3941491Y-12706769D02*
X3941491Y-12754388D01*
X3941491Y-12754388D02*
X3931968Y-12773436D01*
X3931968Y-12773436D02*
X3922444Y-12782960D01*
X3922444Y-12782960D02*
X3903396Y-12792484D01*
X3903396Y-12792484D02*
X3846253Y-12792484D01*
X3846253Y-12792484D02*
X3827206Y-12782960D01*
X3827206Y-12782960D02*
X3817682Y-12773436D01*
X4179587Y-12792484D02*
X4179587Y-12592484D01*
X4265301Y-12792484D02*
X4265301Y-12687722D01*
X4265301Y-12687722D02*
X4255777Y-12668674D01*
X4255777Y-12668674D02*
X4236730Y-12659150D01*
X4236730Y-12659150D02*
X4208158Y-12659150D01*
X4208158Y-12659150D02*
X4189110Y-12668674D01*
X4189110Y-12668674D02*
X4179587Y-12678198D01*
X4389111Y-12792484D02*
X4370063Y-12782960D01*
X4370063Y-12782960D02*
X4360539Y-12773436D01*
X4360539Y-12773436D02*
X4351015Y-12754388D01*
X4351015Y-12754388D02*
X4351015Y-12697246D01*
X4351015Y-12697246D02*
X4360539Y-12678198D01*
X4360539Y-12678198D02*
X4370063Y-12668674D01*
X4370063Y-12668674D02*
X4389111Y-12659150D01*
X4389111Y-12659150D02*
X4417682Y-12659150D01*
X4417682Y-12659150D02*
X4436730Y-12668674D01*
X4436730Y-12668674D02*
X4446253Y-12678198D01*
X4446253Y-12678198D02*
X4455777Y-12697246D01*
X4455777Y-12697246D02*
X4455777Y-12754388D01*
X4455777Y-12754388D02*
X4446253Y-12773436D01*
X4446253Y-12773436D02*
X4436730Y-12782960D01*
X4436730Y-12782960D02*
X4417682Y-12792484D01*
X4417682Y-12792484D02*
X4389111Y-12792484D01*
X4570063Y-12792484D02*
X4551015Y-12782960D01*
X4551015Y-12782960D02*
X4541492Y-12763912D01*
X4541492Y-12763912D02*
X4541492Y-12592484D01*
X4722444Y-12782960D02*
X4703396Y-12792484D01*
X4703396Y-12792484D02*
X4665301Y-12792484D01*
X4665301Y-12792484D02*
X4646253Y-12782960D01*
X4646253Y-12782960D02*
X4636730Y-12763912D01*
X4636730Y-12763912D02*
X4636730Y-12687722D01*
X4636730Y-12687722D02*
X4646253Y-12668674D01*
X4646253Y-12668674D02*
X4665301Y-12659150D01*
X4665301Y-12659150D02*
X4703396Y-12659150D01*
X4703396Y-12659150D02*
X4722444Y-12668674D01*
X4722444Y-12668674D02*
X4731968Y-12687722D01*
X4731968Y-12687722D02*
X4731968Y-12706769D01*
X4731968Y-12706769D02*
X4636730Y-12725817D01*
X4808158Y-12782960D02*
X4827206Y-12792484D01*
X4827206Y-12792484D02*
X4865301Y-12792484D01*
X4865301Y-12792484D02*
X4884349Y-12782960D01*
X4884349Y-12782960D02*
X4893873Y-12763912D01*
X4893873Y-12763912D02*
X4893873Y-12754388D01*
X4893873Y-12754388D02*
X4884349Y-12735341D01*
X4884349Y-12735341D02*
X4865301Y-12725817D01*
X4865301Y-12725817D02*
X4836730Y-12725817D01*
X4836730Y-12725817D02*
X4817682Y-12716293D01*
X4817682Y-12716293D02*
X4808158Y-12697246D01*
X4808158Y-12697246D02*
X4808158Y-12687722D01*
X4808158Y-12687722D02*
X4817682Y-12668674D01*
X4817682Y-12668674D02*
X4836730Y-12659150D01*
X4836730Y-12659150D02*
X4865301Y-12659150D01*
X4865301Y-12659150D02*
X4884349Y-12668674D01*
X4960539Y-12868674D02*
X4970063Y-12859150D01*
X4970063Y-12859150D02*
X4989111Y-12830579D01*
X4989111Y-12830579D02*
X4998634Y-12811531D01*
X4998634Y-12811531D02*
X5008158Y-12782960D01*
X5008158Y-12782960D02*
X5017682Y-12735341D01*
X5017682Y-12735341D02*
X5017682Y-12697246D01*
X5017682Y-12697246D02*
X5008158Y-12649627D01*
X5008158Y-12649627D02*
X4998634Y-12621055D01*
X4998634Y-12621055D02*
X4989111Y-12602008D01*
X4989111Y-12602008D02*
X4970063Y-12573436D01*
X4970063Y-12573436D02*
X4960539Y-12563912D01*
D13*
X-116760Y-12909120D02*
X-5000Y-13020880D01*
X-5000Y-12909120D02*
X-116760Y-13020880D01*
X-5000Y-12965000D02*
G75*
G03*
X-5000Y-12965000I-55880J0D01*
G01*
D11*
X360539Y-13056484D02*
X246253Y-13056484D01*
X303396Y-13056484D02*
X303396Y-12856484D01*
X303396Y-12856484D02*
X284348Y-12885055D01*
X284348Y-12885055D02*
X265301Y-12904103D01*
X265301Y-12904103D02*
X246253Y-12913627D01*
X446253Y-13037436D02*
X455777Y-13046960D01*
X455777Y-13046960D02*
X446253Y-13056484D01*
X446253Y-13056484D02*
X436729Y-13046960D01*
X436729Y-13046960D02*
X446253Y-13037436D01*
X446253Y-13037436D02*
X446253Y-13056484D01*
X646253Y-13056484D02*
X531967Y-13056484D01*
X589110Y-13056484D02*
X589110Y-12856484D01*
X589110Y-12856484D02*
X570063Y-12885055D01*
X570063Y-12885055D02*
X551015Y-12904103D01*
X551015Y-12904103D02*
X531967Y-12913627D01*
X836729Y-13056484D02*
X722443Y-13056484D01*
X779586Y-13056484D02*
X779586Y-12856484D01*
X779586Y-12856484D02*
X760539Y-12885055D01*
X760539Y-12885055D02*
X741491Y-12904103D01*
X741491Y-12904103D02*
X722443Y-12913627D01*
X951015Y-12942198D02*
X931967Y-12932674D01*
X931967Y-12932674D02*
X922443Y-12923150D01*
X922443Y-12923150D02*
X912920Y-12904103D01*
X912920Y-12904103D02*
X912920Y-12894579D01*
X912920Y-12894579D02*
X922443Y-12875531D01*
X922443Y-12875531D02*
X931967Y-12866008D01*
X931967Y-12866008D02*
X951015Y-12856484D01*
X951015Y-12856484D02*
X989110Y-12856484D01*
X989110Y-12856484D02*
X1008158Y-12866008D01*
X1008158Y-12866008D02*
X1017682Y-12875531D01*
X1017682Y-12875531D02*
X1027205Y-12894579D01*
X1027205Y-12894579D02*
X1027205Y-12904103D01*
X1027205Y-12904103D02*
X1017682Y-12923150D01*
X1017682Y-12923150D02*
X1008158Y-12932674D01*
X1008158Y-12932674D02*
X989110Y-12942198D01*
X989110Y-12942198D02*
X951015Y-12942198D01*
X951015Y-12942198D02*
X931967Y-12951722D01*
X931967Y-12951722D02*
X922443Y-12961246D01*
X922443Y-12961246D02*
X912920Y-12980293D01*
X912920Y-12980293D02*
X912920Y-13018388D01*
X912920Y-13018388D02*
X922443Y-13037436D01*
X922443Y-13037436D02*
X931967Y-13046960D01*
X931967Y-13046960D02*
X951015Y-13056484D01*
X951015Y-13056484D02*
X989110Y-13056484D01*
X989110Y-13056484D02*
X1008158Y-13046960D01*
X1008158Y-13046960D02*
X1017682Y-13037436D01*
X1017682Y-13037436D02*
X1027205Y-13018388D01*
X1027205Y-13018388D02*
X1027205Y-12980293D01*
X1027205Y-12980293D02*
X1017682Y-12961246D01*
X1017682Y-12961246D02*
X1008158Y-12951722D01*
X1008158Y-12951722D02*
X989110Y-12942198D01*
X1112920Y-13056484D02*
X1112920Y-12923150D01*
X1112920Y-12942198D02*
X1122444Y-12932674D01*
X1122444Y-12932674D02*
X1141491Y-12923150D01*
X1141491Y-12923150D02*
X1170063Y-12923150D01*
X1170063Y-12923150D02*
X1189110Y-12932674D01*
X1189110Y-12932674D02*
X1198634Y-12951722D01*
X1198634Y-12951722D02*
X1198634Y-13056484D01*
X1198634Y-12951722D02*
X1208158Y-12932674D01*
X1208158Y-12932674D02*
X1227205Y-12923150D01*
X1227205Y-12923150D02*
X1255777Y-12923150D01*
X1255777Y-12923150D02*
X1274825Y-12932674D01*
X1274825Y-12932674D02*
X1284348Y-12951722D01*
X1284348Y-12951722D02*
X1284348Y-13056484D01*
X1379586Y-13056484D02*
X1379586Y-12923150D01*
X1379586Y-12942198D02*
X1389110Y-12932674D01*
X1389110Y-12932674D02*
X1408158Y-12923150D01*
X1408158Y-12923150D02*
X1436729Y-12923150D01*
X1436729Y-12923150D02*
X1455777Y-12932674D01*
X1455777Y-12932674D02*
X1465301Y-12951722D01*
X1465301Y-12951722D02*
X1465301Y-13056484D01*
X1465301Y-12951722D02*
X1474824Y-12932674D01*
X1474824Y-12932674D02*
X1493872Y-12923150D01*
X1493872Y-12923150D02*
X1522443Y-12923150D01*
X1522443Y-12923150D02*
X1541491Y-12932674D01*
X1541491Y-12932674D02*
X1551015Y-12951722D01*
X1551015Y-12951722D02*
X1551015Y-13056484D01*
X1941491Y-12846960D02*
X1770063Y-13104103D01*
X2198634Y-12856484D02*
X2217682Y-12856484D01*
X2217682Y-12856484D02*
X2236729Y-12866008D01*
X2236729Y-12866008D02*
X2246253Y-12875531D01*
X2246253Y-12875531D02*
X2255777Y-12894579D01*
X2255777Y-12894579D02*
X2265301Y-12932674D01*
X2265301Y-12932674D02*
X2265301Y-12980293D01*
X2265301Y-12980293D02*
X2255777Y-13018388D01*
X2255777Y-13018388D02*
X2246253Y-13037436D01*
X2246253Y-13037436D02*
X2236729Y-13046960D01*
X2236729Y-13046960D02*
X2217682Y-13056484D01*
X2217682Y-13056484D02*
X2198634Y-13056484D01*
X2198634Y-13056484D02*
X2179587Y-13046960D01*
X2179587Y-13046960D02*
X2170063Y-13037436D01*
X2170063Y-13037436D02*
X2160539Y-13018388D01*
X2160539Y-13018388D02*
X2151015Y-12980293D01*
X2151015Y-12980293D02*
X2151015Y-12932674D01*
X2151015Y-12932674D02*
X2160539Y-12894579D01*
X2160539Y-12894579D02*
X2170063Y-12875531D01*
X2170063Y-12875531D02*
X2179587Y-12866008D01*
X2179587Y-12866008D02*
X2198634Y-12856484D01*
X2351015Y-13037436D02*
X2360539Y-13046960D01*
X2360539Y-13046960D02*
X2351015Y-13056484D01*
X2351015Y-13056484D02*
X2341491Y-13046960D01*
X2341491Y-13046960D02*
X2351015Y-13037436D01*
X2351015Y-13037436D02*
X2351015Y-13056484D01*
X2484348Y-12856484D02*
X2503396Y-12856484D01*
X2503396Y-12856484D02*
X2522444Y-12866008D01*
X2522444Y-12866008D02*
X2531968Y-12875531D01*
X2531968Y-12875531D02*
X2541491Y-12894579D01*
X2541491Y-12894579D02*
X2551015Y-12932674D01*
X2551015Y-12932674D02*
X2551015Y-12980293D01*
X2551015Y-12980293D02*
X2541491Y-13018388D01*
X2541491Y-13018388D02*
X2531968Y-13037436D01*
X2531968Y-13037436D02*
X2522444Y-13046960D01*
X2522444Y-13046960D02*
X2503396Y-13056484D01*
X2503396Y-13056484D02*
X2484348Y-13056484D01*
X2484348Y-13056484D02*
X2465301Y-13046960D01*
X2465301Y-13046960D02*
X2455777Y-13037436D01*
X2455777Y-13037436D02*
X2446253Y-13018388D01*
X2446253Y-13018388D02*
X2436729Y-12980293D01*
X2436729Y-12980293D02*
X2436729Y-12932674D01*
X2436729Y-12932674D02*
X2446253Y-12894579D01*
X2446253Y-12894579D02*
X2455777Y-12875531D01*
X2455777Y-12875531D02*
X2465301Y-12866008D01*
X2465301Y-12866008D02*
X2484348Y-12856484D01*
X2722444Y-12923150D02*
X2722444Y-13056484D01*
X2674825Y-12846960D02*
X2627206Y-12989817D01*
X2627206Y-12989817D02*
X2751015Y-12989817D01*
X2912920Y-12923150D02*
X2912920Y-13056484D01*
X2865301Y-12846960D02*
X2817682Y-12989817D01*
X2817682Y-12989817D02*
X2941491Y-12989817D01*
X3055777Y-12856484D02*
X3074825Y-12856484D01*
X3074825Y-12856484D02*
X3093872Y-12866008D01*
X3093872Y-12866008D02*
X3103396Y-12875531D01*
X3103396Y-12875531D02*
X3112920Y-12894579D01*
X3112920Y-12894579D02*
X3122444Y-12932674D01*
X3122444Y-12932674D02*
X3122444Y-12980293D01*
X3122444Y-12980293D02*
X3112920Y-13018388D01*
X3112920Y-13018388D02*
X3103396Y-13037436D01*
X3103396Y-13037436D02*
X3093872Y-13046960D01*
X3093872Y-13046960D02*
X3074825Y-13056484D01*
X3074825Y-13056484D02*
X3055777Y-13056484D01*
X3055777Y-13056484D02*
X3036729Y-13046960D01*
X3036729Y-13046960D02*
X3027206Y-13037436D01*
X3027206Y-13037436D02*
X3017682Y-13018388D01*
X3017682Y-13018388D02*
X3008158Y-12980293D01*
X3008158Y-12980293D02*
X3008158Y-12932674D01*
X3008158Y-12932674D02*
X3017682Y-12894579D01*
X3017682Y-12894579D02*
X3027206Y-12875531D01*
X3027206Y-12875531D02*
X3036729Y-12866008D01*
X3036729Y-12866008D02*
X3055777Y-12856484D01*
X3198634Y-12856484D02*
X3198634Y-12894579D01*
X3274825Y-12856484D02*
X3274825Y-12894579D01*
X3570063Y-13132674D02*
X3560539Y-13123150D01*
X3560539Y-13123150D02*
X3541491Y-13094579D01*
X3541491Y-13094579D02*
X3531968Y-13075531D01*
X3531968Y-13075531D02*
X3522444Y-13046960D01*
X3522444Y-13046960D02*
X3512920Y-12999341D01*
X3512920Y-12999341D02*
X3512920Y-12961246D01*
X3512920Y-12961246D02*
X3522444Y-12913627D01*
X3522444Y-12913627D02*
X3531968Y-12885055D01*
X3531968Y-12885055D02*
X3541491Y-12866008D01*
X3541491Y-12866008D02*
X3560539Y-12837436D01*
X3560539Y-12837436D02*
X3570063Y-12827912D01*
X3627206Y-12856484D02*
X3751015Y-12856484D01*
X3751015Y-12856484D02*
X3684348Y-12932674D01*
X3684348Y-12932674D02*
X3712920Y-12932674D01*
X3712920Y-12932674D02*
X3731968Y-12942198D01*
X3731968Y-12942198D02*
X3741491Y-12951722D01*
X3741491Y-12951722D02*
X3751015Y-12970769D01*
X3751015Y-12970769D02*
X3751015Y-13018388D01*
X3751015Y-13018388D02*
X3741491Y-13037436D01*
X3741491Y-13037436D02*
X3731968Y-13046960D01*
X3731968Y-13046960D02*
X3712920Y-13056484D01*
X3712920Y-13056484D02*
X3655777Y-13056484D01*
X3655777Y-13056484D02*
X3636729Y-13046960D01*
X3636729Y-13046960D02*
X3627206Y-13037436D01*
X3922444Y-12923150D02*
X3922444Y-13056484D01*
X3874825Y-12846960D02*
X3827206Y-12989817D01*
X3827206Y-12989817D02*
X3951015Y-12989817D01*
X4179587Y-13056484D02*
X4179587Y-12856484D01*
X4265301Y-13056484D02*
X4265301Y-12951722D01*
X4265301Y-12951722D02*
X4255777Y-12932674D01*
X4255777Y-12932674D02*
X4236730Y-12923150D01*
X4236730Y-12923150D02*
X4208158Y-12923150D01*
X4208158Y-12923150D02*
X4189110Y-12932674D01*
X4189110Y-12932674D02*
X4179587Y-12942198D01*
X4389111Y-13056484D02*
X4370063Y-13046960D01*
X4370063Y-13046960D02*
X4360539Y-13037436D01*
X4360539Y-13037436D02*
X4351015Y-13018388D01*
X4351015Y-13018388D02*
X4351015Y-12961246D01*
X4351015Y-12961246D02*
X4360539Y-12942198D01*
X4360539Y-12942198D02*
X4370063Y-12932674D01*
X4370063Y-12932674D02*
X4389111Y-12923150D01*
X4389111Y-12923150D02*
X4417682Y-12923150D01*
X4417682Y-12923150D02*
X4436730Y-12932674D01*
X4436730Y-12932674D02*
X4446253Y-12942198D01*
X4446253Y-12942198D02*
X4455777Y-12961246D01*
X4455777Y-12961246D02*
X4455777Y-13018388D01*
X4455777Y-13018388D02*
X4446253Y-13037436D01*
X4446253Y-13037436D02*
X4436730Y-13046960D01*
X4436730Y-13046960D02*
X4417682Y-13056484D01*
X4417682Y-13056484D02*
X4389111Y-13056484D01*
X4570063Y-13056484D02*
X4551015Y-13046960D01*
X4551015Y-13046960D02*
X4541492Y-13027912D01*
X4541492Y-13027912D02*
X4541492Y-12856484D01*
X4722444Y-13046960D02*
X4703396Y-13056484D01*
X4703396Y-13056484D02*
X4665301Y-13056484D01*
X4665301Y-13056484D02*
X4646253Y-13046960D01*
X4646253Y-13046960D02*
X4636730Y-13027912D01*
X4636730Y-13027912D02*
X4636730Y-12951722D01*
X4636730Y-12951722D02*
X4646253Y-12932674D01*
X4646253Y-12932674D02*
X4665301Y-12923150D01*
X4665301Y-12923150D02*
X4703396Y-12923150D01*
X4703396Y-12923150D02*
X4722444Y-12932674D01*
X4722444Y-12932674D02*
X4731968Y-12951722D01*
X4731968Y-12951722D02*
X4731968Y-12970769D01*
X4731968Y-12970769D02*
X4636730Y-12989817D01*
X4808158Y-13046960D02*
X4827206Y-13056484D01*
X4827206Y-13056484D02*
X4865301Y-13056484D01*
X4865301Y-13056484D02*
X4884349Y-13046960D01*
X4884349Y-13046960D02*
X4893873Y-13027912D01*
X4893873Y-13027912D02*
X4893873Y-13018388D01*
X4893873Y-13018388D02*
X4884349Y-12999341D01*
X4884349Y-12999341D02*
X4865301Y-12989817D01*
X4865301Y-12989817D02*
X4836730Y-12989817D01*
X4836730Y-12989817D02*
X4817682Y-12980293D01*
X4817682Y-12980293D02*
X4808158Y-12961246D01*
X4808158Y-12961246D02*
X4808158Y-12951722D01*
X4808158Y-12951722D02*
X4817682Y-12932674D01*
X4817682Y-12932674D02*
X4836730Y-12923150D01*
X4836730Y-12923150D02*
X4865301Y-12923150D01*
X4865301Y-12923150D02*
X4884349Y-12932674D01*
X4960539Y-13132674D02*
X4970063Y-13123150D01*
X4970063Y-13123150D02*
X4989111Y-13094579D01*
X4989111Y-13094579D02*
X4998634Y-13075531D01*
X4998634Y-13075531D02*
X5008158Y-13046960D01*
X5008158Y-13046960D02*
X5017682Y-12999341D01*
X5017682Y-12999341D02*
X5017682Y-12961246D01*
X5017682Y-12961246D02*
X5008158Y-12913627D01*
X5008158Y-12913627D02*
X4998634Y-12885055D01*
X4998634Y-12885055D02*
X4989111Y-12866008D01*
X4989111Y-12866008D02*
X4970063Y-12837436D01*
X4970063Y-12837436D02*
X4960539Y-12827912D01*
D14*
X-119300Y-13171850D02*
X-5000Y-13286150D01*
X-5000Y-13171850D02*
X-119300Y-13286150D01*
X-62150Y-13171850D02*
X-62150Y-13286150D01*
X-119300Y-13229000D02*
X-5000Y-13229000D01*
D11*
X360539Y-13320484D02*
X246253Y-13320484D01*
X303396Y-13320484D02*
X303396Y-13120484D01*
X303396Y-13120484D02*
X284348Y-13149055D01*
X284348Y-13149055D02*
X265301Y-13168103D01*
X265301Y-13168103D02*
X246253Y-13177627D01*
X446253Y-13301436D02*
X455777Y-13310960D01*
X455777Y-13310960D02*
X446253Y-13320484D01*
X446253Y-13320484D02*
X436729Y-13310960D01*
X436729Y-13310960D02*
X446253Y-13301436D01*
X446253Y-13301436D02*
X446253Y-13320484D01*
X646253Y-13320484D02*
X531967Y-13320484D01*
X589110Y-13320484D02*
X589110Y-13120484D01*
X589110Y-13120484D02*
X570063Y-13149055D01*
X570063Y-13149055D02*
X551015Y-13168103D01*
X551015Y-13168103D02*
X531967Y-13177627D01*
X817682Y-13187150D02*
X817682Y-13320484D01*
X770062Y-13110960D02*
X722443Y-13253817D01*
X722443Y-13253817D02*
X846253Y-13253817D01*
X903396Y-13120484D02*
X1027205Y-13120484D01*
X1027205Y-13120484D02*
X960539Y-13196674D01*
X960539Y-13196674D02*
X989110Y-13196674D01*
X989110Y-13196674D02*
X1008158Y-13206198D01*
X1008158Y-13206198D02*
X1017682Y-13215722D01*
X1017682Y-13215722D02*
X1027205Y-13234769D01*
X1027205Y-13234769D02*
X1027205Y-13282388D01*
X1027205Y-13282388D02*
X1017682Y-13301436D01*
X1017682Y-13301436D02*
X1008158Y-13310960D01*
X1008158Y-13310960D02*
X989110Y-13320484D01*
X989110Y-13320484D02*
X931967Y-13320484D01*
X931967Y-13320484D02*
X912920Y-13310960D01*
X912920Y-13310960D02*
X903396Y-13301436D01*
X1112920Y-13320484D02*
X1112920Y-13187150D01*
X1112920Y-13206198D02*
X1122444Y-13196674D01*
X1122444Y-13196674D02*
X1141491Y-13187150D01*
X1141491Y-13187150D02*
X1170063Y-13187150D01*
X1170063Y-13187150D02*
X1189110Y-13196674D01*
X1189110Y-13196674D02*
X1198634Y-13215722D01*
X1198634Y-13215722D02*
X1198634Y-13320484D01*
X1198634Y-13215722D02*
X1208158Y-13196674D01*
X1208158Y-13196674D02*
X1227205Y-13187150D01*
X1227205Y-13187150D02*
X1255777Y-13187150D01*
X1255777Y-13187150D02*
X1274825Y-13196674D01*
X1274825Y-13196674D02*
X1284348Y-13215722D01*
X1284348Y-13215722D02*
X1284348Y-13320484D01*
X1379586Y-13320484D02*
X1379586Y-13187150D01*
X1379586Y-13206198D02*
X1389110Y-13196674D01*
X1389110Y-13196674D02*
X1408158Y-13187150D01*
X1408158Y-13187150D02*
X1436729Y-13187150D01*
X1436729Y-13187150D02*
X1455777Y-13196674D01*
X1455777Y-13196674D02*
X1465301Y-13215722D01*
X1465301Y-13215722D02*
X1465301Y-13320484D01*
X1465301Y-13215722D02*
X1474824Y-13196674D01*
X1474824Y-13196674D02*
X1493872Y-13187150D01*
X1493872Y-13187150D02*
X1522443Y-13187150D01*
X1522443Y-13187150D02*
X1541491Y-13196674D01*
X1541491Y-13196674D02*
X1551015Y-13215722D01*
X1551015Y-13215722D02*
X1551015Y-13320484D01*
X1941491Y-13110960D02*
X1770063Y-13368103D01*
X2198634Y-13120484D02*
X2217682Y-13120484D01*
X2217682Y-13120484D02*
X2236729Y-13130008D01*
X2236729Y-13130008D02*
X2246253Y-13139531D01*
X2246253Y-13139531D02*
X2255777Y-13158579D01*
X2255777Y-13158579D02*
X2265301Y-13196674D01*
X2265301Y-13196674D02*
X2265301Y-13244293D01*
X2265301Y-13244293D02*
X2255777Y-13282388D01*
X2255777Y-13282388D02*
X2246253Y-13301436D01*
X2246253Y-13301436D02*
X2236729Y-13310960D01*
X2236729Y-13310960D02*
X2217682Y-13320484D01*
X2217682Y-13320484D02*
X2198634Y-13320484D01*
X2198634Y-13320484D02*
X2179587Y-13310960D01*
X2179587Y-13310960D02*
X2170063Y-13301436D01*
X2170063Y-13301436D02*
X2160539Y-13282388D01*
X2160539Y-13282388D02*
X2151015Y-13244293D01*
X2151015Y-13244293D02*
X2151015Y-13196674D01*
X2151015Y-13196674D02*
X2160539Y-13158579D01*
X2160539Y-13158579D02*
X2170063Y-13139531D01*
X2170063Y-13139531D02*
X2179587Y-13130008D01*
X2179587Y-13130008D02*
X2198634Y-13120484D01*
X2351015Y-13301436D02*
X2360539Y-13310960D01*
X2360539Y-13310960D02*
X2351015Y-13320484D01*
X2351015Y-13320484D02*
X2341491Y-13310960D01*
X2341491Y-13310960D02*
X2351015Y-13301436D01*
X2351015Y-13301436D02*
X2351015Y-13320484D01*
X2484348Y-13120484D02*
X2503396Y-13120484D01*
X2503396Y-13120484D02*
X2522444Y-13130008D01*
X2522444Y-13130008D02*
X2531968Y-13139531D01*
X2531968Y-13139531D02*
X2541491Y-13158579D01*
X2541491Y-13158579D02*
X2551015Y-13196674D01*
X2551015Y-13196674D02*
X2551015Y-13244293D01*
X2551015Y-13244293D02*
X2541491Y-13282388D01*
X2541491Y-13282388D02*
X2531968Y-13301436D01*
X2531968Y-13301436D02*
X2522444Y-13310960D01*
X2522444Y-13310960D02*
X2503396Y-13320484D01*
X2503396Y-13320484D02*
X2484348Y-13320484D01*
X2484348Y-13320484D02*
X2465301Y-13310960D01*
X2465301Y-13310960D02*
X2455777Y-13301436D01*
X2455777Y-13301436D02*
X2446253Y-13282388D01*
X2446253Y-13282388D02*
X2436729Y-13244293D01*
X2436729Y-13244293D02*
X2436729Y-13196674D01*
X2436729Y-13196674D02*
X2446253Y-13158579D01*
X2446253Y-13158579D02*
X2455777Y-13139531D01*
X2455777Y-13139531D02*
X2465301Y-13130008D01*
X2465301Y-13130008D02*
X2484348Y-13120484D01*
X2722444Y-13187150D02*
X2722444Y-13320484D01*
X2674825Y-13110960D02*
X2627206Y-13253817D01*
X2627206Y-13253817D02*
X2751015Y-13253817D01*
X2922444Y-13120484D02*
X2827206Y-13120484D01*
X2827206Y-13120484D02*
X2817682Y-13215722D01*
X2817682Y-13215722D02*
X2827206Y-13206198D01*
X2827206Y-13206198D02*
X2846253Y-13196674D01*
X2846253Y-13196674D02*
X2893872Y-13196674D01*
X2893872Y-13196674D02*
X2912920Y-13206198D01*
X2912920Y-13206198D02*
X2922444Y-13215722D01*
X2922444Y-13215722D02*
X2931967Y-13234769D01*
X2931967Y-13234769D02*
X2931967Y-13282388D01*
X2931967Y-13282388D02*
X2922444Y-13301436D01*
X2922444Y-13301436D02*
X2912920Y-13310960D01*
X2912920Y-13310960D02*
X2893872Y-13320484D01*
X2893872Y-13320484D02*
X2846253Y-13320484D01*
X2846253Y-13320484D02*
X2827206Y-13310960D01*
X2827206Y-13310960D02*
X2817682Y-13301436D01*
X3055777Y-13120484D02*
X3074825Y-13120484D01*
X3074825Y-13120484D02*
X3093872Y-13130008D01*
X3093872Y-13130008D02*
X3103396Y-13139531D01*
X3103396Y-13139531D02*
X3112920Y-13158579D01*
X3112920Y-13158579D02*
X3122444Y-13196674D01*
X3122444Y-13196674D02*
X3122444Y-13244293D01*
X3122444Y-13244293D02*
X3112920Y-13282388D01*
X3112920Y-13282388D02*
X3103396Y-13301436D01*
X3103396Y-13301436D02*
X3093872Y-13310960D01*
X3093872Y-13310960D02*
X3074825Y-13320484D01*
X3074825Y-13320484D02*
X3055777Y-13320484D01*
X3055777Y-13320484D02*
X3036729Y-13310960D01*
X3036729Y-13310960D02*
X3027206Y-13301436D01*
X3027206Y-13301436D02*
X3017682Y-13282388D01*
X3017682Y-13282388D02*
X3008158Y-13244293D01*
X3008158Y-13244293D02*
X3008158Y-13196674D01*
X3008158Y-13196674D02*
X3017682Y-13158579D01*
X3017682Y-13158579D02*
X3027206Y-13139531D01*
X3027206Y-13139531D02*
X3036729Y-13130008D01*
X3036729Y-13130008D02*
X3055777Y-13120484D01*
X3198634Y-13120484D02*
X3198634Y-13158579D01*
X3274825Y-13120484D02*
X3274825Y-13158579D01*
X3570063Y-13396674D02*
X3560539Y-13387150D01*
X3560539Y-13387150D02*
X3541491Y-13358579D01*
X3541491Y-13358579D02*
X3531968Y-13339531D01*
X3531968Y-13339531D02*
X3522444Y-13310960D01*
X3522444Y-13310960D02*
X3512920Y-13263341D01*
X3512920Y-13263341D02*
X3512920Y-13225246D01*
X3512920Y-13225246D02*
X3522444Y-13177627D01*
X3522444Y-13177627D02*
X3531968Y-13149055D01*
X3531968Y-13149055D02*
X3541491Y-13130008D01*
X3541491Y-13130008D02*
X3560539Y-13101436D01*
X3560539Y-13101436D02*
X3570063Y-13091912D01*
X3636729Y-13139531D02*
X3646253Y-13130008D01*
X3646253Y-13130008D02*
X3665301Y-13120484D01*
X3665301Y-13120484D02*
X3712920Y-13120484D01*
X3712920Y-13120484D02*
X3731968Y-13130008D01*
X3731968Y-13130008D02*
X3741491Y-13139531D01*
X3741491Y-13139531D02*
X3751015Y-13158579D01*
X3751015Y-13158579D02*
X3751015Y-13177627D01*
X3751015Y-13177627D02*
X3741491Y-13206198D01*
X3741491Y-13206198D02*
X3627206Y-13320484D01*
X3627206Y-13320484D02*
X3751015Y-13320484D01*
X3989110Y-13320484D02*
X3989110Y-13120484D01*
X4074825Y-13320484D02*
X4074825Y-13215722D01*
X4074825Y-13215722D02*
X4065301Y-13196674D01*
X4065301Y-13196674D02*
X4046253Y-13187150D01*
X4046253Y-13187150D02*
X4017682Y-13187150D01*
X4017682Y-13187150D02*
X3998634Y-13196674D01*
X3998634Y-13196674D02*
X3989110Y-13206198D01*
X4198634Y-13320484D02*
X4179587Y-13310960D01*
X4179587Y-13310960D02*
X4170063Y-13301436D01*
X4170063Y-13301436D02*
X4160539Y-13282388D01*
X4160539Y-13282388D02*
X4160539Y-13225246D01*
X4160539Y-13225246D02*
X4170063Y-13206198D01*
X4170063Y-13206198D02*
X4179587Y-13196674D01*
X4179587Y-13196674D02*
X4198634Y-13187150D01*
X4198634Y-13187150D02*
X4227206Y-13187150D01*
X4227206Y-13187150D02*
X4246253Y-13196674D01*
X4246253Y-13196674D02*
X4255777Y-13206198D01*
X4255777Y-13206198D02*
X4265301Y-13225246D01*
X4265301Y-13225246D02*
X4265301Y-13282388D01*
X4265301Y-13282388D02*
X4255777Y-13301436D01*
X4255777Y-13301436D02*
X4246253Y-13310960D01*
X4246253Y-13310960D02*
X4227206Y-13320484D01*
X4227206Y-13320484D02*
X4198634Y-13320484D01*
X4379587Y-13320484D02*
X4360539Y-13310960D01*
X4360539Y-13310960D02*
X4351015Y-13291912D01*
X4351015Y-13291912D02*
X4351015Y-13120484D01*
X4531968Y-13310960D02*
X4512920Y-13320484D01*
X4512920Y-13320484D02*
X4474825Y-13320484D01*
X4474825Y-13320484D02*
X4455777Y-13310960D01*
X4455777Y-13310960D02*
X4446253Y-13291912D01*
X4446253Y-13291912D02*
X4446253Y-13215722D01*
X4446253Y-13215722D02*
X4455777Y-13196674D01*
X4455777Y-13196674D02*
X4474825Y-13187150D01*
X4474825Y-13187150D02*
X4512920Y-13187150D01*
X4512920Y-13187150D02*
X4531968Y-13196674D01*
X4531968Y-13196674D02*
X4541492Y-13215722D01*
X4541492Y-13215722D02*
X4541492Y-13234769D01*
X4541492Y-13234769D02*
X4446253Y-13253817D01*
X4617682Y-13310960D02*
X4636730Y-13320484D01*
X4636730Y-13320484D02*
X4674825Y-13320484D01*
X4674825Y-13320484D02*
X4693873Y-13310960D01*
X4693873Y-13310960D02*
X4703396Y-13291912D01*
X4703396Y-13291912D02*
X4703396Y-13282388D01*
X4703396Y-13282388D02*
X4693873Y-13263341D01*
X4693873Y-13263341D02*
X4674825Y-13253817D01*
X4674825Y-13253817D02*
X4646253Y-13253817D01*
X4646253Y-13253817D02*
X4627206Y-13244293D01*
X4627206Y-13244293D02*
X4617682Y-13225246D01*
X4617682Y-13225246D02*
X4617682Y-13215722D01*
X4617682Y-13215722D02*
X4627206Y-13196674D01*
X4627206Y-13196674D02*
X4646253Y-13187150D01*
X4646253Y-13187150D02*
X4674825Y-13187150D01*
X4674825Y-13187150D02*
X4693873Y-13196674D01*
X4770063Y-13396674D02*
X4779587Y-13387150D01*
X4779587Y-13387150D02*
X4798634Y-13358579D01*
X4798634Y-13358579D02*
X4808158Y-13339531D01*
X4808158Y-13339531D02*
X4817682Y-13310960D01*
X4817682Y-13310960D02*
X4827206Y-13263341D01*
X4827206Y-13263341D02*
X4827206Y-13225246D01*
X4827206Y-13225246D02*
X4817682Y-13177627D01*
X4817682Y-13177627D02*
X4808158Y-13149055D01*
X4808158Y-13149055D02*
X4798634Y-13130008D01*
X4798634Y-13130008D02*
X4779587Y-13101436D01*
X4779587Y-13101436D02*
X4770063Y-13091912D01*
D15*
X-124380Y-13433310D02*
X-5000Y-13552690D01*
X-5000Y-13433310D02*
X-124380Y-13552690D01*
X-22482Y-13535208D02*
X-22482Y-13450792D01*
X-106898Y-13450792D01*
X-106898Y-13535208D01*
X-22482Y-13535208D01*
D11*
X360539Y-13584484D02*
X246253Y-13584484D01*
X303396Y-13584484D02*
X303396Y-13384484D01*
X303396Y-13384484D02*
X284348Y-13413055D01*
X284348Y-13413055D02*
X265301Y-13432103D01*
X265301Y-13432103D02*
X246253Y-13441627D01*
X446253Y-13565436D02*
X455777Y-13574960D01*
X455777Y-13574960D02*
X446253Y-13584484D01*
X446253Y-13584484D02*
X436729Y-13574960D01*
X436729Y-13574960D02*
X446253Y-13565436D01*
X446253Y-13565436D02*
X446253Y-13584484D01*
X646253Y-13584484D02*
X531967Y-13584484D01*
X589110Y-13584484D02*
X589110Y-13384484D01*
X589110Y-13384484D02*
X570063Y-13413055D01*
X570063Y-13413055D02*
X551015Y-13432103D01*
X551015Y-13432103D02*
X531967Y-13441627D01*
X741491Y-13584484D02*
X779586Y-13584484D01*
X779586Y-13584484D02*
X798634Y-13574960D01*
X798634Y-13574960D02*
X808158Y-13565436D01*
X808158Y-13565436D02*
X827205Y-13536865D01*
X827205Y-13536865D02*
X836729Y-13498769D01*
X836729Y-13498769D02*
X836729Y-13422579D01*
X836729Y-13422579D02*
X827205Y-13403531D01*
X827205Y-13403531D02*
X817682Y-13394008D01*
X817682Y-13394008D02*
X798634Y-13384484D01*
X798634Y-13384484D02*
X760539Y-13384484D01*
X760539Y-13384484D02*
X741491Y-13394008D01*
X741491Y-13394008D02*
X731967Y-13403531D01*
X731967Y-13403531D02*
X722443Y-13422579D01*
X722443Y-13422579D02*
X722443Y-13470198D01*
X722443Y-13470198D02*
X731967Y-13489246D01*
X731967Y-13489246D02*
X741491Y-13498769D01*
X741491Y-13498769D02*
X760539Y-13508293D01*
X760539Y-13508293D02*
X798634Y-13508293D01*
X798634Y-13508293D02*
X817682Y-13498769D01*
X817682Y-13498769D02*
X827205Y-13489246D01*
X827205Y-13489246D02*
X836729Y-13470198D01*
X1008158Y-13451150D02*
X1008158Y-13584484D01*
X960539Y-13374960D02*
X912920Y-13517817D01*
X912920Y-13517817D02*
X1036729Y-13517817D01*
X1112920Y-13584484D02*
X1112920Y-13451150D01*
X1112920Y-13470198D02*
X1122444Y-13460674D01*
X1122444Y-13460674D02*
X1141491Y-13451150D01*
X1141491Y-13451150D02*
X1170063Y-13451150D01*
X1170063Y-13451150D02*
X1189110Y-13460674D01*
X1189110Y-13460674D02*
X1198634Y-13479722D01*
X1198634Y-13479722D02*
X1198634Y-13584484D01*
X1198634Y-13479722D02*
X1208158Y-13460674D01*
X1208158Y-13460674D02*
X1227205Y-13451150D01*
X1227205Y-13451150D02*
X1255777Y-13451150D01*
X1255777Y-13451150D02*
X1274825Y-13460674D01*
X1274825Y-13460674D02*
X1284348Y-13479722D01*
X1284348Y-13479722D02*
X1284348Y-13584484D01*
X1379586Y-13584484D02*
X1379586Y-13451150D01*
X1379586Y-13470198D02*
X1389110Y-13460674D01*
X1389110Y-13460674D02*
X1408158Y-13451150D01*
X1408158Y-13451150D02*
X1436729Y-13451150D01*
X1436729Y-13451150D02*
X1455777Y-13460674D01*
X1455777Y-13460674D02*
X1465301Y-13479722D01*
X1465301Y-13479722D02*
X1465301Y-13584484D01*
X1465301Y-13479722D02*
X1474824Y-13460674D01*
X1474824Y-13460674D02*
X1493872Y-13451150D01*
X1493872Y-13451150D02*
X1522443Y-13451150D01*
X1522443Y-13451150D02*
X1541491Y-13460674D01*
X1541491Y-13460674D02*
X1551015Y-13479722D01*
X1551015Y-13479722D02*
X1551015Y-13584484D01*
X1941491Y-13374960D02*
X1770063Y-13632103D01*
X2198634Y-13384484D02*
X2217682Y-13384484D01*
X2217682Y-13384484D02*
X2236729Y-13394008D01*
X2236729Y-13394008D02*
X2246253Y-13403531D01*
X2246253Y-13403531D02*
X2255777Y-13422579D01*
X2255777Y-13422579D02*
X2265301Y-13460674D01*
X2265301Y-13460674D02*
X2265301Y-13508293D01*
X2265301Y-13508293D02*
X2255777Y-13546388D01*
X2255777Y-13546388D02*
X2246253Y-13565436D01*
X2246253Y-13565436D02*
X2236729Y-13574960D01*
X2236729Y-13574960D02*
X2217682Y-13584484D01*
X2217682Y-13584484D02*
X2198634Y-13584484D01*
X2198634Y-13584484D02*
X2179587Y-13574960D01*
X2179587Y-13574960D02*
X2170063Y-13565436D01*
X2170063Y-13565436D02*
X2160539Y-13546388D01*
X2160539Y-13546388D02*
X2151015Y-13508293D01*
X2151015Y-13508293D02*
X2151015Y-13460674D01*
X2151015Y-13460674D02*
X2160539Y-13422579D01*
X2160539Y-13422579D02*
X2170063Y-13403531D01*
X2170063Y-13403531D02*
X2179587Y-13394008D01*
X2179587Y-13394008D02*
X2198634Y-13384484D01*
X2351015Y-13565436D02*
X2360539Y-13574960D01*
X2360539Y-13574960D02*
X2351015Y-13584484D01*
X2351015Y-13584484D02*
X2341491Y-13574960D01*
X2341491Y-13574960D02*
X2351015Y-13565436D01*
X2351015Y-13565436D02*
X2351015Y-13584484D01*
X2484348Y-13384484D02*
X2503396Y-13384484D01*
X2503396Y-13384484D02*
X2522444Y-13394008D01*
X2522444Y-13394008D02*
X2531968Y-13403531D01*
X2531968Y-13403531D02*
X2541491Y-13422579D01*
X2541491Y-13422579D02*
X2551015Y-13460674D01*
X2551015Y-13460674D02*
X2551015Y-13508293D01*
X2551015Y-13508293D02*
X2541491Y-13546388D01*
X2541491Y-13546388D02*
X2531968Y-13565436D01*
X2531968Y-13565436D02*
X2522444Y-13574960D01*
X2522444Y-13574960D02*
X2503396Y-13584484D01*
X2503396Y-13584484D02*
X2484348Y-13584484D01*
X2484348Y-13584484D02*
X2465301Y-13574960D01*
X2465301Y-13574960D02*
X2455777Y-13565436D01*
X2455777Y-13565436D02*
X2446253Y-13546388D01*
X2446253Y-13546388D02*
X2436729Y-13508293D01*
X2436729Y-13508293D02*
X2436729Y-13460674D01*
X2436729Y-13460674D02*
X2446253Y-13422579D01*
X2446253Y-13422579D02*
X2455777Y-13403531D01*
X2455777Y-13403531D02*
X2465301Y-13394008D01*
X2465301Y-13394008D02*
X2484348Y-13384484D01*
X2722444Y-13451150D02*
X2722444Y-13584484D01*
X2674825Y-13374960D02*
X2627206Y-13517817D01*
X2627206Y-13517817D02*
X2751015Y-13517817D01*
X2808158Y-13384484D02*
X2941491Y-13384484D01*
X2941491Y-13384484D02*
X2855777Y-13584484D01*
X3055777Y-13384484D02*
X3074825Y-13384484D01*
X3074825Y-13384484D02*
X3093872Y-13394008D01*
X3093872Y-13394008D02*
X3103396Y-13403531D01*
X3103396Y-13403531D02*
X3112920Y-13422579D01*
X3112920Y-13422579D02*
X3122444Y-13460674D01*
X3122444Y-13460674D02*
X3122444Y-13508293D01*
X3122444Y-13508293D02*
X3112920Y-13546388D01*
X3112920Y-13546388D02*
X3103396Y-13565436D01*
X3103396Y-13565436D02*
X3093872Y-13574960D01*
X3093872Y-13574960D02*
X3074825Y-13584484D01*
X3074825Y-13584484D02*
X3055777Y-13584484D01*
X3055777Y-13584484D02*
X3036729Y-13574960D01*
X3036729Y-13574960D02*
X3027206Y-13565436D01*
X3027206Y-13565436D02*
X3017682Y-13546388D01*
X3017682Y-13546388D02*
X3008158Y-13508293D01*
X3008158Y-13508293D02*
X3008158Y-13460674D01*
X3008158Y-13460674D02*
X3017682Y-13422579D01*
X3017682Y-13422579D02*
X3027206Y-13403531D01*
X3027206Y-13403531D02*
X3036729Y-13394008D01*
X3036729Y-13394008D02*
X3055777Y-13384484D01*
X3198634Y-13384484D02*
X3198634Y-13422579D01*
X3274825Y-13384484D02*
X3274825Y-13422579D01*
X3570063Y-13660674D02*
X3560539Y-13651150D01*
X3560539Y-13651150D02*
X3541491Y-13622579D01*
X3541491Y-13622579D02*
X3531968Y-13603531D01*
X3531968Y-13603531D02*
X3522444Y-13574960D01*
X3522444Y-13574960D02*
X3512920Y-13527341D01*
X3512920Y-13527341D02*
X3512920Y-13489246D01*
X3512920Y-13489246D02*
X3522444Y-13441627D01*
X3522444Y-13441627D02*
X3531968Y-13413055D01*
X3531968Y-13413055D02*
X3541491Y-13394008D01*
X3541491Y-13394008D02*
X3560539Y-13365436D01*
X3560539Y-13365436D02*
X3570063Y-13355912D01*
X3674825Y-13470198D02*
X3655777Y-13460674D01*
X3655777Y-13460674D02*
X3646253Y-13451150D01*
X3646253Y-13451150D02*
X3636729Y-13432103D01*
X3636729Y-13432103D02*
X3636729Y-13422579D01*
X3636729Y-13422579D02*
X3646253Y-13403531D01*
X3646253Y-13403531D02*
X3655777Y-13394008D01*
X3655777Y-13394008D02*
X3674825Y-13384484D01*
X3674825Y-13384484D02*
X3712920Y-13384484D01*
X3712920Y-13384484D02*
X3731968Y-13394008D01*
X3731968Y-13394008D02*
X3741491Y-13403531D01*
X3741491Y-13403531D02*
X3751015Y-13422579D01*
X3751015Y-13422579D02*
X3751015Y-13432103D01*
X3751015Y-13432103D02*
X3741491Y-13451150D01*
X3741491Y-13451150D02*
X3731968Y-13460674D01*
X3731968Y-13460674D02*
X3712920Y-13470198D01*
X3712920Y-13470198D02*
X3674825Y-13470198D01*
X3674825Y-13470198D02*
X3655777Y-13479722D01*
X3655777Y-13479722D02*
X3646253Y-13489246D01*
X3646253Y-13489246D02*
X3636729Y-13508293D01*
X3636729Y-13508293D02*
X3636729Y-13546388D01*
X3636729Y-13546388D02*
X3646253Y-13565436D01*
X3646253Y-13565436D02*
X3655777Y-13574960D01*
X3655777Y-13574960D02*
X3674825Y-13584484D01*
X3674825Y-13584484D02*
X3712920Y-13584484D01*
X3712920Y-13584484D02*
X3731968Y-13574960D01*
X3731968Y-13574960D02*
X3741491Y-13565436D01*
X3741491Y-13565436D02*
X3751015Y-13546388D01*
X3751015Y-13546388D02*
X3751015Y-13508293D01*
X3751015Y-13508293D02*
X3741491Y-13489246D01*
X3741491Y-13489246D02*
X3731968Y-13479722D01*
X3731968Y-13479722D02*
X3712920Y-13470198D01*
X3989110Y-13584484D02*
X3989110Y-13384484D01*
X4074825Y-13584484D02*
X4074825Y-13479722D01*
X4074825Y-13479722D02*
X4065301Y-13460674D01*
X4065301Y-13460674D02*
X4046253Y-13451150D01*
X4046253Y-13451150D02*
X4017682Y-13451150D01*
X4017682Y-13451150D02*
X3998634Y-13460674D01*
X3998634Y-13460674D02*
X3989110Y-13470198D01*
X4198634Y-13584484D02*
X4179587Y-13574960D01*
X4179587Y-13574960D02*
X4170063Y-13565436D01*
X4170063Y-13565436D02*
X4160539Y-13546388D01*
X4160539Y-13546388D02*
X4160539Y-13489246D01*
X4160539Y-13489246D02*
X4170063Y-13470198D01*
X4170063Y-13470198D02*
X4179587Y-13460674D01*
X4179587Y-13460674D02*
X4198634Y-13451150D01*
X4198634Y-13451150D02*
X4227206Y-13451150D01*
X4227206Y-13451150D02*
X4246253Y-13460674D01*
X4246253Y-13460674D02*
X4255777Y-13470198D01*
X4255777Y-13470198D02*
X4265301Y-13489246D01*
X4265301Y-13489246D02*
X4265301Y-13546388D01*
X4265301Y-13546388D02*
X4255777Y-13565436D01*
X4255777Y-13565436D02*
X4246253Y-13574960D01*
X4246253Y-13574960D02*
X4227206Y-13584484D01*
X4227206Y-13584484D02*
X4198634Y-13584484D01*
X4379587Y-13584484D02*
X4360539Y-13574960D01*
X4360539Y-13574960D02*
X4351015Y-13555912D01*
X4351015Y-13555912D02*
X4351015Y-13384484D01*
X4531968Y-13574960D02*
X4512920Y-13584484D01*
X4512920Y-13584484D02*
X4474825Y-13584484D01*
X4474825Y-13584484D02*
X4455777Y-13574960D01*
X4455777Y-13574960D02*
X4446253Y-13555912D01*
X4446253Y-13555912D02*
X4446253Y-13479722D01*
X4446253Y-13479722D02*
X4455777Y-13460674D01*
X4455777Y-13460674D02*
X4474825Y-13451150D01*
X4474825Y-13451150D02*
X4512920Y-13451150D01*
X4512920Y-13451150D02*
X4531968Y-13460674D01*
X4531968Y-13460674D02*
X4541492Y-13479722D01*
X4541492Y-13479722D02*
X4541492Y-13498769D01*
X4541492Y-13498769D02*
X4446253Y-13517817D01*
X4617682Y-13574960D02*
X4636730Y-13584484D01*
X4636730Y-13584484D02*
X4674825Y-13584484D01*
X4674825Y-13584484D02*
X4693873Y-13574960D01*
X4693873Y-13574960D02*
X4703396Y-13555912D01*
X4703396Y-13555912D02*
X4703396Y-13546388D01*
X4703396Y-13546388D02*
X4693873Y-13527341D01*
X4693873Y-13527341D02*
X4674825Y-13517817D01*
X4674825Y-13517817D02*
X4646253Y-13517817D01*
X4646253Y-13517817D02*
X4627206Y-13508293D01*
X4627206Y-13508293D02*
X4617682Y-13489246D01*
X4617682Y-13489246D02*
X4617682Y-13479722D01*
X4617682Y-13479722D02*
X4627206Y-13460674D01*
X4627206Y-13460674D02*
X4646253Y-13451150D01*
X4646253Y-13451150D02*
X4674825Y-13451150D01*
X4674825Y-13451150D02*
X4693873Y-13460674D01*
X4770063Y-13660674D02*
X4779587Y-13651150D01*
X4779587Y-13651150D02*
X4798634Y-13622579D01*
X4798634Y-13622579D02*
X4808158Y-13603531D01*
X4808158Y-13603531D02*
X4817682Y-13574960D01*
X4817682Y-13574960D02*
X4827206Y-13527341D01*
X4827206Y-13527341D02*
X4827206Y-13489246D01*
X4827206Y-13489246D02*
X4817682Y-13441627D01*
X4817682Y-13441627D02*
X4808158Y-13413055D01*
X4808158Y-13413055D02*
X4798634Y-13394008D01*
X4798634Y-13394008D02*
X4779587Y-13365436D01*
X4779587Y-13365436D02*
X4770063Y-13355912D01*
X-205000Y-13657000D02*
X-5000Y-13857000D01*
X-5000Y-13657000D02*
X-205000Y-13857000D01*
X-105000Y-13857000D02*
X-5000Y-13757000D01*
X-105000Y-13657000D01*
X-205000Y-13757000D01*
X-105000Y-13857000D01*
X246253Y-13667531D02*
X255777Y-13658008D01*
X255777Y-13658008D02*
X274824Y-13648484D01*
X274824Y-13648484D02*
X322444Y-13648484D01*
X322444Y-13648484D02*
X341491Y-13658008D01*
X341491Y-13658008D02*
X351015Y-13667531D01*
X351015Y-13667531D02*
X360539Y-13686579D01*
X360539Y-13686579D02*
X360539Y-13705627D01*
X360539Y-13705627D02*
X351015Y-13734198D01*
X351015Y-13734198D02*
X236729Y-13848484D01*
X236729Y-13848484D02*
X360539Y-13848484D01*
X446253Y-13829436D02*
X455777Y-13838960D01*
X455777Y-13838960D02*
X446253Y-13848484D01*
X446253Y-13848484D02*
X436729Y-13838960D01*
X436729Y-13838960D02*
X446253Y-13829436D01*
X446253Y-13829436D02*
X446253Y-13848484D01*
X636729Y-13648484D02*
X541491Y-13648484D01*
X541491Y-13648484D02*
X531967Y-13743722D01*
X531967Y-13743722D02*
X541491Y-13734198D01*
X541491Y-13734198D02*
X560539Y-13724674D01*
X560539Y-13724674D02*
X608158Y-13724674D01*
X608158Y-13724674D02*
X627205Y-13734198D01*
X627205Y-13734198D02*
X636729Y-13743722D01*
X636729Y-13743722D02*
X646253Y-13762769D01*
X646253Y-13762769D02*
X646253Y-13810388D01*
X646253Y-13810388D02*
X636729Y-13829436D01*
X636729Y-13829436D02*
X627205Y-13838960D01*
X627205Y-13838960D02*
X608158Y-13848484D01*
X608158Y-13848484D02*
X560539Y-13848484D01*
X560539Y-13848484D02*
X541491Y-13838960D01*
X541491Y-13838960D02*
X531967Y-13829436D01*
X741491Y-13848484D02*
X779586Y-13848484D01*
X779586Y-13848484D02*
X798634Y-13838960D01*
X798634Y-13838960D02*
X808158Y-13829436D01*
X808158Y-13829436D02*
X827205Y-13800865D01*
X827205Y-13800865D02*
X836729Y-13762769D01*
X836729Y-13762769D02*
X836729Y-13686579D01*
X836729Y-13686579D02*
X827205Y-13667531D01*
X827205Y-13667531D02*
X817682Y-13658008D01*
X817682Y-13658008D02*
X798634Y-13648484D01*
X798634Y-13648484D02*
X760539Y-13648484D01*
X760539Y-13648484D02*
X741491Y-13658008D01*
X741491Y-13658008D02*
X731967Y-13667531D01*
X731967Y-13667531D02*
X722443Y-13686579D01*
X722443Y-13686579D02*
X722443Y-13734198D01*
X722443Y-13734198D02*
X731967Y-13753246D01*
X731967Y-13753246D02*
X741491Y-13762769D01*
X741491Y-13762769D02*
X760539Y-13772293D01*
X760539Y-13772293D02*
X798634Y-13772293D01*
X798634Y-13772293D02*
X817682Y-13762769D01*
X817682Y-13762769D02*
X827205Y-13753246D01*
X827205Y-13753246D02*
X836729Y-13734198D01*
X960539Y-13648484D02*
X979586Y-13648484D01*
X979586Y-13648484D02*
X998634Y-13658008D01*
X998634Y-13658008D02*
X1008158Y-13667531D01*
X1008158Y-13667531D02*
X1017682Y-13686579D01*
X1017682Y-13686579D02*
X1027205Y-13724674D01*
X1027205Y-13724674D02*
X1027205Y-13772293D01*
X1027205Y-13772293D02*
X1017682Y-13810388D01*
X1017682Y-13810388D02*
X1008158Y-13829436D01*
X1008158Y-13829436D02*
X998634Y-13838960D01*
X998634Y-13838960D02*
X979586Y-13848484D01*
X979586Y-13848484D02*
X960539Y-13848484D01*
X960539Y-13848484D02*
X941491Y-13838960D01*
X941491Y-13838960D02*
X931967Y-13829436D01*
X931967Y-13829436D02*
X922443Y-13810388D01*
X922443Y-13810388D02*
X912920Y-13772293D01*
X912920Y-13772293D02*
X912920Y-13724674D01*
X912920Y-13724674D02*
X922443Y-13686579D01*
X922443Y-13686579D02*
X931967Y-13667531D01*
X931967Y-13667531D02*
X941491Y-13658008D01*
X941491Y-13658008D02*
X960539Y-13648484D01*
X1112920Y-13848484D02*
X1112920Y-13715150D01*
X1112920Y-13734198D02*
X1122444Y-13724674D01*
X1122444Y-13724674D02*
X1141491Y-13715150D01*
X1141491Y-13715150D02*
X1170063Y-13715150D01*
X1170063Y-13715150D02*
X1189110Y-13724674D01*
X1189110Y-13724674D02*
X1198634Y-13743722D01*
X1198634Y-13743722D02*
X1198634Y-13848484D01*
X1198634Y-13743722D02*
X1208158Y-13724674D01*
X1208158Y-13724674D02*
X1227205Y-13715150D01*
X1227205Y-13715150D02*
X1255777Y-13715150D01*
X1255777Y-13715150D02*
X1274825Y-13724674D01*
X1274825Y-13724674D02*
X1284348Y-13743722D01*
X1284348Y-13743722D02*
X1284348Y-13848484D01*
X1379586Y-13848484D02*
X1379586Y-13715150D01*
X1379586Y-13734198D02*
X1389110Y-13724674D01*
X1389110Y-13724674D02*
X1408158Y-13715150D01*
X1408158Y-13715150D02*
X1436729Y-13715150D01*
X1436729Y-13715150D02*
X1455777Y-13724674D01*
X1455777Y-13724674D02*
X1465301Y-13743722D01*
X1465301Y-13743722D02*
X1465301Y-13848484D01*
X1465301Y-13743722D02*
X1474824Y-13724674D01*
X1474824Y-13724674D02*
X1493872Y-13715150D01*
X1493872Y-13715150D02*
X1522443Y-13715150D01*
X1522443Y-13715150D02*
X1541491Y-13724674D01*
X1541491Y-13724674D02*
X1551015Y-13743722D01*
X1551015Y-13743722D02*
X1551015Y-13848484D01*
X1941491Y-13638960D02*
X1770063Y-13896103D01*
X2198634Y-13648484D02*
X2217682Y-13648484D01*
X2217682Y-13648484D02*
X2236729Y-13658008D01*
X2236729Y-13658008D02*
X2246253Y-13667531D01*
X2246253Y-13667531D02*
X2255777Y-13686579D01*
X2255777Y-13686579D02*
X2265301Y-13724674D01*
X2265301Y-13724674D02*
X2265301Y-13772293D01*
X2265301Y-13772293D02*
X2255777Y-13810388D01*
X2255777Y-13810388D02*
X2246253Y-13829436D01*
X2246253Y-13829436D02*
X2236729Y-13838960D01*
X2236729Y-13838960D02*
X2217682Y-13848484D01*
X2217682Y-13848484D02*
X2198634Y-13848484D01*
X2198634Y-13848484D02*
X2179587Y-13838960D01*
X2179587Y-13838960D02*
X2170063Y-13829436D01*
X2170063Y-13829436D02*
X2160539Y-13810388D01*
X2160539Y-13810388D02*
X2151015Y-13772293D01*
X2151015Y-13772293D02*
X2151015Y-13724674D01*
X2151015Y-13724674D02*
X2160539Y-13686579D01*
X2160539Y-13686579D02*
X2170063Y-13667531D01*
X2170063Y-13667531D02*
X2179587Y-13658008D01*
X2179587Y-13658008D02*
X2198634Y-13648484D01*
X2351015Y-13829436D02*
X2360539Y-13838960D01*
X2360539Y-13838960D02*
X2351015Y-13848484D01*
X2351015Y-13848484D02*
X2341491Y-13838960D01*
X2341491Y-13838960D02*
X2351015Y-13829436D01*
X2351015Y-13829436D02*
X2351015Y-13848484D01*
X2551015Y-13848484D02*
X2436729Y-13848484D01*
X2493872Y-13848484D02*
X2493872Y-13648484D01*
X2493872Y-13648484D02*
X2474825Y-13677055D01*
X2474825Y-13677055D02*
X2455777Y-13696103D01*
X2455777Y-13696103D02*
X2436729Y-13705627D01*
X2674825Y-13648484D02*
X2693872Y-13648484D01*
X2693872Y-13648484D02*
X2712920Y-13658008D01*
X2712920Y-13658008D02*
X2722444Y-13667531D01*
X2722444Y-13667531D02*
X2731968Y-13686579D01*
X2731968Y-13686579D02*
X2741491Y-13724674D01*
X2741491Y-13724674D02*
X2741491Y-13772293D01*
X2741491Y-13772293D02*
X2731968Y-13810388D01*
X2731968Y-13810388D02*
X2722444Y-13829436D01*
X2722444Y-13829436D02*
X2712920Y-13838960D01*
X2712920Y-13838960D02*
X2693872Y-13848484D01*
X2693872Y-13848484D02*
X2674825Y-13848484D01*
X2674825Y-13848484D02*
X2655777Y-13838960D01*
X2655777Y-13838960D02*
X2646253Y-13829436D01*
X2646253Y-13829436D02*
X2636729Y-13810388D01*
X2636729Y-13810388D02*
X2627206Y-13772293D01*
X2627206Y-13772293D02*
X2627206Y-13724674D01*
X2627206Y-13724674D02*
X2636729Y-13686579D01*
X2636729Y-13686579D02*
X2646253Y-13667531D01*
X2646253Y-13667531D02*
X2655777Y-13658008D01*
X2655777Y-13658008D02*
X2674825Y-13648484D01*
X2817682Y-13667531D02*
X2827206Y-13658008D01*
X2827206Y-13658008D02*
X2846253Y-13648484D01*
X2846253Y-13648484D02*
X2893872Y-13648484D01*
X2893872Y-13648484D02*
X2912920Y-13658008D01*
X2912920Y-13658008D02*
X2922444Y-13667531D01*
X2922444Y-13667531D02*
X2931967Y-13686579D01*
X2931967Y-13686579D02*
X2931967Y-13705627D01*
X2931967Y-13705627D02*
X2922444Y-13734198D01*
X2922444Y-13734198D02*
X2808158Y-13848484D01*
X2808158Y-13848484D02*
X2931967Y-13848484D01*
X3055777Y-13648484D02*
X3074825Y-13648484D01*
X3074825Y-13648484D02*
X3093872Y-13658008D01*
X3093872Y-13658008D02*
X3103396Y-13667531D01*
X3103396Y-13667531D02*
X3112920Y-13686579D01*
X3112920Y-13686579D02*
X3122444Y-13724674D01*
X3122444Y-13724674D02*
X3122444Y-13772293D01*
X3122444Y-13772293D02*
X3112920Y-13810388D01*
X3112920Y-13810388D02*
X3103396Y-13829436D01*
X3103396Y-13829436D02*
X3093872Y-13838960D01*
X3093872Y-13838960D02*
X3074825Y-13848484D01*
X3074825Y-13848484D02*
X3055777Y-13848484D01*
X3055777Y-13848484D02*
X3036729Y-13838960D01*
X3036729Y-13838960D02*
X3027206Y-13829436D01*
X3027206Y-13829436D02*
X3017682Y-13810388D01*
X3017682Y-13810388D02*
X3008158Y-13772293D01*
X3008158Y-13772293D02*
X3008158Y-13724674D01*
X3008158Y-13724674D02*
X3017682Y-13686579D01*
X3017682Y-13686579D02*
X3027206Y-13667531D01*
X3027206Y-13667531D02*
X3036729Y-13658008D01*
X3036729Y-13658008D02*
X3055777Y-13648484D01*
X3198634Y-13648484D02*
X3198634Y-13686579D01*
X3274825Y-13648484D02*
X3274825Y-13686579D01*
X3570063Y-13924674D02*
X3560539Y-13915150D01*
X3560539Y-13915150D02*
X3541491Y-13886579D01*
X3541491Y-13886579D02*
X3531968Y-13867531D01*
X3531968Y-13867531D02*
X3522444Y-13838960D01*
X3522444Y-13838960D02*
X3512920Y-13791341D01*
X3512920Y-13791341D02*
X3512920Y-13753246D01*
X3512920Y-13753246D02*
X3522444Y-13705627D01*
X3522444Y-13705627D02*
X3531968Y-13677055D01*
X3531968Y-13677055D02*
X3541491Y-13658008D01*
X3541491Y-13658008D02*
X3560539Y-13629436D01*
X3560539Y-13629436D02*
X3570063Y-13619912D01*
X3731968Y-13715150D02*
X3731968Y-13848484D01*
X3684348Y-13638960D02*
X3636729Y-13781817D01*
X3636729Y-13781817D02*
X3760539Y-13781817D01*
X3989110Y-13848484D02*
X3989110Y-13648484D01*
X4074825Y-13848484D02*
X4074825Y-13743722D01*
X4074825Y-13743722D02*
X4065301Y-13724674D01*
X4065301Y-13724674D02*
X4046253Y-13715150D01*
X4046253Y-13715150D02*
X4017682Y-13715150D01*
X4017682Y-13715150D02*
X3998634Y-13724674D01*
X3998634Y-13724674D02*
X3989110Y-13734198D01*
X4198634Y-13848484D02*
X4179587Y-13838960D01*
X4179587Y-13838960D02*
X4170063Y-13829436D01*
X4170063Y-13829436D02*
X4160539Y-13810388D01*
X4160539Y-13810388D02*
X4160539Y-13753246D01*
X4160539Y-13753246D02*
X4170063Y-13734198D01*
X4170063Y-13734198D02*
X4179587Y-13724674D01*
X4179587Y-13724674D02*
X4198634Y-13715150D01*
X4198634Y-13715150D02*
X4227206Y-13715150D01*
X4227206Y-13715150D02*
X4246253Y-13724674D01*
X4246253Y-13724674D02*
X4255777Y-13734198D01*
X4255777Y-13734198D02*
X4265301Y-13753246D01*
X4265301Y-13753246D02*
X4265301Y-13810388D01*
X4265301Y-13810388D02*
X4255777Y-13829436D01*
X4255777Y-13829436D02*
X4246253Y-13838960D01*
X4246253Y-13838960D02*
X4227206Y-13848484D01*
X4227206Y-13848484D02*
X4198634Y-13848484D01*
X4379587Y-13848484D02*
X4360539Y-13838960D01*
X4360539Y-13838960D02*
X4351015Y-13819912D01*
X4351015Y-13819912D02*
X4351015Y-13648484D01*
X4531968Y-13838960D02*
X4512920Y-13848484D01*
X4512920Y-13848484D02*
X4474825Y-13848484D01*
X4474825Y-13848484D02*
X4455777Y-13838960D01*
X4455777Y-13838960D02*
X4446253Y-13819912D01*
X4446253Y-13819912D02*
X4446253Y-13743722D01*
X4446253Y-13743722D02*
X4455777Y-13724674D01*
X4455777Y-13724674D02*
X4474825Y-13715150D01*
X4474825Y-13715150D02*
X4512920Y-13715150D01*
X4512920Y-13715150D02*
X4531968Y-13724674D01*
X4531968Y-13724674D02*
X4541492Y-13743722D01*
X4541492Y-13743722D02*
X4541492Y-13762769D01*
X4541492Y-13762769D02*
X4446253Y-13781817D01*
X4617682Y-13838960D02*
X4636730Y-13848484D01*
X4636730Y-13848484D02*
X4674825Y-13848484D01*
X4674825Y-13848484D02*
X4693873Y-13838960D01*
X4693873Y-13838960D02*
X4703396Y-13819912D01*
X4703396Y-13819912D02*
X4703396Y-13810388D01*
X4703396Y-13810388D02*
X4693873Y-13791341D01*
X4693873Y-13791341D02*
X4674825Y-13781817D01*
X4674825Y-13781817D02*
X4646253Y-13781817D01*
X4646253Y-13781817D02*
X4627206Y-13772293D01*
X4627206Y-13772293D02*
X4617682Y-13753246D01*
X4617682Y-13753246D02*
X4617682Y-13743722D01*
X4617682Y-13743722D02*
X4627206Y-13724674D01*
X4627206Y-13724674D02*
X4646253Y-13715150D01*
X4646253Y-13715150D02*
X4674825Y-13715150D01*
X4674825Y-13715150D02*
X4693873Y-13724674D01*
X4770063Y-13924674D02*
X4779587Y-13915150D01*
X4779587Y-13915150D02*
X4798634Y-13886579D01*
X4798634Y-13886579D02*
X4808158Y-13867531D01*
X4808158Y-13867531D02*
X4817682Y-13838960D01*
X4817682Y-13838960D02*
X4827206Y-13791341D01*
X4827206Y-13791341D02*
X4827206Y-13753246D01*
X4827206Y-13753246D02*
X4817682Y-13705627D01*
X4817682Y-13705627D02*
X4808158Y-13677055D01*
X4808158Y-13677055D02*
X4798634Y-13658008D01*
X4798634Y-13658008D02*
X4779587Y-13629436D01*
X4779587Y-13629436D02*
X4770063Y-13619912D01*
X-105000Y-13977000D02*
X-105000Y-14177000D01*
X-205000Y-14077000D02*
X-5000Y-14077000D01*
X-5000Y-14077000D02*
G75*
G03*
X-5000Y-14077000I-100000J0D01*
G01*
X236729Y-13968484D02*
X360539Y-13968484D01*
X360539Y-13968484D02*
X293872Y-14044674D01*
X293872Y-14044674D02*
X322444Y-14044674D01*
X322444Y-14044674D02*
X341491Y-14054198D01*
X341491Y-14054198D02*
X351015Y-14063722D01*
X351015Y-14063722D02*
X360539Y-14082769D01*
X360539Y-14082769D02*
X360539Y-14130388D01*
X360539Y-14130388D02*
X351015Y-14149436D01*
X351015Y-14149436D02*
X341491Y-14158960D01*
X341491Y-14158960D02*
X322444Y-14168484D01*
X322444Y-14168484D02*
X265301Y-14168484D01*
X265301Y-14168484D02*
X246253Y-14158960D01*
X246253Y-14158960D02*
X236729Y-14149436D01*
X446253Y-14149436D02*
X455777Y-14158960D01*
X455777Y-14158960D02*
X446253Y-14168484D01*
X446253Y-14168484D02*
X436729Y-14158960D01*
X436729Y-14158960D02*
X446253Y-14149436D01*
X446253Y-14149436D02*
X446253Y-14168484D01*
X531967Y-13987531D02*
X541491Y-13978008D01*
X541491Y-13978008D02*
X560539Y-13968484D01*
X560539Y-13968484D02*
X608158Y-13968484D01*
X608158Y-13968484D02*
X627205Y-13978008D01*
X627205Y-13978008D02*
X636729Y-13987531D01*
X636729Y-13987531D02*
X646253Y-14006579D01*
X646253Y-14006579D02*
X646253Y-14025627D01*
X646253Y-14025627D02*
X636729Y-14054198D01*
X636729Y-14054198D02*
X522443Y-14168484D01*
X522443Y-14168484D02*
X646253Y-14168484D01*
X770062Y-13968484D02*
X789110Y-13968484D01*
X789110Y-13968484D02*
X808158Y-13978008D01*
X808158Y-13978008D02*
X817682Y-13987531D01*
X817682Y-13987531D02*
X827205Y-14006579D01*
X827205Y-14006579D02*
X836729Y-14044674D01*
X836729Y-14044674D02*
X836729Y-14092293D01*
X836729Y-14092293D02*
X827205Y-14130388D01*
X827205Y-14130388D02*
X817682Y-14149436D01*
X817682Y-14149436D02*
X808158Y-14158960D01*
X808158Y-14158960D02*
X789110Y-14168484D01*
X789110Y-14168484D02*
X770062Y-14168484D01*
X770062Y-14168484D02*
X751015Y-14158960D01*
X751015Y-14158960D02*
X741491Y-14149436D01*
X741491Y-14149436D02*
X731967Y-14130388D01*
X731967Y-14130388D02*
X722443Y-14092293D01*
X722443Y-14092293D02*
X722443Y-14044674D01*
X722443Y-14044674D02*
X731967Y-14006579D01*
X731967Y-14006579D02*
X741491Y-13987531D01*
X741491Y-13987531D02*
X751015Y-13978008D01*
X751015Y-13978008D02*
X770062Y-13968484D01*
X960539Y-13968484D02*
X979586Y-13968484D01*
X979586Y-13968484D02*
X998634Y-13978008D01*
X998634Y-13978008D02*
X1008158Y-13987531D01*
X1008158Y-13987531D02*
X1017682Y-14006579D01*
X1017682Y-14006579D02*
X1027205Y-14044674D01*
X1027205Y-14044674D02*
X1027205Y-14092293D01*
X1027205Y-14092293D02*
X1017682Y-14130388D01*
X1017682Y-14130388D02*
X1008158Y-14149436D01*
X1008158Y-14149436D02*
X998634Y-14158960D01*
X998634Y-14158960D02*
X979586Y-14168484D01*
X979586Y-14168484D02*
X960539Y-14168484D01*
X960539Y-14168484D02*
X941491Y-14158960D01*
X941491Y-14158960D02*
X931967Y-14149436D01*
X931967Y-14149436D02*
X922443Y-14130388D01*
X922443Y-14130388D02*
X912920Y-14092293D01*
X912920Y-14092293D02*
X912920Y-14044674D01*
X912920Y-14044674D02*
X922443Y-14006579D01*
X922443Y-14006579D02*
X931967Y-13987531D01*
X931967Y-13987531D02*
X941491Y-13978008D01*
X941491Y-13978008D02*
X960539Y-13968484D01*
X1112920Y-14168484D02*
X1112920Y-14035150D01*
X1112920Y-14054198D02*
X1122444Y-14044674D01*
X1122444Y-14044674D02*
X1141491Y-14035150D01*
X1141491Y-14035150D02*
X1170063Y-14035150D01*
X1170063Y-14035150D02*
X1189110Y-14044674D01*
X1189110Y-14044674D02*
X1198634Y-14063722D01*
X1198634Y-14063722D02*
X1198634Y-14168484D01*
X1198634Y-14063722D02*
X1208158Y-14044674D01*
X1208158Y-14044674D02*
X1227205Y-14035150D01*
X1227205Y-14035150D02*
X1255777Y-14035150D01*
X1255777Y-14035150D02*
X1274825Y-14044674D01*
X1274825Y-14044674D02*
X1284348Y-14063722D01*
X1284348Y-14063722D02*
X1284348Y-14168484D01*
X1379586Y-14168484D02*
X1379586Y-14035150D01*
X1379586Y-14054198D02*
X1389110Y-14044674D01*
X1389110Y-14044674D02*
X1408158Y-14035150D01*
X1408158Y-14035150D02*
X1436729Y-14035150D01*
X1436729Y-14035150D02*
X1455777Y-14044674D01*
X1455777Y-14044674D02*
X1465301Y-14063722D01*
X1465301Y-14063722D02*
X1465301Y-14168484D01*
X1465301Y-14063722D02*
X1474824Y-14044674D01*
X1474824Y-14044674D02*
X1493872Y-14035150D01*
X1493872Y-14035150D02*
X1522443Y-14035150D01*
X1522443Y-14035150D02*
X1541491Y-14044674D01*
X1541491Y-14044674D02*
X1551015Y-14063722D01*
X1551015Y-14063722D02*
X1551015Y-14168484D01*
X1941491Y-13958960D02*
X1770063Y-14216103D01*
X2198634Y-13968484D02*
X2217682Y-13968484D01*
X2217682Y-13968484D02*
X2236729Y-13978008D01*
X2236729Y-13978008D02*
X2246253Y-13987531D01*
X2246253Y-13987531D02*
X2255777Y-14006579D01*
X2255777Y-14006579D02*
X2265301Y-14044674D01*
X2265301Y-14044674D02*
X2265301Y-14092293D01*
X2265301Y-14092293D02*
X2255777Y-14130388D01*
X2255777Y-14130388D02*
X2246253Y-14149436D01*
X2246253Y-14149436D02*
X2236729Y-14158960D01*
X2236729Y-14158960D02*
X2217682Y-14168484D01*
X2217682Y-14168484D02*
X2198634Y-14168484D01*
X2198634Y-14168484D02*
X2179587Y-14158960D01*
X2179587Y-14158960D02*
X2170063Y-14149436D01*
X2170063Y-14149436D02*
X2160539Y-14130388D01*
X2160539Y-14130388D02*
X2151015Y-14092293D01*
X2151015Y-14092293D02*
X2151015Y-14044674D01*
X2151015Y-14044674D02*
X2160539Y-14006579D01*
X2160539Y-14006579D02*
X2170063Y-13987531D01*
X2170063Y-13987531D02*
X2179587Y-13978008D01*
X2179587Y-13978008D02*
X2198634Y-13968484D01*
X2351015Y-14149436D02*
X2360539Y-14158960D01*
X2360539Y-14158960D02*
X2351015Y-14168484D01*
X2351015Y-14168484D02*
X2341491Y-14158960D01*
X2341491Y-14158960D02*
X2351015Y-14149436D01*
X2351015Y-14149436D02*
X2351015Y-14168484D01*
X2551015Y-14168484D02*
X2436729Y-14168484D01*
X2493872Y-14168484D02*
X2493872Y-13968484D01*
X2493872Y-13968484D02*
X2474825Y-13997055D01*
X2474825Y-13997055D02*
X2455777Y-14016103D01*
X2455777Y-14016103D02*
X2436729Y-14025627D01*
X2627206Y-13987531D02*
X2636729Y-13978008D01*
X2636729Y-13978008D02*
X2655777Y-13968484D01*
X2655777Y-13968484D02*
X2703396Y-13968484D01*
X2703396Y-13968484D02*
X2722444Y-13978008D01*
X2722444Y-13978008D02*
X2731968Y-13987531D01*
X2731968Y-13987531D02*
X2741491Y-14006579D01*
X2741491Y-14006579D02*
X2741491Y-14025627D01*
X2741491Y-14025627D02*
X2731968Y-14054198D01*
X2731968Y-14054198D02*
X2617682Y-14168484D01*
X2617682Y-14168484D02*
X2741491Y-14168484D01*
X2912920Y-13968484D02*
X2874825Y-13968484D01*
X2874825Y-13968484D02*
X2855777Y-13978008D01*
X2855777Y-13978008D02*
X2846253Y-13987531D01*
X2846253Y-13987531D02*
X2827206Y-14016103D01*
X2827206Y-14016103D02*
X2817682Y-14054198D01*
X2817682Y-14054198D02*
X2817682Y-14130388D01*
X2817682Y-14130388D02*
X2827206Y-14149436D01*
X2827206Y-14149436D02*
X2836729Y-14158960D01*
X2836729Y-14158960D02*
X2855777Y-14168484D01*
X2855777Y-14168484D02*
X2893872Y-14168484D01*
X2893872Y-14168484D02*
X2912920Y-14158960D01*
X2912920Y-14158960D02*
X2922444Y-14149436D01*
X2922444Y-14149436D02*
X2931967Y-14130388D01*
X2931967Y-14130388D02*
X2931967Y-14082769D01*
X2931967Y-14082769D02*
X2922444Y-14063722D01*
X2922444Y-14063722D02*
X2912920Y-14054198D01*
X2912920Y-14054198D02*
X2893872Y-14044674D01*
X2893872Y-14044674D02*
X2855777Y-14044674D01*
X2855777Y-14044674D02*
X2836729Y-14054198D01*
X2836729Y-14054198D02*
X2827206Y-14063722D01*
X2827206Y-14063722D02*
X2817682Y-14082769D01*
X3055777Y-13968484D02*
X3074825Y-13968484D01*
X3074825Y-13968484D02*
X3093872Y-13978008D01*
X3093872Y-13978008D02*
X3103396Y-13987531D01*
X3103396Y-13987531D02*
X3112920Y-14006579D01*
X3112920Y-14006579D02*
X3122444Y-14044674D01*
X3122444Y-14044674D02*
X3122444Y-14092293D01*
X3122444Y-14092293D02*
X3112920Y-14130388D01*
X3112920Y-14130388D02*
X3103396Y-14149436D01*
X3103396Y-14149436D02*
X3093872Y-14158960D01*
X3093872Y-14158960D02*
X3074825Y-14168484D01*
X3074825Y-14168484D02*
X3055777Y-14168484D01*
X3055777Y-14168484D02*
X3036729Y-14158960D01*
X3036729Y-14158960D02*
X3027206Y-14149436D01*
X3027206Y-14149436D02*
X3017682Y-14130388D01*
X3017682Y-14130388D02*
X3008158Y-14092293D01*
X3008158Y-14092293D02*
X3008158Y-14044674D01*
X3008158Y-14044674D02*
X3017682Y-14006579D01*
X3017682Y-14006579D02*
X3027206Y-13987531D01*
X3027206Y-13987531D02*
X3036729Y-13978008D01*
X3036729Y-13978008D02*
X3055777Y-13968484D01*
X3198634Y-13968484D02*
X3198634Y-14006579D01*
X3274825Y-13968484D02*
X3274825Y-14006579D01*
X3570063Y-14244674D02*
X3560539Y-14235150D01*
X3560539Y-14235150D02*
X3541491Y-14206579D01*
X3541491Y-14206579D02*
X3531968Y-14187531D01*
X3531968Y-14187531D02*
X3522444Y-14158960D01*
X3522444Y-14158960D02*
X3512920Y-14111341D01*
X3512920Y-14111341D02*
X3512920Y-14073246D01*
X3512920Y-14073246D02*
X3522444Y-14025627D01*
X3522444Y-14025627D02*
X3531968Y-13997055D01*
X3531968Y-13997055D02*
X3541491Y-13978008D01*
X3541491Y-13978008D02*
X3560539Y-13949436D01*
X3560539Y-13949436D02*
X3570063Y-13939912D01*
X3627206Y-13968484D02*
X3751015Y-13968484D01*
X3751015Y-13968484D02*
X3684348Y-14044674D01*
X3684348Y-14044674D02*
X3712920Y-14044674D01*
X3712920Y-14044674D02*
X3731968Y-14054198D01*
X3731968Y-14054198D02*
X3741491Y-14063722D01*
X3741491Y-14063722D02*
X3751015Y-14082769D01*
X3751015Y-14082769D02*
X3751015Y-14130388D01*
X3751015Y-14130388D02*
X3741491Y-14149436D01*
X3741491Y-14149436D02*
X3731968Y-14158960D01*
X3731968Y-14158960D02*
X3712920Y-14168484D01*
X3712920Y-14168484D02*
X3655777Y-14168484D01*
X3655777Y-14168484D02*
X3636729Y-14158960D01*
X3636729Y-14158960D02*
X3627206Y-14149436D01*
X3989110Y-14168484D02*
X3989110Y-13968484D01*
X4074825Y-14168484D02*
X4074825Y-14063722D01*
X4074825Y-14063722D02*
X4065301Y-14044674D01*
X4065301Y-14044674D02*
X4046253Y-14035150D01*
X4046253Y-14035150D02*
X4017682Y-14035150D01*
X4017682Y-14035150D02*
X3998634Y-14044674D01*
X3998634Y-14044674D02*
X3989110Y-14054198D01*
X4198634Y-14168484D02*
X4179587Y-14158960D01*
X4179587Y-14158960D02*
X4170063Y-14149436D01*
X4170063Y-14149436D02*
X4160539Y-14130388D01*
X4160539Y-14130388D02*
X4160539Y-14073246D01*
X4160539Y-14073246D02*
X4170063Y-14054198D01*
X4170063Y-14054198D02*
X4179587Y-14044674D01*
X4179587Y-14044674D02*
X4198634Y-14035150D01*
X4198634Y-14035150D02*
X4227206Y-14035150D01*
X4227206Y-14035150D02*
X4246253Y-14044674D01*
X4246253Y-14044674D02*
X4255777Y-14054198D01*
X4255777Y-14054198D02*
X4265301Y-14073246D01*
X4265301Y-14073246D02*
X4265301Y-14130388D01*
X4265301Y-14130388D02*
X4255777Y-14149436D01*
X4255777Y-14149436D02*
X4246253Y-14158960D01*
X4246253Y-14158960D02*
X4227206Y-14168484D01*
X4227206Y-14168484D02*
X4198634Y-14168484D01*
X4379587Y-14168484D02*
X4360539Y-14158960D01*
X4360539Y-14158960D02*
X4351015Y-14139912D01*
X4351015Y-14139912D02*
X4351015Y-13968484D01*
X4531968Y-14158960D02*
X4512920Y-14168484D01*
X4512920Y-14168484D02*
X4474825Y-14168484D01*
X4474825Y-14168484D02*
X4455777Y-14158960D01*
X4455777Y-14158960D02*
X4446253Y-14139912D01*
X4446253Y-14139912D02*
X4446253Y-14063722D01*
X4446253Y-14063722D02*
X4455777Y-14044674D01*
X4455777Y-14044674D02*
X4474825Y-14035150D01*
X4474825Y-14035150D02*
X4512920Y-14035150D01*
X4512920Y-14035150D02*
X4531968Y-14044674D01*
X4531968Y-14044674D02*
X4541492Y-14063722D01*
X4541492Y-14063722D02*
X4541492Y-14082769D01*
X4541492Y-14082769D02*
X4446253Y-14101817D01*
X4617682Y-14158960D02*
X4636730Y-14168484D01*
X4636730Y-14168484D02*
X4674825Y-14168484D01*
X4674825Y-14168484D02*
X4693873Y-14158960D01*
X4693873Y-14158960D02*
X4703396Y-14139912D01*
X4703396Y-14139912D02*
X4703396Y-14130388D01*
X4703396Y-14130388D02*
X4693873Y-14111341D01*
X4693873Y-14111341D02*
X4674825Y-14101817D01*
X4674825Y-14101817D02*
X4646253Y-14101817D01*
X4646253Y-14101817D02*
X4627206Y-14092293D01*
X4627206Y-14092293D02*
X4617682Y-14073246D01*
X4617682Y-14073246D02*
X4617682Y-14063722D01*
X4617682Y-14063722D02*
X4627206Y-14044674D01*
X4627206Y-14044674D02*
X4646253Y-14035150D01*
X4646253Y-14035150D02*
X4674825Y-14035150D01*
X4674825Y-14035150D02*
X4693873Y-14044674D01*
X4770063Y-14244674D02*
X4779587Y-14235150D01*
X4779587Y-14235150D02*
X4798634Y-14206579D01*
X4798634Y-14206579D02*
X4808158Y-14187531D01*
X4808158Y-14187531D02*
X4817682Y-14158960D01*
X4817682Y-14158960D02*
X4827206Y-14111341D01*
X4827206Y-14111341D02*
X4827206Y-14073246D01*
X4827206Y-14073246D02*
X4817682Y-14025627D01*
X4817682Y-14025627D02*
X4808158Y-13997055D01*
X4808158Y-13997055D02*
X4798634Y-13978008D01*
X4798634Y-13978008D02*
X4779587Y-13949436D01*
X4779587Y-13949436D02*
X4770063Y-13939912D01*
M02*
