%TF.GenerationSoftware,KiCad,Pcbnew,7.0.9*%
%TF.CreationDate,2024-01-09T16:01:18+02:00*%
%TF.ProjectId,kikad_project,6b696b61-645f-4707-926f-6a6563742e6b,rev?*%
%TF.SameCoordinates,Original*%
%TF.FileFunction,Legend,Top*%
%TF.FilePolarity,Positive*%
%FSLAX46Y46*%
G04 Gerber Fmt 4.6, Leading zero omitted, Abs format (unit mm)*
G04 Created by KiCad (PCBNEW 7.0.9) date 2024-01-09 16:01:18*
%MOMM*%
%LPD*%
G01*
G04 APERTURE LIST*
%ADD10C,0.200000*%
%ADD11C,0.150000*%
%ADD12C,0.100000*%
%ADD13C,0.152400*%
%ADD14C,0.508000*%
%ADD15C,0.120000*%
%ADD16C,0.127000*%
G04 APERTURE END LIST*
D10*
X49663212Y-48456474D02*
G75*
G03*
X48841462Y-61507323I4610338J-6841586D01*
G01*
X48030000Y-45940000D02*
X49663210Y-48456471D01*
X48841462Y-61507323D02*
X50204185Y-58834686D01*
X50204187Y-58834683D02*
G75*
G03*
X61917427Y-53020916I3619823J7413453D01*
G01*
X58929630Y-53489413D02*
G75*
G03*
X58929630Y-53489413I-6000000J0D01*
G01*
X58921491Y-53177081D02*
G75*
G03*
X48030000Y-45940001I-8230151J-571869D01*
G01*
X61917428Y-53020916D02*
X58921495Y-53177081D01*
X53429630Y-53489413D02*
G75*
G03*
X53429630Y-53489413I-500000J0D01*
G01*
D11*
X30201566Y-99934820D02*
X30201566Y-100649105D01*
X30201566Y-100649105D02*
X30153947Y-100791962D01*
X30153947Y-100791962D02*
X30058709Y-100887201D01*
X30058709Y-100887201D02*
X29915852Y-100934820D01*
X29915852Y-100934820D02*
X29820614Y-100934820D01*
X30725376Y-100934820D02*
X30915852Y-100934820D01*
X30915852Y-100934820D02*
X31011090Y-100887201D01*
X31011090Y-100887201D02*
X31058709Y-100839581D01*
X31058709Y-100839581D02*
X31153947Y-100696724D01*
X31153947Y-100696724D02*
X31201566Y-100506248D01*
X31201566Y-100506248D02*
X31201566Y-100125296D01*
X31201566Y-100125296D02*
X31153947Y-100030058D01*
X31153947Y-100030058D02*
X31106328Y-99982439D01*
X31106328Y-99982439D02*
X31011090Y-99934820D01*
X31011090Y-99934820D02*
X30820614Y-99934820D01*
X30820614Y-99934820D02*
X30725376Y-99982439D01*
X30725376Y-99982439D02*
X30677757Y-100030058D01*
X30677757Y-100030058D02*
X30630138Y-100125296D01*
X30630138Y-100125296D02*
X30630138Y-100363391D01*
X30630138Y-100363391D02*
X30677757Y-100458629D01*
X30677757Y-100458629D02*
X30725376Y-100506248D01*
X30725376Y-100506248D02*
X30820614Y-100553867D01*
X30820614Y-100553867D02*
X31011090Y-100553867D01*
X31011090Y-100553867D02*
X31106328Y-100506248D01*
X31106328Y-100506248D02*
X31153947Y-100458629D01*
X31153947Y-100458629D02*
X31201566Y-100363391D01*
X89874820Y-39968434D02*
X90589105Y-39968434D01*
X90589105Y-39968434D02*
X90731962Y-40016053D01*
X90731962Y-40016053D02*
X90827201Y-40111291D01*
X90827201Y-40111291D02*
X90874820Y-40254148D01*
X90874820Y-40254148D02*
X90874820Y-40349386D01*
X89874820Y-39587481D02*
X89874820Y-38920815D01*
X89874820Y-38920815D02*
X90874820Y-39349386D01*
X79610491Y-59805707D02*
X78608184Y-59805707D01*
X79515034Y-58755671D02*
X79562763Y-58803400D01*
X79562763Y-58803400D02*
X79610491Y-58946587D01*
X79610491Y-58946587D02*
X79610491Y-59042045D01*
X79610491Y-59042045D02*
X79562763Y-59185231D01*
X79562763Y-59185231D02*
X79467305Y-59280689D01*
X79467305Y-59280689D02*
X79371847Y-59328418D01*
X79371847Y-59328418D02*
X79180931Y-59376147D01*
X79180931Y-59376147D02*
X79037745Y-59376147D01*
X79037745Y-59376147D02*
X78846829Y-59328418D01*
X78846829Y-59328418D02*
X78751371Y-59280689D01*
X78751371Y-59280689D02*
X78655913Y-59185231D01*
X78655913Y-59185231D02*
X78608184Y-59042045D01*
X78608184Y-59042045D02*
X78608184Y-58946587D01*
X78608184Y-58946587D02*
X78655913Y-58803400D01*
X78655913Y-58803400D02*
X78703642Y-58755671D01*
X78608184Y-58421569D02*
X78608184Y-57801093D01*
X78608184Y-57801093D02*
X78990016Y-58135195D01*
X78990016Y-58135195D02*
X78990016Y-57992009D01*
X78990016Y-57992009D02*
X79037745Y-57896551D01*
X79037745Y-57896551D02*
X79085473Y-57848822D01*
X79085473Y-57848822D02*
X79180931Y-57801093D01*
X79180931Y-57801093D02*
X79419576Y-57801093D01*
X79419576Y-57801093D02*
X79515034Y-57848822D01*
X79515034Y-57848822D02*
X79562763Y-57896551D01*
X79562763Y-57896551D02*
X79610491Y-57992009D01*
X79610491Y-57992009D02*
X79610491Y-58278382D01*
X79610491Y-58278382D02*
X79562763Y-58373840D01*
X79562763Y-58373840D02*
X79515034Y-58421569D01*
X75714819Y-83399594D02*
X74714819Y-83399594D01*
X74714819Y-83399594D02*
X74714819Y-83161499D01*
X74714819Y-83161499D02*
X74762438Y-83018642D01*
X74762438Y-83018642D02*
X74857676Y-82923404D01*
X74857676Y-82923404D02*
X74952914Y-82875785D01*
X74952914Y-82875785D02*
X75143390Y-82828166D01*
X75143390Y-82828166D02*
X75286247Y-82828166D01*
X75286247Y-82828166D02*
X75476723Y-82875785D01*
X75476723Y-82875785D02*
X75571961Y-82923404D01*
X75571961Y-82923404D02*
X75667200Y-83018642D01*
X75667200Y-83018642D02*
X75714819Y-83161499D01*
X75714819Y-83161499D02*
X75714819Y-83399594D01*
X75714819Y-81875785D02*
X75714819Y-82447213D01*
X75714819Y-82161499D02*
X74714819Y-82161499D01*
X74714819Y-82161499D02*
X74857676Y-82256737D01*
X74857676Y-82256737D02*
X74952914Y-82351975D01*
X74952914Y-82351975D02*
X75000533Y-82447213D01*
X89874820Y-58884624D02*
X90589105Y-58884624D01*
X90589105Y-58884624D02*
X90731962Y-58932243D01*
X90731962Y-58932243D02*
X90827201Y-59027481D01*
X90827201Y-59027481D02*
X90874820Y-59170338D01*
X90874820Y-59170338D02*
X90874820Y-59265576D01*
X90874820Y-57884624D02*
X90874820Y-58456052D01*
X90874820Y-58170338D02*
X89874820Y-58170338D01*
X89874820Y-58170338D02*
X90017677Y-58265576D01*
X90017677Y-58265576D02*
X90112915Y-58360814D01*
X90112915Y-58360814D02*
X90160534Y-58456052D01*
X89874820Y-57027481D02*
X89874820Y-57217957D01*
X89874820Y-57217957D02*
X89922439Y-57313195D01*
X89922439Y-57313195D02*
X89970058Y-57360814D01*
X89970058Y-57360814D02*
X90112915Y-57456052D01*
X90112915Y-57456052D02*
X90303391Y-57503671D01*
X90303391Y-57503671D02*
X90684343Y-57503671D01*
X90684343Y-57503671D02*
X90779581Y-57456052D01*
X90779581Y-57456052D02*
X90827201Y-57408433D01*
X90827201Y-57408433D02*
X90874820Y-57313195D01*
X90874820Y-57313195D02*
X90874820Y-57122719D01*
X90874820Y-57122719D02*
X90827201Y-57027481D01*
X90827201Y-57027481D02*
X90779581Y-56979862D01*
X90779581Y-56979862D02*
X90684343Y-56932243D01*
X90684343Y-56932243D02*
X90446248Y-56932243D01*
X90446248Y-56932243D02*
X90351010Y-56979862D01*
X90351010Y-56979862D02*
X90303391Y-57027481D01*
X90303391Y-57027481D02*
X90255772Y-57122719D01*
X90255772Y-57122719D02*
X90255772Y-57313195D01*
X90255772Y-57313195D02*
X90303391Y-57408433D01*
X90303391Y-57408433D02*
X90351010Y-57456052D01*
X90351010Y-57456052D02*
X90446248Y-57503671D01*
X10145180Y-53750476D02*
X9430895Y-53750476D01*
X9430895Y-53750476D02*
X9288038Y-53702857D01*
X9288038Y-53702857D02*
X9192800Y-53607619D01*
X9192800Y-53607619D02*
X9145180Y-53464762D01*
X9145180Y-53464762D02*
X9145180Y-53369524D01*
X9145180Y-54750476D02*
X9145180Y-54179048D01*
X9145180Y-54464762D02*
X10145180Y-54464762D01*
X10145180Y-54464762D02*
X10002323Y-54369524D01*
X10002323Y-54369524D02*
X9907085Y-54274286D01*
X9907085Y-54274286D02*
X9859466Y-54179048D01*
X9145180Y-55702857D02*
X9145180Y-55131429D01*
X9145180Y-55417143D02*
X10145180Y-55417143D01*
X10145180Y-55417143D02*
X10002323Y-55321905D01*
X10002323Y-55321905D02*
X9907085Y-55226667D01*
X9907085Y-55226667D02*
X9859466Y-55131429D01*
X57118095Y-82814819D02*
X57118095Y-83624342D01*
X57118095Y-83624342D02*
X57165714Y-83719580D01*
X57165714Y-83719580D02*
X57213333Y-83767200D01*
X57213333Y-83767200D02*
X57308571Y-83814819D01*
X57308571Y-83814819D02*
X57499047Y-83814819D01*
X57499047Y-83814819D02*
X57594285Y-83767200D01*
X57594285Y-83767200D02*
X57641904Y-83719580D01*
X57641904Y-83719580D02*
X57689523Y-83624342D01*
X57689523Y-83624342D02*
X57689523Y-82814819D01*
X58594285Y-83148152D02*
X58594285Y-83814819D01*
X58356190Y-82767200D02*
X58118095Y-83481485D01*
X58118095Y-83481485D02*
X58737142Y-83481485D01*
X58159580Y-77266666D02*
X58207200Y-77314285D01*
X58207200Y-77314285D02*
X58254819Y-77457142D01*
X58254819Y-77457142D02*
X58254819Y-77552380D01*
X58254819Y-77552380D02*
X58207200Y-77695237D01*
X58207200Y-77695237D02*
X58111961Y-77790475D01*
X58111961Y-77790475D02*
X58016723Y-77838094D01*
X58016723Y-77838094D02*
X57826247Y-77885713D01*
X57826247Y-77885713D02*
X57683390Y-77885713D01*
X57683390Y-77885713D02*
X57492914Y-77838094D01*
X57492914Y-77838094D02*
X57397676Y-77790475D01*
X57397676Y-77790475D02*
X57302438Y-77695237D01*
X57302438Y-77695237D02*
X57254819Y-77552380D01*
X57254819Y-77552380D02*
X57254819Y-77457142D01*
X57254819Y-77457142D02*
X57302438Y-77314285D01*
X57302438Y-77314285D02*
X57350057Y-77266666D01*
X57254819Y-76409523D02*
X57254819Y-76599999D01*
X57254819Y-76599999D02*
X57302438Y-76695237D01*
X57302438Y-76695237D02*
X57350057Y-76742856D01*
X57350057Y-76742856D02*
X57492914Y-76838094D01*
X57492914Y-76838094D02*
X57683390Y-76885713D01*
X57683390Y-76885713D02*
X58064342Y-76885713D01*
X58064342Y-76885713D02*
X58159580Y-76838094D01*
X58159580Y-76838094D02*
X58207200Y-76790475D01*
X58207200Y-76790475D02*
X58254819Y-76695237D01*
X58254819Y-76695237D02*
X58254819Y-76504761D01*
X58254819Y-76504761D02*
X58207200Y-76409523D01*
X58207200Y-76409523D02*
X58159580Y-76361904D01*
X58159580Y-76361904D02*
X58064342Y-76314285D01*
X58064342Y-76314285D02*
X57826247Y-76314285D01*
X57826247Y-76314285D02*
X57731009Y-76361904D01*
X57731009Y-76361904D02*
X57683390Y-76409523D01*
X57683390Y-76409523D02*
X57635771Y-76504761D01*
X57635771Y-76504761D02*
X57635771Y-76695237D01*
X57635771Y-76695237D02*
X57683390Y-76790475D01*
X57683390Y-76790475D02*
X57731009Y-76838094D01*
X57731009Y-76838094D02*
X57826247Y-76885713D01*
X91374819Y-68099522D02*
X92089104Y-68099522D01*
X92089104Y-68099522D02*
X92231961Y-68147141D01*
X92231961Y-68147141D02*
X92327200Y-68242379D01*
X92327200Y-68242379D02*
X92374819Y-68385236D01*
X92374819Y-68385236D02*
X92374819Y-68480474D01*
X92374819Y-67099522D02*
X92374819Y-67670950D01*
X92374819Y-67385236D02*
X91374819Y-67385236D01*
X91374819Y-67385236D02*
X91517676Y-67480474D01*
X91517676Y-67480474D02*
X91612914Y-67575712D01*
X91612914Y-67575712D02*
X91660533Y-67670950D01*
X91374819Y-66766188D02*
X91374819Y-66099522D01*
X91374819Y-66099522D02*
X92374819Y-66528093D01*
X88274819Y-83658094D02*
X87274819Y-83658094D01*
X87274819Y-83658094D02*
X87274819Y-83419999D01*
X87274819Y-83419999D02*
X87322438Y-83277142D01*
X87322438Y-83277142D02*
X87417676Y-83181904D01*
X87417676Y-83181904D02*
X87512914Y-83134285D01*
X87512914Y-83134285D02*
X87703390Y-83086666D01*
X87703390Y-83086666D02*
X87846247Y-83086666D01*
X87846247Y-83086666D02*
X88036723Y-83134285D01*
X88036723Y-83134285D02*
X88131961Y-83181904D01*
X88131961Y-83181904D02*
X88227200Y-83277142D01*
X88227200Y-83277142D02*
X88274819Y-83419999D01*
X88274819Y-83419999D02*
X88274819Y-83658094D01*
X87274819Y-82753332D02*
X87274819Y-82134285D01*
X87274819Y-82134285D02*
X87655771Y-82467618D01*
X87655771Y-82467618D02*
X87655771Y-82324761D01*
X87655771Y-82324761D02*
X87703390Y-82229523D01*
X87703390Y-82229523D02*
X87751009Y-82181904D01*
X87751009Y-82181904D02*
X87846247Y-82134285D01*
X87846247Y-82134285D02*
X88084342Y-82134285D01*
X88084342Y-82134285D02*
X88179580Y-82181904D01*
X88179580Y-82181904D02*
X88227200Y-82229523D01*
X88227200Y-82229523D02*
X88274819Y-82324761D01*
X88274819Y-82324761D02*
X88274819Y-82610475D01*
X88274819Y-82610475D02*
X88227200Y-82705713D01*
X88227200Y-82705713D02*
X88179580Y-82753332D01*
X20153333Y-8109580D02*
X20105714Y-8157200D01*
X20105714Y-8157200D02*
X19962857Y-8204819D01*
X19962857Y-8204819D02*
X19867619Y-8204819D01*
X19867619Y-8204819D02*
X19724762Y-8157200D01*
X19724762Y-8157200D02*
X19629524Y-8061961D01*
X19629524Y-8061961D02*
X19581905Y-7966723D01*
X19581905Y-7966723D02*
X19534286Y-7776247D01*
X19534286Y-7776247D02*
X19534286Y-7633390D01*
X19534286Y-7633390D02*
X19581905Y-7442914D01*
X19581905Y-7442914D02*
X19629524Y-7347676D01*
X19629524Y-7347676D02*
X19724762Y-7252438D01*
X19724762Y-7252438D02*
X19867619Y-7204819D01*
X19867619Y-7204819D02*
X19962857Y-7204819D01*
X19962857Y-7204819D02*
X20105714Y-7252438D01*
X20105714Y-7252438D02*
X20153333Y-7300057D01*
X20629524Y-8204819D02*
X20820000Y-8204819D01*
X20820000Y-8204819D02*
X20915238Y-8157200D01*
X20915238Y-8157200D02*
X20962857Y-8109580D01*
X20962857Y-8109580D02*
X21058095Y-7966723D01*
X21058095Y-7966723D02*
X21105714Y-7776247D01*
X21105714Y-7776247D02*
X21105714Y-7395295D01*
X21105714Y-7395295D02*
X21058095Y-7300057D01*
X21058095Y-7300057D02*
X21010476Y-7252438D01*
X21010476Y-7252438D02*
X20915238Y-7204819D01*
X20915238Y-7204819D02*
X20724762Y-7204819D01*
X20724762Y-7204819D02*
X20629524Y-7252438D01*
X20629524Y-7252438D02*
X20581905Y-7300057D01*
X20581905Y-7300057D02*
X20534286Y-7395295D01*
X20534286Y-7395295D02*
X20534286Y-7633390D01*
X20534286Y-7633390D02*
X20581905Y-7728628D01*
X20581905Y-7728628D02*
X20629524Y-7776247D01*
X20629524Y-7776247D02*
X20724762Y-7823866D01*
X20724762Y-7823866D02*
X20915238Y-7823866D01*
X20915238Y-7823866D02*
X21010476Y-7776247D01*
X21010476Y-7776247D02*
X21058095Y-7728628D01*
X21058095Y-7728628D02*
X21105714Y-7633390D01*
D12*
X48987419Y-28526904D02*
X49796942Y-28526904D01*
X49796942Y-28526904D02*
X49892180Y-28479285D01*
X49892180Y-28479285D02*
X49939800Y-28431666D01*
X49939800Y-28431666D02*
X49987419Y-28336428D01*
X49987419Y-28336428D02*
X49987419Y-28145952D01*
X49987419Y-28145952D02*
X49939800Y-28050714D01*
X49939800Y-28050714D02*
X49892180Y-28003095D01*
X49892180Y-28003095D02*
X49796942Y-27955476D01*
X49796942Y-27955476D02*
X48987419Y-27955476D01*
X49082657Y-27526904D02*
X49035038Y-27479285D01*
X49035038Y-27479285D02*
X48987419Y-27384047D01*
X48987419Y-27384047D02*
X48987419Y-27145952D01*
X48987419Y-27145952D02*
X49035038Y-27050714D01*
X49035038Y-27050714D02*
X49082657Y-27003095D01*
X49082657Y-27003095D02*
X49177895Y-26955476D01*
X49177895Y-26955476D02*
X49273133Y-26955476D01*
X49273133Y-26955476D02*
X49415990Y-27003095D01*
X49415990Y-27003095D02*
X49987419Y-27574523D01*
X49987419Y-27574523D02*
X49987419Y-26955476D01*
D11*
X27089580Y-55522857D02*
X27137200Y-55570476D01*
X27137200Y-55570476D02*
X27184819Y-55713333D01*
X27184819Y-55713333D02*
X27184819Y-55808571D01*
X27184819Y-55808571D02*
X27137200Y-55951428D01*
X27137200Y-55951428D02*
X27041961Y-56046666D01*
X27041961Y-56046666D02*
X26946723Y-56094285D01*
X26946723Y-56094285D02*
X26756247Y-56141904D01*
X26756247Y-56141904D02*
X26613390Y-56141904D01*
X26613390Y-56141904D02*
X26422914Y-56094285D01*
X26422914Y-56094285D02*
X26327676Y-56046666D01*
X26327676Y-56046666D02*
X26232438Y-55951428D01*
X26232438Y-55951428D02*
X26184819Y-55808571D01*
X26184819Y-55808571D02*
X26184819Y-55713333D01*
X26184819Y-55713333D02*
X26232438Y-55570476D01*
X26232438Y-55570476D02*
X26280057Y-55522857D01*
X27184819Y-54570476D02*
X27184819Y-55141904D01*
X27184819Y-54856190D02*
X26184819Y-54856190D01*
X26184819Y-54856190D02*
X26327676Y-54951428D01*
X26327676Y-54951428D02*
X26422914Y-55046666D01*
X26422914Y-55046666D02*
X26470533Y-55141904D01*
X26280057Y-54189523D02*
X26232438Y-54141904D01*
X26232438Y-54141904D02*
X26184819Y-54046666D01*
X26184819Y-54046666D02*
X26184819Y-53808571D01*
X26184819Y-53808571D02*
X26232438Y-53713333D01*
X26232438Y-53713333D02*
X26280057Y-53665714D01*
X26280057Y-53665714D02*
X26375295Y-53618095D01*
X26375295Y-53618095D02*
X26470533Y-53618095D01*
X26470533Y-53618095D02*
X26613390Y-53665714D01*
X26613390Y-53665714D02*
X27184819Y-54237142D01*
X27184819Y-54237142D02*
X27184819Y-53618095D01*
X79610491Y-34405707D02*
X78608184Y-34405707D01*
X79515034Y-33355671D02*
X79562763Y-33403400D01*
X79562763Y-33403400D02*
X79610491Y-33546587D01*
X79610491Y-33546587D02*
X79610491Y-33642045D01*
X79610491Y-33642045D02*
X79562763Y-33785231D01*
X79562763Y-33785231D02*
X79467305Y-33880689D01*
X79467305Y-33880689D02*
X79371847Y-33928418D01*
X79371847Y-33928418D02*
X79180931Y-33976147D01*
X79180931Y-33976147D02*
X79037745Y-33976147D01*
X79037745Y-33976147D02*
X78846829Y-33928418D01*
X78846829Y-33928418D02*
X78751371Y-33880689D01*
X78751371Y-33880689D02*
X78655913Y-33785231D01*
X78655913Y-33785231D02*
X78608184Y-33642045D01*
X78608184Y-33642045D02*
X78608184Y-33546587D01*
X78608184Y-33546587D02*
X78655913Y-33403400D01*
X78655913Y-33403400D02*
X78703642Y-33355671D01*
X79610491Y-32401093D02*
X79610491Y-32973840D01*
X79610491Y-32687466D02*
X78608184Y-32687466D01*
X78608184Y-32687466D02*
X78751371Y-32782924D01*
X78751371Y-32782924D02*
X78846829Y-32878382D01*
X78846829Y-32878382D02*
X78894558Y-32973840D01*
X68519580Y-86046666D02*
X68567200Y-86094285D01*
X68567200Y-86094285D02*
X68614819Y-86237142D01*
X68614819Y-86237142D02*
X68614819Y-86332380D01*
X68614819Y-86332380D02*
X68567200Y-86475237D01*
X68567200Y-86475237D02*
X68471961Y-86570475D01*
X68471961Y-86570475D02*
X68376723Y-86618094D01*
X68376723Y-86618094D02*
X68186247Y-86665713D01*
X68186247Y-86665713D02*
X68043390Y-86665713D01*
X68043390Y-86665713D02*
X67852914Y-86618094D01*
X67852914Y-86618094D02*
X67757676Y-86570475D01*
X67757676Y-86570475D02*
X67662438Y-86475237D01*
X67662438Y-86475237D02*
X67614819Y-86332380D01*
X67614819Y-86332380D02*
X67614819Y-86237142D01*
X67614819Y-86237142D02*
X67662438Y-86094285D01*
X67662438Y-86094285D02*
X67710057Y-86046666D01*
X67948152Y-85189523D02*
X68614819Y-85189523D01*
X67567200Y-85427618D02*
X68281485Y-85665713D01*
X68281485Y-85665713D02*
X68281485Y-85046666D01*
X10145180Y-76560476D02*
X9430895Y-76560476D01*
X9430895Y-76560476D02*
X9288038Y-76512857D01*
X9288038Y-76512857D02*
X9192800Y-76417619D01*
X9192800Y-76417619D02*
X9145180Y-76274762D01*
X9145180Y-76274762D02*
X9145180Y-76179524D01*
X9145180Y-77560476D02*
X9145180Y-76989048D01*
X9145180Y-77274762D02*
X10145180Y-77274762D01*
X10145180Y-77274762D02*
X10002323Y-77179524D01*
X10002323Y-77179524D02*
X9907085Y-77084286D01*
X9907085Y-77084286D02*
X9859466Y-76989048D01*
X10145180Y-78179524D02*
X10145180Y-78274762D01*
X10145180Y-78274762D02*
X10097561Y-78370000D01*
X10097561Y-78370000D02*
X10049942Y-78417619D01*
X10049942Y-78417619D02*
X9954704Y-78465238D01*
X9954704Y-78465238D02*
X9764228Y-78512857D01*
X9764228Y-78512857D02*
X9526133Y-78512857D01*
X9526133Y-78512857D02*
X9335657Y-78465238D01*
X9335657Y-78465238D02*
X9240419Y-78417619D01*
X9240419Y-78417619D02*
X9192800Y-78370000D01*
X9192800Y-78370000D02*
X9145180Y-78274762D01*
X9145180Y-78274762D02*
X9145180Y-78179524D01*
X9145180Y-78179524D02*
X9192800Y-78084286D01*
X9192800Y-78084286D02*
X9240419Y-78036667D01*
X9240419Y-78036667D02*
X9335657Y-77989048D01*
X9335657Y-77989048D02*
X9526133Y-77941429D01*
X9526133Y-77941429D02*
X9764228Y-77941429D01*
X9764228Y-77941429D02*
X9954704Y-77989048D01*
X9954704Y-77989048D02*
X10049942Y-78036667D01*
X10049942Y-78036667D02*
X10097561Y-78084286D01*
X10097561Y-78084286D02*
X10145180Y-78179524D01*
X17381566Y-99934820D02*
X17381566Y-100649105D01*
X17381566Y-100649105D02*
X17333947Y-100791962D01*
X17333947Y-100791962D02*
X17238709Y-100887201D01*
X17238709Y-100887201D02*
X17095852Y-100934820D01*
X17095852Y-100934820D02*
X17000614Y-100934820D01*
X18286328Y-99934820D02*
X18095852Y-99934820D01*
X18095852Y-99934820D02*
X18000614Y-99982439D01*
X18000614Y-99982439D02*
X17952995Y-100030058D01*
X17952995Y-100030058D02*
X17857757Y-100172915D01*
X17857757Y-100172915D02*
X17810138Y-100363391D01*
X17810138Y-100363391D02*
X17810138Y-100744343D01*
X17810138Y-100744343D02*
X17857757Y-100839581D01*
X17857757Y-100839581D02*
X17905376Y-100887201D01*
X17905376Y-100887201D02*
X18000614Y-100934820D01*
X18000614Y-100934820D02*
X18191090Y-100934820D01*
X18191090Y-100934820D02*
X18286328Y-100887201D01*
X18286328Y-100887201D02*
X18333947Y-100839581D01*
X18333947Y-100839581D02*
X18381566Y-100744343D01*
X18381566Y-100744343D02*
X18381566Y-100506248D01*
X18381566Y-100506248D02*
X18333947Y-100411010D01*
X18333947Y-100411010D02*
X18286328Y-100363391D01*
X18286328Y-100363391D02*
X18191090Y-100315772D01*
X18191090Y-100315772D02*
X18000614Y-100315772D01*
X18000614Y-100315772D02*
X17905376Y-100363391D01*
X17905376Y-100363391D02*
X17857757Y-100411010D01*
X17857757Y-100411010D02*
X17810138Y-100506248D01*
X88623333Y-10055180D02*
X88623333Y-9340895D01*
X88623333Y-9340895D02*
X88670952Y-9198038D01*
X88670952Y-9198038D02*
X88766190Y-9102800D01*
X88766190Y-9102800D02*
X88909047Y-9055180D01*
X88909047Y-9055180D02*
X89004285Y-9055180D01*
X88194761Y-9959942D02*
X88147142Y-10007561D01*
X88147142Y-10007561D02*
X88051904Y-10055180D01*
X88051904Y-10055180D02*
X87813809Y-10055180D01*
X87813809Y-10055180D02*
X87718571Y-10007561D01*
X87718571Y-10007561D02*
X87670952Y-9959942D01*
X87670952Y-9959942D02*
X87623333Y-9864704D01*
X87623333Y-9864704D02*
X87623333Y-9769466D01*
X87623333Y-9769466D02*
X87670952Y-9626609D01*
X87670952Y-9626609D02*
X88242380Y-9055180D01*
X88242380Y-9055180D02*
X87623333Y-9055180D01*
X10145180Y-30330476D02*
X9430895Y-30330476D01*
X9430895Y-30330476D02*
X9288038Y-30282857D01*
X9288038Y-30282857D02*
X9192800Y-30187619D01*
X9192800Y-30187619D02*
X9145180Y-30044762D01*
X9145180Y-30044762D02*
X9145180Y-29949524D01*
X9145180Y-31330476D02*
X9145180Y-30759048D01*
X9145180Y-31044762D02*
X10145180Y-31044762D01*
X10145180Y-31044762D02*
X10002323Y-30949524D01*
X10002323Y-30949524D02*
X9907085Y-30854286D01*
X9907085Y-30854286D02*
X9859466Y-30759048D01*
X9811847Y-32187619D02*
X9145180Y-32187619D01*
X10192800Y-31949524D02*
X9478514Y-31711429D01*
X9478514Y-31711429D02*
X9478514Y-32330476D01*
X6858095Y-2604819D02*
X6858095Y-1604819D01*
X6858095Y-2081009D02*
X7429523Y-2081009D01*
X7429523Y-2604819D02*
X7429523Y-1604819D01*
X7858095Y-1700057D02*
X7905714Y-1652438D01*
X7905714Y-1652438D02*
X8000952Y-1604819D01*
X8000952Y-1604819D02*
X8239047Y-1604819D01*
X8239047Y-1604819D02*
X8334285Y-1652438D01*
X8334285Y-1652438D02*
X8381904Y-1700057D01*
X8381904Y-1700057D02*
X8429523Y-1795295D01*
X8429523Y-1795295D02*
X8429523Y-1890533D01*
X8429523Y-1890533D02*
X8381904Y-2033390D01*
X8381904Y-2033390D02*
X7810476Y-2604819D01*
X7810476Y-2604819D02*
X8429523Y-2604819D01*
X43409580Y-72616666D02*
X43457200Y-72664285D01*
X43457200Y-72664285D02*
X43504819Y-72807142D01*
X43504819Y-72807142D02*
X43504819Y-72902380D01*
X43504819Y-72902380D02*
X43457200Y-73045237D01*
X43457200Y-73045237D02*
X43361961Y-73140475D01*
X43361961Y-73140475D02*
X43266723Y-73188094D01*
X43266723Y-73188094D02*
X43076247Y-73235713D01*
X43076247Y-73235713D02*
X42933390Y-73235713D01*
X42933390Y-73235713D02*
X42742914Y-73188094D01*
X42742914Y-73188094D02*
X42647676Y-73140475D01*
X42647676Y-73140475D02*
X42552438Y-73045237D01*
X42552438Y-73045237D02*
X42504819Y-72902380D01*
X42504819Y-72902380D02*
X42504819Y-72807142D01*
X42504819Y-72807142D02*
X42552438Y-72664285D01*
X42552438Y-72664285D02*
X42600057Y-72616666D01*
X42600057Y-72235713D02*
X42552438Y-72188094D01*
X42552438Y-72188094D02*
X42504819Y-72092856D01*
X42504819Y-72092856D02*
X42504819Y-71854761D01*
X42504819Y-71854761D02*
X42552438Y-71759523D01*
X42552438Y-71759523D02*
X42600057Y-71711904D01*
X42600057Y-71711904D02*
X42695295Y-71664285D01*
X42695295Y-71664285D02*
X42790533Y-71664285D01*
X42790533Y-71664285D02*
X42933390Y-71711904D01*
X42933390Y-71711904D02*
X43504819Y-72283332D01*
X43504819Y-72283332D02*
X43504819Y-71664285D01*
X39633333Y-93154819D02*
X39157143Y-93154819D01*
X39157143Y-93154819D02*
X39157143Y-92154819D01*
X40490476Y-93154819D02*
X39919048Y-93154819D01*
X40204762Y-93154819D02*
X40204762Y-92154819D01*
X40204762Y-92154819D02*
X40109524Y-92297676D01*
X40109524Y-92297676D02*
X40014286Y-92392914D01*
X40014286Y-92392914D02*
X39919048Y-92440533D01*
X41478095Y-76444819D02*
X41478095Y-77254342D01*
X41478095Y-77254342D02*
X41525714Y-77349580D01*
X41525714Y-77349580D02*
X41573333Y-77397200D01*
X41573333Y-77397200D02*
X41668571Y-77444819D01*
X41668571Y-77444819D02*
X41859047Y-77444819D01*
X41859047Y-77444819D02*
X41954285Y-77397200D01*
X41954285Y-77397200D02*
X42001904Y-77349580D01*
X42001904Y-77349580D02*
X42049523Y-77254342D01*
X42049523Y-77254342D02*
X42049523Y-76444819D01*
X42430476Y-76444819D02*
X43049523Y-76444819D01*
X43049523Y-76444819D02*
X42716190Y-76825771D01*
X42716190Y-76825771D02*
X42859047Y-76825771D01*
X42859047Y-76825771D02*
X42954285Y-76873390D01*
X42954285Y-76873390D02*
X43001904Y-76921009D01*
X43001904Y-76921009D02*
X43049523Y-77016247D01*
X43049523Y-77016247D02*
X43049523Y-77254342D01*
X43049523Y-77254342D02*
X43001904Y-77349580D01*
X43001904Y-77349580D02*
X42954285Y-77397200D01*
X42954285Y-77397200D02*
X42859047Y-77444819D01*
X42859047Y-77444819D02*
X42573333Y-77444819D01*
X42573333Y-77444819D02*
X42478095Y-77397200D01*
X42478095Y-77397200D02*
X42430476Y-77349580D01*
X22693333Y-52894819D02*
X22360000Y-52418628D01*
X22121905Y-52894819D02*
X22121905Y-51894819D01*
X22121905Y-51894819D02*
X22502857Y-51894819D01*
X22502857Y-51894819D02*
X22598095Y-51942438D01*
X22598095Y-51942438D02*
X22645714Y-51990057D01*
X22645714Y-51990057D02*
X22693333Y-52085295D01*
X22693333Y-52085295D02*
X22693333Y-52228152D01*
X22693333Y-52228152D02*
X22645714Y-52323390D01*
X22645714Y-52323390D02*
X22598095Y-52371009D01*
X22598095Y-52371009D02*
X22502857Y-52418628D01*
X22502857Y-52418628D02*
X22121905Y-52418628D01*
X23026667Y-51894819D02*
X23645714Y-51894819D01*
X23645714Y-51894819D02*
X23312381Y-52275771D01*
X23312381Y-52275771D02*
X23455238Y-52275771D01*
X23455238Y-52275771D02*
X23550476Y-52323390D01*
X23550476Y-52323390D02*
X23598095Y-52371009D01*
X23598095Y-52371009D02*
X23645714Y-52466247D01*
X23645714Y-52466247D02*
X23645714Y-52704342D01*
X23645714Y-52704342D02*
X23598095Y-52799580D01*
X23598095Y-52799580D02*
X23550476Y-52847200D01*
X23550476Y-52847200D02*
X23455238Y-52894819D01*
X23455238Y-52894819D02*
X23169524Y-52894819D01*
X23169524Y-52894819D02*
X23074286Y-52847200D01*
X23074286Y-52847200D02*
X23026667Y-52799580D01*
X81491566Y-99934820D02*
X81491566Y-100649105D01*
X81491566Y-100649105D02*
X81443947Y-100791962D01*
X81443947Y-100791962D02*
X81348709Y-100887201D01*
X81348709Y-100887201D02*
X81205852Y-100934820D01*
X81205852Y-100934820D02*
X81110614Y-100934820D01*
X82491566Y-100934820D02*
X81920138Y-100934820D01*
X82205852Y-100934820D02*
X82205852Y-99934820D01*
X82205852Y-99934820D02*
X82110614Y-100077677D01*
X82110614Y-100077677D02*
X82015376Y-100172915D01*
X82015376Y-100172915D02*
X81920138Y-100220534D01*
X30709580Y-87856666D02*
X30757200Y-87904285D01*
X30757200Y-87904285D02*
X30804819Y-88047142D01*
X30804819Y-88047142D02*
X30804819Y-88142380D01*
X30804819Y-88142380D02*
X30757200Y-88285237D01*
X30757200Y-88285237D02*
X30661961Y-88380475D01*
X30661961Y-88380475D02*
X30566723Y-88428094D01*
X30566723Y-88428094D02*
X30376247Y-88475713D01*
X30376247Y-88475713D02*
X30233390Y-88475713D01*
X30233390Y-88475713D02*
X30042914Y-88428094D01*
X30042914Y-88428094D02*
X29947676Y-88380475D01*
X29947676Y-88380475D02*
X29852438Y-88285237D01*
X29852438Y-88285237D02*
X29804819Y-88142380D01*
X29804819Y-88142380D02*
X29804819Y-88047142D01*
X29804819Y-88047142D02*
X29852438Y-87904285D01*
X29852438Y-87904285D02*
X29900057Y-87856666D01*
X29804819Y-87523332D02*
X29804819Y-86904285D01*
X29804819Y-86904285D02*
X30185771Y-87237618D01*
X30185771Y-87237618D02*
X30185771Y-87094761D01*
X30185771Y-87094761D02*
X30233390Y-86999523D01*
X30233390Y-86999523D02*
X30281009Y-86951904D01*
X30281009Y-86951904D02*
X30376247Y-86904285D01*
X30376247Y-86904285D02*
X30614342Y-86904285D01*
X30614342Y-86904285D02*
X30709580Y-86951904D01*
X30709580Y-86951904D02*
X30757200Y-86999523D01*
X30757200Y-86999523D02*
X30804819Y-87094761D01*
X30804819Y-87094761D02*
X30804819Y-87380475D01*
X30804819Y-87380475D02*
X30757200Y-87475713D01*
X30757200Y-87475713D02*
X30709580Y-87523332D01*
X91374819Y-49183332D02*
X92089104Y-49183332D01*
X92089104Y-49183332D02*
X92231961Y-49230951D01*
X92231961Y-49230951D02*
X92327200Y-49326189D01*
X92327200Y-49326189D02*
X92374819Y-49469046D01*
X92374819Y-49469046D02*
X92374819Y-49564284D01*
X91803390Y-48564284D02*
X91755771Y-48659522D01*
X91755771Y-48659522D02*
X91708152Y-48707141D01*
X91708152Y-48707141D02*
X91612914Y-48754760D01*
X91612914Y-48754760D02*
X91565295Y-48754760D01*
X91565295Y-48754760D02*
X91470057Y-48707141D01*
X91470057Y-48707141D02*
X91422438Y-48659522D01*
X91422438Y-48659522D02*
X91374819Y-48564284D01*
X91374819Y-48564284D02*
X91374819Y-48373808D01*
X91374819Y-48373808D02*
X91422438Y-48278570D01*
X91422438Y-48278570D02*
X91470057Y-48230951D01*
X91470057Y-48230951D02*
X91565295Y-48183332D01*
X91565295Y-48183332D02*
X91612914Y-48183332D01*
X91612914Y-48183332D02*
X91708152Y-48230951D01*
X91708152Y-48230951D02*
X91755771Y-48278570D01*
X91755771Y-48278570D02*
X91803390Y-48373808D01*
X91803390Y-48373808D02*
X91803390Y-48564284D01*
X91803390Y-48564284D02*
X91851009Y-48659522D01*
X91851009Y-48659522D02*
X91898628Y-48707141D01*
X91898628Y-48707141D02*
X91993866Y-48754760D01*
X91993866Y-48754760D02*
X92184342Y-48754760D01*
X92184342Y-48754760D02*
X92279580Y-48707141D01*
X92279580Y-48707141D02*
X92327200Y-48659522D01*
X92327200Y-48659522D02*
X92374819Y-48564284D01*
X92374819Y-48564284D02*
X92374819Y-48373808D01*
X92374819Y-48373808D02*
X92327200Y-48278570D01*
X92327200Y-48278570D02*
X92279580Y-48230951D01*
X92279580Y-48230951D02*
X92184342Y-48183332D01*
X92184342Y-48183332D02*
X91993866Y-48183332D01*
X91993866Y-48183332D02*
X91898628Y-48230951D01*
X91898628Y-48230951D02*
X91851009Y-48278570D01*
X91851009Y-48278570D02*
X91803390Y-48373808D01*
X55851566Y-99934820D02*
X55851566Y-100649105D01*
X55851566Y-100649105D02*
X55803947Y-100791962D01*
X55803947Y-100791962D02*
X55708709Y-100887201D01*
X55708709Y-100887201D02*
X55565852Y-100934820D01*
X55565852Y-100934820D02*
X55470614Y-100934820D01*
X56232519Y-99934820D02*
X56851566Y-99934820D01*
X56851566Y-99934820D02*
X56518233Y-100315772D01*
X56518233Y-100315772D02*
X56661090Y-100315772D01*
X56661090Y-100315772D02*
X56756328Y-100363391D01*
X56756328Y-100363391D02*
X56803947Y-100411010D01*
X56803947Y-100411010D02*
X56851566Y-100506248D01*
X56851566Y-100506248D02*
X56851566Y-100744343D01*
X56851566Y-100744343D02*
X56803947Y-100839581D01*
X56803947Y-100839581D02*
X56756328Y-100887201D01*
X56756328Y-100887201D02*
X56661090Y-100934820D01*
X56661090Y-100934820D02*
X56375376Y-100934820D01*
X56375376Y-100934820D02*
X56280138Y-100887201D01*
X56280138Y-100887201D02*
X56232519Y-100839581D01*
X37433333Y-70459580D02*
X37385714Y-70507200D01*
X37385714Y-70507200D02*
X37242857Y-70554819D01*
X37242857Y-70554819D02*
X37147619Y-70554819D01*
X37147619Y-70554819D02*
X37004762Y-70507200D01*
X37004762Y-70507200D02*
X36909524Y-70411961D01*
X36909524Y-70411961D02*
X36861905Y-70316723D01*
X36861905Y-70316723D02*
X36814286Y-70126247D01*
X36814286Y-70126247D02*
X36814286Y-69983390D01*
X36814286Y-69983390D02*
X36861905Y-69792914D01*
X36861905Y-69792914D02*
X36909524Y-69697676D01*
X36909524Y-69697676D02*
X37004762Y-69602438D01*
X37004762Y-69602438D02*
X37147619Y-69554819D01*
X37147619Y-69554819D02*
X37242857Y-69554819D01*
X37242857Y-69554819D02*
X37385714Y-69602438D01*
X37385714Y-69602438D02*
X37433333Y-69650057D01*
X38385714Y-70554819D02*
X37814286Y-70554819D01*
X38100000Y-70554819D02*
X38100000Y-69554819D01*
X38100000Y-69554819D02*
X38004762Y-69697676D01*
X38004762Y-69697676D02*
X37909524Y-69792914D01*
X37909524Y-69792914D02*
X37814286Y-69840533D01*
X6238095Y-97854819D02*
X6238095Y-96854819D01*
X6238095Y-97331009D02*
X6809523Y-97331009D01*
X6809523Y-97854819D02*
X6809523Y-96854819D01*
X7809523Y-97854819D02*
X7238095Y-97854819D01*
X7523809Y-97854819D02*
X7523809Y-96854819D01*
X7523809Y-96854819D02*
X7428571Y-96997676D01*
X7428571Y-96997676D02*
X7333333Y-97092914D01*
X7333333Y-97092914D02*
X7238095Y-97140533D01*
X68185376Y-99934820D02*
X68185376Y-100649105D01*
X68185376Y-100649105D02*
X68137757Y-100791962D01*
X68137757Y-100791962D02*
X68042519Y-100887201D01*
X68042519Y-100887201D02*
X67899662Y-100934820D01*
X67899662Y-100934820D02*
X67804424Y-100934820D01*
X69185376Y-100934820D02*
X68613948Y-100934820D01*
X68899662Y-100934820D02*
X68899662Y-99934820D01*
X68899662Y-99934820D02*
X68804424Y-100077677D01*
X68804424Y-100077677D02*
X68709186Y-100172915D01*
X68709186Y-100172915D02*
X68613948Y-100220534D01*
X70090138Y-99934820D02*
X69613948Y-99934820D01*
X69613948Y-99934820D02*
X69566329Y-100411010D01*
X69566329Y-100411010D02*
X69613948Y-100363391D01*
X69613948Y-100363391D02*
X69709186Y-100315772D01*
X69709186Y-100315772D02*
X69947281Y-100315772D01*
X69947281Y-100315772D02*
X70042519Y-100363391D01*
X70042519Y-100363391D02*
X70090138Y-100411010D01*
X70090138Y-100411010D02*
X70137757Y-100506248D01*
X70137757Y-100506248D02*
X70137757Y-100744343D01*
X70137757Y-100744343D02*
X70090138Y-100839581D01*
X70090138Y-100839581D02*
X70042519Y-100887201D01*
X70042519Y-100887201D02*
X69947281Y-100934820D01*
X69947281Y-100934820D02*
X69709186Y-100934820D01*
X69709186Y-100934820D02*
X69613948Y-100887201D01*
X69613948Y-100887201D02*
X69566329Y-100839581D01*
X27089580Y-45362857D02*
X27137200Y-45410476D01*
X27137200Y-45410476D02*
X27184819Y-45553333D01*
X27184819Y-45553333D02*
X27184819Y-45648571D01*
X27184819Y-45648571D02*
X27137200Y-45791428D01*
X27137200Y-45791428D02*
X27041961Y-45886666D01*
X27041961Y-45886666D02*
X26946723Y-45934285D01*
X26946723Y-45934285D02*
X26756247Y-45981904D01*
X26756247Y-45981904D02*
X26613390Y-45981904D01*
X26613390Y-45981904D02*
X26422914Y-45934285D01*
X26422914Y-45934285D02*
X26327676Y-45886666D01*
X26327676Y-45886666D02*
X26232438Y-45791428D01*
X26232438Y-45791428D02*
X26184819Y-45648571D01*
X26184819Y-45648571D02*
X26184819Y-45553333D01*
X26184819Y-45553333D02*
X26232438Y-45410476D01*
X26232438Y-45410476D02*
X26280057Y-45362857D01*
X27184819Y-44410476D02*
X27184819Y-44981904D01*
X27184819Y-44696190D02*
X26184819Y-44696190D01*
X26184819Y-44696190D02*
X26327676Y-44791428D01*
X26327676Y-44791428D02*
X26422914Y-44886666D01*
X26422914Y-44886666D02*
X26470533Y-44981904D01*
X27184819Y-43458095D02*
X27184819Y-44029523D01*
X27184819Y-43743809D02*
X26184819Y-43743809D01*
X26184819Y-43743809D02*
X26327676Y-43839047D01*
X26327676Y-43839047D02*
X26422914Y-43934285D01*
X26422914Y-43934285D02*
X26470533Y-44029523D01*
X83434819Y-79086666D02*
X82958628Y-79419999D01*
X83434819Y-79658094D02*
X82434819Y-79658094D01*
X82434819Y-79658094D02*
X82434819Y-79277142D01*
X82434819Y-79277142D02*
X82482438Y-79181904D01*
X82482438Y-79181904D02*
X82530057Y-79134285D01*
X82530057Y-79134285D02*
X82625295Y-79086666D01*
X82625295Y-79086666D02*
X82768152Y-79086666D01*
X82768152Y-79086666D02*
X82863390Y-79134285D01*
X82863390Y-79134285D02*
X82911009Y-79181904D01*
X82911009Y-79181904D02*
X82958628Y-79277142D01*
X82958628Y-79277142D02*
X82958628Y-79658094D01*
X83434819Y-78134285D02*
X83434819Y-78705713D01*
X83434819Y-78419999D02*
X82434819Y-78419999D01*
X82434819Y-78419999D02*
X82577676Y-78515237D01*
X82577676Y-78515237D02*
X82672914Y-78610475D01*
X82672914Y-78610475D02*
X82720533Y-78705713D01*
X87814761Y-91480057D02*
X87719523Y-91432438D01*
X87719523Y-91432438D02*
X87624285Y-91337200D01*
X87624285Y-91337200D02*
X87481428Y-91194342D01*
X87481428Y-91194342D02*
X87386190Y-91146723D01*
X87386190Y-91146723D02*
X87290952Y-91146723D01*
X87338571Y-91384819D02*
X87243333Y-91337200D01*
X87243333Y-91337200D02*
X87148095Y-91241961D01*
X87148095Y-91241961D02*
X87100476Y-91051485D01*
X87100476Y-91051485D02*
X87100476Y-90718152D01*
X87100476Y-90718152D02*
X87148095Y-90527676D01*
X87148095Y-90527676D02*
X87243333Y-90432438D01*
X87243333Y-90432438D02*
X87338571Y-90384819D01*
X87338571Y-90384819D02*
X87529047Y-90384819D01*
X87529047Y-90384819D02*
X87624285Y-90432438D01*
X87624285Y-90432438D02*
X87719523Y-90527676D01*
X87719523Y-90527676D02*
X87767142Y-90718152D01*
X87767142Y-90718152D02*
X87767142Y-91051485D01*
X87767142Y-91051485D02*
X87719523Y-91241961D01*
X87719523Y-91241961D02*
X87624285Y-91337200D01*
X87624285Y-91337200D02*
X87529047Y-91384819D01*
X87529047Y-91384819D02*
X87338571Y-91384819D01*
X88148095Y-90480057D02*
X88195714Y-90432438D01*
X88195714Y-90432438D02*
X88290952Y-90384819D01*
X88290952Y-90384819D02*
X88529047Y-90384819D01*
X88529047Y-90384819D02*
X88624285Y-90432438D01*
X88624285Y-90432438D02*
X88671904Y-90480057D01*
X88671904Y-90480057D02*
X88719523Y-90575295D01*
X88719523Y-90575295D02*
X88719523Y-90670533D01*
X88719523Y-90670533D02*
X88671904Y-90813390D01*
X88671904Y-90813390D02*
X88100476Y-91384819D01*
X88100476Y-91384819D02*
X88719523Y-91384819D01*
X89874820Y-21538434D02*
X90589105Y-21538434D01*
X90589105Y-21538434D02*
X90731962Y-21586053D01*
X90731962Y-21586053D02*
X90827201Y-21681291D01*
X90827201Y-21681291D02*
X90874820Y-21824148D01*
X90874820Y-21824148D02*
X90874820Y-21919386D01*
X90208153Y-20633672D02*
X90874820Y-20633672D01*
X89827201Y-20871767D02*
X90541486Y-21109862D01*
X90541486Y-21109862D02*
X90541486Y-20490815D01*
X52733333Y-77259580D02*
X52685714Y-77307200D01*
X52685714Y-77307200D02*
X52542857Y-77354819D01*
X52542857Y-77354819D02*
X52447619Y-77354819D01*
X52447619Y-77354819D02*
X52304762Y-77307200D01*
X52304762Y-77307200D02*
X52209524Y-77211961D01*
X52209524Y-77211961D02*
X52161905Y-77116723D01*
X52161905Y-77116723D02*
X52114286Y-76926247D01*
X52114286Y-76926247D02*
X52114286Y-76783390D01*
X52114286Y-76783390D02*
X52161905Y-76592914D01*
X52161905Y-76592914D02*
X52209524Y-76497676D01*
X52209524Y-76497676D02*
X52304762Y-76402438D01*
X52304762Y-76402438D02*
X52447619Y-76354819D01*
X52447619Y-76354819D02*
X52542857Y-76354819D01*
X52542857Y-76354819D02*
X52685714Y-76402438D01*
X52685714Y-76402438D02*
X52733333Y-76450057D01*
X53638095Y-76354819D02*
X53161905Y-76354819D01*
X53161905Y-76354819D02*
X53114286Y-76831009D01*
X53114286Y-76831009D02*
X53161905Y-76783390D01*
X53161905Y-76783390D02*
X53257143Y-76735771D01*
X53257143Y-76735771D02*
X53495238Y-76735771D01*
X53495238Y-76735771D02*
X53590476Y-76783390D01*
X53590476Y-76783390D02*
X53638095Y-76831009D01*
X53638095Y-76831009D02*
X53685714Y-76926247D01*
X53685714Y-76926247D02*
X53685714Y-77164342D01*
X53685714Y-77164342D02*
X53638095Y-77259580D01*
X53638095Y-77259580D02*
X53590476Y-77307200D01*
X53590476Y-77307200D02*
X53495238Y-77354819D01*
X53495238Y-77354819D02*
X53257143Y-77354819D01*
X53257143Y-77354819D02*
X53161905Y-77307200D01*
X53161905Y-77307200D02*
X53114286Y-77259580D01*
X19883333Y-16809580D02*
X19835714Y-16857200D01*
X19835714Y-16857200D02*
X19692857Y-16904819D01*
X19692857Y-16904819D02*
X19597619Y-16904819D01*
X19597619Y-16904819D02*
X19454762Y-16857200D01*
X19454762Y-16857200D02*
X19359524Y-16761961D01*
X19359524Y-16761961D02*
X19311905Y-16666723D01*
X19311905Y-16666723D02*
X19264286Y-16476247D01*
X19264286Y-16476247D02*
X19264286Y-16333390D01*
X19264286Y-16333390D02*
X19311905Y-16142914D01*
X19311905Y-16142914D02*
X19359524Y-16047676D01*
X19359524Y-16047676D02*
X19454762Y-15952438D01*
X19454762Y-15952438D02*
X19597619Y-15904819D01*
X19597619Y-15904819D02*
X19692857Y-15904819D01*
X19692857Y-15904819D02*
X19835714Y-15952438D01*
X19835714Y-15952438D02*
X19883333Y-16000057D01*
X20454762Y-16333390D02*
X20359524Y-16285771D01*
X20359524Y-16285771D02*
X20311905Y-16238152D01*
X20311905Y-16238152D02*
X20264286Y-16142914D01*
X20264286Y-16142914D02*
X20264286Y-16095295D01*
X20264286Y-16095295D02*
X20311905Y-16000057D01*
X20311905Y-16000057D02*
X20359524Y-15952438D01*
X20359524Y-15952438D02*
X20454762Y-15904819D01*
X20454762Y-15904819D02*
X20645238Y-15904819D01*
X20645238Y-15904819D02*
X20740476Y-15952438D01*
X20740476Y-15952438D02*
X20788095Y-16000057D01*
X20788095Y-16000057D02*
X20835714Y-16095295D01*
X20835714Y-16095295D02*
X20835714Y-16142914D01*
X20835714Y-16142914D02*
X20788095Y-16238152D01*
X20788095Y-16238152D02*
X20740476Y-16285771D01*
X20740476Y-16285771D02*
X20645238Y-16333390D01*
X20645238Y-16333390D02*
X20454762Y-16333390D01*
X20454762Y-16333390D02*
X20359524Y-16381009D01*
X20359524Y-16381009D02*
X20311905Y-16428628D01*
X20311905Y-16428628D02*
X20264286Y-16523866D01*
X20264286Y-16523866D02*
X20264286Y-16714342D01*
X20264286Y-16714342D02*
X20311905Y-16809580D01*
X20311905Y-16809580D02*
X20359524Y-16857200D01*
X20359524Y-16857200D02*
X20454762Y-16904819D01*
X20454762Y-16904819D02*
X20645238Y-16904819D01*
X20645238Y-16904819D02*
X20740476Y-16857200D01*
X20740476Y-16857200D02*
X20788095Y-16809580D01*
X20788095Y-16809580D02*
X20835714Y-16714342D01*
X20835714Y-16714342D02*
X20835714Y-16523866D01*
X20835714Y-16523866D02*
X20788095Y-16428628D01*
X20788095Y-16428628D02*
X20740476Y-16381009D01*
X20740476Y-16381009D02*
X20645238Y-16333390D01*
X91948095Y-97854819D02*
X91948095Y-96854819D01*
X91948095Y-97331009D02*
X92519523Y-97331009D01*
X92519523Y-97854819D02*
X92519523Y-96854819D01*
X92900476Y-96854819D02*
X93519523Y-96854819D01*
X93519523Y-96854819D02*
X93186190Y-97235771D01*
X93186190Y-97235771D02*
X93329047Y-97235771D01*
X93329047Y-97235771D02*
X93424285Y-97283390D01*
X93424285Y-97283390D02*
X93471904Y-97331009D01*
X93471904Y-97331009D02*
X93519523Y-97426247D01*
X93519523Y-97426247D02*
X93519523Y-97664342D01*
X93519523Y-97664342D02*
X93471904Y-97759580D01*
X93471904Y-97759580D02*
X93424285Y-97807200D01*
X93424285Y-97807200D02*
X93329047Y-97854819D01*
X93329047Y-97854819D02*
X93043333Y-97854819D01*
X93043333Y-97854819D02*
X92948095Y-97807200D01*
X92948095Y-97807200D02*
X92900476Y-97759580D01*
X78099580Y-76696666D02*
X78147200Y-76744285D01*
X78147200Y-76744285D02*
X78194819Y-76887142D01*
X78194819Y-76887142D02*
X78194819Y-76982380D01*
X78194819Y-76982380D02*
X78147200Y-77125237D01*
X78147200Y-77125237D02*
X78051961Y-77220475D01*
X78051961Y-77220475D02*
X77956723Y-77268094D01*
X77956723Y-77268094D02*
X77766247Y-77315713D01*
X77766247Y-77315713D02*
X77623390Y-77315713D01*
X77623390Y-77315713D02*
X77432914Y-77268094D01*
X77432914Y-77268094D02*
X77337676Y-77220475D01*
X77337676Y-77220475D02*
X77242438Y-77125237D01*
X77242438Y-77125237D02*
X77194819Y-76982380D01*
X77194819Y-76982380D02*
X77194819Y-76887142D01*
X77194819Y-76887142D02*
X77242438Y-76744285D01*
X77242438Y-76744285D02*
X77290057Y-76696666D01*
X77194819Y-76363332D02*
X77194819Y-75696666D01*
X77194819Y-75696666D02*
X78194819Y-76125237D01*
X8645181Y-39540476D02*
X7930896Y-39540476D01*
X7930896Y-39540476D02*
X7788039Y-39492857D01*
X7788039Y-39492857D02*
X7692801Y-39397619D01*
X7692801Y-39397619D02*
X7645181Y-39254762D01*
X7645181Y-39254762D02*
X7645181Y-39159524D01*
X7645181Y-40540476D02*
X7645181Y-39969048D01*
X7645181Y-40254762D02*
X8645181Y-40254762D01*
X8645181Y-40254762D02*
X8502324Y-40159524D01*
X8502324Y-40159524D02*
X8407086Y-40064286D01*
X8407086Y-40064286D02*
X8359467Y-39969048D01*
X8549943Y-40921429D02*
X8597562Y-40969048D01*
X8597562Y-40969048D02*
X8645181Y-41064286D01*
X8645181Y-41064286D02*
X8645181Y-41302381D01*
X8645181Y-41302381D02*
X8597562Y-41397619D01*
X8597562Y-41397619D02*
X8549943Y-41445238D01*
X8549943Y-41445238D02*
X8454705Y-41492857D01*
X8454705Y-41492857D02*
X8359467Y-41492857D01*
X8359467Y-41492857D02*
X8216610Y-41445238D01*
X8216610Y-41445238D02*
X7645181Y-40873810D01*
X7645181Y-40873810D02*
X7645181Y-41492857D01*
X92774819Y-95309523D02*
X93774819Y-94642857D01*
X92774819Y-94642857D02*
X93774819Y-95309523D01*
X93774819Y-93738095D02*
X93774819Y-94309523D01*
X93774819Y-94023809D02*
X92774819Y-94023809D01*
X92774819Y-94023809D02*
X92917676Y-94119047D01*
X92917676Y-94119047D02*
X93012914Y-94214285D01*
X93012914Y-94214285D02*
X93060533Y-94309523D01*
X55911905Y-9614819D02*
X55911905Y-10424342D01*
X55911905Y-10424342D02*
X55959524Y-10519580D01*
X55959524Y-10519580D02*
X56007143Y-10567200D01*
X56007143Y-10567200D02*
X56102381Y-10614819D01*
X56102381Y-10614819D02*
X56292857Y-10614819D01*
X56292857Y-10614819D02*
X56388095Y-10567200D01*
X56388095Y-10567200D02*
X56435714Y-10519580D01*
X56435714Y-10519580D02*
X56483333Y-10424342D01*
X56483333Y-10424342D02*
X56483333Y-9614819D01*
X57483333Y-10614819D02*
X56911905Y-10614819D01*
X57197619Y-10614819D02*
X57197619Y-9614819D01*
X57197619Y-9614819D02*
X57102381Y-9757676D01*
X57102381Y-9757676D02*
X57007143Y-9852914D01*
X57007143Y-9852914D02*
X56911905Y-9900533D01*
X57864286Y-9710057D02*
X57911905Y-9662438D01*
X57911905Y-9662438D02*
X58007143Y-9614819D01*
X58007143Y-9614819D02*
X58245238Y-9614819D01*
X58245238Y-9614819D02*
X58340476Y-9662438D01*
X58340476Y-9662438D02*
X58388095Y-9710057D01*
X58388095Y-9710057D02*
X58435714Y-9805295D01*
X58435714Y-9805295D02*
X58435714Y-9900533D01*
X58435714Y-9900533D02*
X58388095Y-10043390D01*
X58388095Y-10043390D02*
X57816667Y-10614819D01*
X57816667Y-10614819D02*
X58435714Y-10614819D01*
X91374819Y-30743332D02*
X92089104Y-30743332D01*
X92089104Y-30743332D02*
X92231961Y-30790951D01*
X92231961Y-30790951D02*
X92327200Y-30886189D01*
X92327200Y-30886189D02*
X92374819Y-31029046D01*
X92374819Y-31029046D02*
X92374819Y-31124284D01*
X91374819Y-29790951D02*
X91374819Y-30267141D01*
X91374819Y-30267141D02*
X91851009Y-30314760D01*
X91851009Y-30314760D02*
X91803390Y-30267141D01*
X91803390Y-30267141D02*
X91755771Y-30171903D01*
X91755771Y-30171903D02*
X91755771Y-29933808D01*
X91755771Y-29933808D02*
X91803390Y-29838570D01*
X91803390Y-29838570D02*
X91851009Y-29790951D01*
X91851009Y-29790951D02*
X91946247Y-29743332D01*
X91946247Y-29743332D02*
X92184342Y-29743332D01*
X92184342Y-29743332D02*
X92279580Y-29790951D01*
X92279580Y-29790951D02*
X92327200Y-29838570D01*
X92327200Y-29838570D02*
X92374819Y-29933808D01*
X92374819Y-29933808D02*
X92374819Y-30171903D01*
X92374819Y-30171903D02*
X92327200Y-30267141D01*
X92327200Y-30267141D02*
X92279580Y-30314760D01*
X10145180Y-17510476D02*
X9430895Y-17510476D01*
X9430895Y-17510476D02*
X9288038Y-17462857D01*
X9288038Y-17462857D02*
X9192800Y-17367619D01*
X9192800Y-17367619D02*
X9145180Y-17224762D01*
X9145180Y-17224762D02*
X9145180Y-17129524D01*
X9145180Y-18510476D02*
X9145180Y-17939048D01*
X9145180Y-18224762D02*
X10145180Y-18224762D01*
X10145180Y-18224762D02*
X10002323Y-18129524D01*
X10002323Y-18129524D02*
X9907085Y-18034286D01*
X9907085Y-18034286D02*
X9859466Y-17939048D01*
X10145180Y-18843810D02*
X10145180Y-19462857D01*
X10145180Y-19462857D02*
X9764228Y-19129524D01*
X9764228Y-19129524D02*
X9764228Y-19272381D01*
X9764228Y-19272381D02*
X9716609Y-19367619D01*
X9716609Y-19367619D02*
X9668990Y-19415238D01*
X9668990Y-19415238D02*
X9573752Y-19462857D01*
X9573752Y-19462857D02*
X9335657Y-19462857D01*
X9335657Y-19462857D02*
X9240419Y-19415238D01*
X9240419Y-19415238D02*
X9192800Y-19367619D01*
X9192800Y-19367619D02*
X9145180Y-19272381D01*
X9145180Y-19272381D02*
X9145180Y-18986667D01*
X9145180Y-18986667D02*
X9192800Y-18891429D01*
X9192800Y-18891429D02*
X9240419Y-18843810D01*
X79610491Y-47105707D02*
X78608184Y-47105707D01*
X79515034Y-46055671D02*
X79562763Y-46103400D01*
X79562763Y-46103400D02*
X79610491Y-46246587D01*
X79610491Y-46246587D02*
X79610491Y-46342045D01*
X79610491Y-46342045D02*
X79562763Y-46485231D01*
X79562763Y-46485231D02*
X79467305Y-46580689D01*
X79467305Y-46580689D02*
X79371847Y-46628418D01*
X79371847Y-46628418D02*
X79180931Y-46676147D01*
X79180931Y-46676147D02*
X79037745Y-46676147D01*
X79037745Y-46676147D02*
X78846829Y-46628418D01*
X78846829Y-46628418D02*
X78751371Y-46580689D01*
X78751371Y-46580689D02*
X78655913Y-46485231D01*
X78655913Y-46485231D02*
X78608184Y-46342045D01*
X78608184Y-46342045D02*
X78608184Y-46246587D01*
X78608184Y-46246587D02*
X78655913Y-46103400D01*
X78655913Y-46103400D02*
X78703642Y-46055671D01*
X78703642Y-45673840D02*
X78655913Y-45626111D01*
X78655913Y-45626111D02*
X78608184Y-45530653D01*
X78608184Y-45530653D02*
X78608184Y-45292009D01*
X78608184Y-45292009D02*
X78655913Y-45196551D01*
X78655913Y-45196551D02*
X78703642Y-45148822D01*
X78703642Y-45148822D02*
X78799100Y-45101093D01*
X78799100Y-45101093D02*
X78894558Y-45101093D01*
X78894558Y-45101093D02*
X79037745Y-45148822D01*
X79037745Y-45148822D02*
X79610491Y-45721569D01*
X79610491Y-45721569D02*
X79610491Y-45101093D01*
X42545376Y-99934820D02*
X42545376Y-100649105D01*
X42545376Y-100649105D02*
X42497757Y-100791962D01*
X42497757Y-100791962D02*
X42402519Y-100887201D01*
X42402519Y-100887201D02*
X42259662Y-100934820D01*
X42259662Y-100934820D02*
X42164424Y-100934820D01*
X43545376Y-100934820D02*
X42973948Y-100934820D01*
X43259662Y-100934820D02*
X43259662Y-99934820D01*
X43259662Y-99934820D02*
X43164424Y-100077677D01*
X43164424Y-100077677D02*
X43069186Y-100172915D01*
X43069186Y-100172915D02*
X42973948Y-100220534D01*
X44116805Y-100363391D02*
X44021567Y-100315772D01*
X44021567Y-100315772D02*
X43973948Y-100268153D01*
X43973948Y-100268153D02*
X43926329Y-100172915D01*
X43926329Y-100172915D02*
X43926329Y-100125296D01*
X43926329Y-100125296D02*
X43973948Y-100030058D01*
X43973948Y-100030058D02*
X44021567Y-99982439D01*
X44021567Y-99982439D02*
X44116805Y-99934820D01*
X44116805Y-99934820D02*
X44307281Y-99934820D01*
X44307281Y-99934820D02*
X44402519Y-99982439D01*
X44402519Y-99982439D02*
X44450138Y-100030058D01*
X44450138Y-100030058D02*
X44497757Y-100125296D01*
X44497757Y-100125296D02*
X44497757Y-100172915D01*
X44497757Y-100172915D02*
X44450138Y-100268153D01*
X44450138Y-100268153D02*
X44402519Y-100315772D01*
X44402519Y-100315772D02*
X44307281Y-100363391D01*
X44307281Y-100363391D02*
X44116805Y-100363391D01*
X44116805Y-100363391D02*
X44021567Y-100411010D01*
X44021567Y-100411010D02*
X43973948Y-100458629D01*
X43973948Y-100458629D02*
X43926329Y-100553867D01*
X43926329Y-100553867D02*
X43926329Y-100744343D01*
X43926329Y-100744343D02*
X43973948Y-100839581D01*
X43973948Y-100839581D02*
X44021567Y-100887201D01*
X44021567Y-100887201D02*
X44116805Y-100934820D01*
X44116805Y-100934820D02*
X44307281Y-100934820D01*
X44307281Y-100934820D02*
X44402519Y-100887201D01*
X44402519Y-100887201D02*
X44450138Y-100839581D01*
X44450138Y-100839581D02*
X44497757Y-100744343D01*
X44497757Y-100744343D02*
X44497757Y-100553867D01*
X44497757Y-100553867D02*
X44450138Y-100458629D01*
X44450138Y-100458629D02*
X44402519Y-100411010D01*
X44402519Y-100411010D02*
X44307281Y-100363391D01*
X22693333Y-73214819D02*
X22360000Y-72738628D01*
X22121905Y-73214819D02*
X22121905Y-72214819D01*
X22121905Y-72214819D02*
X22502857Y-72214819D01*
X22502857Y-72214819D02*
X22598095Y-72262438D01*
X22598095Y-72262438D02*
X22645714Y-72310057D01*
X22645714Y-72310057D02*
X22693333Y-72405295D01*
X22693333Y-72405295D02*
X22693333Y-72548152D01*
X22693333Y-72548152D02*
X22645714Y-72643390D01*
X22645714Y-72643390D02*
X22598095Y-72691009D01*
X22598095Y-72691009D02*
X22502857Y-72738628D01*
X22502857Y-72738628D02*
X22121905Y-72738628D01*
X23074286Y-72310057D02*
X23121905Y-72262438D01*
X23121905Y-72262438D02*
X23217143Y-72214819D01*
X23217143Y-72214819D02*
X23455238Y-72214819D01*
X23455238Y-72214819D02*
X23550476Y-72262438D01*
X23550476Y-72262438D02*
X23598095Y-72310057D01*
X23598095Y-72310057D02*
X23645714Y-72405295D01*
X23645714Y-72405295D02*
X23645714Y-72500533D01*
X23645714Y-72500533D02*
X23598095Y-72643390D01*
X23598095Y-72643390D02*
X23026667Y-73214819D01*
X23026667Y-73214819D02*
X23645714Y-73214819D01*
X27089580Y-65682857D02*
X27137200Y-65730476D01*
X27137200Y-65730476D02*
X27184819Y-65873333D01*
X27184819Y-65873333D02*
X27184819Y-65968571D01*
X27184819Y-65968571D02*
X27137200Y-66111428D01*
X27137200Y-66111428D02*
X27041961Y-66206666D01*
X27041961Y-66206666D02*
X26946723Y-66254285D01*
X26946723Y-66254285D02*
X26756247Y-66301904D01*
X26756247Y-66301904D02*
X26613390Y-66301904D01*
X26613390Y-66301904D02*
X26422914Y-66254285D01*
X26422914Y-66254285D02*
X26327676Y-66206666D01*
X26327676Y-66206666D02*
X26232438Y-66111428D01*
X26232438Y-66111428D02*
X26184819Y-65968571D01*
X26184819Y-65968571D02*
X26184819Y-65873333D01*
X26184819Y-65873333D02*
X26232438Y-65730476D01*
X26232438Y-65730476D02*
X26280057Y-65682857D01*
X27184819Y-64730476D02*
X27184819Y-65301904D01*
X27184819Y-65016190D02*
X26184819Y-65016190D01*
X26184819Y-65016190D02*
X26327676Y-65111428D01*
X26327676Y-65111428D02*
X26422914Y-65206666D01*
X26422914Y-65206666D02*
X26470533Y-65301904D01*
X26184819Y-64111428D02*
X26184819Y-64016190D01*
X26184819Y-64016190D02*
X26232438Y-63920952D01*
X26232438Y-63920952D02*
X26280057Y-63873333D01*
X26280057Y-63873333D02*
X26375295Y-63825714D01*
X26375295Y-63825714D02*
X26565771Y-63778095D01*
X26565771Y-63778095D02*
X26803866Y-63778095D01*
X26803866Y-63778095D02*
X26994342Y-63825714D01*
X26994342Y-63825714D02*
X27089580Y-63873333D01*
X27089580Y-63873333D02*
X27137200Y-63920952D01*
X27137200Y-63920952D02*
X27184819Y-64016190D01*
X27184819Y-64016190D02*
X27184819Y-64111428D01*
X27184819Y-64111428D02*
X27137200Y-64206666D01*
X27137200Y-64206666D02*
X27089580Y-64254285D01*
X27089580Y-64254285D02*
X26994342Y-64301904D01*
X26994342Y-64301904D02*
X26803866Y-64349523D01*
X26803866Y-64349523D02*
X26565771Y-64349523D01*
X26565771Y-64349523D02*
X26375295Y-64301904D01*
X26375295Y-64301904D02*
X26280057Y-64254285D01*
X26280057Y-64254285D02*
X26232438Y-64206666D01*
X26232438Y-64206666D02*
X26184819Y-64111428D01*
X34798095Y-1994819D02*
X34798095Y-2804342D01*
X34798095Y-2804342D02*
X34845714Y-2899580D01*
X34845714Y-2899580D02*
X34893333Y-2947200D01*
X34893333Y-2947200D02*
X34988571Y-2994819D01*
X34988571Y-2994819D02*
X35179047Y-2994819D01*
X35179047Y-2994819D02*
X35274285Y-2947200D01*
X35274285Y-2947200D02*
X35321904Y-2899580D01*
X35321904Y-2899580D02*
X35369523Y-2804342D01*
X35369523Y-2804342D02*
X35369523Y-1994819D01*
X36369523Y-2994819D02*
X35798095Y-2994819D01*
X36083809Y-2994819D02*
X36083809Y-1994819D01*
X36083809Y-1994819D02*
X35988571Y-2137676D01*
X35988571Y-2137676D02*
X35893333Y-2232914D01*
X35893333Y-2232914D02*
X35798095Y-2280533D01*
X22693333Y-63224819D02*
X22360000Y-62748628D01*
X22121905Y-63224819D02*
X22121905Y-62224819D01*
X22121905Y-62224819D02*
X22502857Y-62224819D01*
X22502857Y-62224819D02*
X22598095Y-62272438D01*
X22598095Y-62272438D02*
X22645714Y-62320057D01*
X22645714Y-62320057D02*
X22693333Y-62415295D01*
X22693333Y-62415295D02*
X22693333Y-62558152D01*
X22693333Y-62558152D02*
X22645714Y-62653390D01*
X22645714Y-62653390D02*
X22598095Y-62701009D01*
X22598095Y-62701009D02*
X22502857Y-62748628D01*
X22502857Y-62748628D02*
X22121905Y-62748628D01*
X23550476Y-62558152D02*
X23550476Y-63224819D01*
X23312381Y-62177200D02*
X23074286Y-62891485D01*
X23074286Y-62891485D02*
X23693333Y-62891485D01*
D13*
%TO.C,J9*%
X24257900Y-95353001D02*
X24257900Y-109607000D01*
X24257900Y-109607000D02*
X36811901Y-109607000D01*
X36811901Y-95353001D02*
X24257900Y-95353001D01*
X36811901Y-109607000D02*
X36811901Y-95353001D01*
D14*
X22860900Y-100480001D02*
G75*
G03*
X22860900Y-100480001I-381000J0D01*
G01*
D13*
%TO.C,J7*%
X85293001Y-45912101D02*
X99547000Y-45912101D01*
X99547000Y-45912101D02*
X99547000Y-33358100D01*
X85293001Y-33358100D02*
X85293001Y-45912101D01*
X99547000Y-33358100D02*
X85293001Y-33358100D01*
D14*
X90801001Y-47690101D02*
G75*
G03*
X90801001Y-47690101I-381000J0D01*
G01*
D13*
%TO.C,IC3*%
X81821000Y-59730000D02*
X79916000Y-59730000D01*
X75979000Y-59730000D02*
X77884000Y-59730000D01*
X81821000Y-69890000D02*
X75979000Y-69890000D01*
X77884000Y-59730000D02*
G75*
G03*
X79916000Y-59730000I1016000J0D01*
G01*
%TO.C,D1*%
X74625000Y-90383100D02*
X75895000Y-90383100D01*
X75260000Y-90383100D02*
X74625000Y-89621100D01*
X75260000Y-90383100D02*
X74752000Y-89621100D01*
X75260000Y-90383100D02*
X74879000Y-89621100D01*
X75260000Y-90383100D02*
X75006000Y-89621100D01*
X75260000Y-90383100D02*
X75133000Y-89621100D01*
X75260000Y-90383100D02*
X75387000Y-89621100D01*
X75260000Y-90383100D02*
X75514000Y-89621100D01*
X75260000Y-90383100D02*
X75641000Y-89621100D01*
X75260000Y-90383100D02*
X75768000Y-89621100D01*
X75260000Y-90383100D02*
X75895000Y-89621100D01*
X74625000Y-89621100D02*
X75895000Y-89621100D01*
X75260000Y-89367100D02*
X75260000Y-90637100D01*
X73837600Y-84833200D02*
X76682400Y-84833200D01*
X76682400Y-84833200D02*
X76682400Y-80489800D01*
X73837600Y-80489800D02*
X73837600Y-84833200D01*
X76682400Y-80489800D02*
X73837600Y-80489800D01*
%TO.C,J16*%
X85293001Y-64352101D02*
X99547000Y-64352101D01*
X99547000Y-64352101D02*
X99547000Y-51798100D01*
X85293001Y-51798100D02*
X85293001Y-64352101D01*
X99547000Y-51798100D02*
X85293001Y-51798100D01*
D14*
X90801001Y-66130101D02*
G75*
G03*
X90801001Y-66130101I-381000J0D01*
G01*
D13*
%TO.C,J11*%
X14727000Y-43283000D02*
X473001Y-43283000D01*
X473001Y-43283000D02*
X473001Y-65837001D01*
X14727000Y-65837001D02*
X14727000Y-43283000D01*
X473001Y-65837001D02*
X14727000Y-65837001D01*
D14*
X9981000Y-41505000D02*
G75*
G03*
X9981000Y-41505000I-381000J0D01*
G01*
D15*
%TO.C,U4*%
X52760000Y-84360000D02*
X52760000Y-89001000D01*
X52760000Y-84360000D02*
X63000000Y-84360000D01*
X52760000Y-85870000D02*
X63000000Y-85870000D01*
X52760000Y-89001000D02*
X63000000Y-89001000D01*
X56030000Y-84360000D02*
X56030000Y-85870000D01*
X59731000Y-84360000D02*
X59731000Y-85870000D01*
X63000000Y-84360000D02*
X63000000Y-89001000D01*
%TO.C,C6*%
X60420000Y-80180000D02*
X60420000Y-80140000D01*
X58750000Y-80140000D02*
X62090000Y-80140000D01*
X62090000Y-80140000D02*
X62090000Y-74800000D01*
X58750000Y-74800000D02*
X58750000Y-80140000D01*
X62090000Y-74800000D02*
X58750000Y-74800000D01*
X60420000Y-74760000D02*
X60420000Y-74800000D01*
D13*
%TO.C,J17*%
X85293001Y-69956999D02*
X99547000Y-69956999D01*
X99547000Y-69956999D02*
X99547000Y-64622999D01*
X85293001Y-64622999D02*
X85293001Y-69956999D01*
X99547000Y-64622999D02*
X85293001Y-64622999D01*
D14*
X89801000Y-71734999D02*
G75*
G03*
X89801000Y-71734999I-381000J0D01*
G01*
D16*
%TO.C,D3*%
X92050000Y-77470000D02*
X90500000Y-77470000D01*
X90500000Y-77470000D02*
X90500000Y-75500000D01*
X90500000Y-77470000D02*
X88950000Y-77470000D01*
X88950000Y-77470000D02*
X88950000Y-84170000D01*
X92050000Y-84170000D02*
X92050000Y-77470000D01*
X90500000Y-84170000D02*
X92050000Y-84170000D01*
X90500000Y-84170000D02*
X90500000Y-86140000D01*
X88950000Y-84170000D02*
X90500000Y-84170000D01*
D10*
X90600000Y-72820000D02*
G75*
G03*
X90600000Y-72820000I-100000J0D01*
G01*
D15*
%TO.C,C9*%
X23030000Y-5080000D02*
X22990000Y-5080000D01*
X22990000Y-6750000D02*
X22990000Y-3410000D01*
X22990000Y-3410000D02*
X17650000Y-3410000D01*
X17650000Y-6750000D02*
X22990000Y-6750000D01*
X17650000Y-3410000D02*
X17650000Y-6750000D01*
X17610000Y-5080000D02*
X17650000Y-5080000D01*
%TO.C,U2*%
X20440000Y-36715000D02*
X68760000Y-36715000D01*
X20440000Y-36715000D02*
X20440000Y-34055000D01*
X68760000Y-36715000D02*
X68760000Y-34055000D01*
X17840000Y-35385000D02*
X17840000Y-34055000D01*
X17840000Y-34055000D02*
X19170000Y-34055000D01*
X20440000Y-34055000D02*
X68760000Y-34055000D01*
X20440000Y-22140000D02*
X68760000Y-22140000D01*
X20440000Y-22140000D02*
X20440000Y-19480000D01*
X68760000Y-22140000D02*
X68760000Y-19480000D01*
X17840000Y-20810000D02*
X17840000Y-19480000D01*
X17840000Y-19480000D02*
X19170000Y-19480000D01*
X20440000Y-19480000D02*
X68760000Y-19480000D01*
%TO.C,C12*%
X29005000Y-57684775D02*
X29005000Y-57184775D01*
X28755000Y-57434775D02*
X29255000Y-57434775D01*
X27900000Y-54880000D02*
X29440000Y-54880000D01*
X31520000Y-54880000D02*
X33060000Y-54880000D01*
X27900000Y-54840000D02*
X29440000Y-54840000D01*
X31520000Y-54840000D02*
X33060000Y-54840000D01*
X27901000Y-54800000D02*
X29440000Y-54800000D01*
X31520000Y-54800000D02*
X33059000Y-54800000D01*
X27902000Y-54760000D02*
X29440000Y-54760000D01*
X31520000Y-54760000D02*
X33058000Y-54760000D01*
X27904000Y-54720000D02*
X29440000Y-54720000D01*
X31520000Y-54720000D02*
X33056000Y-54720000D01*
X27907000Y-54680000D02*
X29440000Y-54680000D01*
X31520000Y-54680000D02*
X33053000Y-54680000D01*
X27911000Y-54640000D02*
X29440000Y-54640000D01*
X31520000Y-54640000D02*
X33049000Y-54640000D01*
X27915000Y-54600000D02*
X29440000Y-54600000D01*
X31520000Y-54600000D02*
X33045000Y-54600000D01*
X27919000Y-54560000D02*
X29440000Y-54560000D01*
X31520000Y-54560000D02*
X33041000Y-54560000D01*
X27924000Y-54520000D02*
X29440000Y-54520000D01*
X31520000Y-54520000D02*
X33036000Y-54520000D01*
X27930000Y-54480000D02*
X29440000Y-54480000D01*
X31520000Y-54480000D02*
X33030000Y-54480000D01*
X27937000Y-54440000D02*
X29440000Y-54440000D01*
X31520000Y-54440000D02*
X33023000Y-54440000D01*
X27944000Y-54400000D02*
X29440000Y-54400000D01*
X31520000Y-54400000D02*
X33016000Y-54400000D01*
X27952000Y-54360000D02*
X29440000Y-54360000D01*
X31520000Y-54360000D02*
X33008000Y-54360000D01*
X27960000Y-54320000D02*
X29440000Y-54320000D01*
X31520000Y-54320000D02*
X33000000Y-54320000D01*
X27969000Y-54280000D02*
X29440000Y-54280000D01*
X31520000Y-54280000D02*
X32991000Y-54280000D01*
X27979000Y-54240000D02*
X29440000Y-54240000D01*
X31520000Y-54240000D02*
X32981000Y-54240000D01*
X27989000Y-54200000D02*
X29440000Y-54200000D01*
X31520000Y-54200000D02*
X32971000Y-54200000D01*
X28000000Y-54159000D02*
X29440000Y-54159000D01*
X31520000Y-54159000D02*
X32960000Y-54159000D01*
X28012000Y-54119000D02*
X29440000Y-54119000D01*
X31520000Y-54119000D02*
X32948000Y-54119000D01*
X28025000Y-54079000D02*
X29440000Y-54079000D01*
X31520000Y-54079000D02*
X32935000Y-54079000D01*
X28038000Y-54039000D02*
X29440000Y-54039000D01*
X31520000Y-54039000D02*
X32922000Y-54039000D01*
X28052000Y-53999000D02*
X29440000Y-53999000D01*
X31520000Y-53999000D02*
X32908000Y-53999000D01*
X28066000Y-53959000D02*
X29440000Y-53959000D01*
X31520000Y-53959000D02*
X32894000Y-53959000D01*
X28082000Y-53919000D02*
X29440000Y-53919000D01*
X31520000Y-53919000D02*
X32878000Y-53919000D01*
X28098000Y-53879000D02*
X29440000Y-53879000D01*
X31520000Y-53879000D02*
X32862000Y-53879000D01*
X28115000Y-53839000D02*
X29440000Y-53839000D01*
X31520000Y-53839000D02*
X32845000Y-53839000D01*
X28132000Y-53799000D02*
X29440000Y-53799000D01*
X31520000Y-53799000D02*
X32828000Y-53799000D01*
X28151000Y-53759000D02*
X29440000Y-53759000D01*
X31520000Y-53759000D02*
X32809000Y-53759000D01*
X28170000Y-53719000D02*
X29440000Y-53719000D01*
X31520000Y-53719000D02*
X32790000Y-53719000D01*
X28190000Y-53679000D02*
X29440000Y-53679000D01*
X31520000Y-53679000D02*
X32770000Y-53679000D01*
X28212000Y-53639000D02*
X29440000Y-53639000D01*
X31520000Y-53639000D02*
X32748000Y-53639000D01*
X28233000Y-53599000D02*
X29440000Y-53599000D01*
X31520000Y-53599000D02*
X32727000Y-53599000D01*
X28256000Y-53559000D02*
X29440000Y-53559000D01*
X31520000Y-53559000D02*
X32704000Y-53559000D01*
X28280000Y-53519000D02*
X29440000Y-53519000D01*
X31520000Y-53519000D02*
X32680000Y-53519000D01*
X28305000Y-53479000D02*
X29440000Y-53479000D01*
X31520000Y-53479000D02*
X32655000Y-53479000D01*
X28331000Y-53439000D02*
X29440000Y-53439000D01*
X31520000Y-53439000D02*
X32629000Y-53439000D01*
X28358000Y-53399000D02*
X29440000Y-53399000D01*
X31520000Y-53399000D02*
X32602000Y-53399000D01*
X28385000Y-53359000D02*
X29440000Y-53359000D01*
X31520000Y-53359000D02*
X32575000Y-53359000D01*
X28415000Y-53319000D02*
X29440000Y-53319000D01*
X31520000Y-53319000D02*
X32545000Y-53319000D01*
X28445000Y-53279000D02*
X29440000Y-53279000D01*
X31520000Y-53279000D02*
X32515000Y-53279000D01*
X28476000Y-53239000D02*
X29440000Y-53239000D01*
X31520000Y-53239000D02*
X32484000Y-53239000D01*
X28509000Y-53199000D02*
X29440000Y-53199000D01*
X31520000Y-53199000D02*
X32451000Y-53199000D01*
X28543000Y-53159000D02*
X29440000Y-53159000D01*
X31520000Y-53159000D02*
X32417000Y-53159000D01*
X28579000Y-53119000D02*
X29440000Y-53119000D01*
X31520000Y-53119000D02*
X32381000Y-53119000D01*
X28616000Y-53079000D02*
X29440000Y-53079000D01*
X31520000Y-53079000D02*
X32344000Y-53079000D01*
X28654000Y-53039000D02*
X29440000Y-53039000D01*
X31520000Y-53039000D02*
X32306000Y-53039000D01*
X28695000Y-52999000D02*
X29440000Y-52999000D01*
X31520000Y-52999000D02*
X32265000Y-52999000D01*
X28737000Y-52959000D02*
X29440000Y-52959000D01*
X31520000Y-52959000D02*
X32223000Y-52959000D01*
X28781000Y-52919000D02*
X29440000Y-52919000D01*
X31520000Y-52919000D02*
X32179000Y-52919000D01*
X28827000Y-52879000D02*
X29440000Y-52879000D01*
X31520000Y-52879000D02*
X32133000Y-52879000D01*
X28875000Y-52839000D02*
X32085000Y-52839000D01*
X28926000Y-52799000D02*
X32034000Y-52799000D01*
X28980000Y-52759000D02*
X31980000Y-52759000D01*
X29037000Y-52719000D02*
X31923000Y-52719000D01*
X29097000Y-52679000D02*
X31863000Y-52679000D01*
X29161000Y-52639000D02*
X31799000Y-52639000D01*
X29229000Y-52599000D02*
X31731000Y-52599000D01*
X29302000Y-52559000D02*
X31658000Y-52559000D01*
X29382000Y-52519000D02*
X31578000Y-52519000D01*
X29469000Y-52479000D02*
X31491000Y-52479000D01*
X29565000Y-52439000D02*
X31395000Y-52439000D01*
X29675000Y-52399000D02*
X31285000Y-52399000D01*
X29803000Y-52359000D02*
X31157000Y-52359000D01*
X29962000Y-52319000D02*
X30998000Y-52319000D01*
X30196000Y-52279000D02*
X30764000Y-52279000D01*
X33100000Y-54880000D02*
G75*
G03*
X33100000Y-54880000I-2620000J0D01*
G01*
D13*
%TO.C,IC1*%
X81821000Y-34330000D02*
X79916000Y-34330000D01*
X75979000Y-34330000D02*
X77884000Y-34330000D01*
X81821000Y-44490000D02*
X75979000Y-44490000D01*
X77884000Y-34330000D02*
G75*
G03*
X79916000Y-34330000I1016000J0D01*
G01*
D15*
%TO.C,C4*%
X65500000Y-87800000D02*
X65500000Y-87760000D01*
X63830000Y-87760000D02*
X67170000Y-87760000D01*
X67170000Y-87760000D02*
X67170000Y-82420000D01*
X63830000Y-82420000D02*
X63830000Y-87760000D01*
X67170000Y-82420000D02*
X63830000Y-82420000D01*
X65500000Y-82380000D02*
X65500000Y-82420000D01*
D13*
%TO.C,J10*%
X14727000Y-66093000D02*
X473001Y-66093000D01*
X473001Y-66093000D02*
X473001Y-88647001D01*
X14727000Y-88647001D02*
X14727000Y-66093000D01*
X473001Y-88647001D02*
X14727000Y-88647001D01*
D14*
X9981000Y-64315000D02*
G75*
G03*
X9981000Y-64315000I-381000J0D01*
G01*
D13*
%TO.C,J6*%
X11437900Y-95353001D02*
X11437900Y-109607000D01*
X11437900Y-109607000D02*
X23991901Y-109607000D01*
X23991901Y-95353001D02*
X11437900Y-95353001D01*
X23991901Y-109607000D02*
X23991901Y-95353001D01*
D14*
X10040900Y-100480001D02*
G75*
G03*
X10040900Y-100480001I-381000J0D01*
G01*
D13*
%TO.C,J2*%
X99567000Y-14637000D02*
X99567000Y-383001D01*
X99567000Y-383001D02*
X77012999Y-383001D01*
X77012999Y-14637000D02*
X99567000Y-14637000D01*
X77012999Y-383001D02*
X77012999Y-14637000D01*
D14*
X101726000Y-9510000D02*
G75*
G03*
X101726000Y-9510000I-381000J0D01*
G01*
D13*
%TO.C,J14*%
X14727000Y-24863000D02*
X473001Y-24863000D01*
X473001Y-24863000D02*
X473001Y-37417001D01*
X14727000Y-37417001D02*
X14727000Y-24863000D01*
X473001Y-37417001D02*
X14727000Y-37417001D01*
D14*
X9981000Y-23085000D02*
G75*
G03*
X9981000Y-23085000I-381000J0D01*
G01*
D15*
%TO.C,C2*%
X45720000Y-75160000D02*
X45720000Y-75120000D01*
X44050000Y-75120000D02*
X47390000Y-75120000D01*
X47390000Y-75120000D02*
X47390000Y-69780000D01*
X44050000Y-69780000D02*
X44050000Y-75120000D01*
X47390000Y-69780000D02*
X44050000Y-69780000D01*
X45720000Y-69740000D02*
X45720000Y-69780000D01*
%TO.C,L1*%
X39507332Y-88850000D02*
G75*
G03*
X39507332Y-86410000I3672668J1220000D01*
G01*
%TO.C,U3*%
X35520000Y-78010000D02*
X35520000Y-82651000D01*
X35520000Y-78010000D02*
X45760000Y-78010000D01*
X35520000Y-79520000D02*
X45760000Y-79520000D01*
X35520000Y-82651000D02*
X45760000Y-82651000D01*
X38790000Y-78010000D02*
X38790000Y-79520000D01*
X42491000Y-78010000D02*
X42491000Y-79520000D01*
X45760000Y-78010000D02*
X45760000Y-82651000D01*
%TO.C,R3*%
X26900000Y-50070000D02*
X26130000Y-50070000D01*
X26130000Y-51440000D02*
X26130000Y-48700000D01*
X26130000Y-48700000D02*
X19590000Y-48700000D01*
X19590000Y-51440000D02*
X26130000Y-51440000D01*
X19590000Y-48700000D02*
X19590000Y-51440000D01*
X18820000Y-50070000D02*
X19590000Y-50070000D01*
D13*
%TO.C,J1*%
X75547900Y-95353001D02*
X75547900Y-109607000D01*
X75547900Y-109607000D02*
X88101901Y-109607000D01*
X88101901Y-95353001D02*
X75547900Y-95353001D01*
X88101901Y-109607000D02*
X88101901Y-95353001D01*
D14*
X74150900Y-100480001D02*
G75*
G03*
X74150900Y-100480001I-381000J0D01*
G01*
D15*
%TO.C,C3*%
X33020000Y-90400000D02*
X33020000Y-90360000D01*
X31350000Y-90360000D02*
X34690000Y-90360000D01*
X34690000Y-90360000D02*
X34690000Y-85020000D01*
X31350000Y-85020000D02*
X31350000Y-90360000D01*
X34690000Y-85020000D02*
X31350000Y-85020000D01*
X33020000Y-84980000D02*
X33020000Y-85020000D01*
D13*
%TO.C,J8*%
X85293001Y-51516999D02*
X99547000Y-51516999D01*
X99547000Y-51516999D02*
X99547000Y-46182999D01*
X85293001Y-46182999D02*
X85293001Y-51516999D01*
X99547000Y-46182999D02*
X85293001Y-46182999D01*
D14*
X89801000Y-53294999D02*
G75*
G03*
X89801000Y-53294999I-381000J0D01*
G01*
D13*
%TO.C,J3*%
X49907900Y-95353001D02*
X49907900Y-109607000D01*
X49907900Y-109607000D02*
X62461901Y-109607000D01*
X62461901Y-95353001D02*
X49907900Y-95353001D01*
X62461901Y-109607000D02*
X62461901Y-95353001D01*
D14*
X48510900Y-100480001D02*
G75*
G03*
X48510900Y-100480001I-381000J0D01*
G01*
D15*
%TO.C,C1*%
X41904775Y-75135000D02*
X41404775Y-75135000D01*
X41654775Y-75385000D02*
X41654775Y-74885000D01*
X39100000Y-76240000D02*
X39100000Y-74700000D01*
X39100000Y-72620000D02*
X39100000Y-71080000D01*
X39060000Y-76240000D02*
X39060000Y-74700000D01*
X39060000Y-72620000D02*
X39060000Y-71080000D01*
X39020000Y-76239000D02*
X39020000Y-74700000D01*
X39020000Y-72620000D02*
X39020000Y-71081000D01*
X38980000Y-76238000D02*
X38980000Y-74700000D01*
X38980000Y-72620000D02*
X38980000Y-71082000D01*
X38940000Y-76236000D02*
X38940000Y-74700000D01*
X38940000Y-72620000D02*
X38940000Y-71084000D01*
X38900000Y-76233000D02*
X38900000Y-74700000D01*
X38900000Y-72620000D02*
X38900000Y-71087000D01*
X38860000Y-76229000D02*
X38860000Y-74700000D01*
X38860000Y-72620000D02*
X38860000Y-71091000D01*
X38820000Y-76225000D02*
X38820000Y-74700000D01*
X38820000Y-72620000D02*
X38820000Y-71095000D01*
X38780000Y-76221000D02*
X38780000Y-74700000D01*
X38780000Y-72620000D02*
X38780000Y-71099000D01*
X38740000Y-76216000D02*
X38740000Y-74700000D01*
X38740000Y-72620000D02*
X38740000Y-71104000D01*
X38700000Y-76210000D02*
X38700000Y-74700000D01*
X38700000Y-72620000D02*
X38700000Y-71110000D01*
X38660000Y-76203000D02*
X38660000Y-74700000D01*
X38660000Y-72620000D02*
X38660000Y-71117000D01*
X38620000Y-76196000D02*
X38620000Y-74700000D01*
X38620000Y-72620000D02*
X38620000Y-71124000D01*
X38580000Y-76188000D02*
X38580000Y-74700000D01*
X38580000Y-72620000D02*
X38580000Y-71132000D01*
X38540000Y-76180000D02*
X38540000Y-74700000D01*
X38540000Y-72620000D02*
X38540000Y-71140000D01*
X38500000Y-76171000D02*
X38500000Y-74700000D01*
X38500000Y-72620000D02*
X38500000Y-71149000D01*
X38460000Y-76161000D02*
X38460000Y-74700000D01*
X38460000Y-72620000D02*
X38460000Y-71159000D01*
X38420000Y-76151000D02*
X38420000Y-74700000D01*
X38420000Y-72620000D02*
X38420000Y-71169000D01*
X38379000Y-76140000D02*
X38379000Y-74700000D01*
X38379000Y-72620000D02*
X38379000Y-71180000D01*
X38339000Y-76128000D02*
X38339000Y-74700000D01*
X38339000Y-72620000D02*
X38339000Y-71192000D01*
X38299000Y-76115000D02*
X38299000Y-74700000D01*
X38299000Y-72620000D02*
X38299000Y-71205000D01*
X38259000Y-76102000D02*
X38259000Y-74700000D01*
X38259000Y-72620000D02*
X38259000Y-71218000D01*
X38219000Y-76088000D02*
X38219000Y-74700000D01*
X38219000Y-72620000D02*
X38219000Y-71232000D01*
X38179000Y-76074000D02*
X38179000Y-74700000D01*
X38179000Y-72620000D02*
X38179000Y-71246000D01*
X38139000Y-76058000D02*
X38139000Y-74700000D01*
X38139000Y-72620000D02*
X38139000Y-71262000D01*
X38099000Y-76042000D02*
X38099000Y-74700000D01*
X38099000Y-72620000D02*
X38099000Y-71278000D01*
X38059000Y-76025000D02*
X38059000Y-74700000D01*
X38059000Y-72620000D02*
X38059000Y-71295000D01*
X38019000Y-76008000D02*
X38019000Y-74700000D01*
X38019000Y-72620000D02*
X38019000Y-71312000D01*
X37979000Y-75989000D02*
X37979000Y-74700000D01*
X37979000Y-72620000D02*
X37979000Y-71331000D01*
X37939000Y-75970000D02*
X37939000Y-74700000D01*
X37939000Y-72620000D02*
X37939000Y-71350000D01*
X37899000Y-75950000D02*
X37899000Y-74700000D01*
X37899000Y-72620000D02*
X37899000Y-71370000D01*
X37859000Y-75928000D02*
X37859000Y-74700000D01*
X37859000Y-72620000D02*
X37859000Y-71392000D01*
X37819000Y-75907000D02*
X37819000Y-74700000D01*
X37819000Y-72620000D02*
X37819000Y-71413000D01*
X37779000Y-75884000D02*
X37779000Y-74700000D01*
X37779000Y-72620000D02*
X37779000Y-71436000D01*
X37739000Y-75860000D02*
X37739000Y-74700000D01*
X37739000Y-72620000D02*
X37739000Y-71460000D01*
X37699000Y-75835000D02*
X37699000Y-74700000D01*
X37699000Y-72620000D02*
X37699000Y-71485000D01*
X37659000Y-75809000D02*
X37659000Y-74700000D01*
X37659000Y-72620000D02*
X37659000Y-71511000D01*
X37619000Y-75782000D02*
X37619000Y-74700000D01*
X37619000Y-72620000D02*
X37619000Y-71538000D01*
X37579000Y-75755000D02*
X37579000Y-74700000D01*
X37579000Y-72620000D02*
X37579000Y-71565000D01*
X37539000Y-75725000D02*
X37539000Y-74700000D01*
X37539000Y-72620000D02*
X37539000Y-71595000D01*
X37499000Y-75695000D02*
X37499000Y-74700000D01*
X37499000Y-72620000D02*
X37499000Y-71625000D01*
X37459000Y-75664000D02*
X37459000Y-74700000D01*
X37459000Y-72620000D02*
X37459000Y-71656000D01*
X37419000Y-75631000D02*
X37419000Y-74700000D01*
X37419000Y-72620000D02*
X37419000Y-71689000D01*
X37379000Y-75597000D02*
X37379000Y-74700000D01*
X37379000Y-72620000D02*
X37379000Y-71723000D01*
X37339000Y-75561000D02*
X37339000Y-74700000D01*
X37339000Y-72620000D02*
X37339000Y-71759000D01*
X37299000Y-75524000D02*
X37299000Y-74700000D01*
X37299000Y-72620000D02*
X37299000Y-71796000D01*
X37259000Y-75486000D02*
X37259000Y-74700000D01*
X37259000Y-72620000D02*
X37259000Y-71834000D01*
X37219000Y-75445000D02*
X37219000Y-74700000D01*
X37219000Y-72620000D02*
X37219000Y-71875000D01*
X37179000Y-75403000D02*
X37179000Y-74700000D01*
X37179000Y-72620000D02*
X37179000Y-71917000D01*
X37139000Y-75359000D02*
X37139000Y-74700000D01*
X37139000Y-72620000D02*
X37139000Y-71961000D01*
X37099000Y-75313000D02*
X37099000Y-74700000D01*
X37099000Y-72620000D02*
X37099000Y-72007000D01*
X37059000Y-75265000D02*
X37059000Y-72055000D01*
X37019000Y-75214000D02*
X37019000Y-72106000D01*
X36979000Y-75160000D02*
X36979000Y-72160000D01*
X36939000Y-75103000D02*
X36939000Y-72217000D01*
X36899000Y-75043000D02*
X36899000Y-72277000D01*
X36859000Y-74979000D02*
X36859000Y-72341000D01*
X36819000Y-74911000D02*
X36819000Y-72409000D01*
X36779000Y-74838000D02*
X36779000Y-72482000D01*
X36739000Y-74758000D02*
X36739000Y-72562000D01*
X36699000Y-74671000D02*
X36699000Y-72649000D01*
X36659000Y-74575000D02*
X36659000Y-72745000D01*
X36619000Y-74465000D02*
X36619000Y-72855000D01*
X36579000Y-74337000D02*
X36579000Y-72983000D01*
X36539000Y-74178000D02*
X36539000Y-73142000D01*
X36499000Y-73944000D02*
X36499000Y-73376000D01*
X41720000Y-73660000D02*
G75*
G03*
X41720000Y-73660000I-2620000J0D01*
G01*
D13*
%TO.C,J15*%
X62717900Y-95353001D02*
X62717900Y-109607000D01*
X62717900Y-109607000D02*
X75271901Y-109607000D01*
X75271901Y-95353001D02*
X62717900Y-95353001D01*
X75271901Y-109607000D02*
X75271901Y-95353001D01*
D14*
X61320900Y-100480001D02*
G75*
G03*
X61320900Y-100480001I-381000J0D01*
G01*
D15*
%TO.C,C11*%
X29005000Y-47524775D02*
X29005000Y-47024775D01*
X28755000Y-47274775D02*
X29255000Y-47274775D01*
X27900000Y-44720000D02*
X29440000Y-44720000D01*
X31520000Y-44720000D02*
X33060000Y-44720000D01*
X27900000Y-44680000D02*
X29440000Y-44680000D01*
X31520000Y-44680000D02*
X33060000Y-44680000D01*
X27901000Y-44640000D02*
X29440000Y-44640000D01*
X31520000Y-44640000D02*
X33059000Y-44640000D01*
X27902000Y-44600000D02*
X29440000Y-44600000D01*
X31520000Y-44600000D02*
X33058000Y-44600000D01*
X27904000Y-44560000D02*
X29440000Y-44560000D01*
X31520000Y-44560000D02*
X33056000Y-44560000D01*
X27907000Y-44520000D02*
X29440000Y-44520000D01*
X31520000Y-44520000D02*
X33053000Y-44520000D01*
X27911000Y-44480000D02*
X29440000Y-44480000D01*
X31520000Y-44480000D02*
X33049000Y-44480000D01*
X27915000Y-44440000D02*
X29440000Y-44440000D01*
X31520000Y-44440000D02*
X33045000Y-44440000D01*
X27919000Y-44400000D02*
X29440000Y-44400000D01*
X31520000Y-44400000D02*
X33041000Y-44400000D01*
X27924000Y-44360000D02*
X29440000Y-44360000D01*
X31520000Y-44360000D02*
X33036000Y-44360000D01*
X27930000Y-44320000D02*
X29440000Y-44320000D01*
X31520000Y-44320000D02*
X33030000Y-44320000D01*
X27937000Y-44280000D02*
X29440000Y-44280000D01*
X31520000Y-44280000D02*
X33023000Y-44280000D01*
X27944000Y-44240000D02*
X29440000Y-44240000D01*
X31520000Y-44240000D02*
X33016000Y-44240000D01*
X27952000Y-44200000D02*
X29440000Y-44200000D01*
X31520000Y-44200000D02*
X33008000Y-44200000D01*
X27960000Y-44160000D02*
X29440000Y-44160000D01*
X31520000Y-44160000D02*
X33000000Y-44160000D01*
X27969000Y-44120000D02*
X29440000Y-44120000D01*
X31520000Y-44120000D02*
X32991000Y-44120000D01*
X27979000Y-44080000D02*
X29440000Y-44080000D01*
X31520000Y-44080000D02*
X32981000Y-44080000D01*
X27989000Y-44040000D02*
X29440000Y-44040000D01*
X31520000Y-44040000D02*
X32971000Y-44040000D01*
X28000000Y-43999000D02*
X29440000Y-43999000D01*
X31520000Y-43999000D02*
X32960000Y-43999000D01*
X28012000Y-43959000D02*
X29440000Y-43959000D01*
X31520000Y-43959000D02*
X32948000Y-43959000D01*
X28025000Y-43919000D02*
X29440000Y-43919000D01*
X31520000Y-43919000D02*
X32935000Y-43919000D01*
X28038000Y-43879000D02*
X29440000Y-43879000D01*
X31520000Y-43879000D02*
X32922000Y-43879000D01*
X28052000Y-43839000D02*
X29440000Y-43839000D01*
X31520000Y-43839000D02*
X32908000Y-43839000D01*
X28066000Y-43799000D02*
X29440000Y-43799000D01*
X31520000Y-43799000D02*
X32894000Y-43799000D01*
X28082000Y-43759000D02*
X29440000Y-43759000D01*
X31520000Y-43759000D02*
X32878000Y-43759000D01*
X28098000Y-43719000D02*
X29440000Y-43719000D01*
X31520000Y-43719000D02*
X32862000Y-43719000D01*
X28115000Y-43679000D02*
X29440000Y-43679000D01*
X31520000Y-43679000D02*
X32845000Y-43679000D01*
X28132000Y-43639000D02*
X29440000Y-43639000D01*
X31520000Y-43639000D02*
X32828000Y-43639000D01*
X28151000Y-43599000D02*
X29440000Y-43599000D01*
X31520000Y-43599000D02*
X32809000Y-43599000D01*
X28170000Y-43559000D02*
X29440000Y-43559000D01*
X31520000Y-43559000D02*
X32790000Y-43559000D01*
X28190000Y-43519000D02*
X29440000Y-43519000D01*
X31520000Y-43519000D02*
X32770000Y-43519000D01*
X28212000Y-43479000D02*
X29440000Y-43479000D01*
X31520000Y-43479000D02*
X32748000Y-43479000D01*
X28233000Y-43439000D02*
X29440000Y-43439000D01*
X31520000Y-43439000D02*
X32727000Y-43439000D01*
X28256000Y-43399000D02*
X29440000Y-43399000D01*
X31520000Y-43399000D02*
X32704000Y-43399000D01*
X28280000Y-43359000D02*
X29440000Y-43359000D01*
X31520000Y-43359000D02*
X32680000Y-43359000D01*
X28305000Y-43319000D02*
X29440000Y-43319000D01*
X31520000Y-43319000D02*
X32655000Y-43319000D01*
X28331000Y-43279000D02*
X29440000Y-43279000D01*
X31520000Y-43279000D02*
X32629000Y-43279000D01*
X28358000Y-43239000D02*
X29440000Y-43239000D01*
X31520000Y-43239000D02*
X32602000Y-43239000D01*
X28385000Y-43199000D02*
X29440000Y-43199000D01*
X31520000Y-43199000D02*
X32575000Y-43199000D01*
X28415000Y-43159000D02*
X29440000Y-43159000D01*
X31520000Y-43159000D02*
X32545000Y-43159000D01*
X28445000Y-43119000D02*
X29440000Y-43119000D01*
X31520000Y-43119000D02*
X32515000Y-43119000D01*
X28476000Y-43079000D02*
X29440000Y-43079000D01*
X31520000Y-43079000D02*
X32484000Y-43079000D01*
X28509000Y-43039000D02*
X29440000Y-43039000D01*
X31520000Y-43039000D02*
X32451000Y-43039000D01*
X28543000Y-42999000D02*
X29440000Y-42999000D01*
X31520000Y-42999000D02*
X32417000Y-42999000D01*
X28579000Y-42959000D02*
X29440000Y-42959000D01*
X31520000Y-42959000D02*
X32381000Y-42959000D01*
X28616000Y-42919000D02*
X29440000Y-42919000D01*
X31520000Y-42919000D02*
X32344000Y-42919000D01*
X28654000Y-42879000D02*
X29440000Y-42879000D01*
X31520000Y-42879000D02*
X32306000Y-42879000D01*
X28695000Y-42839000D02*
X29440000Y-42839000D01*
X31520000Y-42839000D02*
X32265000Y-42839000D01*
X28737000Y-42799000D02*
X29440000Y-42799000D01*
X31520000Y-42799000D02*
X32223000Y-42799000D01*
X28781000Y-42759000D02*
X29440000Y-42759000D01*
X31520000Y-42759000D02*
X32179000Y-42759000D01*
X28827000Y-42719000D02*
X29440000Y-42719000D01*
X31520000Y-42719000D02*
X32133000Y-42719000D01*
X28875000Y-42679000D02*
X32085000Y-42679000D01*
X28926000Y-42639000D02*
X32034000Y-42639000D01*
X28980000Y-42599000D02*
X31980000Y-42599000D01*
X29037000Y-42559000D02*
X31923000Y-42559000D01*
X29097000Y-42519000D02*
X31863000Y-42519000D01*
X29161000Y-42479000D02*
X31799000Y-42479000D01*
X29229000Y-42439000D02*
X31731000Y-42439000D01*
X29302000Y-42399000D02*
X31658000Y-42399000D01*
X29382000Y-42359000D02*
X31578000Y-42359000D01*
X29469000Y-42319000D02*
X31491000Y-42319000D01*
X29565000Y-42279000D02*
X31395000Y-42279000D01*
X29675000Y-42239000D02*
X31285000Y-42239000D01*
X29803000Y-42199000D02*
X31157000Y-42199000D01*
X29962000Y-42159000D02*
X30998000Y-42159000D01*
X30196000Y-42119000D02*
X30764000Y-42119000D01*
X33100000Y-44720000D02*
G75*
G03*
X33100000Y-44720000I-2620000J0D01*
G01*
%TO.C,R1*%
X85420000Y-82320000D02*
X85420000Y-81550000D01*
X84050000Y-81550000D02*
X86790000Y-81550000D01*
X86790000Y-81550000D02*
X86790000Y-75010000D01*
X84050000Y-75010000D02*
X84050000Y-81550000D01*
X86790000Y-75010000D02*
X84050000Y-75010000D01*
X85420000Y-74240000D02*
X85420000Y-75010000D01*
%TO.C,Q2*%
X77760000Y-85170000D02*
X77760000Y-89811000D01*
X77760000Y-85170000D02*
X88000000Y-85170000D01*
X77760000Y-86680000D02*
X88000000Y-86680000D01*
X77760000Y-89811000D02*
X88000000Y-89811000D01*
X81030000Y-85170000D02*
X81030000Y-86680000D01*
X84731000Y-85170000D02*
X84731000Y-86680000D01*
X88000000Y-85170000D02*
X88000000Y-89811000D01*
D13*
%TO.C,J4*%
X85293001Y-27482101D02*
X99547000Y-27482101D01*
X99547000Y-27482101D02*
X99547000Y-14928100D01*
X85293001Y-14928100D02*
X85293001Y-27482101D01*
X99547000Y-14928100D02*
X85293001Y-14928100D01*
D14*
X90801001Y-29260101D02*
G75*
G03*
X90801001Y-29260101I-381000J0D01*
G01*
D15*
%TO.C,C5*%
X57684775Y-81485000D02*
X57184775Y-81485000D01*
X57434775Y-81735000D02*
X57434775Y-81235000D01*
X54880000Y-82590000D02*
X54880000Y-81050000D01*
X54880000Y-78970000D02*
X54880000Y-77430000D01*
X54840000Y-82590000D02*
X54840000Y-81050000D01*
X54840000Y-78970000D02*
X54840000Y-77430000D01*
X54800000Y-82589000D02*
X54800000Y-81050000D01*
X54800000Y-78970000D02*
X54800000Y-77431000D01*
X54760000Y-82588000D02*
X54760000Y-81050000D01*
X54760000Y-78970000D02*
X54760000Y-77432000D01*
X54720000Y-82586000D02*
X54720000Y-81050000D01*
X54720000Y-78970000D02*
X54720000Y-77434000D01*
X54680000Y-82583000D02*
X54680000Y-81050000D01*
X54680000Y-78970000D02*
X54680000Y-77437000D01*
X54640000Y-82579000D02*
X54640000Y-81050000D01*
X54640000Y-78970000D02*
X54640000Y-77441000D01*
X54600000Y-82575000D02*
X54600000Y-81050000D01*
X54600000Y-78970000D02*
X54600000Y-77445000D01*
X54560000Y-82571000D02*
X54560000Y-81050000D01*
X54560000Y-78970000D02*
X54560000Y-77449000D01*
X54520000Y-82566000D02*
X54520000Y-81050000D01*
X54520000Y-78970000D02*
X54520000Y-77454000D01*
X54480000Y-82560000D02*
X54480000Y-81050000D01*
X54480000Y-78970000D02*
X54480000Y-77460000D01*
X54440000Y-82553000D02*
X54440000Y-81050000D01*
X54440000Y-78970000D02*
X54440000Y-77467000D01*
X54400000Y-82546000D02*
X54400000Y-81050000D01*
X54400000Y-78970000D02*
X54400000Y-77474000D01*
X54360000Y-82538000D02*
X54360000Y-81050000D01*
X54360000Y-78970000D02*
X54360000Y-77482000D01*
X54320000Y-82530000D02*
X54320000Y-81050000D01*
X54320000Y-78970000D02*
X54320000Y-77490000D01*
X54280000Y-82521000D02*
X54280000Y-81050000D01*
X54280000Y-78970000D02*
X54280000Y-77499000D01*
X54240000Y-82511000D02*
X54240000Y-81050000D01*
X54240000Y-78970000D02*
X54240000Y-77509000D01*
X54200000Y-82501000D02*
X54200000Y-81050000D01*
X54200000Y-78970000D02*
X54200000Y-77519000D01*
X54159000Y-82490000D02*
X54159000Y-81050000D01*
X54159000Y-78970000D02*
X54159000Y-77530000D01*
X54119000Y-82478000D02*
X54119000Y-81050000D01*
X54119000Y-78970000D02*
X54119000Y-77542000D01*
X54079000Y-82465000D02*
X54079000Y-81050000D01*
X54079000Y-78970000D02*
X54079000Y-77555000D01*
X54039000Y-82452000D02*
X54039000Y-81050000D01*
X54039000Y-78970000D02*
X54039000Y-77568000D01*
X53999000Y-82438000D02*
X53999000Y-81050000D01*
X53999000Y-78970000D02*
X53999000Y-77582000D01*
X53959000Y-82424000D02*
X53959000Y-81050000D01*
X53959000Y-78970000D02*
X53959000Y-77596000D01*
X53919000Y-82408000D02*
X53919000Y-81050000D01*
X53919000Y-78970000D02*
X53919000Y-77612000D01*
X53879000Y-82392000D02*
X53879000Y-81050000D01*
X53879000Y-78970000D02*
X53879000Y-77628000D01*
X53839000Y-82375000D02*
X53839000Y-81050000D01*
X53839000Y-78970000D02*
X53839000Y-77645000D01*
X53799000Y-82358000D02*
X53799000Y-81050000D01*
X53799000Y-78970000D02*
X53799000Y-77662000D01*
X53759000Y-82339000D02*
X53759000Y-81050000D01*
X53759000Y-78970000D02*
X53759000Y-77681000D01*
X53719000Y-82320000D02*
X53719000Y-81050000D01*
X53719000Y-78970000D02*
X53719000Y-77700000D01*
X53679000Y-82300000D02*
X53679000Y-81050000D01*
X53679000Y-78970000D02*
X53679000Y-77720000D01*
X53639000Y-82278000D02*
X53639000Y-81050000D01*
X53639000Y-78970000D02*
X53639000Y-77742000D01*
X53599000Y-82257000D02*
X53599000Y-81050000D01*
X53599000Y-78970000D02*
X53599000Y-77763000D01*
X53559000Y-82234000D02*
X53559000Y-81050000D01*
X53559000Y-78970000D02*
X53559000Y-77786000D01*
X53519000Y-82210000D02*
X53519000Y-81050000D01*
X53519000Y-78970000D02*
X53519000Y-77810000D01*
X53479000Y-82185000D02*
X53479000Y-81050000D01*
X53479000Y-78970000D02*
X53479000Y-77835000D01*
X53439000Y-82159000D02*
X53439000Y-81050000D01*
X53439000Y-78970000D02*
X53439000Y-77861000D01*
X53399000Y-82132000D02*
X53399000Y-81050000D01*
X53399000Y-78970000D02*
X53399000Y-77888000D01*
X53359000Y-82105000D02*
X53359000Y-81050000D01*
X53359000Y-78970000D02*
X53359000Y-77915000D01*
X53319000Y-82075000D02*
X53319000Y-81050000D01*
X53319000Y-78970000D02*
X53319000Y-77945000D01*
X53279000Y-82045000D02*
X53279000Y-81050000D01*
X53279000Y-78970000D02*
X53279000Y-77975000D01*
X53239000Y-82014000D02*
X53239000Y-81050000D01*
X53239000Y-78970000D02*
X53239000Y-78006000D01*
X53199000Y-81981000D02*
X53199000Y-81050000D01*
X53199000Y-78970000D02*
X53199000Y-78039000D01*
X53159000Y-81947000D02*
X53159000Y-81050000D01*
X53159000Y-78970000D02*
X53159000Y-78073000D01*
X53119000Y-81911000D02*
X53119000Y-81050000D01*
X53119000Y-78970000D02*
X53119000Y-78109000D01*
X53079000Y-81874000D02*
X53079000Y-81050000D01*
X53079000Y-78970000D02*
X53079000Y-78146000D01*
X53039000Y-81836000D02*
X53039000Y-81050000D01*
X53039000Y-78970000D02*
X53039000Y-78184000D01*
X52999000Y-81795000D02*
X52999000Y-81050000D01*
X52999000Y-78970000D02*
X52999000Y-78225000D01*
X52959000Y-81753000D02*
X52959000Y-81050000D01*
X52959000Y-78970000D02*
X52959000Y-78267000D01*
X52919000Y-81709000D02*
X52919000Y-81050000D01*
X52919000Y-78970000D02*
X52919000Y-78311000D01*
X52879000Y-81663000D02*
X52879000Y-81050000D01*
X52879000Y-78970000D02*
X52879000Y-78357000D01*
X52839000Y-81615000D02*
X52839000Y-78405000D01*
X52799000Y-81564000D02*
X52799000Y-78456000D01*
X52759000Y-81510000D02*
X52759000Y-78510000D01*
X52719000Y-81453000D02*
X52719000Y-78567000D01*
X52679000Y-81393000D02*
X52679000Y-78627000D01*
X52639000Y-81329000D02*
X52639000Y-78691000D01*
X52599000Y-81261000D02*
X52599000Y-78759000D01*
X52559000Y-81188000D02*
X52559000Y-78832000D01*
X52519000Y-81108000D02*
X52519000Y-78912000D01*
X52479000Y-81021000D02*
X52479000Y-78999000D01*
X52439000Y-80925000D02*
X52439000Y-79095000D01*
X52399000Y-80815000D02*
X52399000Y-79205000D01*
X52359000Y-80687000D02*
X52359000Y-79333000D01*
X52319000Y-80528000D02*
X52319000Y-79492000D01*
X52279000Y-80294000D02*
X52279000Y-79726000D01*
X57500000Y-80010000D02*
G75*
G03*
X57500000Y-80010000I-2620000J0D01*
G01*
%TO.C,C8*%
X22854775Y-14175000D02*
X22354775Y-14175000D01*
X22604775Y-14425000D02*
X22604775Y-13925000D01*
X20050000Y-15280000D02*
X20050000Y-13740000D01*
X20050000Y-11660000D02*
X20050000Y-10120000D01*
X20010000Y-15280000D02*
X20010000Y-13740000D01*
X20010000Y-11660000D02*
X20010000Y-10120000D01*
X19970000Y-15279000D02*
X19970000Y-13740000D01*
X19970000Y-11660000D02*
X19970000Y-10121000D01*
X19930000Y-15278000D02*
X19930000Y-13740000D01*
X19930000Y-11660000D02*
X19930000Y-10122000D01*
X19890000Y-15276000D02*
X19890000Y-13740000D01*
X19890000Y-11660000D02*
X19890000Y-10124000D01*
X19850000Y-15273000D02*
X19850000Y-13740000D01*
X19850000Y-11660000D02*
X19850000Y-10127000D01*
X19810000Y-15269000D02*
X19810000Y-13740000D01*
X19810000Y-11660000D02*
X19810000Y-10131000D01*
X19770000Y-15265000D02*
X19770000Y-13740000D01*
X19770000Y-11660000D02*
X19770000Y-10135000D01*
X19730000Y-15261000D02*
X19730000Y-13740000D01*
X19730000Y-11660000D02*
X19730000Y-10139000D01*
X19690000Y-15256000D02*
X19690000Y-13740000D01*
X19690000Y-11660000D02*
X19690000Y-10144000D01*
X19650000Y-15250000D02*
X19650000Y-13740000D01*
X19650000Y-11660000D02*
X19650000Y-10150000D01*
X19610000Y-15243000D02*
X19610000Y-13740000D01*
X19610000Y-11660000D02*
X19610000Y-10157000D01*
X19570000Y-15236000D02*
X19570000Y-13740000D01*
X19570000Y-11660000D02*
X19570000Y-10164000D01*
X19530000Y-15228000D02*
X19530000Y-13740000D01*
X19530000Y-11660000D02*
X19530000Y-10172000D01*
X19490000Y-15220000D02*
X19490000Y-13740000D01*
X19490000Y-11660000D02*
X19490000Y-10180000D01*
X19450000Y-15211000D02*
X19450000Y-13740000D01*
X19450000Y-11660000D02*
X19450000Y-10189000D01*
X19410000Y-15201000D02*
X19410000Y-13740000D01*
X19410000Y-11660000D02*
X19410000Y-10199000D01*
X19370000Y-15191000D02*
X19370000Y-13740000D01*
X19370000Y-11660000D02*
X19370000Y-10209000D01*
X19329000Y-15180000D02*
X19329000Y-13740000D01*
X19329000Y-11660000D02*
X19329000Y-10220000D01*
X19289000Y-15168000D02*
X19289000Y-13740000D01*
X19289000Y-11660000D02*
X19289000Y-10232000D01*
X19249000Y-15155000D02*
X19249000Y-13740000D01*
X19249000Y-11660000D02*
X19249000Y-10245000D01*
X19209000Y-15142000D02*
X19209000Y-13740000D01*
X19209000Y-11660000D02*
X19209000Y-10258000D01*
X19169000Y-15128000D02*
X19169000Y-13740000D01*
X19169000Y-11660000D02*
X19169000Y-10272000D01*
X19129000Y-15114000D02*
X19129000Y-13740000D01*
X19129000Y-11660000D02*
X19129000Y-10286000D01*
X19089000Y-15098000D02*
X19089000Y-13740000D01*
X19089000Y-11660000D02*
X19089000Y-10302000D01*
X19049000Y-15082000D02*
X19049000Y-13740000D01*
X19049000Y-11660000D02*
X19049000Y-10318000D01*
X19009000Y-15065000D02*
X19009000Y-13740000D01*
X19009000Y-11660000D02*
X19009000Y-10335000D01*
X18969000Y-15048000D02*
X18969000Y-13740000D01*
X18969000Y-11660000D02*
X18969000Y-10352000D01*
X18929000Y-15029000D02*
X18929000Y-13740000D01*
X18929000Y-11660000D02*
X18929000Y-10371000D01*
X18889000Y-15010000D02*
X18889000Y-13740000D01*
X18889000Y-11660000D02*
X18889000Y-10390000D01*
X18849000Y-14990000D02*
X18849000Y-13740000D01*
X18849000Y-11660000D02*
X18849000Y-10410000D01*
X18809000Y-14968000D02*
X18809000Y-13740000D01*
X18809000Y-11660000D02*
X18809000Y-10432000D01*
X18769000Y-14947000D02*
X18769000Y-13740000D01*
X18769000Y-11660000D02*
X18769000Y-10453000D01*
X18729000Y-14924000D02*
X18729000Y-13740000D01*
X18729000Y-11660000D02*
X18729000Y-10476000D01*
X18689000Y-14900000D02*
X18689000Y-13740000D01*
X18689000Y-11660000D02*
X18689000Y-10500000D01*
X18649000Y-14875000D02*
X18649000Y-13740000D01*
X18649000Y-11660000D02*
X18649000Y-10525000D01*
X18609000Y-14849000D02*
X18609000Y-13740000D01*
X18609000Y-11660000D02*
X18609000Y-10551000D01*
X18569000Y-14822000D02*
X18569000Y-13740000D01*
X18569000Y-11660000D02*
X18569000Y-10578000D01*
X18529000Y-14795000D02*
X18529000Y-13740000D01*
X18529000Y-11660000D02*
X18529000Y-10605000D01*
X18489000Y-14765000D02*
X18489000Y-13740000D01*
X18489000Y-11660000D02*
X18489000Y-10635000D01*
X18449000Y-14735000D02*
X18449000Y-13740000D01*
X18449000Y-11660000D02*
X18449000Y-10665000D01*
X18409000Y-14704000D02*
X18409000Y-13740000D01*
X18409000Y-11660000D02*
X18409000Y-10696000D01*
X18369000Y-14671000D02*
X18369000Y-13740000D01*
X18369000Y-11660000D02*
X18369000Y-10729000D01*
X18329000Y-14637000D02*
X18329000Y-13740000D01*
X18329000Y-11660000D02*
X18329000Y-10763000D01*
X18289000Y-14601000D02*
X18289000Y-13740000D01*
X18289000Y-11660000D02*
X18289000Y-10799000D01*
X18249000Y-14564000D02*
X18249000Y-13740000D01*
X18249000Y-11660000D02*
X18249000Y-10836000D01*
X18209000Y-14526000D02*
X18209000Y-13740000D01*
X18209000Y-11660000D02*
X18209000Y-10874000D01*
X18169000Y-14485000D02*
X18169000Y-13740000D01*
X18169000Y-11660000D02*
X18169000Y-10915000D01*
X18129000Y-14443000D02*
X18129000Y-13740000D01*
X18129000Y-11660000D02*
X18129000Y-10957000D01*
X18089000Y-14399000D02*
X18089000Y-13740000D01*
X18089000Y-11660000D02*
X18089000Y-11001000D01*
X18049000Y-14353000D02*
X18049000Y-13740000D01*
X18049000Y-11660000D02*
X18049000Y-11047000D01*
X18009000Y-14305000D02*
X18009000Y-11095000D01*
X17969000Y-14254000D02*
X17969000Y-11146000D01*
X17929000Y-14200000D02*
X17929000Y-11200000D01*
X17889000Y-14143000D02*
X17889000Y-11257000D01*
X17849000Y-14083000D02*
X17849000Y-11317000D01*
X17809000Y-14019000D02*
X17809000Y-11381000D01*
X17769000Y-13951000D02*
X17769000Y-11449000D01*
X17729000Y-13878000D02*
X17729000Y-11522000D01*
X17689000Y-13798000D02*
X17689000Y-11602000D01*
X17649000Y-13711000D02*
X17649000Y-11689000D01*
X17609000Y-13615000D02*
X17609000Y-11785000D01*
X17569000Y-13505000D02*
X17569000Y-11895000D01*
X17529000Y-13377000D02*
X17529000Y-12023000D01*
X17489000Y-13218000D02*
X17489000Y-12182000D01*
X17449000Y-12984000D02*
X17449000Y-12416000D01*
X22670000Y-12700000D02*
G75*
G03*
X22670000Y-12700000I-2620000J0D01*
G01*
%TO.C,C7*%
X80340000Y-82320000D02*
X80340000Y-82280000D01*
X78670000Y-82280000D02*
X82010000Y-82280000D01*
X82010000Y-82280000D02*
X82010000Y-76940000D01*
X78670000Y-76940000D02*
X78670000Y-82280000D01*
X82010000Y-76940000D02*
X78670000Y-76940000D01*
X80340000Y-76900000D02*
X80340000Y-76940000D01*
D13*
%TO.C,J12*%
X14727000Y-37683000D02*
X473001Y-37683000D01*
X473001Y-37683000D02*
X473001Y-43017000D01*
X14727000Y-43017000D02*
X14727000Y-37683000D01*
X473001Y-43017000D02*
X14727000Y-43017000D01*
D14*
X10981001Y-35905000D02*
G75*
G03*
X10981001Y-35905000I-381000J0D01*
G01*
D16*
%TO.C,X1*%
X94300000Y-96010000D02*
X98740000Y-96010000D01*
X98740000Y-96010000D02*
X98740000Y-76710000D01*
X94300000Y-95593000D02*
X94300000Y-96010000D01*
X94300000Y-76710000D02*
X94300000Y-77127000D01*
X98740000Y-76710000D02*
X94300000Y-76710000D01*
%TO.C,U12*%
X66985000Y-7655000D02*
X66985000Y-14005000D01*
X47435000Y-7655000D02*
X47435000Y-14005000D01*
D10*
X66200000Y-5795000D02*
G75*
G03*
X66200000Y-5795000I-100000J0D01*
G01*
D13*
%TO.C,J5*%
X85293001Y-33076999D02*
X99547000Y-33076999D01*
X99547000Y-33076999D02*
X99547000Y-27742999D01*
X85293001Y-27742999D02*
X85293001Y-33076999D01*
X99547000Y-27742999D02*
X85293001Y-27742999D01*
D14*
X89801000Y-34854999D02*
G75*
G03*
X89801000Y-34854999I-381000J0D01*
G01*
D13*
%TO.C,J13*%
X14727000Y-12043000D02*
X473001Y-12043000D01*
X473001Y-12043000D02*
X473001Y-24597001D01*
X14727000Y-24597001D02*
X14727000Y-12043000D01*
X473001Y-24597001D02*
X14727000Y-24597001D01*
D14*
X9981000Y-10265000D02*
G75*
G03*
X9981000Y-10265000I-381000J0D01*
G01*
D13*
%TO.C,IC2*%
X81821000Y-47030000D02*
X79916000Y-47030000D01*
X75979000Y-47030000D02*
X77884000Y-47030000D01*
X81821000Y-57190000D02*
X75979000Y-57190000D01*
X77884000Y-47030000D02*
G75*
G03*
X79916000Y-47030000I1016000J0D01*
G01*
%TO.C,J18*%
X37077900Y-95353001D02*
X37077900Y-109607000D01*
X37077900Y-109607000D02*
X49631901Y-109607000D01*
X49631901Y-95353001D02*
X37077900Y-95353001D01*
X49631901Y-109607000D02*
X49631901Y-95353001D01*
D14*
X35680900Y-100480001D02*
G75*
G03*
X35680900Y-100480001I-381000J0D01*
G01*
D15*
%TO.C,R2*%
X26900000Y-70390000D02*
X26130000Y-70390000D01*
X26130000Y-71760000D02*
X26130000Y-69020000D01*
X26130000Y-69020000D02*
X19590000Y-69020000D01*
X19590000Y-71760000D02*
X26130000Y-71760000D01*
X19590000Y-69020000D02*
X19590000Y-71760000D01*
X18820000Y-70390000D02*
X19590000Y-70390000D01*
%TO.C,C10*%
X29005000Y-67844775D02*
X29005000Y-67344775D01*
X28755000Y-67594775D02*
X29255000Y-67594775D01*
X27900000Y-65040000D02*
X29440000Y-65040000D01*
X31520000Y-65040000D02*
X33060000Y-65040000D01*
X27900000Y-65000000D02*
X29440000Y-65000000D01*
X31520000Y-65000000D02*
X33060000Y-65000000D01*
X27901000Y-64960000D02*
X29440000Y-64960000D01*
X31520000Y-64960000D02*
X33059000Y-64960000D01*
X27902000Y-64920000D02*
X29440000Y-64920000D01*
X31520000Y-64920000D02*
X33058000Y-64920000D01*
X27904000Y-64880000D02*
X29440000Y-64880000D01*
X31520000Y-64880000D02*
X33056000Y-64880000D01*
X27907000Y-64840000D02*
X29440000Y-64840000D01*
X31520000Y-64840000D02*
X33053000Y-64840000D01*
X27911000Y-64800000D02*
X29440000Y-64800000D01*
X31520000Y-64800000D02*
X33049000Y-64800000D01*
X27915000Y-64760000D02*
X29440000Y-64760000D01*
X31520000Y-64760000D02*
X33045000Y-64760000D01*
X27919000Y-64720000D02*
X29440000Y-64720000D01*
X31520000Y-64720000D02*
X33041000Y-64720000D01*
X27924000Y-64680000D02*
X29440000Y-64680000D01*
X31520000Y-64680000D02*
X33036000Y-64680000D01*
X27930000Y-64640000D02*
X29440000Y-64640000D01*
X31520000Y-64640000D02*
X33030000Y-64640000D01*
X27937000Y-64600000D02*
X29440000Y-64600000D01*
X31520000Y-64600000D02*
X33023000Y-64600000D01*
X27944000Y-64560000D02*
X29440000Y-64560000D01*
X31520000Y-64560000D02*
X33016000Y-64560000D01*
X27952000Y-64520000D02*
X29440000Y-64520000D01*
X31520000Y-64520000D02*
X33008000Y-64520000D01*
X27960000Y-64480000D02*
X29440000Y-64480000D01*
X31520000Y-64480000D02*
X33000000Y-64480000D01*
X27969000Y-64440000D02*
X29440000Y-64440000D01*
X31520000Y-64440000D02*
X32991000Y-64440000D01*
X27979000Y-64400000D02*
X29440000Y-64400000D01*
X31520000Y-64400000D02*
X32981000Y-64400000D01*
X27989000Y-64360000D02*
X29440000Y-64360000D01*
X31520000Y-64360000D02*
X32971000Y-64360000D01*
X28000000Y-64319000D02*
X29440000Y-64319000D01*
X31520000Y-64319000D02*
X32960000Y-64319000D01*
X28012000Y-64279000D02*
X29440000Y-64279000D01*
X31520000Y-64279000D02*
X32948000Y-64279000D01*
X28025000Y-64239000D02*
X29440000Y-64239000D01*
X31520000Y-64239000D02*
X32935000Y-64239000D01*
X28038000Y-64199000D02*
X29440000Y-64199000D01*
X31520000Y-64199000D02*
X32922000Y-64199000D01*
X28052000Y-64159000D02*
X29440000Y-64159000D01*
X31520000Y-64159000D02*
X32908000Y-64159000D01*
X28066000Y-64119000D02*
X29440000Y-64119000D01*
X31520000Y-64119000D02*
X32894000Y-64119000D01*
X28082000Y-64079000D02*
X29440000Y-64079000D01*
X31520000Y-64079000D02*
X32878000Y-64079000D01*
X28098000Y-64039000D02*
X29440000Y-64039000D01*
X31520000Y-64039000D02*
X32862000Y-64039000D01*
X28115000Y-63999000D02*
X29440000Y-63999000D01*
X31520000Y-63999000D02*
X32845000Y-63999000D01*
X28132000Y-63959000D02*
X29440000Y-63959000D01*
X31520000Y-63959000D02*
X32828000Y-63959000D01*
X28151000Y-63919000D02*
X29440000Y-63919000D01*
X31520000Y-63919000D02*
X32809000Y-63919000D01*
X28170000Y-63879000D02*
X29440000Y-63879000D01*
X31520000Y-63879000D02*
X32790000Y-63879000D01*
X28190000Y-63839000D02*
X29440000Y-63839000D01*
X31520000Y-63839000D02*
X32770000Y-63839000D01*
X28212000Y-63799000D02*
X29440000Y-63799000D01*
X31520000Y-63799000D02*
X32748000Y-63799000D01*
X28233000Y-63759000D02*
X29440000Y-63759000D01*
X31520000Y-63759000D02*
X32727000Y-63759000D01*
X28256000Y-63719000D02*
X29440000Y-63719000D01*
X31520000Y-63719000D02*
X32704000Y-63719000D01*
X28280000Y-63679000D02*
X29440000Y-63679000D01*
X31520000Y-63679000D02*
X32680000Y-63679000D01*
X28305000Y-63639000D02*
X29440000Y-63639000D01*
X31520000Y-63639000D02*
X32655000Y-63639000D01*
X28331000Y-63599000D02*
X29440000Y-63599000D01*
X31520000Y-63599000D02*
X32629000Y-63599000D01*
X28358000Y-63559000D02*
X29440000Y-63559000D01*
X31520000Y-63559000D02*
X32602000Y-63559000D01*
X28385000Y-63519000D02*
X29440000Y-63519000D01*
X31520000Y-63519000D02*
X32575000Y-63519000D01*
X28415000Y-63479000D02*
X29440000Y-63479000D01*
X31520000Y-63479000D02*
X32545000Y-63479000D01*
X28445000Y-63439000D02*
X29440000Y-63439000D01*
X31520000Y-63439000D02*
X32515000Y-63439000D01*
X28476000Y-63399000D02*
X29440000Y-63399000D01*
X31520000Y-63399000D02*
X32484000Y-63399000D01*
X28509000Y-63359000D02*
X29440000Y-63359000D01*
X31520000Y-63359000D02*
X32451000Y-63359000D01*
X28543000Y-63319000D02*
X29440000Y-63319000D01*
X31520000Y-63319000D02*
X32417000Y-63319000D01*
X28579000Y-63279000D02*
X29440000Y-63279000D01*
X31520000Y-63279000D02*
X32381000Y-63279000D01*
X28616000Y-63239000D02*
X29440000Y-63239000D01*
X31520000Y-63239000D02*
X32344000Y-63239000D01*
X28654000Y-63199000D02*
X29440000Y-63199000D01*
X31520000Y-63199000D02*
X32306000Y-63199000D01*
X28695000Y-63159000D02*
X29440000Y-63159000D01*
X31520000Y-63159000D02*
X32265000Y-63159000D01*
X28737000Y-63119000D02*
X29440000Y-63119000D01*
X31520000Y-63119000D02*
X32223000Y-63119000D01*
X28781000Y-63079000D02*
X29440000Y-63079000D01*
X31520000Y-63079000D02*
X32179000Y-63079000D01*
X28827000Y-63039000D02*
X29440000Y-63039000D01*
X31520000Y-63039000D02*
X32133000Y-63039000D01*
X28875000Y-62999000D02*
X32085000Y-62999000D01*
X28926000Y-62959000D02*
X32034000Y-62959000D01*
X28980000Y-62919000D02*
X31980000Y-62919000D01*
X29037000Y-62879000D02*
X31923000Y-62879000D01*
X29097000Y-62839000D02*
X31863000Y-62839000D01*
X29161000Y-62799000D02*
X31799000Y-62799000D01*
X29229000Y-62759000D02*
X31731000Y-62759000D01*
X29302000Y-62719000D02*
X31658000Y-62719000D01*
X29382000Y-62679000D02*
X31578000Y-62679000D01*
X29469000Y-62639000D02*
X31491000Y-62639000D01*
X29565000Y-62599000D02*
X31395000Y-62599000D01*
X29675000Y-62559000D02*
X31285000Y-62559000D01*
X29803000Y-62519000D02*
X31157000Y-62519000D01*
X29962000Y-62479000D02*
X30998000Y-62479000D01*
X30196000Y-62439000D02*
X30764000Y-62439000D01*
X33100000Y-65040000D02*
G75*
G03*
X33100000Y-65040000I-2620000J0D01*
G01*
%TO.C,U1*%
X26340000Y-1165000D02*
X26340000Y-1165000D01*
X26340000Y-1165000D02*
X67540000Y-1165000D01*
X26340000Y-16615000D02*
X26340000Y-1165000D01*
X26670000Y-1741000D02*
X26670000Y-1741000D01*
X26670000Y-1741000D02*
X32004000Y-1741000D01*
X26670000Y-12409000D02*
X26670000Y-1741000D01*
X26670000Y-12409000D02*
X26670000Y-12409000D01*
X26924000Y-4535000D02*
X26924000Y-4535000D01*
X29210000Y-2249000D02*
X29210000Y-4535000D01*
X29210000Y-4535000D02*
X26924000Y-4535000D01*
X32004000Y-1741000D02*
X32004000Y-12409000D01*
X32004000Y-12409000D02*
X26670000Y-12409000D01*
X67540000Y-1165000D02*
X67540000Y-16615000D01*
X67540000Y-16615000D02*
X26340000Y-16615000D01*
%TO.C,R4*%
X26900000Y-60230000D02*
X26130000Y-60230000D01*
X26130000Y-61600000D02*
X26130000Y-58860000D01*
X26130000Y-58860000D02*
X19590000Y-58860000D01*
X19590000Y-61600000D02*
X26130000Y-61600000D01*
X19590000Y-58860000D02*
X19590000Y-61600000D01*
X18820000Y-60230000D02*
X19590000Y-60230000D01*
%TD*%
M02*
