%TF.GenerationSoftware,KiCad,Pcbnew,7.0.9*%
%TF.CreationDate,2024-01-03T00:41:17+02:00*%
%TF.ProjectId,PCB,5043422e-6b69-4636-9164-5f7063625858,rev?*%
%TF.SameCoordinates,Original*%
%TF.FileFunction,Copper,L1,Top*%
%TF.FilePolarity,Positive*%
%FSLAX46Y46*%
G04 Gerber Fmt 4.6, Leading zero omitted, Abs format (unit mm)*
G04 Created by KiCad (PCBNEW 7.0.9) date 2024-01-03 00:41:17*
%MOMM*%
%LPD*%
G01*
G04 APERTURE LIST*
%TA.AperFunction,ComponentPad*%
%ADD10C,1.625600*%
%TD*%
%TA.AperFunction,ComponentPad*%
%ADD11C,1.600000*%
%TD*%
%TA.AperFunction,ComponentPad*%
%ADD12O,1.600000X1.600000*%
%TD*%
%TA.AperFunction,ComponentPad*%
%ADD13O,1.700000X1.700000*%
%TD*%
%TA.AperFunction,ComponentPad*%
%ADD14R,1.700000X1.700000*%
%TD*%
%TA.AperFunction,ComponentPad*%
%ADD15C,1.700000*%
%TD*%
%TA.AperFunction,ComponentPad*%
%ADD16R,1.600000X1.600000*%
%TD*%
%TA.AperFunction,Conductor*%
%ADD17C,0.250000*%
%TD*%
G04 APERTURE END LIST*
D10*
%TO.P,J1,1,1*%
%TO.N,WEAPON*%
X222790000Y-143810000D03*
%TO.P,J1,2,2*%
%TO.N,GND*%
X227790000Y-143810000D03*
%TD*%
%TO.P,J4,1,1*%
%TO.N,+3.3V*%
X158730000Y-143810000D03*
%TO.P,J4,2,2*%
%TO.N,LEFT*%
X163730000Y-143810000D03*
%TD*%
D11*
%TO.P,C1,1*%
%TO.N,+3.3V*%
X163990000Y-86120000D03*
D12*
%TO.P,C1,2*%
%TO.N,GND*%
X156490000Y-86120000D03*
%TD*%
D10*
%TO.P,J5,1,1*%
%TO.N,GND*%
X171545100Y-143810000D03*
%TO.P,J5,2,2*%
%TO.N,+3.3V*%
X176545100Y-143810000D03*
%TD*%
%TO.P,J2,1,1*%
%TO.N,HAND_UP*%
X209980000Y-143810000D03*
%TO.P,J2,2,2*%
%TO.N,GND*%
X214980000Y-143810000D03*
%TD*%
D13*
%TO.P,U1,1,VBAT*%
%TO.N,unconnected-(U1-VBAT-Pad1)*%
X169790000Y-125610000D03*
%TO.P,U1,2,PC13*%
%TO.N,unconnected-(U1-PC13-Pad2)*%
X172330000Y-125610000D03*
%TO.P,U1,3,PC14*%
%TO.N,unconnected-(U1-PC14-Pad3)*%
X174870000Y-125610000D03*
%TO.P,U1,3v,3V3*%
%TO.N,+3.3V*%
X169790000Y-111035000D03*
X212970000Y-125610000D03*
%TO.P,U1,4,PC15*%
%TO.N,unconnected-(U1-PC15-Pad4)*%
X177410000Y-125610000D03*
%TO.P,U1,5v,5V*%
%TO.N,+5V*%
X174870000Y-111035000D03*
%TO.P,U1,7,NRST*%
%TO.N,unconnected-(U1-NRST-Pad7)*%
X210430000Y-125610000D03*
%TO.P,U1,10,PA0*%
%TO.N,LEFT*%
X179950000Y-125610000D03*
%TO.P,U1,11,PA1*%
%TO.N,RIGHT*%
X182490000Y-125610000D03*
%TO.P,U1,12,PA2*%
%TO.N,HAND_DOWN*%
X185030000Y-125610000D03*
%TO.P,U1,13,PA3*%
%TO.N,HAND_UP*%
X187570000Y-125610000D03*
%TO.P,U1,14,PA4*%
%TO.N,WEAPON*%
X190110000Y-125610000D03*
%TO.P,U1,15,PA5*%
%TO.N,unconnected-(U1-PA5-Pad15)*%
X192650000Y-125610000D03*
%TO.P,U1,16,PA6*%
%TO.N,unconnected-(U1-PA6-Pad16)*%
X195190000Y-125610000D03*
%TO.P,U1,17,PA7*%
%TO.N,unconnected-(U1-PA7-Pad17)*%
X197730000Y-125610000D03*
%TO.P,U1,18,PB0*%
%TO.N,unconnected-(U1-PB0-Pad18)*%
X200270000Y-125610000D03*
%TO.P,U1,19,PB1*%
%TO.N,unconnected-(U1-PB1-Pad19)*%
X202810000Y-125610000D03*
%TO.P,U1,21,PB10*%
%TO.N,unconnected-(U1-PB10-Pad21)*%
X205350000Y-125610000D03*
%TO.P,U1,22,PB11*%
%TO.N,unconnected-(U1-PB11-Pad22)*%
X207890000Y-125610000D03*
D14*
%TO.P,U1,25,PB12*%
%TO.N,unconnected-(U1-PB12-Pad25)*%
X218050000Y-111035000D03*
D13*
%TO.P,U1,26,PB13*%
%TO.N,unconnected-(U1-PB13-Pad26)*%
X215510000Y-111035000D03*
%TO.P,U1,27,PB14*%
%TO.N,unconnected-(U1-PB14-Pad27)*%
X212970000Y-111035000D03*
%TO.P,U1,28,PB15*%
%TO.N,unconnected-(U1-PB15-Pad28)*%
X210430000Y-111035000D03*
%TO.P,U1,29,PA8*%
%TO.N,unconnected-(U1-PA8-Pad29)*%
X207890000Y-111035000D03*
%TO.P,U1,30,PA9*%
%TO.N,PA9*%
X205350000Y-111035000D03*
%TO.P,U1,31,PA10*%
%TO.N,PA10*%
X202810000Y-111035000D03*
%TO.P,U1,32,PA11*%
%TO.N,unconnected-(U1-PA11-Pad32)*%
X200270000Y-111035000D03*
%TO.P,U1,33,PA12*%
%TO.N,unconnected-(U1-PA12-Pad33)*%
X197730000Y-111035000D03*
%TO.P,U1,38,PA15*%
%TO.N,PA15*%
X195190000Y-111035000D03*
%TO.P,U1,39,PB3*%
%TO.N,PB3*%
X192650000Y-111035000D03*
%TO.P,U1,40,PB4*%
%TO.N,PB4*%
X190110000Y-111035000D03*
%TO.P,U1,41,PB5*%
%TO.N,PB5*%
X187570000Y-111035000D03*
%TO.P,U1,42,PB6*%
%TO.N,unconnected-(U1-PB6-Pad42)*%
X185030000Y-111035000D03*
%TO.P,U1,43,PB7*%
%TO.N,unconnected-(U1-PB7-Pad43)*%
X182490000Y-111035000D03*
%TO.P,U1,45,PB8*%
%TO.N,unconnected-(U1-PB8-Pad45)*%
X179950000Y-111035000D03*
%TO.P,U1,46,PB9*%
%TO.N,unconnected-(U1-PB9-Pad46)*%
X177410000Y-111035000D03*
%TO.P,U1,G,GND*%
%TO.N,GND*%
X172330000Y-111035000D03*
D14*
X218050000Y-125610000D03*
D13*
X215510000Y-125610000D03*
%TD*%
D14*
%TO.P,U2,1,GND*%
%TO.N,GND*%
X170000000Y-84520000D03*
D15*
%TO.P,U2,2,VCC*%
%TO.N,+3.3V*%
X172540000Y-84520000D03*
%TO.P,U2,3,CE*%
%TO.N,PA10*%
X170000000Y-87060000D03*
%TO.P,U2,4,~{CSN}*%
%TO.N,PA15*%
X172540000Y-87060000D03*
%TO.P,U2,5,SCK*%
%TO.N,PB3*%
X170000000Y-89600000D03*
%TO.P,U2,6,MOSI*%
%TO.N,PB5*%
X172540000Y-89600000D03*
%TO.P,U2,7,MISO*%
%TO.N,PB4*%
X170000000Y-92140000D03*
%TO.P,U2,8,IRQ*%
%TO.N,PA9*%
X172540000Y-92140000D03*
%TD*%
D16*
%TO.P,C2,1*%
%TO.N,+3.3V*%
X163040000Y-93020000D03*
D11*
%TO.P,C2,2*%
%TO.N,GND*%
X161040000Y-93020000D03*
%TD*%
D10*
%TO.P,J6,1,1*%
%TO.N,RIGHT*%
X184360000Y-143810000D03*
%TO.P,J6,2,2*%
%TO.N,GND*%
X189360000Y-143810000D03*
%TD*%
%TO.P,J3,1,1*%
%TO.N,HAND_DOWN*%
X197170000Y-143810000D03*
%TO.P,J3,2,2*%
%TO.N,GND*%
X202170000Y-143810000D03*
%TD*%
D17*
%TO.N,PA10*%
X194960000Y-92930000D02*
X178520000Y-92930000D01*
X178520000Y-92930000D02*
X177160000Y-91570000D01*
X202810000Y-111035000D02*
X202810000Y-100780000D01*
X177160000Y-91570000D02*
X177160000Y-87700000D01*
X202810000Y-100780000D02*
X194960000Y-92930000D01*
X177160000Y-87700000D02*
X175250000Y-85790000D01*
X171270000Y-85790000D02*
X170000000Y-87060000D01*
X175250000Y-85790000D02*
X171270000Y-85790000D01*
%TO.N,PA15*%
X189180000Y-95150000D02*
X176130000Y-95150000D01*
X176130000Y-95150000D02*
X174950000Y-93970000D01*
X195190000Y-101160000D02*
X189180000Y-95150000D01*
X174950000Y-93970000D02*
X174950000Y-88660000D01*
X195190000Y-111035000D02*
X195190000Y-101160000D01*
X174950000Y-88660000D02*
X173350000Y-87060000D01*
X173350000Y-87060000D02*
X172540000Y-87060000D01*
%TO.N,PB5*%
X187570000Y-111035000D02*
X187570000Y-101630000D01*
X171460000Y-99160000D02*
X167510000Y-95210000D01*
X187570000Y-101630000D02*
X185100000Y-99160000D01*
X185100000Y-99160000D02*
X171460000Y-99160000D01*
X169330000Y-88340000D02*
X171280000Y-88340000D01*
X167510000Y-95210000D02*
X167510000Y-90160000D01*
X167510000Y-90160000D02*
X169330000Y-88340000D01*
X171280000Y-88340000D02*
X172540000Y-89600000D01*
%TO.N,PB3*%
X192650000Y-111035000D02*
X192650000Y-101210000D01*
X192650000Y-101210000D02*
X188200000Y-96760000D01*
X174050000Y-96760000D02*
X171270000Y-93980000D01*
X188200000Y-96760000D02*
X174050000Y-96760000D01*
X171270000Y-93980000D02*
X171270000Y-90870000D01*
X171270000Y-90870000D02*
X170000000Y-89600000D01*
%TO.N,PB4*%
X170000000Y-92140000D02*
X170000000Y-95170000D01*
X172740000Y-97910000D02*
X186720000Y-97910000D01*
X170000000Y-95170000D02*
X172740000Y-97910000D01*
X190110000Y-101300000D02*
X190110000Y-111035000D01*
X186720000Y-97910000D02*
X190110000Y-101300000D01*
%TO.N,HAND_DOWN*%
X195300000Y-135880000D02*
X195320000Y-135880000D01*
X185030000Y-125610000D02*
X195300000Y-135880000D01*
X195320000Y-135880000D02*
X197170000Y-137730000D01*
X197170000Y-137730000D02*
X197170000Y-143810000D01*
%TO.N,HAND_UP*%
X209980000Y-138040000D02*
X202910000Y-130970000D01*
X209980000Y-143810000D02*
X209980000Y-138040000D01*
X202910000Y-130970000D02*
X192930000Y-130970000D01*
X192930000Y-130970000D02*
X187570000Y-125610000D01*
%TO.N,WEAPON*%
X222790000Y-136440000D02*
X216340000Y-129990000D01*
X222790000Y-143810000D02*
X222790000Y-136440000D01*
X216340000Y-129990000D02*
X194490000Y-129990000D01*
X194490000Y-129990000D02*
X190110000Y-125610000D01*
%TO.N,RIGHT*%
X184360000Y-143810000D02*
X184360000Y-130090000D01*
X184360000Y-130090000D02*
X182490000Y-128220000D01*
X182490000Y-128220000D02*
X182490000Y-125610000D01*
%TO.N,LEFT*%
X165520000Y-129900000D02*
X163730000Y-131690000D01*
X178410000Y-129900000D02*
X165520000Y-129900000D01*
X179950000Y-125610000D02*
X179950000Y-128360000D01*
X179950000Y-128360000D02*
X178410000Y-129900000D01*
X163730000Y-131690000D02*
X163730000Y-143810000D01*
%TO.N,+3.3V*%
X158730000Y-143810000D02*
X161550000Y-146630000D01*
X161550000Y-146630000D02*
X173725100Y-146630000D01*
X173725100Y-146630000D02*
X176545100Y-143810000D01*
X169790000Y-111035000D02*
X169790000Y-116910000D01*
X169790000Y-116910000D02*
X158730000Y-127970000D01*
X158730000Y-127970000D02*
X158730000Y-143810000D01*
X163040000Y-93020000D02*
X163040000Y-98840000D01*
X163040000Y-98840000D02*
X169790000Y-105590000D01*
X169790000Y-105590000D02*
X169790000Y-111035000D01*
X163990000Y-90160000D02*
X163990000Y-86120000D01*
X163040000Y-93020000D02*
X163040000Y-91110000D01*
X163990000Y-86120000D02*
X163990000Y-84500000D01*
X163990000Y-84500000D02*
X165680000Y-82810000D01*
X163040000Y-91110000D02*
X163990000Y-90160000D01*
X170830000Y-82810000D02*
X172540000Y-84520000D01*
X165680000Y-82810000D02*
X170830000Y-82810000D01*
%TD*%
M02*
